<svg width="131" height="56" viewBox="0 0 131 56" fill="none" xmlns="http://www.w3.org/2000/svg">
<path d="M5.3159 24.757L15.1956 18.0564L6.34849 5.77927L108.305 16.2379L124.898 25.6307L115.643 33.9883H12.007L5.3159 24.757ZM0 2.0874L10.9903 17.2457L1.14732 24.0109L10.5553 37.0406H116.773L129.985 25.0542L109.244 13.3697L0 2.0874Z" fill="white"/>
<path d="M15.0413 51.3602V41.4409H16.2348C16.7368 41.4409 17.1878 41.4813 17.5845 41.5604C17.9829 41.6379 18.3574 41.772 18.708 41.9609C19.0585 42.1499 19.331 42.4309 19.5254 42.8024C19.7198 43.1754 19.817 43.6292 19.817 44.1654C19.817 44.5417 19.723 44.9115 19.5318 45.2765C19.3422 45.6399 19.0872 45.8967 18.7669 46.0452V46.0711C19.3294 46.1761 19.7963 46.4732 20.1676 46.9593C20.5405 47.4471 20.7269 47.9881 20.7269 48.584C20.7269 49.5142 20.3971 50.2087 19.7405 50.669C19.0824 51.1292 18.2777 51.3602 17.3248 51.3602H15.0413ZM16.2619 42.5456V45.8353H16.5727C17.2483 45.8353 17.7662 45.7206 18.1295 45.4929C18.4944 45.2652 18.6761 44.8275 18.6761 44.1783C18.6761 43.5372 18.496 43.106 18.1375 42.8815C17.7774 42.6586 17.2642 42.5456 16.5982 42.5456H16.2619ZM16.2619 46.8221V50.2555H17.1957C18.735 50.2555 19.5063 49.6725 19.5063 48.5049C19.5063 48.1722 19.4298 47.8896 19.2784 47.657C19.127 47.4244 18.9215 47.2516 18.6617 47.137C18.4036 47.0239 18.1391 46.9416 17.8714 46.8931C17.6021 46.8463 17.3168 46.8221 17.0141 46.8221H16.2619Z" fill="white"/>
<path d="M21.908 45.2034H23.0761V48.6094C23.0761 49.1811 23.178 49.6317 23.382 49.966C23.5844 50.2987 23.9509 50.465 24.4783 50.465C25.0058 50.465 25.3707 50.2987 25.5747 49.966C25.7786 49.6317 25.879 49.1811 25.879 48.6094V45.2034H27.047V48.7418C27.047 49.6188 26.8351 50.31 26.4112 50.8139C25.9874 51.3177 25.3436 51.5713 24.4783 51.5713C23.6131 51.5713 22.9677 51.3177 22.5438 50.8139C22.12 50.31 21.908 49.6188 21.908 48.7418V45.2034Z" fill="white"/>
<path d="M30.2486 42.3885C30.2486 42.6082 30.1705 42.7955 30.0143 42.9538C29.8598 43.1121 29.6686 43.1912 29.4439 43.1912C29.2192 43.1912 29.028 43.1121 28.8734 42.9538C28.7172 42.7955 28.6392 42.6082 28.6392 42.3885C28.6392 42.1608 28.7172 41.9654 28.8734 41.8039C29.028 41.6408 29.2192 41.5601 29.4439 41.5601C29.6686 41.5601 29.8598 41.6408 30.0143 41.8039C30.1705 41.9654 30.2486 42.1608 30.2486 42.3885ZM30.0287 51.3598H28.8607V45.2035H30.0287V51.3598Z" fill="white"/>
<path d="M33.1185 39.9414H31.9489V51.3594H33.1185V39.9414Z" fill="white"/>
<path d="M39.3147 51.3594V50.3985H39.2892C39.047 50.7586 38.7458 51.0428 38.3873 51.2544C38.0272 51.4644 37.6399 51.5693 37.2256 51.5693C36.3253 51.5693 35.6162 51.2463 35.0967 50.602C34.5772 49.9576 34.3175 49.1711 34.3175 48.2408C34.3175 47.3639 34.582 46.6081 35.1095 45.9718C35.6369 45.3355 36.3253 45.0189 37.1731 45.0189C38.0558 45.0189 38.7602 45.4227 39.2892 46.2286H39.3147V39.9414H40.4827V51.3594H39.3147ZM37.4073 50.518C38.0208 50.518 38.5036 50.3032 38.8542 49.8736C39.2048 49.444 39.38 48.9127 39.38 48.2812C39.38 47.6578 39.2016 47.1346 38.8478 46.7082C38.4925 46.2835 38.0128 46.0703 37.4073 46.0703C36.8273 46.0703 36.362 46.2883 36.0114 46.7227C35.6608 47.1556 35.4855 47.6756 35.4855 48.2812C35.4855 48.8949 35.6592 49.4214 36.005 49.8607C36.3508 50.2983 36.8177 50.518 37.4073 50.518Z" fill="white"/>
<path d="M43.647 42.3885C43.647 42.6082 43.5689 42.7955 43.4128 42.9538C43.2582 43.1121 43.067 43.1912 42.8423 43.1912C42.6176 43.1912 42.4264 43.1121 42.2718 42.9538C42.1157 42.7955 42.0376 42.6082 42.0376 42.3885C42.0376 42.1608 42.1157 41.9654 42.2718 41.8039C42.4264 41.6408 42.6176 41.5601 42.8423 41.5601C43.067 41.5601 43.2582 41.6408 43.4128 41.8039C43.5689 41.9654 43.647 42.1608 43.647 42.3885ZM43.4271 51.3598H42.2591V45.2035H43.4271V51.3598Z" fill="white"/>
<path d="M46.4595 45.2036V46.0321H46.485C46.6587 45.7075 46.9121 45.4588 47.2451 45.2828C47.5782 45.1067 47.9351 45.0195 48.316 45.0195C49.1111 45.0195 49.6704 45.2569 49.9907 45.7301C50.3094 46.2033 50.4704 46.8558 50.4704 47.6907V51.36H49.3023V47.8345C49.3023 47.2305 49.2179 46.7847 49.049 46.4989C48.8801 46.2146 48.5183 46.0725 47.9654 46.0725C47.7232 46.0725 47.5112 46.1032 47.3296 46.1646C47.1479 46.2243 47.0045 46.3261 46.9009 46.4666C46.7974 46.6071 46.7129 46.7411 46.6476 46.8671C46.5822 46.9947 46.5376 47.1739 46.5121 47.4065C46.485 47.639 46.4707 47.8215 46.4659 47.9524C46.4611 48.0848 46.4595 48.277 46.4595 48.5321V51.36H45.2915V45.2036H46.4595Z" fill="white"/>
<path d="M57.7652 45.2036V51.2421C57.7652 52.4081 57.5485 53.3077 57.1166 53.9391C56.6832 54.569 55.9135 54.8855 54.8061 54.8855C53.9488 54.8855 53.2476 54.6352 52.7026 54.1362C52.1577 53.6355 51.8804 52.9556 51.8724 52.0964H53.0405C53.0405 52.6407 53.2078 53.0654 53.5408 53.3739C53.8739 53.6791 54.3121 53.8325 54.8571 53.8325C55.5247 53.8325 55.9805 53.6355 56.2275 53.2414C56.4745 52.8458 56.5972 52.2886 56.5972 51.5715V50.3991H56.5717C56.3294 50.7592 56.0283 51.0434 55.6697 51.255C55.3096 51.465 54.9224 51.5715 54.5081 51.5715C53.6078 51.5715 52.8986 51.2485 52.3792 50.6042C51.8597 49.9582 51.5999 49.1717 51.5999 48.2431C51.5999 47.3661 51.8645 46.6087 52.3919 45.9724C52.9194 45.3377 53.6078 45.0195 54.4555 45.0195C55.3463 45.0195 56.0522 45.4314 56.5717 46.2566H56.5972V45.2036H57.7652ZM54.6897 50.5186C55.3032 50.5186 55.7861 50.3038 56.1366 49.8742C56.4872 49.4446 56.6625 48.9133 56.6625 48.2818C56.6625 47.66 56.484 47.1352 56.1303 46.7104C55.7749 46.2841 55.2953 46.0725 54.6897 46.0725C54.1097 46.0725 53.6444 46.2889 53.2938 46.7233C52.9433 47.1578 52.768 47.6778 52.768 48.2818C52.768 48.8955 52.9417 49.422 53.2875 49.8613C53.6332 50.2989 54.1001 50.5186 54.6897 50.5186Z" fill="white"/>
<path d="M64.3777 46.3087V51.3604H63.2097V46.3087H62.5739V45.204H63.2097V42.8494H64.3777V45.204H65.5203V46.3087H64.3777Z" fill="white"/>
<path d="M66.5399 45.9659C67.1709 45.3345 67.9422 45.0195 68.8504 45.0195C69.7587 45.0195 70.5268 45.3345 71.1546 45.9659C71.7809 46.599 72.0948 47.3742 72.0948 48.2947C72.0948 49.2169 71.7809 49.9921 71.1546 50.6236C70.5268 51.255 69.7587 51.5699 68.8504 51.5699C67.9422 51.5699 67.1741 51.255 66.5462 50.6236C65.9184 49.9921 65.6045 49.2169 65.6045 48.2947C65.6045 47.3742 65.9168 46.599 66.5399 45.9659ZM66.7725 48.2947C66.7725 48.8729 66.9765 49.3752 67.3828 49.8015C67.7908 50.2263 68.2784 50.4394 68.8504 50.4394C69.4209 50.4394 69.9101 50.2263 70.3165 49.8015C70.7228 49.3752 70.9268 48.8729 70.9268 48.2947C70.9268 47.7085 70.7228 47.203 70.3165 46.7831C69.9101 46.3616 69.4209 46.1516 68.8504 46.1516C68.2784 46.1516 67.7908 46.3616 67.3828 46.7831C66.9765 47.203 66.7725 47.7085 66.7725 48.2947Z" fill="white"/>
<path d="M78.8438 45.2036V51.2421C78.8438 52.4081 78.6271 53.3077 78.1952 53.9391C77.7618 54.569 76.9922 54.8855 75.8847 54.8855C75.0274 54.8855 74.3262 54.6352 73.7813 54.1362C73.2363 53.6355 72.959 52.9556 72.951 52.0964H74.1191C74.1191 52.6407 74.2864 53.0654 74.6194 53.3739C74.9525 53.6791 75.3907 53.8325 75.9357 53.8325C76.6033 53.8325 77.0591 53.6355 77.3061 53.2414C77.5531 52.8458 77.6758 52.2886 77.6758 51.5715V50.3991H77.6503C77.4081 50.7592 77.1069 51.0434 76.7484 51.255C76.3882 51.465 76.001 51.5715 75.5851 51.5715C74.6864 51.5715 73.9773 51.2485 73.4578 50.6042C72.9383 49.9582 72.6786 49.1717 72.6786 48.2431C72.6786 47.3661 72.9431 46.6087 73.4705 45.9724C73.998 45.3377 74.6864 45.0195 75.5341 45.0195C76.4249 45.0195 77.1308 45.4314 77.6503 46.2566H77.6758V45.2036H78.8438ZM75.7668 50.5186C76.3818 50.5186 76.8647 50.3038 77.2152 49.8742C77.5658 49.4446 77.7411 48.9133 77.7411 48.2818C77.7411 47.66 77.5626 47.1352 77.2089 46.7104C76.8535 46.2841 76.3739 46.0725 75.7668 46.0725C75.1883 46.0725 74.723 46.2889 74.3724 46.7233C74.0219 47.1578 73.8466 47.6778 73.8466 48.2818C73.8466 48.8955 74.0203 49.422 74.3661 49.8613C74.7119 50.2989 75.1788 50.5186 75.7668 50.5186Z" fill="white"/>
<path d="M85.6981 48.4788H81.0642C81.0738 49.0312 81.2459 49.5092 81.5837 49.913C81.9215 50.3167 82.3581 50.5186 82.8951 50.5186C83.319 50.5186 83.668 50.4184 83.9405 50.2214C84.2114 50.0244 84.4695 49.724 84.7117 49.3203L85.6981 49.8855C85.4129 50.412 85.0209 50.8238 84.5237 51.1226C84.0265 51.4197 83.4784 51.5699 82.8808 51.5699C81.9725 51.5699 81.2491 51.2631 80.7073 50.6494C80.1671 50.0357 79.8962 49.2637 79.8962 48.3351C79.8962 47.3516 80.1511 46.5538 80.6627 45.9401C81.1726 45.3264 81.904 45.0195 82.8553 45.0195C83.7811 45.0195 84.487 45.3231 84.9715 45.9336C85.4559 46.5425 85.6981 47.329 85.6981 48.2947V48.4788ZM81.1295 47.5841H84.5301C84.4616 47.1109 84.2799 46.7363 83.9851 46.4601C83.6903 46.1823 83.3142 46.0451 82.8553 46.0451C82.4059 46.0451 82.0219 46.1888 81.708 46.4795C81.3909 46.7686 81.1981 47.1368 81.1295 47.5841Z" fill="white"/>
<path d="M88.0324 46.3087V51.3604H86.8643V46.3087H86.2285V45.204H86.8643V42.8494H88.0324V45.204H89.1749V46.3087H88.0324Z" fill="white"/>
<path d="M89.8174 39.9414H90.9854V46.0315H91.0109C91.1846 45.7085 91.4363 45.4582 91.771 45.2822C92.104 45.1062 92.4594 45.0189 92.8418 45.0189C93.637 45.0189 94.1947 45.2563 94.5166 45.7295C94.8353 46.2027 94.9962 46.8568 94.9962 47.6901V51.3594H93.8282V47.8339C93.8282 47.2299 93.7437 46.7841 93.5748 46.4983C93.4059 46.214 93.0442 46.0719 92.4912 46.0719C92.249 46.0719 92.0371 46.1026 91.8538 46.164C91.6738 46.2253 91.5304 46.3255 91.4268 46.466C91.3232 46.6065 91.2388 46.7405 91.1734 46.8665C91.1081 46.9941 91.0635 47.175 91.0364 47.4075C91.0109 47.6401 90.9965 47.821 90.9918 47.9518C90.987 48.0842 90.9854 48.278 90.9854 48.5316V51.3594H89.8174V39.9414Z" fill="white"/>
<path d="M101.936 48.4788H97.3018C97.3114 49.0312 97.4835 49.5092 97.8213 49.913C98.1591 50.3167 98.5957 50.5186 99.1328 50.5186C99.5566 50.5186 99.904 50.4184 100.178 50.2214C100.449 50.0244 100.707 49.724 100.949 49.3203L101.936 49.8855C101.65 50.412 101.258 50.8238 100.761 51.1226C100.263 51.4197 99.716 51.5699 99.1184 51.5699C98.2101 51.5699 97.4851 51.2631 96.9449 50.6494C96.4047 50.0357 96.1338 49.2637 96.1338 48.3351C96.1338 47.3516 96.3887 46.5538 96.9003 45.9401C97.4102 45.3264 98.1416 45.0195 99.0929 45.0195C100.019 45.0195 100.725 45.3231 101.209 45.9336C101.694 46.5425 101.936 47.329 101.936 48.2947V48.4788ZM97.3672 47.5841H100.768C100.698 47.1109 100.516 46.7363 100.223 46.4601C99.9279 46.1823 99.5518 46.0451 99.0929 46.0451C98.6435 46.0451 98.2595 46.1888 97.944 46.4795C97.6285 46.7686 97.4357 47.1368 97.3672 47.5841Z" fill="white"/>
<path d="M104.184 45.2036V46.2033H104.223C104.371 45.8351 104.589 45.546 104.879 45.3345C105.168 45.1245 105.504 45.0195 105.885 45.0195C106.213 45.0195 106.533 45.1197 106.844 45.3215L106.313 46.4004C106.122 46.234 105.885 46.1516 105.599 46.1516C105.297 46.1516 105.045 46.2146 104.846 46.3422C104.647 46.4682 104.502 46.6474 104.412 46.88C104.32 47.1126 104.259 47.3419 104.229 47.5648C104.199 47.7876 104.184 48.0444 104.184 48.3351V51.36H103.016V45.2036H104.184Z" fill="white"/>
<path d="M90.9884 18.1881C89.7455 17.5727 88.3129 17.3418 86.8485 17.3418C84.0153 17.3418 80.9064 18.7775 80.4028 22.0075C80.0331 24.3654 81.3621 25.0824 82.7437 25.4668C84.1252 25.8512 85.5594 25.9045 85.3984 26.9284C85.2869 27.647 84.3834 27.928 83.8017 27.928C82.664 27.928 81.1996 27.2627 80.3678 26.5957L78.1895 29.8499C79.6061 30.8237 81.343 31.3615 83.1882 31.3615C86.2 31.3615 89.5335 29.9274 90.0737 26.4665C90.4562 24.0311 88.9965 23.0072 86.9154 22.5711C86.3035 22.4419 84.8805 22.3143 85.0224 21.418C85.1259 20.751 86.0725 20.5217 86.6031 20.5217C87.3887 20.5217 88.3336 20.7769 88.9822 21.1612L90.9884 18.1881Z" fill="white"/>
<path d="M99.5794 21.3922C101.452 21.3922 102.325 22.7504 102.073 24.3654C101.814 26.0304 100.526 27.3111 98.6536 27.3111C96.7812 27.3111 95.8953 26.0304 96.1534 24.3654C96.4068 22.7504 97.7071 21.3922 99.5794 21.3922ZM107.555 17.7778H102.951L102.75 19.0585C101.97 17.9038 100.489 17.3418 98.9978 17.3418C95.1543 17.3418 91.9928 20.5702 91.4032 24.3379C90.8152 28.1073 93.0142 31.3615 96.8561 31.3615C98.3763 31.3615 100.059 30.7737 101.074 29.4655H101.125L100.897 30.9271H105.499L107.555 17.7778Z" fill="white"/>
<path d="M53.6957 17.7778H49.0921L47.0381 30.9271H51.6417L52.7077 24.1102C52.9627 22.4694 53.7148 21.0595 55.5856 21.0595C57.8627 21.0595 57.3161 23.264 57.1185 24.5188L56.1178 30.9271H60.7198L61.9899 22.8021C62.495 19.5721 61.4529 17.3418 57.9631 17.3418C56.1672 17.3418 54.7936 17.8812 53.4822 19.4704H53.4312L53.6957 17.7778Z" fill="white"/>
<path d="M72.3245 17.3398C68.1512 17.3398 64.1117 19.877 63.4105 24.3651C62.7094 28.8515 65.9856 31.3612 70.1335 31.3612C74.3053 31.3612 78.3448 28.824 79.0411 24.3651C79.7423 19.877 76.4963 17.3398 72.3245 17.3398ZM71.6919 21.3902C73.5627 21.3902 74.4375 22.7484 74.1857 24.3651C73.926 26.0301 72.6369 27.3108 70.7645 27.3108C68.8937 27.3108 68.0062 26.0301 68.2675 24.3651C68.5193 22.7484 69.8196 21.3902 71.6919 21.3902Z" fill="white"/>
<path d="M38.8628 21.3922C40.7351 21.3922 41.6084 22.7504 41.3566 24.3654C41.0969 26.0304 39.8093 27.3111 37.9385 27.3111C36.0646 27.3111 35.1786 26.0304 35.4383 24.3654C35.6917 22.7504 36.992 21.3922 38.8628 21.3922ZM46.8366 17.7778H42.2346L42.0354 19.0585C41.2546 17.9038 39.7742 17.3418 38.2811 17.3418C34.4376 17.3418 31.2761 20.5702 30.6881 24.3379C30.0985 28.1073 32.2944 31.3615 36.1411 31.3615C37.6581 31.3615 39.3424 30.7737 40.3559 29.4655H40.4085L40.179 30.9271H44.7826L46.8366 17.7778Z" fill="white"/>
<path d="M23.3842 30.9254H27.9878L31.3103 9.65112H26.7083L25.2375 19.0584C24.4582 17.9037 22.9779 17.3417 21.4864 17.3417C17.6413 17.3417 14.4798 20.5701 13.8918 24.3378C13.3038 28.1072 15.4996 31.3598 19.3431 31.3598C20.8617 31.3598 22.5492 30.772 23.5627 29.4654H23.6105L23.3842 30.9254ZM22.0664 21.3921C23.9372 21.3921 24.8136 22.7503 24.5602 24.3653C24.3021 26.0303 23.0129 27.3126 21.1422 27.3126C19.2698 27.3126 18.3807 26.0303 18.6436 24.3653C18.8953 22.7503 20.1956 21.3921 22.0664 21.3921Z" fill="white"/>
</svg>
