<?xml version="1.0" encoding="utf-8"?>
<!-- Generator: Adobe Illustrator 24.2.3, SVG Export Plug-In . SVG Version: 6.00 Build 0)  -->
<svg version="1.1" id="Capa_1" xmlns:serif="http://www.serif.com/"
	 xmlns="http://www.w3.org/2000/svg" xmlns:xlink="http://www.w3.org/1999/xlink" x="0px" y="0px" viewBox="0 0 152 152"
	 style="enable-background:new 0 0 152 152;" xml:space="preserve">
<style type="text/css">
	.st0{clip-path:url(#SVGID_2_);}
	.st1{fill:#FFE000;stroke:#000000;stroke-width:0.25;}
	.st2{fill:#DB2F34;stroke:#000000;stroke-width:0.25;}
	.st3{fill:#007A3E;stroke:#000000;stroke-width:0.25;}
	.st4{fill:#575232;stroke:#000000;stroke-width:0.125;}
	.st5{fill:#007A3E;stroke:#000000;stroke-width:0.125;}
	.st6{fill:#FFFFFF;stroke:#000000;stroke-width:0.125;}
	.st7{fill:none;stroke:#000000;stroke-width:0.125;}
	.st8{fill:#FFE000;stroke:#000000;stroke-width:0.125;}
	.st9{fill:#DB2F34;stroke:#000000;stroke-width:0.125;}
	.st10{fill:#FFE000;stroke:#000000;stroke-width:0.125;stroke-miterlimit:3.9996;}
	.st11{fill:#006582;stroke:#000000;stroke-width:0.125;}
	.st12{fill:#6EC8E9;stroke:#000000;stroke-width:0.125;}
	.st13{fill:#009D59;stroke:#000000;stroke-width:0.125;}
	.st14{fill:#FFFFFF;stroke:#000000;stroke-width:0.125;stroke-linejoin:bevel;}
	.st15{fill:none;stroke:#000000;stroke-width:0.125;stroke-linejoin:bevel;}
	.st16{fill:#DB2F34;stroke:#000000;stroke-width:0.125;stroke-linejoin:bevel;}
	.st17{fill:#575232;stroke:#000000;stroke-width:0.125;stroke-linejoin:bevel;}
	.st18{fill:#007A3E;stroke:#000000;stroke-width:0.125;stroke-linejoin:bevel;}
	.st19{fill:#FFE000;}
	.st20{fill:#FFE000;stroke:#000000;stroke-width:0.125;stroke-linejoin:bevel;}
	.st21{fill:none;stroke:#000000;stroke-width:0.125;stroke-linecap:round;stroke-linejoin:bevel;}
	.st22{fill:#F3ACC5;stroke:#000000;stroke-width:0.125;}
	.st23{fill:#DB2F34;}
	.st24{fill:none;stroke:#515151;stroke-width:2;stroke-linecap:square;stroke-miterlimit:1.5;}
</style>
<g>
	<g>
		<g>
			<defs>
				<circle id="SVGID_1_" cx="76" cy="76" r="75"/>
			</defs>
			<clipPath id="SVGID_2_">
				<use xlink:href="#SVGID_1_"  style="overflow:visible;"/>
			</clipPath>
			<g class="st0">
				<rect x="-36.5" y="51.2" class="st1" width="225" height="50"/>
				<rect x="-36.5" y="1.1" class="st2" width="225" height="50"/>
				<rect x="-36.5" y="101.2" class="st3" width="225" height="50"/>
				<g>
					<g>
						<path class="st4" d="M65.5,95.4c-1.1,1.2-2,2-1.2,2.5c0.6,0.4,1,0.9,1.2,1.5c0.2,0.6,0.7,0.8,1.1-0.1c0.3-0.7,3-5.4,3.9-6.3
							L65.5,95.4z"/>
						<path class="st4" d="M63.4,95.2c-1.1,1.2-2,2-1.2,2.5c0.6,0.4,1,0.9,1.2,1.5c0.2,0.6,0.7,0.8,1.1-0.1c0.3-0.7,1.6-3.1,2.4-4
							L63.4,95.2z"/>
						<path class="st4" d="M86.3,95.4c1.1,1.2,2,2,1.2,2.5c-0.6,0.4-1,0.9-1.2,1.5c-0.2,0.6-0.7,0.8-1.1-0.1c-0.3-0.7-3-5.4-3.9-6.3
							L86.3,95.4z"/>
						<path class="st4" d="M88.5,95.2c1.1,1.2,2,2,1.2,2.5c-0.6,0.4-1,0.9-1.2,1.5c-0.2,0.6-0.7,0.8-1.1-0.1c-0.3-0.7-1.6-3.1-2.4-4
							L88.5,95.2z"/>
					</g>
					<g>
						<g>
							<path class="st5" d="M78,69.7c6.8-0.6,8.5-6,8.4-10.6c0.3,3-0.1,9.9-8.3,10.9"/>
							<path class="st5" d="M86.4,59.5c0.1-0.6,0.1-1.5-0.4-1.8c-0.4-0.3-0.4-0.1-0.3,0.4c0.1,1,0.7,1.4,0.6,1.7"/>
							<path class="st5" d="M86.4,59.4c0-0.8,0.4-1.9,0.7-2.3c0.3-0.3,0.5-0.4,0.4,0.4c0,1.6-1.1,1.8-1.1,2.2"/>
							<path class="st5" d="M86.4,60.6c0.1-0.6,0.1-1.3,1-1.6c0.6-0.2,0.6,0.1,0.4,0.6c-0.3,0.6-1.3,0.6-1.4,1.5"/>
							<path class="st5" d="M86.4,60.9c0.1-0.7-0.1-1.7-0.7-2c-0.5-0.4-0.7-0.3-0.6,0.2c0.2,1,1.3,1.2,1.2,2"/>
							<path class="st5" d="M86.3,61.7c0.1-0.6,0.5-1.2,1-1.2c0.5,0,0.8-0.1,0.5,0.4C87.5,61.5,86.4,61.1,86.3,61.7"/>
							<path class="st5" d="M86.3,62.3c0.1-0.5-0.1-1.4-0.5-1.8c-0.4-0.4-0.8-0.8-0.9-0.2c0,1.3,1.5,1.5,1.2,2.5"/>
							<path class="st5" d="M86.1,63c0.2-1.1,0.9-1.6,1.5-1.6c0.5,0,0.5,0.2,0.2,0.6c-0.3,0.4-1.4,0.1-1.7,1.2"/>
							<path class="st5" d="M85.9,63.6c0.1-0.5-0.1-1.4-0.5-1.8c-0.4-0.4-0.8-0.8-0.9-0.2c0,1.3,1.5,1.5,1.2,2.5"/>
							<path class="st5" d="M85.9,63.8c0.2-0.5,0.9-1.1,1.4-1.2c0.6-0.1,1.1-0.2,0.8,0.3c-0.7,1.1-2.1,0.4-2.4,1.4"/>
							<path class="st5" d="M85.5,64.8c0.1-0.7-0.2-1.6-0.7-2c-0.5-0.4-0.7-0.3-0.6,0.2c0.2,1,1.3,1.2,1.2,2"/>
							<path class="st5" d="M85.5,64.9c0.4-0.6,1.2-1.1,1.9-1c0.6,0.1,0.7,0.2,0.3,0.6c-0.8,0.6-1.8,0-2.2,0.6"/>
							<path class="st5" d="M84.9,66c0.2-0.8-0.1-1.7-0.6-2.1c-0.5-0.4-0.7-0.3-0.6,0.2c0.2,1,1.2,1.3,1.1,2.1"/>
							<path class="st5" d="M84.7,66.2c0.5-0.7,1.4-1.1,2.1-0.9c0.6,0.1,0.7,0.3,0.3,0.6c-0.8,0.6-1.9,0-2.4,0.6"/>
							<path class="st5" d="M84.1,67c0.3-0.8,0.1-1.7-0.4-2.1C83.2,64.4,83,64.5,83,65c0.1,1,1,1.4,0.9,2.2"/>
							<path class="st5" d="M83.9,67.2c0.5-0.6,1.5-0.9,2.2-0.7c0.6,0.2,0.6,0.4,0.2,0.6c-0.9,0.5-1.9-0.3-2.5,0.3"/>
							<path class="st5" d="M83.2,67.8c0.3-0.8,0.2-1.7-0.2-2.2c-0.4-0.5-0.6-0.4-0.6,0.1c0,1,0.9,1.5,0.7,2.2"/>
							<path class="st5" d="M83,68c0.6-0.6,1.5-0.8,2.2-0.5c0.6,0.2,0.6,0.4,0.2,0.6c-0.9,0.4-1.9-0.4-2.5,0.1"/>
							<path class="st5" d="M82.1,68.6c0.4-0.7,0.5-1.6,0.1-2.2c-0.4-0.5-0.5-0.5-0.6,0c-0.2,1,0.7,1.6,0.4,2.3"/>
							<path class="st5" d="M81.9,68.7c0.6-0.5,1.6-0.6,2.3-0.3c0.6,0.3,0.6,0.5,0.1,0.6c-1,0.3-1.8-0.6-2.5-0.1"/>
							<path class="st5" d="M81,69.1c0.5-0.6,0.7-1.5,0.4-2.1c-0.3-0.6-0.5-0.6-0.6-0.1c-0.3,0.9,0.5,1.7,0,2.4"/>
							<path class="st5" d="M80.7,69.2c0.7-0.4,1.7-0.4,2.3,0.1c0.5,0.4,0.5,0.5,0,0.6c-1,0.1-1.7-0.9-2.4-0.5"/>
						</g>
						<g>
							<path class="st5" d="M73.8,69.7c-6.8-0.6-8.5-6-8.4-10.6c-0.3,3,0.1,9.9,8.3,10.9"/>
							<path class="st5" d="M65.4,59.5c-0.1-0.6-0.1-1.5,0.4-1.8c0.4-0.3,0.4-0.1,0.3,0.4c-0.1,1-0.7,1.4-0.6,1.7"/>
							<path class="st5" d="M65.4,59.4c0-0.8-0.4-1.9-0.7-2.3c-0.3-0.3-0.5-0.4-0.4,0.4c0,1.6,1.1,1.8,1.1,2.2"/>
							<path class="st5" d="M65.4,60.6c-0.1-0.6-0.1-1.3-1-1.6c-0.6-0.2-0.6,0.1-0.4,0.6c0.3,0.6,1.3,0.6,1.4,1.5"/>
							<path class="st5" d="M65.4,60.9c-0.1-0.7,0.1-1.7,0.7-2c0.5-0.4,0.7-0.3,0.6,0.2c-0.2,1-1.3,1.2-1.2,2"/>
							<path class="st5" d="M65.5,61.7c-0.1-0.6-0.5-1.2-1-1.2c-0.5,0-0.8-0.1-0.5,0.4C64.4,61.5,65.4,61.1,65.5,61.7"/>
							<path class="st5" d="M65.6,62.3c-0.1-0.5,0.1-1.4,0.5-1.8c0.4-0.4,0.8-0.8,0.9-0.2c0,1.3-1.5,1.5-1.2,2.5"/>
							<path class="st5" d="M65.8,63c-0.2-1.1-0.9-1.6-1.5-1.6c-0.5,0-0.5,0.2-0.2,0.6c0.3,0.4,1.4,0.1,1.7,1.2"/>
							<path class="st5" d="M65.9,63.6c-0.1-0.5,0.1-1.4,0.5-1.8c0.4-0.4,0.8-0.8,0.9-0.2c0,1.3-1.5,1.5-1.2,2.5"/>
							<path class="st5" d="M65.9,63.8c-0.2-0.5-0.9-1.1-1.4-1.2c-0.6-0.1-1.1-0.2-0.8,0.3c0.7,1.1,2.1,0.4,2.4,1.4"/>
							<path class="st5" d="M66.3,64.8c-0.1-0.7,0.2-1.6,0.7-2c0.5-0.4,0.7-0.3,0.6,0.2c-0.2,1-1.3,1.2-1.2,2"/>
							<path class="st5" d="M66.4,64.9c-0.4-0.6-1.2-1.1-1.9-1c-0.6,0.1-0.7,0.2-0.3,0.6c0.8,0.6,1.8,0,2.2,0.6"/>
							<path class="st5" d="M67,66c-0.2-0.8,0.1-1.7,0.6-2.1c0.5-0.4,0.7-0.3,0.6,0.2c-0.2,1-1.2,1.3-1.1,2.1"/>
							<path class="st5" d="M67.1,66.2c-0.5-0.7-1.4-1.1-2.1-0.9c-0.6,0.1-0.7,0.3-0.3,0.6c0.8,0.6,1.9,0,2.4,0.6"/>
							<path class="st5" d="M67.8,67c-0.3-0.8-0.1-1.7,0.4-2.1c0.4-0.4,0.6-0.4,0.6,0.1c-0.1,1-1,1.4-0.9,2.2"/>
							<path class="st5" d="M67.9,67.2c-0.5-0.6-1.5-0.9-2.2-0.7c-0.6,0.2-0.6,0.4-0.2,0.6c0.9,0.5,1.9-0.3,2.5,0.3"/>
							<path class="st5" d="M68.6,67.8c-0.3-0.8-0.2-1.7,0.2-2.2c0.4-0.5,0.6-0.4,0.6,0.1c0,1-0.9,1.5-0.7,2.2"/>
							<path class="st5" d="M68.9,68c-0.6-0.6-1.5-0.8-2.2-0.5c-0.6,0.2-0.6,0.4-0.2,0.6c0.9,0.4,1.9-0.4,2.5,0.1"/>
							<path class="st5" d="M69.7,68.6c-0.4-0.7-0.5-1.6-0.1-2.2c0.4-0.5,0.5-0.5,0.6,0c0.2,1-0.7,1.6-0.4,2.3"/>
							<path class="st5" d="M70,68.7c-0.6-0.5-1.6-0.6-2.3-0.3c-0.6,0.3-0.6,0.5-0.1,0.6c1,0.3,1.8-0.6,2.5-0.1"/>
							<path class="st5" d="M70.9,69.1c-0.5-0.6-0.7-1.5-0.4-2.1c0.3-0.6,0.5-0.6,0.6-0.1c0.3,0.9-0.5,1.7,0,2.4"/>
							<path class="st5" d="M71.1,69.2c-0.7-0.4-1.7-0.4-2.3,0.1c-0.5,0.4-0.5,0.5,0,0.6c1,0.1,1.7-0.9,2.4-0.5"/>
						</g>
					</g>
					<g>
						<g>
							<g>
								<polygon class="st4" points="84.3,74.4 97.6,64.2 97.2,63.9 84,73.9 								"/>
								<polygon class="st4" points="83.2,72.7 94.2,60.5 93.8,60.2 82.9,72.3 								"/>
								<polygon class="st4" points="85,76.4 100.5,69.1 100.2,68.6 84.9,75.8 								"/>
							</g>
							<g>
								<polygon class="st4" points="67.6,74.4 54.2,64.2 54.6,63.9 67.8,73.9 								"/>
								<polygon class="st4" points="68.6,72.7 57.6,60.5 58.1,60.2 69,72.3 								"/>
								<polygon class="st4" points="66.9,76.4 51.4,69.1 51.7,68.6 67,75.8 								"/>
							</g>
						</g>
						<g>
							<path class="st6" d="M96.6,64.7c0.2,0.2,0.4,0.6,0.6,0.4c0.2-0.1-0.1-0.4-0.3-0.6c-0.2-0.2-0.4-0.6-0.6-0.4
								C96.1,64.2,96.4,64.4,96.6,64.7z"/>
							<path class="st6" d="M93.3,61.2c0.2,0.2,0.5,0.5,0.6,0.3c0.1-0.2-0.2-0.4-0.4-0.6c-0.2-0.2-0.5-0.5-0.6-0.3
								C92.7,60.7,93.1,60.9,93.3,61.2z"/>
							<path class="st6" d="M99.3,69.3c0.1,0.3,0.2,0.6,0.4,0.6c0.2-0.1,0-0.4-0.1-0.7c-0.1-0.3-0.2-0.6-0.4-0.6
								C99,68.7,99.2,69.1,99.3,69.3z"/>
							<polygon class="st6" points="97.1,64.3 98.3,64.6 101.3,61.1 97.1,63 							"/>
							<polygon class="st6" points="93.8,60.7 95,60.7 97.3,56.7 93.6,59.4 							"/>
							<polygon class="st6" points="100,69.1 101.1,69.6 104.8,66.8 100.3,67.8 							"/>
							<path class="st6" d="M55.3,64.7c-0.2,0.2-0.4,0.6-0.6,0.4c-0.2-0.1,0.1-0.4,0.3-0.6c0.2-0.2,0.4-0.6,0.6-0.4
								C55.8,64.2,55.5,64.4,55.3,64.7z"/>
							<path class="st6" d="M58.6,61.2c-0.2,0.2-0.5,0.5-0.6,0.3c-0.1-0.2,0.2-0.4,0.4-0.6c0.2-0.2,0.5-0.5,0.6-0.3
								C59.1,60.7,58.8,60.9,58.6,61.2z"/>
							<path class="st6" d="M52.5,69.3c-0.1,0.3-0.2,0.6-0.4,0.6c-0.2-0.1,0-0.4,0.1-0.7c0.1-0.3,0.2-0.6,0.4-0.6
								C52.8,68.7,52.6,69.1,52.5,69.3z"/>
							<polygon class="st6" points="54.7,64.3 53.5,64.6 50.5,61.1 54.7,63 							"/>
							<polygon class="st6" points="58.1,60.7 56.8,60.7 54.6,56.7 58.3,59.4 							"/>
							<polygon class="st6" points="51.9,69.1 50.7,69.6 47.1,66.8 51.5,67.8 							"/>
						</g>
						<g>
							<line class="st7" x1="101.3" y1="61.1" x2="97.1" y2="64.3"/>
							<line class="st7" x1="97.3" y1="56.7" x2="93.8" y2="60.7"/>
							<line class="st7" x1="104.8" y1="66.8" x2="100" y2="69.1"/>
							<line class="st7" x1="50.5" y1="61.1" x2="54.7" y2="64.3"/>
							<line class="st7" x1="54.6" y1="56.7" x2="58.1" y2="60.7"/>
							<line class="st7" x1="47.1" y1="66.8" x2="51.9" y2="69.1"/>
						</g>
					</g>
					<g>
						<g>
							<polygon class="st6" points="80.1,73.3 88,62.2 89,62 91.4,57.4 88.1,61.4 87.5,61.6 79.5,72.7 							"/>
							<polygon class="st6" points="81.1,74.7 89,63.6 90,63.4 92.4,58.7 89.1,62.8 88.4,62.9 80.5,74.1 							"/>
						</g>
						<g>
							<polygon class="st6" points="71.7,73.3 63.8,62.2 62.9,62 60.4,57.4 63.7,61.4 64.4,61.6 72.3,72.7 							"/>
							<polygon class="st6" points="70.8,74.7 62.8,63.6 61.9,63.4 59.5,58.7 62.8,62.8 63.4,62.9 71.4,74.1 							"/>
						</g>
					</g>
					<g>
						<path class="st5" d="M72.9,93.3c0,0.6,0,3.6,0,4.2c0-0.5-1.6,0.1-2.1,0.4v-5.7C71.4,92.6,72.5,93.1,72.9,93.3z"/>
						<path class="st5" d="M78.9,93.3c0,0.6,0,3.6,0,4.2c0-0.5,1.6,0.1,2.1,0.4v-5.7C80.4,92.6,79.4,93.1,78.9,93.3z"/>
						<path class="st8" d="M74,93.7c0,0,0,4.3,0,5c0,0.1-0.1,0.3-0.5,0.5c-0.3,0.1-0.4,0.3-0.4,0.6v-1.1c-0.1,0-0.1,0.1-0.1,0.1
							c-0.4,0.2-1,0.3-1,0c0-0.6,0-1.2,0-1.2c0.5-0.1,0.9-0.2,0.9,0.1c0-0.6,0-3.6,0-4.2C73.2,93.4,73.7,93.6,74,93.7z"/>
						<path class="st9" d="M75.4,93.8v6.1c-0.4-0.2-0.9-0.1-1.2,0c-0.7,0.3-1,0-1-0.2c0-0.3,0.1-0.4,0.4-0.6
							c0.4-0.1,0.5-0.3,0.5-0.5v-5.3C74.3,93.5,75.1,93.8,75.4,93.8z"/>
						<path class="st7" d="M72.9,97.5c0,0.2,0,0.4-0.4,0.6c-0.4,0.2-0.5,0.3-0.5,0.6"/>
						<path class="st7" d="M73.2,98.5c0.5-0.2,0.8-0.3,0.8,0.1"/>
						<path class="st8" d="M77.9,93.7c0,0,0,4.3,0,5c0,0.1,0.1,0.3,0.5,0.5c0.3,0.1,0.4,0.3,0.4,0.6v-1.1c0.1,0,0.1,0.1,0.1,0.1
							c0.4,0.2,1,0.3,1,0c0-0.6,0-1.2,0-1.2c-0.5-0.1-0.9-0.2-0.9,0.1c0-0.6,0-3.6,0-4.2C78.7,93.4,78.1,93.6,77.9,93.7z"/>
						<path class="st9" d="M76.5,93.8v6.1c0.4-0.2,0.9-0.1,1.2,0c0.7,0.3,1,0,1-0.2c0-0.3-0.1-0.4-0.4-0.6c-0.4-0.1-0.5-0.3-0.5-0.5
							v-5.3C77.5,93.5,76.7,93.8,76.5,93.8z"/>
						<path class="st7" d="M78.9,97.5c0,0.2,0,0.4,0.4,0.6c0.4,0.2,0.5,0.3,0.5,0.6"/>
						<path class="st7" d="M78.7,98.5c-0.5-0.2-0.8-0.3-0.8,0.1"/>
						<path class="st6" d="M76.5,93.8v5c-0.1-0.1-0.4-0.1-0.6-0.1c-0.2,0-0.4,0.1-0.6,0.1v-5H76.5z"/>
					</g>
					<g>
						<path class="st8" d="M78.9,88.8c3.9,3.6,13.5,5.3,13.5-4.6c0-5.3,0-11.5,0-16.6l-3.9,3c0,4.5,0,8,0,12.1
							C88.5,86.8,85.8,90.8,78.9,88.8z"/>
						<path class="st9" d="M92.4,67.5c0,5.2,0,11.3,0,16.6c0,9.9-9.6,8.2-13.5,4.6c11.6,11.1,17.4,2.4,17.4-4.4c0-5.3,0-13.1,0-19.9
							L92.4,67.5z"/>
						<path class="st5" d="M78.9,88.8c6.9,2.1,9.5-2,9.5-6.1c0-4.1,0-7.6,0-12.1l-4.1,3.1C84.4,79.4,84.9,89.8,78.9,88.8z"/>
						<path class="st9" d="M99.2,69.1c0,5,0,12.6,0,17.3c0,7.9-10.8,15.8-21.8,3.1l1.5-0.7c11.6,11.1,17.4,2.4,17.4-4.4
							c0-3.8,0-8.9,0-14L99.2,69.1z"/>
						<path class="st8" d="M72.9,88.8c-3.9,3.6-13.5,5.3-13.5-4.6c0-5.3,0-11.5,0-16.6l3.9,3c0,4.5,0,8,0,12.1
							C63.4,86.8,66,90.8,72.9,88.8z"/>
						<path class="st9" d="M59.4,67.5c0,5.2,0,11.3,0,16.6c0,9.9,9.6,8.2,13.5,4.6c-11.6,11.1-17.4,2.4-17.4-4.4
							c0-5.3,0-13.1,0-19.9L59.4,67.5z"/>
						<path class="st5" d="M72.9,88.8c-6.9,2.1-9.5-2-9.5-6.1c0-4.1,0-7.6,0-12.1l4.1,3.1C67.5,79.4,66.9,89.8,72.9,88.8z"/>
						<path class="st9" d="M52.7,69.1c0,5,0,12.6,0,17.3c0,7.9,10.8,15.8,21.8,3.1l-1.5-0.7c-11.6,11.1-17.4,2.4-17.4-4.4
							c0-3.8,0-8.9,0-14L52.7,69.1z"/>
					</g>
					<g>
						<polygon class="st9" points="93.1,61 93.1,67 90.4,69 90.4,63.9 						"/>
						<polygon class="st8" points="90.4,63.9 86.7,68 86.7,71.9 90.4,69 						"/>
						<polygon class="st5" points="86.7,68 83.6,71.5 83.6,74.2 86.7,71.9 						"/>
						<polygon class="st9" points="58.8,61 58.8,67 61.4,69 61.4,63.9 						"/>
						<polygon class="st8" points="61.4,63.9 65.1,68 65.1,71.9 61.4,69 						"/>
						<polygon class="st5" points="65.1,68 68.2,71.5 68.2,74.2 65.1,71.9 						"/>
					</g>
					<g>
						<path class="st9" d="M67.5,64.9c0.2,0.2-0.2,0.9-0.9,1.5c-0.7,0.6-1.5,0.9-1.7,0.6c-0.8-0.8-1-2.1-0.8-3
							c0.2-0.9,0.8-1.5,1.5-1.3s0.7,0.8,0.6,1.1C66.7,64.1,67.2,64.5,67.5,64.9z"/>
						<path class="st7" d="M67,64.4c0.2,0.6-0.8,1.4-1.5,1.8"/>
						<path class="st7" d="M66.2,63.9c-0.2-0.1-0.8-0.1-1,0.2"/>
					</g>
					<g>
						<path class="st6" d="M84.2,66.8l3-3.9c0.4-0.4,1,0.1,0.7,0.5l-3,3.9"/>
						<path class="st6" d="M86.4,65.4c0.8,0.6,2,1.6,2.2,3.1c0.7-0.3,1.3-0.9,1.7-1.5s0.9-1.2,0.9-2.1c-1.4,0.2-2.7-0.6-3.5-1.3
							L86.4,65.4z"/>
					</g>
					<g>
						<path class="st8" d="M66,93.3l20.1-25l-3-2.4L62.4,90.2C62.9,91.2,64.3,92.9,66,93.3z"/>
						<path class="st8" d="M82.5,69.6c0.7,0.6,1.5,0.8,1.9,0.8c0.3,0,0.6-0.4,0.5-0.6c-0.2,0.2-0.9,0.3-2-0.6
							c-1.1-0.9-1.2-1.6-1-1.9c-0.2-0.1-0.6,0.3-0.5,0.6C81.4,68.4,81.8,69,82.5,69.6z"/>
						<path class="st8" d="M66.1,89.5c0.9,0.7,1.8,1,2.3,0.9c0.4,0,0.7-0.5,0.6-0.7c-0.2,0.3-1.1,0.3-2.4-0.8
							c-1.3-1.1-1.4-2-1.2-2.2c-0.3-0.1-0.7,0.4-0.6,0.7C64.8,87.9,65.2,88.8,66.1,89.5z"/>
						<path class="st8" d="M63,92.6c-0.7-0.1-1.4,0.9-0.6,1.5c0.8,0.6,1.6-0.2,1.4-0.9"/>
						<polyline class="st8" points="63.6,93.3 64.2,92.6 63.5,91.9 62.8,92.8 						"/>
						<path class="st8" d="M63.6,92.5c0.9,0.8,1.9,1,2.3,1c0.4,0,0.7-0.5,0.6-0.8c-0.2,0.3-1.1,0.3-2.5-0.8c-1.4-1.1-1.4-2-1.2-2.3
							c-0.3-0.1-0.7,0.4-0.6,0.8C62.3,90.9,62.7,91.8,63.6,92.5z"/>
						<g>
							
								<ellipse transform="matrix(0.6319 -0.775 0.775 0.6319 -20.871 90.2783)" class="st10" cx="84.6" cy="67.1" rx="0.8" ry="1.9"/>
							<path class="st8" d="M84.6,67.1"/>
						</g>
						<g>
							<path d="M84.3,67.5c0.5,0.4,1.1,0.6,1.3,0.4c0.2-0.2,0-0.7-0.5-1.1s-1.1-0.6-1.3-0.4C83.5,66.6,83.8,67.1,84.3,67.5z"/>
							<path d="M84.6,67.2"/>
						</g>
						<path class="st8" d="M85.8,93.3l-20.1-25l3-2.4l20.7,24.3C88.9,91.2,87.5,92.9,85.8,93.3z"/>
						<path class="st8" d="M69.3,69.6c-0.7,0.6-1.5,0.8-1.9,0.8c-0.3,0-0.6-0.4-0.5-0.6c0.2,0.2,0.9,0.3,2-0.6
							c1.1-0.9,1.2-1.6,1-1.9c0.2-0.1,0.6,0.3,0.5,0.6C70.4,68.4,70.1,69,69.3,69.6z"/>
						<path class="st8" d="M85.7,89.5c-0.9,0.7-1.8,1-2.3,0.9c-0.4,0-0.7-0.5-0.6-0.7c0.2,0.3,1.1,0.3,2.4-0.8
							c1.3-1.1,1.4-2,1.2-2.2c0.3-0.1,0.7,0.4,0.6,0.7C87.1,87.9,86.6,88.8,85.7,89.5z"/>
						<path class="st8" d="M88.9,92.6c0.7-0.1,1.4,0.9,0.6,1.5c-0.8,0.6-1.6-0.2-1.4-0.9"/>
						<polyline class="st8" points="88.3,93.3 87.6,92.6 88.4,91.9 89.1,92.8 						"/>
						<path class="st8" d="M88.2,92.5c-0.9,0.8-1.9,1-2.3,1c-0.4,0-0.7-0.5-0.6-0.8c0.2,0.3,1.1,0.3,2.5-0.8c1.4-1.1,1.4-2,1.2-2.3
							c0.3-0.1,0.7,0.4,0.6,0.8C89.6,90.9,89.1,91.8,88.2,92.5z"/>
						<g>
							
								<ellipse transform="matrix(0.775 -0.6319 0.6319 0.775 -27.2888 57.5843)" class="st10" cx="67.2" cy="67.1" rx="1.9" ry="0.8"/>
							<path class="st8" d="M67.2,67.1"/>
						</g>
						<g>
							<path d="M67.6,67.5c-0.5,0.4-1.1,0.6-1.3,0.4s0-0.7,0.5-1.1s1.1-0.6,1.3-0.4C68.3,66.6,68.1,67.1,67.6,67.5z"/>
							<path d="M67.2,67.2"/>
						</g>
					</g>
					<g>
						<g>
							<g>
								<path class="st8" d="M96.2,65c0.6-0.1,2.2,0.6,1,1.4C96.1,67.1,96,65.5,96.2,65L96.2,65c-0.1,0.4,0.1,1.4,0.7,1.1
									C97.5,65.7,96.6,65.2,96.2,65c-0.1-0.3-0.5-1.3-0.9-0.8C94.9,64.7,95.9,65.1,96.2,65L96.2,65c-0.5,0.2-2.1-0.2-1.1-1.2
									C96.1,62.8,96.4,64.4,96.2,65z"/>
								<path class="st8" d="M96.1,72.3c0.3-0.4,0.3-1.5-0.1-2.1c0.1-0.9,0.2-3.7,0.2-5.4c-0.1,0.8-0.3,4.1-0.5,5.4
									c-0.6,0.6-0.6,1.5-0.5,1.9C95.3,72.4,96,72.5,96.1,72.3z"/>
								<path class="st8" d="M96.9,73c0.3-0.5,0.1-1.6-0.4-2.2c0.1-1-0.1-4-0.4-5.8c0,0.9,0.1,4.4,0.1,5.8c-0.6,0.7-0.6,1.6-0.4,2.1
									C96.1,73.2,96.8,73.2,96.9,73z"/>
								<path class="st8" d="M96.3,64.9c-0.4-0.4-0.7,0-0.4,0.4C96.3,65.6,96.7,65.2,96.3,64.9z"/>
								<path class="st8" d="M96.4,70.6c-0.3,0-0.3,0.4,0,0.4C96.7,71,96.7,70.6,96.4,70.6z"/>
								<path class="st8" d="M95.8,70c-0.3,0-0.3,0.4,0,0.4C96.1,70.4,96.1,70,95.8,70z"/>
							</g>
							<g>
								<path class="st8" d="M99,69.6c0.6-0.1,2.2,0.5,1.1,1.3C99,71.6,98.8,70,99,69.6L99,69.6c-0.1,0.3,0.1,1.3,0.7,1
									C100.3,70.2,99.4,69.6,99,69.6c-0.1-0.4-0.5-1.3-0.9-0.8C97.8,69.3,98.7,69.6,99,69.6L99,69.6c-0.5,0.2-2.1-0.2-1.2-1.2
									C98.8,67.4,99.2,69,99,69.6z"/>
								<path class="st8" d="M99.2,76.9c0.3-0.5,0.2-1.5-0.2-2c0.1-0.9,0.1-3.7,0-5.4c-0.1,0.8-0.2,4.1-0.3,5.4
									c-0.6,0.6-0.6,1.5-0.4,1.9C98.4,77,99.1,77.1,99.2,76.9z"/>
								<path class="st8" d="M100,77.5c0.2-0.5,0.1-1.6-0.4-2.2c0-1-0.3-4-0.6-5.7c0,0.9,0.2,4.4,0.3,5.8c-0.5,0.7-0.5,1.7-0.3,2.1
									C99.2,77.8,99.9,77.7,100,77.5z"/>
								<path class="st8" d="M99.2,69.4c-0.4-0.4-0.7,0-0.4,0.4C99.1,70.1,99.5,69.8,99.2,69.4z"/>
								<path class="st8" d="M99.4,75.1c-0.3,0-0.3,0.4,0,0.4C99.7,75.5,99.7,75.1,99.4,75.1z"/>
								<path class="st8" d="M98.8,74.6c-0.3,0-0.3,0.4,0,0.4C99.2,75,99.1,74.6,98.8,74.6z"/>
							</g>
							<g>
								<path class="st8" d="M92.8,61.5c0.6-0.1,2.2,0.6,1,1.4C92.8,63.6,92.6,62,92.8,61.5L92.8,61.5c-0.1,0.4,0.1,1.4,0.7,1.1
									S93.2,61.7,92.8,61.5c-0.1-0.3-0.5-1.3-0.9-0.8C91.6,61.3,92.5,61.7,92.8,61.5L92.8,61.5c-0.5,0.2-2.1-0.2-1.1-1.2
									C92.7,59.3,93,60.9,92.8,61.5z"/>
								<path class="st8" d="M92.8,67.2c-0.1-0.1-0.1-0.3-0.2-0.4c0.1-0.9,0.2-3.7,0.2-5.4c-0.1,0.8-0.3,4.1-0.5,5.4
									c-0.3,0.4-0.5,0.8-0.6,1.2L92.8,67.2z"/>
								<path class="st8" d="M93.2,66.9c0-1.2-0.2-3.8-0.4-5.4c0,0.9,0.1,4.1,0.1,5.6L93.2,66.9z"/>
								<path class="st8" d="M93,61.4c-0.4-0.4-0.8,0-0.4,0.4C92.9,62.1,93.3,61.7,93,61.4z"/>
								<path class="st8" d="M92.5,66.5c-0.3,0-0.3,0.4,0,0.4C92.8,66.9,92.8,66.5,92.5,66.5z"/>
							</g>
						</g>
						<g>
							<g>
								<path class="st8" d="M55.7,65c-0.6-0.1-2.2,0.6-1,1.4C55.7,67.1,55.9,65.5,55.7,65L55.7,65c0.1,0.4-0.1,1.4-0.7,1.1
									S55.3,65.2,55.7,65c0.1-0.3,0.5-1.3,0.9-0.8C56.9,64.7,56,65.1,55.7,65L55.7,65c0.5,0.2,2.1-0.2,1.1-1.2
									C55.8,62.8,55.4,64.4,55.7,65z"/>
								<path class="st8" d="M55.7,72.3c-0.3-0.4-0.3-1.5,0.1-2.1c-0.1-0.9-0.2-3.7-0.2-5.4c0.1,0.8,0.3,4.1,0.5,5.4
									c0.6,0.6,0.6,1.5,0.5,1.9C56.5,72.4,55.8,72.5,55.7,72.3z"/>
								<path class="st8" d="M54.9,73c-0.3-0.5-0.1-1.6,0.4-2.2c-0.1-1,0.1-4,0.4-5.8c0,0.9-0.1,4.4-0.1,5.8
									c0.6,0.7,0.6,1.6,0.4,2.1C55.8,73.2,55,73.2,54.9,73z"/>
								<path class="st8" d="M55.5,64.9c0.4-0.4,0.8,0,0.4,0.4C55.6,65.6,55.2,65.2,55.5,64.9z"/>
								<path class="st8" d="M55.5,70.6c0.3,0,0.3,0.4,0,0.4S55.2,70.6,55.5,70.6z"/>
								<path class="st8" d="M56,70c0.3,0,0.3,0.4,0,0.4S55.7,70,56,70z"/>
							</g>
							<g>
								<path class="st8" d="M52.8,69.6c-0.6-0.1-2.2,0.5-1.1,1.3C52.8,71.6,53,70,52.8,69.6L52.8,69.6c0.1,0.3-0.1,1.3-0.7,1
									C51.5,70.2,52.5,69.6,52.8,69.6c0.1-0.4,0.5-1.3,0.9-0.8C54.1,69.3,53.1,69.6,52.8,69.6L52.8,69.6c0.5,0.2,2.1-0.2,1.2-1.2
									C53,67.4,52.6,69,52.8,69.6z"/>
								<path class="st8" d="M52.6,76.9c-0.3-0.5-0.2-1.5,0.2-2c-0.1-0.9-0.1-3.7,0-5.4c0.1,0.8,0.2,4.1,0.3,5.4
									c0.6,0.6,0.6,1.5,0.4,1.9C53.4,77,52.7,77.1,52.6,76.9z"/>
								<path class="st8" d="M51.8,77.5c-0.2-0.5-0.1-1.6,0.4-2.2c0-1,0.3-4,0.6-5.7c0,0.9-0.2,4.4-0.3,5.8c0.5,0.7,0.5,1.7,0.3,2.1
									C52.7,77.8,51.9,77.7,51.8,77.5z"/>
								<path class="st8" d="M52.7,69.4c0.4-0.4,0.7,0,0.4,0.4C52.7,70.1,52.3,69.8,52.7,69.4z"/>
								<path class="st8" d="M52.4,75.1c0.3,0,0.3,0.4,0,0.4C52.1,75.5,52.2,75.1,52.4,75.1z"/>
								<path class="st8" d="M53,74.6c0.3,0,0.3,0.4,0,0.4C52.7,75,52.7,74.6,53,74.6z"/>
							</g>
							<g>
								<path class="st8" d="M59,61.5c-0.6-0.1-2.2,0.6-1,1.4C59.1,63.6,59.2,62,59,61.5L59,61.5c0.1,0.4-0.1,1.4-0.7,1.1
									S58.7,61.7,59,61.5c0.1-0.3,0.5-1.3,0.9-0.8C60.3,61.3,59.3,61.7,59,61.5L59,61.5c0.5,0.2,2.1-0.2,1.1-1.2
									C59.2,59.3,58.8,60.9,59,61.5z"/>
								<path class="st8" d="M59,67.2c0.1-0.1,0.1-0.3,0.2-0.4c-0.1-0.9-0.2-3.7-0.2-5.4c0.1,0.8,0.3,4.1,0.5,5.4
									c0.3,0.4,0.5,0.8,0.6,1.2L59,67.2z"/>
								<path class="st8" d="M58.7,66.9c0-1.2,0.2-3.8,0.4-5.4c0,0.9-0.1,4.1-0.1,5.6L58.7,66.9z"/>
								<path class="st8" d="M58.9,61.4c0.4-0.4,0.8,0,0.4,0.4C58.9,62.1,58.5,61.7,58.9,61.4z"/>
								<path class="st8" d="M59.4,66.5c0.3,0,0.3,0.4,0,0.4S59.1,66.5,59.4,66.5z"/>
							</g>
						</g>
					</g>
					<g>
						<ellipse class="st11" cx="75.9" cy="80.4" rx="10.7" ry="13.8"/>
						<path class="st11" d="M75.9,80.4"/>
					</g>
					<g>
						<ellipse class="st12" cx="75.9" cy="80.4" rx="7.1" ry="10.7"/>
						<path class="st12" d="M75.9,80.4"/>
					</g>
					<g>
						<path class="st4" d="M83,81c-1.5,0.4-6.1,0.2-7.5,0c-1.4-0.2-4.7-0.1-6.6,0.2c0-0.3,0-0.6,0-0.8c0-0.6,0-1.2,0.1-1.8
							c1.8-0.4,4.3-2.1,5.4-3.2c1.1-1.1,1.6-0.7,2.7,0.1s4.5,3.5,5.9,3.7c0,0.4,0,0.7,0,1.1C83,80.6,83,80.8,83,81z"/>
						<path class="st5" d="M70.1,86.5c-0.7-1.5-1.1-3.3-1.3-5.3c2-0.4,5.2-0.5,6.6-0.2c1.4,0.2,5.9,0.4,7.5,0
							c-0.1,2.1-0.5,3.9-1.3,5.5C81.7,86.6,70.1,86.5,70.1,86.5z"/>
						<path class="st13" d="M81.7,86.5c0,0-11.6,0-11.6,0c1.3,2.8,3.4,4.6,5.8,4.6C78.3,91.1,80.4,89.3,81.7,86.5z"/>
					</g>
					<g>
						<path class="st4" d="M74.8,86.9c0,0.1,0,0.1,0.1,0.1c0.1,0.2,0.1,0.3-0.1,0.3c-0.2,0-0.4-0.1-0.4-0.5c0.1-0.4-0.1-1-0.1-1.4
							c0-0.4-0.3-0.8-0.3-1.4c-0.5,0.4-1.3,0.4-2,0c-0.2,0.3-0.2,0.6-0.7,0.7c0,0-0.1,0-0.1,0c0,0.1,0,0.1,0.1,0.2
							c0.1,0.3,0.1,0.5,0.1,0.8c0,0.3,0,0.6,0.2,0.7c0.2,0.1,0.1,0.3,0,0.3c0.2,0.2,0,0.3-0.1,0.3s-0.4,0-0.4-0.3
							c-0.1-0.3-0.3-0.4-0.3-0.7c0-0.3-0.1-0.6-0.2-1c-0.1-0.2-0.1-0.4,0-0.6c-0.4-0.6-0.1-1.9,0.5-2.1c0.5-0.6,1.7-0.4,2.4-0.2
							c0.6,0.1,0.7-0.4,0.4-1.2s0.2-1.7,0.5-2.1c0-0.4,0.1-0.6,0.1-0.5c0.1,0.1,0.3,0.4,0.4,0.5c0.3,0,0.3,0.2,0.5,0.3
							c0.1,0.1,0.1,0.4,0.5,0.4c0.2,0,0.3,0.1,0.3,0.4c-0.1,0.3-0.5,0.3-1.1,0.3c0.3,0.5,0.3,1.5,0.5,2.4c0.1,0.5-0.3,1-0.6,1.3
							c0,0.1-0.1,0.3-0.1,0.4c0,0.1,0.1,0.6,0,0.7c-0.1,0.2,0,0.4-0.1,0.6c0,0.2-0.1,0.6,0.1,0.7C75.2,86.9,74.9,87,74.8,86.9z"/>
						<path class="st7" d="M75.4,79.8c0-0.1-0.2-0.1-0.2,0"/>
						<path class="st7" d="M72.1,84.1c0.1-0.1,0.1-0.2,0.1-0.4"/>
						<path class="st7" d="M71.1,82.6c-0.4,0.6,0.1,0.9-0.2,1.5c-0.1,0.1-0.2,0.4-0.2,0.6"/>
						<path class="st7" d="M71.4,84.9c-0.1,0.1-0.1,0.3,0,0.5c0.1,0.2,0.1,0.5,0.1,0.8c0,0.3,0,0.6,0.2,0.7"/>
						<path class="st7" d="M74.9,84.3c0.1,0,0.1-0.1,0.2-0.1"/>
						<path class="st7" d="M75,83.6c0,0.6-0.3,0.7-0.2,1.3c0,0.1,0.1,0.6,0,0.7c-0.1,0.1,0,0.4-0.1,0.6c0,0.2-0.1,0.4,0,0.6"/>
					</g>
					<g>
						<path class="st14" d="M79.2,81.2v-0.6l-1.4,0.1L77,80.6v0.6C77.5,81.2,78.8,81.2,79.2,81.2z"/>
						<line class="st15" x1="77.9" y1="80.7" x2="77.9" y2="81.2"/>
						<polygon class="st16" points="78.8,79.7 79.3,80.6 77.9,80.7 77.4,79.8 						"/>
						<polygon class="st16" points="77.9,80.7 77.4,79.8 76.9,80.6 						"/>
						<polygon class="st16" points="78.5,79.4 78.8,79.4 78.8,79.7 78.5,79.7 						"/>
						<polygon class="st16" points="78.5,79.4 78.3,79.4 78.3,79.7 78.5,79.7 						"/>
					</g>
					<g>
						<path class="st17" d="M80.3,79.6c0,0.4,0.1,3.3-0.2,3.8c0.1,0,0.4-0.2,0.4-0.3c0,0.1,0.2,0.3,0.2,0.4c0-0.1,0.2-0.3,0.2-0.3
							c0,0.1,0.2,0.2,0.4,0.3c-0.1-0.3-0.3-1.9-0.3-3.8"/>
						<path class="st18" d="M79.8,76.3c-0.3,0-0.5,0.2-0.6,0.4c-0.2,0-0.4,0.2-0.4,0.4c-0.2,0.1-0.3,0.4-0.3,0.6
							c-0.2,0.2-0.1,0.5,0,0.6c-0.2,0.2,0.1,0.6,0.3,0.7c0,0.3,0.4,0.5,0.6,0.4c0.1,0.3,0.6,0.4,0.8,0.2c0.1,0.2,0.6,0.2,0.8,0
							c0.3,0.2,0.6-0.1,0.6-0.4c0.3,0,0.4-0.3,0.4-0.5c0.2-0.1,0.3-0.5,0.2-0.8c0.1-0.3,0.1-0.7-0.1-0.8c0-0.3-0.3-0.6-0.5-0.6
							c0-0.2-0.4-0.4-0.6-0.3c-0.1-0.2-0.5-0.3-0.6-0.2C80.3,76,79.9,76.1,79.8,76.3z"/>
						<path class="st19" d="M79.7,78.6c-0.4,0-0.4,0.6,0,0.6S80.1,78.6,79.7,78.6z"/>
						<path class="st19" d="M80.8,78.1c-0.4,0-0.4,0.6,0,0.6C81.2,78.6,81.2,78.1,80.8,78.1z"/>
						<path class="st19" d="M81.1,78.8c-0.4,0-0.4,0.6,0,0.6C81.5,79.4,81.5,78.8,81.1,78.8z"/>
						<path class="st19" d="M79.5,77.7c-0.4,0-0.4,0.6,0,0.6S79.9,77.7,79.5,77.7z"/>
						<path class="st19" d="M81.3,77.1c-0.4,0-0.4,0.6,0,0.6S81.7,77.1,81.3,77.1z"/>
						<path class="st19" d="M80.1,76.8c-0.4,0-0.4,0.6,0,0.6C80.5,77.4,80.5,76.8,80.1,76.8z"/>
					</g>
					<g>
						<path class="st19" d="M76.8,83.6c0.6-0.5,2.1-0.9,2.8-0.1c-1.1-0.4-0.8,2.1-0.5,3.6c-0.4,0.1-1.3,0.3-1.7,0
							C77.8,84.6,78,83.1,76.8,83.6z"/>
						<g>
							<path class="st7" d="M78.3,83c0,0.7,0,3.6,0,4.4"/>
							<path class="st15" d="M77.9,83c0.3,0.3,0.2,3.4,0.1,4.4"/>
							<path class="st15" d="M77.5,83.2c0.6-0.1,0.5,2.9,0.3,4.1"/>
							<path class="st15" d="M77.1,83.4c0.9-0.5,0.7,2.3,0.4,3.9"/>
							<path class="st15" d="M77.3,87.1c0.4-1.8,0.6-4.2-0.5-3.3"/>
							<path class="st15" d="M78.6,83c-0.3,0.3-0.2,3.4-0.1,4.4"/>
							<path class="st15" d="M79,83.2c-0.6-0.1-0.5,2.9-0.3,4.1"/>
							<path class="st15" d="M79.4,83.4c-0.9-0.5-0.7,2.3-0.4,3.9"/>
							<path class="st15" d="M79.8,83.8c-1.2-0.9-0.9,1.5-0.5,3.3"/>
						</g>
						<path class="st20" d="M78.3,85.3c0.2,0,0.7-0.1,0.7-0.2c0-0.1,0-0.1,0-0.2c0,0.1-0.5,0.2-0.7,0.2c-0.2,0-0.7-0.1-0.7-0.2
							c0,0,0,0.1,0,0.2C77.6,85.3,78.1,85.3,78.3,85.3z"/>
					</g>
					<g>
						<g>
							<circle class="st20" cx="72.9" cy="73" r="1.1"/>
							<path class="st20" d="M72.9,73"/>
						</g>
						<line class="st15" x1="72.9" y1="71.5" x2="72.9" y2="70.8"/>
						<line class="st15" x1="72.5" y1="71.5" x2="72.4" y2="71.2"/>
						<line class="st15" x1="72.1" y1="71.7" x2="72.1" y2="71.5"/>
						<line class="st15" x1="71.8" y1="71.9" x2="71.7" y2="71.8"/>
						<line class="st15" x1="71.6" y1="72.2" x2="71.4" y2="72.2"/>
						<line class="st15" x1="71.4" y1="72.6" x2="71.1" y2="72.6"/>
						<line class="st15" x1="71.4" y1="73" x2="70.8" y2="73"/>
						<line class="st15" x1="71.4" y1="73.4" x2="70.6" y2="73.6"/>
						<line class="st15" x1="71.6" y1="73.8" x2="70.5" y2="74.4"/>
						<line class="st15" x1="71.8" y1="74.1" x2="71.3" y2="74.7"/>
						<line class="st15" x1="72.1" y1="74.4" x2="71.4" y2="75.7"/>
						<line class="st15" x1="72.5" y1="74.5" x2="72.3" y2="75.3"/>
						<line class="st15" x1="72.9" y1="74.6" x2="72.9" y2="75.9"/>
						<line class="st15" x1="73.3" y1="74.5" x2="73.5" y2="75.3"/>
						<line class="st15" x1="73.7" y1="74.4" x2="74.3" y2="75.5"/>
						<line class="st15" x1="74" y1="74.1" x2="74.6" y2="74.7"/>
						<line class="st15" x1="74.3" y1="73.8" x2="75.6" y2="74.6"/>
						<line class="st15" x1="74.4" y1="73.4" x2="75.2" y2="73.6"/>
						<line class="st15" x1="74.5" y1="73" x2="75.7" y2="73"/>
						<line class="st15" x1="74.4" y1="72.6" x2="75.9" y2="72.2"/>
						<line class="st15" x1="74.3" y1="72.2" x2="75" y2="71.9"/>
						<line class="st15" x1="74" y1="71.9" x2="74.9" y2="71"/>
						<line class="st15" x1="73.7" y1="71.7" x2="74.1" y2="71"/>
						<line class="st15" x1="73.3" y1="71.5" x2="73.6" y2="70.4"/>
						<path class="st21" d="M72.3,72.7c0.1,0,0.4-0.1,0.5,0"/>
						<path class="st21" d="M72.4,72.8c0.1,0,0.1,0.1,0.2,0"/>
						<path class="st21" d="M72.7,73.4c0,0.1,0.4,0.1,0.4,0"/>
						<path class="st21" d="M72.8,73.1c0.1,0,0.2,0,0.2,0"/>
						<path class="st21" d="M73.6,72.7c-0.1,0-0.4-0.1-0.5,0"/>
						<path class="st21" d="M73.4,72.8c-0.1,0-0.1,0.1-0.2,0"/>
					</g>
					<g>
						<polygon class="st19" points="79,90.6 79.5,91.4 80.4,91.1 79.9,91.8 80.4,92.6 79.5,92.3 79,93.1 79,92.1 78.1,91.8 79,91.6 
													"/>
						<polygon class="st19" points="81.5,88.2 82.3,88.7 83,88.2 82.7,89.1 83.5,89.6 82.6,89.6 82.2,90.5 82,89.6 81,89.6 
							81.8,89.1 						"/>
						<polygon class="st19" points="82.9,85.4 83.7,85.7 84.3,85 84.3,85.9 85.2,86.2 84.3,86.5 84.3,87.4 83.8,86.6 82.9,87 
							83.4,86.2 						"/>
						<polygon class="st19" points="83.6,82.2 84.5,82.1 84.7,81.2 85.1,82.1 86,82 85.3,82.6 85.7,83.5 84.8,83 84.1,83.6 
							84.4,82.7 						"/>
						<polygon class="st19" points="75.9,91.5 75.6,92.4 74.7,92.4 75.5,92.9 75.2,93.8 75.9,93.3 76.7,93.8 76.4,92.9 77.1,92.4 
							76.2,92.4 						"/>
						<polygon class="st19" points="72.9,90.6 72.3,91.4 71.4,91.1 72,91.8 71.4,92.6 72.3,92.3 72.9,93.1 72.9,92.1 73.8,91.8 
							72.9,91.6 						"/>
						<polygon class="st19" points="70.3,88.2 69.6,88.7 68.8,88.2 69.1,89.1 68.4,89.6 69.3,89.6 69.6,90.5 69.9,89.6 70.8,89.6 
							70.1,89.1 						"/>
						<polygon class="st19" points="69,85.4 68.1,85.7 67.6,85 67.6,85.9 66.7,86.2 67.6,86.5 67.5,87.4 68.1,86.6 69,87 68.4,86.2 
													"/>
						<polygon class="st19" points="68.3,82.2 67.4,82.1 67.2,81.2 66.8,82.1 65.9,82 66.6,82.6 66.2,83.5 67,83 67.7,83.6 
							67.5,82.7 						"/>
					</g>
					<g>
						<path class="st22" d="M65.4,62.3c0-0.2,1.1-0.1,1.3-0.8c0.1-0.3,0.4-0.7,0.8-0.9c0.7-0.4,1.7-0.2,2.4,0.4
							c0.3,0.3,0.7,0.5,1.2,0.5c0.3,0.6,0.1,1.2-0.3,1.5c-0.4-0.2-1-0.4-1.5-0.3c-0.7,0.1-1.7,0.1-2.2-0.2
							C66.7,62.3,65.5,62.8,65.4,62.3z"/>
						<path class="st4" d="M70.8,63c0.1,0.1,0.3,0.2,0.4,0.3c1,1.3,1.7,2,3.4,1.9c0.3,0,0.6-0.1,0.9-0.1C74.8,65.8,74.6,66,74,66
							c-0.6,0-1.5,0.5-1.5,1.4c0.5-0.2,2.4-0.8,3.6-0.6c0-0.2-0.2-0.6-0.5-0.7c-0.3-0.1-0.3-0.5,0.8-1c0.9-0.1,1.7-0.1,2.4,0.1
							c0.5,0.2,0.9,0.4,0.9,0.9c0,0.2-0.1,0.6-0.5,0.4c-0.6-0.2-1.3-0.3-1.8,0.5c0.9-0.2,2.8,0.8,3.4,1.3c0.1-0.4,0-0.8-0.2-0.9
							c-0.3-0.1-0.4-0.5-0.4-0.6c0-0.3,0-0.6,0.1-0.9c0.2-0.3,0.1-0.5-0.2-0.7c-0.3-0.2-0.4-0.4-0.3-0.7c1.1,0,2.8,0.5,3.6,1.1
							c0.6,0.5,1,0.1,1.1-0.2c0.2,0.1,0.4-0.3,0.3-0.5c0.3,0.1,0.5-0.5,0.4-0.6c0.3-0.5-0.6-0.8-1.9-1c-2-0.2-2.4-1.3-3.6-1.4
							c0.4,0.1,0.6-0.2,0.5-0.4c0.6,0.2,0.9-0.1,0.9-0.4c1,0.1,1.4-0.2,1.3-0.6c0.6,0,0.8-0.5,0.4-0.8c0.5-0.1,0.6-0.4,0.6-0.6
							c0.5-0.1,0.8-0.4,0.6-0.6c0.8,0,1-0.3,1.1-0.7c0.6,0,1.1-0.4,1.1-0.7c0.9,0,1.4-0.5,1.3-0.9c0.9,0,1.4-0.3,1.3-0.8
							c1.1,0,2.2-0.1,1.9-0.6c1,0,1.6-0.5,1.5-0.7c1.3,0,1.6-1.1-0.2-1.1c0-0.2-0.8-0.1-1.6-0.1c-3.8,0-7.5,0.1-8.7,0.1
							c-1.2,0-4.4,0.6-4.2,2.8c0.1,2.2-0.3,2.7-1.4,3.3c-0.2,0.1-0.5,0.3-0.7,0.4c0-0.6-0.3-1.6-0.6-1.6c0-0.8-0.5-1.2-0.8-1
							c-0.1-0.7-0.7-1.5-1.1-1.2c-0.2-0.4-0.4-0.8-1-0.6c-0.3-0.8-1-1.1-1.3-0.7c-0.3-0.6-1-0.7-1.3-0.4c-0.4-0.5-1-0.8-1.3-0.4
							c-0.4-0.4-0.8-0.6-1.3-0.4c-0.6-0.6-1.4-0.8-1.8-0.4c-0.9-0.5-1.2-0.2-1.3,0.1c-0.6-0.5-1.5-0.5-1.6,0
							c-1.2-0.8-3.1-0.1-1.4,0.6c1.8,0.7,4.4,2.2,5.8,3.6c1.1,1.1,2.6,1.7,3.7,1.6c1.1,0,1.7,0.1,2.2,0.6c0.6,0.4,0.8,1.1,0.7,1.7
							c-0.4,0-0.9,0.1-1.2,0.5c-0.2,0.2-0.4,0.3-0.7,0.4C71.2,61.9,71.3,62.6,70.8,63z"/>
						<path class="st14" d="M70.9,61.6c0.1,0,0.2,0.5,0.1,0.7c-0.1,0.2-0.3,0.7-0.4,0.6c0,0.2,0.4,0.3,0.4,0.1
							c0.2,0,0.3-0.2,0.2-0.4c0.1-0.1,0.2-0.4,0.1-0.4c0.1-0.1,0.1-0.3-0.1-0.4c0.1-0.1,0-0.3-0.1-0.3
							C71.3,61.4,70.9,61.4,70.9,61.6z"/>
						<g>
							<path class="st7" d="M80.1,54.2c1.3,0,2.6,0,2.9-0.1c0.4-0.1,0.8-0.4,0.6-0.9"/>
							<path class="st7" d="M83,54.1c1.7,0,3.1-0.1,3.6-0.1c0.6,0,1.1-0.4,0.7-0.9"/>
							<path class="st7" d="M79.6,54.9c1.5,0,3.4,0.1,3.2-0.7"/>
							<path class="st7" d="M82.3,54.7c1.1,0,2.8-0.1,3.3-0.1c0.6,0,1.2-0.1,1.1-0.6"/>
							<path class="st7" d="M79.2,55.6c2.3,0,3.1,0,2.9-0.8"/>
							<path class="st7" d="M79,56.2c1.3,0,2.9,0.1,2.6-0.7"/>
							<path class="st7" d="M78.8,56.8c0.9,0.1,2.4,0.2,2.2-0.6"/>
							<path class="st7" d="M78.6,57.6c1.1,0,2.2,0,1.9-0.8"/>
							<path class="st7" d="M78.1,58.3c0.8,0,1.9-0.1,1.7-0.8"/>
							<path class="st7" d="M81.8,55.4c0.7-0.1,2.2,0,2.9-0.1c0.7,0,1.4-0.1,1.2-0.7"/>
							<path class="st7" d="M81.3,56.1c0.9,0,2.3-0.1,2.8-0.1c0.4,0,1.1,0,1.1-0.6"/>
							<path class="st7" d="M80.7,56.7c0.6-0.1,2.1-0.1,2.7-0.1c0.5,0,1.3-0.1,1.2-0.6"/>
							<path class="st7" d="M80.1,57.4c0.8-0.1,1.7,0,2.2-0.1c0.6,0,1.4-0.2,1.2-0.8"/>
							<path class="st7" d="M79.6,58.1c0.6,0,1.2,0,1.7,0c0.5,0,1.6,0,1.3-0.7"/>
							<path class="st7" d="M77.6,59.1c0.5,0,2.1,0.2,1.9-0.9"/>
							<path class="st7" d="M79.1,58.9c0.7,0,1.6-0.1,2-0.1c0.4,0,1-0.2,0.8-0.8"/>
							<path class="st7" d="M76.9,59.7c1,0.1,2.2,0.1,1.9-0.7"/>
							<path class="st7" d="M76,60.4c0.4,0,0.9,0,1.1,0c0.2,0,0.9-0.1,0.8-0.6"/>
							<path class="st7" d="M78.4,59.7c1.1,0,3,0.1,2.8-0.9"/>
							<path class="st7" d="M92.1,53.9c-0.5,0-3.9-0.1-5,0"/>
							<path class="st7" d="M90.7,54.6c-0.8,0-3.2-0.1-4.3,0"/>
							<path class="st7" d="M88.7,55.2c-0.7,0-2.1,0-3,0.1"/>
							<path class="st7" d="M87.5,55.9c-0.4,0-1.6-0.1-2.8-0.1"/>
							<path class="st7" d="M86.1,56.8c-0.6,0-1.7-0.1-2.6-0.1"/>
							<path class="st7" d="M85,57.5c-0.4,0-1.8,0-2.3-0.1"/>
							<path class="st7" d="M84,58.2c-0.4,0-1.5,0.1-2,0.1"/>
							<path class="st7" d="M83.3,58.8c-0.5,0.1-1.4,0.1-2.2,0.1"/>
							<path class="st7" d="M82.7,59.4c-0.4,0.1-1.6,0.1-2.1,0.1"/>
							<path class="st7" d="M82.3,60.3c-0.6,0.1-2-0.2-2.9-0.5"/>
							<path class="st7" d="M81,60.9c-0.9-0.1-2-0.6-2.9-1.1"/>
							<path class="st7" d="M80.1,61.3c-0.6-0.1-1.6-0.6-2.3-1.1"/>
							<path class="st7" d="M75.2,60.8c0.3-0.1,1.5,0.1,1.8,0.2c0.3,0.2,0.8,0.1,0.7-0.3"/>
							<path class="st7" d="M79.1,61.5c0.1,0.3-0.5,0.6-1.1,0.3c-0.6-0.4-2-1-3.3-0.9"/>
							<path class="st7" d="M73.9,60.6c-0.3,0.1-0.6,0.1-0.9,0.1"/>
							<path class="st7" d="M74.1,60.2c-0.3,0.2-0.7,0.1-0.9-0.5c-0.4-1.6-1.3-1.9-2.6-1.9c-2.4,0.1-3.6-1.1-5-2.2
								c-0.3-0.3-0.8-0.6-0.6-0.8c0.2-0.2,1.1,0.5,1.7,1"/>
							<path class="st7" d="M67.6,56.5c-0.6-0.5-2-1.5-1.6-2c0.4-0.5,1.6,1,2.3,1.6"/>
							<path class="st7" d="M67.5,55.3c-0.3-0.3-0.7-0.6-0.4-0.9c0.3-0.3,1.9,1.2,2.8,2.1"/>
							<path class="st7" d="M68.4,55.2c-0.2-0.1-0.3-0.4-0.1-0.6c0.2-0.2,1.6,0.4,2.9,2"/>
							<path class="st7" d="M69.6,55.2c0.2-0.2,1,0,1.5,0.5c0.5,0.5,1,1,1.3,1.4"/>
							<path class="st7" d="M71.1,55.6c0.4-0.1,1.1,0.5,1.7,1.2c0.6,0.7,1.2,1.6,0.9,2.6"/>
							<path class="st7" d="M61.9,52.5c0.7,0.5,2.3,1.6,3.2,2.3"/>
							<path class="st7" d="M63.5,52.5c0.8,0.4,1.8,1.4,2.5,1.9"/>
							<path class="st7" d="M64.8,52.5c0.5,0.3,2,1.5,2.8,2.1"/>
							<path class="st7" d="M66.6,52.9c0.5,0.4,1.7,1.4,2.1,1.8"/>
							<path class="st7" d="M67.9,53.3c0.4,0.4,1.4,1.4,1.8,1.9"/>
							<path class="st7" d="M69.2,53.7c0.2,0.3,0.7,1.1,1.1,1.5"/>
							<path class="st7" d="M70.4,54.1c0.2,0.3,0.6,1.1,0.8,1.6"/>
							<path class="st7" d="M71.8,54.8c0.1,0.4,0.3,1,0.4,1.4"/>
							<path class="st7" d="M72.7,55.4c0.1,0.3,0.3,1.2,0.4,1.8"/>
							<path class="st7" d="M73.9,56.6c0.1,0.4,0.1,1.2-0.1,1.9"/>
							<path class="st7" d="M74.7,57.6c0,0.3-0.1,0.7-0.2,1"/>
							<path class="st7" d="M75,61.2c0.4,0,1.2,0.2,1.4,0.5c0.2,0.3,1.2,0.4,1-0.2"/>
							<path class="st7" d="M73.7,63.5c0.6,0.1,1.8,0,2.2-0.1c0.4-0.1,0.4-0.4,0.1-0.4"/>
							<path class="st7" d="M74.8,63c0.4,0,1.1-0.3,0.7-0.4c-0.3-0.1-1.3-0.2-1.6-0.2"/>
							<path class="st7" d="M84.4,65.3c-0.4-0.3-1.2-0.6-2-0.9"/>
							<path class="st7" d="M84.7,64.8c-0.4-0.1-1.2-0.6-1.7-0.7"/>
							<path class="st7" d="M85.1,64.1c-0.1,0.2-1.1,0-1.6-0.3"/>
							<path class="st7" d="M67.8,61.7c0.1-0.3,0.4-0.5,0.7-0.4c-0.1,0.3-0.6,0.1-0.6,0.2"/>
							<path class="st7" d="M75.5,65.1c0.3,0,0.6-0.1,0.9-0.1"/>
							<path class="st7" d="M75.4,59.2c-0.7,0.5-1.1,0.9-1.4,1.4c-0.6,0.8-1.6,0.3-2.2,1.3"/>
							<path class="st7" d="M79.6,61.7c-0.1,0-0.1,0-0.2-0.1c-0.4-0.2-1.9-1.2-2.6-1.3"/>
							<path class="st7" d="M91.9,52.8c0,0.7-1.7,0.5-3.2,0.4c-1.6-0.1-5.5,0-7.4,0.3c-2,0.4-2.5,3.2-2.8,4.1
								c-0.3,0.9-2,2.8-3.5,3.3"/>
						</g>
					</g>
					<path class="st8" d="M86.6,81c0-0.2,0-0.4,0-0.6c0-7.6-4.8-13.8-10.7-13.8c-5.9,0-10.7,6.2-10.7,13.8c0,0.2,0,0.4,0,0.6
						l3.7-1.5c0.3-5.5,3.4-9.8,7.1-9.8c3.7,0,6.7,4.3,7.1,9.8L86.6,81z"/>
					<g>
						<g>
							<g>
								<path class="st23" d="M69,76.3c0.1-0.2-0.1-0.4-0.2-0.5c-0.1,0-0.3-0.1-0.4-0.1c-0.2-0.1-0.4,0.1-0.5,0.4
									c-0.1,0.3-0.1,0.4-0.1,0.4l-0.1,0c0.2-0.6,0-0.8-0.1-0.9c-0.1,0-0.3-0.1-0.4-0.1c-0.2-0.1-0.3,0.1-0.4,0.2
									c0,0.1-0.1,0.2-0.1,0.3c0,0.1,0,0.2,0.1,0.2l0.9,0.2l0.1,0l1,0.3c0.1,0,0.1-0.1,0.1-0.1C68.9,76.6,68.9,76.5,69,76.3l0.1,0
									c-0.1,0.6-0.5,1.8-0.5,1.8l-0.1,0c0-0.2,0-0.4-0.2-0.5l-1.8-0.5c-0.2-0.1-0.3,0.1-0.4,0.4l-0.1,0c0,0,0.3-1.1,0.4-1.6
									c0.1-0.6,0.5-1.1,0.9-1c0.4,0.1,0.4,0.6,0.4,0.9c0.1-0.4,0.5-0.9,0.9-0.7c0.4,0.1,0.6,0.8,0.4,1.4L69,76.3z"/>
							</g>
							<g>
								<path class="st23" d="M70.5,72.9c-0.3,0.5-0.9,0.4-1.5,0.1c-0.6-0.4-0.9-0.9-0.6-1.4c0.3-0.5,0.9-0.4,1.5-0.1
									C70.6,71.8,70.9,72.4,70.5,72.9L70.5,72.9c0.6-0.9,0.5-1.7-0.1-2.1c-0.6-0.4-1.4-0.2-2,0.7c-0.6,0.9-0.4,1.8,0.2,2.2
									C69.2,74.1,70,73.9,70.5,72.9L70.5,72.9z"/>
							</g>
							<g>
								<path class="st23" d="M72.1,67.9L72.1,67.9c-0.1,0.2-0.3,0.4-0.2,0.5l0.9,1.6c0.1,0.2,0.3,0.2,0.4,0.1
									c0.1-0.1,0.2-0.1,0.4-0.2c0.3-0.2,0.7-0.6,0.6-1.2l0.1-0.1l0.3,0.9L71.9,71l0-0.1c0.2-0.1,0.4-0.3,0.3-0.5l-0.9-1.6
									c-0.1-0.2-0.3-0.1-0.5,0l0-0.1L72.1,67.9z"/>
							</g>
							<g>
								<path class="st23" d="M76.4,69.1c0,0.2,0.3,0.3,0.5,0.3v0.1l-1.8-0.1v-0.1c0.2,0,0.5-0.1,0.5-0.3l0.1-1.9
									c0-0.2-0.3-0.3-0.5-0.3v-0.1l1.8,0.1v0.1c-0.2,0-0.5,0.1-0.5,0.3L76.4,69.1z"/>
							</g>
							<g>
								<path class="st23" d="M79.3,67.8c0-0.3,0-0.3-0.2-0.4l0.1-0.1l1.4,0.9l-0.1,0.1c-0.2-0.1-0.5-0.3-0.5,0L79.8,70l1.4-0.7
									c0.4-0.2,0.1-0.4-0.1-0.5l0.1-0.1l0.9,0.6l-0.1,0.1c-0.2-0.1-0.2-0.1-0.4,0l-2.4,1.2L79,70.4L79.3,67.8z"/>
							</g>
							<g>
								<path class="st23" d="M81.7,72.9c-0.2,0.1-0.1,0.4,0,0.6l-0.1,0l-1-1.5l0.1,0c0.1,0.2,0.3,0.4,0.5,0.3l1.6-1
									c0.2-0.1,0.1-0.4,0-0.6l0.1,0l1,1.5l-0.1,0c-0.1-0.2-0.3-0.4-0.5-0.3L81.7,72.9z"/>
							</g>
							<g>
								<path class="st23" d="M83.4,74.9l0.3,1c0.7-0.7,0.8-0.8,0.8-0.8S84,75.1,83.4,74.9l-0.2,0c-0.1,0-0.2-0.1-0.4-0.1
									c-0.3-0.1-0.3,0.1-0.3,0.4l-0.1,0l-0.3-1l0.1,0c0.1,0.1,0.2,0.3,0.4,0.3c2.5,0.5,2.5,0.5,2.5,0.5l0.1,0.2
									c0,0-0.1,0.1-1.8,1.8c-0.1,0.1-0.3,0.2-0.2,0.5l-0.1,0L82.7,76l0.1,0c0.1,0.3,0.2,0.5,0.4,0.4c0.1-0.1,0.2-0.2,0.3-0.3
									l-0.3-1.1L83.4,74.9z"/>
							</g>
						</g>
					</g>
				</g>
			</g>
		</g>
	</g>
</g>
<circle class="st24" cx="76" cy="76" r="75"/>
</svg>
