<?xml version="1.0" encoding="utf-8"?>
<!-- Generator: Adobe Illustrator 24.2.3, SVG Export Plug-In . SVG Version: 6.00 Build 0)  -->
<svg version="1.1" id="Capa_1" xmlns:serif="http://www.serif.com/"
	 xmlns="http://www.w3.org/2000/svg" xmlns:xlink="http://www.w3.org/1999/xlink" x="0px" y="0px" viewBox="0 0 152 152"
	 style="enable-background:new 0 0 152 152;" xml:space="preserve">
<style type="text/css">
	.st0{fill-rule:evenodd;clip-rule:evenodd;fill:#ED1B2D;}
	.st1{fill-rule:evenodd;clip-rule:evenodd;fill:#FFFFFF;}
	.st2{fill:none;stroke:#515151;stroke-width:2;stroke-linecap:square;stroke-miterlimit:36;}
</style>
<path class="st0" d="M76-1.8c41.7,0.3,75,33.8,75,75c0,41.4-33.6,75-75,75c-6.3,0-12.5-0.8-18.1-2.5l19.1-6.9l-26-9.4l26-9.4
	l-26-9.4l26-9.4L51,92l26-9.4l-26-9.4l26-9.4l-26-9.4l26-9.4l-26-9.4l26-9.4L51,17l26-9.4L57.9,0.7l3-0.9L76-1.8L76-1.8z"/>
<path class="st1" d="M77,7.6L51,17l26,9.4l-26,9.4l26,9.4l-26,9.4l26,9.4l-26,9.4l26,9.4L51,92l26,9.4l-26,9.4l26,9.4l-26,9.4
	l26,9.4l-19.1,6.9c-32.6-8-56.6-37.1-56.9-72.5C1.3,37.9,25.3,8.6,57.9,0.7L77,7.6L77,7.6z"/>
<circle class="st2" cx="76" cy="73.2" r="75"/>
</svg>
