<?xml version="1.0" encoding="utf-8"?>
<!-- Generator: Adobe Illustrator 24.2.3, SVG Export Plug-In . SVG Version: 6.00 Build 0)  -->
<svg version="1.1" id="Capa_1" xmlns:serif="http://www.serif.com/"
	 xmlns="http://www.w3.org/2000/svg" xmlns:xlink="http://www.w3.org/1999/xlink" x="0px" y="0px" viewBox="0 0 152 152"
	 style="enable-background:new 0 0 152 152;" xml:space="preserve">
<style type="text/css">
	.st0{clip-path:url(#SVGID_2_);}
	.st1{fill:#E30520;stroke:#000000;stroke-width:0.25;}
	.st2{fill:#004287;stroke:#000000;stroke-width:0.25;}
	.st3{fill:#FFFFFF;stroke:#000000;stroke-width:0.25;}
	.st4{fill:#FFFFFF;stroke:#000000;stroke-width:0.125;}
	.st5{fill:#FFE366;stroke:#000000;stroke-width:0.125;}
	.st6{stroke:#000000;stroke-width:0.125;}
	.st7{fill:none;stroke:#000000;stroke-width:0.125;}
	.st8{fill:#FFE366;stroke:#000000;stroke-width:6.250000e-02;}
	.st9{fill:#74B85B;stroke:#000000;stroke-width:5.000000e-02;}
	.st10{fill:none;stroke:#000000;stroke-width:5.000000e-02;}
	.st11{fill:#4ABDD1;}
	.st12{fill:#FFE366;stroke:#FFE366;stroke-width:0.125;}
	.st13{fill:none;stroke:#FFE366;stroke-width:0.125;}
	.st14{fill:#0087AB;}
	.st15{fill:#9A6527;stroke:#000000;stroke-width:2.500000e-02;}
	.st16{fill:#FFFFFF;stroke:#000000;stroke-width:2.500000e-02;}
	.st17{fill:none;stroke:#000000;stroke-width:2.500000e-02;}
	.st18{fill:#F5E500;}
	.st19{fill:#9A6527;}
	.st20{fill:#B6BD00;}
	.st21{fill:#FFFFFF;stroke:#000000;stroke-width:0.1;}
	.st22{fill:none;stroke:#000000;stroke-width:0.1;}
	.st23{fill:#FFFFFF;}
	.st24{fill:#003671;stroke:#000000;stroke-width:2.500000e-02;}
	.st25{fill:#E30520;stroke:#000000;stroke-width:2.500000e-02;}
	.st26{fill:#FFE366;}
	.st27{fill:none;stroke:#515151;stroke-width:2;stroke-linecap:square;stroke-miterlimit:1.5;}
</style>
<g>
	<g>
		<g>
			<defs>
				<circle id="SVGID_1_" cx="76" cy="76" r="75"/>
			</defs>
			<clipPath id="SVGID_2_">
				<use xlink:href="#SVGID_1_"  style="overflow:visible;"/>
			</clipPath>
			<g class="st0">
				<rect x="-49" y="51.2" class="st1" width="250" height="50"/>
				<g>
					<rect x="-49" y="1.1" class="st2" width="250" height="25"/>
					<rect x="-49" y="126.2" class="st2" width="250" height="25"/>
				</g>
				<g>
					<rect x="-49" y="26.2" class="st3" width="250" height="25"/>
					<rect x="-49" y="101.2" class="st3" width="250" height="25"/>
				</g>
				<g>
					<ellipse class="st4" cx="38.9" cy="76.1" rx="12.9" ry="19"/>
					<path class="st4" d="M38.9,76.1"/>
				</g>
				<g>
					<path class="st5" d="M38.9,65.1c0.6,0.8,1.9,2.5,3.9,2.1c0.7,0.1,1.2,0.4,1.6,0.6c0.3-0.1,0.6,0.1,0.7,0.4
						c0.1,0.2-0.2,0.5-0.5,0.4c0.2,0.6,2.5,0.4,3.3,1.6c-0.3-0.1-0.5-0.2-0.8-0.2l0.2,0.5c0.4,0.1,0.7,0.2,0.9,0.7
						c0.2,0.5,0.4,1.2,0.6,1.5c0.1,0.2,0.1,0.3,0.1,0.4c0,0.2-0.1,0.5-0.5,0.5c-0.3,0-0.5-0.2-0.5-0.4L48,72.9
						c-0.3,0-0.6,0.1-0.8,0.3c-0.5,0.4-0.6,1.1-0.3,1.6c0.3,0.6,1,0.9,2,0.5c0.9-0.3,1.7,0.1,2,0.9c1.3,3.5-1,6.3-3.5,8
						c-2.6,1.7-3.1,2.2-3.9,3C42.7,88.1,42,89,41,89c-0.1,0-0.3-0.1-0.5-0.1c-0.7,0-0.7,0.3-1.7,0.3c-1,0-1-0.3-1.7-0.3
						C37,89,36.9,89,36.7,89c-1.1,0-1.7-1-2.5-1.8c-0.7-0.9-1.2-1.3-3.9-3c-2.6-1.6-4.8-4.5-3.5-8c0.3-0.8,1.1-1.2,2-0.9
						c1.1,0.4,1.8,0.1,2-0.5c0.3-0.6,0.2-1.3-0.3-1.6c-0.3-0.2-0.6-0.3-0.8-0.3l-0.2,0.3c0,0.2-0.2,0.4-0.5,0.4s-0.5-0.3-0.5-0.5
						c0-0.1,0-0.3,0.1-0.4c0.2-0.4,0.4-1.1,0.6-1.5c0.2-0.5,0.5-0.5,0.9-0.7l0.2-0.5c-0.3,0-0.5,0.1-0.8,0.2c0.9-1.3,3.1-1,3.3-1.6
						c-0.3,0.1-0.6-0.2-0.5-0.4c0.1-0.3,0.4-0.4,0.7-0.4c0.4-0.2,0.9-0.4,1.6-0.6C37,67.6,38.2,65.9,38.9,65.1z"/>
					<g>
						<path class="st6" d="M38.4,86.8c-0.7-1-2.2-0.5-4.9-2.1c-2.7-1.6-3.6-5.3-2.4-7.8c0.9-1.7,1.4-2.8,0.4-5.4
							c-0.1-0.4-1.1-0.4-0.5,0.5c1,1.3,1.2,3.4-0.2,4.3c-0.5,0.3-1.1,0.5-1.7,0.4c-0.6,0-1.2,0.1-1.3,0.9c-0.4,3.6,2.6,7.1,5.5,7.6
							c0.9,0.2,3.5,0.8,4.1,1.6C37.7,86.8,38.2,86.8,38.4,86.8z"/>
						<path class="st6" d="M39.4,86.8c0.7-1,2.2-0.5,4.9-2.1c2.7-1.6,3.6-5.3,2.4-7.8c-0.9-1.7-1.4-2.8-0.4-5.4
							c0.1-0.4,1.1-0.4,0.5,0.5c-1,1.3-1.2,3.4,0.2,4.3c0.5,0.3,1.1,0.5,1.7,0.4c0.6,0,1.2,0.1,1.3,0.9c0.4,3.6-2.6,7.1-5.5,7.6
							c-0.9,0.2-3.5,0.8-4.1,1.6C40,86.8,39.6,86.8,39.4,86.8z"/>
					</g>
					<g>
						<path class="st7" d="M33.3,67.8c0.4,0.1,0.6,0.5,0.4,1c-0.6,0.9-2.4,0.3-3.3,0.9"/>
						<path class="st7" d="M33,68.6c0.2-0.1,0.4-0.4,0.2-0.6"/>
						<path class="st7" d="M33,85.1c1.9,1.3,2.1,3,4,3.1"/>
						<path class="st7" d="M37,88.5c-1.1,0.2-1.9-0.4-2.7-1.7c-0.4-0.7-1.6-1.6-3.7-2.9c-3.2-2-4.1-5.5-3.1-7.4
							c0.3-0.5,0.9-0.6,1.3-0.6c1,0.3,2.6,0,2.6-1.6c0-0.9-0.7-1.9-1.7-1.9c-0.6,0-0.9,0.2-1,0.4"/>
						<path class="st7" d="M29,73c0.2-0.2,0.5,0,0.5,0.3"/>
						<path class="st7" d="M29.4,73c0.1,0,0.3,0,0.4,0"/>
						<path class="st7" d="M36.9,87.8c0-0.1,0.1-0.2,0.2-0.2c0.1,0,0.2,0.1,0.2,0.2c0,0.3-0.1,0.4-0.5,0.4c-0.3-0.1-0.4-0.3-0.3-0.6
							c0.1-0.3,0.5-0.5,0.9-0.3c0.4,0.2,0.4,0.8,0.2,1.1c-0.1,0.2-0.2,0.4-0.4,0.5"/>
						<path class="st7" d="M44.4,67.8c-0.4,0.1-0.6,0.5-0.4,1c0.6,0.9,2.4,0.3,3.3,0.9"/>
						<path class="st7" d="M44.7,68.6c-0.2-0.1-0.4-0.4-0.2-0.6"/>
						<path class="st7" d="M44.7,85.1c-1.9,1.3-2.1,3-4,3.1"/>
						<path class="st7" d="M40.7,88.5c1.1,0.2,1.9-0.4,2.7-1.7c0.4-0.7,1.6-1.6,3.7-2.9c3.2-2,4.1-5.5,3.1-7.4
							c-0.3-0.5-0.9-0.6-1.3-0.6c-1,0.3-2.6,0-2.6-1.6c0-0.9,0.7-1.9,1.7-1.9c0.6,0,0.9,0.2,1,0.4"/>
						<path class="st7" d="M48.7,73c-0.2-0.2-0.5,0-0.5,0.3"/>
						<path class="st7" d="M41.2,87.8c0-0.8-1.4-1.1-2.4-1.1c-1,0-2.4,0.2-2.4,1.1"/>
						<path class="st7" d="M48.4,73c-0.1,0-0.3,0-0.4,0"/>
						<path class="st7" d="M40.8,87.8c0-0.1-0.1-0.2-0.2-0.2c-0.1,0-0.2,0.1-0.2,0.2c0,0.3,0.1,0.4,0.5,0.4c0.3-0.1,0.4-0.3,0.3-0.6
							c-0.1-0.3-0.5-0.5-0.9-0.3c-0.4,0.2-0.4,0.8-0.2,1.1c0.1,0.2,0.2,0.4,0.4,0.5"/>
						<path class="st7" d="M40.2,88.6c-0.5,0-0.5,0.6-1.3,0.6s-0.8-0.6-1.3-0.6"/>
					</g>
					<g>
						<path class="st8" d="M38.9,87.7c-0.4,0-0.4,0.6,0,0.6C39.2,88.3,39.2,87.7,38.9,87.7z"/>
						<path class="st8" d="M39.5,87.8c-0.2,0-0.2,0.4,0,0.4C39.8,88.2,39.8,87.8,39.5,87.8z"/>
						<path class="st8" d="M39,88.7c0-0.2-0.4-0.2-0.4,0S39,88.9,39,88.7z"/>
						<path class="st8" d="M38.2,88.2c0.2,0,0.2-0.4,0-0.4C37.9,87.8,37.9,88.2,38.2,88.2z"/>
						<path class="st8" d="M38.7,87.3c0,0.2,0.4,0.2,0.4,0C39,87.1,38.7,87.1,38.7,87.3z"/>
					</g>
					<path d="M38.9,76.1"/>
					<g>
						<g>
							<path class="st9" d="M38,68.7c0.5-0.3,1.1-0.9,1.3-1.2c0.3-0.5,0.4-0.3,0.6-0.3c-0.6,0.6-1.2,1.2-1.7,1.6L38,68.7z"/>
							<path class="st9" d="M34,69.9c-1.2-0.7-1.7,0-2,0.1C32.3,70,32.6,70.5,34,69.9z"/>
							<path class="st9" d="M34.5,69.4c-1.1-0.8-1.7-0.1-2-0.1C32.9,69.5,33.1,70,34.5,69.4z"/>
							<path class="st9" d="M35.3,69c-1.1-0.8-1.7-0.1-2-0.1C33.7,69,33.9,69.5,35.3,69z"/>
							<path class="st9" d="M36,68.6c-1.1-0.9-1.6-0.3-1.9-0.3C34.4,68.4,34.5,69,36,68.6z"/>
							<path class="st9" d="M36.9,68.3c-1-1-1.6-0.4-1.9-0.4C35.3,68,35.4,68.6,36.9,68.3z"/>
							<path class="st9" d="M37.8,68.2c-0.8-1.1-1.6-0.6-1.8-0.7C36.3,67.7,36.3,68.3,37.8,68.2z"/>
							<path class="st9" d="M37.9,68.2c-0.1-0.3-0.5-0.6-0.6-0.7c0.1,0,0.1-0.1,0.1-0.2s-0.1,0-0.2,0s-0.1,0.2,0.1,0.4
								c0.2,0.1,0.4,0.4,0.5,0.5"/>
							<path class="st9" d="M39.7,68.7c-0.5-0.3-1.1-0.9-1.3-1.2c-0.3-0.5-0.4-0.3-0.6-0.3c0.6,0.6,1.2,1.2,1.7,1.6L39.7,68.7z"/>
							<path class="st9" d="M43.8,69.9c1.2-0.7,1.7,0,2,0.1C45.4,70,45.1,70.5,43.8,69.9z"/>
							<path class="st9" d="M43.2,69.4c1.1-0.8,1.7-0.1,2-0.1C44.9,69.5,44.6,70,43.2,69.4z"/>
							<path class="st9" d="M42.4,69c1.1-0.8,1.7-0.1,2-0.1C44,69,43.8,69.5,42.4,69z"/>
							<path class="st9" d="M41.7,68.6c1.1-0.9,1.6-0.3,1.9-0.3C43.3,68.4,43.2,69,41.7,68.6z"/>
							<path class="st9" d="M40.8,68.3c1-1,1.6-0.4,1.9-0.4C42.5,68,42.3,68.6,40.8,68.3z"/>
							<path class="st9" d="M39.9,68.2c0.8-1.1,1.6-0.6,1.8-0.7C41.5,67.7,41.4,68.3,39.9,68.2z"/>
							<path class="st9" d="M39.8,68.2c0.1-0.3,0.5-0.6,0.6-0.7c-0.1,0-0.1-0.1-0.1-0.2c0.1-0.1,0.1,0,0.2,0s0.1,0.2-0.1,0.4
								c-0.2,0.1-0.4,0.4-0.5,0.5"/>
						</g>
						<g>
							<path class="st10" d="M32.8,69.9c0.3-0.1,0.7-0.1,1-0.1"/>
							<path class="st10" d="M33.4,69.4c0.4-0.1,0.8,0,1,0"/>
							<path class="st10" d="M34.2,69c0.4-0.1,0.8,0,1,0"/>
							<path class="st10" d="M34.9,68.4c0.4,0,0.7,0.1,1,0.1"/>
							<path class="st10" d="M35.8,68.1c0.4,0,0.7,0.1,1,0.2"/>
							<path class="st10" d="M36.8,67.8c0.4,0,0.7,0.3,1,0.4"/>
							<path class="st10" d="M44.9,69.9c-0.3-0.1-0.7-0.1-1-0.1"/>
							<path class="st10" d="M44.3,69.4c-0.4-0.1-0.8,0-1,0"/>
							<path class="st10" d="M43.5,69c-0.4-0.1-0.8,0-1,0"/>
							<path class="st10" d="M42.8,68.4c-0.4,0-0.7,0.1-1,0.1"/>
							<path class="st10" d="M41.9,68.1c-0.4,0-0.7,0.1-1,0.2"/>
							<path class="st10" d="M41,67.8c-0.4,0-0.7,0.3-1,0.4"/>
						</g>
					</g>
					<path class="st11" d="M31.9,75.9c0.3-1.1,0.5-2.6,0-4.4c2.1-1.4,3.6-2.6,7-2.6c3.4,0,5,0.9,7,2.6c-0.5,1.9-0.3,3.3,0,4.4H31.9z
						"/>
					<g>
						<g>
							<path class="st12" d="M32.3,75.9c0.3-1.3,2.1-1.3,2.4,0H32.3z"/>
							<g>
								<line class="st13" x1="33.4" y1="74.8" x2="33.4" y2="72.7"/>
								<line class="st13" x1="33.8" y1="74.8" x2="34.4" y2="72.6"/>
								<line class="st13" x1="34.1" y1="75" x2="35.3" y2="72.9"/>
								<line class="st13" x1="34.4" y1="75.2" x2="35.7" y2="73.9"/>
								<line class="st13" x1="34.6" y1="75.5" x2="35.3" y2="75.1"/>
								<line class="st13" x1="33.1" y1="74.8" x2="32.5" y2="72.6"/>
								<line class="st13" x1="32.8" y1="75" x2="32.2" y2="74"/>
								<line class="st13" x1="32.5" y1="75.2" x2="32.1" y2="74.9"/>
								<line class="st13" x1="32.2" y1="75.5" x2="32" y2="75.4"/>
							</g>
						</g>
					</g>
					<path class="st14" d="M31.9,75.9c-0.2,0.6-0.4,1.1-0.6,1.6c-0.5,1.2-0.6,3.9,1.3,5.9c2.9,2.9,5.1,1.7,6.2,3.3
						c0.1,0,0.1,0,0.2,0c1.1-1.6,3.3-0.4,6.2-3.3c1.9-1.9,1.9-4.7,1.3-5.9c-0.2-0.4-0.4-1-0.6-1.6C43.7,75.9,34,75.9,31.9,75.9z"/>
					<g>
						<path class="st15" d="M38.2,76.1l0-1.8c0-0.1,0-0.1,0,0L38.2,76.1"/>
						<path class="st16" d="M38.3,74.3c0.1-0.1,0.2,0.1,0.3,0c-0.1,0.2-0.3,0-0.3,0.1V74.3z"/>
						<path class="st15" d="M38.8,76.1l0-1.8c0-0.1,0-0.1,0,0L38.8,76.1"/>
						<path class="st16" d="M38.8,74.3c0.1-0.1,0.2,0.1,0.3,0c-0.1,0.2-0.3,0-0.3,0.1V74.3z"/>
						<path class="st15" d="M39.3,76.2l0-1.8c0-0.1,0-0.1,0,0L39.3,76.2"/>
						<path class="st16" d="M39.4,74.4c0.1-0.1,0.2,0.1,0.3,0c-0.1,0.2-0.3,0-0.3,0.1V74.4z"/>
						<path class="st15" d="M39.5,76.4c-0.1,0-0.1,0-0.1-0.1c-0.1,0-0.2,0.1-0.3,0c-0.1,0-0.2,0.1-0.3,0c-0.1,0.1-0.2,0.1-0.4,0
							c0,0-0.1,0.1-0.2,0.1c-0.1-0.1-0.3-0.3-0.5-0.4c-0.2-0.1-0.5-0.2-0.6-0.3c-0.1-0.1-0.2-0.1,0,0c0.2,0.1,0.5,0.2,0.7,0.3
							c0.3,0.1,1.6,0.1,1.8,0.1c0.1,0,0.3-0.1,0.4-0.1c0.1-0.1,0.1,0,0,0c-0.1,0.1-0.2,0.1-0.2,0.2C39.7,76.2,39.6,76.3,39.5,76.4z"
							/>
						<path class="st16" d="M39.6,74.7l-0.4-0.1c-0.1,0.1-0.1,0.3-0.1,0.4c0.1-0.1,0.4-0.1,0.5,0C39.6,74.9,39.6,74.8,39.6,74.7z"/>
						<path class="st16" d="M39.7,75.1c-0.1,0-0.4,0-0.5,0c-0.1,0.1-0.1,0.3,0,0.4c0.1-0.2,0.4-0.1,0.6,0.1
							C39.7,75.4,39.6,75.2,39.7,75.1z"/>
						<path class="st16" d="M39.7,75.5c-0.1,0-0.5-0.1-0.6-0.1c-0.1,0.1-0.1,0.3-0.1,0.5c0.2-0.2,0.6-0.1,0.7,0.1
							C39.6,75.9,39.5,75.6,39.7,75.5z"/>
						<path class="st16" d="M39.2,74.6l-0.5-0.1c-0.1,0.1-0.1,0.3-0.1,0.4c0.1-0.1,0.5-0.1,0.6,0.1C39.1,74.9,39.1,74.6,39.2,74.6z"
							/>
						<path class="st16" d="M39.2,75.1L38.6,75c-0.1,0.1-0.1,0.3-0.1,0.5c0.1-0.1,0.6-0.1,0.7,0.1C39.1,75.4,39.1,75.2,39.2,75.1z"
							/>
						<path class="st16" d="M39.2,75.6l-0.6-0.1c-0.1,0.1-0.1,0.3-0.1,0.4c0.1-0.2,0.5-0.1,0.7,0.1C39,75.9,39,75.7,39.2,75.6z"/>
						<path class="st16" d="M38.2,74.6c-0.1,0.1-0.2,0.2-0.2,0.3c0.1-0.1,0.4-0.1,0.5,0.1c-0.1-0.1-0.1-0.2,0-0.3
							C38.4,74.6,38.3,74.6,38.2,74.6z"/>
						<path class="st16" d="M38,74.9c0.1,0,0.5,0,0.6,0.1c-0.1,0.1-0.1,0.4,0,0.5c-0.2-0.2-0.6-0.2-0.8-0.1
							C37.8,75.3,37.9,75.1,38,74.9z"/>
						<path class="st16" d="M38.6,75.6c-0.1,0-0.5-0.1-0.7-0.1c-0.1,0.2-0.1,0.5-0.1,0.6c0.2-0.2,0.6-0.1,0.7,0.1
							C38.5,76,38.4,75.6,38.6,75.6z"/>
						<path class="st16" d="M38.2,74.6c-0.4,0.3-0.7,0.8-0.9,1.2c0.1,0,0.3,0,0.3,0.1C37.8,75.4,38,74.9,38.2,74.6z"/>
						<path class="st17" d="M38.2,74.3c-0.4,0.4-0.9,1-1,1.4"/>
						<path class="st17" d="M39.6,74.7c0.1,0.5,0.1,1.1,0.1,1.4"/>
					</g>
					<g>
						<path class="st18" d="M43,77.1c0.1-0.4,0.5-0.9,0.5-1.2c0-0.3,0.1-0.4,0.3-0.8c0.2-0.3,0.3-0.5,0.3-0.7
							c0.1-0.3,0.3-0.4,0.4-0.1c0.1,0.3,0.3,1.1,0.4,1.3c0.1,0.2,0.2,0.4,0.2,0.6s0.1,0.2,0.2,0.3c0.1,0.1,0.1,0.4,0.4,0.6
							c0.3,0.2,0.5,0.4,0.8,0.5c0.2,0.5,0.4,1.2,0.3,2H30.9c0-0.2,0-0.4,0-0.6c1.4-0.4,1.9-1.3,2.5-1.2c0.3-0.4,0.7-0.9,1-1.2
							c0.3-0.3,1-1.5,1.1-2.2c0.2-0.7,0.4-1.1,0.6-1.1c0.2,0,0.3,0.1,0.5,0.7c0.3,0.9,0.5,1,0.7,1.6c0.2,0.6,0.6,1.5,1.2,2.1
							c0.4-0.3,0.9-0.6,1-0.9c0.1-0.2,0.3-0.5,0.5-0.7c0.1-0.3,0.2-0.8,0.3-0.9c0.1-0.1,0.1-0.2,0.1-0.4s0.2-0.6,0.4-1
							c0.2-0.4,0.5-0.5,0.6,0c0.1,0.5,0.4,1.4,0.7,2.1C42.4,76.1,42.6,76.6,43,77.1z"/>
						<g>
							<path class="st19" d="M41.3,78.8c-0.3-0.3-0.8-0.2-1-0.4c-0.2-0.2-0.6-0.1-1.4-0.5c-0.1-0.1-0.2-0.1-0.3-0.2
								c-0.6-0.5-1-1.5-1.2-2.1c-0.2-0.6-0.4-0.7-0.7-1.6c-0.1-0.5-0.2-0.6-0.4-0.7c0.3,0.3,0.1,0.8,0.4,1.3
								c0.1,0.2-0.1,0.2-0.1,0.1c-0.1-0.1-0.2-0.1-0.2-0.1c0.1,0.1,0.1,0.4,0.3,0.6s-0.1,0.2,0.1,0.6c0.1,0.1,0.1,0.3,0,0.3
								c-0.1,0.1-0.2-0.2-0.3-0.1c0,0.1,0.2,0.3,0.3,0.4c0.1,0.1,0,0.1-0.1,0.1c-0.1-0.1-0.2-0.1-0.3-0.1c0,0.1,0.1,0.2,0.2,0.3
								c0.1,0.1,0.1,0.2-0.3,0.2c0.1,0.1,0,0.2-0.1,0.3c0.2,0,0.3,0.4,0.6,0.4c0.2,0,0.3,0.2,0,0.2c-0.2,0-0.7-0.3-0.9-0.6
								c-0.1,0.1-0.2,0.1-0.3,0.1c0,0.1,0,0.4,0.1,0.6c-0.1-0.1-0.3-0.2-0.4-0.4c-0.1-0.2-0.2,0.1-0.1,0.2c0.1,0.1,0.2,0.3,0,0.4
								c-0.2,0.1-0.3,0.1-0.5-0.1c-0.2,0.2-0.3,0.2-0.4,0.1c0,0.1-0.2,0.3-0.2,0.5C33.9,78.9,41.5,79.6,41.3,78.8z"/>
							<path class="st19" d="M46.8,78.8c-2-0.2-3.1-0.9-3.7-1.7c-0.4-0.5-0.6-1-0.8-1.3c-0.3-0.6-0.6-1.6-0.7-2.1
								c0-0.1-0.1-0.2-0.2-0.3c-0.1-0.1-0.1,0.1,0,0.2c0.1,0.1,0.1,0.2,0,0.1c-0.1-0.1-0.1,0.1-0.1,0.2c0.1,0.1,0.2,0.3,0.3,0.5
								c0,0.1,0.1,0.3,0.1,0.4c0.1,0.1-0.2,0.1-0.3-0.1c0,0.1,0,0.3,0.1,0.3c0.1,0,0.1,0.1,0,0.2c-0.1,0.2-0.1,0.2-0.1,0.3
								c0.1,0.1,0.2-0.4,0.3-0.1c0,0.1,0.1,0.3,0.2,0.4C42,76,42,76,41.9,76c-0.1,0-0.2-0.2-0.2,0s0.1,0.3,0.3,0.2
								c0.1,0,0.2,0.1,0.1,0.1s0.1,0.2,0.1,0.1c0.1,0,0.2,0.1,0.3,0.3c0.1,0.2-0.1,0.3-0.2,0.1c-0.2-0.1-0.4-0.3-0.4-0.4
								c0-0.1-0.1,0,0,0.2c0.1,0.1,0.1,0.2,0.2,0.2c0.1,0.1,0,0.2-0.2,0.1c-0.1-0.1-0.2-0.1-0.3,0.1c-0.1,0.2-0.3,0.2-0.2,0.3
								s0.1,0.3-0.1,0.4c-0.1,0.1-0.2,0-0.2-0.2c0,0.1-0.1,0.1-0.2,0c0,0.3-0.1,0.4-0.3,0.3c0,0.1,0,0.2-0.1,0.3
								c0.2,0,0.2,0.1,0.3,0.2c0,0.1,0.1,0.1,0.1,0.1c0.1,0,0.2,0.1,0,0.1c-0.2,0-0.5,0-0.7-0.1c0.2,0.2,0.7,0.2,0.9,0.4
								c1.6,0.6,4.4,0.9,5.5,0.6C46.8,79.2,46.8,78.9,46.8,78.8z"/>
							<path class="st19" d="M44.4,74.1c0.1,0,0.1,0.1,0.1,0.2c0.1,0.3,0.3,1.1,0.4,1.3c0.1,0.2,0.2,0.4,0.2,0.6
								c0,0.1,0.1,0.2,0.2,0.3c0.1,0.1,0.1,0.4,0.4,0.6c0.3,0.2,0.5,0.4,0.8,0.5c0.1,0.3,0.3,0.8,0.3,1.3c-0.7-0.1-1.5-0.3-2-0.4
								c0-0.1,0-0.1,0-0.3c0-0.1,0-0.2,0.1-0.3c0.1-0.1,0.1-0.3,0-0.4c-0.1-0.1-0.1-0.2,0-0.2c0.1-0.1,0.1-0.2-0.1-0.3s0-0.2,0-0.4
								c0.1-0.1,0.2-0.3,0.1-0.5c-0.1-0.2-0.2,0.1-0.3,0c-0.1-0.1-0.1-0.2,0-0.3c0.1-0.1,0-0.3-0.1-0.4c0.2-0.1-0.1-0.5-0.2-0.8
								C44.4,74.3,44.5,74.2,44.4,74.1z"/>
						</g>
						<g>
							<path class="st18" d="M37.1,76c0,0.1,0,0.3-0.1,0.3c0.1,0.1,0.2,0.3,0.1,0.4c0.1-0.1,0.3,0,0.3,0.2c0,0.2,0.1,0.5,0.1,0.6
								c0.1,0.1,0.3,0.2,0.3,0.3c0,0.1,0.1,0.1,0.2,0.1c0.3,0,0.2,0.3,0.5,0.2c0.4-0.1,0.1,0.3,0.6,0.2c0.2,0,0.6,0,0.7,0.3
								c0.2-0.2,0.3-0.1,0.5-0.1c0.2,0.1,0.4,0,0.2-0.1c-0.2-0.1-0.6-0.1-0.7-0.1c-0.2,0-0.4,0-0.6-0.1c-0.2-0.1-0.4-0.3-0.6-0.3
								c-0.2,0-0.2,0-0.4-0.2c-0.1-0.2-0.3-0.2-0.4-0.2c-0.1,0-0.2-0.1-0.1-0.3c0.2-0.2-0.1-0.2,0-0.3c0.1-0.1,0-0.3-0.2-0.3
								c-0.2,0-0.1-0.1-0.1-0.3C37.6,76.1,37,76.2,37.1,76z"/>
							<path class="st18" d="M46.2,78.1c0-0.2-0.1-0.3-0.2-0.5c0-0.2-0.3-0.2-0.4-0.1c0,0.1,0,0.1,0,0.2c0,0.1,0,0.1,0,0.1
								c0.1,0,0.1,0,0.1,0.1c0,0.1,0.1,0,0.1-0.1c0-0.1,0.2,0.1,0.3,0.2C46.1,78.2,46.2,78.3,46.2,78.1z"/>
							<path class="st18" d="M45.2,77.9c0,0.1,0.2,0.2,0.2,0.2s0.2,0.1,0.2,0.1c0,0.1,0.1,0.2,0.1,0.2c0.1,0,0,0.1-0.1,0.1
								c-0.1,0-0.3-0.1-0.3-0.1c0,0.1,0,0.2-0.1,0.1c-0.1-0.1-0.1-0.2-0.3-0.3c0.1,0,0.1-0.1,0.1-0.1C45.1,77.9,45.2,77.7,45.2,77.9
								z"/>
						</g>
					</g>
					<g>
						<path class="st20" d="M30.9,79.3c0.2-0.1,0.4-0.1,0.5,0c0.1-0.1,0.1-0.2,0.3-0.2c0.1-0.1,0.3-0.2,0.3-0.1
							c0.1-0.1,0.4-0.2,0.4-0.1c0.1-0.1,0.3-0.2,0.4-0.1c0.2-0.2,0.5-0.3,0.7-0.2c0.2-0.1,0.4-0.1,0.4,0c0.1,0.1,0.3-0.1,0.3,0.1
							c0.1,0,0.4,0,0.4,0.1c0-0.1,0.1-0.1,0.2-0.1c0-0.3,0.2-0.5,0.5-0.4c0.1-0.2,0.4-0.3,0.4-0.2c0.1-0.1,0.3,0,0.4,0.1
							c0.2,0,0.3,0.1,0.4,0.3s0.4,0.3,0.6,0.2c0.2-0.1,0.4-0.1,0.5,0c0.1-0.1,0.3-0.1,0.3,0c0.1,0.1,0.3-0.1,0.4,0
							c0.1,0.1,0.2-0.1,0.5,0c0.2,0.1,0.6,0.3,1,0.3c0.3,0,0.6-0.4,0.8-0.1c0.2-0.1,0.5-0.2,0.8-0.1c0.1-0.1,0.4-0.2,0.6-0.1
							c0.1-0.2,0.4-0.3,0.6-0.2c0.1-0.2,0.6-0.2,0.7,0.1c0.1,0,0.3,0.1,0.3,0.2c0.1,0,0.3,0.1,0.3,0.2c0.1,0,0.3,0.1,0.3,0.2
							c0.2,0,0.4,0.1,0.6,0.3c0.1-0.1,0-0.3,0.2-0.3c0.2,0,0.2,0,0.3,0.1c0.2-0.1,0.5-0.1,0.7,0.1c0.2-0.1,0.3,0,0.4,0.1
							c0.1-0.1,0.2-0.1,0.3-0.1c0,0.4,0,0.8-0.1,1.3H31.1C30.9,80.1,30.9,79.7,30.9,79.3z"/>
					</g>
					<g>
						<path class="st21" d="M39.2,65.1c0,0.2,0.1,0.7-0.2,0.8c0.5,0.6,1.2,0.7,2.5,0.7c0.8,0,1.5,0,1.9,0c0,0.2-0.1,0.4-0.1,0.6
							c0,0.2,0.2,0.3,0.5,0.2s0.9-0.3,1.3,0.1c0.6,0.5,1.6,0.6,1.9,1c-0.1-0.4-0.5-0.8-0.9-1.1c0.4-0.1,0.9,0,1.1,0.1
							c-0.4-0.5-1.2-0.5-1.6-0.8c-0.4-0.2-0.8-0.5-1.1-0.5c0-0.1,0-0.3-0.1-0.3c-0.3-0.2-0.8-0.3-1.2-0.3c0.1-0.1,0.1-0.1,0.1-0.3
							c0-0.2,0-0.4,0-0.6c0-0.2,0-0.3-0.2-0.4c-1-0.6-2.1-1.1-4.3-1.1c-2.1,0-3.3,0.4-4.3,1.1c-0.3,0.2-0.2,0.2-0.2,0.4
							c0,0.2,0,0.5,0,0.6c0,0.1,0,0.2,0.1,0.3c-0.4,0-0.9,0.1-1.2,0.3C33,65.9,33,66,33,66.2c-0.3,0.1-0.7,0.3-1.1,0.5
							c-0.4,0.2-1.2,0.3-1.6,0.8c0.2-0.1,0.7-0.2,1.1-0.1c-0.4,0.3-0.8,0.7-0.9,1.1c0.3-0.3,1.4-0.4,1.9-1c0.4-0.3,1-0.1,1.3-0.1
							s0.5,0,0.5-0.2c0-0.2-0.1-0.4-0.1-0.6c0.5,0,1.1,0,1.9,0c1.3,0,2-0.1,2.5-0.7c-0.3-0.1-0.2-0.6-0.2-0.8
							c-0.6-0.1-0.9-0.4-1.4-0.4c-0.5,0-0.6,0.3-0.6,0.4c0,0,0,0.1,0,0.1c-0.4,0-0.9-0.1-1.1-0.4c0.7-0.3,1.9-0.6,3.4-0.6
							c1.5,0,2.6,0.3,3.4,0.6c-0.1,0.3-0.7,0.4-1.1,0.4c0,0,0-0.1,0-0.1c0-0.1-0.1-0.4-0.6-0.4C40.1,64.7,39.8,65,39.2,65.1z"/>
						<path class="st21" d="M38.9,65.9c0.4,0,0.4-0.3,0.4-0.5c0-0.3,0-0.5-0.4-0.5s-0.4,0.3-0.4,0.5C38.5,65.7,38.5,65.9,38.9,65.9z
							"/>
						<g>
							<path class="st22" d="M35.5,64.8c-0.1,0.1-0.3,0.1-0.4,0.2c-0.7,0.4-0.8,0.5-0.5,0.6"/>
							<path class="st22" d="M34.2,66.7c-0.4,0-0.6,0-0.8,0.1c-0.2,0.1-0.3,0.2-0.1,0.3"/>
							<path class="st22" d="M36.5,65.2c0,0.1,0,0.2,0,0.3c0,0.2,0.2,0.4,0.5,0.4c0.8,0,0.9-0.1,1.5-0.1"/>
							<path class="st22" d="M38.6,65.8c-0.5-0.1-1-0.4-1.4-0.4c-0.5,0-0.6,0.2-0.5,0.3"/>
							<path class="st22" d="M33.1,66.2c0,0.1,0,0.4,0,0.6c0,0.2,0.1,0.4,0.5,0.3c0.4-0.1,0.6,0,0.6,0.2"/>
							<path class="st22" d="M34.4,65.5c0.1,0.1,0.3,0.2,0.7,0.3c0.8,0.3,2.6,0.5,3.7,0"/>
							<path class="st22" d="M42.2,64.8c0.1,0.1,0.3,0.1,0.4,0.2c0.7,0.4,0.8,0.5,0.5,0.6"/>
							<path class="st22" d="M43.5,66.7c0.4,0,0.6,0,0.8,0.1c0.2,0.1,0.3,0.2,0.1,0.3"/>
							<path class="st22" d="M41.2,65.2c0,0.1,0,0.2,0,0.3c0,0.2-0.2,0.4-0.5,0.4c-0.8,0-0.9-0.1-1.5-0.1"/>
							<path class="st22" d="M39.2,65.8c0.5-0.1,1-0.4,1.4-0.4c0.5,0,0.6,0.2,0.5,0.3"/>
							<path class="st22" d="M44.6,66.2c0,0.1,0,0.4,0,0.6c0,0.2-0.1,0.4-0.5,0.3c-0.4-0.1-0.6,0-0.6,0.2"/>
							<path class="st22" d="M43.3,65.5c-0.1,0.1-0.3,0.2-0.7,0.3c-0.8,0.3-2.6,0.5-3.7,0"/>
						</g>
					</g>
					<g>
						<polygon class="st23" points="38.9,70.5 38.7,71 38.2,71 38.6,71.3 38.4,71.8 38.9,71.5 39.3,71.8 39.1,71.3 39.5,71 39,71 
													"/>
						<polygon class="st23" points="36.8,70.6 36.8,71.1 36.2,71.2 36.7,71.5 36.6,72 37,71.6 37.5,71.9 37.2,71.4 37.6,71 
							37.1,71.1 						"/>
						<polygon class="st23" points="34.9,71.1 34.9,71.6 34.4,71.8 34.9,72 34.9,72.5 35.2,72.1 35.7,72.2 35.4,71.8 35.7,71.4 
							35.2,71.6 						"/>
						<polygon class="st23" points="33,71.9 33.1,72.4 32.6,72.7 33.2,72.8 33.3,73.3 33.5,72.8 34,72.9 33.6,72.5 33.9,72.1 
							33.4,72.3 						"/>
						<polygon class="st23" points="40.9,70.6 41,71.1 41.5,71.2 41,71.5 41.1,72 40.7,71.6 40.2,71.9 40.5,71.4 40.1,71 40.6,71.1 
													"/>
						<polygon class="st23" points="42.8,71.1 42.8,71.6 43.3,71.8 42.8,72 42.8,72.5 42.5,72.1 42,72.2 42.3,71.8 42,71.4 
							42.5,71.6 						"/>
						<polygon class="st23" points="44.7,71.9 44.6,72.4 45.1,72.7 44.5,72.8 44.5,73.3 44.2,72.8 43.7,72.9 44.1,72.5 43.8,72.1 
							44.3,72.3 						"/>
					</g>
					<path class="st7" d="M45.8,71.5c-0.7,2.9,0.1,4.7,0.6,6c0.5,1.2,0.6,3.9-1.3,5.9c-2.9,2.9-5.1,1.7-6.2,3.3"/>
					<path class="st7" d="M38.7,86.7c-1.1-1.6-3.3-0.4-6.2-3.3c-1.9-1.9-1.9-4.7-1.3-5.9c0.6-1.3,1.4-3.1,0.6-6"/>
					<g>
						<path class="st15" d="M37.9,83.1l0.1-3.9c0-0.2,0-0.2,0.1,0l0,3.9"/>
						<path class="st16" d="M38,79.2c0.1-0.1,0.4,0.1,0.6,0c-0.1,0.4-0.6,0.1-0.6,0.2V79.2z"/>
						<path class="st15" d="M39.2,83.1l0.1-3.9c0-0.2,0-0.2,0.1,0l0,3.9"/>
						<path class="st16" d="M39.3,79.2c0.1-0.1,0.4,0.1,0.6,0c-0.1,0.4-0.6,0.1-0.6,0.2V79.2z"/>
						<path class="st15" d="M40.4,83.3l0.1-3.9c0-0.2,0-0.2,0.1,0l0,3.9"/>
						<path class="st16" d="M40.5,79.4c0.1-0.1,0.4,0.1,0.6,0c-0.1,0.4-0.6,0.1-0.6,0.2V79.4z"/>
						<path class="st15" d="M40.9,83.8c-0.1,0-0.3-0.1-0.4-0.2c-0.1,0.1-0.5,0.1-0.7,0c-0.1,0.1-0.4,0.1-0.6,0.1
							c-0.1,0.1-0.6,0.1-0.8,0c-0.1,0.1-0.3,0.2-0.5,0.2c-0.2-0.3-0.7-0.7-1-0.9c-0.4-0.2-1.1-0.5-1.5-0.7c-0.2-0.1-0.4-0.3,0-0.1
							c0.5,0.2,1.2,0.5,1.7,0.7c0.7,0.3,3.6,0.3,4,0.2c0.2,0,0.6-0.2,0.8-0.4c0.2-0.1,0.2,0,0,0.1c-0.2,0.1-0.4,0.2-0.5,0.4
							C41.2,83.5,41,83.6,40.9,83.8z"/>
						<path class="st16" d="M41.2,80.1L40.2,80c-0.2,0.3-0.2,0.6-0.1,0.9c0.3-0.3,0.8-0.1,1.1,0C41.1,80.6,41,80.3,41.2,80.1z"/>
						<path class="st16" d="M41.2,80.9c-0.3,0-0.9,0-1.1,0c-0.2,0.3-0.1,0.7-0.1,0.9c0.2-0.4,1-0.2,1.3,0.1
							C41.2,81.6,41.1,81.3,41.2,80.9z"/>
						<path class="st16" d="M41.4,81.8c-0.3-0.1-1.1-0.1-1.3-0.1c-0.1,0.3-0.3,0.7-0.3,1c0.4-0.5,1.4-0.1,1.6,0.3
							C41.1,82.6,40.9,82.1,41.4,81.8z"/>
						<path class="st16" d="M40.2,79.8L39,79.6c-0.2,0.2-0.3,0.6-0.3,1c0.3-0.2,1.2-0.1,1.4,0.2C40,80.5,39.9,80,40.2,79.8z"/>
						<path class="st16" d="M40.1,80.9l-1.4-0.2c-0.2,0.3-0.2,0.7-0.1,1.1c0.3-0.3,1.3-0.1,1.6,0.2C40,81.5,39.9,81.2,40.1,80.9z"/>
						<path class="st16" d="M40.2,82l-1.4-0.1c-0.2,0.3-0.4,0.5-0.3,0.9c0.2-0.4,1.1-0.1,1.5,0.3C39.7,82.8,39.7,82.4,40.2,82z"/>
						<path class="st16" d="M37.9,79.8c-0.1,0.1-0.4,0.5-0.4,0.6c0.3-0.1,0.8-0.1,1.1,0.1c-0.1-0.2-0.1-0.5-0.1-0.7
							C38.5,79.9,38.1,79.8,37.9,79.8z"/>
						<path class="st16" d="M37.4,80.6c0.4,0,1.1,0.1,1.4,0.2c-0.2,0.3-0.2,0.8-0.1,1.1c-0.5-0.5-1.3-0.5-1.7-0.3
							C37,81.3,37.2,80.9,37.4,80.6z"/>
						<path class="st16" d="M38.7,82c-0.4,0-1.2-0.1-1.6-0.3c-0.1,0.4-0.2,1-0.2,1.2c0.4-0.5,1.4-0.2,1.6,0.3
							C38.5,82.9,38.4,82.2,38.7,82z"/>
						<path class="st16" d="M37.9,79.8c-1,0.6-1.7,1.8-2,2.6c0.3,0,0.6,0.1,0.7,0.3C37,81.6,37.4,80.5,37.9,79.8z"/>
						<path class="st17" d="M38,79.3c-0.8,0.8-1.9,2.2-2.3,3"/>
						<path class="st17" d="M41.2,80.1c0.2,1,0.3,2.4,0.2,3"/>
						<path class="st24" d="M42.2,82.3c-0.2,0.1-0.6-0.2-0.8-0.1v-0.1c0.2-0.1,0.6,0.2,0.8,0.1V82.3z"/>
						<path class="st16" d="M42.2,82.4c-0.2,0.1-0.6-0.2-0.8-0.1v-0.1c0.2-0.1,0.6,0.2,0.8,0.1V82.4z"/>
						<path class="st25" d="M42.2,82.6c-0.2,0.1-0.6-0.2-0.8-0.1v-0.1c0.2-0.1,0.6,0.2,0.8,0.1V82.6z"/>
						<path class="st16" d="M42.2,82.7c-0.2,0.1-0.6-0.2-0.8-0.1v-0.1c0.2-0.1,0.6,0.2,0.8,0.1V82.7z"/>
						<path class="st24" d="M42.2,82.8c-0.2,0.1-0.6-0.2-0.8-0.1v-0.1c0.2-0.1,0.6,0.2,0.8,0.1V82.8z"/>
					</g>
					<g>
						<g>
							<path class="st26" d="M28.7,76.8c-0.5,0-0.5,0.7,0,0.7C29.1,77.5,29.2,76.8,28.7,76.8z"/>
							<path class="st26" d="M29.5,76.8c-0.5,0-0.5,0.7,0,0.7C30,77.5,30,76.8,29.5,76.8z"/>
							<path class="st26" d="M30.4,76.8c-0.5,0-0.5,0.7,0,0.7C30.8,77.5,30.8,76.8,30.4,76.8z"/>
							<path class="st26" d="M28.4,77.6c-0.5,0-0.5,0.7,0,0.7C28.8,78.3,28.8,77.6,28.4,77.6z"/>
							<path class="st26" d="M29.2,77.6c-0.5,0-0.5,0.7,0,0.7C29.7,78.3,29.7,77.6,29.2,77.6z"/>
							<path class="st26" d="M30.1,77.6c-0.5,0-0.5,0.7,0,0.7C30.5,78.3,30.5,77.6,30.1,77.6z"/>
							<path class="st26" d="M28.3,78.4c-0.5,0-0.5,0.7,0,0.7C28.8,79,28.8,78.4,28.3,78.4z"/>
							<path class="st26" d="M29.1,78.4c-0.5,0-0.5,0.7,0,0.7C29.6,79,29.6,78.4,29.1,78.4z"/>
							<path class="st26" d="M30,78.4c-0.5,0-0.5,0.7,0,0.7C30.5,79,30.5,78.4,30,78.4z"/>
							<path class="st26" d="M28.5,79.2c-0.4,0-0.4,0.6,0,0.6S28.9,79.2,28.5,79.2z"/>
							<path class="st26" d="M29.3,79.2c-0.4,0-0.4,0.6,0,0.6C29.7,79.9,29.7,79.2,29.3,79.2z"/>
							<path class="st26" d="M30,79.2c-0.4,0-0.4,0.6,0,0.6S30.5,79.2,30,79.2z"/>
							<path class="st26" d="M28.6,80c-0.4,0-0.4,0.6,0,0.6C29,80.6,29,80,28.6,80z"/>
							<path class="st26" d="M29.3,79.9c-0.4,0-0.4,0.6,0,0.6C29.8,80.5,29.8,79.9,29.3,79.9z"/>
							<path class="st26" d="M30.1,79.9c-0.4,0-0.4,0.6,0,0.6C30.6,80.5,30.5,79.9,30.1,79.9z"/>
							<path class="st26" d="M28.9,80.7c-0.4,0-0.4,0.6,0,0.6C29.3,81.3,29.3,80.7,28.9,80.7z"/>
							<path class="st26" d="M29.6,80.6c-0.4,0-0.4,0.6,0,0.6C30,81.2,30,80.6,29.6,80.6z"/>
							<path class="st26" d="M30.3,80.6c-0.3,0-0.3,0.5,0,0.4C30.6,81.1,30.6,80.6,30.3,80.6z"/>
							<path class="st26" d="M29.2,81.4c-0.4,0-0.4,0.6,0,0.6C29.6,81.9,29.6,81.4,29.2,81.4z"/>
							<path class="st26" d="M29.9,81.3c-0.3,0-0.3,0.5,0,0.5C30.2,81.7,30.2,81.2,29.9,81.3z"/>
							<path class="st26" d="M30.5,81.2c-0.3,0-0.2,0.4,0,0.4C30.8,81.5,30.7,81.1,30.5,81.2z"/>
							<path class="st26" d="M29.5,82c-0.4,0.1-0.2,0.6,0.1,0.5C29.9,82.4,29.8,81.9,29.5,82z"/>
							<path class="st26" d="M30,81.8c-0.3,0.1-0.2,0.5,0.1,0.4C30.4,82.1,30.3,81.7,30,81.8z"/>
							<path class="st26" d="M30.6,81.6c-0.2,0.1-0.1,0.4,0.1,0.4C30.9,81.9,30.8,81.5,30.6,81.6z"/>
							<path class="st26" d="M29.9,82.5c-0.3,0.1-0.1,0.6,0.2,0.4C30.3,82.9,30.2,82.4,29.9,82.5z"/>
							<path class="st26" d="M30.4,82.2c-0.3,0.1-0.1,0.5,0.1,0.4C30.8,82.5,30.6,82.1,30.4,82.2z"/>
							<path class="st26" d="M30.8,82c-0.2,0.1-0.1,0.4,0.1,0.3C31.2,82.3,31,81.9,30.8,82z"/>
							<path class="st26" d="M30.2,82.9c-0.3,0.1-0.1,0.5,0.2,0.4C30.6,83.2,30.5,82.8,30.2,82.9z"/>
							<path class="st26" d="M30.6,82.7c-0.2,0.1-0.1,0.4,0.1,0.3C31,82.9,30.8,82.6,30.6,82.7z"/>
							<path class="st26" d="M31,82.4c-0.2,0.1-0.1,0.4,0.1,0.3C31.3,82.6,31.2,82.4,31,82.4z"/>
							<path class="st26" d="M30.6,83.3c-0.2,0.1-0.1,0.4,0.2,0.3C31,83.5,30.8,83.2,30.6,83.3z"/>
							<path class="st26" d="M30.9,83.1c-0.2,0.1,0,0.4,0.1,0.3C31.3,83.2,31.1,83,30.9,83.1z"/>
							<path class="st26" d="M31.3,82.9c-0.1,0.1,0,0.3,0.1,0.2C31.5,83,31.4,82.8,31.3,82.9z"/>
							<path class="st26" d="M30.9,83.6c-0.2,0.1,0,0.4,0.2,0.3C31.3,83.8,31.1,83.5,30.9,83.6z"/>
							<path class="st26" d="M31.2,83.4c-0.1,0.1,0,0.4,0.1,0.2C31.5,83.5,31.4,83.3,31.2,83.4z"/>
							<path class="st26" d="M31.5,83.1c-0.1,0.1,0,0.3,0.1,0.2C31.8,83.3,31.6,83.1,31.5,83.1z"/>
							<path class="st26" d="M31.2,83.9c-0.2,0.1,0,0.4,0.2,0.3C31.6,84.1,31.4,83.8,31.2,83.9z"/>
							<path class="st26" d="M31.5,83.6c-0.1,0.1,0,0.4,0.1,0.2C31.8,83.8,31.6,83.5,31.5,83.6z"/>
							<path class="st26" d="M31.8,83.4c-0.1,0.1,0,0.3,0.1,0.2C32,83.5,31.9,83.3,31.8,83.4z"/>
							<path class="st26" d="M32,83.7c-0.1,0.1,0,0.3,0.1,0.2C32.3,83.8,32.2,83.6,32,83.7z"/>
							<path class="st26" d="M31.8,83.9c-0.1,0.1,0,0.3,0.1,0.2C32.1,84.1,32,83.8,31.8,83.9z"/>
							<path class="st26" d="M31.6,84.2c-0.1,0.1,0,0.3,0.1,0.2C31.9,84.3,31.8,84.1,31.6,84.2z"/>
							<path class="st26" d="M32.3,84c-0.1,0.1,0,0.2,0.1,0.2C32.5,84.1,32.4,83.9,32.3,84z"/>
							<path class="st26" d="M32.1,84.2c-0.1,0.1,0,0.3,0.1,0.2C32.3,84.3,32.2,84.1,32.1,84.2z"/>
							<path class="st26" d="M31.9,84.4c-0.1,0.1,0,0.3,0.1,0.2C32.2,84.5,32,84.3,31.9,84.4z"/>
							<path class="st26" d="M32.5,84.2c-0.1,0.1,0,0.2,0.1,0.1C32.8,84.3,32.7,84.1,32.5,84.2z"/>
							<path class="st26" d="M32.4,84.4c-0.1,0.1,0,0.2,0.1,0.2S32.5,84.3,32.4,84.4z"/>
							<path class="st26" d="M32.2,84.6c-0.1,0.1,0,0.3,0.1,0.2C32.4,84.7,32.3,84.5,32.2,84.6z"/>
							<path class="st26" d="M32.8,84.3c-0.1,0.1,0,0.2,0.1,0.1C33,84.4,32.9,84.3,32.8,84.3z"/>
							<path class="st26" d="M32.6,84.6c-0.1,0.1,0,0.2,0.1,0.1C32.8,84.6,32.7,84.5,32.6,84.6z"/>
							<path class="st26" d="M32.5,84.8c-0.1,0.1,0,0.2,0.1,0.2C32.7,84.8,32.6,84.7,32.5,84.8z"/>
							<path class="st26" d="M33,84.5c-0.1,0.1,0,0.2,0.1,0.1C33.2,84.5,33,84.4,33,84.5z"/>
							<path class="st26" d="M32.8,84.7c-0.1,0.1,0,0.2,0.1,0.1C33,84.7,32.9,84.6,32.8,84.7z"/>
							<path class="st26" d="M32.7,84.9c-0.1,0.1,0,0.2,0.1,0.1C32.9,84.9,32.8,84.8,32.7,84.9z"/>
							<path class="st26" d="M33.2,84.6c-0.1,0.1,0,0.2,0.1,0.1C33.4,84.6,33.3,84.5,33.2,84.6z"/>
							<path class="st26" d="M33.1,84.8c-0.1,0.1,0,0.2,0.1,0.1C33.3,84.8,33.2,84.7,33.1,84.8z"/>
							<path class="st26" d="M33,85c-0.1,0.1,0,0.2,0.1,0.1C33.2,85,33.1,84.9,33,85z"/>
							<path class="st26" d="M33.4,84.8C33.4,84.8,33.5,84.9,33.4,84.8C33.6,84.8,33.5,84.7,33.4,84.8z"/>
							<path class="st26" d="M33.3,84.9C33.3,85,33.4,85.1,33.3,84.9C33.5,84.9,33.4,84.8,33.3,84.9z"/>
							<path class="st26" d="M33.3,85.1c-0.1,0.1,0,0.2,0.1,0.1C33.4,85.1,33.3,85,33.3,85.1z"/>
							<path class="st26" d="M30.9,76.3c-0.3,0-0.3,0.5,0,0.5C31.2,76.8,31.2,76.3,30.9,76.3z"/>
						</g>
						<g>
							<path class="st26" d="M49,76.8c0.5,0,0.5,0.7,0,0.7C48.6,77.5,48.6,76.8,49,76.8z"/>
							<path class="st26" d="M48.2,76.8c0.5,0,0.5,0.7,0,0.7C47.7,77.5,47.7,76.8,48.2,76.8z"/>
							<path class="st26" d="M47.3,76.8c0.5,0,0.5,0.7,0,0.7C46.9,77.5,46.9,76.8,47.3,76.8z"/>
							<path class="st26" d="M49.3,77.6c0.5,0,0.5,0.7,0,0.7C48.9,78.3,48.9,77.6,49.3,77.6z"/>
							<path class="st26" d="M48.5,77.6c0.5,0,0.5,0.7,0,0.7C48,78.3,48,77.6,48.5,77.6z"/>
							<path class="st26" d="M47.7,77.6c0.5,0,0.5,0.7,0,0.7C47.2,78.3,47.2,77.6,47.7,77.6z"/>
							<path class="st26" d="M49.4,78.4c0.5,0,0.5,0.7,0,0.7C49,79,49,78.4,49.4,78.4z"/>
							<path class="st26" d="M48.6,78.4c0.5,0,0.5,0.7,0,0.7C48.1,79,48.1,78.4,48.6,78.4z"/>
							<path class="st26" d="M47.7,78.4c0.5,0,0.5,0.7,0,0.7S47.3,78.4,47.7,78.4z"/>
							<path class="st26" d="M49.2,79.2c0.4,0,0.4,0.6,0,0.6C48.8,79.9,48.8,79.2,49.2,79.2z"/>
							<path class="st26" d="M48.5,79.2c0.4,0,0.4,0.6,0,0.6C48,79.9,48,79.2,48.5,79.2z"/>
							<path class="st26" d="M47.7,79.2c0.4,0,0.4,0.6,0,0.6C47.2,79.9,47.2,79.2,47.7,79.2z"/>
							<path class="st26" d="M49.1,80c0.4,0,0.4,0.6,0,0.6C48.7,80.6,48.7,80,49.1,80z"/>
							<path class="st26" d="M48.4,79.9c0.4,0,0.4,0.6,0,0.6C47.9,80.5,48,79.9,48.4,79.9z"/>
							<path class="st26" d="M47.6,79.9c0.4,0,0.4,0.6,0,0.6C47.2,80.5,47.2,79.9,47.6,79.9z"/>
							<path class="st26" d="M48.8,80.7c0.4,0,0.4,0.6,0,0.6C48.4,81.3,48.4,80.7,48.8,80.7z"/>
							<path class="st26" d="M48.1,80.6c0.4,0,0.3,0.6,0,0.6C47.7,81.2,47.7,80.6,48.1,80.6z"/>
							<path class="st26" d="M47.4,80.6c0.3,0,0.3,0.5,0,0.4C47.1,81.1,47.1,80.6,47.4,80.6z"/>
							<path class="st26" d="M48.5,81.4c0.4,0,0.4,0.6,0,0.6C48.1,81.9,48.1,81.4,48.5,81.4z"/>
							<path class="st26" d="M47.8,81.3c0.3,0,0.3,0.5,0,0.5C47.5,81.7,47.5,81.2,47.8,81.3z"/>
							<path class="st26" d="M47.2,81.2c0.3,0,0.2,0.4,0,0.4C47,81.5,47,81.1,47.2,81.2z"/>
							<path class="st26" d="M48.2,82c0.4,0.1,0.2,0.6-0.1,0.5C47.8,82.4,47.9,81.9,48.2,82z"/>
							<path class="st26" d="M47.7,81.8c0.3,0.1,0.2,0.5-0.1,0.4C47.3,82.1,47.4,81.7,47.7,81.8z"/>
							<path class="st26" d="M47.1,81.6c0.2,0.1,0.1,0.4-0.1,0.4C46.8,81.9,46.9,81.5,47.1,81.6z"/>
							<path class="st26" d="M47.9,82.5c0.3,0.1,0.1,0.6-0.2,0.4C47.4,82.9,47.5,82.4,47.9,82.5z"/>
							<path class="st26" d="M47.4,82.2c0.3,0.1,0.1,0.5-0.1,0.4C47,82.5,47.1,82.1,47.4,82.2z"/>
							<path class="st26" d="M46.9,82c0.2,0.1,0.1,0.4-0.1,0.3C46.6,82.3,46.7,81.9,46.9,82z"/>
							<path class="st26" d="M47.5,82.9c0.3,0.1,0.1,0.5-0.2,0.4C47.1,83.2,47.3,82.8,47.5,82.9z"/>
							<path class="st26" d="M47.1,82.7c0.2,0.1,0.1,0.4-0.1,0.3C46.7,82.9,46.9,82.6,47.1,82.7z"/>
							<path class="st26" d="M46.7,82.4c0.2,0.1,0.1,0.4-0.1,0.3C46.4,82.6,46.5,82.4,46.7,82.4z"/>
							<path class="st26" d="M47.1,83.3c0.2,0.1,0.1,0.4-0.2,0.3C46.7,83.5,46.9,83.2,47.1,83.3z"/>
							<path class="st26" d="M46.8,83.1c0.2,0.1,0,0.4-0.1,0.3C46.5,83.2,46.6,83,46.8,83.1z"/>
							<path class="st26" d="M46.5,82.9c0.1,0.1,0,0.3-0.1,0.2C46.2,83,46.3,82.8,46.5,82.9z"/>
							<path class="st26" d="M46.8,83.6c0.2,0.1,0,0.4-0.2,0.3C46.4,83.8,46.6,83.5,46.8,83.6z"/>
							<path class="st26" d="M46.5,83.4c0.1,0.1,0,0.4-0.1,0.2C46.2,83.5,46.3,83.3,46.5,83.4z"/>
							<path class="st26" d="M46.2,83.1c0.1,0.1,0,0.3-0.1,0.2C46,83.3,46.1,83.1,46.2,83.1z"/>
							<path class="st26" d="M46.5,83.9c0.2,0.1,0,0.4-0.2,0.3C46.1,84.1,46.3,83.8,46.5,83.9z"/>
							<path class="st26" d="M46.2,83.6c0.1,0.1,0,0.4-0.1,0.2C45.9,83.8,46.1,83.5,46.2,83.6z"/>
							<path class="st26" d="M45.9,83.4c0.1,0.1,0,0.3-0.1,0.2C45.7,83.5,45.8,83.3,45.9,83.4z"/>
							<path class="st26" d="M45.7,83.7c0.1,0.1,0,0.3-0.1,0.2C45.4,83.8,45.5,83.6,45.7,83.7z"/>
							<path class="st26" d="M45.9,83.9c0.1,0.1,0,0.3-0.1,0.2C45.6,84.1,45.7,83.8,45.9,83.9z"/>
							<path class="st26" d="M46.1,84.2c0.1,0.1,0,0.3-0.1,0.2C45.8,84.3,46,84.1,46.1,84.2z"/>
							<path class="st26" d="M45.4,84c0.1,0.1,0,0.2-0.1,0.2C45.2,84.1,45.3,83.9,45.4,84z"/>
							<path class="st26" d="M45.6,84.2c0.1,0.1,0,0.3-0.1,0.2C45.4,84.3,45.5,84.1,45.6,84.2z"/>
							<path class="st26" d="M45.8,84.4c0.1,0.1,0,0.3-0.1,0.2C45.5,84.5,45.7,84.3,45.8,84.4z"/>
							<path class="st26" d="M45.2,84.2c0.1,0.1,0,0.2-0.1,0.1C45,84.3,45,84.1,45.2,84.2z"/>
							<path class="st26" d="M45.3,84.4c0.1,0.1,0,0.2-0.1,0.2C45.1,84.5,45.2,84.3,45.3,84.4z"/>
							<path class="st26" d="M45.5,84.6c0.1,0.1,0,0.3-0.1,0.2C45.3,84.7,45.4,84.5,45.5,84.6z"/>
							<path class="st26" d="M44.9,84.3c0.1,0.1,0,0.2-0.1,0.1C44.7,84.4,44.8,84.3,44.9,84.3z"/>
							<path class="st26" d="M45.1,84.6c0.1,0.1,0,0.2-0.1,0.1C44.9,84.6,45,84.5,45.1,84.6z"/>
							<path class="st26" d="M45.2,84.8c0.1,0.1,0,0.2-0.1,0.2C45,84.8,45.1,84.7,45.2,84.8z"/>
							<path class="st26" d="M44.7,84.5c0.1,0.1,0,0.2-0.1,0.1C44.6,84.5,44.7,84.4,44.7,84.5z"/>
							<path class="st26" d="M44.9,84.7c0.1,0.1,0,0.2-0.1,0.1C44.7,84.7,44.8,84.6,44.9,84.7z"/>
							<path class="st26" d="M45,84.9c0.1,0.1,0,0.2-0.1,0.1C44.8,84.9,44.9,84.8,45,84.9z"/>
							<path class="st26" d="M44.5,84.6c0.1,0.1,0,0.2-0.1,0.1C44.3,84.6,44.4,84.5,44.5,84.6z"/>
							<path class="st26" d="M44.6,84.8c0.1,0.1,0,0.2-0.1,0.1C44.4,84.8,44.5,84.7,44.6,84.8z"/>
							<path class="st26" d="M44.7,85c0.1,0.1,0,0.2-0.1,0.1C44.5,85,44.7,84.9,44.7,85z"/>
							<path class="st26" d="M44.3,84.8C44.3,84.8,44.2,84.9,44.3,84.8C44.1,84.8,44.2,84.7,44.3,84.8z"/>
							<path class="st26" d="M44.4,84.9C44.4,85,44.3,85.1,44.4,84.9C44.2,84.9,44.3,84.8,44.4,84.9z"/>
							<path class="st26" d="M44.5,85.1c0.1,0.1,0,0.2-0.1,0.1C44.3,85.1,44.4,85,44.5,85.1z"/>
							<path class="st26" d="M46.8,76.3c0.3,0,0.3,0.5,0,0.5C46.5,76.8,46.5,76.3,46.8,76.3z"/>
						</g>
					</g>
					<g>
						<path class="st21" d="M38.9,68.6c0.3,0,0.5,0,0.7,0c0-0.1,0-0.3,0-0.4s0.4-0.3,1.1-0.1c2.7,0.5,3,1.7,5.1,2.4
							c0,0,0.1,0,0.2,0.1c0.1-0.1,0.1-0.2,0.2-0.4c0-0.1,0.3-0.1,0.6,0c0.3,0.1,0.4,0.3,0.4,0.4C47,70.7,47,70.9,46.9,71
							c0.5,0.2,1.4,0.4,1.1,1.6c-0.2-0.2-0.8-0.4-1.1-0.4c-0.4,0-0.8-0.1-0.6-0.6c-0.1,0-0.2-0.1-0.3-0.1c0,0,0,0.1-0.1,0.1
							c-0.1,0.2-0.5,0.3-0.9,0.2c-2.1-0.7-2.8-2.3-5.3-2.4c0,0,0,0.1,0,0.1c0,0.2-0.3,0.4-1,0.4c-0.7,0-1-0.2-1-0.4c0,0,0-0.1,0-0.1
							c-2.5,0-3.1,1.6-5.3,2.4c-0.4,0.1-0.7,0.1-0.9-0.2c0,0,0-0.1-0.1-0.1c-0.1,0-0.2,0.1-0.3,0.1c0.1,0.4-0.3,0.6-0.6,0.6
							c-0.3,0-0.9,0.2-1.1,0.4c-0.3-1.1,0.6-1.4,1.1-1.6c-0.1-0.1-0.1-0.2-0.1-0.4c-0.1-0.1,0.1-0.3,0.4-0.4c0.3-0.1,0.6-0.1,0.6,0
							c0.1,0.1,0.1,0.3,0.2,0.4c0.1,0,0.1,0,0.2-0.1c2-0.7,2.4-1.9,5.1-2.4c0.7-0.1,1.1,0,1.1,0.1c0,0.1,0,0.3,0,0.4
							C38.3,68.6,38.6,68.6,38.9,68.6z"/>
						<g>
							<path class="st22" d="M38.2,68.6c-0.2,0-0.3-0.1-0.3-0.1c0-0.2,0.3-0.1,0.3-0.3"/>
							<path class="st22" d="M31.4,70.6c0.1,0.3,0.2,0.6,0.4,0.9"/>
							<path class="st22" d="M31.1,70.7c0.1,0.2,0.3,0.6,0.4,0.8"/>
							<path class="st22" d="M30.6,70.6c0.1,0.1,0.4-0.1,0.5,0.1c0.1,0.1-0.1,0.2-0.3,0.3"/>
							<path class="st22" d="M31.6,70.2c0.1,0.1-0.3,0.2-0.2,0.4c0.1,0.1,0.3,0.1,0.4,0"/>
							<path class="st22" d="M37.9,68.5c0,0.2,0,0.6,0,0.8"/>
							<path class="st22" d="M39.5,68.6c0.2,0,0.3-0.1,0.3-0.1c0-0.2-0.3-0.1-0.3-0.3"/>
							<path class="st22" d="M46.3,70.6c-0.1,0.3-0.2,0.6-0.4,0.9"/>
							<path class="st22" d="M46.6,70.7c-0.1,0.2-0.3,0.6-0.4,0.8"/>
							<path class="st22" d="M47.1,70.6c-0.1,0.1-0.4-0.1-0.5,0.1c-0.1,0.1,0.1,0.2,0.3,0.3"/>
							<path class="st22" d="M46.1,70.2c-0.1,0.1,0.3,0.2,0.2,0.4c-0.1,0.1-0.3,0.1-0.4,0"/>
							<path class="st22" d="M39.8,68.5c0,0.2,0,0.6,0,0.8"/>
						</g>
					</g>
					<g>
						<g>
							<g>
								<polygon points="35,64.6 34.8,64.7 34.8,64.4 35,64.6 35,64.7 35.1,64.8 35.2,64.7 34.8,64.3 34.6,64.3 34.8,65 34.9,64.9 
									34.9,64.8 35,64.7 								"/>
							</g>
							<g>
								<polygon points="35.6,64.6 35.3,64.2 35.5,64.7 35.4,64.7 35.1,64.1 35.3,64 35.5,64.4 35.5,63.9 35.6,63.9 35.9,64.5 
									35.8,64.5 35.6,64.1 35.7,64.6 								"/>
							</g>
							<g>
								<polygon points="36.3,63.8 36,63.9 36.1,64 36.3,63.9 36.3,64 36.1,64.1 36.2,64.3 36.4,64.2 36.5,64.3 36.1,64.4 
									35.9,63.8 36.3,63.7 								"/>
							</g>
							<g>
								<path d="M36.7,63.9l0-0.2c0,0,0.1,0,0.1,0s0.1,0,0.1,0.1c0,0.1,0,0.1-0.1,0.1C36.8,63.9,36.7,63.9,36.7,63.9l0,0.1
									c0,0,0.1,0,0.1,0c0.1,0,0.1,0,0.1,0.1s0,0.1,0,0.1l0.1,0c0,0,0-0.1,0-0.2c0-0.1-0.1-0.1-0.1-0.1c0,0,0.1-0.1,0.1-0.2
									c0-0.1-0.1-0.2-0.2-0.1c-0.1,0-0.3,0.1-0.3,0.1l0.1,0.6l0.1,0L36.7,64L36.7,63.9z"/>
							</g>
							<g>
								<rect x="37.1" y="63.5" transform="matrix(0.9892 -0.1469 0.1469 0.9892 -8.9686 6.1556)" width="0.1" height="0.6"/>
							</g>
							<g>
								<path d="M37.8,63.6c0,0,0-0.1-0.1-0.1c-0.1,0-0.1,0.1-0.1,0.2c0,0.1,0.1,0.2,0.1,0.2c0.1,0,0.1-0.1,0.1-0.1h0.1
									c0,0.1-0.1,0.2-0.2,0.3c-0.1,0-0.2-0.1-0.3-0.3c0-0.2,0.1-0.3,0.2-0.4C37.8,63.5,37.9,63.6,37.8,63.6L37.8,63.6z"/>
							</g>
							<g>
								<path d="M39.4,63.6c0,0,0-0.1-0.1-0.1s-0.1,0.1-0.1,0.2s0.1,0.2,0.1,0.2c0.1,0,0.1-0.1,0.1-0.1h0.1c0,0.1-0.1,0.2-0.2,0.2
									c-0.1,0-0.2-0.1-0.2-0.3c0-0.2,0.1-0.3,0.3-0.3C39.4,63.4,39.5,63.5,39.4,63.6L39.4,63.6z"/>
							</g>
							<g>
								<polygon points="40.1,63.5 39.8,63.5 39.8,63.7 40,63.7 40,63.8 39.8,63.8 39.7,63.9 40,64 40,64.1 39.6,64 39.7,63.4 
									40.1,63.4 								"/>
							</g>
							<g>
								<polygon points="40.4,63.4 40.6,63.9 40.6,63.5 40.7,63.5 40.7,64.2 40.5,64.2 40.4,63.7 40.3,64.1 40.2,64.1 40.3,63.4 
																	"/>
							</g>
							<g>
								<polygon points="41,64.2 41.1,63.7 41,63.7 41,63.5 41.4,63.7 41.4,63.8 41.2,63.7 41.1,64.2 								"/>
							</g>
							<g>
								<polygon points="43,64.2 42.7,64.7 43,64.9 42.9,64.9 42.6,64.8 42.9,64.2 								"/>
							</g>
							<g>
								<polygon points="38.4,63.8 38.3,63.8 38.3,63.5 38.4,63.8 38.5,63.9 38.5,64 38.6,64 38.4,63.4 38.3,63.4 38.1,64 38.2,64 
									38.2,63.9 38.5,63.9 								"/>
							</g>
							<g>
								<polygon points="42.4,64.4 42.2,64.4 42.4,64.2 42.4,64.4 42.3,64.5 42.3,64.7 42.4,64.7 42.5,64 42.4,64 42,64.5 
									42.1,64.6 42.2,64.4 42.3,64.5 								"/>
							</g>
							<g>
								<path d="M41.6,64l0.1-0.2c0,0,0.1,0,0.1,0.1c0,0,0.1,0.1,0.1,0.1c0,0.1-0.1,0.1-0.1,0.1C41.7,64,41.6,64,41.6,64l0,0.1
									c0,0,0.1,0,0.1,0c0.1,0,0.1,0.1,0.1,0.1c0,0.1-0.1,0.1-0.1,0.1l0.1,0c0,0,0-0.1,0.1-0.2c0-0.1,0-0.1,0-0.1
									c0,0,0.1,0,0.1-0.1c0-0.1,0-0.2-0.1-0.2c-0.1,0-0.3-0.1-0.3-0.1l-0.2,0.6l0.1,0l0.1-0.2L41.6,64z"/>
							</g>
						</g>
						<g>
							<g>
								<path d="M32.3,71l0-0.2c0,0,0.1,0,0.2,0c0.1,0,0.1,0,0.1,0.1c0,0.1,0,0.1-0.1,0.1C32.4,71,32.3,71,32.3,71l0,0.1
									c0,0,0.1,0,0.1,0c0.1,0,0.1,0,0.1,0.1c0,0.1,0,0.2,0,0.2l0.1,0c0,0,0-0.1-0.1-0.2c0-0.1-0.1-0.1-0.1-0.1
									c0,0,0.1-0.1,0.1-0.2c0-0.1-0.1-0.2-0.2-0.2c-0.1,0-0.4,0.1-0.4,0.1l0.2,0.7l0.1,0l-0.1-0.3L32.3,71z"/>
							</g>
							<g>
								<polygon points="33.1,70.5 32.8,70.6 32.9,70.8 33.2,70.7 33.3,70.8 33,70.9 33,71.1 33.4,71 33.4,71.1 33,71.3 32.7,70.6 
									33.1,70.4 								"/>
							</g>
							<g>
								<path d="M33.5,70.6l-0.1-0.2c0,0,0.1,0,0.1-0.1s0.1,0,0.1,0s0,0.1,0,0.2C33.5,70.6,33.5,70.6,33.5,70.6L33.5,70.6
									c0.1,0.1,0.1,0,0.2,0c0.1-0.1,0.1-0.2,0-0.3c-0.1-0.1-0.2-0.1-0.3-0.1c-0.1,0.1-0.2,0.1-0.2,0.1l0.4,0.6l0.1-0.1L33.5,70.6
									L33.5,70.6z"/>
							</g>
							<g>
								<path d="M34.3,70.4c0.1-0.1,0.1-0.1,0-0.2c0-0.1-0.3-0.4-0.3-0.4l0.1-0.1c0,0,0.2,0.3,0.3,0.4S34.5,70.4,34.3,70.4
									c-0.1,0.2-0.2,0.1-0.3,0C34,70.4,33.8,70,33.8,70l0.1-0.1c0,0,0.2,0.4,0.3,0.4C34.2,70.4,34.2,70.5,34.3,70.4z"/>
							</g>
							<g>
								<path d="M34.9,69.9c0-0.1-0.1-0.1-0.1,0c0,0-0.1,0.1-0.1,0.1l0.1,0.1c0,0,0.1-0.1,0.1-0.1C34.9,69.9,34.9,69.9,34.9,69.9
									l0.1-0.1c0.1,0.1,0.1,0.2-0.1,0.3c-0.1,0.1-0.2,0.2-0.2,0.2l-0.4-0.6c0,0,0.1,0,0.2-0.1c0.1-0.1,0.2-0.1,0.3,0l-0.1,0.1
									c0,0-0.1-0.1-0.1,0c0,0-0.1,0.1-0.1,0.1l0.1,0.1c0,0,0.1-0.1,0.1-0.1s0-0.1,0-0.1l0.1-0.1c0,0.1,0.1,0.1,0,0.2
									c0.1,0,0.1,0,0.2,0.1L34.9,69.9z"/>
							</g>
							<g>
								<polygon points="35,69.1 35.3,69.7 35.6,69.5 35.6,69.6 35.3,69.9 34.9,69.2 								"/>
							</g>
							<g>
								<rect x="35.6" y="68.9" transform="matrix(0.8978 -0.4404 0.4404 0.8978 -26.8504 22.7772)" width="0.1" height="0.8"/>
							</g>
							<g>
								<path d="M36.3,68.8c0,0-0.1-0.1-0.2-0.1c-0.1,0-0.1,0.1-0.1,0.3s0.1,0.2,0.2,0.2c0.1,0,0.1-0.1,0.1-0.2l0.1,0
									c0.1,0.1,0,0.3-0.1,0.4c-0.1,0.1-0.3-0.1-0.4-0.3c-0.1-0.2,0-0.4,0.1-0.4c0.1-0.1,0.3,0,0.3,0.1H36.3z"/>
							</g>
							<g>
								<polygon points="36.8,68.9 36.8,68.6 36.9,68.9 36.8,68.9 36.8,69 37,69 37.1,69.1 37.2,69.1 36.8,68.4 36.7,68.4 
									36.6,69.2 36.8,69.2 36.8,69 								"/>
							</g>
							<g>
								<path d="M40.5,68.6c0-0.1,0-0.1-0.1-0.1c-0.1,0-0.2,0.1-0.2,0.2c0,0.1,0,0.3,0.1,0.3c0.1,0,0.1-0.1,0.1-0.1h0.1
									c0,0.1-0.1,0.3-0.3,0.2c-0.1,0-0.2-0.2-0.2-0.4c0-0.2,0.1-0.4,0.3-0.4c0.2,0,0.2,0.2,0.2,0.3H40.5z"/>
							</g>
							<g>
								<path d="M41,69.1c0.1,0,0.2-0.1,0.2-0.2c0-0.1,0-0.3-0.1-0.3c-0.1,0-0.2,0.1-0.2,0.2C40.9,68.9,40.9,69.1,41,69.1l0,0.1
									c-0.2-0.1-0.2-0.2-0.2-0.4s0.2-0.3,0.4-0.3c0.2,0.1,0.2,0.2,0.2,0.4c-0.1,0.2-0.2,0.3-0.4,0.3L41,69.1z"/>
							</g>
							<g>
								<path d="M42,69c0-0.1,0-0.1-0.1-0.1c-0.1,0-0.1,0-0.1,0s0,0.1,0.1,0.1c0.1,0.1,0.2,0.1,0.1,0.3c-0.1,0.1-0.2,0.2-0.3,0.1
									c-0.1-0.1-0.1-0.2-0.1-0.3l0.1,0.1c0,0.1,0,0.1,0.1,0.2c0.1,0,0.1,0,0.1,0c0-0.1,0-0.1-0.1-0.1c-0.2-0.1-0.2-0.2-0.1-0.3
									c0-0.1,0.1-0.2,0.3-0.1c0.2,0.1,0.2,0.2,0.1,0.3L42,69z"/>
							</g>
							<g>
								<polygon points="42.2,69.7 42.5,69.1 42.3,69 42.4,68.9 42.8,69.2 42.8,69.3 42.6,69.2 42.3,69.7 								"/>
							</g>
							<g>
								<rect x="43.9" y="70.5" transform="matrix(0.4843 -0.8749 0.8749 0.4843 -38.932 75.1412)" width="0.8" height="0.1"/>
							</g>
							<g>
								<path d="M44.9,70.8c0,0,0-0.1-0.1-0.2c-0.1,0-0.2,0-0.2,0.1c-0.1,0.1,0,0.3,0,0.3c0.1,0,0.1,0,0.2-0.1l0.1,0.1
									c-0.1,0.1-0.2,0.2-0.4,0.1c-0.1-0.1-0.2-0.2-0.1-0.4c0.1-0.2,0.3-0.3,0.4-0.2C45,70.6,45.1,70.7,44.9,70.8L44.9,70.8z"/>
							</g>
							<g>
								<path d="M38.4,69.2c0,0.1,0,0.2,0,0.2s0.1,0,0.1,0c0,0,0.2,0,0.2-0.2c0-0.2-0.1-0.2-0.1-0.3c0,0-0.1,0-0.1,0
									S38.4,69.1,38.4,69.2l-0.1,0c0-0.2,0.1-0.4,0.1-0.4c0.1,0,0.2,0,0.3,0c0.1,0,0.3,0.1,0.2,0.4c0,0.2-0.1,0.4-0.3,0.4
									c-0.1,0-0.3,0-0.3,0S38.3,69.3,38.4,69.2L38.4,69.2z"/>
							</g>
							<g>
								<polygon points="39.4,68.9 39.1,69 39.1,69.1 39.4,69.1 39.5,69.2 39.2,69.3 39.2,69.5 39.5,69.4 39.5,69.5 39.1,69.6 
									38.9,68.9 39.4,68.8 								"/>
							</g>
							<g>
								<path d="M43.8,70.3l0.1-0.2c0,0,0.1,0.1,0.1,0.1c0,0,0.1,0.1,0,0.1c0,0.1-0.1,0.1-0.1,0.1C43.9,70.3,43.8,70.3,43.8,70.3
									l-0.1,0.1c0,0,0.1,0,0.1,0.1c0.1,0,0.1,0.1,0,0.1c-0.1,0.1-0.1,0.1-0.1,0.1l0.1,0.1c0,0,0.1-0.1,0.1-0.2
									c0.1-0.1,0-0.1,0-0.2c0,0,0.1,0,0.2-0.1c0.1-0.1,0.1-0.2,0-0.3c-0.1-0.1-0.3-0.2-0.3-0.2l-0.4,0.6l0.1,0.1L43.8,70.3
									L43.8,70.3z"/>
							</g>
							<g>
								<polygon points="42.9,69.8 43.2,69.6 43,69.9 42.9,69.8 42.8,69.9 43,70 43,70.2 43,70.3 43.3,69.5 43.2,69.4 42.6,69.9 
									42.7,70 42.8,69.9 								"/>
							</g>
							<g>
								<polygon points="45.3,71.2 45.5,70.9 45.5,71.2 45.3,71.2 45.3,71.3 45.5,71.3 45.6,71.5 45.7,71.5 45.5,70.7 45.4,70.7 
									45.1,71.4 45.2,71.4 45.3,71.3 								"/>
							</g>
						</g>
					</g>
				</g>
			</g>
		</g>
	</g>
</g>
<circle class="st27" cx="76" cy="76" r="75"/>
</svg>
