<?xml version="1.0" encoding="utf-8"?>
<!-- Generator: Adobe Illustrator 24.2.3, SVG Export Plug-In . SVG Version: 6.00 Build 0)  -->
<svg version="1.1" id="Capa_1" xmlns:serif="http://www.serif.com/"
	 xmlns="http://www.w3.org/2000/svg" xmlns:xlink="http://www.w3.org/1999/xlink" x="0px" y="0px" viewBox="0 0 150 150"
	 style="enable-background:new 0 0 150 150;" xml:space="preserve">
<style type="text/css">
	.st0{fill-rule:evenodd;clip-rule:evenodd;fill:#F4793E;}
	.st1{fill-rule:evenodd;clip-rule:evenodd;fill:#3677BC;}
	.st2{fill:#FFD046;}
	.st3{fill-rule:evenodd;clip-rule:evenodd;fill:#FFD046;}
	.st4{fill:#F4793E;}
	.st5{fill:none;stroke:#515151;stroke-width:2;stroke-linecap:square;stroke-miterlimit:36;}
</style>
<path class="st0" d="M50,5.9v140.8c-29.1-9.9-50-37.7-50-70.4S20.9,15.8,50,5.9L50,5.9z"/>
<path class="st0" d="M120,16.7c18.3,13.5,30,35.2,30,59.6s-11.7,46.2-30,59.6C120,135.9,120,16.7,120,16.7z"/>
<path class="st1" d="M50,5.9c7.9-3.1,16.3-4.6,25-4.6c17,0,32.6,5.6,45,15.4v119.3c-12.4,9.7-28,15.4-45,15.4
	c-8.7,0-17.1-1.5-25-4.6V5.9L50,5.9z"/>
<path class="st2" d="M19.6,86.9c1.5,4.4-1.2,6-3.9,6.8c-2.7,0.8-6.2,3.2-3.2,6.9C15.7,104.5,29,96.5,19.6,86.9"/>
<path class="st2" d="M10.5,100c-1.5-4.4,1.3-6.4,4-7.1c2.7-0.8,6.2-2.7,3-6.3C13.7,82.1,0,90.5,10.5,100"/>
<path id="bandera-mongolia" class="st3" d="M0.1,73.4h4.7v29.2C1.7,94.4,0,85.6,0,76.3C0,75.3,0,74.4,0.1,73.4L0.1,73.4z"/>
<path class="st2" d="M15,68.3c-2.9,0-6.3-0.8-8.5-4.5c1.1,4.5,4.5,7.7,8.5,7.7"/>
<path class="st2" d="M22.5,108.2L15,113l-7.5-4.8H22.5z"/>
<rect x="6.9" y="103.1" class="st3" width="16.1" height="3"/>
<rect x="6.9" y="80" class="st3" width="16.1" height="3"/>
<rect x="25.2" y="73.4" class="st3" width="7.7" height="39.1"/>
<path class="st2" d="M22,73.3l-7,4.7l-7-4.7H22L22,73.3z"/>
<path class="st2" d="M15,68.3c2.9,0,6.3-0.8,8.5-4.5c-1.1,4.5-4.5,7.7-8.5,7.7"/>
<path class="st2" d="M15,66.6c3.5,0,6.3-2.8,6.3-6.3c0-3.5-2.8-6.3-6.3-6.3c-3.5,0-6.3,2.8-6.3,6.3C8.7,63.8,11.5,66.6,15,66.6"/>
<path class="st2" d="M15.2,39.4c-0.6,0.9-0.5,1.9-0.3,2.6c0.2,0.6,0.2,1-0.5,1.8c-0.7,0.8-0.8,1.8-0.2,2.5c0.6,0.7,0.5,1.9-0.3,2
	c-0.8,0.1-1.6-0.8-1.2-1.7c0.3-0.5,0.2-1.2,0-1.5c-0.1-0.3,0-0.8,0.2-1.1c0.1-0.3,0.1-0.7,0.1-0.9c0-0.2-0.2-0.2-0.4,0.1
	c-0.4,0.6-0.5,0.9-0.3,1.3c0.1,0.3-0.1,0.8-0.5,1.3c-1.4,1.9-0.3,5.6,3.2,5.6s4.5-3,4-4.3c-0.4-0.9-0.8-1.7-0.7-2.5
	c0-0.8-0.3-1.3-0.6-1.7c-0.3-0.4-0.4-0.3-0.3,0.3c0.2,0.6,0.2,1.1,0,1.4c-0.2,0.3-0.2,1,0.2,1.4c0.3,0.5,0,1.5-0.8,1.5
	c-0.8,0-1.5-0.8-1-2.2c0.5-1.3,0.7-3,0.2-3.7c-0.5-0.8-0.8-1.6-0.6-2C15.5,39.2,15.3,39.1,15.2,39.4"/>
<path class="st4" d="M15,87.5c-2.3,0-2.2,3.1,0,3.1C17.2,90.6,17.3,87.5,15,87.5"/>
<path class="st4" d="M15,96c-2.3,0-2.2,3.1,0,3.1C17.2,99.1,17.3,96,15,96"/>
<circle class="st5" cx="75" cy="76.3" r="75"/>
</svg>
