<?xml version="1.0" encoding="utf-8"?>
<!-- Generator: Adobe Illustrator 24.2.3, SVG Export Plug-In . SVG Version: 6.00 Build 0)  -->
<svg version="1.1" id="Capa_1" xmlns:serif="http://www.serif.com/"
	 xmlns="http://www.w3.org/2000/svg" xmlns:xlink="http://www.w3.org/1999/xlink" x="0px" y="0px" viewBox="0 0 152 152"
	 style="enable-background:new 0 0 152 152;" xml:space="preserve">
<style type="text/css">
	.st0{fill-rule:evenodd;clip-rule:evenodd;fill:#ED1C24;}
	.st1{fill:#00A650;}
	.st2{fill:none;stroke:#515151;stroke-width:2;stroke-linecap:square;stroke-miterlimit:37.5;}
</style>
<path class="st0" d="M76,151c-41.7-0.3-75-33.8-75-75C1,34.6,34.6,1,76,1s75,33.6,75,75C151,117.2,117.7,150.7,76,151z"/>
<path class="st1" d="M94.1,97.5l-12.3-8.9l7.6-5.5L94.1,97.5z M78.6,86.2l-9.6-7l3.7-11.3h11.9l3.7,11.3L78.6,86.2L78.6,86.2z
	 M63,97.5l4.7-14.4l7.6,5.5L63,97.5z M53.4,68h15.1l-2.9,8.9L53.4,68z M78.5,49.7l4.7,14.4h-9.4L78.5,49.7z M103.7,68l-12.3,8.9
	L88.5,68H103.7z M115.5,64.1H87.3l-8.7-26.9l-8.7,26.9H41.6l22.9,16.6l-8.7,26.8L78.6,91l22.8,16.6l-8.7-26.9L115.5,64.1z"/>
<circle class="st2" cx="76" cy="76" r="75"/>
</svg>
