<?xml version="1.0" encoding="utf-8"?>
<!-- Generator: Adobe Illustrator 24.2.3, SVG Export Plug-In . SVG Version: 6.00 Build 0)  -->
<svg version="1.1" id="Capa_1" xmlns:serif="http://www.serif.com/"
	 xmlns="http://www.w3.org/2000/svg" xmlns:xlink="http://www.w3.org/1999/xlink" x="0px" y="0px" viewBox="0 0 152 152"
	 style="enable-background:new 0 0 152 152;" xml:space="preserve">
<style type="text/css">
	.st0{fill-rule:evenodd;clip-rule:evenodd;fill:#0093C2;}
	.st1{fill-rule:evenodd;clip-rule:evenodd;fill:#2CB457;}
	.st2{fill-rule:evenodd;clip-rule:evenodd;fill:#ED174C;}
	.st3{fill:#FFFFFF;}
	.st4{fill:none;stroke:#515151;stroke-width:2;stroke-linecap:square;stroke-miterlimit:36;}
</style>
<path class="st0" d="M76,1c32.7,0.2,60.3,20.9,70.4,50H5.6C15.5,22.1,43,1.2,76,1L76,1z"/>
<path class="st1" d="M146.4,101c-9.9,29.1-37.7,50-70.4,50s-60.5-20.9-70.4-50H146.4z"/>
<path class="st2" d="M146.4,51c3.1,7.9,4.6,16.3,4.6,25s-1.5,17.1-4.6,25H5.6C2.5,93.1,1,84.7,1,76s1.5-17.1,4.6-25H146.4z"/>
<path class="st3" d="M98.5,63.5l2.3,6.7l6.5-3.1l-3,6.4L111,76l-6.7,2.3l3,6.5l-6.4-3.1l-2.4,6.7l-2.4-6.7l-6.4,3.1l3-6.5L86.1,76
	l6.7-2.4l-3.1-6.4l6.5,3.1L98.5,63.5z"/>
<path class="st3" d="M51,76c0,12.4,10.1,22.5,22.5,22.5c7.3,0,13.7-3.4,17.8-8.8c-3.3,3.1-7.8,5-12.8,5c-10.3,0-18.7-8.4-18.7-18.7
	s8.4-18.7,18.7-18.7c4.9,0,9.4,1.9,12.8,5c-4.1-5.4-10.6-8.8-17.8-8.8C61.1,53.5,51,63.6,51,76"/>
<circle class="st4" cx="76" cy="76" r="75"/>
</svg>
