<?xml version="1.0" encoding="utf-8"?>
<!-- Generator: Adobe Illustrator 24.2.3, SVG Export Plug-In . SVG Version: 6.00 Build 0)  -->
<svg version="1.1" id="Capa_1" xmlns:serif="http://www.serif.com/"
	 xmlns="http://www.w3.org/2000/svg" xmlns:xlink="http://www.w3.org/1999/xlink" x="0px" y="0px" viewBox="0 0 152 152"
	 style="enable-background:new 0 0 152 152;" xml:space="preserve">
<style type="text/css">
	.st0{clip-path:url(#SVGID_2_);}
	.st1{fill:#006188;stroke:#000000;stroke-width:0.25;}
	.st2{fill:#FFFFFF;stroke:#000000;stroke-width:0.25;}
	.st3{fill:#006188;stroke:#000000;stroke-width:6.250000e-02;}
	.st4{fill:#FFFFFF;stroke:#000000;stroke-width:6.250000e-02;}
	.st5{fill:#00633A;stroke:#000000;stroke-width:6.250000e-02;}
	.st6{fill:#DB2F34;stroke:#000000;stroke-width:6.250000e-02;}
	.st7{fill:#FFD400;stroke:#000000;stroke-width:6.250000e-02;}
	.st8{fill:none;stroke:#000000;stroke-width:6.250000e-02;}
	.st9{fill:#B06510;stroke:#000000;stroke-width:6.250260e-02;stroke-miterlimit:4.0002;}
	.st10{fill:#B06510;stroke:#000000;stroke-width:6.250317e-02;stroke-miterlimit:4.0002;}
	.st11{fill:#B06510;stroke:#000000;stroke-width:6.249400e-02;stroke-miterlimit:3.9996;}
	.st12{fill:#FFFFFF;}
	.st13{fill:#FFD400;}
	.st14{fill:#006188;}
	.st15{fill:#FFEC00;}
	.st16{fill:#D7D300;stroke:#000000;stroke-width:6.250000e-02;}
	.st17{fill:#FCC246;}
	.st18{fill:#00633A;}
	.st19{fill:#610C53;}
	.st20{fill:#DB2F34;}
	.st21{fill:none;stroke:#515151;stroke-width:2;stroke-linecap:square;stroke-miterlimit:1.5;}
</style>
<g>
	<g>
		<g>
			<defs>
				<circle id="SVGID_1_" cx="76" cy="76" r="75"/>
			</defs>
			<clipPath id="SVGID_2_">
				<use xlink:href="#SVGID_1_"  style="overflow:visible;"/>
			</clipPath>
			<g class="st0">
				<g>
					<rect x="-56.9" y="101.2" class="st1" width="265.9" height="50"/>
				</g>
				<rect x="-56.9" y="1.1" class="st1" width="265.9" height="50"/>
				<rect x="-56.9" y="51.2" class="st2" width="265.9" height="50"/>
				<g>
					<path class="st3" d="M76,60.3c-1.3,0.6-0.5,2.3-1.5,3.5c-0.5,0.7-0.6,3.4-0.5,4.6l5.4,1.4c-0.2-2.5-1.4-4.3-1.7-6.1
						C77.4,61.7,76.4,61.2,76,60.3z"/>
					<path class="st3" d="M78.2,72.9l8.9-9.4c0.2,3.6-0.3,8.2-1.5,10.4l5.4-3.2c-1.1,5.5-2.8,9.7-5.6,12.1c-0.9,0.9-5.2,3.1-7.2,2.1
						c-1.1-0.5-1.9-1.3-2.3-2.2c-0.4,0.9-1.2,1.7-2.3,2.2c-2,1-6.3-1.3-7.3-2.1c-2.8-2.5-4.5-6.6-5.6-12.1l5.4,3.2
						c-1.2-2.2-1.7-6.8-1.5-10.4l8.9,9.4H78.2z"/>
					<path class="st3" d="M76,81.7c-0.1,0.8-0.7,2.7-1.2,3.5c-0.5,0.9,0.4,1.1,0.6,1.6c0.1,0.5,0.4,0.9,1.1,1
						c-0.1-0.6,0.2-1.2,0.6-1.4c0.4-0.2,0.8-0.3,0.8-0.7c0-0.4,0.5-0.8-0.1-1.5C77,83.7,76,82.8,76,81.7z"/>
				</g>
				<g>
					<path class="st4" d="M76.6,65.7c-0.4-1.4,1.2-2.9,0.3-4.2c0.4,0.5,0.7,1.1,0.9,2.1c0.1,0.5,0.2,0.9,0.4,1.4
						c0.3,0.9-0.5,1.9-0.1,3.5C77.5,68,76.7,66.4,76.6,65.7z"/>
					<path class="st4" d="M80.7,74.4c1-1.4,1.4-4.4,1.3-5.4l2.6-2.8c0.6,3.2-0.8,7.7-2.1,9.9l1,1.1c0.6-0.7,1-1.6,0.9-2.6l3.1-1.9
						c0,3-0.9,5.6-3,7L80.7,74.4z"/>
					<path class="st4" d="M71.3,74.4c-1-1.4-1.4-4.4-1.3-5.4l-2.6-2.8c-0.6,3.2,0.8,7.7,2.1,9.9l-1,1.1c-0.6-0.7-1-1.6-0.9-2.6
						l-3.1-1.9c0,3,0.9,5.6,3,7L71.3,74.4z"/>
					<path class="st4" d="M82.1,82.1C80,84.7,78.7,85,76,82.6c-2.7,2.4-4,2.1-6.1-0.5H82.1z"/>
					<path class="st4" d="M76.4,87.9c-0.6-0.1-0.9-0.4-0.9-1.5c-0.1-1.5,0.6-1.7,0.7-2.2c0.3,0.2,0.1,0.4,0.5,0.8
						c0.4,0.4,0.5,1.2,0,1.8C76.3,87.3,76.4,87.5,76.4,87.9z"/>
				</g>
				<g>
					<g>
						<path class="st5" d="M61.7,66.2c0.4-0.6,0.7-1.2,1.1-1.5c-0.3,0.4-0.9,1.4-1,1.6"/>
						<path class="st5" d="M59.8,69.6c0.1-0.8,0.1-1.9,0-2.4c0.1,0.4,0.3,1.8,0.2,2.4"/>
						<path class="st5" d="M58.2,75.4c0.2-1.1,0.4-2,1.1-2.6c-0.4,0.6-0.7,1.1-0.9,2.8"/>
						<path class="st5" d="M58.1,74.8c-0.1-0.8-0.4-2.2-0.7-2.7c0.5,0.9,0.8,1.5,0.8,2.5"/>
						<path class="st5" d="M59,80.4c0.1-1.1,0.1-2,0.8-2.7c-0.3,0.6-0.6,1.2-0.6,2.9"/>
						<path class="st5" d="M58.8,79.7c-0.3-0.6-0.7-1.1-1.1-1.4c0.4,0.2,1,0.9,1.1,1.2"/>
						<path class="st5" d="M63.8,89c-0.7-0.1-1.9-0.1-2.5,0.2c0.5-0.2,2.1-0.2,2.6,0"/>
						<path class="st5" d="M65,89.9c-0.1-0.7-0.6-1.6-0.9-1.9c0.4,0.2,0.8,1.1,1.1,1.9"/>
						<path class="st5" d="M61.5,86.4c-0.3-1.2-0.4-2.1-0.3-3c0,0.7,0.1,2.3,0.5,3"/>
						<path class="st5" d="M61.2,85.9c-0.5-0.9-1.2-1.5-1.8-1.7c0.6,0.2,1.3,0.7,1.7,1.4"/>
						<path class="st5" d="M59.8,69.7c0.3-0.3,0.8-0.8,1.1-1c-0.2,0.2-0.9,0.9-1,1.1"/>
					</g>
					<g>
						<path class="st5" d="M59.7,70.3c0.4-1.2,1.7-0.8,2.1-1.6c0.2,0.9-1.4,2.7-2.6,3.4C59.3,71.7,59.5,70.7,59.7,70.3z"/>
						<path class="st5" d="M60.7,67.9c0.5-1,1.2-2.1,2.6-2.6C63,66.2,62.4,67.9,60.7,67.9z"/>
						<path class="st5" d="M62.3,64.4c-1,0.7-1.7,2-1.6,3.4c-0.1,0.3-0.5,1-0.9,1.4c0.6-0.4,0.9-0.8,1.1-1c1.1,0.1,2.6-0.3,3-2
							c-1,0-1.6,1.7-3,1.8C62.4,66.5,61.8,64.7,62.3,64.4z"/>
						<path class="st5" d="M58.6,72.5c-0.5-0.8-1-2.2-0.8-2.8c0.2-0.6,0.7-1.4,0.6-1.8c0.4,0.2,0.2,1.1,0.8,2
							C59.4,70.4,59.2,71.3,58.6,72.5z"/>
						<path class="st5" d="M59,80.6c-0.7-2.5-1.3-5.1-0.8-6.8c0.3-1,0.3-1.2,0.2-1.7c-0.1-0.5-0.1-1.4,0.3-1.9
							c0.3-0.5,0.6-1.7,0.6-2.1c0.8,0.4,1.4,2.3,0.7,3.1c-0.6,0.8-1.2,1.3-1.5,2.6c-0.3,1.4,0,4.1,0.9,7"/>
						<path class="st5" d="M58.4,77.7c-2.9-1.5-2.2-3.5-2.6-4.3c-0.3-0.6,0-0.4,0.3-0.2C57.2,74,58.2,76.3,58.4,77.7z"/>
						<path class="st5" d="M58.7,78.4c0.3-1.5,2.3-1.3,2.4-5C59.9,74.1,57.9,76.4,58.7,78.4z"/>
						<path class="st5" d="M58.7,78.4c-0.1-1.3,0.4-1.7,0.8-2.2c0.4-0.5,0.7-1.5,0.7-2.8c0-0.5-0.3-0.5-0.4-0.1
							c-0.3,0.5-0.7,0.9-1.1,1.4c-0.6,0.6-0.6,2-0.1,3.6"/>
						<path class="st5" d="M58.4,77.6c-0.3-1-0.8-1.1-1.2-1.6c-0.4-0.5-0.9-1.4-0.8-2c0.2-0.6,0.3-1.1,0.3-1.6
							c-0.1-0.4,0.2-0.4,0.5,0.2c0.3,0.6,1.2,2.6,1.3,4.7"/>
						<path class="st5" d="M60.1,82.6c-0.5-1.2-0.9-2.5-0.3-3.8c0.7-1.3,0.7-1.4,0.9-0.5C61,79.2,61,81.6,60.1,82.6z"/>
						<path class="st5" d="M60.5,84c-0.6-1-1.8-1-2.4-1.4c-0.6-0.4-1.8-1.6-2-2.9c-0.3-1.3,0.2-1,1.1-0.5c1.1,0.6,2.5,1.9,3.2,4.4"
							/>
						<path class="st5" d="M60.7,84.4c-0.3-1.4,0.1-1.8,0.4-2.1c0.4-0.5,0.3-1.4,0.7-1.8c0.3-0.5,0.4-1.1,0.4-1.6
							c0-0.4-0.4-0.3-0.8,0.3c-0.4,0.6-0.6,1.1-0.9,1.8s-0.2,2,0,2.7"/>
						<path class="st5" d="M61.9,86.6c-0.6-1.1-1.5-3.2-1.6-4c-0.1-0.9-0.6-2-1.2-2.5c-0.6-0.4-1.4-0.9-1.6-1.4
							c-0.3-0.6-0.4-0.3-0.3,0.4c0.1,0.7,0.1,1.5,0.9,2.2c2.4,2.3,2.7,3.8,3.5,5.5"/>
						<path class="st5" d="M66.6,91c-0.7-1-2.3-2.1-3.6-1.6C63.5,89.8,63.9,90.9,66.6,91z"/>
						<path class="st5" d="M65.2,90c-1-0.8-2.3-1.9-1.8-2.5c0.5-0.6,1-1.1,1.1-1.9c0.1-0.8,0.5-1.9,0.2-2.7C64.3,82,64.2,82,64,83
							c-0.4,2.2-2.3,3-1.4,5c0.4,1,1.3,1.1,1.8,1.6"/>
						<path class="st5" d="M63.5,88.7c-0.6-0.9-0.9-1.4-0.6-2.2c0.4-1.2,0.4-2.6,0.1-3.8s-0.7-0.6-0.8,0.1c-0.1,1-0.8,1.2-0.7,1.8
							c0.1,0.6-0.6,1.8,0.1,2.7C62.3,88.2,63.1,88.4,63.5,88.7z"/>
						<path class="st5" d="M63.1,88.5c-0.6-0.4-0.9-0.8-1-1.4c-0.2-0.8-0.6-1.4-1.7-1.9c-0.4-0.2-1.6-0.5-1.9-1.1
							C58.7,85.9,60.3,87.8,63.1,88.5z"/>
						<path class="st5" d="M65.5,90c-1.1-1.3-4-2.1-4.8-3.3c-0.5-0.8-1.6-1-2.8-0.9c0.7,0.4,0.6,1.2,1.4,1.9c0.9,0.7,2.3,0.9,3.1,1
							c0.8,0.1,2.3,1.1,3.2,2"/>
						<path class="st5" d="M73.5,93.6c-0.8-0.7-4.1-2-6.1-0.4C68.2,93.7,72.1,94.5,73.5,93.6z"/>
						<path class="st5" d="M68.7,92.2c-0.6-0.4-0.7-0.6-0.7-1.5c0-0.9-0.3-2-0.8-2.5c-0.5-0.5-1.3-1.5-1.4-2.1
							c-0.1-0.6-0.1-0.4-0.3,0.2C65.2,87.9,66.3,91.1,68.7,92.2z"/>
						<path class="st5" d="M67.5,91.9c-1.1-1-2-1.6-2.8-1.5c-0.8,0.1-1.5,0.1-2.1-0.1c-0.6-0.1-0.4,0.3,0.3,0.6
							c0.7,0.4,2.6,1.5,4.5,1.2"/>
						<path class="st5" d="M68.8,92.2c-0.9-0.4-1.1-1-1.2-1.5c-0.1-0.8-0.9-1.1-1.1-1.7c-0.2-0.6-1.1-1.6-1.6-2.1
							c-0.6-0.5-0.3,0.2-0.3,0.9c0.1,0.6,0.4,1.1,0.4,1.8c0,1,1.7,2.4,2.9,2.6"/>
						<path class="st5" d="M72,93.5c-1.4-1.6-4.4-1-5.3-0.6c-0.9,0.4-2.1,0.2-2.5-0.1c-0.4-0.3-0.9-0.5-1.5-0.7
							c-0.8-0.3-0.3-0.5,0.3-0.4c0.5,0.1,1.4,0.2,2.1,0.1c0.7-0.1,1.3-0.2,1.7,0c0.4,0.2,1.1,0.3,2.1,0.3c1-0.1,2.3,0.4,3.1,1.1"/>
						<path class="st5" d="M72.3,92.5c-0.9-1.8-2.4-3.5-3.9-4.1C68.6,90,70.3,92.3,72.3,92.5z"/>
						<path class="st5" d="M73.9,93.6c-1.2-0.4-1.4-1.6-2.4-2.1c-1.4-0.8-1.9-2.4-1.9-3.4c0.5,0.1,1.4,0.4,1.6,0.9
							c0.2,0.6,0.7,0.9,1.2,1.3c0.5,0.4,0.8,1.3,0.9,2.2c0,0.3,0,0.7,0.7,0.9"/>
						<path class="st5" d="M74.3,93.7c-0.8,0-1.4,0.2-1.9,0.6c-1.1,1-1.9,0.6-2.6,1c-1,0.6-1.6-0.4-2.1-0.1c0.9-0.7,2.4-1.4,3.9-1.5
							c1.5-0.1,1.7-0.3,2.8-0.2"/>
						<path class="st5" d="M74.8,93.6c-1.1-0.2-1.6-0.2-2.1-1c-0.5-0.8-1.6-1-2-1.7c-0.4-0.7-1.7-0.5-2-1.1
							c-0.3-0.6-0.5-0.3-0.3,0.3c0.3,0.6,1.1,2.2,2.4,2.8s1.6,0.2,2.1,0.5c0.5,0.4,1.5,0.4,2,0.4"/>
						<path class="st5" d="M75.3,93.6c-1.2-0.3-2.9,0.1-3.7-0.2c-0.8-0.3-2.5-0.6-3-0.2c-0.5,0.4-1,0.6-1.4,0.7
							c-0.3,0.1-0.4,0.4,0.4,0.3c0.9,0,1.6,0.1,2,0.2c0.4,0.1,1.6,0.1,2.1-0.2c0.5-0.3,2.2-0.6,3-0.2c0.9,0.4,2,0.1,2.9,0.9
							c1.4,1.1,3.5,0.9,4,1.6c0.1,0.1,0.6,0.4,1,0.2c0.4-0.2,0.3-0.6-0.3-0.8c-1.4-0.6-4.1-1.2-5-1.7C76.6,93.7,76.1,93.7,75.3,93.6
							z"/>
					</g>
					<g>
						<path class="st6" d="M62.9,64.3c-0.4,0-0.4,0.7,0,0.7C63.3,64.9,63.3,64.3,62.9,64.3z"/>
						<path class="st6" d="M59.8,66.8c-0.4,0-0.4,0.7,0,0.7C60.3,67.5,60.3,66.8,59.8,66.8z"/>
						<path class="st6" d="M59.3,72.4c-0.4,0-0.4,0.7,0,0.7C59.7,73.1,59.7,72.4,59.3,72.4z"/>
						<path class="st6" d="M57.4,71.6c-0.4,0-0.4,0.7,0,0.7C57.9,72.2,57.9,71.6,57.4,71.6z"/>
						<path class="st6" d="M59.7,77.3c-0.4,0.1-0.4,0.7,0.1,0.7C60.3,77.9,60.2,77.3,59.7,77.3z"/>
						<path class="st6" d="M57.8,77.9c-0.4,0.1-0.4,0.7,0.1,0.7C58.3,78.5,58.2,77.8,57.8,77.9z"/>
						<path class="st6" d="M61.3,88.8c-0.4,0.1-0.4,0.7,0.1,0.7C61.8,89.5,61.7,88.8,61.3,88.8z"/>
						<path class="st6" d="M64,87.7c-0.4,0.1-0.4,0.7,0.1,0.7C64.5,88.3,64.5,87.7,64,87.7z"/>
						<path class="st6" d="M61.2,83c-0.4,0.1-0.4,0.7,0.1,0.7C61.7,83.6,61.7,82.9,61.2,83z"/>
						<path class="st6" d="M59.4,83.8c-0.4,0.1-0.4,0.7,0.1,0.7C59.9,84.4,59.9,83.7,59.4,83.8z"/>
						<path class="st6" d="M61,68.3c-0.4,0-0.4,0.7,0,0.7C61.4,69,61.4,68.3,61,68.3z"/>
					</g>
					<g>
						<path class="st5" d="M90.3,66.2c-0.4-0.6-0.7-1.2-1.1-1.5c0.3,0.4,0.9,1.4,1,1.6"/>
						<path class="st5" d="M92.2,69.6c-0.1-0.8-0.1-1.9,0-2.4c-0.1,0.4-0.3,1.8-0.2,2.4"/>
						<path class="st5" d="M93.8,75.4c-0.2-1.1-0.4-2-1.1-2.6c0.4,0.6,0.7,1.1,0.9,2.8"/>
						<path class="st5" d="M93.9,74.8c0.1-0.8,0.4-2.2,0.7-2.7c-0.5,0.9-0.8,1.5-0.8,2.5"/>
						<path class="st5" d="M93.1,80.4c-0.1-1.1-0.1-2-0.8-2.7c0.3,0.6,0.6,1.2,0.6,2.9"/>
						<path class="st5" d="M93.2,79.7c0.3-0.6,0.7-1.1,1.1-1.4c-0.4,0.2-1,0.9-1.1,1.2"/>
						<path class="st5" d="M88.3,89c0.7-0.1,1.9-0.1,2.5,0.2c-0.5-0.2-2.1-0.2-2.6,0"/>
						<path class="st5" d="M87,89.9c0.1-0.7,0.6-1.6,0.9-1.9c-0.4,0.2-0.8,1.1-1.1,1.9"/>
						<path class="st5" d="M90.6,86.4c0.3-1.2,0.4-2.1,0.3-3c0,0.7-0.1,2.3-0.5,3"/>
						<path class="st5" d="M90.8,85.9c0.5-0.9,1.2-1.5,1.8-1.7c-0.6,0.2-1.3,0.7-1.7,1.4"/>
						<path class="st5" d="M92.2,69.7c-0.3-0.3-0.8-0.8-1.1-1c0.2,0.2,0.9,0.9,1,1.1"/>
					</g>
					<g>
						<path class="st5" d="M92.4,70.3c-0.4-1.2-1.7-0.8-2.1-1.6c-0.2,0.9,1.4,2.7,2.6,3.4C92.7,71.7,92.5,70.7,92.4,70.3z"/>
						<path class="st5" d="M91.3,67.9c-0.5-1-1.2-2.1-2.6-2.6C89.1,66.2,89.6,67.9,91.3,67.9z"/>
						<path class="st5" d="M89.8,64.4c1,0.7,1.7,2,1.6,3.4c0.1,0.3,0.5,1,0.9,1.4c-0.6-0.4-0.9-0.8-1.1-1c-1.1,0.1-2.6-0.3-3-2
							c1,0,1.6,1.7,3,1.8C89.6,66.5,90.3,64.7,89.8,64.4z"/>
						<path class="st5" d="M93.5,72.5c0.5-0.8,1-2.2,0.8-2.8c-0.2-0.6-0.7-1.4-0.6-1.8c-0.4,0.2-0.2,1.1-0.8,2
							C92.6,70.4,92.8,71.3,93.5,72.5z"/>
						<path class="st5" d="M93.1,80.6c0.7-2.5,1.3-5.1,0.8-6.8c-0.3-1-0.3-1.2-0.2-1.7c0.1-0.5,0.1-1.4-0.3-1.9
							c-0.3-0.5-0.6-1.7-0.6-2.1c-0.8,0.4-1.4,2.3-0.7,3.1c0.6,0.8,1.2,1.3,1.5,2.6c0.3,1.4,0,4.1-0.9,7"/>
						<path class="st5" d="M93.6,77.7c2.9-1.5,2.2-3.5,2.6-4.3c0.3-0.6,0-0.4-0.3-0.2C94.8,74,93.8,76.3,93.6,77.7z"/>
						<path class="st5" d="M93.4,78.4c-0.3-1.5-2.3-1.3-2.4-5C92.1,74.1,94.1,76.4,93.4,78.4z"/>
						<path class="st5" d="M93.4,78.4c0.1-1.3-0.4-1.7-0.8-2.2c-0.4-0.5-0.7-1.5-0.7-2.8c0-0.5,0.3-0.5,0.4-0.1
							c0.3,0.5,0.7,0.9,1.1,1.4c0.6,0.6,0.6,2,0.1,3.6"/>
						<path class="st5" d="M93.7,77.6c0.3-1,0.8-1.1,1.2-1.6c0.4-0.5,0.9-1.4,0.8-2c-0.2-0.6-0.3-1.1-0.3-1.6
							c0.1-0.4-0.2-0.4-0.5,0.2c-0.3,0.6-1.2,2.6-1.3,4.7"/>
						<path class="st5" d="M91.9,82.6c0.5-1.2,0.9-2.5,0.3-3.8c-0.7-1.3-0.7-1.4-0.9-0.5C91,79.2,91.1,81.6,91.9,82.6z"/>
						<path class="st5" d="M91.5,84c0.6-1,1.8-1,2.4-1.4c0.6-0.4,1.8-1.6,2-2.9c0.3-1.3-0.2-1-1.1-0.5c-1.1,0.6-2.5,1.9-3.2,4.4"/>
						<path class="st5" d="M91.3,84.4c0.3-1.4-0.1-1.8-0.4-2.1c-0.4-0.5-0.3-1.4-0.7-1.8C90,80,89.9,79.4,90,78.9
							c0-0.4,0.4-0.3,0.8,0.3c0.4,0.6,0.6,1.1,0.9,1.8c0.2,0.7,0.2,2,0,2.7"/>
						<path class="st5" d="M90.1,86.6c0.6-1.1,1.5-3.2,1.6-4c0.1-0.9,0.6-2,1.2-2.5c0.6-0.4,1.4-0.9,1.6-1.4
							c0.3-0.6,0.4-0.3,0.3,0.4c-0.1,0.7-0.1,1.5-0.9,2.2c-2.4,2.3-2.7,3.8-3.5,5.5"/>
						<path class="st5" d="M85.4,91c0.7-1,2.3-2.1,3.6-1.6C88.5,89.8,88.1,90.9,85.4,91z"/>
						<path class="st5" d="M86.8,90c1-0.8,2.3-1.9,1.8-2.5s-1-1.1-1.1-1.9c-0.1-0.8-0.5-1.9-0.2-2.7C87.7,82,87.8,82,88,83
							c0.4,2.2,2.3,3,1.4,5c-0.4,1-1.3,1.1-1.8,1.6"/>
						<path class="st5" d="M88.5,88.7c0.6-0.9,0.9-1.4,0.6-2.2c-0.4-1.2-0.4-2.6-0.1-3.8c0.3-1.2,0.7-0.6,0.8,0.1
							c0.1,1,0.8,1.2,0.7,1.8c-0.1,0.6,0.6,1.8-0.1,2.7C89.7,88.2,89,88.4,88.5,88.7z"/>
						<path class="st5" d="M88.9,88.5c0.6-0.4,0.9-0.8,1-1.4c0.2-0.8,0.6-1.4,1.7-1.9c0.4-0.2,1.6-0.5,1.9-1.1
							C93.4,85.9,91.8,87.8,88.9,88.5z"/>
						<path class="st5" d="M86.6,90c1.1-1.3,4-2.1,4.8-3.3c0.5-0.8,1.6-1,2.8-0.9c-0.7,0.4-0.6,1.2-1.5,1.9c-0.9,0.7-2.3,0.9-3.1,1
							c-0.8,0.1-2.3,1.1-3.2,2"/>
						<path class="st5" d="M78.6,93.6c0.8-0.7,4.1-2,6.1-0.4C83.8,93.7,79.9,94.5,78.6,93.6z"/>
						<path class="st5" d="M83.3,92.2c0.6-0.4,0.7-0.6,0.7-1.5c0-0.9,0.3-2,0.8-2.5c0.5-0.5,1.3-1.5,1.4-2.1
							c0.1-0.6,0.1-0.4,0.3,0.2C86.8,87.9,85.7,91.1,83.3,92.2z"/>
						<path class="st5" d="M84.5,91.9c1.1-1,2-1.6,2.8-1.5c0.8,0.1,1.5,0.1,2.1-0.1c0.6-0.1,0.4,0.3-0.3,0.6
							c-0.7,0.4-2.6,1.5-4.5,1.2"/>
						<path class="st5" d="M83.2,92.2c0.9-0.4,1.1-1,1.2-1.5c0.1-0.8,0.9-1.1,1.1-1.7s1.1-1.6,1.6-2.1c0.6-0.5,0.3,0.2,0.3,0.9
							c-0.1,0.6-0.4,1.1-0.4,1.8c0,1-1.7,2.4-2.9,2.6"/>
						<path class="st5" d="M80.1,93.5c1.4-1.6,4.4-1,5.3-0.6c0.9,0.4,2.1,0.2,2.5-0.1c0.4-0.3,0.9-0.5,1.5-0.7
							c0.8-0.3,0.3-0.5-0.3-0.4c-0.5,0.1-1.4,0.2-2.1,0.1c-0.7-0.1-1.3-0.2-1.7,0c-0.4,0.2-1.1,0.3-2.1,0.3c-1-0.1-2.3,0.4-3.1,1.1"
							/>
						<path class="st5" d="M79.8,92.5c0.9-1.8,2.4-3.5,3.9-4.1C83.4,90,81.7,92.3,79.8,92.5z"/>
						<path class="st5" d="M78.1,93.6c1.2-0.4,1.4-1.6,2.4-2.1c1.4-0.8,1.9-2.4,1.9-3.4c-0.5,0.1-1.4,0.4-1.6,0.9
							c-0.2,0.6-0.7,0.9-1.2,1.3c-0.5,0.4-0.8,1.3-0.9,2.2c0,0.3,0,0.7-0.7,0.9"/>
						<path class="st5" d="M77.8,93.7c0.8,0,1.4,0.2,1.9,0.6c1.1,1,1.9,0.6,2.6,1c1,0.6,1.6-0.4,2.1-0.1c-0.9-0.7-2.4-1.4-3.9-1.5
							c-1.5-0.1-1.7-0.3-2.8-0.2"/>
						<path class="st5" d="M77.2,93.6c1.1-0.2,1.6-0.2,2.1-1c0.5-0.8,1.6-1,2-1.7c0.4-0.7,1.7-0.5,2-1.1c0.3-0.6,0.5-0.3,0.3,0.3
							c-0.3,0.6-1.1,2.2-2.4,2.8c-1.2,0.6-1.6,0.2-2.1,0.5c-0.5,0.4-1.5,0.4-2,0.4"/>
						<path class="st5" d="M76.7,93.6c1.2-0.3,2.9,0.1,3.7-0.2c0.8-0.3,2.5-0.6,3-0.2s1,0.6,1.4,0.7c0.3,0.1,0.4,0.4-0.4,0.3
							c-0.9,0-1.6,0.1-2,0.2c-0.4,0.1-1.6,0.1-2.1-0.2c-0.5-0.3-2.2-0.6-3-0.2c-0.9,0.4-2,0.1-2.9,0.9c-1.4,1.1-3.5,0.9-4,1.6
							c-0.1,0.1-0.6,0.4-1,0.2C69,96.4,69,96,69.7,95.7c1.4-0.6,4.1-1.2,5-1.7C75.4,93.7,75.9,93.7,76.7,93.6z"/>
					</g>
					<g>
						<path class="st6" d="M89.2,64.3c0.4,0,0.4,0.7,0,0.7C88.7,64.9,88.7,64.3,89.2,64.3z"/>
						<path class="st6" d="M92.2,66.8c0.4,0,0.4,0.7,0,0.7C91.8,67.5,91.8,66.8,92.2,66.8z"/>
						<path class="st6" d="M92.8,72.4c0.4,0,0.4,0.7,0,0.7S92.3,72.4,92.8,72.4z"/>
						<path class="st6" d="M94.6,71.6c0.4,0,0.4,0.7,0,0.7S94.1,71.6,94.6,71.6z"/>
						<path class="st6" d="M92.3,77.3c0.4,0.1,0.4,0.7-0.1,0.7C91.8,77.9,91.8,77.3,92.3,77.3z"/>
						<path class="st6" d="M94.3,77.9c0.4,0.1,0.4,0.7-0.1,0.7C93.7,78.5,93.8,77.8,94.3,77.9z"/>
						<path class="st6" d="M90.8,88.8c0.4,0.1,0.4,0.7-0.1,0.7C90.2,89.5,90.3,88.8,90.8,88.8z"/>
						<path class="st6" d="M88,87.7c0.4,0.1,0.4,0.7-0.1,0.7C87.5,88.3,87.6,87.7,88,87.7z"/>
						<path class="st6" d="M90.8,83c0.4,0.1,0.4,0.7-0.1,0.7C90.3,83.6,90.4,82.9,90.8,83z"/>
						<path class="st6" d="M92.6,83.8c0.4,0.1,0.4,0.7-0.1,0.7C92.1,84.4,92.1,83.7,92.6,83.8z"/>
						<path class="st6" d="M91.1,68.3c0.4,0,0.4,0.7,0,0.7C90.6,69,90.6,68.3,91.1,68.3z"/>
					</g>
				</g>
				<g>
					<path class="st7" d="M76,87.7c1.8,0,3.6-1,4.6-1.4c0.7-0.3,1.2-0.2,1.8,0.1c0.6,0.3,1.6,0.1,2.2,0.5c0.4,0.4,0,0.8-0.5,0.6
						c-0.2-0.1-0.5-0.3-0.9-0.4c-0.4,0.2-0.9,0.5-1.5,0.8c-1,0.5-3.3,1.6-5.7,1.6c-2.4,0-4.7-1.1-5.7-1.6c-0.6-0.3-1.1-0.6-1.5-0.8
						c-0.4,0-0.7,0.3-0.9,0.4c-0.4,0.2-0.9-0.3-0.5-0.6c0.5-0.4,1.6-0.3,2.2-0.5c0.6-0.3,1.1-0.4,1.8-0.1
						C72.4,86.7,74.2,87.7,76,87.7z"/>
					<g>
						<path class="st8" d="M68.8,87.1c-0.7-0.4-1-0.6-1.4-0.3"/>
						<path class="st8" d="M68.2,86.8c-0.2,0.1-0.5,0.2-0.6,0.3c0.4-0.3,0.5,0.4,0.3,0.4"/>
						<path class="st8" d="M83.2,87.1c0.7-0.4,1-0.6,1.4-0.3"/>
						<path class="st8" d="M83.8,86.8c0.2,0.1,0.5,0.2,0.6,0.3c-0.4-0.3-0.5,0.4-0.3,0.4"/>
					</g>
				</g>
				<g>
					
						<rect x="71.4" y="69.9" transform="matrix(0.6892 -0.7246 0.7246 0.6892 -25.6344 80.4431)" class="st9" width="19.1" height="0.4"/>
					
						<rect x="73.4" y="75.4" transform="matrix(0.8574 -0.5147 0.5147 0.8574 -27.0874 53.4555)" class="st10" width="19.1" height="0.4"/>
					
						<rect x="70.9" y="60.6" transform="matrix(0.7246 -0.6891 0.6891 0.7246 -28.7497 68.2912)" class="st11" width="0.4" height="19.1"/>
					
						<rect x="68.9" y="66.1" transform="matrix(0.5147 -0.8574 0.8574 0.5147 -31.2832 95.9401)" class="st10" width="0.4" height="19.1"/>
				</g>
				<g>
					<path class="st4" d="M76.2,60.7v-0.6c0-0.3,0.2-0.6,0.7-0.8c-0.7-1-0.7-2-0.9-2.4c-0.2,0.3-0.1,1.4-0.9,2.4
						c0.4,0.1,0.7,0.5,0.7,0.8v0.4c0.1-0.1,0.2-0.1,0.2-0.1C76.1,60.4,76.1,60.6,76.2,60.7z"/>
					<path class="st4" d="M87.6,63.4c0.2-0.2,0.6-0.3,1-0.1c0.1-1.2,0.9-2,1-2.3c-0.4,0.1-1.1,0.9-2.3,1.1c0.2,0.4,0.1,0.9-0.1,1
						L87.6,63.4z"/>
					<path class="st4" d="M91.2,70.9c0.2-0.1,0.7-0.1,1,0.2c0.5-1.1,1.4-1.6,1.6-2c-0.4,0-1.2,0.6-2.5,0.4c0.1,0.4-0.1,0.9-0.3,1
						L91.2,70.9z"/>
					<path class="st4" d="M64.4,63.4c-0.2-0.2-0.6-0.3-1-0.1c-0.1-1.2-0.9-2-1-2.3c0.4,0.1,1.1,0.9,2.3,1.1c-0.2,0.4-0.1,0.9,0.1,1
						L64.4,63.4z"/>
					<path class="st4" d="M60.8,70.9c-0.2-0.1-0.7-0.1-1,0.2c-0.5-1.1-1.4-1.6-1.6-2c0.4,0,1.2,0.6,2.5,0.4c-0.1,0.4,0.1,0.9,0.3,1
						L60.8,70.9z"/>
				</g>
				<g>
					<g>
						<path class="st7" d="M76,60.1c0.4,0.4,1.3,0.6,1.3-0.1c0-0.6-0.9-0.4-1.3-0.1V60.1c0.4-0.4,1.2-0.5,1.2-0.1
							C77.2,60.5,76.4,60.4,76,60.1c-0.4,0.2-1.2,0.4-1.2-0.1C74.8,59.6,75.6,59.8,76,60.1V60c-0.4-0.4-1.3-0.6-1.3,0.1
							C74.7,60.7,75.6,60.5,76,60.1z"/>
						<g>
							<path class="st7" d="M75.5,61.9c0.2,0,0.4,0,0.4-0.1c0.1-0.5,0-0.7,0-0.8C76,60.4,76.2,60,76,60c-0.1,0-0.2,0.3-0.3,0.9
								c0,0.1-0.3,0.3-0.4,0.7C75.2,61.7,75.4,61.8,75.5,61.9z"/>
							<path class="st7" d="M75.8,60.8c-0.2-0.1-0.2,0.2-0.1,0.2C75.9,61.1,76,60.8,75.8,60.8z"/>
						</g>
						<g>
							<path class="st7" d="M76.4,61.9c0.2,0,0.3-0.2,0.3-0.3c-0.1-0.5-0.4-0.6-0.4-0.7c-0.1-0.6-0.2-0.9-0.3-0.9
								c-0.1,0,0,0.4,0.1,0.9c0,0.1-0.1,0.4,0,0.8C76.1,61.8,76.3,61.9,76.4,61.9z"/>
							<path class="st7" d="M76.2,60.8c-0.2,0.1-0.1,0.3,0.1,0.2C76.4,61,76.4,60.7,76.2,60.8z"/>
						</g>
					</g>
					<path class="st7" d="M87.3,63.4c0,0.6,0.6,1.3,1,0.9C88.7,63.8,87.9,63.4,87.3,63.4L87.3,63.4c0.5,0,1.2,0.4,0.9,0.7
						C87.8,64.5,87.3,63.8,87.3,63.4c-0.4-0.1-1.1-0.6-0.8-0.9C86.7,62.2,87.2,62.9,87.3,63.4L87.3,63.4c0-0.6-0.5-1.4-0.9-0.9
						C85.9,63,86.7,63.5,87.3,63.4z"/>
					<g>
						<path class="st7" d="M87.4,65.2c0.2,0,0.3-0.1,0.3-0.2c0-0.5-0.3-0.7-0.3-0.8c0-0.6,0-0.9-0.1-0.9c-0.2,0-0.1,0.4-0.1,0.9
							c0,0.1-0.2,0.3-0.2,0.8C87.1,65.2,87.2,65.3,87.4,65.2z"/>
						<path class="st7" d="M87.3,64.2c-0.2,0-0.2,0.2,0,0.2C87.5,64.4,87.5,64.2,87.3,64.2z"/>
					</g>
					<g>
						<path class="st7" d="M86.8,65c0.1,0.1,0.4,0,0.4-0.1c0.1-0.5,0-0.7,0-0.8c0.2-0.6,0.3-0.7,0.1-0.7c-0.1-0.1-0.1,0.1-0.3,0.7
							c0,0.1-0.3,0.2-0.4,0.7C86.6,64.8,86.7,64.9,86.8,65z"/>
						<path class="st7" d="M87.1,63.9c-0.2-0.1-0.2,0.2-0.1,0.2C87.3,64.2,87.3,64,87.1,63.9z"/>
					</g>
					<path class="st7" d="M90.8,70.9c-0.1,0.6,0.2,1.4,0.7,1.1C92,71.6,91.4,71,90.8,70.9L90.8,70.9c0.5,0.1,1,0.7,0.7,1
						C91.1,72.1,90.8,71.3,90.8,70.9c-0.4-0.2-0.9-0.8-0.5-1c0.4-0.2,0.7,0.5,0.6,1l0,0c0.1-0.6-0.2-1.4-0.7-1.1
						C89.6,70.1,90.2,70.8,90.8,70.9z"/>
					<g>
						<path class="st7" d="M90.8,72.7c0.2,0,0.3-0.1,0.3-0.2c0-0.5-0.2-0.7-0.2-0.8c0-0.6,0.1-0.9-0.1-0.9c-0.2,0-0.1,0.4-0.1,0.9
							c0,0.1-0.2,0.3-0.3,0.8C90.4,72.6,90.6,72.7,90.8,72.7z"/>
						<path class="st7" d="M90.8,71.6c-0.2,0-0.2,0.2,0,0.2C91,71.9,91,71.6,90.8,71.6z"/>
					</g>
					<g>
						<path class="st7" d="M90.2,72.4c0.1,0.1,0.4,0,0.4-0.1c0.2-0.4,0.1-0.7,0.1-0.8c0.2-0.5,0.3-0.6,0.2-0.7
							c-0.1-0.1-0.1,0.1-0.4,0.6c0,0.1-0.3,0.2-0.5,0.6C90,72.1,90.1,72.3,90.2,72.4z"/>
						<path class="st7" d="M90.6,71.4c-0.2-0.1-0.3,0.1-0.1,0.2C90.7,71.6,90.8,71.4,90.6,71.4z"/>
					</g>
					<path class="st7" d="M64.7,63.4c0,0.6-0.6,1.3-1,0.9C63.3,63.8,64.1,63.4,64.7,63.4L64.7,63.4c-0.5,0-1.2,0.4-0.9,0.7
						C64.2,64.5,64.7,63.8,64.7,63.4c0.4-0.1,1.1-0.6,0.8-0.9C65.3,62.2,64.8,62.9,64.7,63.4L64.7,63.4c-0.1-0.6,0.5-1.4,0.9-0.9
						S65.3,63.5,64.7,63.4z"/>
					<g>
						<path class="st7" d="M64.6,65.2c-0.2,0-0.3-0.1-0.3-0.2c0-0.5,0.3-0.7,0.3-0.8c0-0.6,0-0.9,0.1-0.9s0.1,0.4,0.1,0.9
							c0,0.1,0.2,0.3,0.2,0.8C64.9,65.2,64.8,65.3,64.6,65.2z"/>
						<path class="st7" d="M64.7,64.2c0.2,0,0.2,0.2,0,0.2C64.5,64.4,64.5,64.2,64.7,64.2z"/>
					</g>
					<g>
						<path class="st7" d="M65.2,65c-0.1,0.1-0.4,0-0.4-0.1c-0.1-0.5,0-0.7,0-0.8c-0.2-0.6-0.3-0.7-0.1-0.7c0.1-0.1,0.1,0.1,0.3,0.7
							c0,0.1,0.3,0.2,0.4,0.7C65.4,64.8,65.3,64.9,65.2,65z"/>
						<path class="st7" d="M64.9,63.9c0.2-0.1,0.2,0.2,0.1,0.2C64.7,64.2,64.7,64,64.9,63.9z"/>
					</g>
					<path class="st7" d="M61.2,70.9c0.1,0.6-0.2,1.4-0.7,1.1C60,71.6,60.6,71,61.2,70.9L61.2,70.9c-0.5,0.1-1,0.7-0.6,1
						C60.9,72.1,61.2,71.3,61.2,70.9c0.4-0.2,0.9-0.8,0.6-1C61.4,69.6,61.1,70.4,61.2,70.9L61.2,70.9c-0.2-0.6,0.1-1.4,0.6-1.1
						C62.4,70.1,61.8,70.8,61.2,70.9z"/>
					<g>
						<path class="st7" d="M61.2,72.7c-0.2,0-0.3-0.1-0.3-0.2c0-0.5,0.2-0.7,0.2-0.8c0-0.6-0.1-0.9,0.1-0.9c0.2,0,0.1,0.4,0.1,0.9
							c0,0.1,0.2,0.3,0.3,0.8C61.6,72.6,61.4,72.7,61.2,72.7z"/>
						<path class="st7" d="M61.2,71.6c0.2,0,0.2,0.2,0,0.2C61,71.9,61,71.6,61.2,71.6z"/>
					</g>
					<g>
						<path class="st7" d="M61.8,72.4c-0.1,0.1-0.4,0-0.4-0.1c-0.2-0.4-0.1-0.7-0.1-0.8c-0.2-0.5-0.3-0.6-0.2-0.7
							c0.1-0.1,0.1,0.1,0.4,0.6c0,0.1,0.3,0.2,0.5,0.6C62,72.1,61.9,72.3,61.8,72.4z"/>
						<path class="st7" d="M61.4,71.4c0.2-0.1,0.3,0.1,0.1,0.2C61.3,71.6,61.2,71.4,61.4,71.4z"/>
					</g>
				</g>
				<g>
					<g>
						<g>
							<circle class="st12" cx="76" cy="74.4" r="1.6"/>
							<path class="st12" d="M76,74.4"/>
						</g>
					</g>
				</g>
				<g>
					<g>
						<path d="M70.1,87.4c-0.1,0-0.1-0.1-0.1-0.1l0.3-0.5c0,0,0.1,0.1,0.1,0.1c0.1,0,0.1,0.1,0.1,0.3C70.3,87.5,70.2,87.4,70.1,87.4
							l0,0.2c0.2,0.1,0.4-0.1,0.5-0.3c0.2-0.4,0-0.5-0.1-0.5c-0.1,0-0.2-0.1-0.3-0.1l-0.4,0.8c0,0,0.1,0.1,0.3,0.1L70.1,87.4z"/>
					</g>
					<g>
						<polygon points="70.6,87.8 71,87 71.1,87.1 70.7,87.9 						"/>
					</g>
					<g>
						<path d="M71.3,88c-0.1,0-0.1-0.2-0.1-0.4c0.1-0.2,0.2-0.2,0.3-0.2c0.1,0.1,0.1,0.2,0.1,0.4C71.6,87.9,71.4,88,71.3,88
							l-0.1,0.1c0.2,0.1,0.4,0,0.5-0.3c0.1-0.2,0.1-0.5-0.1-0.6c-0.2-0.1-0.4,0-0.5,0.3c-0.1,0.2-0.1,0.5,0.1,0.6L71.3,88z"/>
					</g>
					<g>
						<path d="M72.4,87.9c0-0.1,0-0.1-0.1-0.2c-0.1,0-0.1,0-0.1,0.1c0,0,0,0.1,0.1,0.2c0.1,0.1,0.2,0.2,0.2,0.3
							c-0.1,0.1-0.2,0.2-0.4,0.1c-0.2-0.1-0.2-0.3-0.2-0.4l0.1,0.1c0,0.1,0,0.1,0.1,0.2c0.1,0,0.1,0,0.2-0.1c0-0.1,0-0.1-0.1-0.2
							C72,87.9,72,87.8,72,87.7c0-0.1,0.1-0.2,0.4-0.1c0.2,0.1,0.2,0.2,0.2,0.4L72.4,87.9z"/>
					</g>
					<g>
						<path d="M73.2,88.6c0.1,0,0.1,0,0.2-0.1c0-0.1,0.2-0.6,0.2-0.6l0.1,0c0,0-0.1,0.4-0.2,0.6c0,0.1-0.1,0.3-0.4,0.2
							c-0.2-0.1-0.2-0.2-0.2-0.4c0-0.1,0.2-0.6,0.2-0.6l0.1,0.1c0,0-0.1,0.5-0.2,0.6C73.1,88.5,73.1,88.6,73.2,88.6z"/>
					</g>
					<g>
						<polygon points="74.1,88.1 74.2,88.7 74.3,88.2 74.5,88.2 74.3,89.1 74.1,89 73.9,88.4 73.8,89 73.7,88.9 73.9,88.1 						"/>
					</g>
					<g>
						<rect x="74.2" y="88.6" transform="matrix(0.1761 -0.9844 0.9844 0.1761 -25.7711 146.554)" width="0.9" height="0.2"/>
					</g>
					<g>
						<polygon points="76,88.4 76.3,88.9 76.3,88.4 76.4,88.4 76.5,89.3 76.3,89.3 76,88.7 76,89.3 75.8,89.3 75.8,88.4 						"/>
					</g>
					<g>
						<polygon points="77.1,88.3 77.2,89 77.6,88.9 77.6,89.1 77.1,89.2 76.9,88.3 						"/>
					</g>
					<g>
						<rect x="77.7" y="88.2" transform="matrix(0.9762 -0.2169 0.2169 0.9762 -17.3688 18.9765)" width="0.2" height="0.9"/>
					</g>
					<g>
						<polygon points="79.3,87.9 78.9,88 78.9,88.2 79.3,88.1 79.4,88.3 79,88.3 79.1,88.6 79.4,88.5 79.5,88.6 79,88.8 78.7,87.9 
							79.2,87.8 						"/>
					</g>
					<g>
						<path d="M79.6,88l-0.1-0.2c0,0,0.1-0.1,0.2-0.1c0.1,0,0.1,0,0.1,0.1c0,0.1,0,0.1-0.1,0.1C79.8,87.9,79.6,88,79.6,88l0.1,0.1
							c0,0,0.1,0,0.1-0.1c0.1,0,0.1,0,0.2,0.1c0,0.1,0.1,0.2,0.1,0.2l0.1-0.1c0,0-0.1-0.2-0.1-0.2c0-0.1-0.1-0.1-0.2-0.1
							c0,0,0.1-0.1,0.1-0.2c-0.1-0.1-0.1-0.2-0.3-0.2c-0.1,0-0.4,0.1-0.4,0.1l0.3,0.9l0.1-0.1l-0.1-0.3L79.6,88z"/>
					</g>
					<g>
						<polygon points="80.6,88.2 80.4,87.5 80.1,87.6 80.1,87.4 80.6,87.2 80.7,87.3 80.5,87.4 80.8,88.1 						"/>
					</g>
					<g>
						<polygon points="81.3,87.6 81.2,87.2 81.4,87.5 81.3,87.6 81.3,87.7 81.5,87.6 81.7,87.7 81.8,87.7 81.2,87 81,87 81.2,87.9 
							81.3,87.9 81.3,87.7 						"/>
					</g>
					<g>
						<path d="M75.2,89.1c-0.1,0-0.2-0.1-0.2-0.3c0-0.2,0.1-0.3,0.2-0.3c0.1,0,0.2,0.1,0.2,0.3C75.4,89,75.4,89.1,75.2,89.1l0,0.1
							c0.2,0,0.4-0.1,0.4-0.4c0-0.3-0.1-0.5-0.3-0.5c-0.2,0-0.4,0.1-0.4,0.4c0,0.3,0.1,0.5,0.3,0.5L75.2,89.1z"/>
					</g>
					<g>
						<path d="M78.3,88.8c0,0,0.1,0,0.2-0.1c0.1,0,0.1-0.1,0.1-0.1c0-0.1-0.1-0.1-0.1-0.1c-0.1,0-0.2,0.1-0.2,0.1l0-0.1
							c0,0,0.1,0,0.2-0.1c0.1,0,0.1-0.1,0.1-0.1c0,0-0.1-0.1-0.1-0.1c-0.1,0-0.2,0.1-0.2,0.1l0.1,0.2l0,0.1
							C78.2,88.6,78.3,88.8,78.3,88.8l0,0.1c-0.1,0-0.1,0-0.1,0l-0.2-0.9c0,0,0.1,0,0.3-0.1c0.1,0,0.3,0,0.4,0.1c0,0.1,0,0.1,0,0.2
							c0.1,0,0.1,0.1,0.1,0.2c0,0.1,0,0.3-0.2,0.3c-0.1,0-0.1,0-0.2,0.1L78.3,88.8z"/>
					</g>
					<g>
						<path d="M82.1,87.3c-0.1,0-0.1,0.1-0.1,0.1l-0.3-0.5c0,0,0.1-0.1,0.1-0.1c0.1,0,0.2-0.1,0.3,0.2
							C82.3,87.2,82.2,87.3,82.1,87.3l0.1,0.1c0.2-0.1,0.1-0.4,0-0.6c-0.2-0.4-0.4-0.3-0.5-0.2c-0.1,0.1-0.2,0.1-0.3,0.1l0.4,0.8
							c0,0,0.1-0.1,0.3-0.1L82.1,87.3z"/>
					</g>
					<g>
						<rect x="76.6" y="88.7" transform="matrix(0.9765 -0.2156 0.2156 0.9765 -17.3347 18.6346)" width="0.2" height="0.1"/>
					</g>
					<g>
						<rect x="72.7" y="88.1" transform="matrix(0.2908 -0.9568 0.9568 0.2908 -32.7643 132.1524)" width="0.1" height="0.2"/>
					</g>
				</g>
				<g>
					<g>
						<path class="st13" d="M66.6,98.4c0,0-0.4-0.2-0.6-0.3c-0.1-0.1-0.3,0-0.4,0.2c-0.1,0.2,0,0.4,0.1,0.4c0.1,0.1,0.6,0.3,0.6,0.3
							L66.6,98.4l0.2-0.4l0.4-0.9l0.4,0.2c0,0-1.1,2.4-1.1,2.4c0,0-0.9-0.4-1.2-0.6c-0.3-0.1-0.3-0.6-0.2-0.9
							c0.2-0.4,0.5-0.5,0.6-0.4c-0.1-0.1-0.2-0.3-0.1-0.6c0.1-0.1,0.3-0.7,0.3-0.7l0.4,0.2c0,0-0.1,0.3-0.3,0.6
							c-0.1,0.3-0.1,0.4,0.2,0.5c0.2,0.1,0.4,0.2,0.4,0.2L66.6,98.4z"/>
					</g>
					<g>
						<polygon class="st13" points="62.4,97 63.4,97.6 63.8,97.1 62.9,96.6 63.1,96.1 64,96.7 64.4,96.1 63.4,95.5 63.6,95.1 
							65.1,96 63.6,98.3 62.2,97.4 						"/>
					</g>
					<g>
						<path class="st13" d="M61.5,95.3c0,0-0.2-0.1-0.4-0.3c-0.2-0.1-0.4-0.1-0.6,0.1c-0.2,0.2-0.1,0.4,0,0.5
							c0.1,0.1,0.4,0.3,0.4,0.3C61,95.9,61.5,95.3,61.5,95.3l0.3-0.3l0.6-0.7l0.4,0.3L61,96.6c0,0-0.3-0.3-0.8-0.6
							c-0.3-0.3-0.3-0.7,0-1.1c0.3-0.3,0.8-0.5,1.1-0.2c0.2,0.2,0.4,0.4,0.4,0.4L61.5,95.3z"/>
					</g>
					<g>
						<path class="st13" d="M59.7,92.3c-0.2-0.2-0.5-0.1-0.6,0c-0.2,0.1-1.3,1.2-1.3,1.2l-0.3-0.4c0,0,1-1,1.3-1.2
							c0.3-0.3,0.8-0.5,1.3,0c0.5,0.5,0.3,1-0.1,1.3c-0.3,0.2-1.3,1.2-1.3,1.2l-0.3-0.4c0,0,1.1-1.1,1.3-1.2
							C59.8,92.8,59.9,92.6,59.7,92.3z"/>
					</g>
					<g>
						<path class="st13" d="M58,90.4c0,0-0.3-0.4-0.4-0.5c-0.1-0.1-0.3-0.1-0.4,0C57,90,57,90.2,57.1,90.3c0.1,0.1,0.4,0.5,0.4,0.5
							l-0.4,0.3c0,0-0.2-0.3-0.4-0.5c-0.1-0.2-0.3-0.1-0.4-0.1c-0.1,0.1-0.2,0.3-0.1,0.4c0.1,0.1,0.4,0.5,0.4,0.5l0.5-0.4l0.4-0.3
							C57.5,90.8,58,90.4,58,90.4l0.4-0.3c0.1,0.2,0.3,0.4,0.3,0.4l-2.2,1.6c0,0-0.1-0.2-0.5-0.8c-0.3-0.4-0.3-0.9,0.1-1.1
							c0.2-0.1,0.4-0.2,0.6-0.1c0-0.2,0.1-0.4,0.4-0.6c0.3-0.2,0.7-0.3,1.1,0.2c0.1,0.1,0.2,0.3,0.4,0.5L58,90.4z"/>
					</g>
					<g>
						<polygon class="st13" points="54.4,88.9 56.4,87.9 55.9,86.9 56.3,86.7 57,88.1 54.7,89.3 						"/>
					</g>
					<g>
						
							<rect x="53.2" y="85.8" transform="matrix(0.9243 -0.3816 0.3816 0.9243 -28.7129 27.3189)" class="st13" width="2.7" height="0.5"/>
					</g>
					<g>
						<path class="st13" d="M53.1,83.3c-0.1,0.1-0.4,0.2-0.3,0.6s0.5,0.4,1,0.3c0.5-0.1,0.8-0.5,0.7-0.8c-0.1-0.3-0.4-0.4-0.6-0.4
							l-0.1-0.4c0.5-0.1,1,0.1,1.2,0.6c0.1,0.5-0.2,1.1-1,1.3c-0.8,0.2-1.4,0-1.6-0.6c-0.2-0.6,0.2-1,0.6-1.1L53.1,83.3z"/>
					</g>
					<g>
						<path class="st13" d="M53.6,76.1c0,0.1,0,0.4,0,0.4l-1.8-0.1c0,0,0-0.3,0-0.4c0-0.1,0.1-0.6,0.9-0.5
							C53.6,75.5,53.6,75.9,53.6,76.1l0.5-0.1c0-0.6-0.6-0.9-1.4-1c-1.2-0.1-1.3,0.6-1.3,0.9c0,0.3,0,0.7-0.1,0.9l2.7,0.2
							c0,0,0-0.4,0.1-1L53.6,76.1z"/>
					</g>
					<g>
						<polygon class="st13" points="52.4,71.7 52.2,72.9 52.8,73 53,72 53.5,72.1 53.2,73.1 53.9,73.3 54.2,72.1 54.6,72.2 
							54.3,73.8 51.7,73.3 52,71.6 						"/>
					</g>
					<g>
						<polygon class="st13" points="53.9,67.4 53.4,68.5 54,68.7 54.4,67.7 54.9,67.9 54.4,68.9 55.1,69.2 55.5,68.1 55.9,68.2 
							55.3,69.8 52.8,68.8 53.5,67.2 						"/>
					</g>
					<g>
						<polygon class="st13" points="54.3,65.5 56.2,66.6 56.8,65.6 57.2,65.9 56.4,67.2 54.1,65.9 						"/>
					</g>
					<g>
						<path class="st13" d="M57.9,61.7c-0.2-0.2-0.4-0.1-0.6,0.1c-0.2,0.2-0.1,0.4,0,0.5c0.1,0.1,0.3,0.1,0.6-0.2
							c0.4-0.3,0.7-0.4,1.1-0.1c0.4,0.3,0.5,0.8,0.1,1.2c-0.4,0.5-0.9,0.3-1.2,0.1l0.3-0.3c0.2,0.2,0.4,0.1,0.6-0.1
							c0.2-0.2,0.1-0.4,0-0.5c-0.1-0.1-0.4-0.1-0.6,0.1c-0.6,0.5-0.9,0.4-1.1,0.2c-0.2-0.2-0.5-0.6-0.1-1.1c0.4-0.5,0.9-0.4,1.2-0.1
							L57.9,61.7z"/>
					</g>
					<g>
						<path class="st13" d="M60.3,60.5l0.5-0.4l-0.9-0.6L60.3,60.5l0.2,0.4l0.2,0.5l-0.4,0.3l-1.2-2.5l0.4-0.4l2.4,1.5l-0.4,0.3
							l-0.5-0.3l-0.6,0.6L60.3,60.5z"/>
					</g>
					<g>
						<polygon class="st13" points="61.7,57.2 62.9,59 63.8,58.4 64.1,58.8 62.8,59.7 61.3,57.5 						"/>
					</g>
					<g>
						<polygon class="st13" points="65.6,57.9 63.7,55.9 64.1,55.7 65.5,57.2 65,55.2 65.5,55 66,57.7 						"/>
					</g>
					<g>
						<path class="st13" d="M74.7,54.9c-0.4,0-0.6-0.3-0.6-0.9c0-0.6,0.2-0.9,0.6-0.9c0.4,0,0.6,0.3,0.6,0.9
							C75.3,54.6,75.1,54.9,74.7,54.9l0,0.4c0.6,0,1-0.6,1-1.4c0-0.8-0.5-1.3-1.1-1.3c-0.6,0-1,0.6-1,1.4c0,0.8,0.5,1.3,1.1,1.3
							L74.7,54.9z"/>
					</g>
					<g>
						<polygon class="st13" points="83.4,54.3 82.3,53.9 82.1,54.5 83.1,54.8 83,55.3 82,55 81.8,55.7 82.9,56 82.8,56.4 81.2,55.9 
							81.9,53.4 83.6,53.8 						"/>
					</g>
					<g>
						<polygon class="st13" points="85.4,54.5 85.6,56.3 86.2,54.9 86.7,55.1 85.6,57.5 85.2,57.3 85,55.4 84.3,56.9 83.8,56.7 
							84.9,54.3 						"/>
					</g>
					<g>
						<polygon class="st13" points="89.7,56.8 88.5,58.6 89.3,59.2 89.1,59.6 87.8,58.7 89.3,56.5 						"/>
					</g>
					<g>
						<polygon class="st13" points="95.3,66.7 96.9,65.4 95.1,66.3 94.9,65.9 97.3,64.7 97.6,65.3 96,66.7 98,66.1 98.3,66.7 
							95.9,67.9 95.7,67.5 97.5,66.6 95.5,67.2 						"/>
					</g>
					<g>
						<polygon class="st13" points="99.1,70 98.7,68.9 98.1,69.1 98.5,70.1 98,70.2 97.7,69.2 97,69.4 97.4,70.6 97,70.7 96.4,69.1 
							99,68.3 99.5,69.9 						"/>
					</g>
					<g>
						
							<rect x="97.8" y="74.5" transform="matrix(0.9958 -9.202293e-02 9.202293e-02 0.9958 -6.4597 9.442)" class="st13" width="2.7" height="0.5"/>
					</g>
					<g>
						<path class="st13" d="M99.7,77.8c0.2,0,0.5-0.1,0.5-0.5c0-0.4-0.3-0.6-0.9-0.6c-0.5,0-0.9,0.2-0.9,0.5c0,0.3,0.3,0.5,0.5,0.5
							v0.4c-0.6,0-0.9-0.4-0.9-1s0.6-0.9,1.4-0.9c0.8,0,1.3,0.4,1.3,1s-0.5,0.9-0.9,0.9V77.8z"/>
					</g>
					<g>
						<path class="st13" d="M98.1,85.6c0.1,0.1,0.5,0.1,0.6-0.3c0.1-0.4-0.1-0.6-0.6-0.8c-0.5-0.2-0.9-0.1-1,0.2
							c-0.1,0.3,0.1,0.6,0.3,0.6l-0.1,0.4c-0.5-0.2-0.7-0.7-0.6-1.2c0.2-0.5,0.8-0.7,1.6-0.4c0.8,0.3,1.1,0.8,0.9,1.4
							c-0.2,0.6-0.8,0.7-1.2,0.5L98.1,85.6z"/>
					</g>
					<g>
						<polygon class="st13" points="97.1,88.9 97.6,87.8 97.1,87.6 96.6,88.5 96.2,88.3 96.7,87.3 96.1,87 95.5,88.1 95.1,87.8 
							95.9,86.3 98.3,87.6 97.5,89.1 						"/>
					</g>
					<g>
						<polygon class="st13" points="96.4,90.8 94.6,90.6 95.9,91.5 95.6,91.9 93.4,90.3 93.7,89.9 95.6,90.2 94.3,89.2 94.6,88.8 
							96.7,90.3 						"/>
					</g>
					<g>
						<polygon class="st13" points="92.3,91.7 93.9,93.3 94.3,92.8 94.7,93.1 93.4,94.4 93.1,94.1 93.6,93.6 92,92.1 						"/>
					</g>
					<g>
						<polygon class="st13" points="86.3,99.3 85.5,97.3 84.5,97.7 84.3,97.3 85.7,96.6 86.8,99.1 						"/>
					</g>
					<g>
						<path class="st13" d="M53.4,80.8l-0.1-0.6l-1,0.5L53.4,80.8l0.5,0.1l0.6,0.1l0.1,0.4L51.7,81l-0.1-0.5l2.5-1.1l0.1,0.4
							L53.7,80l0.1,0.9L53.4,80.8z"/>
					</g>
					<g>
						<path class="st13" d="M68.1,55.7l0.6-0.2L68,54.6L68.1,55.7l0,0.5l0,0.6l-0.4,0.1l-0.1-2.8l0.5-0.2l1.6,2.3l-0.4,0.1l-0.3-0.5
							L68,56.2L68.1,55.7z"/>
					</g>
					<g>
						<path class="st13" d="M71.4,55.3c-0.1,0-0.4,0.1-0.4,0.1l-0.3-1.7c0,0,0.3-0.1,0.4-0.1c0.1,0,0.6,0,0.7,0.7
							C71.9,55.2,71.5,55.3,71.4,55.3l0.2,0.4c0.6-0.1,0.7-0.9,0.6-1.6c-0.2-1.1-0.9-1.1-1.2-1.1c-0.3,0.1-0.6,0.1-0.9,0.2l0.5,2.6
							c0,0,0.4-0.1,1-0.2L71.4,55.3z"/>
					</g>
					<g>
						<path class="st13" d="M77.6,53.9c0,0,0.5,0.1,0.6,0.1c0.1,0,0.3-0.1,0.3-0.3s-0.1-0.4-0.3-0.4c-0.2,0-0.6-0.1-0.6-0.1
							L77.6,53.9l0,0.5l-0.1,1L77,55.3l0.2-2.7c0,0,1,0.1,1.3,0.1c0.3,0,0.5,0.4,0.5,0.8c0,0.4-0.3,0.6-0.4,0.6
							c0.2,0,0.3,0.2,0.3,0.6c0,0.2-0.1,0.7-0.1,0.7l-0.5,0c0,0,0-0.3,0.1-0.6c0-0.3-0.1-0.4-0.4-0.4c-0.2,0-0.5,0-0.5,0L77.6,53.9z
							"/>
					</g>
					<g>
						<path class="st13" d="M91.1,60l0.4,0.4l0.5-1L91.1,60l-0.4,0.2l-0.5,0.3l-0.4-0.3l2.4-1.5l0.4,0.4l-1.2,2.5l-0.4-0.3l0.3-0.5
							l-0.6-0.6L91.1,60z"/>
					</g>
					<g>
						<path class="st13" d="M94.3,63.4l0.4,0.5l0.7-0.9L94.3,63.4l-0.4,0.1l-0.5,0.2l-0.3-0.4l2.6-1l0.3,0.4l-1.7,2.2l-0.3-0.4
							l0.4-0.4l-0.5-0.7L94.3,63.4z"/>
					</g>
					<g>
						<path class="st13" d="M98.9,71.9c0,0,0.1,0.5,0.1,0.6s0.2,0.2,0.4,0.2c0.2,0,0.3-0.2,0.3-0.4c0-0.2-0.1-0.6-0.1-0.6L98.9,71.9
							L98.4,72l-1,0.2l-0.1-0.5l2.6-0.5c0,0,0.2,1,0.3,1.3c0.1,0.3-0.3,0.6-0.6,0.7c-0.4,0.1-0.7-0.1-0.7-0.3c0,0.2-0.1,0.4-0.4,0.4
							c-0.2,0-0.7,0.1-0.7,0.1l-0.1-0.5c0,0,0.3-0.1,0.6-0.1c0.3-0.1,0.4-0.2,0.3-0.4c-0.1-0.2-0.1-0.5-0.1-0.5L98.9,71.9z"/>
					</g>
					<g>
						<path class="st13" d="M98.7,80.1l-0.1,0.6l1.1-0.1L98.7,80.1l-0.4-0.2l-0.5-0.2l0.1-0.4l2.5,1.2l-0.1,0.5l-2.8,0.4l0.1-0.4
							l0.6-0.1l0.1-0.9L98.7,80.1z"/>
					</g>
					<g>
						<path class="st13" d="M91.3,94.8c0,0-0.4,0.3-0.5,0.4c-0.1,0.1-0.1,0.3,0,0.5c0.1,0.2,0.3,0.2,0.5,0.1
							c0.1-0.1,0.5-0.4,0.5-0.4L91.3,94.8L91,94.4l-0.6-0.8l0.4-0.3l1.7,2.1c0,0-0.8,0.6-1,0.8c-0.3,0.2-0.6,0-0.9-0.3
							c-0.2-0.3-0.2-0.7-0.1-0.7c-0.1,0.1-0.4,0.1-0.6-0.2c-0.1-0.1-0.5-0.6-0.5-0.6l0.4-0.3c0,0,0.2,0.2,0.4,0.5
							c0.2,0.3,0.4,0.2,0.6,0.1c0.2-0.1,0.4-0.3,0.4-0.3L91.3,94.8z"/>
					</g>
					<g>
						<path class="st13" d="M88.3,96.3l-0.5,0.3l0.8,0.8L88.3,96.3l-0.1-0.4l-0.1-0.6l0.4-0.2l0.7,2.7l-0.5,0.3l-2.1-1.9l0.4-0.2
							l0.4,0.4l0.7-0.4L88.3,96.3z"/>
					</g>
				</g>
				<polygon class="st7" points="64.4,83.1 76,63.1 87.6,83.1 				"/>
				<polygon class="st4" points="65.6,82.5 76,64.5 86.4,82.5 				"/>
				<path class="st14" d="M86.4,82.5L83.8,78c-1.4-0.1-8.6,0.1-10,0.1c-1.4,0.1-4.5-0.2-5.6-0.2l-2.6,4.6H86.4z"/>
				<g>
					<path class="st12" d="M68.2,77.9c1.1,0,4.3,0.3,5.6,0.2c1.4-0.1,8.6-0.3,10-0.1L76,64.5L68.2,77.9z"/>
				</g>
				<path class="st15" d="M73.1,71.1c0,0,1.7,1.7,1.9,1.9c0.1,0.1,0.2,0.1,0.1-0.1c-0.1-0.2-0.2-0.4-0.3-0.5
					c0.2,0.2,0.3,0.3,0.4,0.4c0.1,0.1,0.2,0.2,0.1,0c-0.1-0.2-1.1-2-1.1-2c0.7,1,1.1,1.7,1.2,1.9c0.1,0.2,0.3,0.2,0.1,0
					c-0.1-0.2-0.3-0.7-0.4-0.9c0.3,0.4,0.4,0.7,0.5,0.9c0.1,0.1,0.2,0.1,0.1-0.1c-0.1-0.3-0.4-1.7-0.5-2.1c0.3,0.7,0.5,1.7,0.6,1.9
					c0.1,0.2,0.2,0.3,0.2,0c0-0.3,0-1.5,0.1-1.8c0,0.8,0.1,1.6,0.1,1.7c0,0.2,0.1,0.3,0.1-0.1c0.1-0.4,0.4-1.6,0.4-1.9
					c-0.2,1.1-0.3,1.9-0.3,2c0,0.1,0,0.2,0.1,0c0.1-0.2,0.2-0.4,0.2-0.5c-0.1,0.4-0.1,0.5-0.1,0.6c0,0.1,0,0.2,0.1,0
					s0.9-2.3,0.9-2.3c-0.4,1.2-0.6,2.2-0.7,2.3c0,0.1-0.1,0.2,0.1,0.1c0.1-0.2,1-1.5,1-1.5s-0.8,1.5-0.9,1.6c-0.1,0.1,0,0.2,0.1,0.1
					c0.1-0.1,1.4-1.8,1.4-1.8s-1.2,1.7-1.3,1.9C77,73.1,77,73.2,77.1,73c0.1-0.1,1-1.1,1-1.1s-0.8,1.1-0.9,1.2
					c-0.1,0.1,0,0.1,0.1,0.1c0.1-0.1,2.2-1.9,2.2-1.9s-1.9,1.8-2,1.9c-0.1,0.1-0.1,0.1,0.1,0.1c0.1-0.1,1.3-0.8,1.3-0.8
					s-1,0.8-1.1,0.9c-0.1,0.1-0.1,0.2,0.1,0.1c0.2-0.1,1.9-0.8,1.9-0.8s-1.7,0.9-1.9,1c-0.2,0.1-0.2,0.2,0.1,0.1
					c0.3-0.1,2-0.8,2-0.8s-1.7,0.8-1.9,0.9c-0.1,0.1-0.2,0.2,0,0.1c0.1,0,2.6-0.6,2.6-0.6s-2.4,0.6-2.5,0.7c-0.1,0-0.2,0.2,0.1,0.1
					c0.3,0,1-0.1,1-0.1s-0.8,0.2-0.9,0.2c-0.2,0-0.1,0.1,0,0.1c0.2,0,2.1,0,2.1,0s-2.1,0.1-2.1,0.1c-0.1,0-0.2,0.1-0.1,0.1
					c0.1,0,1.6,0.2,1.6,0.2s-1.6-0.1-1.8-0.1c-0.2,0-0.3,0.1,0,0.2c0.3,0.1,3.7,0.7,3.7,0.7s-3.6-0.5-3.8-0.5c-0.1,0-0.2,0.1,0,0.2
					c0.3,0.1,2.9,0.9,2.9,0.9s-3.1-0.7-3.2-0.8c-0.1,0-0.2,0.1,0,0.1c0.2,0.1,5,2.4,5,2.4s-5-2.1-5.1-2.2c-0.1-0.1-0.2,0-0.1,0.1
					c0.2,0.2,0.8,0.7,0.8,0.7s-1-0.7-1.2-0.8c-0.2-0.1-0.2,0-0.1,0.2c0.4,0.5,0.8,1.1,0.8,1.1s-0.8-0.9-0.9-1.1
					c-0.1-0.1-0.3-0.1-0.2,0.1c0.1,0.2,0.4,0.7,0.4,0.7s-0.4-0.5-0.5-0.6c-0.1-0.1-0.1,0-0.1,0.1c0,0.6-0.1,1.1-0.1,0
					c0-0.1-0.2-0.1-0.2,0c-0.3,0.9-0.4,0.9-0.2-0.1c0-0.1-0.2-0.2-0.2-0.1c0,0.1-0.3,0.6-0.3,0.6s0.1-0.4,0.1-0.6
					c0.1-0.2-0.2-0.3-0.3-0.2s-0.6,0.7-0.6,0.7s0.4-0.6,0.4-0.7c0.1-0.1,0-0.2-0.1-0.1c-0.2,0.2-1.1,1.1-1.1,1.1s0.9-1,1-1.1
					c0.1-0.1,0-0.2-0.1-0.1s-0.9,0.6-0.9,0.6s0.7-0.6,0.8-0.7c0.1-0.1,0-0.2-0.1-0.1c-0.1,0.1-1,0.5-1,0.5s0.8-0.6,0.9-0.7
					c0.1-0.1,0.1-0.3-0.1-0.2c-0.2,0.1-4.9,2.4-4.9,2.4s4.5-2.4,4.7-2.4c0.2-0.1,0-0.1-0.1-0.1c-0.1,0.1-1.2,0.4-1.2,0.4
					s1-0.4,1.2-0.4c0.2-0.1,0.2-0.2,0-0.1c-0.2,0.1-2.8,0.4-2.8,0.4s2.5-0.5,2.8-0.5c0.2-0.1,0.3-0.2,0-0.2c-0.4,0-2.2-0.1-2.2-0.1
					s1.9,0,2,0c0.1,0,0.1-0.1,0-0.1c-0.1,0-2-0.5-2-0.5s2,0.3,2.2,0.4c0.2,0.1,0.4-0.1,0.1-0.2c-0.3-0.1-1.6-0.8-1.6-0.8
					s1.7,0.7,1.9,0.8c0.2,0.1,0.4-0.1,0-0.3c-0.4-0.2-2.1-1.5-2.1-1.5s2,1.2,2.1,1.3s0.2,0.1,0.1-0.1c-0.1-0.1-1.3-1.1-1.3-1.1
					s1.2,0.9,1.4,1s0.4,0.1,0.1-0.1C74.6,72.9,73.1,71.1,73.1,71.1z"/>
				<g>
					<path class="st6" d="M75.8,75.1c-0.1-0.1-0.3-0.3-0.2-0.4c0.1-0.2,0.3-0.3,0.6-0.3c0.1-0.2-0.2-0.3-0.4-0.2
						c-0.1-0.3,0.3-0.6,0.6-0.4c0.4,0.2,0.4,0.6,0.3,0.9c0,0.1-0.1,0.4-0.4,0.6C76.2,75.3,75.9,75.2,75.8,75.1z"/>
					<path class="st6" d="M76.3,75.2c-0.1,0.1-0.4,0-0.6-0.2c-0.1-0.1-0.3-0.3-0.2-0.4c0.1-0.1,0.4,0.1,0.4,0.1
						C76.2,74.9,76.4,75.1,76.3,75.2z"/>
					<path class="st7" d="M75.9,76.9V75c0-0.1,0.2-0.1,0.2,0v1.9"/>
				</g>
				<g>
					<path class="st5" d="M84.7,80.4c-0.2-0.1-0.5-0.3-0.7-0.3c-0.2,0-0.8-0.8-1.2-1c-0.4-0.2-1.1-1-1.6-1.1
						c-0.4-0.1-0.9-0.5-1.2-0.8c-0.2-0.3-0.4-0.3-0.9,0c0.2,0.1,0.3,0.2,0.4,0.3c0.1,0.1,0.6,1.1,1,1.2c0.4,0.1,0.7,1,1.1,1.2
						c0.4,0.2,0.8,0.7,0.9,0.7c0.1,0,0.2,0.1,0.1,0.2c0.6,0.2,1.4,0.1,1.5,0.1c0.2-0.1,0.4-0.1,0.6-0.1C85,80.7,84.9,80.5,84.7,80.4
						z"/>
					<path class="st5" d="M82.6,80.6c-0.2-0.1-0.5-0.6-0.9-0.7c-0.4-0.2-0.8-1-1.1-1.2c-0.4-0.1-0.8-1.1-1-1.2
						c-0.1-0.1-0.2-0.1-0.4-0.3c-0.1-0.1-0.1-0.1-0.2-0.3c-0.3-0.4-0.5-0.2-0.6-0.1c-0.1,0.1-0.2,0.3-0.4,0.4
						c0.1,0.2,0.4,0.7,0.6,0.8c0.2,0.2,0.8,0.7,0.8,0.9c0.1,0.2,0.5,0.5,0.7,0.9c0.2,0.4,0.6,0.9,0.8,1.1c0.1,0.1,0.1,0.1,0.2,0.2
						c0.6,0.1,1.1,0.1,1.4,0c0.2-0.1,0.3-0.1,0.3-0.2C82.8,80.7,82.7,80.6,82.6,80.6z"/>
					<path class="st5" d="M80,79.8c-0.2-0.4-0.6-0.7-0.7-0.9c-0.1-0.2-0.6-0.7-0.8-0.9c-0.2-0.1-0.5-0.6-0.6-0.8c0,0,0-0.1,0-0.1
						c0-0.2-0.5-0.4-0.7-0.5c-0.2-0.1-0.2-0.1-0.5,0c-0.1,0.1-0.3,0.1-0.5,0.2c0.1,0.2,0.2,0.4,0.4,0.5c0.3,0.2,0.5,0.5,0.5,0.7
						c0,0.1,0.1,0.4,0.4,0.6c0.3,0.2,0.8,0.6,0.9,0.9c0.1,0.3,0.3,0.5,0.5,0.6c0.2,0.1,0.3,0.4,0.5,0.5c0.1,0.1,0.2,0.2,0.2,0.3
						c0.1,0,0.1,0,0.2,0.1c0.3,0.1,0.4-0.1,0.9,0c0.4,0.1,0.4,0,0.3-0.1c0-0.1-0.1-0.1-0.2-0.2C80.6,80.7,80.2,80.2,80,79.8z"/>
					<path class="st5" d="M79.4,80.9c-0.2-0.1-0.3-0.4-0.5-0.5c-0.2-0.1-0.4-0.4-0.5-0.6c-0.1-0.3-0.6-0.8-0.9-0.9
						c-0.3-0.2-0.4-0.4-0.4-0.6c0-0.1-0.2-0.5-0.5-0.7c-0.1-0.1-0.2-0.3-0.4-0.5c-0.1-0.1-0.2-0.3-0.4-0.4c-0.2-0.1-0.5-0.2-0.8-0.2
						c-0.2,0-0.6,0.2-0.7,0.3c-0.1,0.1-0.2,0.2-0.4,0.4c0.1,0.1,0.1,0.2,0.2,0.2c0.4,0.5,1,1.3,1.3,1.4c0.3,0.2,1.1,1.2,1.4,1.4
						c0.2,0.1,0.8,0.9,1,1.1c0.1,0,0.3,0,0.4-0.1c0.1-0.1,0.5,0,0.9,0c0.2,0,0.3-0.1,0.3-0.1C79.5,81,79.4,80.9,79.4,80.9z"/>
				</g>
				<path class="st16" d="M84.6,80.7c0.1,0,0.1,0,0.2,0c0.1,0,0.1-0.2-0.1-0.3c-0.2-0.1-0.5-0.3-0.7-0.3c-0.2,0-0.8-0.8-1.2-1
					c-0.4-0.2-1.1-1-1.6-1.1c-0.4-0.1-0.9-0.5-1.2-0.8c-0.1-0.2-0.3-0.2-0.5-0.2c0.2-0.1,0.4,0.5,0.6,0.6c0.3,0.1,0.5,0.4,0.6,0.6
					c0.1,0.2,0.2,0.4,0.4,0.5c0.1,0.1,0.4,0.4,0.5,0.6c0.1,0.3,0.3,0.4,0.5,0.4s0.5,0,0.5,0.2c0,0.2,0.2,0.4,0.5,0.4
					c0.2,0,0.4,0,0.5,0s0.4,0.1,0.3,0.2c-0.1,0.1,0,0.2,0.3,0.2C84.3,80.7,84.5,80.5,84.6,80.7z"/>
				<path class="st16" d="M82.7,80.8c0-0.1-0.1-0.2-0.1-0.2c-0.2-0.1-0.5-0.6-0.9-0.7c-0.4-0.2-0.8-1-1.1-1.2
					c-0.4-0.1-0.8-1.1-1-1.2c-0.1-0.1-0.2-0.1-0.4-0.3c-0.1-0.1-0.1-0.1-0.2-0.3c-0.3-0.4-0.5-0.2-0.6-0.1c-0.1,0.1-0.2,0.3-0.4,0.4
					c0,0.1,0.1,0.1,0.1,0.1c0.2-0.2,0.2-0.1,0.4-0.3c0.1-0.1,0.3-0.5,0.5-0.1c0.2,0.4,0.6,0.6,0.6,0.9c0.1,0.3,0.2,0.4,0.3,0.6
					c0.1,0.2,0.1,0.3,0.3,0.3c0.2,0,0.6,0.6,0.5,0.7s-0.3,0.3,0,0.3C81,79.9,81,80,81,80.1s0.1,0.3,0.3,0.3c0.1,0,0.5,0.1,0.5,0.2
					s0.2,0.2,0.3,0.2s0,0.1,0.2,0.1C82.4,80.8,82.6,80.7,82.7,80.8z"/>
				<path class="st16" d="M79.4,80.9c-0.2-0.1-0.3-0.4-0.5-0.5c-0.2-0.1-0.4-0.4-0.5-0.6c-0.1-0.3-0.6-0.8-0.9-0.9
					c-0.3-0.2-0.4-0.4-0.4-0.6c0-0.1-0.2-0.5-0.5-0.7c-0.1-0.1-0.2-0.3-0.4-0.5c-0.1-0.1-0.2-0.3-0.4-0.4c-0.2-0.1-0.5-0.2-0.8-0.2
					c-0.2,0-0.4,0.1-0.6,0.2c0.4-0.1,0.5,0.3,0.6,0.2s0.4,0.2,0.5,0.4c0.1,0.3,0.1,0.5,0.4,0.6s0.9,0.8,0.9,0.9
					c0.2-0.2,0.6,0.2,0.8,0.4c0.1,0.1,0.1,0.4-0.1,0.3c-0.3-0.1-0.4,0.1-0.1,0.2c0.3,0.1,0.4,0.4,0.6,0.4c0.3,0.1,0.4,0.2,0.3,0.3
					c-0.1,0.1,0.2,0.1,0.1,0.2c-0.1,0.1,0.2,0.1,0.3,0.1C79,80.6,79.1,80.9,79.4,80.9z"/>
				<path class="st16" d="M80.9,81c0,0-0.1-0.1-0.1-0.1c-0.2-0.2-0.6-0.7-0.8-1.1c-0.2-0.4-0.6-0.7-0.7-0.9
					c-0.1-0.2-0.6-0.7-0.8-0.9c-0.2-0.1-0.5-0.6-0.6-0.8c0,0,0-0.1,0-0.1c0-0.2-0.5-0.4-0.7-0.5c-0.2-0.1-0.2-0.1-0.5,0
					c-0.1,0.1-0.3,0.1-0.4,0.2c0.3,0,0.5,0,0.5,0.1c0,0.1,0.2,0.1,0.3,0.1c0.1-0.1,0.4,0.1,0.4,0.5c0,0.4,0.2,0.6,0.4,0.6
					c0.2,0.1,0.3,0.2,0.3,0.4c0,0.1,0.1,0.2,0.3,0.2c0.1,0.1,0.3,0.1,0.4,0.2c0.1,0,0.3,0.5,0.2,0.4c-0.1-0.1-0.2,0.3,0.1,0.5
					c0.3,0.1,0.7,0.3,0.8,0.5c0.1,0.2,0.2,0.3,0.3,0.2c0.1-0.1,0.4,0.1,0.3,0.1C80.4,80.9,80.4,81,80.9,81z"/>
				<path class="st5" d="M66.9,81.6c0.2-0.1,0.4-0.2,0.6-0.1c0.3,0.1,0.5,0.1,0.6,0c0.1-0.1,0.5-0.1,0.7,0.1
					c0.2,0.1,0.6,0.1,0.9-0.1c0.3-0.1,0.8-0.1,1.2,0c0.4,0.1,0.8-0.2,1.3,0c0.5,0.2,0.6-0.1,1-0.1c0.4,0.1,1-0.2,1.6,0
					c0.6,0.2,0.5,0,0.9,0c0.4,0,1.5-0.1,2.1-0.1c0,0,0,0-0.1-0.1c-0.3-0.3-0.8-1-1-1.1c-0.3-0.1-1.1-1.2-1.4-1.4
					c-0.3-0.2-0.9-1-1.3-1.4c-0.1-0.1-0.1-0.2-0.2-0.2c-0.3-0.4-0.6-0.9-0.9-1.1c-0.2-0.4-0.5-0.3-0.7-0.4c-0.2-0.1-0.4,0-0.6,0.1
					c-0.4,0.2-1.4,0.9-1.7,1.4c-0.3,0.5-2,2.1-3.3,3.1l-0.8,1.4C66.3,81.6,66.7,81.7,66.9,81.6z"/>
				<path class="st16" d="M77.8,81.1c-0.3-0.3-0.7-0.9-0.9-1c-0.3-0.1-1.1-1.2-1.4-1.4c-0.3-0.2-0.9-1-1.3-1.4
					c-0.1-0.1-0.1-0.2-0.2-0.2c-0.3-0.4-0.6-0.9-0.9-1.1c-0.2-0.4-0.5-0.3-0.7-0.4c-0.2-0.1-0.4,0-0.6,0.1c0.2-0.1,0.4,0.1,0.6,0.1
					c0.2,0,0.3,0.1,0.5,0.3c0.2,0.1,0.6,0.6,0.6,0.9c0,0.2,0.3,0.6,0.5,0.8c0.2,0.1,0.6,0.5,0.6,0.7c0.1,0.2,0.3,0.4,0.5,0.5
					c0.2,0.1,0.4,0.5,0.6,0.6c0.2,0.1,0.6,0.5,0.8,0.7C76.9,80.5,77.5,80.7,77.8,81.1z"/>
				<path d="M73.3,81.8c0.5,0.1,0.9-0.1,1.3,0c0.4,0.1,0.8-0.1,1-0.1c0.6,0.1,1.4,0.1,1.6-0.1c0.6,0.1,1.7,0.2,2.4,0
					c0.6,0.1,0.9-0.1,1.2,0c0.3,0.1,0.7-0.1,1-0.1c0.7,0.1,1.9,0,2.4-0.1c0.3,0.1,0.3,0.1,0.6,0.1c0.3-0.1,0.8,0,1,0.1
					c-0.5-0.1-1.1,0.2-1.6-0.1c-0.8,0.3-1.3,0.5-2.3,0.1c-0.9,0.2-1.4,0-1.9,0.1c-0.5,0.1-2.1,0-2.6-0.1c-0.8,0.2-1.5,0.2-1.8,0.1
					c-0.4,0.1-0.8,0.1-1.1,0.1C74.2,82,73.6,81.9,73.3,81.8z"/>
				<path d="M78.3,82.1c0.2,0.1,1,0.2,1.4,0.1c0.3,0.1,0.6,0.1,0.9,0c0.4,0.1,1.1,0,1.5,0c0.5,0.1,0.8,0.1,1.2,0
					c0.3,0.1,0.6,0,0.9-0.1c0.2,0.1,0.6,0.1,0.9,0c0.3,0.1,0.6,0.1,0.9,0.1c-0.2,0-0.6-0.1-0.9-0.2c-0.3,0.1-0.7,0.1-0.9,0
					c-0.4,0.1-0.6,0.2-0.9,0.1c-0.4,0.1-0.6,0.1-1.1,0c-0.4,0-1.2,0.1-1.6,0.1c-0.3,0.1-0.6,0.1-0.9,0
					C79.2,82.3,78.5,82.2,78.3,82.1z"/>
				<path d="M67.5,82.1c0.3,0,0.5,0,0.6-0.1c0.2,0.1,0.5,0.1,0.8,0.1c0.6,0.1,1,0.2,1.5,0.1c0.3,0.1,0.8,0,0.9,0
					c0.3,0.1,0.8,0.1,1,0c0.3,0.1,0.6,0.1,0.8,0c0.3,0.1,0.5,0.1,0.8,0c0.6,0,1.5,0,1.8,0c0.4,0.1,0.7,0,0.8-0.1
					c-0.1,0.1-0.5,0.1-0.9-0.1c-0.3,0.1-1.2,0.1-1.8,0c-0.2,0.1-0.5,0.1-0.8,0c-0.2,0.1-0.5,0.1-0.8,0c-0.2,0.1-0.7,0.1-1,0
					c-0.2,0-0.6,0.1-0.9,0c-0.4,0.1-0.9,0-1.5-0.1c-0.3,0-0.6,0.1-0.8-0.1C67.9,81.9,67.8,82.1,67.5,82.1z"/>
				<path d="M85.3,81.1c-0.2,0.1-0.7,0.2-1,0.1c-0.3,0.1-0.9,0.1-1,0.1s-0.1,0-0.3,0.1c-0.2,0.1-0.3,0.1-0.4,0c-0.1,0-0.1-0.1-0.4,0
					c-0.2,0.1-0.4,0.1-0.5,0s-0.5,0-0.8,0c0.3-0.1,0.7-0.1,0.8-0.1c0.1,0.1,0.3,0,0.5,0c0.2-0.1,0.3,0,0.4,0c0.1,0,0.2,0.1,0.4,0
					c0.2-0.1,0.2-0.1,0.3-0.1s0.8,0.1,1-0.1C84.6,81.3,85.1,81.3,85.3,81.1z"/>
				<path class="st17" d="M78.9,69.6c-1.5-0.6-3.9-0.9-5.9,0.1l0.3-0.5c1.8-0.7,4-0.6,5.4-0.1L78.9,69.6z"/>
				<path class="st18" d="M79.4,70.4c-1.5-0.9-4.4-1.5-7,0.1l0.3-0.5c2.3-1.4,4.9-0.9,6.4-0.1L79.4,70.4z"/>
				<path class="st19" d="M79.9,71.3c-1.6-1.2-5-2.1-8,0.1l0.3-0.5c2.8-2,5.9-1.2,7.5-0.1L79.9,71.3z"/>
				<path class="st20" d="M78.7,69.1c-1.4-0.5-3.6-0.6-5.4,0.1l0.3-0.5c1.5-0.4,3.5-0.4,4.9-0.1L78.7,69.1z"/>
				<path class="st15" d="M79.2,70c-1.5-0.8-4.2-1.2-6.4,0.1l0.3-0.5c2-1.1,4.5-0.7,5.9-0.1L79.2,70z"/>
				<path class="st14" d="M79.7,70.9c-1.6-1.1-4.7-1.8-7.5,0.1l0.3-0.5c2.5-1.7,5.4-1,7-0.1L79.7,70.9z"/>
				<g>
					<g>
						<path class="st20" d="M72.5,74.5l0.8,0v0.1l-0.6,0v0.1h-0.1C72.6,74.7,72.6,74.6,72.5,74.5L72.5,74.5z"/>
					</g>
					<g>
						<path class="st20" d="M72.7,73.8l-0.1,0.3c0.1,0,0.1,0,0.1,0.1c-0.1-0.1,0.1-0.3,0.3-0.3c0.2,0,0.3,0.2,0.2,0.3
							c0,0.1-0.1,0.2-0.3,0.1l0-0.1c0.1,0,0.1,0,0.1-0.1c0-0.1-0.1-0.1-0.1-0.1c-0.2,0-0.2,0.1-0.1,0.2l0,0.1
							c-0.1-0.1-0.3-0.1-0.4-0.1l0.1-0.4H72.7z"/>
					</g>
					<g>
						<path class="st20" d="M73.5,73.2C73.5,73.3,73.5,73.3,73.5,73.2L73,73c0,0,0.1-0.1,0.1-0.1c0,0,0.1-0.1,0.3,0
							C73.6,73.1,73.6,73.2,73.5,73.2l0.1,0c0.1-0.1,0-0.4-0.2-0.5c-0.3-0.2-0.4,0-0.5,0c-0.1,0.1-0.1,0.2-0.1,0.2l0.7,0.4
							c0,0,0.1-0.1,0.2-0.3H73.5z"/>
					</g>
					<g>
						<polygon class="st20" points="73.8,72.1 73.6,72.3 73.7,72.5 73.9,72.2 74,72.4 73.8,72.6 73.9,72.7 74.2,72.5 74.3,72.6 
							73.9,72.9 73.4,72.3 73.7,72 						"/>
					</g>
					<g>
						<path class="st20" d="M74.8,71.6c0-0.1-0.1-0.1-0.2-0.1c-0.1,0-0.1,0.1-0.1,0.1c0,0,0.1,0.1,0.2,0s0.3,0,0.3,0.1
							c0.1,0.1,0,0.3-0.1,0.4c-0.2,0.1-0.3,0-0.4-0.1l0.1-0.1c0,0.1,0.1,0.1,0.2,0.1C75,72,75,72,75,71.9c0-0.1-0.1-0.1-0.2-0.1
							c-0.2,0.1-0.3,0-0.3-0.1s-0.1-0.2,0.1-0.3c0.2-0.1,0.3,0,0.4,0.1L74.8,71.6z"/>
					</g>
					<g>
						<polygon class="st20" points="75.7,71.3 75.3,71.4 75.3,71.5 75.7,71.5 75.7,71.6 75.4,71.7 75.4,71.9 75.8,71.8 75.8,72 
							75.3,72.1 75.1,71.2 75.6,71.1 						"/>
					</g>
					<g>
						<path class="st20" d="M76.1,71.5l0-0.3c0,0,0.1,0,0.1,0c0.1,0,0.1,0.1,0.1,0.1c0,0.1-0.1,0.1-0.1,0.1
							C76.1,71.5,76.1,71.5,76.1,71.5v0.1c0,0,0.1,0,0.2,0c0.1,0,0.2-0.1,0.2-0.3c0-0.1-0.1-0.3-0.2-0.3c-0.2,0-0.3,0-0.3,0
							l-0.1,0.8h0.1L76.1,71.5L76.1,71.5z"/>
					</g>
					<g>
						<polygon class="st20" points="78.4,72.1 78.1,71.9 78,72.1 78.2,72.3 78.1,72.4 77.9,72.2 77.7,72.4 78,72.6 77.9,72.7 
							77.5,72.4 78,71.7 78.4,72 						"/>
					</g>
					<g>
						<path class="st20" d="M79.1,72.8l-0.7,0.5l-0.1-0.1l0.5-0.3l-0.1-0.1l0.1-0.1C78.8,72.7,78.9,72.8,79.1,72.8L79.1,72.8z"/>
					</g>
					<g>
						<path class="st20" d="M79.2,73.3c0-0.1-0.1-0.1-0.1-0.1c-0.1,0-0.1,0.1-0.1,0.1c0,0.1,0.1,0.1,0.1,0.1
							C79.2,73.4,79.3,73.4,79.2,73.3l0.1-0.1c0,0.1,0,0.2-0.1,0.3c-0.1,0-0.1,0-0.2,0c0,0.1-0.1,0.1-0.1,0.2c-0.1,0-0.3,0-0.3-0.1
							l0.1-0.1c0,0.1,0.1,0.1,0.1,0.1c0.1,0,0.1-0.1,0.1-0.1c0-0.1-0.1-0.1-0.2,0c-0.1,0-0.1,0.1-0.1,0.1l-0.1,0.1
							c-0.1-0.1,0-0.3,0.1-0.3c0.1,0,0.1,0,0.2,0c0,0,0-0.1,0.1-0.1c0.1-0.1,0.2,0,0.3,0.1L79.2,73.3z"/>
					</g>
					<g>
						<path class="st20" d="M79.2,73.8c0.1,0,0.3,0,0.4,0.1s-0.1,0.3-0.2,0.3c-0.3,0.1-0.4-0.2-0.5-0.2l0.1,0.3l-0.1,0l-0.1-0.4
							c0.2,0,0.3,0.1,0.4,0.1c0.1,0.1,0.1,0.1,0.3,0.1c0.1,0,0.1-0.1,0.1-0.1s-0.1-0.1-0.2-0.1L79.2,73.8z"/>
					</g>
					<g>
						<path class="st20" d="M79.6,74.7h-0.8v-0.1h0.6v-0.1h0.1C79.5,74.5,79.5,74.6,79.6,74.7L79.6,74.7z"/>
					</g>
					<g>
						<path class="st20" d="M77.1,72c0,0-0.1-0.1-0.1-0.1l0.2-0.5c0,0,0.1,0,0.1,0.1c0,0,0.1,0.1,0.1,0.3
							C77.3,72.1,77.2,72.1,77.1,72l0,0.1c0.1,0.1,0.3-0.1,0.4-0.3c0.1-0.3,0-0.4-0.1-0.5s-0.2-0.1-0.3-0.1l-0.4,0.8
							c0,0,0.1,0.1,0.3,0.1L77.1,72z"/>
					</g>
				</g>
				<g>
					<path class="st3" d="M76.3,94.4c-0.1,0-0.1,0.1-0.2,0.1c0.3,0.3,0.4,0.9,0.5,1.2c0.1,0.5-0.1,0.8-0.1,1.9
						c0.1-0.2,0.2-0.5,0.4-0.7l0,0C76.8,96,76.8,95,76.3,94.4z"/>
					<path class="st3" d="M74.1,97C74.1,97,74.1,96.9,74.1,97c0.1,0.1,0.1,0.2,0.2,0.3c0.1-0.4,0.3-1.4,0.4-2.1
						c0.1-0.4,0.2-0.6,0.4-0.8c0,0-0.1-0.1-0.1-0.1C74.6,94.7,74.3,95.8,74.1,97z"/>
					<path class="st4" d="M74.1,97c0.2-1.2,0.6-2.3,1-2.7c0-0.1,0-0.1-0.1-0.1c-0.8,0.4-1.2,1.7-1.5,2.9l0,0c0,0,0.1-0.1,0.1-0.1
						c0.1-0.1,0.1-0.1,0.1-0.1c0,0,0.1,0,0.1-0.1C74,96.9,74.1,96.9,74.1,97C74.1,96.9,74.1,96.9,74.1,97
						C74.1,96.9,74.1,96.9,74.1,97z"/>
					<path class="st3" d="M73.4,91.3c-0.1-0.1-0.2-0.2-0.3-0.2c-0.2,0.4-0.1,1.4-0.1,1.8c0,0.1,0.1,0.3,0.1,0.3
						c0.1,0.1,0.2,0.1,0.4,0.1C73.3,92.8,73.2,91.7,73.4,91.3z"/>
					<path class="st3" d="M74.2,93.2C74,93.1,74,92.8,74,92.3c0,0,0,0,0-0.1c-0.1-0.2-0.2-0.4-0.4-0.6c-0.1,0.4-0.1,1.2,0.1,1.6
						C73.9,93.3,74,93.2,74.2,93.2z"/>
					<path class="st4" d="M73.7,93.3L73.7,93.3c-0.1-0.4-0.1-1.2-0.1-1.6l0,0c-0.1-0.1-0.2-0.3-0.3-0.4l0,0
						c-0.1,0.4-0.1,1.5,0.1,1.9l0,0C73.5,93.3,73.6,93.3,73.7,93.3z"/>
					<path class="st3" d="M75.1,93.6c0-0.1,0-0.1,0.1-0.1c-0.5-0.4-0.8-1.4-1-1.9c-0.2-0.5-0.4-1-0.7-0.8c0.1,0,0.1,0,0.1-0.1
						c-0.2,0.1-0.4,0.2-0.5,0.3l0,0l0,0c0.2-0.1,0.6,0.7,0.9,1.1C74.2,92.7,74.4,93.3,75.1,93.6z"/>
					<path class="st3" d="M74.4,91c0.2,0.3,0.4,1.3,0.8,2.4c0,0,0.1,0,0.1-0.1c-0.1-1-0.2-1.9-0.2-2.3s-0.6-0.6-1-0.4
						c-0.1,0-0.1,0-0.1,0.1C74.1,90.6,74.2,90.7,74.4,91z"/>
					<path class="st4" d="M74.1,91.7c0.2,0.4,0.5,1.5,1,1.9c0-0.1,0.1-0.1,0.1-0.1c-0.4-1.1-0.6-2.1-0.8-2.4
						c-0.2-0.3-0.3-0.4-0.5-0.4c-0.1,0-0.3,0.1-0.5,0.2C73.7,90.7,73.9,91.2,74.1,91.7z"/>
					<path class="st3" d="M77.5,93.4c0,0-0.1-0.1-0.1-0.1c-0.2,0.2-0.6,0.3-0.9,0.3c0,0,0,0,0,0.1c0,0.1,0,0.2,0,0.3
						c0.4-0.1,0.9-0.3,1.1-0.5C77.6,93.5,77.6,93.4,77.5,93.4z"/>
					<path class="st4" d="M77.6,93.7c0.2-0.1,0.2-0.1,0.1-0.2c-0.3,0.2-0.8,0.4-1.1,0.5c0,0.1,0,0.1,0,0.1
						C77.1,94.1,77.4,93.8,77.6,93.7z"/>
					<path class="st3" d="M76.5,92.4c0.2-0.6,0.3-0.5,0.3-0.4c0,0.1,0.1,0.5,0.1,0.7c0.2,0.4,0.3,0.5,0.6,0.6
						c0.2,0.1,0.3,0.1,0.1,0.3c-0.1,0.1-0.5,0.4-1.1,0.4c0,0.1,0,0.1-0.1,0.2c0.4,0,1.1-0.1,1.5-0.5c0.1-0.1,0.1-0.1-0.1-0.3
						c-0.2-0.2-0.8-0.9-0.9-1.6c-0.1-0.5-0.3-0.4-0.6,0.4c0-0.1,0-0.1,0-0.2c-0.1,0.4-0.1,0.8-0.2,1.1c0,0,0.1,0,0.1,0
						C76.4,93,76.4,92.7,76.5,92.4z"/>
					<path class="st3" d="M75.1,94c-0.1,0-0.2,0-0.3,0c-0.9,0.6-1.3,2-1.7,3.2c0.2-0.1,0.3-0.2,0.5-0.3C73.9,95.8,74.3,94.5,75.1,94
						C75.1,94.1,75.1,94.1,75.1,94L75.1,94z"/>
					<path class="st3" d="M77.5,97.1c0.2,0.1,0.4,0.2,0.5,0.3c0.2-1.1-0.4-2.2-1.1-2.9c-0.1,0-0.2,0-0.3,0
						C77.1,95.2,77.4,96.4,77.5,97.1z"/>
					<path class="st4" d="M76.3,94.4L76.3,94.4L76.3,94.4c0.4,0.6,0.5,1.6,0.5,2.5c0,0,0.1-0.1,0.1-0.1c0,0,0,0,0.1-0.1s0,0,0.1-0.1
						c0,0,0,0,0.1-0.1c0.1,0.1,0.2,0.2,0.4,0.4l0,0c0-0.7-0.4-1.9-0.9-2.6C76.5,94.5,76.4,94.5,76.3,94.4z"/>
					<path class="st3" d="M75.1,94L75.1,94C75.1,94,75.1,94,75.1,94c0-0.1,0-0.1,0-0.1c0-0.1,0-0.2,0-0.3c-0.2-0.1-0.3-0.2-0.4-0.4
						c-0.7-0.1-1.5,0.1-1.6-0.1c0.1,0.4,0.2,1,1.8,0.9C74.9,94,75,94,75.1,94L75.1,94z"/>
					<path class="st3" d="M78.6,93.3c-0.3-0.4-0.7-1.3-0.9-1.9c-0.2-0.6-0.9-0.7-1.1,0.1c0,0.1-0.1,0.2-0.1,0.4
						c0.1-0.3,0.2-0.4,0.3-0.6c0.1-0.2,0.5-0.3,0.6,0.2c0.1,0.8,0.4,1.5,1,2c0.2,0.2,0.2,0.3-0.1,0.6c-0.3,0.2-0.8,0.4-1.4,0.4
						c-0.1,0-0.2,0-0.3-0.1c0,0,0,0-0.1,0l0,0l0,0c0,0,0,0,0,0c0,0,0,0,0,0l0,0c0.1,0,0.2,0.1,0.3,0.1c0.1,0,0.2,0,0.3,0
						c0.6,0.1,1.1-0.1,1.4-0.3C78.7,94,78.9,93.7,78.6,93.3z"/>
					<path class="st3" d="M76.7,93.4c0.1-0.1,0.1-0.1,0.1-0.2c0.1-0.1,0.1-0.1,0.1-0.2c0-0.1,0-0.1,0.1-0.1s0-0.1,0-0.1
						c-0.1-0.2-0.1-0.6-0.1-0.7c0-0.1-0.1-0.2-0.3,0.4c-0.1,0.3-0.1,0.6-0.2,0.9c0,0,0,0,0.1,0.1c0.1,0.1,0.1,0.2,0.1,0.4
						C76.6,93.6,76.6,93.5,76.7,93.4z"/>
					<path class="st4" d="M77,91.8c0.1,0.7,0.7,1.5,0.9,1.6c0.2,0.2,0.2,0.2,0.1,0.3c-0.4,0.4-1.1,0.5-1.5,0.5c0,0,0,0,0,0
						c0.7,0.2,1.4-0.1,1.7-0.3c0.3-0.3,0.3-0.4,0.1-0.6c-0.5-0.5-0.9-1.2-1-2c-0.1-0.6-0.5-0.4-0.6-0.2c-0.1,0.2-0.3,0.4-0.4,1
						C76.7,91.5,76.9,91.3,77,91.8z"/>
					<path class="st3" d="M76.3,94.4c0.1-0.1,0.2-0.2,0.2-0.3c0-0.3,0-0.7-0.1-0.8c-0.1-0.1-0.4,0-0.4,0c-0.1,0.1-0.2-0.1-0.4-0.1
						c-0.4,0.1-0.6,0.3-0.6,0.7v0c0.1,0.4,0.4,0.9,0.9,0.6C76.1,94.5,76.2,94.5,76.3,94.4z"/>
					<path class="st4" d="M76.4,93.3c-0.1-0.1-0.4,0-0.4,0c-0.1,0.1-0.2-0.1-0.3-0.1c-0.3,0-0.6,0.5-0.4,0.9
						c0.1,0.3,0.3,0.4,0.6,0.4c0.1,0,0-0.1-0.1-0.1c-0.1,0-0.3-0.2-0.3-0.4c0.1-0.2,0.1-0.1,0.1,0c0,0.1,0.1,0.3,0.2,0.4
						c0.1,0.1,0.3,0.1,0.1-0.1c-0.1-0.1-0.2-0.5-0.1-0.7C76,93.4,76.3,93.2,76.4,93.3z"/>
				</g>
				<polygon class="st8" points="65.6,82.5 76,64.5 86.4,82.5 				"/>
			</g>
		</g>
	</g>
</g>
<circle class="st21" cx="76" cy="76" r="75"/>
</svg>
