<?xml version="1.0" encoding="utf-8"?>
<!-- Generator: Adobe Illustrator 24.2.3, SVG Export Plug-In . SVG Version: 6.00 Build 0)  -->
<svg version="1.1" id="Capa_1" xmlns:serif="http://www.serif.com/"
	 xmlns="http://www.w3.org/2000/svg" xmlns:xlink="http://www.w3.org/1999/xlink" x="0px" y="0px" viewBox="0 0 152 152"
	 style="enable-background:new 0 0 152 152;" xml:space="preserve">
<style type="text/css">
	.st0{fill-rule:evenodd;clip-rule:evenodd;fill:#003876;}
	.st1{fill-rule:evenodd;clip-rule:evenodd;fill:#FFFFFF;}
	.st2{fill:#E1393E;}
	.st3{fill-rule:evenodd;clip-rule:evenodd;fill:#E1393E;}
	.st4{fill:#FFFFFF;}
	.st5{fill:none;stroke:#515151;stroke-width:2;stroke-linecap:square;stroke-miterlimit:36;}
</style>
<circle class="st0" cx="76" cy="76" r="75"/>
<path id="bandera-australia" class="st1" d="M96.2,5.6v8.8L65.4,29.8h30.8V54H65.4l30.8,15.4v8.8H78.5L35.6,56.9v21.4H11.5V56.9
	l-9,4.5c4-20.4,16.3-37.8,33.2-48.6V27L78.5,5.6L96.2,5.6L96.2,5.6z"/>
<path class="st2" d="M84.8,5.6L36.3,29.8H48L96.2,5.6C96.2,5.6,84.8,5.6,84.8,5.6z"/>
<path class="st2" d="M96.2,78.3L47.9,54h11.7l36.7,18.5L96.2,78.3L96.2,78.3z"/>
<path id="bandera-australia1" serif:id="bandera-australia" class="st3" d="M4.3,54h6.8L3.2,58C3.5,56.7,3.9,55.3,4.3,54z"/>
<path id="bandera-australia2" serif:id="bandera-australia" class="st3" d="M30.8,16.2v18.7h65.4V49H30.8v29.3H16.6V49H6
	c1.9-5,4.4-9.8,7.3-14.2h3.3v-4.6C20.7,24.9,25.5,20.2,30.8,16.2L30.8,16.2z"/>
<path id="bandera-australia3" serif:id="bandera-australia" class="st1" d="M11.4,114.1l2.8-1.7L6.7,101l12.8,4.9l4.2-13l4.2,13
	l12.9-4.9l-7.6,11.4l11.7,7l-13.6,1.2l1.9,13.5l-9.5-9.9L21,127c-1.8-1.9-3.4-3.9-5-6l0.1-0.5l-0.5,0
	C14.1,118.5,12.7,116.3,11.4,114.1L11.4,114.1z"/>
<path class="st4" d="M134.8,65l6.1-2.3l-3.6,5.4l5.5,3.3l-6.4,0.6l0.9,6.4l-4.5-4.7l-4.5,4.7l0.9-6.4l-6.4-0.6l5.5-3.3l-3.6-5.4
	l6.1,2.3l2-6.2L134.8,65L134.8,65z"/>
<circle class="st5" cx="76" cy="76" r="75"/>
</svg>
