<?xml version="1.0" encoding="utf-8"?>
<!-- Generator: Adobe Illustrator 24.2.3, SVG Export Plug-In . SVG Version: 6.00 Build 0)  -->
<svg version="1.1" id="Capa_1" xmlns:serif="http://www.serif.com/"
	 xmlns="http://www.w3.org/2000/svg" xmlns:xlink="http://www.w3.org/1999/xlink" x="0px" y="0px" viewBox="0 0 150 150"
	 style="enable-background:new 0 0 150 150;" xml:space="preserve">
<style type="text/css">
	.st0{fill-rule:evenodd;clip-rule:evenodd;fill:#004990;}
	.st1{fill-rule:evenodd;clip-rule:evenodd;fill:#FFFFFF;}
	.st2{fill:#ED1B2D;}
	.st3{fill-rule:evenodd;clip-rule:evenodd;fill:#ED1B2D;}
	.st4{fill:#FFFFFF;}
	.st5{fill:none;stroke:#515151;stroke-width:2;stroke-linecap:square;stroke-miterlimit:36;}
</style>
<circle class="st0" cx="75" cy="76.3" r="75"/>
<path id="bandera-nueva-zalandia" class="st1" d="M95.6,5.9v8.8L64.8,30.1h30.8v24.2H64.8l30.8,15.4v8.8H77.9L35,57.2v21.4H10.8
	V57.2l-9.4,4.7c4-20.6,16.5-38.2,33.6-49v14.4L77.9,5.9L95.6,5.9L95.6,5.9z"/>
<path class="st2" d="M84.2,5.9L35.7,30.1h11.6L95.6,5.9C95.6,5.9,84.2,5.9,84.2,5.9z"/>
<path class="st2" d="M95.6,78.6L47.2,54.3h11.7l36.7,18.5V78.6z"/>
<path id="bandera-nueva-zalandia1" serif:id="bandera-nueva-zalandia" class="st3" d="M30.1,16.2v18.9h65.4v14.2H30.1v29.2H15.9
	V49.3H5c1.9-5,4.4-9.8,7.3-14.2h3.6v-5C20,24.8,24.8,20.2,30.1,16.2L30.1,16.2z"/>
<path class="st4" d="M134.9,58l-2.6,8.1h-8.6l7,5.1l-2.7,8.1l6.9-5.1l6.9,5.1l-2.7-8.2l7-5h-8.6L134.9,58z"/>
<path class="st2" d="M134.9,61.9l-1.7,5.3h-5.6l4.5,3.3l-1.7,5.2l4.5-3.3l4.5,3.3l-1.7-5.3l4.5-3.2h-5.5L134.9,61.9L134.9,61.9z"/>
<circle class="st5" cx="75" cy="76.3" r="75"/>
</svg>
