<?xml version="1.0" encoding="utf-8"?>
<!-- Generator: Adobe Illustrator 24.2.3, SVG Export Plug-In . SVG Version: 6.00 Build 0)  -->
<svg version="1.1" id="Capa_1" xmlns:serif="http://www.serif.com/"
	 xmlns="http://www.w3.org/2000/svg" xmlns:xlink="http://www.w3.org/1999/xlink" x="0px" y="0px" viewBox="0 0 152 152"
	 style="enable-background:new 0 0 152 152;" xml:space="preserve">
<style type="text/css">
	.st0{fill-rule:evenodd;clip-rule:evenodd;fill:#FFFFFF;}
	.st1{fill:#0060A9;}
	.st2{fill:#ED1B2D;}
	.st3{fill:#231F20;}
	.st4{fill:none;stroke:#515151;stroke-width:2;stroke-linecap:square;stroke-miterlimit:36;}
</style>
<circle id="bandera-corea-sur" class="st0" cx="76" cy="76" r="75"/>
<path class="st1" d="M100.6,91.7c-8.4,13.6-26.6,17.1-39.9,8.5c-13.4-8.7-17.1-26.6-8.4-39.9C44,73.7,61.9,91,76.5,76
	C91,61,108.9,78.2,100.6,91.7"/>
<path class="st2" d="M52.3,60.3c8.4-13.6,26.6-17.1,39.9-8.5c13.4,8.7,17.1,26.6,8.4,39.9C109,78.2,91,61,76.5,76
	C61.9,91,44,73.7,52.3,60.3"/>
<path class="st3" d="M120.5,64l4-2.7l-7.3-11l-4,2.7L120.5,64z M111.8,51l4-2.7l-7.3-11l-4,2.7L111.8,51z M132.5,56l4-2.7l-7.3-11
	l-4,2.7L132.5,56z M123.8,43l4-2.7l-7.3-11l-4,2.7L123.8,43z M126.5,60l4-2.7l-16-24l-4,2.7L126.5,60L126.5,60z M32.5,122.6l4-2.7
	l-16-24l-4,2.7L32.5,122.6z M44.5,114.6l4-2.7l-16-24l-4,2.7L44.5,114.6z M38.5,118.6l4-2.7l-7.3-11l-4,2.7L38.5,118.6z M29.8,105.6
	l4-2.7l-7.3-11l-4,2.7L29.8,105.6z M48.5,40l-4-2.7l-16,24l4,2.7L48.5,40z M42.5,36l-4-2.7l-16,24l4,2.7L42.5,36z M36.5,32l-4-2.7
	l-16,24l4,2.7L36.5,32L36.5,32z M136.5,98.6l-4-2.7l-7.3,11l4,2.7L136.5,98.6z M127.8,111.6l-4-2.7l-7.3,11l4,2.7L127.8,111.6z
	 M130.5,94.6l-4-2.7l-7.3,11l4,2.7L130.5,94.6L130.5,94.6z M121.8,107.6l-4-2.7l-7.3,11l4,2.7L121.8,107.6z M124.5,90.6l-4-2.7
	l-7.3,11l4,2.7L124.5,90.6L124.5,90.6z M108.5,114.6l-4-2.7l7.3-11l4,2.7L108.5,114.6z"/>
<circle class="st4" cx="76" cy="76" r="75"/>
</svg>
