<?xml version="1.0" encoding="utf-8"?>
<!-- Generator: Adobe Illustrator 24.2.3, SVG Export Plug-In . SVG Version: 6.00 Build 0)  -->
<svg version="1.1" id="Capa_1" xmlns:serif="http://www.serif.com/"
	 xmlns="http://www.w3.org/2000/svg" xmlns:xlink="http://www.w3.org/1999/xlink" x="0px" y="0px" viewBox="0 0 150 150"
	 style="enable-background:new 0 0 150 150;" xml:space="preserve">
<style type="text/css">
	.st0{fill-rule:evenodd;clip-rule:evenodd;fill:#FFFFFF;}
	.st1{fill-rule:evenodd;clip-rule:evenodd;fill:#303996;}
	.st2{fill-rule:evenodd;clip-rule:evenodd;fill:#ED1C24;}
	.st3{fill:none;stroke:#515151;stroke-width:2;stroke-linecap:square;stroke-miterlimit:37.5;}
</style>
<path class="st0" d="M46.3,7.1C55.1,3.4,64.8,1.4,75,1.4c13.7,0,26.5,3.7,37.6,10.4v129.1c-10.9,6.7-23.5,10.3-37.6,10.4l-15.1-1.5
	l-13.6-4.2L46.3,7.1L46.3,7.1z"/>
<path class="st1" d="M46.3,7.1v138.5C19.1,134.3,0,107.6,0,76.4S19.1,18.4,46.3,7.1z"/>
<path class="st2" d="M112.6,11.8C134.9,24.4,150,48.6,150,76.4s-15.1,51.9-37.4,64.6L112.6,11.8L112.6,11.8z"/>
<circle class="st3" cx="75" cy="76.4" r="75"/>
</svg>
