<?xml version="1.0" encoding="utf-8"?>
<!-- Generator: Adobe Illustrator 24.2.3, SVG Export Plug-In . SVG Version: 6.00 Build 0)  -->
<svg version="1.1" id="Capa_1" xmlns:serif="http://www.serif.com/"
	 xmlns="http://www.w3.org/2000/svg" xmlns:xlink="http://www.w3.org/1999/xlink" x="0px" y="0px" viewBox="0 0 152 152"
	 style="enable-background:new 0 0 152 152;" xml:space="preserve">
<style type="text/css">
	.st0{fill-rule:evenodd;clip-rule:evenodd;fill:#ED1C24;}
	.st1{fill-rule:evenodd;clip-rule:evenodd;fill:#FFF200;}
	.st2{fill-rule:evenodd;clip-rule:evenodd;fill:#231F20;}
	.st3{fill:none;stroke:#515151;stroke-width:2;stroke-linecap:square;stroke-miterlimit:36;}
</style>
<path class="st0" d="M117.8,13.7C137.7,27.1,151,50,151,76s-13.3,48.9-33.2,62.3V13.7z"/>
<path class="st1" d="M76,1c15.5,0.1,29.9,4.8,41.8,12.7v124.5c-12,8.1-26.4,12.7-41.8,12.7c-14.4,0-27.8-4.1-39.1-11.3V12.3
	C48,5.2,61.3,1.1,76,1L76,1z"/>
<path class="st2" d="M36.9,12.3v127.4C15.3,126.7,1,103,1,76S15.3,25.3,36.9,12.3L36.9,12.3z"/>
<circle class="st3" cx="76" cy="76" r="75"/>
</svg>
