<?xml version="1.0" encoding="utf-8"?>
<!-- Generator: Adobe Illustrator 24.2.3, SVG Export Plug-In . SVG Version: 6.00 Build 0)  -->
<svg version="1.1" id="Capa_1" xmlns:serif="http://www.serif.com/"
	 xmlns="http://www.w3.org/2000/svg" xmlns:xlink="http://www.w3.org/1999/xlink" x="0px" y="0px" viewBox="0 0 152 152"
	 style="enable-background:new 0 0 152 152;" xml:space="preserve">
<style type="text/css">
	.st0{fill-rule:evenodd;clip-rule:evenodd;fill:#FFFFFF;}
	.st1{fill-rule:evenodd;clip-rule:evenodd;fill:#231F20;}
	.st2{fill-rule:evenodd;clip-rule:evenodd;fill:#008348;}
	.st3{fill-rule:evenodd;clip-rule:evenodd;fill:#ED1B2D;}
	.st4{fill:#FFFFFF;}
	.st5{fill:none;stroke:#515151;stroke-width:2;stroke-linecap:square;stroke-miterlimit:36;}
</style>
<path class="st0" d="M146.4,51c3.1,7.9,4.6,16.3,4.6,25s-1.5,17.1-4.6,25H81.2l48.1-25L81.2,51H146.4L146.4,51z"/>
<path class="st1" d="M76,1c32.7,0.2,60.3,20.9,70.4,50H81.2L24.7,21.6C37.8,8.9,55.7,1.2,76,1L76,1z"/>
<path class="st2" d="M146.4,101c-9.9,29.1-37.7,50-70.4,50c-19.9,0-38.1-7.8-51.3-20.6L81.2,101H146.4L146.4,101z"/>
<path class="st3" d="M129.3,76L24.7,130.4c-8.7-8.2-15.3-18.2-19-29.4C2.5,93.4,1,84.9,1,76s1.5-17.4,4.7-25l0-0.1
	c3.8-11.5,10.4-21.4,18.9-29.3L129.3,76L129.3,76z"/>
<path class="st4" d="M42.2,70.7l5.8-1.2l-2.5,5.3l4.6,3.8L44.3,80l-0.1,5.9l-4.6-3.6l-4.7,3.6L34.8,80l-5.8-1.4l4.6-3.7l-2.5-5.3
	l5.8,1.2l2.6-5.3L42.2,70.7L42.2,70.7z"/>
<circle class="st5" cx="76" cy="76" r="75"/>
</svg>
