<?xml version="1.0" encoding="utf-8"?>
<!-- Generator: Adobe Illustrator 24.2.3, SVG Export Plug-In . SVG Version: 6.00 Build 0)  -->
<svg version="1.1" id="Capa_1" xmlns:serif="http://www.serif.com/"
	 xmlns="http://www.w3.org/2000/svg" xmlns:xlink="http://www.w3.org/1999/xlink" x="0px" y="0px" viewBox="0 0 152 152"
	 style="enable-background:new 0 0 152 152;" xml:space="preserve">
<style type="text/css">
	.st0{fill-rule:evenodd;clip-rule:evenodd;fill:#ED1B2D;}
	.st1{fill-rule:evenodd;clip-rule:evenodd;fill:#ECB800;}
	.st2{fill:#FFD047;}
	.st3{fill:#8D5E07;}
	.st4{fill:none;stroke:#515151;stroke-width:2;stroke-linecap:square;stroke-miterlimit:37.5;}
	.st5{fill-rule:evenodd;clip-rule:evenodd;fill:#EBEBEB;}
	.st6{fill-rule:evenodd;clip-rule:evenodd;fill:#D31145;}
	.st7{fill:#ECB800;}
	.st8{fill-rule:evenodd;clip-rule:evenodd;fill:#908A9F;}
	.st9{fill-rule:evenodd;clip-rule:evenodd;fill:#333333;}
	.st10{fill:#ED1B2D;}
</style>
<path class="st0" d="M140.6,113.5C128,135.7,104.1,150.7,76,151c-27.8-0.2-51.8-15.1-64.6-37.5H140.6z"/>
<path class="st0" d="M11.4,38.5C24.1,16,48.3,1,76,1s51.9,15,64.6,37.5C140.6,38.5,11.4,38.5,11.4,38.5z"/>
<path class="st1" d="M140.6,113.5H11.4C4.7,102.5,1,89.7,1,76s3.7-26.5,10.4-37.5h129.2c6.7,11,10.4,23.8,10.4,37.5
	C151,89.5,147.4,102.1,140.6,113.5z"/>
<ellipse class="st0" cx="78.7" cy="61" rx="15.5" ry="5.6"/>
<path class="st2" d="M89.2,63.4c1.8,0.2,1.7,4.4,0.1,4.8c-7.1,0.9-14.3,0.3-21.5,0c-1.8-0.2-1.7-4.4-0.1-4.8
	C74.8,62.5,82.1,63.1,89.2,63.4z M69,65.5h19C81.7,65.5,75.3,65.5,69,65.5z"/>
<path class="st3" d="M77.5,50.7c-0.3-0.5-0.5-1.1-0.5-1.8c0-1.4,0.7-2.5,1.6-2.5c0.9,0,1.6,1.1,1.6,2.5c0,0.6-0.1,1.1-0.3,1.5
	c0.7-0.2,1.5-0.3,2.3-0.3c1.8,0.1,3.7,1,4.8,2.4c0.7-0.2,1.5-0.3,2.4-0.3c3.4,0.2,7,3.2,5.3,6.7c-1.7,3.7-9,3.4-11.3,0.5
	c-1.7,0.3-3.7,0.1-5.2-0.6c-1.5,0.7-3.5,0.9-5.3,0.6c-3,4.7-15.7,1.8-10.5-4.9c1.2-1.6,3.3-2.3,5.4-2.3c0.5,0,1.1,0.1,1.6,0.3
	c0-0.1,0.1-0.1,0.1-0.2c1.2-1.6,3.3-2.3,5.4-2.3C75.9,50.1,76.7,50.3,77.5,50.7L77.5,50.7z M85.8,58.6c2.5,2.2,11.4-1,5.4-3.8
	c-0.7-0.3-1-0.5-2.3-0.5c-0.3,0-0.7,0.1-1,0.2c0.1,0.7,0,1.5-0.4,2.3C87.2,57.6,86.6,58.2,85.8,58.6L85.8,58.6z M68.5,54.4
	c-0.3-0.1-0.6-0.1-1.1-0.1c-1.7,0.1-3.4,1-3.7,2.6c-0.4,3,4.3,2.9,6.7,1.6C68.9,57.6,68,56.2,68.5,54.4L68.5,54.4z M85.2,53.3
	c-0.3-0.2-0.7-0.5-1.2-0.7c-0.7-0.3-1-0.5-2.3-0.5c-0.6,0-1.2,0.2-1.8,0.4c0.9,1.1,1.1,2.6,0.4,4.2c-0.1,0.1-0.1,0.2-0.2,0.3
	c0.8,0.1,1.8,0.1,2.7-0.1c0.1-0.8,0.5-1.7,1.2-2.6C84.4,54,84.8,53.7,85.2,53.3z M76.7,52.6c-0.6-0.3-1-0.4-2.2-0.4
	c-1.1,0.1-2.3,0.5-3,1.3c1.3,0.9,2.2,2.2,2.2,3.8c0.8,0,1.6-0.1,2.4-0.3C75.4,55.8,75.4,54.3,76.7,52.6L76.7,52.6z M70.9,55.5
	c0.1,0.6,0.4,1,0.9,1.3C71.7,56.3,71.5,55.9,70.9,55.5z M78.4,53.7c-0.2,0.3-0.3,0.6-0.4,1c-0.1,0.5,0,0.9,0.1,1.2
	C78.9,55.3,79.2,54.5,78.4,53.7z"/>
<circle class="st4" cx="76" cy="76" r="75"/>
<path class="st0" d="M93.7,68.7H63.3c0,0,0,15.1,0,26.1c0,3,1.2,5.8,3.3,7.9c2.1,2.1,5,3.3,7.9,3.3c3.1,0,6.4,0,9.4,0
	c5.4,0,9.7-4.3,9.7-9.7C93.7,85.3,93.7,68.7,93.7,68.7L93.7,68.7z"/>
<rect x="80.9" y="69.4" class="st5" width="11.9" height="12.5"/>
<rect x="67.6" y="71.2" class="st1" width="5" height="10"/>
<path class="st6" d="M88,70.4l-1.5,2.7l-2.9-1.4l1.3,1.9l-2.6,0.5l3.4,2.1l-2.6,4.7l1.9-0.2l2-2.3v2.2l1.8,0.6l0.2-3l2.8-2.1
	l-3.3,0.8l0.3-2.7l1.1-3.4L88,70.4L88,70.4z"/>
<path class="st7" d="M90.7,86.3c2.4,0.2,1.2,11.5,0.4,12.6c-1.7,1.9-3.5,4.8-4.9,4.3c-7.2-2.7-5.3-8.6-5-13.5
	C81.5,88,86.8,86.2,90.7,86.3L90.7,86.3z M83.4,90.7l0.5,9.3l2.4,1l2.9-3.2l0.3-9C87.4,89.4,85.4,90,83.4,90.7L83.4,90.7z"/>
<path class="st7" d="M67.2,87.3c3.2,0.3-0.6,17.9-1.1,12.8C65.8,94.8,64.8,87.3,67.2,87.3z"/>
<path class="st7" d="M70.8,87.3c3.1,0.3-0.6,18.5-1.1,12.8C69.5,94.8,68.5,87.3,70.8,87.3z"/>
<path class="st7" d="M76.2,87.3c3.2,0.3-0.6,17.9-1.1,12.8C74.9,94.8,73.9,87.3,76.2,87.3z"/>
<rect x="52.7" y="68.7" class="st8" width="6.2" height="36.9"/>
<rect x="98.4" y="68.7" class="st8" width="6.2" height="36.9"/>
<ellipse class="st9" cx="55.7" cy="66.7" rx="4.1" ry="3.8"/>
<ellipse class="st9" cx="101.5" cy="66.7" rx="4.1" ry="3.8"/>
<path class="st10" d="M64.4,79c1.4,0.1,0,2.1,0,2.1L53.9,82c3.4,1.7,8.5,3.5,7,5.1c-5.4,4.8-14.7,8.5-11.7,5.8l8.9-6.3
	c-4.8-2.4-11-5.6-8.4-6.3C54.5,79.3,59.5,78.9,64.4,79L64.4,79z"/>
<path class="st10" d="M93.5,79c7.6,0.6,18.2,1.3,14.7,3.2l-8.7,4.3c5.4,3.9,10.9,9.9,7.6,8.1c-5.3-3.5-12.7-7.8-10.2-9.2l6.8-3.3
	c-4.8-0.4-10.4-0.1-11.3-1.3C92.1,80,92.6,79,93.5,79L93.5,79z"/>
</svg>
