<?xml version="1.0" encoding="utf-8"?>
<!-- Generator: Adobe Illustrator 24.2.3, SVG Export Plug-In . SVG Version: 6.00 Build 0)  -->
<svg version="1.1" id="Capa_1" xmlns:serif="http://www.serif.com/"
	 xmlns="http://www.w3.org/2000/svg" xmlns:xlink="http://www.w3.org/1999/xlink" x="0px" y="0px" viewBox="0 0 152 152"
	 style="enable-background:new 0 0 152 152;" xml:space="preserve">
<style type="text/css">
	.st0{fill-rule:evenodd;clip-rule:evenodd;fill:#007CC2;}
	.st1{fill-rule:evenodd;clip-rule:evenodd;fill:#FFFFFF;}
	.st2{fill-rule:evenodd;clip-rule:evenodd;fill:#231F20;}
	.st3{fill:none;stroke:#515151;stroke-width:2;stroke-linecap:square;stroke-miterlimit:37.5;}
</style>
<path class="st0" d="M5.6,51C15.5,21.9,43.4,1,76,1s60.5,20.9,70.4,50H5.6L5.6,51z"/>
<path class="st1" d="M146.4,101c-9.9,29.1-37.8,50-70.4,50s-60.5-20.9-70.4-50H146.4L146.4,101z"/>
<path class="st2" d="M146.4,51c3.1,7.9,4.6,16.3,4.6,25s-1.5,17.1-4.6,25H5.6C2.5,93.1,1,84.7,1,76s1.5-17.1,4.6-25L146.4,51
	L146.4,51z"/>
<circle class="st3" cx="76" cy="76" r="75"/>
</svg>
