<?xml version="1.0" encoding="utf-8"?>
<!-- Generator: Adobe Illustrator 24.2.3, SVG Export Plug-In . SVG Version: 6.00 Build 0)  -->
<svg version="1.1" id="Capa_1" xmlns:serif="http://www.serif.com/"
	 xmlns="http://www.w3.org/2000/svg" xmlns:xlink="http://www.w3.org/1999/xlink" x="0px" y="0px" viewBox="0 0 150 150"
	 style="enable-background:new 0 0 150 150;" xml:space="preserve">
<style type="text/css">
	.st0{fill-rule:evenodd;clip-rule:evenodd;fill:#FFFFFF;}
	.st1{fill-rule:evenodd;clip-rule:evenodd;fill:#007DC5;}
	.st2{fill:#007DC5;}
	.st3{fill:none;stroke:#515151;stroke-width:2;stroke-linecap:square;stroke-miterlimit:36;}
</style>
<path class="st0" d="M121.6,132c-12.6,10.5-28.9,16.7-46.6,16.7s-33.9-6.1-46.6-16.7H121.6z"/>
<path class="st0" d="M12.7,32h124.6c8,11.9,12.7,26.3,12.7,41.7c0,15.2-4.5,29.3-12.7,41.7H12.7C4.7,103.3,0,89,0,73.6
	C0,58.4,4.5,44.3,12.7,32L12.7,32z"/>
<path class="st0" d="M75-1.4c17.6,0.1,33.6,6.1,46.6,16.7H28.4C40.8,5,56.6-1.1,75-1.4L75-1.4z"/>
<path class="st1" d="M137.3,32H12.7c4.3-6.4,9.5-12.1,15.7-16.7h93.2C127.4,19.8,132.5,25.1,137.3,32z"/>
<path class="st1" d="M121.6,132H28.4c-6.1-4.7-11.4-10.4-15.7-16.7h124.6C133.3,121.4,128.3,126.8,121.6,132L121.6,132z"/>
<path class="st2" d="M62.4,58.7H50.1l6.2,10.6L62.4,58.7L62.4,58.7z M56.3,77.1l-6.4,10.7h12.7L56.3,77.1L56.3,77.1z M69.5,91.4
	l6.1,11.1l6.7-11.1H69.5L69.5,91.4z M88.7,87.8h12.2l-6.1-10.7L88.7,87.8z M94.8,69.2l6.2-10.6H88.5L94.8,69.2z M69,55h12.9
	l-6.4-11.4L69,55z M58.5,73.2l8.4,14.6h17.2l8.4-14.6l-8.4-14.6H66.9L58.5,73.2L58.5,73.2z M86.3,55h21.1L97,73.2l10.5,18.2H86.3
	l-10.8,18.8L64.7,91.4h-21L54,73.2L43.7,55h21l10.9-18.6L86.3,55L86.3,55z"/>
<circle class="st3" cx="75" cy="73.6" r="75"/>
</svg>
