<?xml version="1.0" encoding="utf-8"?>
<!-- Generator: Adobe Illustrator 24.2.3, SVG Export Plug-In . SVG Version: 6.00 Build 0)  -->
<svg version="1.1" id="Capa_1" xmlns:serif="http://www.serif.com/"
	 xmlns="http://www.w3.org/2000/svg" xmlns:xlink="http://www.w3.org/1999/xlink" x="0px" y="0px" viewBox="0 0 150 150"
	 style="enable-background:new 0 0 150 150;" xml:space="preserve">
<style type="text/css">
	.st0{fill-rule:evenodd;clip-rule:evenodd;fill:#ED1B2D;}
	.st1{fill-rule:evenodd;clip-rule:evenodd;fill:#22923C;}
	.st2{fill:#FFF200;}
	.st3{fill:#ED1B2D;}
	.st4{fill:#FFFFFF;}
	.st5{fill-rule:evenodd;clip-rule:evenodd;fill:#FFF200;}
	.st6{fill-rule:evenodd;clip-rule:evenodd;fill:#007AC2;}
	.st7{fill:none;stroke:#515151;stroke-width:2;stroke-linecap:square;stroke-miterlimit:36;}
</style>
<path class="st0" d="M76.6-0.5C117.2,0.2,150,33.5,150,74.4s-32.8,74.2-73.4,74.8C76.6,149.2,76.6-0.5,76.6-0.5z"/>
<path class="st1" d="M76.6-0.5v149.7l-1.6,0.2c-41.4,0-75-33.6-75-75s33.6-75,75-75C75-0.6,76.6-0.5,76.6-0.5z"/>
<path class="st2" d="M100.5,81.9c2.4-0.7,4.8-1.4,6.7-1.9c-0.4,2.1-1,4.1-1.7,6C103.9,84.8,102.1,83.3,100.5,81.9 M76.6,100.9
	c-1.3,0-2.6-0.1-3.9-0.4v4.9c-6.1-0.8-11.6-3.2-16-6.9h9.9c-2.9-1.5-5.5-3.6-7.5-6.2h-4c1-0.4,2.1-0.9,3.1-1.3
	c-1-1.6-1.9-3.3-2.5-5.1c-2.2,0.9-4.7,1.9-6.8,2.8c-1.3-2.6-2.3-5.4-2.9-8.4c2.7,1.3,6.2,2.9,9.3,4.4c-0.5-1.8-0.8-3.7-0.8-5.7
	c-2.2-1-4.5-2.1-6.3-3c2.2-0.7,4.4-1.5,6.3-2.1V56.2c-0.8-0.3-1.6-0.6-2.4-0.9c0.7-1,1.5-1.9,2.4-2.7v-2.4h2.7
	c4.4-3.5,9.8-5.9,15.6-6.6v6.6h6.5v-6.7c6.3,0.5,12.1,3,16.8,6.7h2.6v7c1.5,0.4,3.1,0.8,4.5,1.1c0.1,0.1,0.2,0.3,0.2,0.4
	c-1.4,0.6-3,1.4-4.8,2.2v5.2c2.5-1.1,5-2.2,6.9-3.1c0.9,2.2,1.5,4.6,1.8,7.1c-3-1-6.3-2.1-8.7-2.9v6.6c1.7,0.6,3.8,1.3,5.9,2
	c-1.8,0.5-3.8,1.1-5.9,1.7v1.3c0,3.8-1,7.5-2.7,10.6c1.1,0.9,2.3,1.9,3.4,2.8h-5.3c-2,2.6-4.5,4.7-7.5,6.2h9.8
	c-4.8,3.9-10.7,6.5-17.2,7.1v-4.8C78.4,100.8,77.5,100.9,76.6,100.9 M46.8,65.3c1.1,0.9,2.5,2.1,3.9,3.2c-1.6,0.5-3.4,1.1-5,1.7
	C46,68.5,46.3,66.9,46.8,65.3 M113.8,72.3c-0.1,0-0.4-0.1-0.9-0.3c-0.3-4.2-1.3-8.3-2.9-12c0.9-0.1,1.1-1.2,0-1.5
	c-0.4-0.9-1.1-2.1-1.6-2.9c0.5-0.4,0.5-1.2-0.5-1.4c-0.2-0.1-0.8-0.2-1.4-0.4c-6.1-8.8-16-14.8-27.3-15.6V38c0-1.1-1.1-1.4-1.6-0.7
	c-1,0-2.3,0-3.4,0c-0.5-0.6-1.6-0.5-1.6,0.7v0.2c-10.7,1.1-20,6.9-25.9,15.2c-0.2-0.1-0.3-0.1-0.4-0.1c-1.1-0.4-1.7,0.6-1.2,1.3
	c-0.9,1.4-1.9,3.3-2.6,4.7c-1,0-1.4,1.3-0.2,1.8c0,0,0.1,0,0.1,0.1c-1.4,3.4-2.2,7.1-2.5,10.9c-0.5,0.1-0.8,0.3-0.9,0.3
	c-1.2,0.4-0.9,1.8,0.2,1.8c0,0.9,0,1.9,0.1,2.9c-0.9,0.6-0.4,1.9,0.8,1.6c0.5,4.3,1.7,8.4,3.6,12.1c0,0-0.1,0-0.1,0
	c-1.1,0.5-0.8,1.8,0.2,1.7c0.3,0.6,0.8,1.4,1.3,2.2c-0.6,0.7,0,1.7,1.1,1.2c0.1,0,0.2-0.1,0.4-0.2c5.9,8.3,15.2,14,25.8,15.1v0.2
	c0,1.2,1.1,1.3,1.6,0.7c1,0.1,2.4,0.1,3.4,0c0.5,0.6,1.6,0.4,1.6-0.7v-0.1c10.5-0.8,19.8-6,26-13.8c0,0,0.1,0.1,0.1,0.1
	c1,0.8,2-0.2,1.4-1.1c0.9-1.2,2-3.1,2.7-4.6c0.8,0.1,1.4-1,0.5-1.7c0,0-0.1-0.1-0.3-0.2c1.6-3.4,2.6-7.1,3.1-11
	c1.2,0.4,1.7-1,0.8-1.6c0.1-1,0.1-2,0.1-2.9C114.7,74.1,115,72.7,113.8,72.3"/>
<path class="st3" d="M94.1,92.2c0.7-0.9,1.3-1.8,1.9-2.8c1.7-3.2,2.7-6.8,2.7-10.6v-1.3v-3.6v-6.6v-1V61v-3.7v-7h-2.6H79.2h-6.5
	H57.1h-2.7v28.6c0,0.1,0,0.1,0,0.2c0,2,0.3,3.8,0.8,5.7c0.1,0.4,0.2,0.8,0.4,1.2c0.6,1.8,1.5,3.5,2.5,5.1c0.3,0.4,0.6,0.9,0.9,1.3
	c2,2.6,4.6,4.7,7.5,6.2c1.9,1,4,1.7,6.2,2.1c1.3,0.2,2.6,0.4,3.9,0.4c0.9,0,1.8-0.1,2.6-0.2c2.6-0.3,5.1-1.1,7.4-2.3
	C89.6,96.9,92.1,94.8,94.1,92.2"/>
<path class="st4" d="M76.6,90.5c6.6,0,11.8-5.8,11.8-13V60.6H64.7v16.9C64.7,84.7,70,90.5,76.6,90.5"/>
<rect x="55.9" y="51.6" class="st5" width="6.7" height="7.8"/>
<rect x="55.9" y="71.3" class="st5" width="6.7" height="7.8"/>
<path class="st5" d="M66.6,87.7l-4.3,5.2l6,5.1l4.3-5.2L66.6,87.7L66.6,87.7z"/>
<path class="st5" d="M84.3,97.9l-4.4-5.2l6-5.1l4.4,5.2L84.3,97.9z"/>
<rect x="73.2" y="51.6" class="st5" width="6.7" height="7.8"/>
<rect x="89.9" y="51.6" class="st5" width="6.7" height="7.8"/>
<rect x="89.9" y="71.3" class="st5" width="6.7" height="7.8"/>
<rect x="73.7" y="62.3" class="st6" width="5.7" height="7.8"/>
<rect x="73.7" y="80.8" class="st6" width="5.7" height="7.8"/>
<rect x="66" y="71.5" class="st6" width="5.7" height="7.8"/>
<rect x="73.7" y="71.5" class="st6" width="5.7" height="7.8"/>
<rect x="81.2" y="71.5" class="st6" width="5.7" height="7.8"/>
<circle class="st7" cx="75" cy="74.4" r="75"/>
</svg>
