<?xml version="1.0" encoding="utf-8"?>
<!-- Generator: Adobe Illustrator 24.2.3, SVG Export Plug-In . SVG Version: 6.00 Build 0)  -->
<svg version="1.1" id="Capa_1" xmlns:serif="http://www.serif.com/"
	 xmlns="http://www.w3.org/2000/svg" xmlns:xlink="http://www.w3.org/1999/xlink" x="0px" y="0px" viewBox="0 0 152 152"
	 style="enable-background:new 0 0 152 152;" xml:space="preserve">
<style type="text/css">
	.st0{fill-rule:evenodd;clip-rule:evenodd;fill:#F15D2F;}
	.st1{fill-rule:evenodd;clip-rule:evenodd;fill:#FFFFFF;}
	.st2{fill-rule:evenodd;clip-rule:evenodd;fill:#009D57;}
	.st3{fill:none;stroke:#515151;stroke-width:2;stroke-linecap:square;stroke-miterlimit:37.5;}
</style>
<path class="st0" d="M140.6,113.5C128,135.7,104.1,150.7,76,151c-27.8-0.2-51.8-15.1-64.6-37.5H140.6z"/>
<path class="st0" d="M11.4,38.5C24.1,16,48.3,1,76,1s51.9,15,64.6,37.5C140.6,38.5,11.4,38.5,11.4,38.5z"/>
<path class="st1" d="M140.6,113.5H11.4C4.7,102.5,1,89.7,1,76s3.7-26.5,10.4-37.5h129.2c6.7,11,10.4,23.8,10.4,37.5
	C151,89.5,147.4,102.1,140.6,113.5z"/>
<path class="st2" d="M74.5,41.8L120,94.5l-32.2-4.5l-3.8,11.5l8.7,9l-31.6,0l3.9-7l-0.2-10.2l-21.2,6.8L74.5,41.8L74.5,41.8z"/>
<circle class="st3" cx="76" cy="76" r="75"/>
</svg>
