<?xml version="1.0" encoding="utf-8"?>
<!-- Generator: Adobe Illustrator 24.2.3, SVG Export Plug-In . SVG Version: 6.00 Build 0)  -->
<svg version="1.1" id="Capa_1" xmlns:serif="http://www.serif.com/"
	 xmlns="http://www.w3.org/2000/svg" xmlns:xlink="http://www.w3.org/1999/xlink" x="0px" y="0px" viewBox="0 0 152 152"
	 style="enable-background:new 0 0 152 152;" xml:space="preserve">
<style type="text/css">
	.st0{fill-rule:evenodd;clip-rule:evenodd;fill:#FFFFFF;}
	.st1{fill:#0060A9;}
	.st2{fill:#FFFFFF;}
	.st3{fill:#FFD51F;}
	.st4{fill:none;stroke:#515151;stroke-width:2;stroke-linecap:square;stroke-miterlimit:36;}
</style>
<path id="bandera-bosnia-herzegovina" class="st0" d="M76,1c41.4,0,75,33.6,75,75s-33.6,75-75,75S1,117.4,1,76S34.6,1,76,1z"/>
<g>
	<path class="st1" d="M116.8,26v39.5c0,30.8-18.6,52.8-40.8,60.4c-22.1-7.6-40.8-29.5-40.8-60.4V26L116.8,26L116.8,26z"/>
	<path class="st2" d="M108.1,99.2L43.6,26h-8.4v9.6l65.3,74C103.4,106.6,106.5,102.1,108.1,99.2"/>
	<path class="st3" d="M76,110.3l1.7-1.3c-0.5-0.4-0.8-1.1-0.8-1.9c0-3.5,5.7-2.5,3.7,0.3c2,0.2,3.1-1.3,2.7-3.1
		c-0.6-2.1-3.8-3.3-6.7-0.7c2.5-3.8,1.7-6.9-0.6-9c-2.3,2-3.1,5.1-0.6,9c-2.9-2.6-6.1-1.4-6.7,0.7c-0.5,1.7,0.7,3.3,2.7,3.1
		c-2-2.8,3.7-3.8,3.7-0.3c0,0.8-0.3,1.5-0.8,1.9L76,110.3L76,110.3z M61,93.4l1.7-1.3c-0.5-0.4-0.8-1.1-0.8-1.9
		c0-3.6,5.7-2.5,3.7,0.3c2,0.2,3.1-1.3,2.7-3.1c-0.6-2.1-3.8-3.3-6.7-0.7c2.5-3.8,1.7-6.9-0.6-9c-2.3,2-3.1,5.1-0.6,9
		c-2.9-2.6-6.1-1.4-6.7,0.7c-0.5,1.7,0.7,3.3,2.7,3.1c-2-2.8,3.7-3.8,3.7-0.3c0,0.8-0.3,1.5-0.8,1.9L61,93.4z M46,76.4l1.7-1.3
		c-0.5-0.4-0.8-1.1-0.8-1.9c0-3.5,5.7-2.5,3.7,0.3c2,0.2,3.1-1.3,2.7-3.1c-0.6-2.1-3.8-3.3-6.7-0.7c2.5-3.8,1.7-6.9-0.6-9
		c-2.3,2-3.1,5.1-0.6,9c-2.9-2.6-6.1-1.4-6.7,0.7c-0.5,1.7,0.7,3.3,2.7,3.1c-2-2.8,3.7-3.8,3.7-0.3c0,0.8-0.3,1.5-0.8,1.9L46,76.4
		L46,76.4z M101.9,76.4l1.7-1.3c-0.5-0.4-0.8-1.1-0.8-1.9c0-3.5,5.7-2.5,3.7,0.3c2,0.2,3.1-1.3,2.7-3.1c-0.6-2.1-3.8-3.3-6.7-0.7
		c2.5-3.8,1.7-6.9-0.6-9c-2.3,2-3.1,5.1-0.6,9c-2.9-2.6-6.1-1.4-6.7,0.7c-0.5,1.7,0.7,3.3,2.7,3.1c-2-2.8,3.7-3.8,3.7-0.3
		c0,0.8-0.3,1.5-0.8,1.9L101.9,76.4L101.9,76.4z M101.9,47.5l1.7-1.3c-0.5-0.4-0.8-1.1-0.8-1.9c0-3.5,5.7-2.5,3.7,0.3
		c2,0.2,3.1-1.3,2.7-3c-0.6-2.1-3.8-3.3-6.7-0.7c2.5-3.8,1.7-6.9-0.6-9c-2.3,2-3.1,5.1-0.6,9c-2.9-2.6-6.1-1.4-6.7,0.7
		c-0.5,1.7,0.7,3.2,2.7,3c-2-2.8,3.7-3.8,3.7-0.3c0,0.8-0.3,1.5-0.8,1.9L101.9,47.5L101.9,47.5z M74.3,46.2c0.5-0.4,0.8-1.1,0.8-1.9
		c0-3.5-5.7-2.5-3.7,0.3c-2,0.2-3.1-1.3-2.7-3c0.6-2.1,3.8-3.3,6.7-0.7c-2.5-3.8-1.7-6.9,0.6-9c2.3,2,3.1,5.1,0.6,9
		c2.9-2.6,6.1-1.4,6.7,0.7c0.5,1.7-0.7,3.2-2.7,3c2-2.8-3.7-3.8-3.7-0.3c0,0.8,0.3,1.5,0.8,1.9L76,47.5L74.3,46.2z"/>
</g>
<circle class="st4" cx="76" cy="76" r="75"/>
</svg>
