<?xml version="1.0" encoding="utf-8"?>
<!-- Generator: Adobe Illustrator 24.2.3, SVG Export Plug-In . SVG Version: 6.00 Build 0)  -->
<svg version="1.1" id="Capa_1" xmlns:serif="http://www.serif.com/"
	 xmlns="http://www.w3.org/2000/svg" xmlns:xlink="http://www.w3.org/1999/xlink" x="0px" y="0px" viewBox="0 0 150 150"
	 style="enable-background:new 0 0 150 150;" xml:space="preserve">
<style type="text/css">
	.st0{fill-rule:evenodd;clip-rule:evenodd;fill:#E41E25;}
	.st1{fill-rule:evenodd;clip-rule:evenodd;fill:#FFFFFF;}
	.st2{fill:none;stroke:#515151;stroke-width:2;stroke-linecap:square;stroke-miterlimit:36;}
</style>
<circle class="st0" cx="75" cy="74.4" r="75"/>
<path class="st1" d="M112.3,91.9c0.1,0,0.1,0,0.2,0.1c0.2-0.2,0.4-0.4,0.5-0.6c2.3-3.1,4.6-6.3,6.8-9.4c0.4-0.6,0.7-0.7,1.4-0.5
	c3.6,1.2,7.2,2.4,10.8,3.6c0.3,0.1,0.7,0.2,1.2,0.3c-0.2-0.3-0.2-0.4-0.3-0.5c-2.4-3.2-4.7-6.5-7.1-9.7c-0.4-0.6-0.4-1,0-1.5
	c2.3-3.1,4.5-6.2,6.7-9.2c0.2-0.3,0.4-0.5,0.7-1c-0.5,0.2-0.8,0.2-1.1,0.3c-3.6,1.2-7.2,2.3-10.7,3.5c-0.7,0.2-1.2,0.1-1.6-0.5
	c-1.8-2.6-3.7-5.1-5.5-7.7c-0.6-0.8-1.1-1.6-1.7-2.3c-0.1,0-0.1,0.1-0.2,0.1v1c0,3.8,0,7.6,0,11.3c0,0.7-0.2,1.1-0.9,1.3
	c-3.3,1-6.5,2.1-9.8,3.2c-0.7,0.2-1.3,0.5-2.2,0.8c0.5,0.2,0.8,0.3,1.1,0.4c3.6,1.2,7.3,2.4,10.9,3.5c0.6,0.2,0.9,0.5,0.9,1.2
	c0,3.4,0,6.8,0,10.2L112.3,91.9L112.3,91.9z M100.9,95c-12.5,12.7-31.3,11.8-42.5,1c-10.3-9.9-12.6-26-4-38.6
	c5.3-7.7,12.7-12.1,22.1-12.9c9.4-0.8,17.3,2.4,24.1,8.8c-7.1-11.1-22.3-19.4-39.3-15.6C45,41.5,32.8,55.9,32.2,72.9
	c-0.7,18.2,11.7,33.5,28,37.7C76.7,115,92.8,107.6,100.9,95"/>
<circle class="st2" cx="75" cy="74.4" r="75"/>
</svg>
