<?xml version="1.0" encoding="utf-8"?>
<!-- Generator: Adobe Illustrator 24.2.3, SVG Export Plug-In . SVG Version: 6.00 Build 0)  -->
<svg version="1.1" id="Capa_1" xmlns:serif="http://www.serif.com/"
	 xmlns="http://www.w3.org/2000/svg" xmlns:xlink="http://www.w3.org/1999/xlink" x="0px" y="0px" viewBox="0 0 152 152"
	 style="enable-background:new 0 0 152 152;" xml:space="preserve">
<style type="text/css">
	.st0{fill-rule:evenodd;clip-rule:evenodd;fill:#ED174C;}
	.st1{fill-rule:evenodd;clip-rule:evenodd;fill:#FFFFFF;}
	.st2{fill:#ED174C;}
	.st3{fill:none;stroke:#515151;stroke-width:2;stroke-linecap:square;stroke-miterlimit:36;}
</style>
<path class="st0" d="M126,20.5C141.4,34,151,53.9,151,76s-9.6,42-25,55.5V20.5L126,20.5z"/>
<path class="st0" d="M26,20.5v111C10.6,118,1,98.1,1,76S10.6,34,26,20.5L26,20.5z"/>
<path class="st1" d="M26,20.5C39.1,8.3,56.7,1,76,1s36.9,7.3,50,19.5v111C112.9,143.7,95.3,151,76,151s-36.9-7.3-50-19.5V20.5
	L26,20.5z"/>
<path class="st2" d="M77.9,117.8c-0.5-8.1-0.7-13.4-0.9-18.5c-0.1-2.2,1.8-2,3.2-1.8c11.7,1.8,17.2,2.7,17.2,2.7
	c-4.2-7.9-1.3-8.4,1.1-10.3c13.2-11,16-13.4,16-13.4c-6.1-2.1-5.3-1.3-1.3-15.9c-12.7,4-11.7,2.8-14.4-3.4c0,0-1,1.1-8.9,10.1
	c-1.1,1.3-3,0.4-2.6-1.5c4.1-20.5,4.3-21.3,4.3-21.3c-8.1,4.9-7.8,5.1-9,2.6C78.1,38.4,76,34.2,76,34.2s-2.1,4.2-6.5,12.9
	c-1.3,2.5-1,2.2-9-2.6c0,0,0.2,0.8,4.3,21.3c0.4,2-1.5,2.8-2.6,1.5c-8-9-8.9-10.1-8.9-10.1c-2.7,6.3-1.6,7.5-14.4,3.4
	c3.9,14.6,4.8,13.8-1.3,15.9c0,0,2.8,2.4,16,13.4c2.3,1.9,5.3,2.4,1,10.3c0,0,5.5-0.8,17.2-2.7c1.4-0.2,3.3-0.4,3.2,1.8
	c-0.2,5.1-0.4,10.3-0.9,18.5H77.9L77.9,117.8z"/>
<circle class="st3" cx="76" cy="76" r="75"/>
</svg>
