<?xml version="1.0" encoding="utf-8"?>
<!-- Generator: Adobe Illustrator 24.2.3, SVG Export Plug-In . SVG Version: 6.00 Build 0)  -->
<svg version="1.1" id="Capa_1" xmlns:serif="http://www.serif.com/"
	 xmlns="http://www.w3.org/2000/svg" xmlns:xlink="http://www.w3.org/1999/xlink" x="0px" y="0px" viewBox="0 0 150 150"
	 style="enable-background:new 0 0 150 150;" xml:space="preserve">
<style type="text/css">
	.st0{fill-rule:evenodd;clip-rule:evenodd;fill:#D31145;}
	.st1{fill-rule:evenodd;clip-rule:evenodd;fill:#004990;}
	.st2{fill-rule:evenodd;clip-rule:evenodd;fill:#FFFFFF;}
	.st3{fill:#FFFFFF;}
	.st4{fill:none;stroke:#515151;stroke-width:2;stroke-linecap:square;stroke-miterlimit:36;}
</style>
<path id="bandera-usa" class="st0" d="M73.3,151.3c-41,0-74.4-33.6-74.4-75s33.3-75,74.4-75s74.4,33.6,74.4,75
	S114.4,151.3,73.3,151.3L73.3,151.3z"/>
<path id="bandera-usa1" serif:id="bandera-usa" class="st1" d="M-0.8,82.1C-1,80.2-1,78.3-1,76.3c0-41.4,33.3-75,74.4-75
	c4.7,0,9.3,0.4,13.8,1.3v79.5H-0.8L-0.8,82.1z"/>
<path id="bandera-usa2" serif:id="bandera-usa" class="st2" d="M127,128.2c-4.1,4.3-8.8,8.2-13.8,11.4H33.5
	c-5.1-3.2-9.7-7.1-13.8-11.4H127L127,128.2z M142,105.2c-1.7,4-3.6,7.8-5.9,11.4H10.6c-2.3-3.6-4.3-7.4-5.9-11.4H142L142,105.2z
	 M147.5,82.1c-0.3,3.9-0.9,7.7-1.8,11.4H0.9C0.1,89.8-0.5,86-0.8,82.1H147.5z M145.7,59.1c0.9,3.7,1.5,7.5,1.8,11.4H86.9V59.1H145.7
	z M136.1,36c2.3,3.6,4.3,7.4,5.9,11.4H86.9V36L136.1,36L136.1,36z M113.1,12.9c5.1,3.2,9.7,7.1,13.8,11.4H86.9V12.9H113.1z"/>
<path class="st3" d="M48.1,7.5h-3.3h-2.1l-0.8,2.1l-1.3,3.6l3.1-2.3l2.8,2.1l-1-3.4L48.1,7.5L48.1,7.5z"/>
<path class="st3" d="M65.3,7.5h-3.6l-1-3.1l-1,3.1H56l2.8,2.1l-1,3.6l2.8-2.3l2.8,2.1l-1-3.4L65.3,7.5L65.3,7.5z"/>
<path class="st3" d="M82.2,7.5h-3.3l-1.3-3.1l-1,3.1h-3.3l2.8,2.1l-1.3,3.6l2.8-2.3l2.8,2.1l-1-3.4L82.2,7.5L82.2,7.5z"/>
<path class="st3" d="M31.1,24.4h-3.3l-1-3.4l-1.3,3.4h-3.3l2.8,2.1l-1.3,3.4l3.1-2.1l2.8,2.1l-1.3-3.4L31.1,24.4L31.1,24.4z"/>
<path class="st3" d="M48.1,24.4h-3.3l-1-3.4l-1,3.4h-3.6l2.8,2.1l-1.3,3.4l3.1-2.1l2.8,2.1l-1-3.4L48.1,24.4L48.1,24.4z"/>
<path class="st3" d="M65.3,24.4h-3.6l-1-3.4l-1,3.4H56l2.8,2.1l-1,3.4l2.8-2.1l2.8,2.1l-1-3.4L65.3,24.4L65.3,24.4z"/>
<path class="st3" d="M82.2,24.4h-3.3L77.6,21l-1,3.4h-3.3l2.8,2.1l-1.3,3.4l2.8-2.1l2.8,2.1l-1-3.4L82.2,24.4L82.2,24.4z"/>
<path class="st3" d="M14.2,40.9h-3.3l-1.3-3.4l-1,3.4L8,43l-1.3,3.4l2.8-2.1l2.8,2.1l-1-3.4L14.2,40.9z"/>
<path class="st3" d="M31.1,40.9h-3.3l-1-3.4l-1.3,3.4h-3.3l2.8,2.1l-1.3,3.4l3.1-2.1l2.8,2.1L28.3,43L31.1,40.9L31.1,40.9z"/>
<path class="st3" d="M48.1,40.9h-3.3l-1-3.4l-1,3.4h-3.6l2.8,2.1l-1.3,3.4l3.1-2.1l2.8,2.1l-1-3.4L48.1,40.9L48.1,40.9z"/>
<path class="st3" d="M65.3,40.9h-3.6l-1-3.4l-1,3.4H56l2.8,2.1l-1,3.4l2.8-2.1l2.8,2.1l-1-3.4L65.3,40.9L65.3,40.9z"/>
<path class="st3" d="M82.2,40.9h-3.3l-1.3-3.4l-1,3.4h-3.3l2.8,2.1l-1.3,3.4l2.8-2.1l2.8,2.1l-1-3.4L82.2,40.9L82.2,40.9z"/>
<path class="st3" d="M14.2,57.5h-3.3l-1.3-3.1l-1,3.1H5.2L8,59.6L6.7,63l2.8-2.1l2.8,2.1l-1-3.4L14.2,57.5z"/>
<path class="st3" d="M31.1,57.5h-3.3l-1-3.1l-1.3,3.1h-3.3l2.8,2.1L23.7,63l3.1-2.1l2.8,2.1l-1.3-3.4L31.1,57.5L31.1,57.5z"/>
<path class="st3" d="M48.1,57.5h-3.3l-1-3.1l-1,3.1h-3.6l2.8,2.1L40.6,63l3.1-2.1l2.8,2.1l-1-3.4L48.1,57.5L48.1,57.5z"/>
<path class="st3" d="M65.3,57.5h-3.6l-1-3.1l-1,3.1H56l2.8,2.1l-1,3.4l2.8-2.1l2.8,2.1l-1-3.4L65.3,57.5L65.3,57.5z"/>
<path class="st3" d="M82.2,57.5h-3.3l-1.3-3.1l-1,3.1h-3.3l2.8,2.1L74.8,63l2.8-2.1l2.8,2.1l-1-3.4L82.2,57.5L82.2,57.5z"/>
<path class="st3" d="M39.3,15.8h-3.6l-1-3.1l-1,3.1h-3.6l2.8,2.1l-1,3.6l2.8-2.3l2.8,2.3l-1-3.6L39.3,15.8L39.3,15.8z"/>
<path class="st3" d="M56.3,15.8h-3.3l-1.3-3.1l-1,3.1h-3.3l2.8,2.1l-1.3,3.6l2.8-2.3l2.8,2.3l-1-3.6L56.3,15.8L56.3,15.8z"/>
<path class="st3" d="M73.2,15.8h-3.3l-1-3.1l-1,3.1h-3.6l2.8,2.1l-1.3,3.6l3.1-2.3l2.8,2.3l-1.3-3.6L73.2,15.8L73.2,15.8z"/>
<path class="st3" d="M22.4,32.6h-3.6l-1-3.4l-1,3.4h-3.6l2.8,2.1l-1,3.4l2.8-2.1l2.8,2.1l-1-3.4L22.4,32.6L22.4,32.6z"/>
<path class="st3" d="M39.3,32.6h-3.6l-1-3.4l-1,3.4h-3.6l2.8,2.1l-1,3.4l2.8-2.1l2.8,2.1l-1-3.4L39.3,32.6L39.3,32.6z"/>
<path class="st3" d="M56.3,32.6h-3.3l-1.3-3.4l-1,3.4h-3.3l2.8,2.1l-1.3,3.4l2.8-2.1l2.8,2.1l-1-3.4L56.3,32.6L56.3,32.6z"/>
<path class="st3" d="M73.2,32.6h-3.3l-1-3.4l-1,3.4h-3.6l2.8,2.1l-1.3,3.4l3.1-2.1l2.8,2.1l-1.3-3.4L73.2,32.6L73.2,32.6z"/>
<path class="st3" d="M22.4,49.2h-3.6l-1-3.1l-1,3.1h-3.6l2.8,2.1l-1,3.4l2.8-2.1l2.8,2.1l-1-3.4L22.4,49.2L22.4,49.2z"/>
<path class="st3" d="M39.3,49.2h-3.6l-1-3.1l-1,3.1h-3.6l2.8,2.1l-1,3.4l2.8-2.1l2.8,2.1l-1-3.4L39.3,49.2L39.3,49.2z"/>
<path class="st3" d="M56.3,49.2h-3.3l-1.3-3.1l-1,3.1h-3.3l2.8,2.1l-1.3,3.4l2.8-2.1l2.8,2.1l-1-3.4L56.3,49.2L56.3,49.2z"/>
<path class="st3" d="M73.2,49.2h-3.3l-1-3.1l-1,3.1h-3.6l2.8,2.1l-1.3,3.4l3.1-2.1l2.8,2.1l-1.3-3.4L73.2,49.2L73.2,49.2z"/>
<path class="st3" d="M5.2,65.8H1.8l-1-3.1l-1,3.1L-1,67.9l-1.3,3.6l3.1-2.3l2.8,2.1l-1.3-3.4L5.2,65.8L5.2,65.8z"/>
<path class="st3" d="M22.4,65.8h-3.6l-1-3.1l-1,3.1h-3.6l2.8,2.1l-1,3.6l2.8-2.3l2.8,2.1l-1-3.4L22.4,65.8L22.4,65.8z"/>
<path class="st3" d="M39.3,65.8h-3.6l-1-3.1l-1,3.1h-3.6l2.8,2.1l-1,3.6l2.8-2.3l2.8,2.1l-1-3.4L39.3,65.8L39.3,65.8z"/>
<path class="st3" d="M56.3,65.8h-3.3l-1.3-3.1l-1,3.1h-3.3l2.8,2.1l-1.3,3.6l2.8-2.3l2.8,2.1l-1-3.4L56.3,65.8L56.3,65.8z"/>
<path class="st3" d="M73.2,65.8h-3.3l-1-3.1l-1,3.1h-3.6l2.8,2.1l-1.3,3.6l3.1-2.3l2.8,2.1l-1.3-3.4L73.2,65.8L73.2,65.8z"/>
<path class="st3" d="M14.2,74.1h-3.3L9.5,71l-1,3.1H5.2L8,76.2l-1.3,3.6l2.8-2.3l2.8,2.3l-1-3.6L14.2,74.1z"/>
<path class="st3" d="M31.1,74.1h-3.3l-1-3.1l-1.3,3.1h-3.3l2.8,2.1l-1.3,3.6l3.1-2.3l2.8,2.3l-1.3-3.6L31.1,74.1L31.1,74.1z"/>
<path class="st3" d="M48.1,74.1h-3.3l-1-3.1l-1,3.1h-3.6l2.8,2.1l-1.3,3.6l3.1-2.3l2.8,2.3l-1-3.6L48.1,74.1L48.1,74.1z"/>
<path class="st3" d="M65.3,74.1h-3.6l-1-3.1l-1,3.1H56l2.8,2.1l-1,3.6l2.8-2.3l2.8,2.3l-1-3.6L65.3,74.1L65.3,74.1z"/>
<path class="st3" d="M82.2,74.1h-3.3L77.6,71l-1,3.1h-3.3l2.8,2.1l-1.3,3.6l2.8-2.3l2.8,2.3l-1-3.6L82.2,74.1L82.2,74.1z"/>
<ellipse class="st4" cx="73.3" cy="76.3" rx="74.4" ry="75"/>
</svg>
