<?xml version="1.0" encoding="utf-8"?>
<!-- Generator: Adobe Illustrator 24.2.3, SVG Export Plug-In . SVG Version: 6.00 Build 0)  -->
<svg version="1.1" id="Capa_1" xmlns:serif="http://www.serif.com/"
	 xmlns="http://www.w3.org/2000/svg" xmlns:xlink="http://www.w3.org/1999/xlink" x="0px" y="0px" viewBox="0 0 150 150"
	 style="enable-background:new 0 0 150 150;" xml:space="preserve">
<style type="text/css">
	.st0{fill-rule:evenodd;clip-rule:evenodd;fill:#ED1B2D;}
	.st1{fill-rule:evenodd;clip-rule:evenodd;fill:#FFFFFF;}
	.st2{fill:none;stroke:#20772D;stroke-width:7.68;stroke-linecap:round;stroke-linejoin:round;stroke-miterlimit:36;}
	.st3{fill-rule:evenodd;clip-rule:evenodd;fill:#20772D;}
	.st4{fill:#99BFE6;}
	.st5{fill-rule:evenodd;clip-rule:evenodd;fill:#FFD047;}
	.st6{fill:#AE6219;}
	.st7{fill:#20772D;}
	.st8{fill:none;stroke:#ED1B2D;stroke-width:7.68;stroke-linecap:round;stroke-linejoin:round;stroke-miterlimit:36;}
	.st9{fill:none;stroke:#515151;stroke-width:2;stroke-linecap:square;stroke-miterlimit:36;}
</style>
<path class="st0" d="M40,10.4v131.9C16.1,129.9,0,105,0,76.3S16.1,22.7,40,10.4z"/>
<path class="st0" d="M115,13.1c21,13.1,35,36.6,35,63.2s-14,50.1-35,63.2C115,139.5,115,13.1,115,13.1z"/>
<path class="st1" d="M40,10.4c10.3-5.9,22.3-9.1,35-9.1c14.7,0,28.5,4.2,40,11.8v126.5c-11.4,7.4-24.9,11.7-40,11.8
	c-12.7-0.1-24.6-3.2-35-9.1V10.4L40,10.4z"/>
<ellipse class="st2" cx="77.7" cy="53.7" rx="8.3" ry="6.2"/>
<path class="st3" d="M60.2,55.2c0,0-7.3,17.3-2.7,29.2c4.7,12,4,14,10.2,15s22.9,4.4,22.9,4.4s-28.5-3.2-31.8-6.1
	c-3.3-3-9.1-17.1-8.7-25.4C50.5,64,58.3,56.4,60.2,55.2z"/>
<path class="st4" d="M73.3,74.7c-0.1-0.1-0.2-1.1-0.3-1.8l-0.2-0.3c-1,0-1.7-0.3-2.6-1l-0.2,0.2c0,0.8-0.6,1.2-0.9,1.6
	c-0.1,0.1-0.2,0.3-0.1,0.5c0.1,0.2,0.1,0.7,0.4,1.4h4C73.3,75.1,73.4,74.8,73.3,74.7"/>
<path class="st4" d="M65.8,75.2h1.5c0-0.3-0.2-1.3-0.5-1.9c-0.1-0.2-0.1-0.3,0.1-0.4c0.4-0.4,0.3-1.4-0.1-2.2
	c-0.1,0.1-0.3,0.3-0.4,0.4c-0.1-0.1-0.3-0.3-0.3-0.4c0.6-2.8,2.6-2.3,3.7-2.1c1.1,0.2,2.4,0.4,3.3,0.2c0.2,0,0.2-0.4,0.2-0.7
	c-0.2-1.3,0.3-2.9,0.7-3.9c-0.1-0.1,0-0.7,0-0.9c0.1,0.1,0.3,0.3,0.4,0.4c0.2,0,0.4,0,0.5,0c0-0.1,0.2-0.3,0.3-0.4
	c0,0.1,0.1,0.4,0.1,0.6c0.4,0.5,0.8,0.7,1.3,1c0.2,0.1,0.2,0.3,0.1,0.4c-0.1,0.1-0.2,0.3-0.3,0.4c-0.2,0-1-0.1-1.4-0.4
	c-0.4,0.7,0,2,0.2,3.3c0.2,1.2,0.4,2.7-1.1,3.9c0,0.2-0.1,1-0.1,1.1c0,0.1,0,0.3,0,0.4c0,0.1,0.1,0.4,0.1,0.6s0.1,0.3,0.4,0.6h3.2
	V61.6c-1.5,0.8-3.2,1.3-4.9,1.4c-2.2,0.2-4.5-0.2-7-1.1c-0.8,2.1-1.8,4.4-3.8,6.2c1.1,1.2,2.1,2.4,2.7,3.7
	C65.3,73,65.7,74.1,65.8,75.2"/>
<path class="st4" d="M68.6,74.7c-0.1-0.2-0.2-0.7-0.3-1.1c-0.1-0.2-0.2-0.3-0.1-0.4c0.1-0.1,0.1-0.3,0.1-0.4c0-0.1-0.1-0.2-0.3-0.4
	c-0.1,0.3-0.5,0.6-0.6,0.7c-0.1,0.1-0.1,0.3,0,0.5c0,0.2,0.2,0.7,0.2,0.8c0,0.1,0.1,0.3,0.4,0.7h0.6C68.7,75.1,68.7,74.9,68.6,74.7"
	/>
<ellipse class="st3" cx="98.6" cy="59.6" rx="4.4" ry="4.1"/>
<ellipse class="st3" cx="103.7" cy="72.2" rx="3.3" ry="4.2"/>
<ellipse class="st3" cx="103.3" cy="83.5" rx="4.4" ry="3.9"/>
<path class="st0" d="M65.5,75.9h26.8L79.9,94.7L65.5,75.9z"/>
<path class="st5" d="M73,79.6l13-0.2l-4.8,6.8l-2.3-3.3L75,83.5L73,79.6L73,79.6z"/>
<ellipse class="st0" cx="78.9" cy="59.4" rx="3.3" ry="2.2"/>
<ellipse class="st3" cx="96.8" cy="95.1" rx="4.5" ry="4"/>
<path class="st6" d="M85.7,72.6c0,0-0.1,0-0.2-0.1c-0.2,0.1-0.4,0.1-0.6-0.2c-0.1,0-0.2,0-0.4,0c0.2,0.6,0.2,2.2-0.3,2.8H86
	C85.6,74.6,85.4,73.4,85.7,72.6"/>
<path class="st7" d="M85,72.3c0.1,0.3,0.3,0.3,0.6,0.2c0.1,0,0.1,0.1,0.2,0.1c0.3,0.1,0.4,0.1,0.6,0c0.2,0.2,0.4,0.2,0.6,0.1
	c0.2-0.2,0.7-0.3,1.1-0.3c0.4,0.1,0.9-0.3,1.1-0.6c0.1-0.3,0.2-0.5,0.5-0.6s0.5-0.6,0.4-0.9c0.1-0.1,0.3-0.4,0.2-0.5
	c0.6-0.4,0.6-1-0.4-0.9c0.6-0.4,0.6-0.6,0.2-1c0.4-0.5,0.2-0.9,0-0.9c-0.2,0-0.7-0.3-0.9-0.2c0.6-0.3,0.5-0.6,0.4-0.9
	c-0.1-0.2-0.6-0.3-0.8-0.2c0,0-0.3-0.3-0.5-0.4c0.2-0.6-0.3-1-0.8-1c0.1-0.7-1-0.7-1.4-0.3c-0.6-0.5-1.2-0.3-1.6,0.1
	c-0.7-0.3-1.5,0-1.3,0.7c-0.9,0-1.1,0.5-1,0.8c-0.4,0-0.6,0.5-0.5,0.8c-0.6-0.2-1.3,0.3-1.3,0.8c-0.4,0.1-0.7,0.6-0.4,1
	c-0.3,0.2-0.2,1.1,0.3,0.8c0.6-0.3,1-0.4,1.2,0l-0.2,0.2c-0.5-0.3-0.9,0.3-0.8,0.5c0.1,0.2,0.4,0.4,0.7,0.2
	c-0.1,0.3,0.1,0.8,0.5,0.7c-0.1,0.4,0.1,0.8,0.7,0.7c0.1,0.3,0.8,0.6,1.3,0.3c0.2,0.2,0.5,0.3,0.9,0.4C84.7,72.4,84.9,72.4,85,72.3"
	/>
<path class="st3" d="M68.3,104.2c0,0,19.6-2.4,25.3-6c5.7-3.6,7.4-7.4,9.7-14.8c2.3-7.4,2.8-7.4,2-11.9c-0.8-4.5-6.7-13.7-6.7-13.7
	L97.5,59c0,0,4.1,8.6,5.5,13.5c1.4,4.9,1.2,6.4-0.5,11s-3.9,10.1-7.3,12.2C91.8,97.8,72.3,104.8,68.3,104.2L68.3,104.2z"/>
<ellipse class="st8" cx="79.7" cy="101.4" rx="3.3" ry="3"/>
<circle class="st9" cx="75" cy="76.3" r="75"/>
</svg>
