<?xml version="1.0" encoding="utf-8"?>
<!-- Generator: Adobe Illustrator 24.2.3, SVG Export Plug-In . SVG Version: 6.00 Build 0)  -->
<svg version="1.1" id="Capa_1" xmlns:serif="http://www.serif.com/"
	 xmlns="http://www.w3.org/2000/svg" xmlns:xlink="http://www.w3.org/1999/xlink" x="0px" y="0px" viewBox="0 0 150 150"
	 style="enable-background:new 0 0 150 150;" xml:space="preserve">
<style type="text/css">
	.st0{fill-rule:evenodd;clip-rule:evenodd;fill:#FFFFFF;}
	.st1{fill-rule:evenodd;clip-rule:evenodd;fill:#ED1B2D;}
	.st2{fill:#ED1B2D;}
	.st3{fill:#E3E4E5;}
	.st4{fill:#A7B1B7;}
	.st5{fill:none;stroke:#515151;stroke-width:2;stroke-linecap:square;stroke-miterlimit:36;}
</style>
<path class="st0" d="M20,23.7V125C7.5,111.7,0,93.9,0,74.4S7.5,37,20,23.7L20,23.7z"/>
<path class="st0" d="M20,23.7C33.5,8.7,53.2-0.6,75-0.6c9.7,0,19,1.8,27.5,5.4V144c-8.5,3.5-17.8,5.4-27.5,5.4
	c-21.8,0-41.5-9.3-55-24.4V23.7L20,23.7z"/>
<path class="st1" d="M132.5,26.6c11,12.9,17.5,29.6,17.5,47.8s-6.5,34.9-17.5,47.8V26.6L132.5,26.6z"/>
<path class="st1" d="M132.5,122.2c-7.8,9.7-18.2,17.2-30,21.8V4.7c11.8,4.6,22.2,12.2,30,21.8V122.2z"/>
<path class="st2" d="M59.7,23.8v11.5c0.6,0.2,1.3,0.6,1.9,1.2c0.6,0.6,1,1.3,1.2,1.9h11.5v15.6H62.9c-0.2,0.6-0.6,1.3-1.2,1.9
	c-0.6,0.6-1.3,1-1.9,1.2v11.5H44.2V57.2c-0.6-0.2-1.3-0.6-1.9-1.2c-0.6-0.6-1-1.3-1.2-1.9H29.5V38.5H41c0.2-0.6,0.6-1.3,1.2-1.9
	c0.6-0.6,1.3-1,1.9-1.2V23.8H59.7z"/>
<path class="st3" d="M73.2,39.7H61.9c0-0.7-0.3-1.6-1-2.4c-0.7-0.7-1.7-1.1-2.4-1V25H45.4v11.3c-0.7,0-1.6,0.3-2.4,1
	c-0.7,0.7-1.1,1.7-1,2.4H30.7v13.2H42c0,0.7,0.3,1.6,1,2.4c0.7,0.8,1.7,1.1,2.4,1v11.2h13.2V56.3c0.6,0,1.6-0.3,2.4-1
	c0.7-0.7,1.1-1.7,1-2.4h11.2V39.7z"/>
<path class="st4" d="M52.1,56.1c5.3,0,9.7-4.3,9.7-9.7s-4.3-9.7-9.7-9.7c-5.3,0-9.7,4.3-9.7,9.7S46.7,56.1,52.1,56.1"/>
<circle class="st5" cx="75" cy="74.4" r="75"/>
</svg>
