<?xml version="1.0" encoding="utf-8"?>
<!-- Generator: Adobe Illustrator 24.2.3, SVG Export Plug-In . SVG Version: 6.00 Build 0)  -->
<svg version="1.1" id="Capa_1" xmlns:serif="http://www.serif.com/"
	 xmlns="http://www.w3.org/2000/svg" xmlns:xlink="http://www.w3.org/1999/xlink" x="0px" y="0px" viewBox="0 0 152 152"
	 style="enable-background:new 0 0 152 152;" xml:space="preserve">
<style type="text/css">
	.st0{display:none;fill:#ED1B2D;}
	.st1{display:none;}
	.st2{clip-path:url(#SVGID_2_);}
	.st3{fill:#FFE146;stroke:#000000;stroke-width:0.25;}
	.st4{fill:#DB2F34;stroke:#000000;stroke-width:0.25;}
	.st5{fill:#00633A;stroke:#000000;stroke-width:0.25;}
	.st6{fill:none;stroke:#515151;stroke-width:2;stroke-linecap:square;stroke-miterlimit:1.5;}
</style>
<circle class="st0" cx="76" cy="76" r="75"/>
<path class="st1" d="M76,50.1c-2.3-0.4,0.3-1.2-0.6-1.6c-3.1-1.6-0.5-1.1-1.1-2.1c-0.4-0.6-2.9-0.2-2.8-1.7c0.1-0.4,1.9-0.6,1.5-1.1
	c-0.5-0.7-2.8-0.5-2.8-1.9c0-0.6,3-1.1,2.4-2.2c0.4,0.9-8.9-1.1-9.1-1.1c-1.7-0.1-7,1-6.6,3.5c-0.3,0,4.3-1.7,2.8,0.1
	c-0.9,1.1-4.2-0.2-4.7-1.2c-1.1-2.1-2.7,0,0,1.4c2.8,1.4,5,2,8.2,2.8c3.2,0.9,10.4,10.8,3.8,10.8c-3.2,0-1.7-3.7-2.3-5.5
	c-1-2.7-5.4-3.3-7.7-4.3c-2.2-0.9-0.9,1.7-3.5,0.9c-3.3-1-6.7-2.8-8.4-6c-1.7-3.3-4.6,0.9-2.2,3.5c2.3,2.4,5.8,3.8,9,4.5
	c0.9,0.2,4.9,2.3,1.6,2.8c-1.9,0.3-3.9,0.4-5.8-0.2c-1.7-0.5-2.6-2.6-4.1-3c-3.3-0.9,0.6,4.9,2.2,5.6c1.4,0.5,9.5-0.7,9.5-0.7
	c0.8,2-4.1,4-5.4,4c-1.4,0-6.7-3-7.4-1.8c-1.9,3.2,4.7,4.5,6.6,4.3c0.4,0,6.1-2.1,5.9-1.1c-0.4,2.3-3.7,3.8-5.7,4.1
	c-1.9,0.4-4.8-1.7-6.4-0.8c-2.8,1.7,2.4,3.9,3.8,3.8c1.9-0.2,6.4-3.9,7.8-3.1c1.5,0.8-4.3,5.2-5.1,5.5c-1.8,0.8-7.7-1.8-6.9,1.8
	c0.5,2.3,3.7,2.3,5.4,1.8c0.9-0.2,7.7-4.9,7.8-4.7c0.3,2.5-4.9,7.1-7.1,7.9C47.7,76,42,74.8,42.7,77c2.3,7.8,12.2-4.3,13.1-3.8
	c1.7,0.9-4.5,8.1-5.6,8.7c-1.2,0.8-9.1,0.4-5.9,3.1c5.5,4.8,15.7-9.2,15.6-9.3c2.1,2.6-2.9,6-4,7.3c-1.2,1.6,1.7,2.3,2.7,1.6
	c1.8-1.2,2.8-3.6,3.6-5.5c2.4-5.4,2.9,0,0.6,2.1c-1.9,1.8,1.5,1.4,2.5,0.7c0.3-0.3,2.6-3.5,2.7-3.4c0.7,1.4-1.9,4.5-2.7,5.4
	c-2.3,2.4-7.1,2.7-4.1,5.7c-3.6,1.9-6.4,3.7-9.9,1.1c-1.1-0.8-6.9-5.5-7.2-1.1c2.6-0.4,6.1,1.7,8.2,3.1c-2.6-0.1-9.9-2.6-11,0.9
	c1.9-0.2,3.1,0.9,4.6,0.7c2.1-0.4,4.1-0.6,6.3-0.6c-1.2,0.7-10.2,3.1-6.1,6.5c0.4-2.1,4.7-4.3,6.6-5.6c1.6-1,8,2.3,8.6,3.4
	c1.7-3-4.1-3.8-5.6-4.4c1.9-0.7,3.9-1.4,5.8-2.2c2.6-1,3.9,3.1,5.4-0.2c0.9-1.9,7.6-12.3,6.2-4.5c-0.6,3.7-3.2,9-7.6,9.2
	c-6.5,0.4,6.2,4,4.9,1.2c1.5,3.2-5,2.4-5.6,3.9c-1.7,4.6,8.1-0.9,7.3-0.9c1.2,0-0.7,3.6-1.1,3.9c-0.5,0.4-3.9,0.9-3.4,2
	c1.8,3.8,6.6-2,6.7-1.8c0.9,0.9-0.7,2.6-1.1,3.3c-1.5,2.1,1.4,4.9,2.6,6.2c1.2-1.3,2.9-3.1,2.9-5c0-1.2-2.7-3.4-1.5-4.5
	c0.1-0.1,4.9,5.7,6.7,1.8c0.5-1-2.9-1.5-3.4-2c-0.4-0.3-2.3-3.9-1.1-3.9c-0.8,0,9.1,5.6,7.3,0.9c-0.6-1.5-7.1-0.6-5.6-3.9
	c-1.1,2.2,9.5,0.1,6.1-1c-4.4-1.6-7-2.8-8.5-7.8c-0.2-0.8-1.4-4.9,0.5-4.8c1.9,0.1,3.8,4.8,4.5,6.1c1.5,3.1,1.8,4,5.2,1.4
	c2.3,1,4.6,1.8,6.9,2.6c-1.6,0.6-7.3,1.4-5.6,4.4c0.4-0.8,6.5-4.1,7.8-3.7c1.8,0.4,2.9,2.1,4,3.3c1.4,1.5,2.8-0.1,3.4,2.7
	c4.1-3.4-4.9-5.8-6.1-6.5c1.7,0,3.4,0,5.1,0.1c1.5,1.1,3.9-0.4,5.8-0.2c-1.1-3.5-8.4-0.9-11-0.9c2.1-1.4,5.6-3.6,8.2-3.1
	c-0.2-2.5-5.9-1.9-6.3,0.2c-2.9,4.2-7.2,1.6-10.8-0.2c0.6-0.6,1.1-1.2,1.7-1.8c-2.1-1-10.2-5.8-8.4-9.3c-0.3,0.6,5.4,6.4,5.6,3.5
	c0.1-1.4-2.1-2.9-2.1-4.7c-0.1-3.4,2.8,2.7,2.4,1.7c0.4,0.9,4.9,9.3,6.5,4.8c0.6-1.7-6.8-5.1-4.2-8.2c-0.1,0.1,10.1,14.1,15.6,9.3
	c3.3-2.9-3.6-2.1-4.6-2.4c-1.5-0.5-9-8.3-6.9-9.3c1.9-1,8.6,10.9,12.8,4.4c1.8-2.8-3.2-1.7-4.2-1.8c-2.8-0.2-9-5.1-8.6-8.2
	c0.1-0.5,6.1,3.9,6.6,4.2c1.8,1.1,5.9,1.3,6.5-1.4c0.7-3.5-3.6-1.3-5.2-1.4c-1.4-0.1-8.6-4.9-6.8-5.9c1-0.6,12.9,7.3,12.2,0.1
	c-0.3-2.6-4.3,0-5.6,0c-2.3,0-4.9-1.1-6.4-2.9c-2.5-3.3,2.3-0.9,3.2-0.6c2.2,0.6,8.5,0.6,9-2.7c0.5-3.5-5.2,0.1-6.2,0.4
	c-1.5,0.3-8.1-1.1-7-3.9c0.2-0.5,6.7,1.3,7.8,1.1c1.6-0.2,7.8-3.4,4.9-5.8c-0.9-0.8-5.2,3-6.9,3.1c-1.7,0.1-7.8-2.2-3.9-2.7
	c2-0.3,17-6.7,10.4-9.4c-1.4-0.6-5.5,4.9-7.1,5.7c-1.3,0.7-3.2,1.7-4.8,1.7c-0.6,0-0.7-2-1.3-1.6c-1.9,1.1-4.2,1.6-6.3,2.4
	c-3.6,1.3-1.5,4.3-2.7,6.8c-1.4,2.7-4.4,0.1-4.4-2c0.1-3,1.8-5.6,4.4-7c1.7-0.9,6.8-0.4,7.1-3c1.5-0.4,2.7-0.2,4-1.3
	c0.4-0.4,1.3-2.6-0.3-1.6c-1.7,1.1-2.3,2.7-4.8,2.3c-1-0.1-0.9-0.9-0.1-1.2c1.4-0.5,1.1,0.7,2.2,0.8c0.4-2.5-4.9-3.5-6.6-3.5
	c-0.2,0-9.6,2-9.1,1.1c-0.6,1.1,2.4,1.6,2.4,2.2c0,1.3-2.3,1.1-2.8,1.9c-0.4,0.5,1.4,0.6,1.5,1.1c0.1,1.5-2.4,1.1-2.8,1.7
	c-0.6,0.9,2.1,0.4-1,2.1C75.7,48.9,78.3,49.7,76,50.1"/>
<g>
	<g>
		<g>
			<defs>
				<circle id="SVGID_1_" cx="76" cy="76" r="75"/>
			</defs>
			<clipPath id="SVGID_2_">
				<use xlink:href="#SVGID_1_"  style="overflow:visible;"/>
			</clipPath>
			<g class="st2">
				<rect x="-74" y="1.1" class="st3" width="300" height="50"/>
				<rect x="-74" y="101.2" class="st4" width="300" height="50"/>
				<rect x="-74" y="51.2" class="st5" width="300" height="50"/>
			</g>
		</g>
	</g>
</g>
<circle class="st6" cx="76" cy="76" r="75"/>
</svg>
