<?xml version="1.0" encoding="utf-8"?>
<!-- Generator: Adobe Illustrator 24.2.3, SVG Export Plug-In . SVG Version: 6.00 Build 0)  -->
<svg version="1.1" id="Capa_1" xmlns:serif="http://www.serif.com/"
	 xmlns="http://www.w3.org/2000/svg" xmlns:xlink="http://www.w3.org/1999/xlink" x="0px" y="0px" viewBox="0 0 152 151.8"
	 style="enable-background:new 0 0 152 151.8;" xml:space="preserve">
<style type="text/css">
	.st0{fill-rule:evenodd;clip-rule:evenodd;fill:#CB313F;}
	.st1{fill-rule:evenodd;clip-rule:evenodd;fill:#FFFFFF;}
	.st2{fill:#49A85D;}
	.st3{fill:#CB313F;}
	.st4{fill:none;stroke:#515151;stroke-width:2;stroke-linecap:square;stroke-miterlimit:36;}
</style>
<g>
	<ellipse class="st0" cx="76" cy="76.1" rx="75" ry="74.9"/>
	<path class="st1" d="M29.9,123.3l14.2,20.2v-40.3L29.9,123.3z M12.1,115.3l7.4-13l8,14.2l0,10.8l-2.2,3.9
		C20.2,126.5,15.7,121.2,12.1,115.3L12.1,115.3z M38.1,97.3H21.8l8.1-14.2L38.1,97.3L38.1,97.3z M15.5,97.3H4
		c-0.6-1.9-1.1-3.9-1.5-5.8l4.8-8.4L15.5,97.3L15.5,97.3z M11.4,80.6V69.8l8-14.3l8,14.3l0,10.8l-8,14.3L11.4,80.6z M29.9,73.9
		L44.2,94V53.7L29.9,73.9z M8,73.9l-6.6,9.4C1.1,80.9,1,78.5,1,76.1c0-3.7,0.3-7.4,0.8-11L8,73.9L8,73.9z M5.5,50.5h10L7.4,64.7
		l-4.1-7.1C3.9,55.2,4.6,52.9,5.5,50.5z M38.1,50.5l-8.1,14.2l-8.1-14.2L38.1,50.5L38.1,50.5z M44.2,8.3v39.1L29.9,27.2l13-18.4
		C43.3,8.7,43.7,8.5,44.2,8.3z M27,19.4l0.5,0.9l0,10.8l-8,14.3l-6-10.6C17.2,29.1,21.8,23.9,27,19.4z"/>
	<path class="st2" d="M34.7,138.6c11.3,7.5,24.7,11.9,39.2,12.3h4.1c31.7-0.9,58.4-21.4,68.6-49.8H34.7L34.7,138.6L34.7,138.6z"/>
	<path class="st3" d="M34.7,13.8L34.7,13.8l0,4.4h0v2.9h0v6.9h0v2.9h0v6.8l0,0v3.1c0,0,0,0,0,0v4.4h0v5.4h0v4.3l0,0V58c0,0,0,0,0,0
		v1.9h0v7.8h0v16.8h0v7.9l0,0V94l0,0v3.3l0,0v3.8h111.9c2.8-7.8,4.4-16.2,4.4-25c0-41.3-33.6-74.9-75-74.9
		c-15.3,0-29.4,4.6-41.3,12.4V13.8L34.7,13.8z"/>
</g>
<ellipse class="st4" cx="76" cy="75.9" rx="75" ry="74.9"/>
</svg>
