<?xml version="1.0" encoding="utf-8"?>
<!-- Generator: Adobe Illustrator 24.2.3, SVG Export Plug-In . SVG Version: 6.00 Build 0)  -->
<svg version="1.1" id="Capa_1" xmlns:serif="http://www.serif.com/"
	 xmlns="http://www.w3.org/2000/svg" xmlns:xlink="http://www.w3.org/1999/xlink" x="0px" y="0px" viewBox="0 0 150 150"
	 style="enable-background:new 0 0 150 150;" xml:space="preserve">
<style type="text/css">
	.st0{fill-rule:evenodd;clip-rule:evenodd;fill:#231F20;}
	.st1{fill-rule:evenodd;clip-rule:evenodd;fill:#FCB131;}
	.st2{fill-rule:evenodd;clip-rule:evenodd;fill:#ED1B2D;}
	.st3{fill:#FCB131;}
	.st4{fill:#231F20;}
	.st5{fill:#ED1B2D;}
	.st6{fill:none;stroke:#515151;stroke-width:2;stroke-linecap:square;stroke-miterlimit:37.5;}
</style>
<path class="st0" d="M4.6,51.3c9.9-29.1,37.8-50,70.4-50s60.5,20.9,70.4,50H4.6L4.6,51.3z"/>
<path class="st1" d="M145.4,101.4c-9.9,29.1-37.8,50-70.4,50s-60.5-20.9-70.4-50H145.4L145.4,101.4z"/>
<path class="st2" d="M145.4,51.3c3.1,7.9,4.6,16.3,4.6,25s-1.5,17.1-4.6,25H4.6C1.5,93.5,0,85.1,0,76.4s1.5-17.1,4.6-25L145.4,51.3
	L145.4,51.3z"/>
<path class="st3" d="M105.4,42.9v42.6c0,13.4-12.5,24.4-27.9,24.4S49.6,98.9,49.6,85.5V42.9H105.4z"/>
<path class="st4" d="M73.2,54.4c-0.5,1.3-1,3-0.7,5c-1-0.2-3.7-0.5-4.8,0.1c-0.4-1.3-1.7-3.2-2.5-4c2.5-2.1,2.5-2.8,1.2-3.5
	c-1.3-0.8-3.4-1.5-4.8-1.6c-1.4-0.1-1.9,0.2-2.6,0.9c-0.7,0.6-2.4,1.6-4,1.6c0.1,6.9-0.4,14.1-1.3,18.5c-0.2,1.2-0.5,3-0.3,3.9
	c1.2-0.3,1.9-1.2,3.1-1.6c0.5-2.9,1.2-7.4,1.6-10.2c0.4,0.4,1,1,1.3,1.2c0.2,3.5-2.5,18-2.8,21c1.3-0.1,2.5-1.3,3.5-1.4
	c0.6-4.7,2.5-14.6,2.4-18c0.3,0.2,0.9,0.4,1.2,0.5c-0.1,5.6-1.9,14.5-2,18.6c1-0.2,1.7-0.9,2.9-1.1c0.7-4.1,1.9-14,2.1-16.5
	c0.4,0.1,1.1,0.4,1.4,0.5c0,3-1.1,9.3-0.9,11.9c0.8-0.5,1.8-0.6,2.4-1.3c0.7-3,0.6-8,1.2-9.7c0.3,0.1,0.7,0.3,1,0.5
	c0,1.6-0.4,5.5-0.2,6.9c0.7-0.1,1.2-0.7,2.3-0.8c0-1-0.1-3.1,0.2-3.8c0.7,1.4,1.3,2.6,1.3,4.6c-2.9,1.8-4,5.1-8.2,5.3
	c0.5,1.1,1.7,1.8,3.2,2.2c0.2,1.2,0.3,2.9,0.8,3.7c1.3-1.1,1.7-4,4-4.1c-0.4,1.5-0.4,2.3-0.6,2.8c-0.4,1.7-1.7,1.8-2.4,3
	c1.2,1.2,2.5,1.3,3.5,0.9c-0.9,2.2-4.4,2.7-5.9,2.2c-0.3,0.5-0.3,1.1,0,1.4c-1.6,0.6-3.1,2.9-0.9,4.6c0.2-1.2,0.8-1.9,1.8-1.8
	c0.1,0.3,0.3,0.9,0.2,1.3c2,0.1,4.9-2.1,5.5-3c0.8,1.4-0.9,3.2-2.2,4.1c0.7,0.6,1.4,0.9,2.3,0.7c-0.5,2.2,1.7,2.5,1,4.5
	c1.2-0.9,2-3.2,1.3-4.5c0.9,0.1,1.7-0.1,2.4-0.7c-1.3-1-3-2.8-2.2-4.1c0.6,1,3.5,3.1,5.5,3c-0.1-0.4,0.1-1,0.2-1.3
	c1-0.1,1.6,0.5,1.8,1.8c2.3-1.7,0.7-4-0.9-4.6c0.3-0.3,0.3-1,0-1.4c-1.5,0.5-5,0-5.9-2.2c1,0.3,2.3,0.3,3.5-0.9
	c-0.7-1.2-2.1-1.3-2.4-3c-0.1-0.6-0.2-1.3-0.6-2.8c2.3,0,2.6,3,4,4.1c0.5-0.8,0.6-2.5,0.8-3.7c1.5-0.4,2.7-1.1,3.2-2.2
	c-4.2-0.2-5.3-3.5-8.3-5.3c0-2,0.6-3.2,1.3-4.6c0.3,0.7,0.2,2.8,0.2,3.8c1.1,0.2,1.5,0.7,2.3,0.8c0.2-1.4-0.3-5.3-0.2-6.9
	c0.3-0.2,0.7-0.3,1-0.5c0.6,1.6,0.4,6.7,1.2,9.7c0.6,0.7,1.6,0.8,2.4,1.3c0.2-2.6-1-8.9-0.9-11.9c0.3-0.1,1-0.3,1.4-0.5
	c0.2,2.5,1.4,12.4,2.1,16.5c1.2,0.2,2,0.9,2.9,1.1c-0.1-4.1-2-13.1-2.1-18.6c0.3-0.1,0.9-0.4,1.2-0.5c-0.1,3.4,1.7,13.3,2.3,18
	c0.9,0.1,2.2,1.3,3.5,1.4c-0.2-3-3-17.5-2.8-21c0.3-0.2,0.9-0.8,1.3-1.2c0.4,2.8,1,7.3,1.6,10.2c1.2,0.4,1.9,1.3,3.2,1.6
	c0.2-0.9-0.1-2.7-0.3-3.9c-0.9-4.4-1.3-11.6-1.3-18.5c-1.7,0-3.3-1-4-1.6c-0.7-0.6-1.2-1-2.6-0.9c-1.4,0.1-3.5,0.8-4.8,1.6
	c-1.4,0.8-1.4,1.4,1.2,3.5c-0.9,0.8-2.1,2.7-2.5,4c-1.1-0.6-3.8-0.3-4.8-0.1c0.3-2-0.3-7.1-1.3-9.5c0.3-0.2,0.7-0.5,1.1-1.1
	c0.3-0.6-0.4-0.3-1.1-0.5c-1.8-0.6-4.9-2.7-6.9-2.7c-0.2,0.5-0.5,1.1-1.3,1.7c-0.7,0.6,1,2.5,2.3,4.1C76.6,52.9,73.7,52.7,73.2,54.4
	"/>
<path class="st5" d="M56.9,87.7c0.1-0.1,0.2-0.2,0.3-0.3c0.8-0.4,3.1,0.5,3.8,1.1c0.6,0.6,1.3,0.7,1.6,0.5c1.7-0.8,4.3-4.1,6.1-5.7
	c0.4,0.2,0.9,0.4,1.5,0.5c0.1,0.3,0.1,0.7,0.2,1c-0.7,0.7-2.5,2.5-3.5,3.5c0.7,0.2,1.7,0.9,1.7,2c0,0.1,0,0.1,0,0.2
	c0.1,0.1,0.1,0.1,0.2,0.2c0.5,0.7-0.1,2.2-1,2.6c0.3-0.9-0.6-1-0.7-1.9c0,0,0,0,0,0c-0.1,0-0.2-0.1-0.3-0.1
	c-0.7-0.4-0.1-1.5-1.5-2.1c-0.2,0.6-1,0.1-1.5,1.1c-0.6,1,1,1.7,0.5,3.1c0,0.1-0.1,0.2-0.1,0.2c0.4,0.5-0.2,1.4,1.1,1.7
	c-1.5,1.1-3.5-0.1-3.1-1.2v0c0,0-0.1-0.1-0.1-0.1c-0.7-0.6,0.6-1.6-0.4-3.1c-1.8,1.6-1.2,3-2.7,3.2c-0.2,0-0.3,0-0.4,0
	c-0.3,0.4-0.7,0.7-0.4,2c-1.5-0.3-2.1-3-1.1-3.6c0.1-0.1,0.2-0.1,0.2-0.1c0-0.1,0-0.1,0.1-0.1c0.3-0.7,1.4-0.4,2.7-1.2
	c0.9-0.5,0.3-0.7-0.3-0.7c-0.6,0-1.3-0.1-2.1-0.6c-0.1-0.1-0.1-0.1-0.2-0.2c-0.5,0.3-1.7,0-2.1,1.4c-0.4-1.3,0.1-2.7,1.3-3.1
	C56.5,87.6,56.8,87.6,56.9,87.7L56.9,87.7z"/>
<path class="st5" d="M84.7,84.8c0.1-0.4,0.1-0.7,0.2-1c0.5-0.1,1-0.3,1.5-0.5c1.8,1.6,4.4,4.8,6.1,5.7c0.3,0.2,1,0.1,1.6-0.5
	c0.6-0.6,3-1.5,3.8-1.1c0.1,0.1,0.2,0.2,0.3,0.3c0.2,0,0.3,0,0.6,0.1c1.2,0.4,1.7,1.8,1.3,3.1c-0.3-1.4-1.5-1-2.1-1.4
	c-0.1,0.1-0.1,0.1-0.2,0.2c-0.8,0.6-1.5,0.6-2.1,0.6c-0.6,0-1.2,0.2-0.3,0.7c1.3,0.8,2.3,0.5,2.7,1.2c0,0.1,0,0.1,0.1,0.1
	c0.1,0,0.2,0.1,0.3,0.1c1,0.6,0.3,3.3-1.1,3.6c0.3-1.3-0.1-1.7-0.4-2c-0.1,0-0.3,0-0.4,0c-1.5-0.1-0.9-1.5-2.7-3.2
	c-1,1.5,0.3,2.5-0.4,3.1c0,0-0.1,0.1-0.1,0.1v0c0.3,1.1-1.7,2.3-3.1,1.2c1.3-0.3,0.7-1.1,1.1-1.7c-0.1-0.1-0.1-0.1-0.1-0.2
	c-0.6-1.4,1-2.1,0.5-3.1c-0.6-1-1.3-0.6-1.5-1.1c-1.5,0.5-0.8,1.7-1.5,2.1c-0.1,0.1-0.2,0.1-0.3,0.1c0,0,0,0,0,0c0,1-1,1.1-0.7,1.9
	c-1-0.4-1.5-1.9-1-2.6c0.1-0.1,0.1-0.1,0.2-0.2c0-0.1,0-0.1,0-0.2c0-1,1-1.7,1.7-2C87.2,87.4,85.3,85.5,84.7,84.8L84.7,84.8z"/>
<path class="st5" d="M74.4,51.7c-0.1-0.3-0.2-0.6-0.6-0.9c-1-0.7-2.5-0.9-3.2,0.5c-0.4-1.8-0.2-3.5,1.2-4.1c1.4-0.6,1.8,0.1,2.7,1
	c1.6,1.7,2,3.4,2.1,4.8c0,0.9,0.4,1.7,0.9,2.2c-2.3-0.7-5,1.4-6.5-1.3c0.8,0.3,1.4,0.1,1.9-0.2c-2.1-0.2-3.8-1.5-4.4-2.6
	C72,52.5,73,51.5,74.4,51.7L74.4,51.7z"/>
<circle class="st6" cx="75" cy="76.4" r="75"/>
</svg>
