<?xml version="1.0" encoding="utf-8"?>
<!-- Generator: Adobe Illustrator 24.2.3, SVG Export Plug-In . SVG Version: 6.00 Build 0)  -->
<svg version="1.1" id="Capa_1" xmlns:serif="http://www.serif.com/"
	 xmlns="http://www.w3.org/2000/svg" xmlns:xlink="http://www.w3.org/1999/xlink" x="0px" y="0px" viewBox="0 0 150 150"
	 style="enable-background:new 0 0 150 150;" xml:space="preserve">
<style type="text/css">
	.st0{fill-rule:evenodd;clip-rule:evenodd;fill:#FFFFFF;}
	.st1{fill-rule:evenodd;clip-rule:evenodd;fill:#008357;}
	.st2{fill-rule:evenodd;clip-rule:evenodd;fill:#231F20;}
	.st3{fill-rule:evenodd;clip-rule:evenodd;fill:#F15D2F;}
	.st4{fill:none;stroke:#515151;stroke-width:2;stroke-linecap:square;stroke-miterlimit:36;}
</style>
<path class="st0" d="M145.4,49.4c3.1,7.9,4.6,16.3,4.6,25s-1.5,17.1-4.6,25H75v-50H145.4z"/>
<path class="st1" d="M75-0.6L75-0.6c32.7,0,60.5,20.9,70.4,50H75L75-0.6L75-0.6z"/>
<path class="st2" d="M145.4,99.4c-9.9,29.1-37.7,50-70.4,50h0v-50H145.4L145.4,99.4z"/>
<path class="st3" d="M75-0.6v150c-41.7-0.3-75-33.8-75-75S33.3-0.3,75-0.6L75-0.6z"/>
<circle class="st4" cx="75" cy="74.4" r="75"/>
</svg>
