<?xml version="1.0" encoding="utf-8"?>
<!-- Generator: Adobe Illustrator 24.2.3, SVG Export Plug-In . SVG Version: 6.00 Build 0)  -->
<svg version="1.1" id="Capa_1" xmlns:serif="http://www.serif.com/"
	 xmlns="http://www.w3.org/2000/svg" xmlns:xlink="http://www.w3.org/1999/xlink" x="0px" y="0px" viewBox="0 0 152 152"
	 style="enable-background:new 0 0 152 152;" xml:space="preserve">
<style type="text/css">
	.st0{clip-path:url(#SVGID_2_);}
	.st1{fill:#3D97D3;stroke:#000000;stroke-width:0.25;}
	.st2{fill:#FFFFFF;stroke:#000000;stroke-width:0.25;}
	.st3{fill:#2D8C2D;stroke:#000000;stroke-width:0.125;}
	.st4{fill:none;stroke:#000000;stroke-width:0.125;stroke-linecap:round;}
	.st5{fill:#E30520;}
	.st6{fill:none;stroke:#000000;stroke-width:0.125;stroke-linecap:round;stroke-linejoin:round;}
	.st7{fill:#CCC0B6;stroke:#000000;stroke-width:0.125;stroke-linecap:round;stroke-linejoin:round;}
	.st8{fill:#7C311C;stroke:#000000;stroke-width:0.125;stroke-linecap:round;stroke-linejoin:round;}
	.st9{fill:#FFD039;stroke:#000000;stroke-width:0.125;stroke-linecap:round;stroke-linejoin:round;}
	.st10{fill:none;stroke:#000000;stroke-width:6.300000e-02;stroke-linecap:round;stroke-linejoin:round;}
	.st11{fill:#E30520;stroke:#000000;stroke-width:0.125;stroke-linecap:round;stroke-linejoin:round;}
	.st12{fill:#2D8C2D;stroke:#000000;stroke-width:0.125;stroke-linecap:round;stroke-linejoin:round;}
	.st13{fill:#FFEC00;}
	.st14{fill:#FFFADB;stroke:#000000;stroke-width:0.125;}
	.st15{fill:#FFFADB;}
	.st16{fill:#2D8C2D;stroke:#000000;stroke-width:0.125;stroke-linecap:round;}
	.st17{fill:none;stroke:#FFD039;stroke-width:0.25;stroke-linecap:round;stroke-linejoin:round;}
	.st18{fill:none;stroke:#515151;stroke-width:2;stroke-linecap:square;stroke-miterlimit:1.5;}
</style>
<g>
	<g>
		<g>
			<defs>
				<circle id="SVGID_1_" cx="76" cy="76" r="75"/>
			</defs>
			<clipPath id="SVGID_2_">
				<use xlink:href="#SVGID_1_"  style="overflow:visible;"/>
			</clipPath>
			<g class="st0">
				<g>
					<rect x="-44" y="0.9" class="st1" width="80" height="150"/>
					<rect x="116" y="0.9" class="st1" width="80" height="150"/>
				</g>
				<rect x="36" y="0.9" class="st2" width="80" height="150"/>
				<g>
					<g>
						<g>
							<g>
								<path class="st3" d="M73.2,96.6c-3.2-1.3-4.6-4.8-4.2-6.6c0.1-0.8,0.5-1.3,0.9,0c0.4,1.6,1.6,1.2,2.6,4.2
									c0.5,1.6,0.9,1.9,2.9,2.8"/>
								<path class="st3" d="M72.6,96.8c-6-0.9-5.8,1.8-8.8,2.7c-0.9,0.3-1.1,0.7,0.3,0.9c6.1,0.5,6.9-3.9,10.4-2.6"/>
								<path class="st3" d="M66.1,94.6c-1.8-0.9-4.9-1.9-6.8-1.4c-1.9,0.6-2.2,0.8-0.8,1.5c5,2.5,6.9,0.1,9,0.6"/>
								<path class="st3" d="M63.9,93.3c-3.5-2.6-2.9-4.1-3.9-5.5c-0.9-1.5-0.8-1.8,0.5-0.9c4.4,3,2.6,5.3,4.2,6.2"/>
								<path class="st3" d="M59.8,89.5c-3.3-4.4-0.5-5.5-0.7-6.6c-0.2-1.1,0.1-1.3,0.7,0.1c1.6,3.6-1.2,4.9,0.8,6.9"/>
								<path class="st3" d="M55.3,82.9c-0.8-1.8-2.6-2.4-3.5-2.3c-0.8,0.1-1.9,0.2-2.4,0c-0.6-0.2-0.6,0.7,1,1.4
									c1.6,0.7,5.3,2.1,6.1,3.5"/>
								<path class="st3" d="M53.7,74.3c0.1-2,0.4-3.2,1.6-4.3c1.2-1.1,1.9-1.2,1.4-0.3c-1,2-0.4,3.4-2.6,6.3"/>
								<path class="st3" d="M54,70.4c-0.3-3-1.8-3-2.3-4.4c-0.5-1.4-0.8-0.2-0.6,1.1c0.3,2.1,2.6,3.5,2.6,5.6"/>
								<path class="st3" d="M53.9,71.8c0.1-1.9-0.1-3.5-0.8-4.7c-0.6-1.1-0.5,0.3-1.1,1.6c-0.7,1.4-0.4,4.5,1.6,6.9"/>
								<path class="st3" d="M54.8,66.3c0.2-4-1.5-4-2-5.7c-0.5-1.7-0.6-1.3-0.8,0.1c-1,6.3,2.4,5.6,2.1,8.1"/>
								<path class="st3" d="M56.5,61.3c0.4-2.6-0.5-3.3,0.5-4.9c0.5-0.8,1.2-1.8,1.1-0.5C57.8,57.2,58,59.2,56.5,61.3z"/>
								<path class="st3" d="M54.9,65.4c0.4-3.2-1.8-5.8-0.2-8.5c0.9-1.4,1.3-1.5,1.2-0.4c-0.2,2,1.8,4.2-0.8,8.2"/>
								<g>
									<path class="st3" d="M70.9,95.5c4.4,1.2,6.7,2.1,7.9,3.5c-0.1,0.6,0,1.2-0.1,1.6c-3.3-3.5-7.1-2.8-11.9-5.6
										c-16.2-9.2-14.9-23.3-10.2-33.7c0.6-1.4,1.3-2.7,1.4-4.1c0.1-1.6,1.4-2.5,3.1-3c1.4-0.4,1,0.2,0.5,0.8
										c-1,1.1-0.2,2.5-3,4.4c-0.7,0.5-0.9,1.1-1.4,2.1C48.8,80.4,59,92.3,70.9,95.5z"/>
								</g>
								<path class="st3" d="M55.2,65.7c0.4-1.2,1.6-3.9,3.3-4.4c1.7-0.5,3.3-1.2,4.1-3.5c0.3-0.8,0.9-2.6-0.3-1.2
									c-1.1,1.4-3.2,0.2-5.4,4.6c-0.4,0.8-1.4,2.5-2.1,5"/>
								<path class="st3" d="M54.5,66.4c1.1-4,3.4-3.4,4.4-4.8c1.1-1.4,1.5-1.5,0.9,0.4c-1.6,4.5-4.8,4.3-5.3,6.4"/>
								<path class="st3" d="M54.3,68.8c1.2-4.1,4-3.5,5.1-5.3c1.2-1.7,1.6-1.9,1.4,0.1c-0.6,5.5-6.3,3.5-6.6,6.5"/>
								<path class="st3" d="M53.5,71.7c0.5-4.4,4-3.9,5.1-5c0.4-0.4,0.7,0.6-0.1,1.8c-1.9,2.8-4.1,0.9-4.4,3.9"/>
								<path class="st3" d="M54.2,77.2c-0.5-4.4-3.3-5.7-3.9-7.4c-0.6-1.6-0.5,0.4-0.4,1.3c0.9,5.9,3.2,3.9,3.8,7.1"/>
								<path class="st3" d="M53.7,78.7c-0.6-3.1,0.5-5.4,2.3-6.6c1.8-1.2,1.3-0.5,1.2,0.6c-0.7,5.3-3.3,3.2-2.6,6.9"/>
								<path class="st3" d="M54.5,79.7c-0.9-3-3.1-4.3-4.7-4.4c-1.6-0.1-0.4,0.5-0.2,1.1c1.4,3.4,3.9,2,4.9,4.6"/>
								<path class="st3" d="M57.7,86.6c-1.5-2.2-1.2-3.8-2.7-5.1c-1.5-1.3-2.7-1.5-3.5-2.3c-0.8-0.8-0.9,0.1-0.1,1.6
									c1.7,3.3,4.1,3,5.4,5.4"/>
								<path class="st3" d="M56.9,85.2c-0.7-1.4-0.2-5.5,0.3-7.6c0.5-2.1,0.1-2.4-0.9-1.3c-1.2,1.4-2.9,3.4,0.3,8.9"/>
								<path class="st3" d="M57.6,86.7c-3.2-3.8-5.4-2.3-6.9-3.2c-1.6-0.9-0.7,0.5-0.3,0.9c4.5,4.5,5.1,1,7.6,3.5"/>
								<path class="st3" d="M57.3,86.3c-1.6-2.4-1.6-4.8-0.5-6.9c1-2,1.3-1.4,1.2,0.1c-0.1,1.5,1.1,2.1,0.3,4.9
									c-0.3,0.9-0.5,2.8,0.7,4.1"/>
								<path class="st3" d="M61.1,90.7c-1.3-1.5-2.4-2.9-4.4-3.2c-2-0.2-2.6-0.5-1.6,0.7c3.5,4.3,5.3,2.4,7.1,3.7"/>
								<path class="st3" d="M63.5,92.2c-1.6-1-4.7-1.7-6.9-1.2c-1.3,0.3-0.8,0.5,0,0.8c1.7,0.5,2.2,2.2,5.8,1.9
									c0.7-0.1,1.5-0.3,2.8,0.4"/>
								<path class="st3" d="M65,93.5c-1.8-1.1-2.9-3.8-3.2-6.5c-0.1-1.4,0.2-2.1,0.9-0.6c0.8,1.9,2.2,1.9,3.1,4.8
									c0.8,2.6,1.3,2.9,2.7,3.5"/>
								<path class="st3" d="M69.3,95.4c-2.4-1.3-3.6-3.4-3.9-5.8c-0.3-2.2,0.3-1.9,1-0.6c0.7,1.3,2.1,1.1,2.9,3.9
									c0.3,0.9,0.9,2.4,2.8,2.9"/>
								<path class="st3" d="M71.7,96.2c-3.8-1.2-7.3-1-9.3,0.5c-1,0.8-0.8,1.1,0.1,0.9c2.5-0.4,3.6,1,6.6-0.3
									c0.6-0.3,1.8-0.6,4.3,0.3"/>
							</g>
							<g>
								<path class="st3" d="M78.7,96.6c3.2-1.3,4.6-4.8,4.2-6.6c-0.1-0.8-0.5-1.3-0.9,0c-0.4,1.6-1.6,1.2-2.6,4.2
									c-0.5,1.6-0.9,1.9-2.9,2.8"/>
								<path class="st3" d="M79.3,96.8c6-0.9,5.8,1.8,8.8,2.7c0.9,0.3,1.1,0.7-0.3,0.9c-6.1,0.5-6.9-3.9-10.4-2.6"/>
								<path class="st3" d="M85.7,94.6c1.8-0.9,4.9-1.9,6.8-1.4s2.2,0.8,0.8,1.5c-5,2.5-6.9,0.1-9,0.6"/>
								<path class="st3" d="M87.9,93.3c3.5-2.6,2.9-4.1,3.9-5.5c0.9-1.5,0.8-1.8-0.5-0.9c-4.4,3-2.6,5.3-4.2,6.2"/>
								<path class="st3" d="M92.1,89.5c3.3-4.4,0.5-5.5,0.7-6.6c0.2-1.1-0.1-1.3-0.7,0.1c-1.6,3.6,1.2,4.9-0.8,6.9"/>
								<path class="st3" d="M96.6,82.9c0.8-1.8,2.6-2.4,3.5-2.3c0.8,0.1,1.9,0.2,2.4,0c0.6-0.2,0.6,0.7-1,1.4
									c-1.6,0.7-5.3,2.1-6.1,3.5"/>
								<path class="st3" d="M98.2,74.3c-0.1-2-0.4-3.2-1.6-4.3c-1.2-1.1-1.9-1.2-1.4-0.3c1,2,0.4,3.4,2.6,6.3"/>
								<path class="st3" d="M97.9,70.4c0.3-3,1.8-3,2.3-4.4c0.5-1.4,0.8-0.2,0.6,1.1c-0.3,2.1-2.6,3.5-2.6,5.6"/>
								<path class="st3" d="M98,71.8c-0.1-1.9,0.1-3.5,0.8-4.7c0.6-1.1,0.5,0.3,1.1,1.6c0.7,1.4,0.4,4.5-1.6,6.9"/>
								<path class="st3" d="M97.1,66.3c-0.2-4,1.5-4,2-5.7s0.6-1.3,0.8,0.1c1.1,6.3-2.4,5.6-2.1,8.1"/>
								<path class="st3" d="M95.3,61.3c-0.4-2.6,0.5-3.3-0.5-4.9c-0.5-0.8-1.2-1.8-1.1-0.5C94,57.2,93.9,59.2,95.3,61.3z"/>
								<path class="st3" d="M96.9,65.4c-0.4-3.2,1.8-5.8,0.2-8.5c-0.9-1.4-1.3-1.5-1.2-0.4c0.2,2-1.8,4.2,0.8,8.2"/>
								<g>
									<path class="st3" d="M81,95.5c-4.4,1.2-6.7,2.1-7.9,3.5c0.1,0.6,0,1.2,0.1,1.6c3.3-3.5,7.1-2.8,11.9-5.6
										c16.2-9.2,14.9-23.3,10.2-33.7c-0.6-1.4-1.3-2.7-1.4-4.1c-0.1-1.6-1.4-2.5-3.1-3c-1.4-0.4-1,0.2-0.5,0.8
										c1,1.1,0.2,2.5,3,4.4c0.7,0.5,0.9,1.1,1.4,2.1C103.1,80.4,92.8,92.3,81,95.5z"/>
								</g>
								<path class="st3" d="M96.6,65.7c-0.4-1.2-1.6-3.9-3.3-4.4s-3.3-1.2-4.1-3.5c-0.3-0.8-0.9-2.6,0.3-1.2
									c1.1,1.4,3.2,0.2,5.4,4.6c0.4,0.8,1.4,2.5,2.1,5"/>
								<path class="st3" d="M97.3,66.4c-1.1-4-3.4-3.4-4.4-4.8c-1.1-1.4-1.5-1.5-0.9,0.4c1.6,4.5,4.8,4.3,5.3,6.4"/>
								<path class="st3" d="M97.6,68.8c-1.2-4.1-4-3.5-5.1-5.3c-1.2-1.7-1.6-1.9-1.4,0.1c0.6,5.5,6.3,3.5,6.6,6.5"/>
								<path class="st3" d="M98.4,71.7c-0.5-4.4-4-3.9-5.1-5c-0.4-0.4-0.7,0.6,0.1,1.8c1.9,2.8,4.1,0.9,4.4,3.9"/>
								<path class="st3" d="M97.7,77.2c0.5-4.4,3.3-5.7,3.9-7.4c0.6-1.6,0.5,0.4,0.4,1.3c-0.9,5.9-3.2,3.9-3.8,7.1"/>
								<path class="st3" d="M98.1,78.7c0.6-3.1-0.5-5.4-2.3-6.6c-1.8-1.2-1.3-0.5-1.2,0.6c0.7,5.3,3.3,3.2,2.6,6.9"/>
								<path class="st3" d="M97.4,79.7c0.9-3,3.1-4.3,4.7-4.4c1.6-0.1,0.4,0.5,0.2,1.1c-1.4,3.4-3.9,2-4.9,4.6"/>
								<path class="st3" d="M94.1,86.6c1.5-2.2,1.2-3.8,2.7-5.1c1.5-1.3,2.7-1.5,3.5-2.3c0.8-0.8,0.9,0.1,0.1,1.6
									c-1.7,3.3-4.1,3-5.4,5.4"/>
								<path class="st3" d="M95,85.2c0.7-1.4,0.2-5.5-0.3-7.6s-0.1-2.4,0.9-1.3c1.2,1.4,2.9,3.4-0.3,8.9"/>
								<path class="st3" d="M94.2,86.7c3.2-3.8,5.4-2.3,6.9-3.2c1.6-0.9,0.7,0.5,0.3,0.9c-4.5,4.5-5.1,1-7.6,3.5"/>
								<path class="st3" d="M94.5,86.3c1.6-2.4,1.6-4.8,0.5-6.9c-1-2-1.3-1.4-1.2,0.1c0.1,1.5-1.1,2.1-0.3,4.9
									c0.3,0.9,0.5,2.8-0.7,4.1"/>
								<path class="st3" d="M90.8,90.7c1.3-1.5,2.4-2.9,4.4-3.2c2-0.2,2.6-0.5,1.6,0.7c-3.5,4.3-5.3,2.4-7.1,3.7"/>
								<path class="st3" d="M88.4,92.2c1.6-1,4.7-1.7,6.9-1.2c1.3,0.3,0.9,0.5,0,0.8c-1.7,0.5-2.2,2.2-5.8,1.9
									c-0.7-0.1-1.5-0.3-2.8,0.4"/>
								<path class="st3" d="M86.9,93.5c1.8-1.1,2.9-3.8,3.2-6.5c0.1-1.4-0.2-2.1-0.9-0.6c-0.8,1.9-2.2,1.9-3.1,4.8
									c-0.8,2.6-1.3,2.9-2.7,3.5"/>
								<path class="st3" d="M82.6,95.4c2.4-1.3,3.6-3.4,3.9-5.8c0.3-2.2-0.3-1.9-1-0.6c-0.7,1.3-2.1,1.1-2.9,3.9
									c-0.3,0.9-0.9,2.4-2.8,2.9"/>
								<path class="st3" d="M80.2,96.2c3.8-1.2,7.3-1,9.3,0.5c1,0.8,0.8,1.1-0.1,0.9c-2.5-0.4-3.6,1-6.6-0.3
									c-0.6-0.3-1.8-0.6-4.3,0.3"/>
							</g>
						</g>
						<g>
							<g>
								<path class="st4" d="M60.9,54.7C59.1,56,59,58,58.1,58.8"/>
								<path class="st4" d="M58.1,60.7c1.5-1.6,3.3-1.7,3.9-3.2"/>
								<path class="st4" d="M57.6,56.3c-0.7,0.8-0.3,2.4-0.6,3"/>
								<path class="st4" d="M55.5,56.7c-0.7,1.9,0.6,3.8,0.2,5.5"/>
								<path class="st4" d="M52.5,60.8c0.1,2.4,0.9,1.9,1.4,5.1"/>
								<path class="st4" d="M59.3,61.9c-0.8,1.8-2.9,2.1-3.6,3.8"/>
								<path class="st4" d="M56,67.4c1.3-1.4,3.5-1.6,4.3-3.9"/>
								<path class="st4" d="M58.4,67.5c-1,1.3-2.6,0.9-3.3,2.4"/>
								<path class="st4" d="M52.8,68.2c0.2,1.1,0,3,0.2,3.9"/>
								<path class="st4" d="M51.4,66.4c0.1,0.6,0.4,1.2,0.6,1.6"/>
								<path class="st4" d="M50.3,70.6c0.6,2.7,2.2,2.9,2.6,4.6"/>
								<path class="st4" d="M56.6,72.6c-0.5,1.7-1.9,2.6-2.4,4.1"/>
								<path class="st4" d="M49.8,75.9c1.4,0.5,2,1.7,3.4,2.6"/>
								<path class="st4" d="M51.6,79.9c1,1.4,2,1.5,2.6,2.5"/>
								<path class="st4" d="M56.7,76.7c-0.2,1.3-1.2,2.2-1.1,3.6"/>
								<path class="st4" d="M57.6,79c-0.6,1.9,0.2,3.3-0.2,4.8"/>
								<path class="st4" d="M50.7,84c1.3,1,3.5,0.9,4.4,1.8"/>
								<path class="st4" d="M59.5,83.2c0.1,1.3-0.6,2.3-0.4,3.3"/>
								<path class="st4" d="M55.5,87.9c1.5,0.6,3.1,2.1,4,2.4"/>
								<path class="st4" d="M60.3,87.2c0.6,0.7,0.8,2,1.7,3.1"/>
								<path class="st4" d="M62.3,86.6c0.3,2,1.7,2.9,2.4,5.1"/>
								<path class="st4" d="M57.2,91.3c1.8,0.1,3.4,1.1,5,1.3"/>
								<path class="st4" d="M58.9,94.1c1.5,0,3.4,0.8,4.9,0.6"/>
								<path class="st4" d="M65.8,88.9c0.5,2.2,1.9,2.8,2.4,4.5"/>
								<path class="st4" d="M69.4,90.1c0.2,2,1.6,3,2.1,4.2"/>
								<path class="st4" d="M62.8,97.1c2.6-0.8,4.6-0.4,6.3-0.8"/>
								<path class="st4" d="M64.5,99.8c3.4-0.5,3.9-2.3,5.8-2.4"/>
							</g>
							<g>
								<path class="st4" d="M91,54.7c1.8,1.3,1.8,3.3,2.7,4.1"/>
								<path class="st4" d="M93.8,60.7c-1.5-1.6-3.3-1.7-3.9-3.2"/>
								<path class="st4" d="M94.2,56.3c0.7,0.8,0.3,2.4,0.6,3"/>
								<path class="st4" d="M96.3,56.7c0.7,1.9-0.6,3.8-0.2,5.5"/>
								<path class="st4" d="M99.3,60.8c-0.1,2.4-0.9,1.9-1.4,5.1"/>
								<path class="st4" d="M92.5,61.9c0.8,1.8,2.9,2.1,3.6,3.8"/>
								<path class="st4" d="M95.8,67.4c-1.3-1.4-3.5-1.6-4.3-3.9"/>
								<path class="st4" d="M93.5,67.5c1,1.3,2.6,0.9,3.3,2.4"/>
								<path class="st4" d="M99,68.2c-0.2,1.1,0,3-0.2,3.9"/>
								<path class="st4" d="M100.5,66.4c-0.1,0.6-0.4,1.2-0.6,1.6"/>
								<path class="st4" d="M101.6,70.6c-0.6,2.7-2.2,2.9-2.6,4.6"/>
								<path class="st4" d="M95.2,72.6c0.5,1.7,1.9,2.6,2.4,4.1"/>
								<path class="st4" d="M102,75.9c-1.4,0.5-2,1.7-3.4,2.6"/>
								<path class="st4" d="M100.2,79.9c-1,1.4-2,1.5-2.6,2.5"/>
								<path class="st4" d="M95.2,76.7c0.2,1.3,1.2,2.2,1.1,3.6"/>
								<path class="st4" d="M94.3,79c0.6,1.9-0.2,3.3,0.2,4.8"/>
								<path class="st4" d="M101.2,84c-1.3,1-3.5,0.9-4.4,1.8"/>
								<path class="st4" d="M92.4,83.2c-0.1,1.3,0.6,2.3,0.4,3.3"/>
								<path class="st4" d="M96.3,87.9c-1.5,0.6-3.1,2.1-4,2.4"/>
								<path class="st4" d="M91.6,87.2c-0.6,0.7-0.8,2-1.7,3.1"/>
								<path class="st4" d="M89.6,86.6c-0.3,2-1.7,2.9-2.4,5.1"/>
								<path class="st4" d="M94.7,91.3c-1.8,0.1-3.4,1.1-5,1.3"/>
								<path class="st4" d="M92.9,94.1c-1.5,0-3.4,0.8-4.9,0.6"/>
								<path class="st4" d="M86.1,88.9c-0.5,2.2-1.9,2.8-2.4,4.5"/>
								<path class="st4" d="M82.5,90.1c-0.2,2-1.6,3-2.1,4.2"/>
								<path class="st4" d="M89.1,97.1c-2.6-0.8-4.6-0.4-6.3-0.8"/>
								<path class="st4" d="M87.3,99.8c-3.4-0.5-3.9-2.3-5.8-2.4"/>
							</g>
						</g>
					</g>
					<g>
						<g>
							<path class="st5" d="M98.2,67.7c0.8,0,0.8,1.2,0,1.2C97.4,68.9,97.4,67.7,98.2,67.7z"/>
							<path class="st5" d="M95.1,61.8c0.8,0,0.8,1.2,0,1.2C94.2,62.9,94.3,61.8,95.1,61.8z"/>
							<path class="st5" d="M98.4,72.4c0.8,0,0.8,1.2,0,1.2C97.6,73.6,97.6,72.4,98.4,72.4z"/>
							<path class="st5" d="M94,86.4c0.8,0,0.8,1.2,0,1.2C93.2,87.6,93.2,86.4,94,86.4z"/>
							<path class="st5" d="M82.1,94.3c0.8,0,0.8,1.2,0,1.2C81.3,95.5,81.4,94.3,82.1,94.3z"/>
						</g>
						<g>
							<path class="st5" d="M53.7,67.7c-0.8,0-0.8,1.2,0,1.2C54.5,68.9,54.5,67.7,53.7,67.7z"/>
							<path class="st5" d="M56.8,61.8c-0.8,0-0.8,1.2,0,1.2S57.6,61.8,56.8,61.8z"/>
							<path class="st5" d="M53.4,72.4c-0.8,0-0.8,1.2,0,1.2C54.2,73.6,54.2,72.4,53.4,72.4z"/>
							<path class="st5" d="M57.9,86.4c-0.8,0-0.8,1.2,0,1.2C58.7,87.6,58.7,86.4,57.9,86.4z"/>
							<path class="st5" d="M69.7,94.3c-0.8,0-0.8,1.2,0,1.2C70.5,95.5,70.5,94.3,69.7,94.3z"/>
						</g>
					</g>
					<g>
						<path class="st6" d="M86.4,86.9c-0.4,0.2-1,0.3-1.4-0.4c-0.3-0.5-0.2-1.1,0.4-1.4l0.7,1.1c-0.2,0.3-0.5,0.3-0.8,0.4"/>
						<path class="st7" d="M88.1,86.2c0,0-0.5-0.5-0.6-0.6c-0.2-0.2-0.3-1.1,0.2-1.3c-0.5-0.1-0.9-0.4-0.8-1l-8.2-8.2
							c-0.1-0.1-0.2-0.1-0.3,0C77,73.8,65.9,62.7,64.7,61.4L64,62l12.6,12.6c-0.4,0.4-0.5,1.3,0.8,2.6c1.3,1.3,6.9,6.9,6.9,6.9
							l0.2-0.2c0.4,0.6,2.2,3.7,2.2,3.7L88.1,86.2z"/>
						<path class="st7" d="M68.8,66.1c-0.5,0.5-0.6,0.4-0.9,0.1c-0.4-0.4-0.4-0.5-0.3-0.6c0.1,0.1,0.3-0.1,0.4-0.2
							c0.1-0.1,0.3-0.4,0.2-0.4c0.1-0.1,0.2-0.1,0.6,0.3C69.1,65.4,69.2,65.6,68.8,66.1z"/>
						<path class="st7" d="M64,61.9l-1.3,1.3c0,0-7.7-7.7-8.5-8.5c-0.8-0.8-0.8-1,0.1-0.2c2.3,2.1,8.5,7.7,8.5,7.7s0.4-0.4,0.7-0.7
							L64,61.9z"/>
						<path class="st7" d="M64.5,61c-0.3-0.3-0.4-0.4-0.8,0c-0.4,0.4-0.3,0.5,0,0.8c0.3,0.3,0.4,0.4,0.8,0
							C64.9,61.4,64.8,61.3,64.5,61z"/>
						<path class="st8" d="M86.7,87.6c0,0.3,0.2,0.6,0.6,1.3c0.5,0.7,2.2,3.9,3.9,6.8c0.1,0.3,0.6,0.2,1.1-0.2
							c0.4-0.3,1.3-1.1,1.9-1.6c0.7-0.6,0.9-0.9,0.4-1.5c-0.5-0.6-4.1-4.5-4.7-5.2c-0.9-1-1.1-0.6-1.8-1c-0.2-0.1-0.6,0.2-0.9,0.6
							C86.9,87.1,86.8,87.4,86.7,87.6z"/>
						<path class="st8" d="M84.3,84c0,0-5.6-5.6-6.9-6.9s-1.2-2.2-0.8-2.6c0.1-0.1,0.5-0.5,0.5-0.5l8.6,8.6
							C85.3,82.9,84.7,84.4,84.3,84z"/>
					</g>
					<g>
						<path class="st6" d="M65.5,86.9c0.4,0.2,1,0.3,1.4-0.4c0.3-0.5,0.2-1.1-0.4-1.4l-0.7,1.1c0.2,0.3,0.5,0.3,0.8,0.4"/>
						<path class="st7" d="M63.8,86.2c0,0,0.5-0.5,0.6-0.6c0.2-0.2,0.3-1.1-0.2-1.3c0.5-0.1,0.9-0.4,0.8-1l8.2-8.2
							c0.1-0.1,0.2-0.1,0.3,0c1.3-1.3,12.4-12.4,13.6-13.6l0.6,0.6L75.3,74.5c0.4,0.4,0.5,1.3-0.8,2.6s-6.9,6.9-6.9,6.9l-0.2-0.2
							c-0.4,0.6-2.2,3.7-2.2,3.7L63.8,86.2z"/>
						<path class="st7" d="M83.1,66.1c0.5,0.5,0.6,0.4,0.9,0.1c0.4-0.4,0.4-0.5,0.3-0.6c-0.1,0.1-0.3-0.1-0.4-0.2s-0.3-0.4-0.2-0.4
							c-0.1-0.1-0.2-0.1-0.6,0.3C82.7,65.4,82.6,65.6,83.1,66.1z"/>
						<path class="st7" d="M87.8,61.9l1.3,1.3c0,0,7.7-7.7,8.5-8.5c0.8-0.8,0.8-1-0.1-0.2c-2.3,2.1-8.5,7.7-8.5,7.7
							s-0.4-0.4-0.7-0.7L87.8,61.9z"/>
						<path class="st7" d="M87.4,61c0.3-0.3,0.4-0.4,0.8,0c0.4,0.4,0.3,0.5,0,0.8c-0.3,0.3-0.4,0.4-0.8,0C87,61.4,87.1,61.3,87.4,61
							z"/>
						<path class="st8" d="M65.2,87.6c0,0.3-0.2,0.6-0.6,1.3c-0.5,0.7-2.2,3.9-3.9,6.8c-0.1,0.3-0.6,0.2-1.1-0.2
							c-0.4-0.3-1.3-1.1-1.9-1.6c-0.7-0.6-0.9-0.9-0.4-1.5c0.5-0.6,4.1-4.5,4.7-5.2c0.9-1,1.1-0.6,1.8-1c0.2-0.1,0.6,0.2,0.9,0.6
							C65,87.1,65.1,87.4,65.2,87.6z"/>
						<path class="st8" d="M67.6,84c0,0,5.6-5.6,6.9-6.9c1.3-1.3,1.2-2.2,0.8-2.6c-0.1-0.1-0.5-0.5-0.5-0.5l-8.6,8.6
							C66.6,82.9,67.2,84.4,67.6,84z"/>
					</g>
					<g>
						<path class="st7" d="M68.9,91.8c6.7-7.1,15.6-14.8,22.9-18.7c-8.4,2.9-16.7,11-23.3,18.3L68.9,91.8z"/>
						<path class="st9" d="M68.7,92c-0.3,0.3-2.3,2.3-2.9,2.9c0,0.1-0.3,0.2-0.5,0.1c-0.2-0.1-0.1-0.4,0.1-0.5
							c-0.4-0.1-0.7-0.4-0.8-0.7c-0.3-0.9,0.1-1.5,0.7-2.2c0.9-0.9,2.2-1,2.8-0.6c0.5,0.4,0.9,0.6,1.4,0.8c0.6,0.1,0.6,0.6,0.1,0.7
							c-0.4,0-0.9-0.2-1.4-0.8s-1.1-0.6-1.6-0.4c-0.8,0.3-1.2,0.9-1.5,1.3c-0.2,0.4-0.3,0.9,0,1.2c0.3,0.3,0.5,0.4,0.8,0.1
							c0.3-0.3,1.5-1.4,2.3-2.2C68.4,91.8,68.6,91.9,68.7,92z"/>
						<path class="st9" d="M68.3,91.7c-0.2,0-0.3,0.1-0.4,0.1c-0.2,0.1-0.2,0.4-0.2,0.8c0,0.1,0,0.3,0,0.4c0.2,0,0.3-0.1,0.4-0.1
							c0.2-0.1,0.2-0.4,0.2-0.8C68.3,91.9,68.3,91.8,68.3,91.7z"/>
						<path class="st9" d="M67.8,92.2c-0.2,0-0.3,0.1-0.4,0.1c-0.2,0.1-0.2,0.4-0.2,0.8c0,0.1,0,0.3,0,0.4c0.2,0,0.3-0.1,0.4-0.1
							c0.2-0.1,0.2-0.4,0.2-0.8C67.8,92.5,67.8,92.3,67.8,92.2z"/>
						<path class="st9" d="M67.2,92.8c-0.2,0-0.3,0.1-0.4,0.1c-0.2,0.1-0.2,0.4-0.2,0.8c0,0.1,0,0.3,0,0.4c0.2,0,0.3-0.1,0.4-0.1
							c0.2-0.1,0.2-0.4,0.2-0.8C67.2,93,67.2,92.9,67.2,92.8z"/>
						<path class="st9" d="M66.7,93.3c-0.2,0-0.3,0.1-0.4,0.1c-0.2,0.1-0.2,0.4-0.2,0.8c0,0.1,0,0.3,0,0.4c0.2,0,0.3-0.1,0.4-0.1
							c0.2-0.1,0.2-0.4,0.2-0.8C66.7,93.6,66.7,93.4,66.7,93.3z"/>
						<path class="st10" d="M69.1,91.1c6-6.6,15.5-14.8,21.7-17.6"/>
					</g>
					<g>
						<path class="st7" d="M82.9,91.8C76.3,84.7,67.4,76.9,60,73c8.4,2.9,16.7,11,23.3,18.3L82.9,91.8z"/>
						<path class="st9" d="M83.2,92c0.3,0.3,2.3,2.3,2.9,2.9c0,0.1,0.3,0.2,0.5,0.1c0.2-0.1,0.1-0.4-0.1-0.5
							c0.4-0.1,0.7-0.4,0.8-0.7c0.3-0.9-0.1-1.5-0.7-2.2c-0.9-0.9-2.2-1-2.8-0.6c-0.5,0.4-0.9,0.6-1.4,0.8c-0.6,0.1-0.6,0.6-0.1,0.7
							c0.4,0,0.9-0.2,1.4-0.8s1.1-0.6,1.6-0.4c0.8,0.3,1.2,0.9,1.5,1.3c0.2,0.4,0.3,0.9,0,1.2c-0.3,0.3-0.5,0.4-0.8,0.1
							c-0.3-0.3-1.5-1.4-2.3-2.2C83.4,91.8,83.3,91.9,83.2,92z"/>
						<path class="st9" d="M83.5,91.7c0.2,0,0.3,0.1,0.4,0.1c0.2,0.1,0.2,0.4,0.2,0.8c0,0.1,0,0.3,0,0.4c-0.2,0-0.3-0.1-0.4-0.1
							c-0.2-0.1-0.2-0.4-0.2-0.8C83.6,91.9,83.6,91.8,83.5,91.7z"/>
						<path class="st9" d="M84.1,92.2c0.2,0,0.3,0.1,0.4,0.1c0.2,0.1,0.2,0.4,0.2,0.8c0,0.1,0,0.3,0,0.4c-0.2,0-0.3-0.1-0.4-0.1
							c-0.2-0.1-0.2-0.4-0.2-0.8C84.1,92.5,84.1,92.3,84.1,92.2z"/>
						<path class="st9" d="M84.6,92.8c0.2,0,0.3,0.1,0.4,0.1c0.2,0.1,0.2,0.4,0.2,0.8c0,0.1,0,0.3,0,0.4c-0.2,0-0.3-0.1-0.4-0.1
							c-0.2-0.1-0.2-0.4-0.2-0.8C84.7,93,84.7,92.9,84.6,92.8z"/>
						<path class="st9" d="M85.2,93.3c0.2,0,0.3,0.1,0.4,0.1c0.2,0.1,0.2,0.4,0.2,0.8c0,0.1,0,0.3,0,0.4c-0.2,0-0.3-0.1-0.4-0.1
							c-0.2-0.1-0.2-0.4-0.2-0.8C85.2,93.6,85.2,93.4,85.2,93.3z"/>
						<path class="st10" d="M82.8,91.1c-6-6.6-15.5-14.8-21.7-17.6"/>
					</g>
					<g>
						<path class="st11" d="M74.2,57c0.6,1.9,1.4,4.6,6.7,4.4C80.6,59.3,77.4,56,74.2,57z"/>
						<path class="st11" d="M74.4,54.4c-0.4,0-0.9-0.1-1.1-0.4c0.2,0,1.1,0,1.2,0L74.4,54.4z"/>
						<path class="st11" d="M74.1,53.3c-0.1,0.1-0.6,0.4-0.8,0.5C73.1,53.9,73,54,73.4,54c0.4,0,1,0.1,1.1,0.1L74.1,53.3z"/>
						<path class="st12" d="M78.2,54.2c-0.9-0.6,0.5-3.3-1.7-3.7c-1-0.2-2.1,0.2-2.5,0.9c-0.2,0.4-0.5,1.2,0,2
							c0.5,0.8,0.4,1,0.2,1.3c-0.7,1.3-0.4,2.7,1.6,3.4C77.7,58.7,78.8,54.6,78.2,54.2z"/>
						<path class="st12" d="M75.9,54.7c-1.1,1.9-1.4,4.5,2.8,4.8c0.4,0.6,0.9,2,0.7,2.6c0.2-0.2,0.5-0.7,0.5-1.1
							c0.2,0.4,0.2,0.8,0.1,1.1c0.3-0.2,0.5-0.5,0.5-0.8c0.1,0.4,0.2,1,0.1,1.4c0.3-0.3,0.6-0.8,0.6-1.2c0.2,0.5,0.3,1.3,0.2,1.7
							c0.2-0.2,0.4-0.6,0.4-0.9c-0.1,0.5-0.1,1.3-0.4,2c0.5-0.5,1.2-1.2,1.5-2.3c0.2,0.4,0.5,1.4,0.5,2.1c0.2-0.3,0.4-0.8,0.4-1.1
							c6.6,7.5,4.9,14.8,0,21.5c0.4-0.4,1.1-0.7,1.6-1.4c-0.1,0.2-0.5,0.7-0.7,0.9c0.6-0.2,1.1-0.6,1.4-1.1
							c-0.2,0.4-0.5,0.9-0.7,1.2c0.4-0.1,0.9-0.4,1-0.6c-3,6.5-9.1,11.3-13.1,13.6c3.1-0.6,6.6-3,8.4-4.6c-1.6,2.6-3.2,6.1-3.8,9.2
							c1.5-3.1,3.7-7.4,6.9-10.6c3.5-3.6,6.1-8.9,6.1-16.7c0-7.2-5-13.2-7.7-16c-2.7-2.7-3.2-2.3-4.9-4
							C77.2,52.8,76.1,54.4,75.9,54.7z"/>
						<path class="st13" d="M75,52c-0.4,0-0.4,0.6,0,0.6C75.4,52.6,75.4,52,75,52z"/>
						<path class="st10" d="M86.5,83.3c2.8-5.4,5.3-12.4-1.9-21.1"/>
						<path class="st10" d="M86.2,82.7c0.7-1,1.6-2.7,2.4-5.7"/>
						<path class="st10" d="M85.5,82.9c2.2-3.1,4.9-8.4,2.3-15"/>
						<path class="st10" d="M81.9,92.3c3.9-3.3,8.3-11,8.3-17.2c0-5.4-1.3-9.4-5.4-14"/>
						<path class="st10" d="M77.6,94.7C81,92.4,85.7,88,88,82"/>
						<path class="st10" d="M80.8,95.7c1.6-2.7,3.6-5,4.8-6.2s3.8-6,4.2-9"/>
						<path class="st10" d="M81.3,61.4c0-0.6-0.1-1.6-0.3-2.1"/>
						<path class="st10" d="M80.6,61.3c0.1-0.5,0-1.1-0.1-1.4"/>
						<path class="st10" d="M81.9,62.2c0.1-0.4,0.2-1.3,0.2-1.5"/>
						<path class="st10" d="M83,61.8c0.1-0.4,0.2-1.4,0.1-1.9"/>
						<path class="st10" d="M84,62.8c-0.2-0.3-0.6-0.7-0.7-0.9"/>
						<path class="st10" d="M79.9,61c0-0.5-0.1-1.4-0.4-1.8"/>
					</g>
					<g>
						<path class="st14" d="M80.2,61c-2.8,0.2-7.3,0.1-10.9-0.7c-2-0.4-4,2-2.9,5.2c1.6,4.9,3.7,7.1,5.6,10.7
							c-2.4-0.9-4.5,0.3-4.4,2.1c0.1,2.1,1.3,3.4,4,2.9c2.7-0.5,9-0.9,12.3-0.6c1.2,0.1,2-0.9,2.1-1.6c0.9-3.9,0.4-7.5-5.1-14.5
							c1.1,0,1.4-1,1.4-2.1C82.3,61.9,82.1,60.9,80.2,61z"/>
						<g>
							<path d="M69.3,60.3c-2-0.4-4,2-2.9,5.2c1.6,4.9,3.7,7.1,5.6,10.7c-2.4-0.8-4.5,0.3-4.4,2.1c0.1,2.1,1.3,3.4,4,2.9
								c-1,0.2-2.4-0.2-2.8-1.1c0.3,0.5,1.2,0.6,1.8,0.6c0.6,0,2.2-0.4,2.6-2c0.5-1.9-0.4-3-2.9-6.9c-1.5-2.4-3.3-6.1-3.3-8
								c0-1.8,0.9-2.8,1.9-2.4c-1-0.1-1.4,1.1-1.4,1.9c0,0.7,0.8,1.9,2.2,1.7C73,64.6,79,64.4,81,64.6c-3.5-0.4-8.1-0.2-9.9,0.1
								c-1.8,0.2-3,0.1-3.1-1.2c0.6,0.8,2.1,0.9,2.6-0.8C70.9,61.3,70.1,60.4,69.3,60.3z"/>
							<path d="M70.9,64.2c2.6-0.2,7.9-0.1,10.2,0C79.3,64,71.7,63.7,70.9,64.2z"/>
							<path d="M71.6,63.9c2.2-0.2,6.7-0.1,8.6,0C78.8,63.7,72.4,63.5,71.6,63.9z"/>
							<path d="M72.3,63.6c1.9-0.2,5.7-0.1,7.4,0C78.4,63.4,72.9,63.2,72.3,63.6z"/>
							<path d="M72.7,80.5c2.9-0.4,9.9-0.6,12-0.2C82.3,79.8,74.6,79.9,72.7,80.5z"/>
							<path d="M73.6,80.2c2.5-0.4,8.4-0.6,10.2-0.2C81.7,79.4,75.1,79.6,73.6,80.2z"/>
							<path d="M74.3,79.9c2.1-0.4,7.1-0.6,8.7-0.2C81.2,79.1,75.6,79.2,74.3,79.9z"/>
						</g>
						<g>
							<path class="st15" d="M69.9,61.8c0.4,0.8,0.1,1.4-0.4,1.6c0.3-0.5-0.1-1.4-0.7-1.7C69.2,61.7,69.7,61.7,69.9,61.8z"/>
							<path class="st15" d="M68.4,63v-0.6c0.3,0,0.6,0.3,0.6,0.6H68.4z"/>
							<path class="st15" d="M72.2,76.7l-1.1-0.3c1.1,0.3,1.2,2.6,0.5,3.5C72.4,79.2,72.6,77.9,72.2,76.7z"/>
							<path class="st15" d="M71.3,77.2c-0.3-0.9-1.2-0.9-1.9-0.6c-1,0.4-1.7,1.6-0.8,3.2c-0.2-0.6-0.1-1.6,0.1-1.8
								C68.9,77.9,69.3,77,71.3,77.2z"/>
							<path class="st15" d="M71.4,79.3c0.2-0.6,0.2-1.2,0.1-1.6c-1.6-0.1-2.2,0.1-2.4,0.7c0.8-0.6,1.7-0.1,1.7,0.4
								C70.8,79.3,70.8,79.4,71.4,79.3z"/>
							<path class="st15" d="M71.2,79.6c-0.7,0.4-1.9,0.2-1.4-1c0.3-0.1,0.6-0.1,0.6,0.4C70.5,79.3,70.5,79.6,71.2,79.6z"/>
						</g>
					</g>
					<g>
						<path class="st3" d="M66.1,94.6c-1.8-0.9-4.9-1.9-6.8-1.4c-1.9,0.6-2.2,0.8-0.8,1.5c5,2.5,6.9,0.1,9,0.6"/>
						<path class="st16" d="M58.9,94.1c1.5,0,3.4,0.8,4.9,0.6"/>
						<path class="st3" d="M85.7,94.6c1.8-0.9,4.9-1.9,6.8-1.4s2.2,0.8,0.8,1.5c-5,2.5-6.9,0.1-9,0.6"/>
						<path class="st16" d="M92.9,94.1c-1.5,0-3.4,0.8-4.9,0.6"/>
					</g>
					<g>
						<polyline class="st17" points="84.1,72.2 83.5,72.2 83.5,73.3 84.1,73.3 						"/>
						<line class="st17" x1="83.5" y1="72.8" x2="83.9" y2="72.8"/>
						<g>
							<polyline class="st17" points="71,67.1 71,68.1 71.6,68.1 							"/>
						</g>
						<g>
							<line class="st17" x1="72.5" y1="67" x2="72.5" y2="68.1"/>
						</g>
						<g>
							<polyline class="st17" points="75.6,66.9 75.1,66.9 75.1,68 75.6,67.9 							"/>
							<line class="st17" x1="75.1" y1="67.4" x2="75.5" y2="67.4"/>
						</g>
						<g>
							<line class="st17" x1="78.1" y1="66.8" x2="78.1" y2="67.8"/>
							<line class="st17" x1="77.8" y1="66.8" x2="78.5" y2="66.8"/>
						</g>
						<g>
							<path class="st17" d="M73.6,67h0.4c0.1,0,0.2,0.1,0.2,0.3c0,0.1-0.1,0.3-0.2,0.3c-0.1,0-0.3,0-0.4,0"/>
							<path class="st17" d="M73.6,68h0.4c0.1,0,0.2-0.1,0.2-0.3s-0.1-0.3-0.2-0.3c-0.1,0-0.3,0-0.4,0"/>
							<line class="st17" x1="73.6" y1="67" x2="73.6" y2="68"/>
						</g>
						<g>
							<path class="st17" d="M76.4,66.9h0.4c0.1,0,0.2,0.1,0.2,0.3c0,0.1-0.1,0.3-0.2,0.3c-0.1,0-0.3,0-0.4,0c0.2,0,0.3,0,0.4,0.1
								c0.1,0.1,0.1,0.3,0.1,0.4"/>
							<line class="st17" x1="76.4" y1="66.9" x2="76.4" y2="67.9"/>
						</g>
						<g>
							<polyline class="st17" points="79.1,67.8 79.4,66.7 79.8,67.8 							"/>
							<line class="st17" x1="79.2" y1="67.4" x2="79.7" y2="67.4"/>
						</g>
						<g>
							<path class="st17" d="M80.8,67.7v-1c0.1,0,0.2,0,0.3,0c0.1,0,0.3,0.1,0.3,0.5s-0.2,0.5-0.3,0.5S80.9,67.7,80.8,67.7z"/>
						</g>
						<g>
							<polyline class="st17" points="74.9,70.7 74.9,69.7 74.7,69.7 							"/>
						</g>
						<path class="st17" d="M76.2,69.6l-0.5,0v0.5c0.3-0.2,0.6-0.1,0.6,0.2c0,0.2-0.4,0.4-0.6,0.2"/>
						<g>
							<path class="st17" d="M78.1,70.6v-1c0.1,0,0.2,0,0.3,0c0.1,0,0.3,0.1,0.3,0.5c0,0.4-0.2,0.5-0.3,0.5S78.2,70.6,78.1,70.6z"/>
						</g>
						<g>
							<polyline class="st17" points="80,69.5 79.4,69.5 79.4,70.5 80,70.5 							"/>
							<line class="st17" x1="79.4" y1="70" x2="79.9" y2="70"/>
						</g>
						<g>
							<polyline class="st17" points="75.2,72.6 74.6,72.6 74.6,73.6 75.2,73.6 							"/>
							<line class="st17" x1="74.6" y1="73.1" x2="75.1" y2="73.1"/>
						</g>
						<g>
							<line class="st17" x1="76.2" y1="72.5" x2="76.2" y2="73.6"/>
							<line class="st17" x1="75.8" y1="72.5" x2="76.6" y2="72.5"/>
						</g>
						<g>
							<line class="st17" x1="77.3" y1="72.5" x2="77.3" y2="73.5"/>
						</g>
						<g>
							<polyline class="st17" points="78.7,72.4 78.2,72.4 78.2,73.5 78.7,73.5 							"/>
							<line class="st17" x1="78.2" y1="73" x2="78.6" y2="72.9"/>
						</g>
						<g>
							<path class="st17" d="M81.1,72.4h0.4c0.1,0,0.2,0.1,0.2,0.3c0,0.1-0.1,0.3-0.2,0.3c-0.1,0-0.3,0-0.4,0"/>
							<path class="st17" d="M81.1,73.4h0.4c0.1,0,0.2-0.1,0.2-0.3c0-0.1-0.1-0.3-0.2-0.3c-0.1,0-0.3,0-0.4,0"/>
							<line class="st17" x1="81.1" y1="72.4" x2="81.1" y2="73.4"/>
						</g>
						<g>
							<path class="st17" d="M75.7,76.3v-1c0.1,0,0.2,0,0.3,0c0.1,0,0.3,0.1,0.3,0.5c0,0.4-0.2,0.5-0.3,0.5S75.8,76.3,75.7,76.3z"/>
						</g>
						<g>
							<polyline class="st17" points="77.4,75.1 76.9,75.1 76.9,76.2 77.4,76.2 							"/>
							<line class="st17" x1="76.9" y1="75.7" x2="77.3" y2="75.7"/>
						</g>
						<g>
							<polyline class="st17" points="79.3,76.1 79.3,75.1 79.1,75.1 							"/>
						</g>
						<g>
							<path class="st17" d="M73.9,72.7c-0.1-0.1-0.4-0.2-0.5,0.1c-0.1,0.2,0.1,0.3,0.3,0.3s0.3,0.2,0.2,0.4c-0.1,0.2-0.4,0.2-0.5,0
								"/>
						</g>
						<g>
							<polyline class="st17" points="80.5,73.4 80.3,72.4 79.9,72.9 79.6,72.4 79.4,73.4 							"/>
						</g>
						<g>
							<path class="st17" d="M80.3,75c-0.4,0-0.4,0.5,0,0.5C80.7,75.5,80.7,75,80.3,75z"/>
							<path class="st17" d="M80.3,75.5c-0.4,0-0.4,0.6,0,0.6C80.7,76.1,80.7,75.5,80.3,75.5z"/>
						</g>
						<g>
							<polyline class="st17" points="82.6,76 82.6,74.9 82.5,74.9 							"/>
						</g>
						<g>
							<path class="st17" d="M81.4,75.1c0.2-0.1,0.4-0.1,0.5,0.1c0.1,0.2,0,0.4-0.1,0.5c-0.2,0.1-0.4,0.2-0.4,0.4l0.6,0"/>
						</g>
						<g>
							<path class="st17" d="M82.4,72.3h0.4c0.1,0,0.2,0.1,0.2,0.3c0,0.1-0.1,0.3-0.2,0.3c-0.1,0-0.3,0-0.4,0c0.2,0,0.3,0,0.4,0.1
								s0.1,0.3,0.1,0.4"/>
							<line class="st17" x1="82.4" y1="72.3" x2="82.4" y2="73.3"/>
						</g>
					</g>
				</g>
			</g>
		</g>
	</g>
</g>
<circle class="st18" cx="76" cy="76" r="75"/>
</svg>
