<?xml version="1.0" encoding="utf-8"?>
<!-- Generator: Adobe Illustrator 24.2.3, SVG Export Plug-In . SVG Version: 6.00 Build 0)  -->
<svg version="1.1" id="Capa_1" xmlns:serif="http://www.serif.com/"
	 xmlns="http://www.w3.org/2000/svg" xmlns:xlink="http://www.w3.org/1999/xlink" x="0px" y="0px" viewBox="0 0 152 152"
	 style="enable-background:new 0 0 152 152;" xml:space="preserve">
<style type="text/css">
	.st0{fill-rule:evenodd;clip-rule:evenodd;fill:#FFFFFF;}
	.st1{fill-rule:evenodd;clip-rule:evenodd;fill:#ED1B2D;}
	.st2{fill-rule:evenodd;clip-rule:evenodd;fill:#008348;}
	.st3{fill:#FEBD0F;}
	.st4{fill:#008348;}
	.st5{fill:#EC1C24;}
	.st6{fill:#AE6219;}
	.st7{fill:#009AD9;}
	.st8{fill:none;stroke:#515151;stroke-width:2;stroke-linecap:square;stroke-miterlimit:36;}
</style>
<path class="st0" d="M41.8,9.6C51.9,4,63.6,1,76,1c13.4,0,26,3.5,36.7,10V141c-10.7,6.4-23.3,10-36.7,10c-12.4,0-24.1-3-34.2-8.6
	V9.6L41.8,9.6z"/>
<path class="st1" d="M112.7,11c23,12.6,38.3,37,38.3,65s-15.4,52.4-38.3,65C112.7,141,112.7,11,112.7,11z"/>
<path class="st2" d="M41.8,9.6v132.8C17.5,130.2,1,105,1,76S17.5,21.8,41.8,9.6L41.8,9.6z"/>
<path class="st3" d="M85.6,83.6c0,0.7-0.6,1.3-1.3,1.3h-2.5c-0.7,0-1.3-0.6-1.3-1.3c0-0.7,0.6-1.3,1.3-1.3h2.5
	C85,82.3,85.6,82.9,85.6,83.6"/>
<path class="st4" d="M66.8,82.4c-0.6,0.8-1.7,0.9-2.5,0.3l-1.8-1.4c-0.8-0.6-0.9-1.7-0.3-2.5c0.6-0.8,1.7-0.9,2.5-0.3l1.8,1.4
	C67.2,80.6,67.3,81.7,66.8,82.4"/>
<path class="st4" d="M72.4,84.9c-0.3,0.9-1.3,1.4-2.3,1l-2.1-0.8c-0.9-0.3-1.4-1.3-1-2.3c0.3-0.9,1.3-1.4,2.3-1l2.1,0.8
	C72.3,82.9,72.8,83.9,72.4,84.9"/>
<path class="st4" d="M81.6,86.4c-0.2,1.5-1.6,2.5-3.1,2.3l-3.5-0.5c-1.5-0.2-2.5-1.6-2.3-3.1c0.2-1.5,1.6-2.5,3.1-2.3l3.5,0.4
	C80.8,83.5,81.8,84.9,81.6,86.4"/>
<path class="st4" d="M93.8,85.5c0.3,0.9-0.7,1.9-2,2.3l-3.2,0.9c-1.4,0.4-2.7,0-3-0.9c-0.3-0.9,0.7-1.9,2.1-2.3l3.2-0.9
	C92.2,84.2,93.5,84.6,93.8,85.5"/>
<path class="st4" d="M84.8,84c0.8,0.3,1.1,1.7,0.6,3l-1.2,3.1c-0.5,1.3-1.7,2.1-2.5,1.8c-0.8-0.3-1.1-1.7-0.6-3l1.2-3.1
	C82.8,84.5,83.9,83.7,84.8,84"/>
<path class="st5" d="M62.7,76.8c0,0.6-0.5,1.1-1.1,1.1s-1.1-0.5-1.1-1.1v-2c0-0.6,0.5-1.1,1.1-1.1s1.1,0.5,1.1,1.1V76.8z"/>
<path class="st5" d="M71.6,83.2c0,0.6-0.5,1.1-1.1,1.1s-1.1-0.5-1.1-1.1v-2c0-0.6,0.5-1.1,1.1-1.1s1.1,0.5,1.1,1.1V83.2z"/>
<path class="st5" d="M94.2,85.2c-0.6,0.2-1.2-0.1-1.4-0.6c-0.2-0.6,0.1-1.2,0.6-1.4l1.8-0.7c0.6-0.2,1.2,0.1,1.4,0.6
	c0.2,0.6-0.1,1.2-0.6,1.4L94.2,85.2z"/>
<path class="st6" d="M71.6,62l-0.3,10.3l2.1,1.5L71,79.3l4,0.4c0,0,3.5,1.8,4.6,2.3c1.1,0.5,2.4-1.8,2.4-1.8l3.7,2.1l6.6-1.4
	l-9.6-9.8l13,9.6l3.1-11.6l-8-12.9l-15-2.5l-0.8,5l-4-1.4l-4.4,5.9L71.6,62z"/>
<path class="st3" d="M73.4,76.8c0,0.8-0.7,1.5-1.5,1.5h-4.1c-0.8,0-1.5-0.7-1.5-1.5c0-0.8,0.7-1.5,1.5-1.5h4.1
	C72.7,75.3,73.4,76,73.4,76.8"/>
<path class="st3" d="M71,63.4c0,0.8-0.7,1.5-1.5,1.5H68c-0.8,0-1.5-0.7-1.5-1.5s0.7-1.5,1.5-1.5h1.5C70.3,61.8,71,62.5,71,63.4"/>
<path class="st4" d="M78.4,99.7c-22.9,0-25-24.6-25-24.9c-0.1-0.9,0.6-1.7,1.5-1.8c1-0.1,1.7,0.6,1.8,1.5
	c0.1,0.9,1.9,21.8,21.7,21.8c17.3,0,21.9-13.8,23.9-19.7c0.4-1.1,0.7-2,0.9-2.4c0.5-0.8,1.5-1.1,2.3-0.6c0.8,0.5,1.1,1.5,0.6,2.3
	c-0.2,0.3-0.4,0.9-0.7,1.8C103.5,83.7,98.1,99.7,78.4,99.7"/>
<path class="st4" d="M66.2,75c-5.9,0-12.8-4.7-13.7-5.3c-0.8-0.5-0.9-1.6-0.4-2.3c0.5-0.8,1.6-0.9,2.3-0.4c2.4,1.7,9.5,5.7,13.5,4.5
	c0.4-0.1,0.6-0.2,0.8-0.3c-0.7-0.6-2-1.5-3.1-2.1c-1.1-0.7-2.2-1.4-3.3-2.2c-1.9-1.4-2.7-2.8-2.4-4.3c0.5-2.7,4.3-3.8,5-4
	c0.9-0.2,1.8,0.3,2,1.2c0.2,0.9-0.3,1.8-1.2,2c-1.1,0.3-2.4,1-2.6,1.4h0c0,0,0.2,0.4,1.1,1c1,0.8,2.1,1.4,3.1,2.1
	c3.1,1.9,5.3,3.3,5,5.5c-0.3,2-2.6,2.7-3.5,3C68,74.9,67.1,75,66.2,75"/>
<path class="st7" d="M86.9,92c0,1-0.8,1.7-1.7,1.7H69.6c-1,0-1.7-0.8-1.7-1.7s0.8-1.7,1.7-1.7h15.6C86.2,90.3,86.9,91.1,86.9,92"/>
<circle class="st8" cx="76" cy="76" r="75"/>
</svg>
