<?xml version="1.0" encoding="utf-8"?>
<!-- Generator: Adobe Illustrator 24.2.3, SVG Export Plug-In . SVG Version: 6.00 Build 0)  -->
<svg version="1.1" id="Capa_1" xmlns:serif="http://www.serif.com/"
	 xmlns="http://www.w3.org/2000/svg" xmlns:xlink="http://www.w3.org/1999/xlink" x="0px" y="0px" viewBox="0 0 152 152"
	 style="enable-background:new 0 0 152 152;" xml:space="preserve">
<style type="text/css">
	.st0{clip-path:url(#SVGID_2_);}
	.st1{fill:#DB2F34;stroke:#000000;stroke-width:0.25;}
	.st2{fill:#0059A1;stroke:#000000;stroke-width:0.25;}
	.st3{fill:#FFFFFF;stroke:#000000;stroke-width:0.25;}
	.st4{fill:#FFFFFF;stroke:#000000;stroke-width:0.25;stroke-linecap:round;stroke-linejoin:round;}
	.st5{fill:#E30520;}
	.st6{fill:#FFEC00;}
	.st7{fill:#FFFFFF;}
	.st8{fill:#0077BD;}
	.st9{fill:#00875B;stroke:#000000;stroke-width:6.250000e-02;stroke-linecap:round;stroke-linejoin:round;}
	.st10{fill:none;stroke:#000000;stroke-width:6.250000e-02;stroke-linecap:round;stroke-linejoin:round;}
	.st11{fill:none;stroke:#515151;stroke-width:2;stroke-linecap:square;stroke-miterlimit:1.5;}
</style>
<g>
	<g>
		<g>
			<defs>
				<circle id="SVGID_1_" cx="76" cy="76" r="75"/>
			</defs>
			<clipPath id="SVGID_2_">
				<use xlink:href="#SVGID_1_"  style="overflow:visible;"/>
			</clipPath>
			<g class="st0">
				<rect x="-49" y="0.9" class="st1" width="250" height="50"/>
				<rect x="-49" y="100.9" class="st2" width="250" height="50"/>
				<rect x="-49" y="50.9" class="st3" width="250" height="50"/>
				<g>
					<circle class="st4" cx="76" cy="75.9" r="16.4"/>
					<circle class="st5" cx="76" cy="75.9" r="14.9"/>
					<g>
						<path class="st6" d="M66.4,84.5c0,0-0.4-0.4-0.4-0.6c-0.1-0.1-0.3-0.1-0.5,0c-0.2,0.1-0.2,0.4-0.1,0.5s0.4,0.5,0.4,0.5
							L66.4,84.5l0.4-0.3l0.9-0.7l0.3,0.4l-2.2,1.8c0,0-0.7-0.8-0.9-1.1c-0.2-0.3,0-0.7,0.3-1c0.3-0.3,0.7-0.2,0.8-0.1
							c-0.1-0.1-0.1-0.4,0.2-0.6c0.1-0.1,0.6-0.5,0.6-0.5l0.3,0.4c0,0-0.3,0.2-0.5,0.4c-0.3,0.2-0.2,0.4-0.1,0.6
							c0.2,0.2,0.3,0.4,0.3,0.4L66.4,84.5z"/>
						<path class="st6" d="M86.8,68.9c0,0,0.3,0.5,0.4,0.6s0.3,0.2,0.5,0.1s0.2-0.3,0.1-0.5c-0.1-0.2-0.3-0.6-0.3-0.6L86.8,68.9
							l-0.4,0.3l-1,0.6l-0.3-0.4l2.5-1.4c0,0,0.5,0.9,0.7,1.2c0.2,0.3-0.1,0.7-0.4,0.9c-0.4,0.2-0.7,0.1-0.8,0
							c0.1,0.1,0,0.4-0.3,0.6c-0.1,0.1-0.7,0.4-0.7,0.4l-0.3-0.4c0,0,0.3-0.2,0.6-0.4c0.3-0.2,0.3-0.4,0.2-0.6
							c-0.1-0.2-0.3-0.4-0.3-0.4L86.8,68.9z"/>
						<polygon class="st6" points="63.4,81.3 64,82.5 64.6,82.2 64.1,81.2 64.6,80.9 65.1,82 65.7,81.6 65.2,80.5 65.6,80.3 
							66.4,81.9 63.8,83.2 63,81.5 						"/>
						<path class="st6" d="M63.8,79.6l-0.9,0.2c0,0-0.1-0.3-0.1-0.5c-0.1-0.2,0-0.4,0.3-0.5c0.3-0.1,0.5,0,0.6,0.3
							C63.7,79.4,63.8,79.6,63.8,79.6l0.4-0.1c0,0-0.1-0.3-0.1-0.6c-0.1-0.4-0.6-0.6-1.1-0.5c-0.5,0.1-0.8,0.5-0.7,0.9
							c0.1,0.6,0.3,1.1,0.3,1.1l2.8-0.7l-0.1-0.5l-1,0.2L63.8,79.6z"/>
						<path class="st6" d="M82.4,65l0.5-0.8c0,0,0.2,0.1,0.4,0.3c0.2,0.1,0.3,0.3,0.1,0.6s-0.4,0.3-0.6,0.2
							C82.6,65.1,82.4,65,82.4,65l-0.2,0.4c0,0,0.3,0.2,0.5,0.3c0.4,0.3,0.9,0,1.1-0.4c0.3-0.4,0.2-0.9-0.1-1.2
							c-0.5-0.4-0.9-0.6-0.9-0.6l-1.6,2.4l0.4,0.3l0.6-0.9L82.4,65z"/>
						<path class="st6" d="M64.3,76.4c0-0.4-0.3-0.4-0.5-0.4s-1.9,0-1.9,0v-0.5c0,0,1.5,0,1.9,0c0.5,0,1,0.2,1,0.9c0,0.7-0.5,1-1,1
							c-0.4,0-1.9,0-1.9,0v-0.5c0,0,1.6,0,1.9,0C64.1,76.9,64.3,76.8,64.3,76.4z"/>
						<path class="st6" d="M62.7,74.4c0.4,0.1,0.8,0.1,1.1,0.2l0.1-0.5c-0.2,0-0.3-0.1-0.4-0.1c0,0,0.1-0.5,0.1-0.7
							c0-0.2,0.2-0.2,0.4-0.2c0.2,0.1,0.4,0.2,0.3,0.4c0,0.2-0.1,0.7-0.1,0.7s-0.2,0-0.4-0.1l-0.1,0.5c0.5,0.1,0.9,0.2,0.9,0.2
							s0.1-0.7,0.2-1.1c0.1-0.6-0.3-0.9-0.6-1c-0.4-0.1-0.5,0-0.7,0.1c-0.1-0.2-0.3-0.3-0.5-0.4c-0.5-0.1-0.8,0.3-0.9,0.8
							c-0.1,0.7-0.2,1-0.2,1S62.3,74.3,62.7,74.4l0.1-0.5c-0.1,0-0.3-0.1-0.3-0.1s0.1-0.4,0.1-0.6c0-0.2,0.2-0.2,0.4-0.2
							c0.1,0,0.3,0.1,0.2,0.4c-0.1,0.2-0.1,0.6-0.1,0.6s-0.1,0-0.3-0.1L62.7,74.4z"/>
						<polygon class="st6" points="62.9,70.6 65.1,71.5 65.6,70.5 66.1,70.7 65.4,72.2 62.7,71.1 						"/>
						
							<rect x="65" y="67.8" transform="matrix(0.5494 -0.8356 0.8356 0.5494 -28.3897 85.7476)" class="st6" width="0.5" height="2.9"/>
						<path class="st6" d="M66.7,66.7c-0.1-0.1-0.4-0.2-0.7,0.1c-0.3,0.3-0.1,0.7,0.3,1.1s0.9,0.5,1.1,0.2c0.2-0.3,0.1-0.6,0-0.7
							l0.3-0.3c0.4,0.4,0.4,1,0,1.4s-1.1,0.4-1.7-0.2c-0.6-0.6-0.8-1.3-0.3-1.8s1.1-0.4,1.4,0L66.7,66.7z"/>
						<path class="st6" d="M69.1,65.8c-0.1,0.1-0.2,0.1-0.2,0.1l-0.4-1.1l0.9,0.8C69.4,65.6,69.2,65.7,69.1,65.8l0.3,0.4
							c0.2-0.1,0.4-0.3,0.4-0.3l0.5,0.4l0.4-0.3l-2.3-1.9l-0.5,0.3l0.9,2.9l0.4-0.3l-0.2-0.6c0,0,0.2-0.1,0.4-0.2L69.1,65.8z"/>
						<path class="st6" d="M84.7,67.3c-0.1-0.1-0.2-0.2-0.2-0.2l1.1-0.6l-0.6,1.1C84.9,67.6,84.8,67.4,84.7,67.3l-0.4,0.3
							c0.2,0.2,0.4,0.4,0.4,0.4l-0.3,0.5l0.4,0.4l1.5-2.6l-0.4-0.4l-2.6,1.4l0.4,0.4l0.5-0.3c0,0,0.1,0.1,0.3,0.3L84.7,67.3z"/>
						<path class="st6" d="M87.7,72.2c0-0.1-0.1-0.3-0.1-0.3l1.2,0l-1,0.6C87.8,72.6,87.8,72.4,87.7,72.2l-0.5,0.1
							c0.1,0.2,0.1,0.5,0.1,0.5l-0.5,0.3l0.1,0.5l2.5-1.6l-0.2-0.6l-3,0l0.1,0.5h0.6c0,0,0.1,0.2,0.1,0.4L87.7,72.2z"/>
						<path class="st6" d="M87.3,80.9c0.1-0.1,0.1-0.3,0.1-0.3l0.9,0.8l-1.2-0.2C87.1,81.2,87.2,81.1,87.3,80.9l-0.4-0.2
							c-0.1,0.2-0.2,0.5-0.2,0.5L86,81.1l-0.2,0.4l3,0.4l0.2-0.5l-2.3-1.9l-0.2,0.4l0.5,0.4c0,0-0.1,0.2-0.2,0.4L87.3,80.9z"/>
						<path class="st6" d="M73.3,64.6c0.1,0,0.6-0.2,0.4-1.1c-0.2-0.8-0.6-0.8-0.8-0.8c-0.1,0-0.4,0.1-0.4,0.1l0.4,1.9
							C72.9,64.6,73.1,64.6,73.3,64.6l0.3,0.5c-0.6,0.1-1.1,0.2-1.1,0.2l-0.6-2.8c0.3-0.1,0.6-0.1,0.9-0.2c0.3-0.1,1-0.1,1.3,1.1
							c0.1,0.8,0,1.6-0.6,1.7L73.3,64.6z"/>
						<polygon class="st6" points="77.1,62.4 75.8,62.4 75.8,63 77,63 76.9,63.6 75.8,63.5 75.8,64.3 77.1,64.3 77.1,64.8 
							75.2,64.7 75.3,61.9 77.1,61.9 						"/>
						<polygon class="st6" points="78.9,62.2 78.3,64.4 79.4,64.7 79.3,65.2 77.7,64.8 78.3,62 						"/>
						<path class="st6" d="M89.2,75.8c0.3-0.1,0.4-0.3,0.4-0.6c0-0.4-0.4-0.6-1-0.6c-0.6,0-1,0.3-0.9,0.7c0,0.3,0.3,0.5,0.6,0.6
							l0-0.5l0.4,0l0,0.9l-1.5,0.1V76c0.1,0,0.2,0,0.3-0.1c-0.3-0.1-0.4-0.4-0.4-0.6c-0.1-0.6,0.6-1.1,1.4-1.2
							c0.9,0,1.4,0.4,1.5,1.1c0,0.5-0.4,1-0.9,1L89.2,75.8z"/>
						<path class="st6" d="M87.5,78c-0.1,0.4,0.2,0.5,0.4,0.5c0.2,0.1,1.9,0.4,1.9,0.4l-0.1,0.5c0,0-1.5-0.3-1.9-0.4
							c-0.4-0.1-0.9-0.4-0.8-1.1c0.1-0.7,0.7-0.9,1.1-0.8c0.4,0.1,1.9,0.4,1.9,0.4L89.9,78c0,0-1.6-0.3-1.9-0.4
							C87.8,77.6,87.6,77.6,87.5,78z"/>
						<polygon class="st6" points="85,82.6 85.8,83.3 87.8,83.8 87.5,84.2 86.1,83.8 86.8,85 86.5,85.4 85.5,83.6 84.7,83 						"/>
					</g>
					<circle class="st7" cx="76" cy="75.9" r="10.6"/>
					<circle class="st8" cx="76" cy="75.9" r="5"/>
					<g>
						<path class="st9" d="M80.6,69.4c0.4,0.4,0.4,0.7,0.7,1.1c0.1,0.1,0.3,0.2,0.4,0.2c-0.4-0.5-0.5-0.9-0.7-1.6
							c-0.2-0.7-0.7-0.5-0.9-1c-0.2-0.5-0.2-0.2-0.3,0c-0.1,0.2,0,0.5,0.1,0.8C80.1,69,80.3,69.1,80.6,69.4z"/>
						<path class="st9" d="M75.9,83.2c-0.3-0.1-0.7-0.1-0.9,0c0.6,0.6,1.5,1,2.2,0.7C76.8,83.5,76.2,83.3,75.9,83.2z"/>
						<path class="st9" d="M75.9,83.2c0.8,0.2,1.8,0.9,2.1,1.6c0.2,0.4,1.3,0.3,1-0.1C78.4,83.7,76.9,82.6,75.9,83.2z"/>
						<path class="st9" d="M79.1,84.7c0.3,0.4-0.8,0.5-1,0.1C78,84.6,78.8,84.3,79.1,84.7z"/>
						<path class="st9" d="M75.1,83.2c-1.4-0.4-3.3-0.9-5.1-0.9c-0.2,0-0.1,0.2-0.1,0.3C70,82.8,70,82.9,70,83
							c0,0.2,0.1,0.2,0.6,0.3c1,0.2,3.2,0.5,5.1,0.4l0,0C75.5,83.6,75.3,83.4,75.1,83.2z"/>
						<path class="st9" d="M74.6,83.7c-0.5,0.2-1.1,0.5-1.4,0.7c-0.6,0.4,1.1,0.6,1.3,0.4c0.1-0.1,0.4-0.9,1-1.1
							C75.2,83.7,74.9,83.7,74.6,83.7z"/>
						<path class="st9" d="M74.5,84.8c-0.2,0.2-1.8,0-1.3-0.4C73.4,84.3,74.6,84.5,74.5,84.8z"/>
						<path class="st9" d="M75.1,83.2c-1.1-0.6-2.9-1.6-3.8-3.3c-0.1-0.3-0.4-0.5-0.4,0.2c0,0.6,0.4,1.7,1.1,2.4
							C73.1,82.7,74.2,83,75.1,83.2z"/>
						<path class="st9" d="M71.3,79.9c0.2,0.4,0.4,0.7,0.6,1c0.4,0.2,0.9,0.4,1.3,0.4c0.3,0,0.3-0.1,0-0.2c-0.3-0.1-1-0.7-1.6-1.2
							c-0.4-0.3-0.6-0.4-0.7-0.2C71.1,79.6,71.2,79.8,71.3,79.9z"/>
						<g>
							<path class="st9" d="M71.6,83.5c-0.4-0.1-0.7-0.1-1-0.1c-0.4-0.1-0.5-0.1-0.6-0.2c0.1,0.2,0.2,0.3,0.5,0.4
								c0.4,0.2,0.9,0.5,1.1,0.6c0.2,0.2,0.6,0.1,0.4-0.2C71.9,83.7,71.7,83.6,71.6,83.5z"/>
							<path class="st9" d="M70,83L70,83C70,83,70,83,70,83L70,83z"/>
						</g>
						<g>
							<path class="st9" d="M72.1,82.5c0,0,0.1,0,0.1,0C72.2,82.6,72.1,82.5,72.1,82.5z"/>
							<path class="st9" d="M72,82.5c-0.2-0.2-0.4-0.4-0.5-0.7c-1.1-0.9-2.5-1.8-3.2-2c-0.3-0.1-0.3,0-0.3,0.4s-0.4,0.6,0.4,1
								c0.6,0.3,1.5,0.8,2.2,1.3C71.1,82.4,71.6,82.4,72,82.5C72,82.5,72,82.5,72,82.5z"/>
						</g>
						<path class="st9" d="M68.4,81.1c-0.6-0.3-0.6-0.5-0.5-0.8l0,0c-0.1,0.4-0.1,0.4,0.2,0.8c0.3,0.4,0.6,1,0.7,1.3
							c0.1,0.3,0.3,0.3,0.3,0c0-0.3,0-0.7,0-1C68.8,81.3,68.5,81.2,68.4,81.1z"/>
						<g>
							<path class="st9" d="M71.6,82L71.6,82L71.6,82z"/>
							<path class="st9" d="M71.7,82.1C71.7,82.2,71.7,82.2,71.7,82.1C71.7,82.2,71.7,82.2,71.7,82.1z"/>
							<path class="st9" d="M71.8,82.3L71.8,82.3C71.8,82.4,71.8,82.3,71.8,82.3z"/>
							<path class="st9" d="M71.4,81.8c-0.4-0.6-0.6-1.3-0.6-1.7c0-0.1,0-0.2,0-0.3c-0.4-0.8-0.9-2-0.8-3.5c0-0.2-0.1-0.5-0.5,0.4
								c-0.3,0.7-0.4,2.1,0,3.8C70.2,80.9,70.9,81.4,71.4,81.8L71.4,81.8z"/>
						</g>
						<g>
							<path class="st9" d="M69.8,80.6L69.8,80.6C69.8,80.6,69.8,80.6,69.8,80.6z"/>
							<path class="st9" d="M69.6,80.5c-0.1-0.4-0.1-0.7-0.1-1c-0.8-1.4-2.4-2.6-2.7-3.4c-0.1-0.3-0.3-0.6-0.3,0.1
								c0,1.7,1.3,2.7,1.8,3.6l0,0C68.6,79.9,69.1,80.1,69.6,80.5C69.6,80.5,69.6,80.5,69.6,80.5z"/>
						</g>
						<path class="st9" d="M68.4,78.1c0.3-2.4-0.5-5.3-0.7-5.9c-0.2-0.6-0.2-0.4-0.4,0.1c-0.4,1.4-0.5,3,0.4,5.1
							C67.9,77.6,68.2,77.9,68.4,78.1z"/>
						<g>
							<path class="st9" d="M69.5,79.7L69.5,79.7L69.5,79.7z"/>
							<path class="st9" d="M69.5,79.9C69.5,80,69.5,80,69.5,79.9C69.5,80,69.5,80,69.5,79.9z"/>
						</g>
						<path class="st9" d="M68.4,78.1c0.1-0.6,0.1-1.2,0.1-1.9c0.4-1.5,1.7-2.1,1.9-2.6c0.3-0.6,0.2-0.1,0.2,0.1
							c-0.3,1.4-1.3,2.8-1.1,4c-0.1,0.5-0.1,1.1,0.1,1.8C69.1,78.9,68.6,78.4,68.4,78.1z"/>
						<path class="st9" d="M69.1,69.7c-0.6,0.7-1,1.9-1.2,3.2c0.1,0.4,0.2,1,0.4,1.6c0.8-0.9,1.1-3.1,1.1-4.7
							C69.3,69.4,69.2,69.5,69.1,69.7z"/>
						<g>
							<path class="st9" d="M68.2,74.4C68.2,74.3,68.2,74.3,68.2,74.4C68.2,74.3,68.2,74.3,68.2,74.4z"/>
						</g>
						<path class="st9" d="M68.4,76c0.3-1.9,2.1-2.9,2.8-4c0.3-0.4,0.1-0.5-0.2-0.2c-0.3,0.2-1.4,0.7-2.1,1.3
							c-0.2,0.6-0.4,1.1-0.7,1.5C68.3,74.9,68.4,75.4,68.4,76z"/>
						<path class="st9" d="M71.4,67.7c-0.6,0.4-1.6,1.7-2.1,2.7c0,0.5-0.1,1-0.1,1.4c1.6-1.3,2-2.4,2.4-3.8
							C71.7,67.5,71.6,67.5,71.4,67.7z"/>
						<path class="st9" d="M69.1,69.7c-0.6,0.7-1,1.9-1.2,3.2c0.1,0.4,0.2,1,0.4,1.6c0.8-0.9,1.1-3.1,1.1-4.7
							C69.3,69.4,69.2,69.5,69.1,69.7z"/>
						<path class="st9" d="M71.4,67.7c-0.6,0.4-1.6,1.7-2.1,2.7c0,0.5-0.1,1-0.1,1.4c1.6-1.3,2-2.4,2.4-3.8
							C71.7,67.5,71.6,67.5,71.4,67.7z"/>
						<path class="st9" d="M69.8,72.4c0.8-1.1,2.4-1.3,3-2.1c0.2-0.3,0.4-0.7-0.4-0.3c-0.5,0.3-1.1,0.1-2,0.4
							c-0.3,0.4-0.9,1-1.3,1.3c-0.1,0.4-0.1,0.9-0.3,1.3C69.2,72.9,69.5,72.6,69.8,72.4z"/>
						<path class="st9" d="M71.4,70.3c0.9-1.3,1.4-1,2-1.8c0.1-0.1,0.2-0.3-0.1-0.1c-0.3,0.1-1.4,0.1-1.9,0.5
							c-0.2,0.5-0.5,1.1-0.8,1.5C70.8,70.4,71.1,70.3,71.4,70.3z"/>
						<path class="st9" d="M79.7,81.9c0-0.6,0.3-1.1,0.5-1.3c0.2-0.2,0.1-0.2-0.1-0.1c-0.2,0.1-0.7,0.1-1.4,0.5
							c-0.7,0.4-1,1.6-1.4,2.2C78.1,82.6,78.9,82.1,79.7,81.9L79.7,81.9z"/>
						<path class="st9" d="M78.6,84.1c0.6,0.1,1.4,0.1,1.8-0.2c0.4-0.3,0.9-0.4,1.1-0.4c0.2,0,0.2,0,0.1-0.3s-0.8-0.5-1.3-0.5
							c-0.5,0.4-1.1,0.9-2.1,0.9C78.2,83.8,78.4,84,78.6,84.1z"/>
						<path class="st9" d="M80.9,81.8c0.2-0.5,0.1-1,0-1.4c-0.1-0.4,0-0.7,0.2-1c0.2-0.3,0.2-0.6,0.3-0.7c0.1-0.2,0.2-0.4,0.4,0.1
							c0.2,0.4,0.3,1,0,1.6s-0.4,1.1-0.7,1.4H80.9z"/>
						<path class="st9" d="M80.5,81.9c0.4-0.1,1.1-0.4,1.4-0.9c0.4-0.4,1.4-0.9,2.2-1c0.6-0.1,0.6-0.1,0.2,0.4
							c-0.4,0.5-0.8,1.1-1.6,1.2c-0.8,0-1.5,0-2.1,0.5L80.5,81.9z"/>
						<path class="st9" d="M77.4,83.2c0.9-0.8,1.9-1.4,3.1-1.5c0.2,0,0.5,0,0.2,0.4c-0.7,0.8-1.5,1.5-2.6,1.5
							C77.8,83.5,77.6,83.3,77.4,83.2z"/>
						<path class="st9" d="M81.9,79.5c0.2-0.2,0.6-0.4,0.8-0.4c0.2-0.1,0.2-0.1,0.1,0.1c-0.1,0.2-0.1,0.5-0.1,0.6
							c-0.4,0.2-0.9,0.7-1.1,1C81.7,80.4,81.8,80.2,81.9,79.5z"/>
						<path class="st9" d="M82.9,78.2c-0.1-0.6-0.1-1.2,0.1-1.6c-0.2-0.3-0.4-0.6-0.6-0.8c-0.3-0.3-0.3-0.1-0.3,0.1
							c0,0.3,0,0.6-0.1,1.1c-0.1,1,0.6,1.1,0.9,1.9C83,78.8,82.9,78.5,82.9,78.2z"/>
						<path class="st9" d="M85.2,76.3c-0.3,0.6-0.9,0.6-1.3,1.1c-0.1,0.5-0.2,0.9-0.4,1.2c-0.1,0.2-0.2,0.4-0.3,0.6
							c0.3-0.3,0.9-0.5,1.1-0.6c0.4-0.2,0.8-0.5,0.9-1.4c0-0.3,0.1-0.6,0.1-0.8C85.4,76.1,85.3,76,85.2,76.3z"/>
						<path class="st9" d="M83.9,76.7c0.1-0.3,0.4-0.7,0.6-0.9c0.2-0.1,0.3-0.3,0.3,0c-0.1,0.3,0,0.7-0.1,1
							c-0.3,0.1-0.6,0.3-0.7,0.5C83.9,77.1,83.9,76.8,83.9,76.7z"/>
						<path class="st9" d="M84.7,73.9c-0.1-0.2-0.2-0.4-0.2-0.9c0.1-0.5,0-0.6-0.2-0.4c-0.2,0.2-0.5,0.6-0.6,1.2
							c0.2,0.7-0.1,1.1-0.1,1.7c0,0.1,0.1,0.1,0.1,0.2c0,0.1,0.1,0.2,0.1,0.3c0.1-0.4,0.4-0.8,0.7-1.2
							C84.8,74.3,84.8,74.1,84.7,73.9z"/>
						<path class="st9" d="M82.6,73.6c-0.2,0-0.6-0.1-0.8-0.4c-0.3-0.3-0.3-0.2-0.2,0c0.1,0.2,0.1,0.5,0.2,0.8
							c0.1,0.5,0.5,1.2,1.4,1.2C82.8,74.7,82.6,74.2,82.6,73.6z"/>
						<path class="st9" d="M81.6,70.7c-0.6-0.4-0.4-0.9-1-1.4c-0.6-0.5-1.2-0.7-1.5-0.8c-0.2-0.1-0.5-0.1-0.2,0.2
							c0.5,0.5,0.4,1,1,1.3c0.6,0.4,1.3,0.4,1.6,0.9L81.6,70.7z"/>
						<path class="st9" d="M82.7,72.8c0.1-0.3,0.1-0.4,0.1-0.4c0-0.1-0.1-0.3-0.1-0.5c-0.1-0.6-0.7-1.1-1.2-1.4
							c-0.4-0.3-0.4-0.1-0.3,0.1c0.1,0.2,0.2,0.4,0.3,0.8C81.6,71.8,81.8,72.4,82.7,72.8C82.7,72.9,82.7,72.8,82.7,72.8z"/>
						<g>
							<path class="st9" d="M83,72.6c0,0.1,0.1,0.1,0.1,0.2c0-0.2,0-0.5,0.1-1.2c0.1-0.9-0.5-1-0.6-1.6c-0.1-0.4-0.2-0.3-0.4-0.1
								c-0.1,0.2-0.2,0.6-0.1,1c0.3,0.3,0.5,0.6,0.6,0.9c0,0.1,0.1,0.4,0.1,0.5C82.9,72.4,83,72.5,83,72.6z"/>
						</g>
						<path class="st9" d="M83.6,75.8c0-1,0.5-1.3,0-2.4c-0.2-0.4-0.6-0.6-0.6-0.9c-0.1-0.2-0.1-0.3-0.2,0.2c-0.2,1.3,0,1.9,0.7,2.8
							L83.6,75.8z"/>
						<path class="st9" d="M82.8,79.8c0.2-0.4,0.2-1,0.1-1.6c-0.1-0.6-0.1-1.2,0.1-1.6c0.2-0.4,0.4-0.8,0.4-1c0-0.2,0.1-0.5,0.3,0
							c0.5,1.3,0.2,2.3-0.1,2.9c-0.3,0.6-0.5,0.7-0.6,1.1L82.8,79.8z"/>
						<path class="st9" d="M81.9,81c0.3-0.3,0.9-0.7,1.6-0.9c0.1-0.3,0.1-0.6,0.3-0.8c0.1-0.3,0-0.2-0.2-0.1
							c-0.2,0.1-0.5,0.3-0.7,0.4c-0.8,0.4-1.5,1.3-1.9,2.1C81.3,81.5,81.7,81.3,81.9,81z"/>
						<path class="st9" d="M81.6,71.4L81.6,71.4c-0.4-0.1-0.9-0.1-1.1-0.1c-0.2-0.1-0.3,0,0,0.2c0.3,0.2,0.6,1,1.3,1.1
							c0.2,0,0.4,0,0.6,0C81.8,72.1,81.6,71.7,81.6,71.4z"/>
						<path class="st9" d="M79.9,70.1c-0.3-0.2-0.4-0.4-0.6-0.6c-0.3,0-0.6,0.1-0.7,0c-0.2-0.1-0.2,0.1,0,0.3
							c0.5,0.5,0.9,0.8,1.4,0.8c0.3,0,0.5-0.1,0.7-0.1C80.5,70.4,80.2,70.2,79.9,70.1z"/>
					</g>
					<g>
						<path class="st10" d="M78.3,82.5c0.7-0.5,0.8-1.4,1.5-1.7"/>
						<path class="st10" d="M77.8,83.3c0.8-0.1,1.8-0.3,2.7-1.3"/>
						<path class="st10" d="M79.7,81.9c0.4-0.3,0.7-0.6,0.8-0.7"/>
						<path class="st10" d="M81.4,82.5c-0.2-0.1-0.6-0.1-0.9,0.2"/>
						<path class="st10" d="M78.3,83.7c0.9,0.3,2.5-0.7,3.1-0.4"/>
						<path class="st10" d="M80.9,81.8c0.5-0.3,2.5-1.2,3.1-1.4"/>
						<path class="st10" d="M83.4,79.5c-0.2,0.2-0.7,0.8-1.1,1.1"/>
						<path class="st10" d="M82.6,79.3c-0.2,0.3-0.7,1.1-1,1.4"/>
						<path class="st10" d="M84.4,79.1c-0.2,0-0.5,0.1-0.7,0.2"/>
						<path class="st10" d="M81.5,78.8c0.1,0.8,0,2.1-0.5,2.9"/>
						<path class="st10" d="M82,79.4c0.1-0.2,0.3-0.5,0.2-0.8"/>
						<path class="st10" d="M85.1,76.6c-0.3,0.9-0.6,1.6-1.8,2.3"/>
						<path class="st10" d="M83.5,75.9c0.2,1.1,0.2,2.3-0.5,3.4"/>
						<path class="st10" d="M82.3,76c0.2,0.3,0.5,0.9,0.6,1.4"/>
						<path class="st10" d="M82.8,75.6c0.1,0.2,0.3,0.4,0.3,0.9"/>
						<path class="st10" d="M84.5,75.3c-0.2,0.2-0.5,0.6-0.6,1.2"/>
						<path class="st10" d="M84.4,72.6c-0.2,0.6-0.4,2.1-0.7,2.9"/>
						<path class="st10" d="M83.5,75.4c0-1.1-0.5-2-0.5-2.5"/>
						<path class="st10" d="M83.8,72.4c0,0.3,0,0.6,0,1"/>
						<path class="st10" d="M82.2,73c0.2,0.1,0.3,0.2,0.4,0.3"/>
						<path class="st10" d="M81.9,73.4c0.3,0.5,0.6,1.1,1.1,1.5"/>
						<path class="st10" d="M80.6,71.4c0.5,0.2,1.1,0.6,1.4,0.9"/>
						<path class="st10" d="M81.5,70.7c0.8,0.8,1.1,1.6,1.3,1.9"/>
						<path class="st10" d="M82.5,69.8c-0.1,0.6,0.4,1.8,0.4,2.6"/>
						<path class="st10" d="M81.6,71.4c-0.3-0.3-0.4-0.4-0.6-0.5"/>
						<path class="st10" d="M81.8,69.9c0.1,0.3,0.2,0.4,0.3,0.6"/>
						<path class="st10" d="M79.1,68.8c0.6,0.4,1.8,1.2,2.2,1.9"/>
						<path class="st10" d="M78.5,69.6c0.4,0.3,1.2,0.8,2,0.8"/>
						<path class="st10" d="M79.9,67.9c0,0.3,0.3,0.9,0.5,1.3"/>
					</g>
					<g>
						<path class="st9" d="M81.7,69.3c-0.3,0-0.2,0.7,0.1,0.6C82.1,70,82.1,69.4,81.7,69.3z"/>
						<path class="st9" d="M81.1,71c0.1-0.3-0.6-0.5-0.7-0.2C80.2,71.2,81,71.3,81.1,71z"/>
						<path class="st9" d="M82.4,73.2c0.1-0.2-0.4-0.6-0.5-0.4C81.7,73,82.2,73.4,82.4,73.2z"/>
						<path class="st9" d="M83.9,72c-0.3-0.2-0.5,0.4-0.2,0.6C84,72.8,84.3,72.2,83.9,72z"/>
						<path class="st9" d="M84.4,75.4c0.2,0.3,0.6-0.2,0.5-0.4C84.7,74.9,84.2,75.1,84.4,75.4z"/>
						<path class="st9" d="M82.9,75.8c0.2-0.1-0.2-0.5-0.4-0.4C82.3,75.6,82.5,75.9,82.9,75.8z"/>
						<path class="st9" d="M82.2,78.8c0.3-0.1,0-0.6-0.2-0.5C81.6,78.4,81.9,78.9,82.2,78.8z"/>
						<path class="st9" d="M84.2,79.1c0,0.4,0.7,0.3,0.6,0C84.8,78.8,84.2,78.8,84.2,79.1z"/>
						<path class="st9" d="M80.4,81.2c0.2,0.1,0.5-0.4,0.2-0.6C80.4,80.5,80.1,81,80.4,81.2z"/>
						<path class="st9" d="M81.2,82.5c0,0.4,0.5,0.3,0.5,0C81.8,82.2,81.3,82.2,81.2,82.5z"/>
					</g>
					<polygon class="st6" points="76,71.8 77,74.6 79.9,74.7 77.6,76.4 78.4,79.3 76,77.6 73.6,79.3 74.4,76.4 72.1,74.7 75,74.6 
											"/>
				</g>
			</g>
		</g>
	</g>
</g>
<circle class="st11" cx="76" cy="76" r="75"/>
</svg>
