<?xml version="1.0" encoding="utf-8"?>
<!-- Generator: Adobe Illustrator 24.2.3, SVG Export Plug-In . SVG Version: 6.00 Build 0)  -->
<svg version="1.1" id="Capa_1" xmlns:serif="http://www.serif.com/"
	 xmlns="http://www.w3.org/2000/svg" xmlns:xlink="http://www.w3.org/1999/xlink" x="0px" y="0px" viewBox="0 0 150 150"
	 style="enable-background:new 0 0 150 150;" xml:space="preserve">
<style type="text/css">
	.st0{fill-rule:evenodd;clip-rule:evenodd;fill:#FFFFFF;}
	.st1{fill-rule:evenodd;clip-rule:evenodd;fill:#ED1C24;}
	.st2{fill-rule:evenodd;clip-rule:evenodd;fill:#2E3092;}
	.st3{fill:none;stroke:#515151;stroke-width:2;stroke-linecap:square;stroke-miterlimit:36;}
</style>
<circle id="bandera-tailandia" class="st0" cx="75" cy="75" r="75"/>
<path class="st1" d="M131.5,123.8C118,139.9,97.7,150,75,150s-43-10.1-56.5-26.2H131.5z"/>
<path class="st1" d="M18.5,26.2C32,10.1,52.3,0,75,0s43,10.1,56.5,26.2H18.5L18.5,26.2z"/>
<path class="st2" d="M145.8,51.3c2.9,7.5,4.2,15.4,4.2,23.7c0,8-1.2,15.7-3.9,22.6H3.9C1.2,90.7,0,83,0,75c0-8.3,1.3-16.2,4.2-23.7
	L145.8,51.3L145.8,51.3z"/>
<circle class="st3" cx="75" cy="75" r="75"/>
</svg>
