<?xml version="1.0" encoding="utf-8"?>
<!-- Generator: Adobe Illustrator 24.2.3, SVG Export Plug-In . SVG Version: 6.00 Build 0)  -->
<svg version="1.1" id="Capa_1" xmlns:serif="http://www.serif.com/"
	 xmlns="http://www.w3.org/2000/svg" xmlns:xlink="http://www.w3.org/1999/xlink" x="0px" y="0px" viewBox="0 0 152 152"
	 style="enable-background:new 0 0 152 152;" xml:space="preserve">
<style type="text/css">
	.st0{fill-rule:evenodd;clip-rule:evenodd;fill:#ED1C24;}
	.st1{fill-rule:evenodd;clip-rule:evenodd;fill:#FFFFFF;}
	.st2{fill-rule:evenodd;clip-rule:evenodd;fill:#231F20;}
	.st3{fill:none;stroke:#515151;stroke-width:2;stroke-linecap:square;stroke-miterlimit:36;}
	.st4{fill-rule:evenodd;clip-rule:evenodd;fill:#FFD047;}
	.st5{fill-rule:evenodd;clip-rule:evenodd;}
</style>
<path class="st0" d="M76,1c32.7,0.2,60.3,20.9,70.4,50H5.6C15.5,22.1,43,1.2,76,1L76,1z"/>
<path class="st1" d="M146.4,51c3.1,7.9,4.6,16.3,4.6,25s-1.5,17.1-4.6,25H5.6C2.5,93.1,1,84.7,1,76s1.5-17.1,4.6-25H146.4z"/>
<path class="st2" d="M146.4,101c-9.9,29.1-37.7,50-70.4,50s-60.5-20.9-70.4-50H146.4z"/>
<circle class="st3" cx="76" cy="76" r="75"/>
<g>
	<path class="st4" d="M71.5,59.4l1.4-1.9l1.6,0.6l1.5-0.6l3,2.1l0.6,5.9l8.6-2.7l2.1,20l-8.6-5.6l2,9l-6.8,1.8l-7.5-1.4l1.6-9.7
		l-7.8,4.8l2.4-19.3l7.2,3.1l1.5-3.7L74,60.3L71.5,59.4L71.5,59.4z"/>
	<path class="st1" d="M75.6,66.8l-5.7,1.7c0,0,0,6.1,1.4,8c1.5,1.9,4.7,3.2,4.7,3.2s3.9-0.9,5-4.4c1.1-3.5,1.1-7,1.1-7L75.6,66.8
		L75.6,66.8z"/>
	<path class="st5" d="M77.4,68.2l0.1,9.6c0,0,2-2.5,2.5-5.4C80.5,69.5,77.4,68.2,77.4,68.2z"/>
	<path class="st4" d="M58.2,88.5l4.4-1.3c0,0,7.7,2.5,13.4,2.5c5.7,0,14-2.2,14-2.2l3.8,1.1l-1.6,4.5c0,0-9.8,2.9-16.1,2.9
		c-6.3,0-15.6-2.9-15.6-2.9L58.2,88.5L58.2,88.5z"/>
</g>
</svg>
