<?xml version="1.0" encoding="utf-8"?>
<!-- Generator: Adobe Illustrator 24.2.3, SVG Export Plug-In . SVG Version: 6.00 Build 0)  -->
<svg version="1.1" id="Capa_1" xmlns:serif="http://www.serif.com/"
	 xmlns="http://www.w3.org/2000/svg" xmlns:xlink="http://www.w3.org/1999/xlink" x="0px" y="0px" viewBox="0 0 150 150"
	 style="enable-background:new 0 0 150 150;" xml:space="preserve">
<style type="text/css">
	.st0{fill-rule:evenodd;clip-rule:evenodd;fill:#007CC2;}
	.st1{fill-rule:evenodd;clip-rule:evenodd;fill:#FFFFFF;}
	.st2{fill:none;stroke:#515151;stroke-width:2;stroke-linecap:square;stroke-miterlimit:36;}
</style>
<circle class="st0" cx="75" cy="74.4" r="75"/>
<path id="bandera-grecia" class="st1" d="M137.4,116c-4.2,6.3-9.4,11.9-15.2,16.7H27.9c-5.9-4.8-11-10.4-15.2-16.7H137.4z
	 M145.7,49.4c1.9,5.3,3.2,10.9,3.8,16.7H83.3V49.4H145.7z M83.3,32.7v16.7H49.7v33.3h99.8c-0.6,5.8-1.9,11.4-3.8,16.7H4.3
	C2.4,94,1.1,88.4,0.5,82.6h32.6V49.4H4.3c2.1-5.9,4.9-11.5,8.4-16.7h20.4V12.2c5.1-3.5,10.7-6.3,16.7-8.5v29H83.3l0-16.7h38.9
	c5.9,4.8,11,10.4,15.2,16.7H83.3L83.3,32.7z"/>
<circle class="st2" cx="75" cy="74.4" r="75"/>
</svg>
