<?xml version="1.0" encoding="utf-8"?>
<!-- Generator: Adobe Illustrator 24.2.3, SVG Export Plug-In . SVG Version: 6.00 Build 0)  -->
<svg version="1.1" id="Capa_1" xmlns:serif="http://www.serif.com/"
	 xmlns="http://www.w3.org/2000/svg" xmlns:xlink="http://www.w3.org/1999/xlink" x="0px" y="0px" viewBox="0 0 150 150"
	 style="enable-background:new 0 0 150 150;" xml:space="preserve">
<style type="text/css">
	.st0{fill-rule:evenodd;clip-rule:evenodd;fill:#FFFFFF;}
	.st1{fill-rule:evenodd;clip-rule:evenodd;fill:#005AAA;}
	.st2{fill-rule:evenodd;clip-rule:evenodd;fill:#FFD047;}
	.st3{fill:none;stroke:#515151;stroke-width:2;stroke-linecap:square;stroke-miterlimit:36;}
</style>
<circle id="bandera-uruguay" class="st0" cx="75" cy="76.3" r="75"/>
<path class="st1" d="M128,129.3l-7.8,6.4H29.8l-7.8-6.4L13.4,119h123.1L128,129.3z"/>
<path class="st1" d="M148.5,91.4l-3.3,10.6H4.8L1.5,91.4l-0.6-6.2h148.2L148.5,91.4z"/>
<path class="st1" d="M148.5,61.2l0.7,7H83.4V51.4h62L148.5,61.2L148.5,61.2z"/>
<path class="st1" d="M121.2,17.6c6.2,4.7,11.6,10.4,16,16.8H83V17.6H121.2z"/>
<path id="bandera-uruguay1" serif:id="bandera-uruguay" class="st2" d="M41.3,9.3l1.6,15.9l10.3-11.7l-0.5,13.7l11.9-8.3l-9.4,12.7
	l13.7-1.4l-9.1,8.7L74.9,43l-17.6,2l14.3,9.7l-14.5-0.4l7.2,11.8L51,54.5l3.7,15.6l-9-8l-3.4,14.1l-2.9-16.5l-7.1,13.7l-0.5-13.7
	l-11.3,5.9l8.8-12.1l-16.7,2.3l10.4-9.5L7.4,43.8l0,0l17.2-2.5l-12.4-6c0.9-1.3,1.8-2.6,2.7-3.9l9.7,0.1l-4.3-6.5
	c0.5-0.6,1.1-1.1,1.6-1.6l8.6,6.4l-3.6-11c0.8-0.7,1.6-1.3,2.4-1.9l9.2,6.1l2.4-13.5l0,0L41.3,9.3L41.3,9.3z"/>
<circle class="st3" cx="75" cy="76.3" r="75"/>
</svg>
