<?xml version="1.0" encoding="utf-8"?>
<!-- Generator: Adobe Illustrator 24.2.3, SVG Export Plug-In . SVG Version: 6.00 Build 0)  -->
<svg version="1.1" id="Capa_1" xmlns:serif="http://www.serif.com/"
	 xmlns="http://www.w3.org/2000/svg" xmlns:xlink="http://www.w3.org/1999/xlink" x="0px" y="0px" viewBox="0 0 152 152"
	 style="enable-background:new 0 0 152 152;" xml:space="preserve">
<style type="text/css">
	.st0{clip-path:url(#SVGID_2_);}
	.st1{fill:#003671;}
	.st2{fill:#FFFFFF;}
	.st3{fill:#FFD039;}
	.st4{fill:#E63137;}
	.st5{fill:#C2D9F2;}
	.st6{fill:#4E2582;}
	.st7{fill:#0096D7;}
	.st8{fill:#009F82;}
	.st9{fill:#FFEC00;}
	.st10{fill:#F7AD4C;}
	.st11{fill:#E30520;}
	.st12{fill:#FFE000;}
	.st13{fill:none;}
	.st14{fill:none;stroke:#515151;stroke-width:2;stroke-linecap:square;stroke-miterlimit:1.5;}
</style>
<g>
	<g>
		<g>
			<defs>
				<circle id="SVGID_1_" cx="76" cy="76" r="75"/>
			</defs>
			<clipPath id="SVGID_2_">
				<use xlink:href="#SVGID_1_"  style="overflow:visible;"/>
			</clipPath>
			<g class="st0">
				<g>
					<rect x="-49" y="1.1" class="st1" width="250" height="150"/>
					<path class="st1" d="M76,76.1"/>
				</g>
				<rect x="-49" y="51.2" class="st2" width="250" height="50"/>
				<g>
					<polygon class="st1" points="91.6,85 76,58.3 60.4,85 					"/>
					<polygon class="st3" points="60.9,84.6 76,58.9 91.1,84.6 					"/>
					<polygon class="st1" points="61.4,84.3 76,59.6 90.6,84.3 					"/>
					<polygon class="st2" points="90.1,84 76,60.2 61.9,84 					"/>
				</g>
				<path class="st4" d="M75.1,73.3c-0.1,0-0.1,0-0.2,0s-0.1,0-0.1-0.2c0-0.6,0-1.1,0.2-1.2c0.2-0.2,0.4-0.2,0.6-0.2
					c0.2,0,0.2-0.2,0-0.2c-0.2-0.1-0.4-0.1-0.6-0.1c0-0.4,0.1-0.7,0.5-0.7c0.2,0,0.4,0,0.7,0c0.3,0,0.7,0.5,0.7,1c0,0.6,0,1.3,0,1.5
					s-0.1,0.2-0.3,0.2c-0.2,0-0.3,0-0.4,0s-0.2,0-0.2,0.2c0,0.2,0,0.4,0,0.6c0,0.2-0.1,0.3-0.4,0.2C75.4,74.2,75.3,74,75.1,73.3z"/>
				<g>
					<polygon class="st3" points="54.7,72.2 54.5,73.6 55.1,73.7 55.3,72.4 55.9,72.5 55.7,73.8 56.4,73.9 56.6,72.5 57.1,72.5 
						56.8,74.6 53.9,74.1 54.2,72.1 					"/>
					<path class="st3" d="M55.5,70.5c0.2,0.1,0.5,0.1,0.5,0.1s0.1-0.3,0.2-0.5c0.1-0.3-0.1-0.5-0.4-0.6c-0.3-0.1-0.5,0.1-0.5,0.3
						c-0.1,0.2-0.2,0.5-0.2,0.5C55.1,70.4,55.3,70.4,55.5,70.5L55.4,71l-0.9-0.3c0,0,0.1-0.5,0.4-1.2c0.1-0.5,0.6-0.7,1.1-0.5
						c0.4,0.1,0.8,0.6,0.7,1.1c-0.1,0.3-0.2,0.6-0.2,0.6l1,0.3l-0.1,0.5L55.4,71L55.5,70.5z"/>
					<path class="st3" d="M58.2,67.7c0.2-0.4,0-0.6-0.2-0.7c-0.2-0.1-1.7-0.9-1.7-0.9l0.3-0.5c0,0,1.4,0.7,1.7,0.9
						c0.4,0.2,0.8,0.7,0.4,1.4c-0.4,0.7-0.9,0.7-1.4,0.5c-0.4-0.2-1.7-0.9-1.7-0.9l0.2-0.5c0,0,1.5,0.7,1.7,0.9
						C57.8,68,58.1,68,58.2,67.7z"/>
					<path class="st3" d="M59.2,65.1c0.2,0.1,0.3,0.2,0.3,0.2s0.3-0.5,0.4-0.6c0.1-0.1,0.1-0.4-0.1-0.5c-0.2-0.1-0.4-0.1-0.5,0
						s-0.4,0.6-0.4,0.6C58.9,64.9,59,65,59.2,65.1l-0.4,0.5c-0.3-0.2-0.7-0.5-1-0.7l0.4-0.5c0.1,0.1,0.3,0.2,0.3,0.2
						s0.3-0.4,0.4-0.6c0.1-0.2,0-0.4-0.1-0.4c-0.1-0.1-0.3-0.1-0.5,0.1c-0.1,0.2-0.4,0.6-0.4,0.6s0.1,0.1,0.3,0.2l-0.4,0.5
						c-0.4-0.3-0.6-0.5-0.6-0.5s0.2-0.3,0.6-0.9c0.3-0.4,0.8-0.7,1.2-0.4c0.2,0.1,0.3,0.4,0.3,0.6c0.2-0.1,0.5-0.1,0.8,0.1
						s0.6,0.6,0.2,1.2c-0.3,0.4-0.8,1.1-0.8,1.1s-0.3-0.2-0.8-0.5L59.2,65.1z"/>
					<polygon class="st3" points="59.8,61 61.5,62.7 62.4,61.8 62.8,62.2 61.5,63.5 59.4,61.5 					"/>
					
						<rect x="62.5" y="58.8" transform="matrix(0.7757 -0.631 0.631 0.7757 -23.977 53.1296)" class="st3" width="0.6" height="2.9"/>
					<path class="st3" d="M65.2,58c-0.1-0.1-0.4-0.4-0.8-0.1s-0.4,0.7-0.1,1.2c0.3,0.5,0.7,0.7,1.1,0.5c0.3-0.2,0.4-0.6,0.2-0.8
						l0.4-0.3c0.3,0.5,0.1,1.1-0.4,1.5c-0.6,0.4-1.3,0.1-1.7-0.6c-0.5-0.8-0.4-1.5,0.2-1.9c0.6-0.4,1.2-0.1,1.5,0.3L65.2,58z"/>
					<path class="st3" d="M72.8,55.7c0.1,0.5,0.1,1,0.1,1s0.3,0,0.5-0.1c0.2,0,0.7-0.1,0.6-1.1c-0.1-0.9-0.6-0.9-0.8-0.8
						c-0.1,0-0.5,0.1-0.5,0.1S72.7,55.2,72.8,55.7l-0.5,0.1c-0.1-0.7-0.1-1.4-0.1-1.4c0.3,0,0.7-0.1,1.1-0.1c0.4,0,1.2,0,1.3,1.2
						c0.1,0.8-0.2,1.6-0.9,1.7c-0.7,0.1-1.2,0.1-1.2,0.1s-0.1-0.8-0.2-1.5L72.8,55.7z"/>
					<polygon class="st3" points="77.9,54.6 76.5,54.5 76.4,55.2 77.7,55.2 77.7,55.7 76.4,55.7 76.4,56.4 77.8,56.5 77.8,57 
						75.8,56.9 75.9,54 77.9,54.1 					"/>
					<polygon class="st3" points="82.2,54.9 82.6,56.9 83.2,55.2 83.7,55.4 82.8,58.2 82.3,58 81.8,55.9 81.2,57.6 80.6,57.4 
						81.6,54.7 					"/>
					
						<rect x="83.2" y="57" transform="matrix(0.4243 -0.9055 0.9055 0.4243 -3.1694 109.6512)" class="st3" width="2.9" height="0.6"/>
					<path class="st3" d="M87.8,58.5c0.1-0.1,0.1-0.5-0.2-0.7c-0.4-0.2-0.8,0-1.1,0.4c-0.3,0.5-0.3,1,0.1,1.2
						c0.3,0.2,0.7,0.1,0.8-0.1l0.4,0.3c-0.3,0.5-0.9,0.6-1.5,0.3c-0.6-0.4-0.6-1.1-0.2-1.9c0.5-0.8,1.2-1,1.8-0.6
						c0.6,0.4,0.6,1.1,0.4,1.4L87.8,58.5z"/>
					<path class="st3" d="M96.3,69.7c0.2-0.2,0.3-0.5,0.2-0.7c-0.1-0.4-0.6-0.6-1.1-0.4c-0.6,0.2-0.9,0.6-0.7,1
						c0.1,0.4,0.4,0.5,0.8,0.4l-0.2-0.5l0.4-0.1l0.4,1l-1.4,0.5l-0.1-0.3c0.1,0,0.2-0.1,0.3-0.1c-0.3-0.1-0.5-0.3-0.6-0.6
						c-0.3-0.6,0.2-1.4,1-1.7c0.8-0.3,1.5,0,1.8,0.7c0.2,0.6,0,1.2-0.5,1.4L96.3,69.7z"/>
					<path class="st3" d="M95.5,72.8c0.1,0.4,0.4,0.5,0.6,0.4c0.2,0,1.9-0.3,1.9-0.3l0.1,0.6c0,0-1.5,0.2-1.9,0.3
						c-0.5,0.1-1-0.1-1.2-0.9c-0.1-0.8,0.4-1.1,0.8-1.2c0.4-0.1,1.9-0.3,1.9-0.3l0.1,0.6c0,0-1.7,0.3-1.9,0.3
						C95.7,72.3,95.5,72.4,95.5,72.8z"/>
					<path class="st3" d="M57.9,87.2c0.1,0.2,0.2,0.4,0.2,0.4l0.8-0.9l-1.2,0.3C57.7,86.9,57.8,87,57.9,87.2l-0.4,0.2
						c-0.1-0.2-0.2-0.4-0.2-0.4l-0.6,0.1l-0.3-0.5l3-0.8l0.4,0.6l-2,2.3l-0.3-0.5l0.4-0.5c0,0-0.1-0.3-0.3-0.5L57.9,87.2z"/>
					<polygon class="st3" points="59.1,90.7 60.4,88.8 58.7,90.3 58.4,89.9 60.5,87.9 61.1,88.6 59.8,90.4 61.8,89.3 62.4,89.9 
						60.2,91.9 59.8,91.5 61.5,90 59.5,91.1 					"/>
					<polygon class="st3" points="64.5,92.3 63.3,91.5 62.9,92 63.9,92.8 63.6,93.2 62.6,92.4 62.1,93 63.2,93.9 62.9,94.3 61.4,93 
						63.2,90.7 64.8,92 					"/>
					<path class="st3" d="M65.5,94c0.2,0.1,0.4,0.2,0.5,0.3c0.1,0.1,0.4,0,0.5-0.2c0.1-0.2,0-0.4-0.1-0.5c-0.2-0.1-0.6-0.4-0.6-0.4
						l-0.4,0.7C65.4,93.8,65.4,93.9,65.5,94l-0.2,0.5c-0.1-0.1-0.2-0.1-0.2-0.1l-0.6,1L64,95l1.4-2.6c0,0,1,0.6,1.4,0.8
						c0.4,0.2,0.4,0.7,0.1,1.1c-0.2,0.4-0.6,0.4-0.8,0.4c0.2,0.1,0.3,0.4,0.1,0.7c-0.1,0.1-0.4,0.7-0.4,0.7l-0.5-0.3
						c0,0,0.1-0.3,0.3-0.6c0.2-0.3,0.1-0.5-0.2-0.6c-0.1-0.1-0.2-0.1-0.3-0.1L65.5,94z"/>
					
						<rect x="66.4" y="95.1" transform="matrix(0.3798 -0.9251 0.9251 0.3798 -46.1193 121.9718)" class="st3" width="2.9" height="0.6"/>
					<path class="st3" d="M71.1,96c0.1-0.2,0-0.5-0.4-0.6c-0.4-0.1-0.7,0.2-0.9,0.7c-0.1,0.6,0,1,0.4,1.1c0.4,0.1,0.6-0.1,0.7-0.4
						l0.5,0.1c-0.1,0.6-0.7,0.9-1.4,0.7c-0.6-0.2-0.9-0.9-0.7-1.7c0.2-0.9,0.9-1.3,1.5-1.1c0.7,0.2,0.9,0.8,0.8,1.3L71.1,96z"/>
					<path class="st3" d="M79.7,96.2c0-0.2-0.2-0.5-0.7-0.4c-0.4,0.1-0.6,0.5-0.5,1.1c0.1,0.6,0.4,0.9,0.8,0.9
						c0.4-0.1,0.5-0.4,0.5-0.6l0.5-0.1c0.1,0.6-0.3,1.1-1,1.2S78.1,97.8,78,97c-0.1-0.9,0.2-1.5,0.9-1.6c0.7-0.1,1.2,0.4,1.2,0.8
						L79.7,96.2z"/>
					<polygon class="st3" points="82.9,94.8 81.5,95.3 81.7,95.9 82.9,95.5 83.1,96 81.9,96.4 82.1,97.2 83.5,96.7 83.6,97.2 
						81.7,97.8 80.8,95 82.7,94.4 					"/>
					<polygon class="st3" points="84.1,93.8 85.8,94.9 85,93.3 85.6,93.1 86.9,95.7 86.4,95.9 84.5,94.8 85.3,96.4 84.8,96.7 
						83.5,94.1 					"/>
					<polygon class="st3" points="88.8,94.5 87.3,92.5 86.6,93 86.3,92.6 88.1,91.3 88.4,91.7 87.7,92.2 89.2,94.2 					"/>
					<polygon class="st3" points="93.1,85.4 95.2,86.5 95.8,85.3 96.3,85.6 95.4,87.3 92.8,85.9 					"/>
					<path class="st3" d="M73.6,97.3c0.2,0,0.4,0,0.4,0l-0.2-1.2l-0.5,1.1C73.3,97.2,73.4,97.2,73.6,97.3l-0.1,0.5
						c-0.2,0-0.5-0.1-0.5-0.1l-0.2,0.6l-0.6-0.1l1.2-2.8l0.6,0.1l0.6,3l-0.6-0.1l-0.1-0.6c0,0-0.3,0-0.6-0.1L73.6,97.3z"/>
					<path class="st3" d="M93.1,88.7c0.1-0.1,0.2-0.3,0.2-0.3L92.2,88l0.8,1C92.9,89,93,88.9,93.1,88.7l0.4,0.3
						c-0.1,0.2-0.3,0.4-0.3,0.4l0.4,0.5l-0.3,0.4l-1.8-2.5l0.4-0.5l2.9,1l-0.3,0.4l-0.6-0.2c0,0-0.2,0.2-0.3,0.5L93.1,88.7z"/>
					<path class="st3" d="M90.3,91.1c0.1-0.1,0.3-0.3,0.4-0.4c0.1-0.1,0.1-0.4-0.1-0.5c-0.2-0.2-0.4-0.1-0.5,0
						c-0.1,0.1-0.5,0.5-0.5,0.5l0.6,0.6C90.1,91.3,90.2,91.2,90.3,91.1l0.4,0.3c-0.1,0.1-0.2,0.2-0.2,0.2l0.8,0.8l-0.4,0.4
						c0,0-2.1-2.1-2.1-2.1c0,0,0.9-0.9,1.1-1.1c0.3-0.3,0.8-0.1,1.1,0.1c0.3,0.3,0.3,0.7,0.1,0.8c0.1-0.1,0.4-0.1,0.7,0.1
						c0.1,0.1,0.6,0.6,0.6,0.6L92,91.7c0,0-0.2-0.2-0.5-0.5c-0.3-0.3-0.4-0.2-0.6,0c-0.1,0.1-0.1,0.1-0.2,0.2L90.3,91.1z"/>
					<path class="st3" d="M96.4,76.1c0,0.2,0,0.4,0,0.4l1.2-0.4l-1.2-0.4C96.4,75.8,96.4,75.9,96.4,76.1l-0.5,0c0-0.2,0-0.5,0-0.5
						l-0.6-0.2v-0.6l2.9,0.9v0.6l-2.9,0.9v-0.6l0.6-0.2c0,0,0-0.3,0-0.6L96.4,76.1z"/>
					<path class="st3" d="M93.8,66.2c0.1,0.2,0.2,0.4,0.2,0.4l0.9-0.9l-1.2,0.3C93.6,65.9,93.7,66,93.8,66.2l-0.4,0.2
						c-0.1-0.2-0.2-0.4-0.2-0.4l-0.6,0.1l-0.3-0.5l3-0.6l0.3,0.6l-2.1,2.2l-0.3-0.5l0.4-0.4c0,0-0.1-0.3-0.3-0.5L93.8,66.2z"/>
					<path class="st3" d="M89.5,60.9c0.1,0.1,0.3,0.3,0.3,0.3l0.5-1.1l-1.1,0.6C89.2,60.7,89.3,60.8,89.5,60.9l-0.4,0.4
						c-0.2-0.2-0.4-0.3-0.4-0.3l-0.5,0.3l-0.4-0.4l2.6-1.6l0.5,0.4l-1.3,2.8l-0.4-0.4l0.3-0.6c0,0-0.2-0.2-0.4-0.4L89.5,60.9z"/>
					<path class="st3" d="M68.1,57.5c0.2-0.1,0.4-0.1,0.4-0.1l-0.8-1l0.1,1.2C67.8,57.6,67.9,57.5,68.1,57.5l0.2,0.5
						c-0.2,0.1-0.4,0.2-0.4,0.2l0.1,0.6l-0.5,0.2l-0.3-3.1l0.6-0.2l2,2.4l-0.5,0.2l-0.4-0.5c0,0-0.3,0.1-0.5,0.2L68.1,57.5z"/>
					<path class="st3" d="M55.1,76.9c0-0.2,0-0.5,0-0.6c0-0.2-0.1-0.3-0.4-0.3c-0.2,0-0.4,0.2-0.4,0.4c0,0.2,0,0.7,0,0.7h0.8
						C55.1,77.1,55.1,77,55.1,76.9l0.5-0.1c0,0.1,0,0.3,0,0.3h1.1v0.6l-2.9,0c0,0,0-1.2,0-1.6c0-0.4,0.4-0.6,0.8-0.6
						c0.4,0,0.7,0.3,0.7,0.5c0-0.2,0.2-0.4,0.6-0.4c0.2,0,0.8,0,0.8,0v0.6c0,0-0.3,0-0.7,0s-0.4,0.2-0.4,0.5c0,0.1,0,0.2,0,0.3
						L55.1,76.9z"/>
					<path class="st3" d="M92.1,62.8c0.1,0.1,0.3,0.4,0.4,0.4c0.1,0.1,0.3,0.2,0.5,0c0.2-0.1,0.2-0.4,0.1-0.5
						c-0.1-0.2-0.5-0.6-0.5-0.6L92,62.6C92,62.6,92.1,62.7,92.1,62.8l-0.4,0.4c-0.1-0.1-0.2-0.2-0.2-0.2l-0.9,0.7l-0.4-0.5l2.3-1.8
						c0,0,0.7,0.9,1,1.3c0.3,0.3,0.1,0.8-0.2,1c-0.3,0.3-0.7,0.2-0.9,0.1c0.1,0.1,0.1,0.5-0.2,0.7c-0.1,0.1-0.6,0.5-0.6,0.5
						l-0.4-0.4c0,0,0.3-0.2,0.5-0.4c0.3-0.2,0.2-0.4,0.1-0.6c-0.1-0.1-0.1-0.2-0.2-0.2L92.1,62.8z"/>
					<circle class="st3" cx="56.1" cy="81.7" r="0.5"/>
					<circle class="st3" cx="95.9" cy="81.7" r="0.5"/>
				</g>
				<g>
					<path class="st5" d="M69.6,70.9l-0.6,1l4.6,0.9c0-0.1,0-0.2,0-0.3L69.6,70.9z"/>
					<path class="st5" d="M71.1,68.4l-0.5,0.8l3.3,1.5c0-0.1,0.1-0.1,0.1-0.2L71.1,68.4z"/>
					<path class="st5" d="M70.4,69.6L70,70.4l3.7,1.4c0-0.1,0-0.2,0.1-0.3L70.4,69.6z"/>
					<path class="st5" d="M77.9,74.2l5.2,3.7c0.5,0,1.9-0.1,2.1-0.1L78,73.9C78,74,77.9,74.1,77.9,74.2z"/>
					<path class="st5" d="M75.8,75.4l-0.2,2.5c0.1,0,0.4,0,0.5,0v-2.5l0,0C75.9,75.4,75.9,75.4,75.8,75.4z"/>
					<path class="st5" d="M76.1,69.4l0.6-7.8L76,60.2l-0.3,0.5l0.3,8.6c0,0,0,0,0.1,0C76,69.3,76.1,69.4,76.1,69.4z"/>
					<path class="st5" d="M85.8,76.7l-1.2-2l-6.3-1.4c0,0.1-0.1,0.3-0.1,0.4L85.8,76.7z"/>
					<path class="st5" d="M83.7,73.2L83,72.1l-4.7,0.7c0,0.1,0,0.3-0.1,0.4L83.7,73.2z"/>
					<path class="st5" d="M82.6,71.4l-0.5-0.9L78.3,72c0,0.1,0,0.2,0,0.4L82.6,71.4z"/>
					<path class="st5" d="M81.6,69.8l-0.4-0.6l-3.1,2.1c0,0.1,0.1,0.2,0.1,0.3L81.6,69.8z"/>
					<path class="st5" d="M81,68.6l-0.5-0.8l-2.6,2.8c0.1,0.1,0.1,0.2,0.1,0.3L81,68.6z"/>
					<path class="st5" d="M80.3,67.5L80,67l-2.4,3.1c0.1,0.1,0.1,0.1,0.2,0.2L80.3,67.5z"/>
					<path class="st5" d="M79.8,66.6l-0.3-0.5l-2.3,3.7c0.1,0.1,0.1,0.1,0.2,0.1L79.8,66.6z"/>
					<path class="st5" d="M79.1,65.4l-0.4-0.7l-1.8,4.9c0.1,0,0.1,0.1,0.2,0.1L79.1,65.4z"/>
					<path class="st5" d="M78.1,63.8l-0.6-1l-1.1,6.6c0.1,0,0.1,0,0.2,0.1L78.1,63.8z"/>
					<path class="st5" d="M74.9,62.1l-0.6,1.1l1.3,6.3c0.1,0,0.1,0,0.2,0L74.9,62.1z"/>
					<path class="st5" d="M73.7,64l-0.5,0.8l1.9,4.8c0.1,0,0.1-0.1,0.1-0.1L73.7,64z"/>
					<path class="st5" d="M72.8,65.5l-0.4,0.6l2.3,3.6c0,0,0.1-0.1,0.1-0.1L72.8,65.5z"/>
					<path class="st5" d="M72.1,66.8l-0.6,1l2.9,2.3c0.1-0.1,0.1-0.1,0.1-0.1L72.1,66.8z"/>
					<path class="st5" d="M68.2,73.3l-0.8,1.4l6.4-1.2c0-0.1,0-0.1-0.1-0.2L68.2,73.3z"/>
					<path class="st5" d="M66.4,76.4l-0.9,1.5l8.4-4c0-0.1-0.1-0.1-0.1-0.2L66.4,76.4z"/>
					<path class="st5" d="M69.9,76.9l0.4,0.6l3.9-3.2c0-0.1-0.1-0.1-0.1-0.1L69.9,76.9z"/>
					<path class="st5" d="M70.6,77.9L70.6,77.9c0.4,0,0.8,0,0.9,0l3-3.3c0-0.1-0.1-0.1-0.1-0.1L70.6,77.9z"/>
					<path class="st5" d="M73.4,76.7c0.2,0,0.6-0.1,0.7-0.1l0.8-1.6c-0.1-0.1-0.1-0.1-0.2-0.1L73.4,76.7z"/>
					<path class="st5" d="M74.4,76.9c0.1,0.2,0.3,0.6,0.4,0.7l0.6-2.3c-0.1,0-0.1-0.1-0.2-0.1L74.4,76.9z"/>
					<path class="st5" d="M76.6,77.9c0.2,0,0.5,0,0.7,0l-0.7-2.6c-0.1,0-0.1,0-0.2,0.1L76.6,77.9z"/>
					<path class="st5" d="M77.9,77.9c0.1,0,0.6,0,0.9,0l-1.9-2.7c-0.1,0-0.1,0.1-0.2,0.1L77.9,77.9z"/>
					<path class="st5" d="M79.3,77.9c0.3,0,0.9,0,1.1,0l-3.1-3c0,0-0.1,0.1-0.1,0.1L79.3,77.9z"/>
					<path class="st5" d="M80.9,77.9c0.4,0,1.1,0,1.2,0l-4.4-3.4c-0.1,0.1-0.1,0.2-0.2,0.3L80.9,77.9z"/>
				</g>
				<g>
					<path class="st6" d="M84.7,74.9c0.1,0.6,0.2,1.2,0.2,1.9c0,0.4,0,0.8-0.1,1.1H85c0.1-0.4,0.1-0.7,0.1-1.1c0-0.5,0-1-0.1-1.4
						L84.7,74.9z"/>
					<path class="st6" d="M81.5,69.6c-1.5-1.2-3.4-1.9-5.5-1.9c-2.1,0-4,0.7-5.5,1.9L70.2,70c1.6-1.4,3.6-2.1,5.8-2.1
						c2.2,0,4.3,0.8,5.8,2.1L81.5,69.6z"/>
					<path class="st6" d="M67.3,74.9L67,75.3c-0.1,0.5-0.1,0.9-0.1,1.4c0,0.4,0,0.9,0.1,1.3h0.2c-0.1-0.4-0.1-0.9-0.1-1.3
						C67.1,76.1,67.2,75.5,67.3,74.9z"/>
				</g>
				<g>
					<path class="st1" d="M84.9,75.3c0.1,0.5,0.1,0.9,0.1,1.4c0,0.4,0,0.8-0.1,1.1h0.2c0.1-0.4,0.1-0.7,0.1-1.1c0-0.4,0-0.7-0.1-1
						L84.9,75.3z"/>
					<path class="st1" d="M81.3,69.2c-1.5-1.1-3.3-1.7-5.3-1.7c-2,0-3.8,0.6-5.3,1.7l-0.2,0.4c1.5-1.2,3.4-1.9,5.5-1.9
						c2.1,0,4,0.7,5.5,1.9L81.3,69.2z"/>
					<path class="st1" d="M67,75.3l-0.2,0.4c0,0.3-0.1,0.7-0.1,1c0,0.4,0,0.9,0.1,1.3H67c-0.1-0.4-0.1-0.9-0.1-1.3
						C66.9,76.3,66.9,75.8,67,75.3z"/>
				</g>
				<g>
					<path class="st7" d="M85.2,75.7c0,0.3,0.1,0.7,0.1,1c0,0.4,0,0.8-0.1,1.1h0.2c0-0.4,0.1-0.7,0.1-1.1c0-0.2,0-0.4,0-0.7
						L85.2,75.7z"/>
					<path class="st7" d="M81.1,68.8c-1.5-0.9-3.2-1.5-5.1-1.5c-1.9,0-3.6,0.6-5.1,1.5l-0.2,0.4c1.5-1.1,3.3-1.7,5.3-1.7
						c2,0,3.8,0.6,5.3,1.7L81.1,68.8z"/>
					<path class="st7" d="M66.8,75.7l-0.2,0.4c0,0.2,0,0.4,0,0.7c0,0.4,0,0.9,0.1,1.3h0.2c-0.1-0.4-0.1-0.9-0.1-1.3
						C66.7,76.4,66.7,76.1,66.8,75.7z"/>
				</g>
				<g>
					<path class="st8" d="M85.4,76.1c0,0.2,0,0.4,0,0.7c0,0.4,0,0.8-0.1,1.1h0.2c0-0.4,0.1-0.7,0.1-1.1c0-0.1,0-0.2,0-0.3L85.4,76.1
						z"/>
					<path class="st8" d="M80.9,68.5c-1.4-0.9-3.1-1.4-4.9-1.4c-1.8,0-3.5,0.5-4.9,1.4l-0.2,0.3c1.5-0.9,3.2-1.5,5.1-1.5
						s3.6,0.6,5.1,1.5L80.9,68.5z"/>
					<path class="st8" d="M66.6,76.1l-0.2,0.3c0,0.1,0,0.2,0,0.3c0,0.4,0,0.9,0.1,1.3h0.2c-0.1-0.4-0.1-0.9-0.1-1.3
						C66.6,76.5,66.6,76.3,66.6,76.1z"/>
				</g>
				<g>
					<path class="st9" d="M85.6,76.4c0,0.1,0,0.2,0,0.3c0,0.4,0,0.8-0.1,1.1h0.2c0-0.4,0.1-0.7,0.1-1.1v0L85.6,76.4z"/>
					<path class="st9" d="M80.7,68.2c-1.4-0.8-3-1.2-4.7-1.2c-1.7,0-3.3,0.4-4.7,1.2l-0.2,0.3c1.4-0.9,3.1-1.4,4.9-1.4
						c1.8,0,3.5,0.5,4.9,1.4L80.7,68.2z"/>
					<path class="st9" d="M66.4,76.4l-0.2,0.3v0c0,0.4,0,0.9,0.1,1.3h0.2c-0.1-0.4-0.1-0.9-0.1-1.3C66.4,76.6,66.4,76.5,66.4,76.4z"
						/>
				</g>
				<g>
					<path class="st10" d="M85.8,76.7L85.8,76.7c0,0.4,0,0.8-0.1,1.1h0.2c0-0.3,0.1-0.6,0.1-0.9L85.8,76.7z"/>
					<path class="st10" d="M80.5,67.9c-1.4-0.7-2.9-1.1-4.5-1.1c-1.6,0-3.2,0.4-4.5,1.1l-0.2,0.3c1.4-0.8,3-1.2,4.7-1.2
						c1.7,0,3.3,0.4,4.7,1.2L80.5,67.9z"/>
					<path class="st10" d="M66.2,76.7L66,77c0,0.4,0,0.7,0.1,1h0.2C66.2,77.6,66.2,77.2,66.2,76.7L66.2,76.7z"/>
				</g>
				<g>
					<path class="st11" d="M86,77c0,0.3,0,0.6-0.1,0.9h0.2c0-0.2,0-0.4,0.1-0.6L86,77z"/>
					<path class="st11" d="M80.4,67.6c-1.3-0.6-2.8-1-4.4-1c-1.6,0-3.1,0.4-4.4,1l-0.2,0.3c1.4-0.7,2.9-1.1,4.5-1.1
						c1.6,0,3.2,0.4,4.5,1.1L80.4,67.6z"/>
					<path class="st11" d="M65.9,77.3c0,0.3,0,0.5,0.1,0.7h0.2c0-0.3-0.1-0.7-0.1-1L65.9,77.3z"/>
				</g>
				<g>
					<path class="st1" d="M70.9,78.5c0.2,0,0.9,0,1,0s0.3,0.1,0,0.1c-0.3,0-0.8,0-0.9,0L70.9,78.5z"/>
					<path class="st1" d="M71.2,79c0.1,0,0.4,0,0.5,0s0.1,0.1,0,0.1c-0.1,0-0.3,0.1-0.4,0.1L71.2,79z"/>
					<path class="st1" d="M75.2,78.4c0.1,0,0.9,0,1.1,0v0.1c-0.3,0-0.9,0.1-1,0.1L75.2,78.4z"/>
					<path class="st1" d="M79.2,78.3c0.2,0,0.6,0,0.8,0v0.1c-0.2,0-0.6,0-0.7,0L79.2,78.3z"/>
					<path class="st1" d="M81.9,78.3c0.2,0,0.8,0,0.9,0v0.1c-0.3,0-0.6,0-0.8,0L81.9,78.3z"/>
					<path class="st1" d="M87.3,79.3c-0.3,0-0.8,0.1-0.9,0.1c-0.1,0-0.2,0.2,0.1,0.1c0.2,0,0.7-0.1,1-0.1L87.3,79.3z"/>
					<path class="st1" d="M64.6,79.4c0.3,0,1,0.1,1.4,0.1l0.4-0.2c-0.2,0-1.2-0.1-1.6-0.1L64.6,79.4z"/>
					<path class="st1" d="M64.9,78.9l-0.1,0.2c0.5-0.1,1.4-0.1,1.9,0.1l0.2-0.1C66.5,78.8,65.4,78.8,64.9,78.9z"/>
					<path class="st1" d="M65.2,78.4L65,78.7c0.6-0.1,1.7-0.3,2.3-0.1l0.1-0.1C66.9,78.2,65.7,78.4,65.2,78.4z"/>
					<path class="st1" d="M68,83.4c-0.1,0,0-0.1,0.2-0.2c0.7-0.3,1.5-0.1,1.9-0.1c0.4,0.1,0.4,0.2,0.2,0.2c0.5,0,0.9,0,1.3,0
						c-0.3,0-0.6-0.1-1.3-0.3c-0.9-0.3-2.1-0.1-2.5,0c-0.3,0.1-0.7,0.2-1.1,0.1C67.2,83.3,67.6,83.4,68,83.4z"/>
					<path class="st1" d="M86.4,77.7c-0.7,0-2.5,0.1-3.2,0.1c-0.7,0-3.9,0.1-4.7,0c-0.8,0-4.6,0.1-5.7,0.1c-1.1,0-6.3-0.1-7.3-0.1
						l-0.1,0.3c0.6,0,3.5,0,4.5,0c1.1,0,3.8,0,4.7,0c0.9,0,3.1-0.1,3.6-0.1c0.4,0,3.6,0,4.1,0c0.6,0,2.6-0.1,4.3-0.1L86.4,77.7z"/>
					<path class="st1" d="M86.6,78.1c-0.6,0-1.4,0.1-1.5,0.1c-0.1,0-0.3,0.1,0.1,0.1c0.3,0,1.2,0,1.6,0L86.6,78.1z"/>
					<path class="st1" d="M86.8,78.5c-0.4,0-1.3,0-1.4,0.1c-0.1,0-0.2,0.2,0,0.1c0.2-0.1,1.1-0.1,1.5-0.1L86.8,78.5z"/>
					<path class="st1" d="M87.1,78.9C86.7,79,86,79,85.9,79c-0.1,0-0.3,0.1,0,0.1c0.2,0,1-0.1,1.3-0.1L87.1,78.9z"/>
					<path class="st1" d="M88.9,82c-0.4,0-0.9-0.1-1.1-0.1c-0.2-0.1-0.4-0.1-0.1,0.1c0.3,0.2,1,0.3,1.3,0.3L88.9,82z"/>
					<path class="st1" d="M89.2,82.5c-0.4,0-1.3-0.1-1.9-0.4c-0.7-0.3-1.6-0.2-2.4-0.1c-1.4,0.2-2.2,0.1-3.4-0.2
						c-1.2-0.3-2.8-0.2-3.3,0c-0.5,0.2-0.4,0.3,0.1,0.2s1.9-0.3,3.1,0c1.1,0.3,2.3,0.4,3,0.3c0.7-0.1,1.3-0.1,1.6-0.1
						c0.3,0,0.3,0.1,0,0.1c-2.1,0.3-3,0.4-4.3,0c-1.2-0.4-2.4-0.2-3.2-0.1c-0.8,0.1-1.6,0.1-2.4-0.2c-0.8-0.3-1.4-0.4-1.8-0.2
						c-0.2,0.1-0.2,0.1,0.1,0.1c0.3,0,1.1,0,1.7,0.3c0.7,0.3,1.7,0.4,2.6,0.3s2-0.3,3,0.1c1,0.4,2.1,0.3,3.1,0.2
						c1-0.1,1.6-0.3,2.4-0.1c0.7,0.2,1.6,0.2,2,0.2L89.2,82.5z"/>
					<path class="st1" d="M89.5,82.9c-0.4,0.1-1.6,0-2.1-0.1c-0.5-0.1-1.4,0-2.7,0.2c-1.3,0.2-2.6-0.2-3.3-0.3
						c-0.7-0.2-1.6-0.2-2.2-0.1c-0.6,0.1-1.6,0.2-3.1-0.2c-1.8-0.5-2.7-0.3-3.2-0.2s-1.4,0.1-2.4-0.1c-1-0.3-1.9-0.2-2.5,0
						c-0.6,0.2-1.6,0.3-2.4,0c-0.8-0.2-1.8-0.2-2.4-0.2L63,82.1c0.5-0.1,1.8-0.1,2.5,0.2c0.9,0.4,2.1,0.2,2.5,0.1
						c0.9-0.3,1.5-0.2,2.4,0c0.6,0.2,1.8,0.2,2.6,0c1.3-0.3,2-0.1,3,0.2c1,0.3,2.4,0.4,3.2,0.3c0.8-0.1,1.4-0.2,2.4,0.1
						c0.9,0.3,2.2,0.5,3.3,0.2c1.1-0.3,2.1-0.3,2.6-0.2c0.5,0.1,1.4,0.2,2.1,0.1L89.5,82.9z"/>
					<path class="st1" d="M89.7,83.3c-0.3,0.1-1.1,0.1-1.8,0c-1.2-0.1-2-0.1-2.8,0.1c-1.1,0.3-1.8,0.2-2.7,0
						c-0.9-0.2-1.8-0.3-2.9-0.2c-1.1,0.1-2.6-0.1-3.8-0.4c-1.2-0.3-2.2-0.2-3,0c-0.9,0.2-2.2,0-2.7-0.2c-0.4-0.2-1.1-0.2-1.9,0
						c-0.9,0.2-1.6,0.1-2.5-0.1c-0.8-0.2-1.9-0.3-2.6-0.2l-0.1,0.1c0.6-0.1,2-0.1,2.8,0.2c0.9,0.4,2,0.2,2.5,0.1
						c0.5-0.1,1.5-0.1,1.9,0.1c0.9,0.4,2.3,0.4,2.8,0.2c1.1-0.3,2-0.3,2.9,0c1,0.3,2.7,0.5,3.9,0.3c0.7-0.1,1.9-0.1,2.8,0.2
						c0.9,0.3,1.8,0.3,2.9,0c1-0.3,2.1-0.2,2.8-0.1c0.6,0.1,1.1,0.1,1.8,0.1L89.7,83.3z"/>
					<path class="st1" d="M89.9,83.7c-0.4,0-1.5,0-2,0c-0.5-0.1-1.4-0.2-2.4,0.1c-1,0.3-2.4,0.2-3.1,0c-0.8-0.3-1.8-0.4-2.7-0.2
						c-0.9,0.1-2.1,0.2-3.4-0.2c-1.4-0.4-1.9-0.5-3.4-0.1c-0.6,0.2-3.6,0.1-4.4,0.2c-0.9,0-1.9-0.3-2.5-0.5
						c-0.6-0.2-2.2-0.4-3.3-0.2l-0.1,0.2c1.1-0.2,2.4,0,3,0.3c-0.7-0.2-2.3-0.1-3.2,0.1l-0.2,0.3c1.4-0.3,3.4-0.2,4.2-0.1
						c0.9,0.2,2.2,0.3,3.1,0.1c0.9-0.2,2.2,0.1,3.1,0.4h3.9c-0.6-0.4-1.3-0.1-1.9-0.1c-0.6,0.1-1.1-0.1-1.4-0.2
						c-0.3-0.2,0-0.1,0.4-0.3C75,83,76,83.5,76.7,84h3.1c0.8-0.6,1.6-0.3,2-0.1c0.1,0,0.4,0.1,0.6,0.1h3.2c0.8-0.3,1.8-0.2,2.3-0.1
						c0.5,0.1,1.1,0.1,2.1,0L89.9,83.7z"/>
				</g>
				<path class="st8" d="M87.7,80c-2,0-2.8-1.2-3.6-2.4c-0.4,0-0.9,0.1-1.3,0.1c-0.1,0.2-0.3,0.8-0.4,1.3c-0.4-0.3-0.9-1.2-1.1-1.7
					c-0.2,0-0.6,0-1,0c-0.1,0.3-0.5,1.2-0.7,1.5c-0.3-0.3-1.1-1.4-1.4-1.9c-0.4,0-0.9,0.1-1.3,0.1c-0.2,0.6-0.7,1.6-1.2,2.2
					c-0.4-0.4-1.2-1.9-1.5-2.5c-0.3,0-0.8,0.1-1.1,0.1c-0.3,0.5-1,2.1-1.5,2.9c-0.7-0.8-1.7-2.4-2.3-3.4l-0.9,0.1
					c-1.1,3.1-3.1,3.6-4.2,3.7l-0.9,1.5c0.4,0,1.2,0.1,1.8,0.3c0.6,0.2,1.8,0.4,2.7,0s1.9-0.3,2.9-0.1c0.9,0.2,2.6,0.3,4-0.4
					c1.8,0.9,2.9,0.4,3.8,0.2c0.9-0.2,2.1-0.3,3,0c1.2,0.4,2.8,0.4,4,0.1c1.4-0.4,2.2,0.4,3.3,0.4L87.7,80z"/>
				<g>
					<path class="st12" d="M68.5,76.2c0.1,1.7,1,3.4,3.4,5.5c0.1,0,0.4,0,0.5,0c-0.6-0.6-2.1-2.2-2.6-2.9c0-0.1,0-0.3,0-0.4
						c1.3,1.5,2.3,2.6,3.5,3.2c0.2,0,0.5-0.1,0.7-0.2c-2.1-1.1-3.2-2.6-4.7-5.3C69.1,76.1,68.8,76.2,68.5,76.2z"/>
					<path class="st12" d="M77.4,76.9c-0.4,1.1-0.8,2.1-1.4,2.6c0.1,0.1,0.3,0.2,0.4,0.4c0.3-0.2,0.6-0.6,0.7-0.7
						c0.1,0.1,0.2,0.4-0.2,1.1c0.5,0.4,1.5,0.9,2.1,1.1c-0.6,0.1-1.2,0.3-1.5,0.3c-1.2-0.9-2.1-1.4-3.1-3c-0.1,0.6,0,0.9,0.4,1.3
						c0.4,0.4,1,1.1,2.1,1.7c-0.7,0-1.4-0.1-2.1-0.5c-0.4-0.8-1.4-2.4-1.5-4.5c0.3,0,0.8-0.1,1.1-0.1c0.3,0.7,1,2,1.5,2.5
						c0.4-0.4,0.9-1.3,1.2-2.2C77.1,76.9,77.4,76.9,77.4,76.9z"/>
					<path class="st12" d="M80.6,77.2c-0.1,0.5-0.5,1.4-0.7,1.8c-0.1-0.1-0.2-0.2-0.3-0.3l0.7-1.5C80.4,77.2,80.6,77.2,80.6,77.2z"
						/>
					<path class="st12" d="M80,79.4c0.1,0.1,0.3,0.2,0.4,0.2c0.2-0.3,0.3-0.6,0.2-1.1C80.3,78.7,80.3,79.2,80,79.4z"/>
					<path class="st12" d="M82.4,78.9c0.1,0.1,0.2,0.2,0.3,0.2c0.2-0.5,0.4-1.2,0.5-1.5c-0.1,0-0.2,0-0.3,0
						C82.7,78.1,82.5,78.7,82.4,78.9z"/>
				</g>
				<polygon class="st13" points="90.1,84 76,60.2 61.9,84 				"/>
			</g>
		</g>
	</g>
</g>
<circle class="st14" cx="76" cy="76" r="75"/>
</svg>
