<?xml version="1.0" encoding="utf-8"?>
<!-- Generator: Adobe Illustrator 24.2.3, SVG Export Plug-In . SVG Version: 6.00 Build 0)  -->
<svg version="1.1" id="Capa_1" xmlns:serif="http://www.serif.com/"
	 xmlns="http://www.w3.org/2000/svg" xmlns:xlink="http://www.w3.org/1999/xlink" x="0px" y="0px" viewBox="0 0 152 152"
	 style="enable-background:new 0 0 152 152;" xml:space="preserve">
<style type="text/css">
	.st0{clip-path:url(#SVGID_2_);}
	.st1{fill-rule:evenodd;clip-rule:evenodd;fill:#205CA4;}
	.st2{fill-rule:evenodd;clip-rule:evenodd;fill:#DC3539;}
	
		.st3{fill-rule:evenodd;clip-rule:evenodd;fill:#FDFDFF;stroke:#1D1D1B;stroke-width:0.7538;stroke-linecap:round;stroke-linejoin:round;stroke-miterlimit:10;}
	.st4{fill-rule:evenodd;clip-rule:evenodd;fill:#FDFDFF;}
	.st5{fill:none;stroke:#1D1D1B;stroke-width:0.7538;stroke-linecap:round;stroke-linejoin:round;stroke-miterlimit:10;}
	.st6{fill:none;stroke:#515151;stroke-width:2;stroke-linecap:square;stroke-miterlimit:1.5;}
</style>
<g>
	<g>
		<g>
			<defs>
				<circle id="SVGID_1_" cx="76" cy="76" r="75"/>
			</defs>
			<clipPath id="SVGID_2_">
				<use xlink:href="#SVGID_1_"  style="overflow:visible;"/>
			</clipPath>
			<g class="st0">
				<rect x="-36.5" y="1.1" class="st1" width="225" height="37.5"/>
				<rect x="-36.5" y="113.7" class="st1" width="225" height="37.5"/>
				<rect x="-36.5" y="38.7" class="st2" width="225" height="75"/>
				<path class="st3" d="M118.2,92c-0.6-0.3-1.6-1.4-1.9-2.3c0,0,0-5.6,0-7.4c0-1.8,0.9-2.9,1.9-3.3v-7.8c-0.2,0.6-1.6,0.4-1.6,1.7
					H35.4c0-1.3-1.4-1.1-1.6-1.7V79c1,0.4,1.9,1.5,1.9,3.3s0,7.4,0,7.4c-0.3,0.9-1.3,1.9-1.9,2.3L118.2,92L118.2,92z"/>
				<rect x="32" y="92" class="st3" width="87.9" height="2.1"/>
				<rect x="30.2" y="94.1" class="st3" width="91.5" height="3.1"/>
				<rect x="27.8" y="97.2" class="st3" width="96.4" height="3.6"/>
				<rect x="25.1" y="100.7" class="st3" width="101.8" height="4.3"/>
				<rect x="21.9" y="105" class="st3" width="108.1" height="4.4"/>
				<path class="st4" d="M74.3,89.7H35.6H74.3z"/>
				<line class="st5" x1="74.3" y1="89.7" x2="35.6" y2="89.7"/>
				<path class="st4" d="M51.2,78.3c0-1.1,0-11.2,0-11.7c0-0.5-0.1-0.7-0.5-0.6c-0.6,0.2-1,0.8-1.3,1.4c-0.3,0.6-1.1,0.3-1.1-0.1
					c0-1.7,1-1.2,1-2.6c0-0.5-0.4-0.3-0.9,0C48,65.1,48,64.4,48,63.9c0-0.8,0.6-0.6,0.6-1.6c0-0.6-0.6-0.3-0.9,0.1
					c-0.3,0.3-0.6,0.2-0.6-0.6c0-0.8,0.8-0.9,0.8-1.6c0-0.5-0.4-0.3-0.6,0c-0.2,0.3-0.9,0.3-0.8-0.1c0.3-1.3-0.4-2.7-0.9-3.1
					c-0.5-0.4-0.6-0.8-0.6-1.1c0-0.4-0.1-0.6-0.3-0.6c-0.3,0-0.3,0.2-0.3,0.6c0,0.4-0.1,0.7-0.6,1.1c-0.6,0.4-1.2,1.8-0.9,3.1
					c0.1,0.4-0.5,0.4-0.8,0.1c-0.2-0.4-0.6-0.5-0.6,0c0,0.7,0.8,0.8,0.8,1.6c0,0.8-0.2,0.9-0.6,0.6c-0.3-0.4-0.9-0.7-0.9-0.1
					c0,1.1,0.6,0.8,0.6,1.6c0,0.6,0,1.2-0.5,0.9c-0.5-0.4-0.9-0.5-0.9,0c0,1.4,1,0.9,1,2.6c0,0.4-0.7,0.6-1,0.1
					c-0.3-0.6-0.7-1.2-1.3-1.4c-0.4-0.1-0.5,0.1-0.5,0.6c0,0.5,0,10.6,0,11.7H51.2z"/>
				<path class="st5" d="M51.2,78.3c0-1.1,0-11.2,0-11.7c0-0.5-0.1-0.7-0.5-0.6c-0.6,0.2-1,0.8-1.3,1.4c-0.3,0.6-1.1,0.3-1.1-0.1
					c0-1.7,1-1.2,1-2.6c0-0.5-0.4-0.3-0.9,0C48,65.1,48,64.4,48,63.9c0-0.8,0.6-0.6,0.6-1.6c0-0.6-0.6-0.3-0.9,0.1
					c-0.3,0.3-0.6,0.2-0.6-0.6c0-0.8,0.8-0.9,0.8-1.6c0-0.5-0.4-0.3-0.6,0c-0.2,0.3-0.9,0.3-0.8-0.1c0.3-1.3-0.4-2.7-0.9-3.1
					c-0.5-0.4-0.6-0.8-0.6-1.1c0-0.4-0.1-0.6-0.3-0.6c-0.3,0-0.3,0.2-0.3,0.6c0,0.4-0.1,0.7-0.6,1.1c-0.6,0.4-1.2,1.8-0.9,3.1
					c0.1,0.4-0.5,0.4-0.8,0.1c-0.2-0.4-0.6-0.5-0.6,0c0,0.7,0.8,0.8,0.8,1.6c0,0.8-0.2,0.9-0.6,0.6c-0.3-0.4-0.9-0.7-0.9-0.1
					c0,1.1,0.6,0.8,0.6,1.6c0,0.6,0,1.2-0.5,0.9c-0.5-0.4-0.9-0.5-0.9,0c0,1.4,1,0.9,1,2.6c0,0.4-0.7,0.6-1,0.1
					c-0.3-0.6-0.7-1.2-1.3-1.4c-0.4-0.1-0.5,0.1-0.5,0.6c0,0.5,0,10.6,0,11.7H51.2z"/>
				<rect x="42.9" y="79.3" class="st3" width="3.7" height="12.7"/>
				<rect x="41.4" y="92" class="st3" width="6.6" height="17.5"/>
				<rect x="42.9" y="92" class="st3" width="3.7" height="17.5"/>
				<path class="st5" d="M40.8,79.3c0.8,0.7,1.1,1.2,1.1,2.4c0,1.3,0,7.6,0,8.1c0,0.5-0.6,2.3-1.9,2.3"/>
				<path class="st5" d="M37.9,92c1.8,0,2.1-1.4,2.1-2.3c0-1.1,0-8.3,0-9.4s-1.1-1.8-1.9-1.9h-2.8"/>
				<path class="st5" d="M48.7,79.3c-0.8,0.7-1.1,1.2-1.1,2.4c0,1.3,0,7.6,0,8.1c0,0.5,0.6,2.3,1.9,2.3"/>
				<path class="st5" d="M51.2,78.3c-0.8,0.1-1.9,0.8-1.9,1.9s0,8.4,0,9.4c0,0.9,0.4,2.3,2.1,2.3"/>
				<path class="st5" d="M35.4,72.8v5.5c0.6,0,1.1,0.7,1.1,1.8c0,1.1,0,9.1,0,9.5c0,0.8-0.6,2.3-1.9,2.3"/>
				<path class="st3" d="M38.2,78.3c0-1.4-1.4-3.4-2.8-3.4v-6.1h1.2v5.5c0.2,0,0.3,0.2,0.4,0.3v-3.1h1.3V78.3z"/>
				<rect x="36.9" y="69.8" class="st3" width="1.3" height="1.1"/>
				<polyline class="st5" points="54.1,72.8 54.1,78.3 51.2,78.3 				"/>
				<path class="st5" d="M51.2,78.3c0-2.4,1.9-3.4,2.9-3.4"/>
				<path class="st3" d="M53.3,72v3.1c0.3-0.1,0.6-0.1,0.8-0.1V72H53.3z"/>
				<line class="st5" x1="54.1" y1="73.5" x2="64.6" y2="73.5"/>
				<line class="st5" x1="54.1" y1="75.9" x2="64.6" y2="75.9"/>
				<line class="st5" x1="54.1" y1="77.1" x2="61.9" y2="77.1"/>
				<path class="st5" d="M65.8,79.3c-0.6,0-11,0-11.7,0c-0.7,0-0.8,0.3-0.8,0.7c0,0.7,0,8.6,0,9.7c0,0.8,0.7,2.3,2.1,2.3"/>
				<line class="st5" x1="53.3" y1="81.5" x2="66" y2="81.5"/>
				<path class="st5" d="M37.8,89.7v-6.5c0-0.1,0.1-0.2,0.2-0.2h1c0.1,0,0.2,0.1,0.2,0.2v6.5"/>
				<line class="st5" x1="54.1" y1="78.3" x2="64.6" y2="78.3"/>
				<path class="st5" d="M50.6,89.7v-6.5c0-0.1,0.1-0.2,0.2-0.2h1c0.1,0,0.2,0.1,0.2,0.2v6.5"/>
				<path class="st5" d="M53.3,83h0.9c0.1,0,0.2,0.1,0.2,0.2v6.5"/>
				<path class="st5" d="M57.4,89.7v-6.5c0-0.1-0.1-0.2-0.2-0.2h-1c-0.1,0-0.2,0.1-0.2,0.2v6.5"/>
				<path class="st5" d="M60.4,89.7v-6.5c0-0.1-0.1-0.2-0.2-0.2h-1c-0.1,0-0.2,0.1-0.2,0.2v6.5"/>
				<path class="st5" d="M63.4,89.7v-6.5c0-0.1-0.1-0.2-0.2-0.2h-1c-0.1,0-0.2,0.1-0.2,0.2v6.5"/>
				<path class="st5" d="M65.1,89.7v-6.5c0-0.1,0.1-0.2,0.2-0.2h0.8"/>
				<path class="st4" d="M77.7,89.7h38.6H77.7z"/>
				<line class="st5" x1="77.7" y1="89.7" x2="116.3" y2="89.7"/>
				<path class="st4" d="M100.7,78.3c0-1.1,0-11.2,0-11.7c0-0.5,0.1-0.7,0.5-0.6c0.6,0.2,1,0.8,1.3,1.4c0.3,0.6,1,0.3,1-0.1
					c0-1.7-1-1.2-1-2.6c0-0.5,0.4-0.3,0.9,0c0.5,0.3,0.5-0.3,0.5-0.9c0-0.8-0.6-0.6-0.6-1.6c0-0.6,0.6-0.3,0.9,0.1
					c0.3,0.3,0.6,0.2,0.6-0.6c0-0.8-0.8-0.9-0.8-1.6c0-0.5,0.4-0.3,0.6,0c0.3,0.3,0.9,0.3,0.8-0.1c-0.3-1.3,0.4-2.7,0.9-3.1
					c0.5-0.4,0.6-0.8,0.6-1.1c0-0.4,0.1-0.6,0.3-0.6c0.3,0,0.3,0.2,0.3,0.6c0,0.4,0.1,0.7,0.6,1.1c0.6,0.4,1.2,1.8,0.9,3.1
					c-0.1,0.4,0.5,0.4,0.8,0.1c0.2-0.4,0.6-0.5,0.6,0c0,0.7-0.8,0.8-0.8,1.6c0,0.8,0.2,0.9,0.6,0.6c0.3-0.4,0.9-0.7,0.9-0.1
					c0,1.1-0.6,0.8-0.6,1.6c0,0.6,0,1.2,0.5,0.9c0.5-0.4,0.9-0.5,0.9,0c0,1.4-1,0.9-1,2.6c0,0.4,0.7,0.6,1.1,0.1
					c0.3-0.6,0.7-1.2,1.3-1.4c0.4-0.1,0.5,0.1,0.5,0.6c0,0.5,0,10.6,0,11.7H100.7z"/>
				<path class="st5" d="M100.7,78.3c0-1.1,0-11.2,0-11.7c0-0.5,0.1-0.7,0.5-0.6c0.6,0.2,1,0.8,1.3,1.4c0.3,0.6,1,0.3,1-0.1
					c0-1.7-1-1.2-1-2.6c0-0.5,0.4-0.3,0.9,0c0.5,0.3,0.5-0.3,0.5-0.9c0-0.8-0.6-0.6-0.6-1.6c0-0.6,0.6-0.3,0.9,0.1
					c0.3,0.3,0.6,0.2,0.6-0.6c0-0.8-0.8-0.9-0.8-1.6c0-0.5,0.4-0.3,0.6,0c0.3,0.3,0.9,0.3,0.8-0.1c-0.3-1.3,0.4-2.7,0.9-3.1
					c0.5-0.4,0.6-0.8,0.6-1.1c0-0.4,0.1-0.6,0.3-0.6c0.3,0,0.3,0.2,0.3,0.6c0,0.4,0.1,0.7,0.6,1.1c0.6,0.4,1.2,1.8,0.9,3.1
					c-0.1,0.4,0.5,0.4,0.8,0.1c0.2-0.4,0.6-0.5,0.6,0c0,0.7-0.8,0.8-0.8,1.6c0,0.8,0.2,0.9,0.6,0.6c0.3-0.4,0.9-0.7,0.9-0.1
					c0,1.1-0.6,0.8-0.6,1.6c0,0.6,0,1.2,0.5,0.9c0.5-0.4,0.9-0.5,0.9,0c0,1.4-1,0.9-1,2.6c0,0.4,0.7,0.6,1.1,0.1
					c0.3-0.6,0.7-1.2,1.3-1.4c0.4-0.1,0.5,0.1,0.5,0.6c0,0.5,0,10.6,0,11.7H100.7z"/>
				<rect x="105.4" y="79.3" class="st3" width="3.7" height="12.7"/>
				<rect x="103.9" y="92" class="st3" width="6.6" height="17.5"/>
				<rect x="105.4" y="92" class="st3" width="3.7" height="17.5"/>
				<path class="st5" d="M111.2,79.3c-0.8,0.7-1.1,1.2-1.1,2.4c0,1.3,0,7.6,0,8.1c0,0.5,0.6,2.3,1.9,2.3"/>
				<path class="st5" d="M114,92c-1.8,0-2.1-1.4-2.1-2.3c0-1.1,0-8.3,0-9.4s1.1-1.8,1.9-1.9h2.8"/>
				<path class="st5" d="M103.3,79.3c0.8,0.7,1.1,1.2,1.1,2.4c0,1.3,0,7.6,0,8.1c0,0.5-0.6,2.3-1.9,2.3"/>
				<path class="st5" d="M100.7,78.3c0.8,0.1,1.9,0.8,1.9,1.9s0,8.4,0,9.4c0,0.9-0.4,2.3-2.1,2.3"/>
				<path class="st5" d="M116.6,72.8v5.5c-0.6,0-1.1,0.7-1.1,1.8c0,1.1,0,9.1,0,9.5c0,0.8,0.6,2.3,1.9,2.3"/>
				<path class="st3" d="M113.8,78.3c0-1.4,1.4-3.4,2.8-3.4v-6.1h-1.2v5.5c-0.2,0-0.3,0.2-0.4,0.3v-3.1h-1.3V78.3z"/>
				<rect x="113.8" y="69.8" class="st3" width="1.3" height="1.1"/>
				<polyline class="st5" points="97.9,72.8 97.9,78.3 100.7,78.3 				"/>
				<path class="st5" d="M100.7,78.3c0-2.4-1.9-3.4-2.8-3.4"/>
				<path class="st3" d="M98.7,72v3.1c-0.3-0.1-0.5-0.1-0.8-0.1V72H98.7z"/>
				<line class="st5" x1="97.9" y1="73.5" x2="87.3" y2="73.5"/>
				<line class="st5" x1="97.9" y1="75.9" x2="87.3" y2="75.9"/>
				<line class="st5" x1="95.3" y1="77.1" x2="87.4" y2="77.1"/>
				<path class="st5" d="M86.2,79.3c0.6,0,11,0,11.7,0c0.7,0,0.7,0.3,0.7,0.7c0,0.7,0,8.6,0,9.7c0,0.8-0.7,2.3-2.1,2.3"/>
				<line class="st5" x1="98.7" y1="81.5" x2="85.9" y2="81.5"/>
				<path class="st5" d="M114.2,89.7v-6.5c0-0.1-0.1-0.2-0.2-0.2h-1c-0.1,0-0.2,0.1-0.2,0.2v6.5"/>
				<line class="st5" x1="97.9" y1="78.3" x2="87.3" y2="78.3"/>
				<path class="st5" d="M101.4,89.7v-6.5c0-0.1-0.1-0.2-0.2-0.2h-1c-0.1,0-0.2,0.1-0.2,0.2v6.5"/>
				<path class="st5" d="M98.7,83h-0.9c-0.1,0-0.2,0.1-0.2,0.2v6.5"/>
				<path class="st5" d="M94.6,89.7v-6.5c0-0.1,0.1-0.2,0.2-0.2h1c0.1,0,0.2,0.1,0.2,0.2v6.5"/>
				<path class="st5" d="M91.6,89.7v-6.5c0-0.1,0.1-0.2,0.2-0.2h1c0.1,0,0.2,0.1,0.2,0.2v6.5"/>
				<path class="st5" d="M88.6,89.7v-6.5c0-0.1,0.1-0.2,0.2-0.2h1c0.1,0,0.2,0.1,0.2,0.2v6.5"/>
				<path class="st5" d="M86.9,89.7v-6.5c0-0.1-0.1-0.2-0.2-0.2h-0.8"/>
				<path class="st3" d="M87.4,78.5v-11c0,0.2-1.4,0.9-1.4,1.4h-1.9c0-0.4,0-0.9,0-1.3c0.4,0,0.8-0.4,0.9-0.6c0-0.1-0.1-0.2-0.2-0.1
					c-0.1,0.1-0.9,0.4-1,0.2c-0.1-0.1-0.1-0.1,0.2-0.3c0.2-0.1,1-0.7,1.1-0.8c0.3-0.2-0.2-0.8-0.4-0.6c-0.3,0.2-0.6,0.4-0.9,0.6
					c-0.2,0.1-0.5,0.3-0.6,0c-0.1-0.4-0.5-0.7-1-0.7H69.7c-0.5,0-0.9,0.3-1,0.7c-0.1,0.3-0.4,0.1-0.6,0c-0.3-0.2-0.6-0.4-0.9-0.6
					c-0.2-0.1-0.7,0.4-0.4,0.6c0.1,0.1,0.9,0.6,1.1,0.8c0.3,0.2,0.3,0.2,0.2,0.3c-0.1,0.2-0.9-0.1-1-0.2c-0.1-0.1-0.2,0-0.2,0.1
					c0.1,0.3,0.5,0.6,0.9,0.6c0,0.4,0,0.9,0,1.3h-1.9c0-0.6-1.2-1.2-1.2-1.4v11L87.4,78.5L87.4,78.5z"/>
				<path class="st4" d="M79.4,48.2c0,0.7-0.3,0.7-0.3,1.3c0,0.6,0.6,0.5,0.8,0.1c0.1-0.1,0.6-0.2,0.6,0.4c0,0.6-0.7,1-0.7,1.8
					c0,0.6,0.4,0.5,0.6,0.1c0.2-0.4,1.1-1.1,1.1,0c0,0.3,0.1,0.9-0.3,1.4c-0.4,0.5-0.4,0.8-0.4,1.2c0,0.4,0.3,0.8,0.7-0.1
					c0.1-0.3,1-0.9,1,0.1c0,0.4,0,0.9,0,1.2c0,0.6-0.8,0.8-0.8,1.4c0,0.2,0,0.7,0,1s0.3,0.6,0.4,0.2c0.3-0.6,1.3-1.1,1.3-0.2
					c0,0.2,0,0.7,0,0.9c0,0.2,0.1,0.4-0.5,0.9c-0.6,0.5-1,1.2-1,1.6s0,0.7,0,0.9s0.4,0.5,0.7-0.2c0.4-0.7,0.8-0.4,0.8,0.1
					c0,0.5,0.1,0.9-0.5,1.4s-0.6,0.9-0.6,1.4c0,0.5,0,2.2,0,2.6c0,0.4,0.1,0.6-0.3,0.6H70c-0.5,0-0.3-0.1-0.3-0.6c0-0.4,0-2.1,0-2.6
					c0-0.5,0.1-0.9-0.6-1.4c-0.6-0.5-0.5-0.9-0.5-1.4c0-0.5,0.4-0.8,0.8-0.1c0.4,0.7,0.7,0.4,0.7,0.2s0-0.5,0-0.9
					c0-0.4-0.4-1.1-1-1.6c-0.6-0.4-0.5-0.6-0.5-0.9c0-0.2,0-0.7,0-0.9c0-0.9,1-0.4,1.3,0.2c0.1,0.4,0.4,0.1,0.4-0.2s0-0.7,0-1
					c0-0.5-0.8-0.8-0.8-1.4c0-0.3,0-0.8,0-1.2c0-1,0.9-0.4,1-0.1c0.4,0.8,0.7,0.5,0.7,0.1c0-0.4,0.1-0.8-0.4-1.2
					c-0.5-0.5-0.3-1.1-0.3-1.4c0-1.1,0.9-0.4,1.1,0c0.2,0.4,0.6,0.5,0.6-0.1c0-0.8-0.7-1.2-0.7-1.8c0-0.6,0.5-0.6,0.6-0.4
					c0.1,0.4,0.8,0.4,0.8-0.1c0-0.6-0.3-0.6-0.3-1.3H79.4z"/>
				<path class="st5" d="M79.4,48.2c0,0.7-0.3,0.7-0.3,1.3c0,0.6,0.6,0.5,0.8,0.1c0.1-0.1,0.6-0.2,0.6,0.4c0,0.6-0.7,1-0.7,1.8
					c0,0.6,0.4,0.5,0.6,0.1c0.2-0.4,1.1-1.1,1.1,0c0,0.3,0.1,0.9-0.3,1.4c-0.4,0.5-0.4,0.8-0.4,1.2c0,0.4,0.3,0.8,0.7-0.1
					c0.1-0.3,1-0.9,1,0.1c0,0.4,0,0.9,0,1.2c0,0.6-0.8,0.8-0.8,1.4c0,0.2,0,0.7,0,1s0.3,0.6,0.4,0.2c0.3-0.6,1.3-1.1,1.3-0.2
					c0,0.2,0,0.7,0,0.9c0,0.2,0.1,0.4-0.5,0.9c-0.6,0.5-1,1.2-1,1.6s0,0.7,0,0.9s0.4,0.5,0.7-0.2c0.4-0.7,0.8-0.4,0.8,0.1
					c0,0.5,0.1,0.9-0.5,1.4s-0.6,0.9-0.6,1.4c0,0.5,0,2.2,0,2.6c0,0.4,0.1,0.6-0.3,0.6H70c-0.5,0-0.3-0.1-0.3-0.6c0-0.4,0-2.1,0-2.6
					c0-0.5,0.1-0.9-0.6-1.4c-0.6-0.5-0.5-0.9-0.5-1.4c0-0.5,0.4-0.8,0.8-0.1c0.4,0.7,0.7,0.4,0.7,0.2s0-0.5,0-0.9
					c0-0.4-0.4-1.1-1-1.6c-0.6-0.4-0.5-0.6-0.5-0.9c0-0.2,0-0.7,0-0.9c0-0.9,1-0.4,1.3,0.2c0.1,0.4,0.4,0.1,0.4-0.2s0-0.7,0-1
					c0-0.5-0.8-0.8-0.8-1.4c0-0.3,0-0.8,0-1.2c0-1,0.9-0.4,1-0.1c0.4,0.8,0.7,0.5,0.7,0.1c0-0.4,0.1-0.8-0.4-1.2
					c-0.5-0.5-0.3-1.1-0.3-1.4c0-1.1,0.9-0.4,1.1,0c0.2,0.4,0.6,0.5,0.6-0.1c0-0.8-0.7-1.2-0.7-1.8c0-0.6,0.5-0.6,0.6-0.4
					c0.1,0.4,0.8,0.4,0.8-0.1c0-0.6-0.3-0.6-0.3-1.3H79.4z"/>
				<path class="st4" d="M79.5,50.5h-7H79.5z"/>
				<line class="st5" x1="79.5" y1="50.5" x2="72.5" y2="50.5"/>
				<path class="st4" d="M80.4,52.9h-8.8H80.4z"/>
				<line class="st5" x1="80.4" y1="52.9" x2="71.6" y2="52.9"/>
				<path class="st4" d="M81.4,55.6H70.6H81.4z"/>
				<line class="st5" x1="81.4" y1="55.6" x2="70.6" y2="55.6"/>
				<path class="st4" d="M81.9,59.4H70.1H81.9z"/>
				<line class="st5" x1="81.9" y1="59.4" x2="70.1" y2="59.4"/>
				<path class="st4" d="M81.7,63.4H70.3H81.7z"/>
				<line class="st5" x1="81.7" y1="63.4" x2="70.3" y2="63.4"/>
				<rect x="72.3" y="74.9" class="st3" width="7.4" height="4.2"/>
				<path class="st3" d="M66.8,65.9c0.3,0.2,0.6-0.5,0.4-0.6C67,65.2,66.6,65.7,66.8,65.9L66.8,65.9z"/>
				<path class="st3" d="M85.1,65.9c-0.3,0.2-0.6-0.5-0.4-0.6C85,65.2,85.4,65.7,85.1,65.9L85.1,65.9z"/>
				<line class="st5" x1="65.9" y1="68.9" x2="65.9" y2="75.7"/>
				<path class="st5" d="M72.3,77.1h-5.7c-0.1-0.5-0.5-1.9-2-1.9"/>
				<line class="st5" x1="65.9" y1="74.9" x2="71.6" y2="74.9"/>
				<line class="st5" x1="67" y1="68.9" x2="67" y2="73.3"/>
				<path class="st5" d="M68.7,66.4v7.4c0.7,0.4,1.8,1.5,1.8,2.2c0.5,0.1,1.2,0.1,1.8,0.2"/>
				<line class="st5" x1="68.7" y1="73.9" x2="71.6" y2="73.9"/>
				<path class="st5" d="M68.7,71.8c0.7,0.2,1.7,0.7,2,2"/>
				<rect x="73.3" y="92" class="st3" width="5.4" height="17.5"/>
				<rect x="74.3" y="92" class="st3" width="3.4" height="17.5"/>
				<rect x="74.3" y="79.1" class="st3" width="3.4" height="12.8"/>
				<path class="st5" d="M72.3,79.1c0.6,0.3,0.8,0.8,0.8,2.1c0,0.6,0,7.8,0,8.5c0,0.9-0.9,2.3-1.7,2.3"/>
				<path class="st5" d="M64.6,78.5c1.4,0.4,1.4,1.3,1.4,2.2c0,0.9,0,8.1,0,9.1c0,0.9-0.9,2.3-2.5,2.3"/>
				<path class="st5" d="M68.3,77.1c0.8,0,2,0.8,2,2.1c0,1.3,0,9.6,0,10.5c0,1-1.3,2.3-2.6,2.3"/>
				<path class="st5" d="M68.9,89.7v-6.5c0-0.1,0.1-0.2,0.2-0.2h1.2"/>
				<path class="st5" d="M71.6,89.7v-6.5c0-0.1,0.1-0.2,0.2-0.2h0.3"/>
				<line class="st5" x1="86.1" y1="68.9" x2="86.1" y2="75.7"/>
				<path class="st5" d="M79.7,77.1h5.7c0.1-0.5,0.5-1.9,2-1.9"/>
				<line class="st5" x1="85" y1="68.9" x2="85" y2="73.3"/>
				<path class="st5" d="M83.3,66.4v7.4c-0.7,0.4-1.8,1.5-1.8,2.2c-0.5,0.1-1.2,0.1-1.8,0.2"/>
				<line class="st5" x1="83.3" y1="73.9" x2="80.4" y2="73.9"/>
				<path class="st5" d="M83.3,71.8c-0.7,0.2-1.7,0.7-2,2"/>
				<path class="st5" d="M79.7,79.1c-0.6,0.3-0.7,0.8-0.7,2.1c0,0.6,0,7.8,0,8.5c0,0.9,0.9,2.3,1.7,2.3"/>
				<path class="st5" d="M83.7,77.1c-0.8,0-2,0.8-2,2.1c0,1.3,0,9.6,0,10.5c0,1,1.3,2.3,2.6,2.3"/>
				<path class="st5" d="M83,89.7v-6.5c0-0.1-0.1-0.2-0.2-0.2h-1.2"/>
				<path class="st5" d="M80.3,89.7v-6.5c0-0.1-0.1-0.2-0.2-0.2h-0.3"/>
				<path class="st5" d="M87.4,78.5c-1.4,0.4-1.4,1.3-1.4,2.2c0,0.9,0,8.1,0,9.1c0,0.9,0.9,2.3,2.5,2.3"/>
				<path class="st3" d="M79.4,48.2c0.6,0,0.6-1.4,0-1.4h-6.8c-0.6,0-0.6,1.4,0,1.4H79.4z"/>
				<path class="st3" d="M78.6,46.8c0.4,0,0.4-0.2,0.1-0.6c-0.3-0.4-0.3-0.5-0.9-0.5h-3.7c-0.6,0-0.5,0.1-0.9,0.5
					c-0.3,0.4-0.3,0.6,0.1,0.6H78.6z"/>
				<path class="st3" d="M77.9,45.8c0.4,0,0.4-0.2,0.1-0.6c-0.3-0.4-0.3-0.5-0.9-0.5h-2.3c-0.6,0-0.5,0.1-0.9,0.5
					c-0.3,0.4-0.3,0.6,0.1,0.6H77.9z"/>
				<path class="st3" d="M76.8,44.8c0-0.6,0.1-1.9-0.8-1.9c-1,0-0.8,1.4-0.8,1.9H76.8z"/>
				<path class="st3" d="M45.2,61.1c0.2-0.3,0.6-0.6,0.9-0.7v-1.1c-0.3,0-0.5,0.2-0.6,0.3h-0.1c-0.1-0.2-0.5-0.8-0.7-0.9
					C44.4,59,44,59.5,44,59.7h-0.1c-0.1-0.1-0.3-0.3-0.6-0.3v1.1c0.4,0.1,0.7,0.4,0.9,0.7H45.2z"/>
				<path class="st3" d="M45.6,63.4c0.1-0.5,0.5-0.8,0.9-1v-1.3c-0.3,0-0.6,0.3-0.6,0.5h-0.1c-0.1-0.7-0.6-1.1-0.9-1.4
					c-0.3,0.2-0.9,0.6-0.9,1.4h-0.1c-0.1-0.2-0.3-0.5-0.7-0.5v1.3c0.4,0.2,0.7,0.5,0.9,1H45.6z"/>
				<path class="st3" d="M46,65.6c0.2-0.5,0.7-1,1.2-1.3v-1.2c-0.3,0-0.7,0.4-0.9,0.6h-0.1c-0.1-0.4-0.8-1.6-1.4-1.9
					c-0.6,0.3-1.3,1.4-1.4,1.9h-0.1c-0.1-0.2-0.6-0.6-0.9-0.6v1.2c0.5,0.3,1.1,0.8,1.2,1.3H46z"/>
				<path class="st3" d="M46.5,68.6c0.1-0.6,0.6-1.5,1.2-2v-1.4c-0.4,0-1,0.3-1.1,0.7h-0.1c-0.1-1.2-1-2.1-1.6-2.6
					c-0.6,0.5-1.6,1.4-1.6,2.6h-0.1c-0.1-0.4-0.8-0.7-1.1-0.7v1.4c0.6,0.5,1.1,1.4,1.2,2H46.5z"/>
				<path class="st3" d="M47.3,73.8c0-1.9,0.5-2.7,1.2-2.9v-2.3c-0.6,0.1-1.1,0.6-1.3,1.1H47c-0.1-1.8-1.3-3.5-2.3-4.3
					c-1,0.9-2.2,2.5-2.3,4.3h-0.1c-0.2-0.5-0.8-1.1-1.3-1.1v2.3c0.7,0.1,1.2,1,1.2,2.9H47.3z"/>
				<path class="st4" d="M47.2,76.7c0-0.9,0.4-2.3,1.6-2.5v-2.3c-0.8,0.1-1.5,0.5-1.6,1.6h-0.2c0-1.6-0.9-3.7-2.2-4.6
					c-1.2,0.9-2.2,3-2.2,4.6h-0.2c-0.1-1.1-0.9-1.6-1.6-1.6v2.3c1.1,0.2,1.6,1.6,1.6,2.5H47.2z"/>
				<path class="st5" d="M47.2,76.7c0-0.9,0.4-2.3,1.6-2.5v-2.3c-0.8,0.1-1.5,0.5-1.6,1.6h-0.2c0-1.6-0.9-3.7-2.2-4.6
					c-1.2,0.9-2.2,3-2.2,4.6h-0.2c-0.1-1.1-0.9-1.6-1.6-1.6v2.3c1.1,0.2,1.6,1.6,1.6,2.5H47.2z"/>
				<path class="st3" d="M47.8,78.3c-0.2-2.9-1.9-4.8-3.1-5.6c-1.2,0.9-2.9,2.8-3.1,5.6H47.8z"/>
				<path class="st3" d="M48.7,79.3v-2.7c-1.2,0.2-1.7,1-1.9,1.6h-0.2c-0.1-1.2-1.1-3.1-1.8-3.8C44,75.1,43.1,77,43,78.2h-0.2
					c-0.2-0.6-0.7-1.4-1.9-1.6v2.7H48.7z"/>
				<path class="st3" d="M107.8,61.1c0.2-0.3,0.6-0.6,0.9-0.7v-1.1c-0.3,0-0.5,0.2-0.6,0.3H108c-0.1-0.2-0.5-0.8-0.7-0.9
					c-0.3,0.2-0.7,0.7-0.8,0.9h-0.1c-0.1-0.1-0.3-0.3-0.6-0.3v1.1c0.4,0.1,0.7,0.4,0.9,0.7H107.8z"/>
				<path class="st3" d="M108.1,63.4c0.1-0.5,0.5-0.8,0.9-1v-1.3c-0.3,0-0.6,0.3-0.7,0.5h-0.1c-0.1-0.7-0.6-1.1-0.9-1.4
					c-0.3,0.2-0.9,0.6-0.9,1.4h-0.1c-0.1-0.2-0.3-0.5-0.7-0.5v1.3c0.4,0.2,0.7,0.5,0.9,1H108.1z"/>
				<path class="st3" d="M108.5,65.6c0.2-0.5,0.7-1,1.2-1.3v-1.2c-0.3,0-0.7,0.4-0.9,0.6h-0.1c-0.1-0.4-0.8-1.6-1.4-1.9
					c-0.6,0.3-1.3,1.4-1.4,1.9h-0.1c-0.1-0.2-0.6-0.6-0.9-0.6v1.2c0.5,0.3,1.1,0.8,1.3,1.3H108.5z"/>
				<path class="st3" d="M109,68.6c0.1-0.6,0.6-1.5,1.2-2v-1.4c-0.4,0-1,0.3-1.1,0.7h-0.1c-0.1-1.2-1-2.1-1.6-2.6
					c-0.6,0.5-1.6,1.4-1.6,2.6h-0.1c-0.1-0.4-0.8-0.7-1.1-0.7v1.4c0.6,0.5,1.1,1.4,1.2,2H109z"/>
				<path class="st3" d="M109.8,73.8c0-1.9,0.5-2.7,1.2-2.9v-2.3c-0.6,0.1-1.1,0.6-1.3,1.1h-0.2c-0.1-1.8-1.3-3.5-2.3-4.3
					c-1,0.9-2.2,2.5-2.3,4.3h-0.2c-0.2-0.5-0.7-1.1-1.3-1.1v2.3c0.7,0.1,1.2,1,1.2,2.9H109.8z"/>
				<path class="st4" d="M109.7,76.7c0-0.9,0.4-2.3,1.6-2.5v-2.3c-0.8,0.1-1.5,0.5-1.6,1.6h-0.2c0-1.6-0.9-3.7-2.2-4.6
					c-1.2,0.9-2.2,3-2.2,4.6h-0.2c-0.1-1.1-0.9-1.6-1.6-1.6v2.3c1.1,0.2,1.6,1.6,1.6,2.5H109.7z"/>
				<path class="st5" d="M109.7,76.7c0-0.9,0.4-2.3,1.6-2.5v-2.3c-0.8,0.1-1.5,0.5-1.6,1.6h-0.2c0-1.6-0.9-3.7-2.2-4.6
					c-1.2,0.9-2.2,3-2.2,4.6h-0.2c-0.1-1.1-0.9-1.6-1.6-1.6v2.3c1.1,0.2,1.6,1.6,1.6,2.5H109.7z"/>
				<path class="st3" d="M110.3,78.3c-0.2-2.9-1.9-4.8-3.1-5.6c-1.2,0.9-2.9,2.8-3.1,5.6H110.3z"/>
				<path class="st3" d="M111.2,79.3v-2.7c-1.2,0.2-1.7,1-1.9,1.6H109c-0.1-1.2-1.1-3.1-1.8-3.8c-0.7,0.7-1.6,2.6-1.8,3.8h-0.2
					c-0.2-0.6-0.7-1.4-1.9-1.6v2.7H111.2z"/>
				<path class="st3" d="M76.9,52c0.1-0.4,0.5-0.7,0.8-0.9v-1.4c-0.3,0-0.6,0.3-0.8,0.5h-0.1c-0.1-0.4-0.2-1.2-0.8-1.4
					c-0.6,0.2-0.7,1-0.8,1.4h-0.1c-0.2-0.2-0.5-0.5-0.8-0.5v1.4c0.3,0.2,0.7,0.5,0.8,0.9H76.9z"/>
				<path class="st3" d="M76.9,54.5c0.2-0.7,0.7-1.1,1.4-1.3v-1.5c-0.4,0-0.9,0.3-1.2,0.8H77c0.1-0.8-0.5-1.7-1-1.9
					c-0.5,0.3-1.1,1.1-1,1.9h-0.1c-0.2-0.4-0.7-0.7-1.2-0.8v1.5c0.6,0.1,1.1,0.5,1.4,1.3H76.9z"/>
				<path class="st3" d="M77.2,57.9c0.2-0.8,1-1.4,1.5-1.8V54c-0.9,0.1-1.2,0.7-1.3,1.4h-0.1c0-0.9-0.3-2.2-1.3-2.8
					c-1,0.6-1.3,1.8-1.3,2.8h-0.1c-0.1-0.6-0.4-1.3-1.3-1.4v2.1c0.5,0.3,1.2,1,1.5,1.8L77.2,57.9L77.2,57.9z"/>
				<path class="st3" d="M79.6,60v-2.3c-0.4,0.1-1.5,0.6-1.5,1.4h-0.1C77.8,58,77,56.3,76,55.4c-1.1,0.8-1.9,2.5-1.9,3.7h-0.1
					c-0.1-0.8-1.1-1.4-1.5-1.4V60H79.6z"/>
				<path class="st3" d="M79.6,60c-0.4,0-1.9,0.2-2,2h-3.2c-0.1-1.8-1.6-2-2-2H79.6z"/>
				<path class="st3" d="M79.9,64.1v-2.4c-0.5,0.1-1.2,0.8-1.4,1.5h-0.1c-0.1-1.4-1.6-3.2-2.4-3.8c-0.9,0.6-2.3,2.4-2.4,3.8h-0.1
					c-0.1-0.7-0.9-1.5-1.4-1.5v2.4H79.9z"/>
				<path class="st3" d="M79.9,64.1c-0.7,0-1.4,0.9-1.4,2.3h-5c-0.1-1.4-0.8-2.3-1.4-2.3H79.9z"/>
				<path class="st3" d="M81,68.9v-2.7c-0.5,0.2-1.5,1-1.7,1.9h-0.1c-0.2-1.6-1.9-4.1-3.2-4.9c-1.3,0.8-3,3.3-3.2,4.9h-0.1
					c-0.2-0.9-1.2-1.7-1.7-1.9v2.7H81z"/>
				<path class="st3" d="M81,68.9c-1.4,0.5-1.6,2.7-1.7,5.5h-6.7c-0.1-2.8-0.2-5-1.7-5.5H81z"/>
				<path class="st3" d="M80.4,74.9v-3c-1,0.1-1.5,1.5-1.6,2.4h-0.2c0-1.5-0.4-5.4-2.6-6.8c-2.2,1.4-2.6,5.3-2.6,6.8h-0.2
					c-0.1-0.9-0.6-2.3-1.6-2.4v3H80.4z"/>
				<path class="st3" d="M79.7,79.1v-2.8c-0.6,0.1-1.2,0.9-1.5,1.6H78c0.1-1-0.1-3.5-2-4.5c-1.9,1-2.1,3.5-2,4.5h-0.2
					c-0.3-0.6-0.9-1.5-1.5-1.6v2.8H79.7z"/>
			</g>
		</g>
	</g>
</g>
<circle class="st6" cx="76" cy="76" r="75"/>
</svg>
