<?xml version="1.0" encoding="utf-8"?>
<!-- Generator: Adobe Illustrator 24.2.3, SVG Export Plug-In . SVG Version: 6.00 Build 0)  -->
<svg version="1.1" id="Capa_1" xmlns:serif="http://www.serif.com/"
	 xmlns="http://www.w3.org/2000/svg" xmlns:xlink="http://www.w3.org/1999/xlink" x="0px" y="0px" viewBox="0 0 150 150"
	 style="enable-background:new 0 0 150 150;" xml:space="preserve">
<style type="text/css">
	.st0{fill-rule:evenodd;clip-rule:evenodd;fill:#EF3D42;}
	.st1{fill-rule:evenodd;clip-rule:evenodd;fill:#FFFFFF;}
	.st2{fill-rule:evenodd;clip-rule:evenodd;fill:#0067A6;}
	.st3{fill:none;stroke:#515151;stroke-width:2;stroke-linecap:square;stroke-miterlimit:36;}
</style>
<path class="st0" d="M150,72.2c-0.3,41.7-33.8,75-75,75c-22.5,0-42.7-9.9-56.2-25.9l73.7-49.1H150z"/>
<path class="st1" d="M75-2.8c41.5,0.3,74.7,33.5,75,75H92.5L18.8,23.1C32.2,7.3,52.2-2.6,75-2.8z"/>
<path class="st2" d="M71.7,86.1l-53,35.3C7,108.4,0,91.2,0,72.2h92.5L71.7,86.1z"/>
<path class="st2" d="M18.8,23.1l73.7,49.1H0C0,53.5,6.9,36.4,18.8,23.1z"/>
<circle class="st3" cx="75" cy="72.2" r="75"/>
</svg>
