<?xml version="1.0" encoding="utf-8"?>
<!-- Generator: Adobe Illustrator 24.2.3, SVG Export Plug-In . SVG Version: 6.00 Build 0)  -->
<svg version="1.1" id="Capa_1" xmlns:serif="http://www.serif.com/"
	 xmlns="http://www.w3.org/2000/svg" xmlns:xlink="http://www.w3.org/1999/xlink" x="0px" y="0px" viewBox="0 0 152 152"
	 style="enable-background:new 0 0 152 152;" xml:space="preserve">
<style type="text/css">
	.st0{clip-path:url(#SVGID_2_);}
	.st1{fill-rule:evenodd;clip-rule:evenodd;fill:#FFFFFF;stroke:#000000;stroke-width:0.25;stroke-miterlimit:2.4142;}
	.st2{fill-rule:evenodd;clip-rule:evenodd;fill:#EF7D00;stroke:#000000;stroke-width:0.25;stroke-miterlimit:2.4142;}
	.st3{fill-rule:evenodd;clip-rule:evenodd;fill:#007B4F;stroke:#000000;stroke-width:0.25;stroke-miterlimit:2.4142;}
	.st4{fill-rule:evenodd;clip-rule:evenodd;fill:#002E53;}
	.st5{fill-rule:evenodd;clip-rule:evenodd;fill:#FFFFFF;}
	.st6{fill:none;stroke:#515151;stroke-width:2;stroke-linecap:square;stroke-miterlimit:1.5;}
</style>
<g>
	<g>
		<g>
			<defs>
				<circle id="SVGID_1_" cx="76" cy="76" r="75"/>
			</defs>
			<clipPath id="SVGID_2_">
				<use xlink:href="#SVGID_1_"  style="overflow:visible;"/>
			</clipPath>
			<g class="st0">
				<polygon class="st1" points="188.5,101.2 -36.5,101.2 -36.5,51.2 188.5,51.2 				"/>
				<polygon class="st2" points="188.5,51.2 -36.5,51.2 -36.5,1.1 188.5,1.1 				"/>
				<polygon class="st3" points="-36.5,151.2 188.5,151.2 188.5,101.2 -36.5,101.2 				"/>
				<g>
					<g>
						<path class="st4" d="M76,99.4c12.8,0,23.2-10.4,23.2-23.2S88.9,52.9,76,52.9S52.8,63.3,52.8,76.1C52.8,89,63.2,99.4,76,99.4
							L76,99.4z"/>
					</g>
					<g>
						<path class="st5" d="M80,55.9c-0.1,0.7-0.8,1.2-1.5,1.1c-0.7-0.1-1.3-0.8-1.2-1.5c-0.8-0.1-2-0.1-2.7,0
							c0.1,0.7-0.4,1.4-1.1,1.5c-0.7,0.1-1.4-0.4-1.5-1.1c-0.8,0.1-1.9,0.4-2.6,0.7c0.3,0.7,0,1.5-0.7,1.7c-0.7,0.3-1.5,0-1.8-0.7
							c-0.7,0.4-1.8,0.9-2.3,1.4c0.4,0.6,0.4,1.4-0.2,1.9c-0.6,0.4-1.4,0.4-1.9-0.2c-0.6,0.5-1.5,1.4-1.9,1.9
							c0.6,0.4,0.7,1.3,0.2,1.9c-0.4,0.6-1.3,0.7-1.9,0.3c-0.5,0.7-1.1,1.7-1.4,2.3c0.7,0.3,1,1.1,0.7,1.7c-0.3,0.7-1.1,1-1.7,0.8
							c-0.3,0.8-0.6,1.9-0.7,2.6c0.7,0.1,1.2,0.8,1.1,1.5c-0.1,0.7-0.8,1.3-1.5,1.2c-0.1,0.8-0.1,2,0,2.7c0.7-0.1,1.4,0.4,1.5,1.1
							c0.1,0.7-0.4,1.4-1.1,1.5c0.1,0.8,0.4,1.9,0.7,2.6c0.7-0.3,1.5,0,1.7,0.7c0.3,0.7,0,1.5-0.7,1.8c0.4,0.7,0.9,1.8,1.4,2.3
							c0.6-0.4,1.4-0.4,1.9,0.2c0.4,0.6,0.4,1.4-0.2,1.9c0.5,0.6,1.4,1.5,1.9,1.9c0.4-0.6,1.3-0.7,1.9-0.2c0.6,0.4,0.7,1.3,0.3,1.9
							c0.7,0.5,1.7,1.1,2.3,1.4c0.3-0.7,1.1-1,1.7-0.7c0.7,0.3,1,1.1,0.8,1.7c0.8,0.3,1.9,0.6,2.6,0.7c0.1-0.7,0.8-1.2,1.5-1.1
							c0.7,0.1,1.3,0.8,1.2,1.5c0.8,0.1,2,0.1,2.7,0c-0.1-0.7,0.4-1.4,1.1-1.5c0.7-0.1,1.4,0.4,1.5,1.1c0.8-0.1,1.9-0.4,2.6-0.7
							c-0.3-0.7,0-1.5,0.7-1.7c0.7-0.3,1.5,0,1.8,0.7c0.7-0.4,1.8-0.9,2.3-1.4c-0.4-0.6-0.4-1.4,0.2-1.9c0.6-0.4,1.4-0.4,1.9,0.2
							c0.6-0.5,1.5-1.4,1.9-1.9c-0.6-0.4-0.7-1.3-0.2-1.9c0.4-0.6,1.3-0.7,1.9-0.3c0.5-0.7,1.1-1.7,1.4-2.3c-0.7-0.3-1-1.1-0.7-1.7
							c0.3-0.7,1.1-1,1.7-0.8c0.3-0.8,0.6-1.9,0.7-2.6c-0.7-0.1-1.2-0.8-1.1-1.5c0.1-0.7,0.8-1.3,1.5-1.2c0.1-0.8,0.1-2,0-2.7
							c-0.7,0.1-1.4-0.4-1.5-1.1c-0.1-0.7,0.4-1.4,1.1-1.5c-0.1-0.8-0.4-1.9-0.7-2.6c-0.7,0.3-1.5,0-1.7-0.7c-0.3-0.7,0-1.5,0.7-1.8
							c-0.4-0.7-0.9-1.8-1.4-2.3c-0.6,0.4-1.4,0.4-1.9-0.2c-0.4-0.6-0.4-1.4,0.2-1.9c-0.5-0.6-1.4-1.5-1.9-1.9
							c-0.4,0.6-1.3,0.7-1.9,0.2c-0.6-0.4-0.7-1.3-0.3-1.9c-0.7-0.5-1.7-1.1-2.3-1.4c-0.3,0.7-1.1,1-1.7,0.7c-0.7-0.3-1-1.1-0.8-1.7
							C81.9,56.4,80.8,56.1,80,55.9L80,55.9z"/>
					</g>
					<g>
						<path class="st4" d="M76,76.2c0.3-4,0.1-6.1,0.7-8.7c-0.4-3.5-0.5-9.8-0.7-11.9c-0.2,2.1-0.3,8.4-0.7,11.9
							C75.9,70.1,75.8,72.2,76,76.2L76,76.2z"/>
						<path class="st4" d="M76,76.2c-0.8-3.9-1.5-5.9-1.5-8.6c-1.3-3.3-3.1-9.4-3.8-11.3c0.3,2.1,1.9,8.2,2.4,11.7
							C74.4,70.4,74.7,72.4,76,76.2L76,76.2z"/>
						<path class="st4" d="M76,76.2c-1.7-3.6-2.9-5.3-3.7-7.9c-2.1-2.8-5.4-8.3-6.6-10c0.9,1.9,3.9,7.5,5.3,10.7
							C72.9,71,73.8,72.9,76,76.2L76,76.2z"/>
						<path class="st4" d="M76,76.2c-2.6-3-4.2-4.4-5.6-6.6c-2.8-2.2-7.3-6.6-9-7.9c1.3,1.6,5.7,6.2,7.9,9C71.7,72,73,73.6,76,76.2
							L76,76.2z"/>
						<path class="st4" d="M76,76.2c-3.3-2.2-5.2-3.1-7.1-5c-3.2-1.4-8.8-4.5-10.7-5.3c1.7,1.2,7.1,4.5,10,6.6
							C70.8,73.2,72.5,74.4,76,76.2L76,76.2z"/>
						<path class="st4" d="M76,76.2c-3.8-1.3-5.8-1.6-8.2-3c-3.5-0.5-9.6-2.1-11.7-2.4c2,0.8,8.1,2.5,11.3,3.8
							C70.2,74.7,72.1,75.4,76,76.2L76,76.2z"/>
						<path class="st4" d="M76,76.2c-4-0.3-6.1-0.1-8.7-0.7c-3.5,0.4-9.8,0.5-11.9,0.7c2.1,0.2,8.4,0.3,11.9,0.7
							C70,76.3,72.1,76.4,76,76.2L76,76.2z"/>
						<path class="st4" d="M76,76.2c-3.9,0.8-5.9,1.5-8.6,1.5c-3.3,1.3-9.4,3.1-11.3,3.8c2.1-0.3,8.2-1.9,11.7-2.4
							C70.2,77.8,72.3,77.5,76,76.2L76,76.2z"/>
						<path class="st4" d="M76,76.2c-3.6,1.7-5.3,2.9-7.9,3.7c-2.8,2.1-8.3,5.4-10,6.6c1.9-0.9,7.5-3.9,10.7-5.3
							C70.8,79.3,72.7,78.4,76,76.2L76,76.2z"/>
						<path class="st4" d="M76,76.2c-3,2.6-4.4,4.2-6.6,5.6c-2.2,2.8-6.6,7.3-7.9,9c1.6-1.3,6.2-5.7,9-7.9
							C71.8,80.5,73.4,79.2,76,76.2L76,76.2z"/>
						<path class="st4" d="M76,76.2c-2.2,3.3-3.1,5.2-5,7.1c-1.4,3.2-4.5,8.8-5.3,10.7c1.2-1.7,4.5-7.1,6.6-10
							C73.1,81.4,74.3,79.8,76,76.2L76,76.2z"/>
						<path class="st4" d="M76,76.2c-1.3,3.8-1.6,5.8-3,8.2c-0.5,3.5-2.1,9.6-2.4,11.7c0.8-2,2.5-8.1,3.8-11.3
							C74.6,82,75.3,80.1,76,76.2L76,76.2z"/>
						<path class="st4" d="M76,76.2c-0.3,4-0.1,6.1-0.7,8.7c0.4,3.5,0.5,9.8,0.7,11.9c0.2-2.1,0.3-8.4,0.7-11.9
							C76.1,82.2,76.3,80.1,76,76.2L76,76.2z"/>
						<path class="st4" d="M76,76.2c0.8,3.9,1.5,5.9,1.5,8.6c1.3,3.3,3.1,9.4,3.8,11.3C81,94,79.5,87.8,79,84.3
							C77.7,82,77.3,79.9,76,76.2L76,76.2z"/>
						<path class="st4" d="M76,76.2c1.7,3.6,2.9,5.3,3.7,7.9c2.1,2.8,5.4,8.3,6.6,10c-0.9-1.9-3.9-7.5-5.3-10.7
							C79.1,81.4,78.3,79.5,76,76.2L76,76.2z"/>
						<path class="st4" d="M76,76.2c2.6,3,4.2,4.4,5.6,6.6c2.8,2.2,7.3,6.6,9,7.9c-1.3-1.6-5.7-6.2-7.9-9C80.4,80.4,79,78.8,76,76.2
							L76,76.2z"/>
						<path class="st4" d="M76,76.2c3.3,2.2,5.2,3.1,7.1,5c3.2,1.4,8.8,4.5,10.7,5.3c-1.7-1.2-7.1-4.5-10-6.6
							C81.3,79.1,79.6,77.9,76,76.2L76,76.2z"/>
						<path class="st4" d="M76,76.2c3.8,1.3,5.8,1.6,8.2,3c3.5,0.5,9.6,2.1,11.7,2.4c-2-0.8-8.1-2.5-11.3-3.8
							C81.9,77.6,80,76.9,76,76.2L76,76.2z"/>
						<path class="st4" d="M76,76.2c4,0.3,6.1,0.1,8.7,0.7c3.5-0.4,9.8-0.5,11.9-0.7c-2.1-0.2-8.4-0.3-11.9-0.7
							C82.1,76.1,80,75.9,76,76.2L76,76.2z"/>
						<path class="st4" d="M76,76.2c3.9-0.8,5.9-1.5,8.6-1.5c3.3-1.3,9.4-3.1,11.3-3.8c-2.1,0.3-8.2,1.9-11.7,2.4
							C81.9,74.5,79.8,74.9,76,76.2L76,76.2z"/>
						<path class="st4" d="M76,76.2c3.6-1.7,5.3-2.9,7.9-3.7c2.8-2.1,8.3-5.4,10-6.6c-1.9,0.9-7.5,3.9-10.7,5.3
							C81.2,73.1,79.3,73.9,76,76.2L76,76.2z"/>
						<path class="st4" d="M76,76.2c3-2.6,4.4-4.2,6.6-5.6c2.2-2.8,6.6-7.3,7.9-9c-1.6,1.3-6.2,5.7-9,7.9
							C80.3,71.8,78.6,73.1,76,76.2L76,76.2z"/>
						<path class="st4" d="M76,76.2c2.2-3.3,3.1-5.2,5-7.1c1.4-3.2,4.5-8.8,5.3-10.7c-1.2,1.7-4.5,7.1-6.6,10
							C79,70.9,77.8,72.6,76,76.2L76,76.2z"/>
						<path class="st4" d="M76,76.2c1.3-3.8,1.6-5.8,3-8.2c0.5-3.5,2.1-9.6,2.4-11.7c-0.8,2-2.5,8.1-3.8,11.3
							C77.5,70.3,76.8,72.2,76,76.2L76,76.2z"/>
					</g>
				</g>
			</g>
		</g>
	</g>
</g>
<circle class="st6" cx="76" cy="76" r="75"/>
</svg>
