<?xml version="1.0" encoding="utf-8"?>
<!-- Generator: Adobe Illustrator 24.2.3, SVG Export Plug-In . SVG Version: 6.00 Build 0)  -->
<svg version="1.1" id="Capa_1" xmlns:serif="http://www.serif.com/"
	 xmlns="http://www.w3.org/2000/svg" xmlns:xlink="http://www.w3.org/1999/xlink" x="0px" y="0px" viewBox="0 0 150 150"
	 style="enable-background:new 0 0 150 150;" xml:space="preserve">
<style type="text/css">
	.st0{fill-rule:evenodd;clip-rule:evenodd;fill:#FFFFFF;}
	.st1{fill-rule:evenodd;clip-rule:evenodd;fill:#ED1C24;}
	.st2{fill:#FFFFFF;}
	.st3{fill:none;stroke:#515151;stroke-width:2;stroke-linecap:square;stroke-miterlimit:36;}
</style>
<path class="st0" d="M149.9,74.9l0.1,1.4c0,41.2-33.3,74.7-75,75c-40.3-0.3-72.8-31.6-74.6-71v-5.4H149.9L149.9,74.9z"/>
<path class="st1" d="M82.3,2c37.3,3.2,66.7,34.2,67.6,72.9H0.4v-2.3C1.9,35.4,30.9,5.3,67.7,2C67.7,2,82.3,2,82.3,2z"/>
<path class="st2" d="M31.7,39.5c-0.4-19.7,18.6-28.4,18.6-28.4c-41.5-3.3-42.2,58.9,0,55C30.2,56.3,31.7,39.5,31.7,39.5 M64.5,23.7
	l3.9-3h-5l-1.6-4.4L60,20.7h-4.8l3.7,3L57,28.4l4.7-2.4l4.7,2.6L64.5,23.7L64.5,23.7z M83.4,31.6h-5l-1.6-4.4L75,31.6h-4.8l3.7,3
	L72,39.3l4.7-2.4l4.7,2.6l-1.8-4.9L83.4,31.6z M48.2,31.5L46.6,27l-1.7,4.4H40l3.7,3l-1.8,4.8l4.7-2.4l4.7,2.6l-1.8-4.9l3.9-3H48.2
	L48.2,31.5z M54.2,49l-1.6-4.4L50.8,49H46l3.7,3l-1.9,4.8l4.7-2.4l4.7,2.6L55.3,52l3.9-3H54.2z M77.6,49.1l-3.9,3l1.8,4.9l-4.7-2.6
	l-4.7,2.4l1.8-4.8l-3.7-3h4.8l1.7-4.4l1.6,4.4L77.6,49.1L77.6,49.1z"/>
<circle class="st3" cx="75" cy="76.3" r="75"/>
</svg>
