<?xml version="1.0" encoding="utf-8"?>
<!-- Generator: Adobe Illustrator 24.2.3, SVG Export Plug-In . SVG Version: 6.00 Build 0)  -->
<svg version="1.1" id="Capa_1" xmlns:serif="http://www.serif.com/"
	 xmlns="http://www.w3.org/2000/svg" xmlns:xlink="http://www.w3.org/1999/xlink" x="0px" y="0px" viewBox="0 0 152 152"
	 style="enable-background:new 0 0 152 152;" xml:space="preserve">
<style type="text/css">
	.st0{clip-path:url(#SVGID_2_);}
	.st1{fill:#01963A;}
	.st2{fill:#FF3F31;}
	.st3{fill:#0132B3;}
	.st4{fill:#FFE700;}
	.st5{fill:none;stroke:#515151;stroke-width:2;stroke-linecap:square;stroke-miterlimit:1.5;}
</style>
<g>
	<g>
		<g>
			<defs>
				<circle id="SVGID_1_" cx="76" cy="76" r="75"/>
			</defs>
			<clipPath id="SVGID_2_">
				<use xlink:href="#SVGID_1_"  style="overflow:visible;"/>
			</clipPath>
			<g class="st0">
				<rect x="-45.2" y="100.9" class="st1" width="300.3" height="50"/>
				<rect x="-45.2" y="51" class="st2" width="300.3" height="50"/>
				<rect x="-45.3" y="0.9" class="st3" width="300.3" height="50"/>
				<g>
					<circle class="st4" cx="54.9" cy="76" r="50"/>
					<path d="M55,26c27.5,0.1,50,22.5,50,50c-0.1,27.5-22.6,49.9-50.1,49.9c-27.5-0.1-50.1-22.6-50-50C5,48.4,27.5,26,55,26z
						 M56,108.9c0.4,0,0.7,0.1,1.1,0.1c2.8,0.3,5.3,1,7.3,3c2.6,2.7,5.4,5.4,8,8.1c0.6,0.6,1,0.6,1.7,0.3
						c21.9-9.4,34-33.9,27.5-56.9c-5.2-18.4-17.5-30-36-34.8c-3.1-0.8-6.4-1.2-9.7-1.1c0,3.3,0,6.5,0,10.1c2.5-1.6,4.7-3,7.2-4.5
						c-0.3,0.9-0.4,1.8-0.8,2.4c-1.5,2.9-3.4,5.5-5.7,7.7c-0.3,0.3-0.7,0.7-0.7,1.1c-0.1,2.2,0,4.4,0,6.6c0.3,0.1,0.4,0.1,0.6,0.2
						c3,0.9,4.9,3.2,5,6.2c0.1,3.1-1.7,5.6-4.8,6.5c-1.1,0.3-0.9,0.9-0.6,2c1.3-0.5,2.7-0.8,3.7-1.6c1.1-0.8,1.9-2.1,2.6-3.3
						c1.2-1.7,2.3-3.5,3.5-5.4c-0.4,2.6-0.8,5-1.1,7.3c-0.4,3.1-1.9,4.8-5,5.5c-1.1,0.2-2.2,0.3-3.3,0.5c-0.3,0.1-0.5,0.5-0.8,0.7
						c0.1,0.1,0.1,0.2,0.2,0.4c2.4,0,4.7,0,7.1,0c0,0.7,0,1.3,0,1.9c-2.4,0-4.8,0-7.1,0c-0.4,1,0.2,1,0.8,1.2
						c1.1,0.4,2.3,0.7,3.3,1.4c1.9,1.4,1.9,3.6,0,5c-1,0.7-2.3,1-3.5,1.6c-0.4,0.2-0.6,0.5-0.9,0.8c0.1,0.1,0.2,0.3,0.3,0.4
						c2.4,0,4.7,0,7.1,0c0,0.7,0,1.2,0,1.8c-2.4,0-4.8,0-7.1,0c-0.1,1.1-0.1,1.1,0.7,1.2c1,0.1,2.1,0.3,3.1,0.5
						c3.2,0.9,4.6,2.7,4.9,6c0.1,1.1,0.2,2.1,0.4,3.2c0.4,2.6,0.8,5.1,1.3,8c-0.5-0.7-0.9-1.2-1.1-1.7c-1.1-2.2-2.2-4.4-3.2-6.6
						c-1.2-2.6-3.2-4.3-6.3-4.9c0.2,0.5,0.3,0.9,0.5,1c2.9,1.4,3.9,4,4.1,6.8c0.3,3.1-0.3,6.1-3.1,8C55.9,106.7,55.7,107.5,56,108.9
						z M53.7,82.4c0.1-0.1,0.2-0.3,0.4-0.4c-0.3-0.3-0.6-0.6-0.9-0.8c-1.1-0.5-2.3-0.8-3.3-1.4c-2.1-1.5-2.1-3.9,0.1-5.4
						c0.9-0.6,2.1-0.9,3.2-1.3c0.4-0.1,0.6-0.5,0.9-0.8c-0.1-0.1-0.1-0.2-0.2-0.4c-2.4,0-4.7,0-7.1,0c0-0.7,0-1.3,0-1.9
						c2.4,0,4.8,0,7.1,0c0.1-0.1,0.1-0.2,0.2-0.4c-0.3-0.2-0.5-0.6-0.8-0.7c-0.7-0.1-1.4-0.2-2.1-0.2c-3.6-0.4-5.6-2.2-6.1-5.5
						c-0.4-2.4-0.7-4.8-1.1-7.2c0.2,0.2,0.5,0.6,0.8,0.9c1,1.6,2.1,3.1,3,4.7c1.4,2.4,3.3,3.9,6.2,3.9c0-0.5,0-0.9,0-1.4
						c-3.5-1-5.6-3.1-5.5-6.9c0-3.1,1.8-5.1,5.5-6.4c0-1.8,0-3.6,0-5.5c-2,1-3.9,1.9-5.8,2.8c0-1.2,0-2.4,0-3.5
						c-0.1-2.4,1.1-4.2,3.2-4.9c2.6-0.9,3-2.6,2.8-5C53.8,32.4,54,30,54,27.5c-1.6,0.1-3.1,0.2-4.6,0.4C39,29,29.8,33.1,22.2,40.3
						C8,53.9,3.3,70.4,8.4,89.3c3.8,14.1,12.9,24.2,26,30.6c1,0.5,1.6,0.3,2.4-0.4c2.4-2.5,5-4.8,7.4-7.2c1.7-1.7,3.8-2.6,6.2-3
						c1.1-0.1,2.2-0.3,3.6-0.4c-0.2-0.9-0.1-2.1-0.6-2.4c-2.9-1.5-3.9-4.1-4-7.1c-0.2-3.4,0.6-6.6,4-8.4c0.2-0.1,0.3-0.5,0.7-1
						c-3.1,0.6-5.1,2.2-6.3,4.8c-0.9,1.9-1.7,3.7-2.6,5.5c-0.5,1-1.1,1.9-1.7,2.9c0.6-4,1.1-7.9,1.6-11.8c0.3-2.4,1.5-4.1,3.8-5
						c1.3-0.5,2.6-0.7,4-0.9c0.8-0.1,1.2-0.3,0.8-1.3c-2.3,0-4.7,0-7.1,0c0-0.6,0-1.2,0-1.8C49.1,82.4,51.4,82.4,53.7,82.4z"/>
				</g>
			</g>
		</g>
	</g>
</g>
<circle class="st5" cx="76" cy="76" r="75"/>
</svg>
