<?xml version="1.0" encoding="utf-8"?>
<!-- Generator: Adobe Illustrator 24.2.3, SVG Export Plug-In . SVG Version: 6.00 Build 0)  -->
<svg version="1.1" id="Capa_1" xmlns:serif="http://www.serif.com/"
	 xmlns="http://www.w3.org/2000/svg" xmlns:xlink="http://www.w3.org/1999/xlink" x="0px" y="0px" viewBox="0 0 152 152"
	 style="enable-background:new 0 0 152 152;" xml:space="preserve">
<style type="text/css">
	.st0{fill-rule:evenodd;clip-rule:evenodd;fill:#FFFFFF;}
	.st1{fill-rule:evenodd;clip-rule:evenodd;fill:#0073BD;}
	.st2{fill-rule:evenodd;clip-rule:evenodd;fill:#ED1C24;}
	.st3{fill:#FFFFFF;}
	.st4{fill:#2A77BD;}
	.st5{fill:#231F20;}
	.st6{fill:#ED1C24;}
	.st7{fill:#FFF200;}
	.st8{fill:none;stroke:#515151;stroke-width:2;stroke-linecap:square;stroke-miterlimit:36;}
</style>
<path class="st0" d="M146.3,50.8c3.1,7.7,4.7,16.3,4.7,25.2c0,9.1-1.6,17.8-4.8,25.8H5.8C2.6,93.8,1,85.1,1,76
	c0-8.9,1.6-17.4,4.7-25.2L146.3,50.8L146.3,50.8z"/>
<path class="st1" d="M146.2,101.8C135.9,130.5,108.3,151,76,151s-59.9-20.5-70.2-49.2H146.2z"/>
<path class="st2" d="M76,1c32.7,0.2,60.3,20.9,70.3,49.8H5.7C15.7,21.9,43.2,1.2,76,1z"/>
<path class="st3" d="M48.3,87.4l0.9,8l1.7,3l0.8,1.1h8V87.4H48.3L48.3,87.4z"/>
<path class="st2" d="M94.2,108.6v-9.1l8.8,0l-4.4,5.5L94.2,108.6L94.2,108.6z M59.7,87.4h11.5v12.1H59.7v9.1l-3.3-2.2l-2.5-2.8
	l-2.2-4.2h8L59.7,87.4L59.7,87.4z M71.2,113.8V99.5h11.5V87.4h11.5v12.1H82.7v14.3H71.2z M71.2,75.3h11.5v12.1H71.2V75.3z
	 M94.1,75.3h11.5v12.1H94.1V75.3z M48.3,75.3h11.5v12.1H48.3V75.3z M71.2,63.1v12.1H59.7V63.1H71.2z M94.1,63.1v12.1H82.7V63.1H94.1
	z M71.2,51h11.5v12.1H71.2V51z M94.1,51h11.5v12.1H94.1V51z M48.3,51h11.5v12.1H48.3V51z"/>
<path class="st4" d="M94.2,46.6l3.2-15.4l11.2-3.7l2.9,11.2l-7.2,11.1l-2-0.3L94.2,46.6L94.2,46.6z"/>
<path class="st5" d="M92.6,20.7l-9.7,6.5l-0.7,14.5l12.5,2.7l5-14.5L92.6,20.7z"/>
<path class="st4" d="M76.9,20.2l-7.7,7.7l1.4,14.3l11.6,0.2l2.5-14.5L76.9,20.2L76.9,20.2z"/>
<path class="st5" d="M61.2,21.4l-7.5,9.5l5.2,14.5l12.5-3l-0.3-15.5L61.2,21.4L61.2,21.4z"/>
<path class="st4" d="M49.2,49.3l-8-13.2l5-9.7l9.6,3.9l3.3,14.8L49.2,49.3z"/>
<path class="st6" d="M47.6,50.2c0,0,31.5-20.8,58.8,0H47.6z"/>
<path class="st0" d="M94.1,108.6l-6.4,3.6l-5,1.3V99.5H71.2l0.1,14.1l-4.7-1.4l-6.9-3.5l0.1-9.1h11.5V87.4h11.5v12.1h11.5V87.4h11.5
	l-4,12.1h-7.4V108.6L94.1,108.6z M59.7,75.3h11.5v12.1H59.7V75.3z M82.7,75.3h11.5v12.1H82.7V75.3z M48.3,63.1h11.5v12.1H48.3V63.1z
	 M82.7,63.1v12.1H71.2V63.1H82.7z M105.6,63.1v12.1H94.1V63.1H105.6z M59.7,51h11.5v12.1H59.7V51z M82.7,51h11.5v12.1H82.7V51z"/>
<path class="st7" d="M85.8,31.8c0.8,2.2,7.8,4,9.4,2.1l-1.8,4.3c0,0-2.4,0.4-4.8-0.1c-2.5-0.6-3.3-2.6-3.3-2.6L85.8,31.8L85.8,31.8z
	 M46.7,31.1l4.4,2.2l-1,4.6l-4.3-2.1L46.7,31.1L46.7,31.1z M76.8,37.7l2.2-2.5l-1.8-2.8l-2.2,2.4L76.8,37.7L76.8,37.7z M104.5,35.6
	l-0.6-3.4l3-1.4l0.7,3.3L104.5,35.6L104.5,35.6z M79.6,32.3l2.2-2.5L80,27l-2.2,2.4L79.6,32.3L79.6,32.3z M74.4,32.2l2.2-2.5
	l-1.8-2.8l-2.2,2.4L74.4,32.2L74.4,32.2z"/>
<circle class="st8" cx="76" cy="76" r="75"/>
</svg>
