<?xml version="1.0" encoding="utf-8"?>
<!-- Generator: Adobe Illustrator 24.2.3, SVG Export Plug-In . SVG Version: 6.00 Build 0)  -->
<svg version="1.1" id="Capa_1" xmlns:serif="http://www.serif.com/"
	 xmlns="http://www.w3.org/2000/svg" xmlns:xlink="http://www.w3.org/1999/xlink" x="0px" y="0px" viewBox="0 0 152 152"
	 style="enable-background:new 0 0 152 152;" xml:space="preserve">
<style type="text/css">
	.st0{clip-path:url(#SVGID_2_);}
	.st1{fill:#E30520;stroke:#000000;stroke-width:0.25;}
	.st2{fill:#005496;stroke:#000000;stroke-width:0.25;}
	.st3{fill:#FFFFFF;stroke:#000000;stroke-width:0.25;}
	.st4{fill:#005496;stroke:#000000;stroke-width:3.100000e-02;}
	.st5{fill:#E30520;stroke:#000000;stroke-width:3.100000e-02;}
	.st6{fill:#FFFFFF;stroke:#000000;stroke-width:3.100000e-02;}
	.st7{fill:#005496;stroke:#000000;stroke-width:3.100000e-02;stroke-linecap:round;stroke-linejoin:round;}
	.st8{fill:#FFD039;}
	.st9{fill:none;stroke:#000000;stroke-width:3.100000e-02;stroke-linecap:round;stroke-linejoin:round;}
	.st10{fill:#9A6527;stroke:#000000;stroke-width:3.100000e-02;}
	.st11{fill:#FFD039;stroke:#000000;stroke-width:3.100000e-02;}
	.st12{fill:#E30520;stroke:#000000;stroke-width:3.100000e-02;stroke-linecap:round;stroke-linejoin:round;}
	.st13{fill:#FFFFFF;stroke:#000000;stroke-width:3.100000e-02;stroke-linecap:round;stroke-linejoin:round;}
	.st14{stroke:#000000;stroke-width:3.100000e-02;stroke-linecap:round;stroke-linejoin:round;}
	.st15{fill:#FFFFFF;stroke:#000000;stroke-width:3.130000e-02;stroke-linecap:round;stroke-linejoin:round;}
	.st16{fill:none;stroke:#000000;stroke-width:3.130000e-02;stroke-linecap:round;stroke-linejoin:round;}
	.st17{fill:none;stroke:#000000;stroke-width:1.560000e-02;stroke-linecap:round;stroke-linejoin:round;}
	.st18{fill:#5F9222;stroke:#000000;stroke-width:3.100000e-02;stroke-linecap:round;stroke-linejoin:round;}
	.st19{fill:none;stroke:#515151;stroke-width:2;stroke-linecap:square;stroke-miterlimit:1.5;}
</style>
<g>
	<g>
		<g>
			<defs>
				<circle id="SVGID_1_" cx="76" cy="76" r="75"/>
			</defs>
			<clipPath id="SVGID_2_">
				<use xlink:href="#SVGID_1_"  style="overflow:visible;"/>
			</clipPath>
			<g class="st0">
				<g>
					<rect x="76" y="1.1" class="st1" width="120" height="75"/>
					<rect x="-44" y="76.2" class="st1" width="120" height="75"/>
				</g>
				<g>
					<rect x="-44" y="1.1" class="st2" width="120" height="75"/>
					<rect x="76" y="76.2" class="st2" width="120" height="75"/>
				</g>
				<polygon class="st3" points="91,151.2 91,91.2 196.1,91.2 196.1,61.2 91,61.2 91,1.1 61,1.1 61,61.2 -44,61.2 -44,91.2 61,91.2 
					61,151.2 				"/>
				<g>
					<g>
						<g>
							<path class="st4" d="M76,65.2h-9.3l1.6,1.6c0,2.6,0,5.6,0,8.1H76V65.2z"/>
							<path class="st4" d="M76,84.3c1.2-1.4,2.1-1.3,5.6-1.3c1.9,0,2.1-1.3,2.1-3.8c0-1,0-2.6,0-4.5H76V84.3z"/>
						</g>
						<g>
							<path class="st5" d="M76,84.3c-1.2-1.4-2.1-1.3-5.6-1.3c-1.9,0-2.1-1.3-2.1-3.8c0-1,0-2.6,0-4.5H76V84.3z"/>
							<path class="st5" d="M76,65.2h9.3l-1.6,1.6c0,2.6,0,5.6,0,8.1H76L76,65.2L76,65.2z"/>
						</g>
						<g>
							<path class="st6" d="M77.4,83.4V65.2h-2.6v18.2c0.4,0.1,0.9,0.5,1.3,1C76.4,83.9,77,83.5,77.4,83.4z"/>
							<rect x="68.3" y="73.4" class="st6" width="15.4" height="2.7"/>
							<path class="st6" d="M76,74.8"/>
						</g>
						<g>
							<path class="st4" d="M76,73l5.1-5.4v1.6l0.9-0.8c0,1.9,0,7.1,0,9c0,3.4-5.3,3-6,1.5c-0.7,1.6-6,1.9-6-1.5c0-1.9,0-7.1,0-9
								l0.9,0.8v-1.6L76,73z"/>
						</g>
						<g>
							<path class="st6" d="M76,78.8c-2.4,1.3-4,0.3-4-1c0-0.4,0-1.1,0-1.6c-0.9,0-2-0.5-2-0.8v-1.3c0,0.4,1.6,0.8,2,0.8
								c0-0.8,0-3.7,0-4.7l0.9,0.7v-1.2l1.3,1.4V72l-0.9-0.7c0,1.1,0,3.4,0,3.9c0.9,0,1.6,0.6,2.7,0.6s1.8-0.6,2.7-0.6
								c0-0.5,0-2.9,0-3.9L77.8,72v-0.9l1.3-1.4v1.2l0.9-0.7c0,0.9,0,3.9,0,4.7c0.4,0,2-0.4,2-0.8v1.3c0,0.3-1.1,0.8-2,0.8
								c0,0.4,0,1.1,0,1.6C80,79.1,78.5,80.1,76,78.8v-1.4c1.3,0.8,2.7,0.9,2.7,0.1c0-0.4,0-0.5,0-1c-0.9,0-1.6,0.6-2.7,0.6
								s-1.8-0.6-2.7-0.6c0,0.5,0,0.6,0,1c0,0.8,1.4,0.6,2.7-0.1V78.8z"/>
						</g>
						<g>
							<path class="st5" d="M77.8,71.1V72l0.9-0.7c0,1.1,0,3.4,0,3.9c-0.9,0-1.6,0.6-2.7,0.6s-1.8-0.6-2.7-0.6c0-0.5,0-2.9,0-3.9
								l0.9,0.7v-0.9L76,73L77.8,71.1z"/>
						</g>
						<g>
							<path class="st5" d="M70.1,75.5c0,0.8,0,1.5,0,2c0,3.4,5.3,3,6,1.5c0.7,1.6,6,1.9,6-1.5c0-0.5,0-1.2,0-2c0,0.3-1.1,0.8-2,0.8
								c0,0.4,0,1.1,0,1.6c0,1.2-1.6,2.3-4,1c-2.4,1.3-4,0.3-4-1c0-0.4,0-1.1,0-1.6C71.1,76.3,70.1,75.8,70.1,75.5z"/>
						</g>
					</g>
					<path class="st7" d="M78.1,61.9c0.1-0.2,0.2-0.6,0.3-0.9c-0.7-0.1-1.5-0.1-2.3-0.1c-0.8,0-1.6,0.1-2.3,0.1
						c0.1,0.3,0.2,0.7,0.3,0.9c0.1,0.2-0.3,0.6-1.6,0.6c-1.1-0.1-2.7,0-4.2,0.3c0.2,0.4,0.3,0.4,0.3,0.7c0,0.3-0.8,0.6-2.1,0.8
						c-1.3,0.2-1.8,1.5-2.3,3.5c-0.5-0.2-1.3-0.4-1.8-0.5c0.3-1.3,1.3-4.1,2.6-4.4c-0.3-0.7-0.2-1,0.9-1.6c1.3-0.6,3.4-0.9,5.8-1.1
						c-0.1-0.6,0-0.8,0.7-1.1c0.6-0.3,1.6-0.5,3.6-0.5c2,0,3,0.2,3.6,0.5c0.7,0.3,0.9,0.6,0.7,1.1c2.4,0.1,4.5,0.4,5.8,1.1
						c1.2,0.6,1.3,0.9,0.9,1.6c1.3,0.3,2.3,3.1,2.6,4.4c-0.5,0.1-1.3,0.3-1.8,0.5c-0.4-1.9-0.9-3.3-2.3-3.5
						c-1.3-0.2-2.1-0.5-2.1-0.8c0-0.3,0.1-0.4,0.3-0.7c-1.4-0.2-3.1-0.4-4.2-0.3C78.4,62.5,78,62.1,78.1,61.9z"/>
					<g>
						<g>
							<path class="st8" d="M73.1,59.3l0.1,0.5l0.2,0l0-0.3c0,0,0.1,0,0.2,0c0.1,0,0.2,0,0.2,0.1c0,0.1,0,0.2-0.1,0.2
								c-0.1,0-0.2,0-0.2,0l0-0.1l-0.2,0l0.1,0.8l0.2,0L73.5,60c0,0,0.1,0,0.3,0c0.2,0,0.3-0.3,0.2-0.5c0-0.2-0.2-0.4-0.4-0.3
								C73.3,59.2,73.1,59.3,73.1,59.3z"/>
						</g>
						<g>
							<polygon class="st8" points="74.8,60.1 74.8,60.4 75.1,60.4 74.6,59.1 74.4,59.1 74.1,60.4 74.3,60.4 74.4,60.1 74.6,60.1 
								74.5,59.9 74.4,59.9 74.5,59.4 74.7,59.9 74.5,59.9 74.6,60.1 							"/>
						</g>
						<g>
							<polygon class="st8" points="75.6,60.3 75.6,59.3 75.9,59.3 75.9,59 75.1,59 75.1,59.3 75.4,59.3 75.4,60.3 							"/>
						</g>
						<g>
							<path class="st8" d="M76.2,59v0.4h0.2v-0.1c0,0,0.2,0,0.3,0c0.1,0,0.1,0.1,0.1,0.2c0,0.1-0.1,0.2-0.1,0.2c-0.1,0-0.3,0-0.3,0
								v-0.2h-0.2l0,0.9h0.2v-0.5c0,0,0.1,0,0.2,0c0.1,0,0.2,0,0.2,0.2c0,0.1,0,0.3,0,0.3H77c0,0,0-0.3,0-0.4c0-0.1-0.1-0.3-0.1-0.3
								c0.1,0,0.2-0.1,0.2-0.3S76.9,59,76.8,59C76.6,59,76.2,59,76.2,59z"/>
						</g>
						<g>
							
								<rect x="76.8" y="59.6" transform="matrix(6.990412e-02 -0.9976 0.9976 6.990412e-02 12.467 132.7962)" class="st8" width="1.3" height="0.2"/>
						</g>
						<g>
							<polygon class="st8" points="78.4,60.2 78.5,60.5 78.7,60.5 78.5,59.2 78.2,59.2 77.7,60.4 77.9,60.4 78,60.2 78.2,60.2 
								78.2,60 78.1,60 78.3,59.5 78.4,60 78.2,60 78.2,60.2 							"/>
						</g>
						<g>
							<path class="st8" d="M66.5,61.4c0.1,0,0.3-0.1,0.4-0.1c0.1,0,0.4-0.1,0.6,0.5c0.1,0.3,0,0.7-0.2,0.8
								c-0.2,0.1-0.4,0.1-0.4,0.1L66.7,62l0.2-0.1l0.1,0.4c0,0,0.1,0,0.2,0c0.1,0,0.2-0.1,0.1-0.5c-0.1-0.4-0.3-0.4-0.4-0.3
								c0,0-0.2,0-0.2,0l0.1,0.4L66.7,62L66.5,61.4z"/>
						</g>
						<g>
							
								<rect x="67.8" y="61.1" transform="matrix(0.9901 -0.1407 0.1407 0.9901 -8.0117 10.1666)" class="st8" width="0.2" height="1.3"/>
						</g>
						<g>
							<path class="st8" d="M68.8,62c-0.2,0-0.3-0.1-0.4-0.4c0-0.3,0.1-0.5,0.2-0.5s0.3,0.1,0.4,0.4C69.1,61.8,69,62,68.8,62l0,0.2
								c0.3,0,0.5-0.3,0.4-0.7c-0.1-0.4-0.3-0.6-0.6-0.6c-0.3,0-0.5,0.3-0.4,0.7c0.1,0.4,0.3,0.6,0.6,0.6L68.8,62z"/>
						</g>
						<g>
							<path class="st8" d="M70.2,61.1c0-0.2-0.2-0.4-0.5-0.4c-0.3,0-0.4,0.3-0.3,0.4c0,0.1,0.1,0.3,0.5,0.3c0.1,0,0.2,0.1,0.2,0.1
								c0,0.1,0,0.2-0.2,0.2c-0.1,0-0.2,0-0.3-0.2l-0.2,0c0,0.2,0.2,0.4,0.5,0.4c0.3,0,0.4-0.2,0.4-0.5c0-0.3-0.2-0.3-0.4-0.3
								c-0.2,0-0.3-0.1-0.3-0.1c0-0.1,0-0.1,0.1-0.2c0.1,0,0.2,0,0.3,0.2L70.2,61.1z"/>
						</g>
						<path class="st8" d="M80.2,60.8v1h0.5V62H80v-0.6C80.1,61.2,80.2,60.9,80.2,60.8z"/>
						<g>
							<rect x="80.9" y="60.7" class="st8" width="0.2" height="1.3"/>
						</g>
						<g>
							<path class="st8" d="M81.3,62c0,0,0.3,0,0.5,0c0.3,0,0.4-0.2,0.4-0.4c0-0.1,0-0.2-0.1-0.3c0.1-0.1,0.1-0.2,0.1-0.3
								c0-0.2-0.2-0.3-0.4-0.4c-0.3,0-0.4,0-0.4,0l0,0.4h0.2v-0.1c0,0,0.2,0,0.3,0c0.1,0,0.1,0.1,0.1,0.1c0,0,0,0.1-0.1,0.1
								c-0.1,0-0.3,0-0.3,0v-0.1h-0.2l0,0.5h0.2v-0.1c0,0,0.2,0,0.3,0c0.1,0,0.1,0.1,0.1,0.2c0,0.1-0.1,0.2-0.1,0.2
								c-0.1,0-0.3,0-0.3,0v-0.2h-0.2L81.3,62z"/>
						</g>
						<g>
							<polygon class="st8" points="83.2,60.9 82.4,60.8 82.3,62.1 83.1,62.2 83.1,62 82.5,61.9 82.6,61.6 83,61.6 83.1,61.4 
								82.6,61.4 82.6,61.1 83.2,61.1 							"/>
						</g>
						<g>
							<path class="st8" d="M83.4,60.9l-0.1,0.4l0.2,0l0-0.1c0,0,0.2,0,0.3,0c0.1,0,0.1,0.1,0.1,0.2c0,0.1-0.1,0.2-0.1,0.1
								c-0.1,0-0.3,0-0.3,0l0-0.2l-0.2,0l-0.1,0.9l0.2,0l0.1-0.5c0,0,0.1,0,0.2,0c0.1,0,0.2,0.1,0.1,0.2c0,0.1,0,0.3,0,0.3l0.2,0
								c0,0,0-0.3,0.1-0.4c0-0.1-0.1-0.3-0.1-0.3c0.1,0,0.2-0.1,0.2-0.3c0-0.2,0-0.4-0.2-0.4C83.8,61,83.4,60.9,83.4,60.9z"/>
						</g>
						<g>
							<polygon class="st8" points="84.5,62.4 84.8,61.4 85.1,61.5 85.1,61.3 84.3,61.1 84.3,61.3 84.6,61.4 84.4,62.4 							"/>
						</g>
						<g>
							<polygon class="st8" points="85.5,62.4 85.5,62.7 85.7,62.8 85.7,61.4 85.5,61.4 84.8,62.5 85,62.6 85.1,62.3 85.3,62.4 
								85.4,62.2 85.2,62.2 85.5,61.7 85.5,62.2 85.4,62.2 85.3,62.4 							"/>
						</g>
						<g>
							<path class="st8" d="M86.3,61.7c0.1,0.1,0.2,0.1,0.4,0.2c0.1,0.1,0.4,0.2,0.1,0.7c-0.1,0.3-0.4,0.6-0.6,0.4
								c-0.2-0.1-0.4-0.2-0.4-0.2l0.3-0.6l0.2,0.1L86,62.7c0,0,0.1,0.1,0.1,0.1c0.1,0,0.3,0.1,0.4-0.3c0.2-0.3,0-0.4-0.1-0.5
								c0,0-0.2-0.1-0.2-0.1l-0.2,0.4L86,62.2L86.3,61.7z"/>
						</g>
					</g>
					<g>
						<path class="st9" d="M62.2,68.3c0.1-0.4,0.1-0.8,0.2-1.1"/>
						<path class="st9" d="M62.4,68.3c0.1-0.4,0.1-0.8,0.2-1.1"/>
						<path class="st9" d="M62.6,68.4c0.1-0.4,0.1-0.7,0.2-1.1"/>
						<path class="st9" d="M62.8,68.4c0.1-0.4,0.1-0.7,0.2-1.1"/>
						<path class="st9" d="M63,68.4c0.1-0.4,0.1-0.7,0.2-1"/>
						<path class="st9" d="M63.2,68.4c0.1-0.4,0.1-0.7,0.2-1"/>
						<path class="st9" d="M63.4,68.5c0.1-0.3,0.1-0.7,0.2-1"/>
						<path class="st9" d="M63.6,68.5c0.1-0.3,0.1-0.6,0.2-0.9"/>
						<path class="st9" d="M63.8,68.6c0.1-0.3,0.1-0.6,0.2-0.9"/>
						<path class="st9" d="M64,68.6c0.1-0.3,0.1-0.6,0.2-0.9"/>
						<path class="st9" d="M89.9,68.3c-0.1-0.4-0.1-0.8-0.2-1.1"/>
						<path class="st9" d="M89.7,68.3c-0.1-0.4-0.1-0.8-0.2-1.1"/>
						<path class="st9" d="M89.5,68.4c-0.1-0.4-0.1-0.7-0.2-1.1"/>
						<path class="st9" d="M89.3,68.4c-0.1-0.4-0.1-0.7-0.2-1.1"/>
						<path class="st9" d="M89.1,68.4c-0.1-0.4-0.1-0.7-0.2-1"/>
						<path class="st9" d="M88.9,68.4c-0.1-0.4-0.1-0.7-0.2-1"/>
						<path class="st9" d="M88.7,68.5c-0.1-0.3-0.1-0.7-0.2-1"/>
						<path class="st9" d="M88.5,68.5c-0.1-0.3-0.1-0.6-0.2-0.9"/>
						<path class="st9" d="M88.3,68.6c-0.1-0.3-0.1-0.6-0.2-0.9"/>
						<path class="st9" d="M88.1,68.6C88,68.3,88,68,87.9,67.7"/>
						<path class="st9" d="M73.8,61c-1,0.1-1.7,0.4-1.5,0.6"/>
						<path class="st9" d="M67.1,64.2c-1.7,0.3-3.5-0.4-4.2,1.5"/>
						<path class="st9" d="M68.6,63.5c0,0,0-0.1,0-0.1c-0.1-0.4-1.2,0-1.6,0.2s-1.2,0.7-1.4,0.4c-0.2-0.4,0.6-0.6,1.2-0.8
							c0.4-0.1,1-0.3,1.5-0.4"/>
						<path class="st9" d="M74,61.9c-0.1-0.3-0.6-0.4-1.1-0.2c-0.8,0.2-0.8-0.3-1.1-1c-0.1-0.2-0.1-0.4-0.2-0.5"/>
						<path class="st9" d="M64.9,62.8c0,0.1,0.1,0.1,0.1,0.2c0.4,0.8,0.5,1,0.7,1"/>
						<path class="st9" d="M78.3,61c1,0.1,1.7,0.4,1.5,0.6"/>
						<path class="st9" d="M85,64.2c1.7,0.3,3.5-0.4,4.2,1.5"/>
						<path class="st9" d="M83.5,63.5c0,0,0-0.1,0-0.1c0.1-0.4,1.2,0,1.6,0.2s1.2,0.7,1.4,0.4c0.2-0.4-0.6-0.6-1.2-0.8
							c-0.4-0.1-1-0.3-1.5-0.4"/>
						<path class="st9" d="M78.1,61.9c0.1-0.3,0.6-0.4,1.1-0.2c0.8,0.2,0.8-0.3,1.1-1c0.1-0.2,0.1-0.4,0.2-0.5"/>
						<path class="st9" d="M87.2,62.8c0,0.1-0.1,0.1-0.1,0.2c-0.4,0.8-0.5,1-0.7,1"/>
					</g>
					<g>
						<g>
							<polygon class="st10" points="76,73.4 82.3,68.2 82.4,68.3 76,73.7 							"/>
							<polygon class="st10" points="76,72.9 81.3,67.2 81.4,67.3 76,73.2 							"/>
							<polygon class="st10" points="76,72.1 80.2,66.3 80.4,66.4 76,72.4 							"/>
							<polygon class="st10" points="76,73.4 69.8,68.2 69.7,68.3 76,73.7 							"/>
							<polygon class="st10" points="76,72.9 70.8,67.2 70.6,67.3 76,73.2 							"/>
							<polygon class="st10" points="76,72.1 71.9,66.3 71.7,66.4 76,72.4 							"/>
						</g>
						<g>
							<path class="st11" d="M82.2,68.1l0.9-0.5l-0.6,0.8C82.4,68.4,82.1,68.1,82.2,68.1z"/>
							<path class="st11" d="M81.2,67.1l0.8-0.6l-0.5,0.9C81.5,67.5,81.1,67.2,81.2,67.1z"/>
							<path class="st11" d="M80.1,66.3l0.8-0.7l-0.4,0.9C80.4,66.6,80.1,66.3,80.1,66.3z"/>
							<path class="st11" d="M69.9,68.1l-0.9-0.5l0.6,0.8C69.7,68.4,70,68.1,69.9,68.1z"/>
							<path class="st11" d="M70.9,67.1l-0.8-0.6l0.5,0.9C70.6,67.5,71,67.2,70.9,67.1z"/>
							<path class="st11" d="M72,66.3l-0.8-0.7l0.4,0.9C71.7,66.6,72,66.3,72,66.3z"/>
						</g>
					</g>
					<g>
						<polygon class="st11" points="76.3,72.4 76.3,69.7 77,69.7 77,69.1 76.3,69.1 76.3,68.2 75.8,68.2 75.8,69.1 75.1,69.1 
							75.1,69.7 75.8,69.7 75.8,72.4 						"/>
					</g>
					<g>
						<path class="st12" d="M76.9,76c0.1,1.4,1,3.1,1.1,3.9c-0.1-0.1-0.4,0.1-0.4,0.1c0.1,0.4,0.1,0.8,0.1,1.2
							c-0.4-0.2-0.6-0.1-0.8,0c-0.1,0.7-0.4,1.3-0.8,1.9c0.1-0.4-0.5-1.4-1.4-2.7c-0.7-1-0.1-3.5,0.8-4.9c-0.1-0.1,0-0.4,0.3-0.6
							c0.3-0.3,0.7-0.3,1-0.2c0.4,0.1,0.8,0.3,0.6,0.8C77.1,76,76.9,76.1,76.9,76z"/>
						<path class="st13" d="M76.3,75.3C75,77.4,76.7,81,76,83.1c0.1-0.4-0.5-1.4-1.4-2.7c-0.7-1-0.1-3.5,0.8-4.9
							C75.5,75.3,75.9,75.2,76.3,75.3z"/>
						<path class="st7" d="M75.4,75.5c-0.9,1.5-1.5,3.9-0.8,4.9c0.3,0.4,0.5,0.7,0.7,1.1c-0.3-1.5-0.6-4.1,0.8-6.2
							C76,75.2,75.6,75.2,75.4,75.5z"/>
						<path class="st9" d="M75.4,75.5c0.2-0.3,0.6-0.3,1-0.2c0.2,0.1,0.4,0.1,0.4,0.2c0,0.1,0,0.3,0,0.5"/>
						<path class="st9" d="M76.9,81.1c0.1-0.6,0.1-1.4,0-2.2c-0.2-1.3-0.3-2.6-0.1-3.4"/>
						<path class="st9" d="M76.9,76c0.1-0.2,0.1-0.4,0-0.5"/>
						<path class="st9" d="M76.8,75.5c-0.4,1.4,0.4,3,0.7,4.5"/>
					</g>
					<g>
						<path class="st14" d="M75.9,71.8c0.4-0.4,1.2-0.7,1.6-0.4l0.9,2.9c-0.3,0-0.8,0.1-0.9,0.3c-0.1,0.1-0.4,0.3-0.6,0.2
							c-0.1,0.1-0.4,0.2-0.6,0.2c-0.3-0.1-0.6,0.1-1,0.4l-1-2.9l0.2-0.3C74.8,71.9,75.5,71.6,75.9,71.8z"/>
						<path class="st15" d="M74.6,72.1c0.2-0.2,0.9-0.5,1.3-0.3c0.3-0.4,1.1-0.7,1.5-0.5l0.9,2.6c-0.2,0.2-0.7,0.1-1,0.3
							c-0.1,0.1-0.3,0.2-0.4,0.3c-0.1-0.1-0.5,0-0.7,0.1c-0.2,0.1-0.4,0.3-0.6,0.3L74.6,72.1"/>
						<line class="st16" x1="75.9" y1="71.8" x2="76.8" y2="74.5"/>
						<path class="st17" d="M75.8,72c-0.3,0-0.7,0.1-0.9,0.3"/>
						<path class="st17" d="M75.9,72.3c-0.3,0-0.7,0.1-0.9,0.3"/>
						<path class="st17" d="M76,72.7c-0.3,0-0.7,0.1-0.9,0.3"/>
						<path class="st17" d="M76.1,73c-0.3,0-0.7,0.1-0.9,0.3"/>
						<path class="st17" d="M76.3,73.4c-0.3,0-0.7,0.1-0.9,0.3"/>
						<path class="st17" d="M76.4,73.7c-0.3,0-0.7,0.1-0.9,0.3"/>
						<path class="st17" d="M76.5,74.1c-0.2,0-0.7,0.1-0.9,0.3"/>
						<path class="st17" d="M76.2,71.9c0.3-0.2,0.8-0.4,1.1-0.4"/>
						<path class="st17" d="M76.3,72.2c0.3-0.2,0.8-0.4,1.1-0.4"/>
						<path class="st17" d="M76.4,72.6c0.2-0.2,0.8-0.4,1.1-0.4"/>
						<path class="st17" d="M76.5,72.9c0.2-0.2,0.7-0.4,1.1-0.4"/>
						<path class="st17" d="M76.6,73.3c0.2-0.2,0.7-0.4,1-0.4"/>
						<path class="st17" d="M76.8,73.6c0.2-0.2,0.7-0.4,1-0.4"/>
						<path class="st17" d="M76.9,74c0.2-0.2,0.7-0.4,1-0.4"/>
					</g>
					<g>
						<path class="st18" d="M84.3,86.3c0.8,0,1.9,0.2,2.2,0.3c-0.3-0.3-0.9-0.5-1.4-0.7c0.7,0.1,0.9,0.2,1.4,0.4
							c0.3,0.1,0.4,0.1,0.4,0.6c0,0.3,0,0.7,0.2,0.1c0.2-0.6,0.2-0.7-0.1-0.9c-0.4-0.2-0.8-0.5-1.3-0.6c0.9,0.2,1.7,0.6,2.1,0.9
							c-0.2-0.4-0.6-0.8-1.1-1.1c0.6,0.1,1.3,0.4,1.8,0.7c-0.2-0.3-0.7-0.9-1.2-1.1c0.8,0.2,1.7,0.4,2.2,0.7c-0.4-0.6-1-1.1-1.7-1.4
							c0.9,0.1,1.8,0.4,2.2,0.6c-0.6-0.5-1.1-1.1-1.6-1.2c0.8,0.1,1.4,0.3,1.9,0.5c-0.5-0.5-1.4-0.9-2.2-1.1c0.6,0,1.3,0.1,1.9,0.2
							c-0.5-0.3-1.4-0.6-1.8-0.5c0.9-0.2,2-0.2,3.1,0.2c-0.5-0.3-1.3-0.6-2.2-0.8c0.4,0,1.1-0.1,1.6-0.1c-0.4-0.1-1.6-0.4-2.1-0.4
							c0.9-0.3,1.9-0.4,2.4-0.6c-1-0.1-2.1,0-3,0.2c1.1-0.9,1.9-0.9,2.6-1c0.7-0.1,1.2-0.3,0.5-0.4c-0.5-0.1-0.9-0.1-1.2-0.1
							c0.8-0.2,1.7-0.7,2-0.9c0.3-0.2,1.1-0.7,0.3-0.4c-0.8,0.4-2,0.4-3.1,0.6c-0.5,0.1-0.8,0.1-1.1,0.3c0.6-0.3,1.2-0.7,1.9-1
							c0.7-0.3,0.6-0.4,1.1,0.2c0.3,0.3,0.3,0-0.1-0.9c-0.3-0.7-0.6-0.4-1.2-0.1c-0.2,0.1-0.6,0.2-0.9,0.4c0.4-0.4,1.7-2,1.9-2.2
							c0.2-0.3,0.6,0.1,1,0.3c0.4,0.3,0.3,0-0.1-0.4c-0.4-0.5-0.6-0.6-0.9-0.3s-1.6,1.1-2.3,1.8c1.4-1.3,2.9-2.7,3.3-3.1
							c-0.8,0.4-1.5,0.9-2.1,1.4c0.2-0.3,0.6-0.9,0.8-1.1c-0.3,0.2-0.7,0.4-1,0.7c0.4-0.6,0.7-1.2,0.8-1.4c0.1-0.1,0.2-0.2,0.3-0.2
							c0.1,0,0.3,0,0.7-0.1c0.4,0,0.2-0.1,0.1-0.1c-1.1-0.3-1-0.1-1.3,0.1c-0.2,0.2-0.4,0.4-0.7,0.8c0.3-0.9,1.1-1.6,1.2-1.9
							c-0.9,0.5-1.3,0.9-1.6,1.2c0.4-0.6,1.6-1.6,2-2c-0.4,0.1-1.2,0.6-1.4,0.8c0.2-0.4,0.4-0.7,0.6-1.1c-0.7,0.4-1.1,1-1.5,1.6
							c0-0.1,0.1-0.4,0.2-0.6c0.2-0.4,0.8-1,1.1-1.3c0.3-0.3,0.4-0.4,1.2,0.1c-0.1-0.4-0.3-0.6-0.4-0.9c-0.3-0.4-0.4-0.2-0.7,0.1
							c-0.2,0.1-0.4,0.4-0.7,0.7c0.4-1,0.8-2,1-2.6c-0.6,0.6-1.1,1.4-1.5,2.4c0-0.7,0.4-2,0.3-2.7c-0.3,0.4-0.6,1-0.8,1.7
							c0-0.7,0-1.6-0.2-2.2c0.1,0.4-0.4,1.5-0.5,2.2c-0.3-0.7-0.6-1.4-0.8-1.8c0,0.4,0.1,1.2,0.3,2.2c-0.2-0.8-1.1-1.6-1.1-2.1
							c0,0.9,0.6,2.4,0.7,2.8c0,0.1,0.1,0.4,0.1,0.6c-0.3-0.5-1-1.4-1.2-1.9c0,0.4,0.1,1,0.2,1.4c-0.4-0.4-0.6-0.1-1.3,1.1
							c0.2-0.1,0.4-0.3,0.6-0.4c0.2-0.1,0.4-0.3,0.6,0.1c0.2,0.4,0.9,1.3,1.3,2.5c-0.1-0.3-0.7-1.1-0.9-1.5c0.1,0.2,0.1,0.7,0.2,1
							c-0.3-0.8-0.6-1.4-0.8-1.7c0,0.4,0.3,1.5,0.3,2c-0.2-0.4-0.4-0.8-0.5-1.1c0.1,0.3,0.3,1.4,0.3,2c-0.3-0.4-0.5-0.8-0.7-1.1
							c0.1,0.4,0.3,1.4,0.3,1.9c-0.1-0.2-0.2-0.3-0.2-0.4c-0.3-0.5-0.5,0.4-0.7,0.9c-0.2,0.4-0.1,0.4,0.1,0.1
							c0.3-0.5,0.3-0.4,0.5,0.1c0.1,0.3,0.4,1.1,0.7,2c-0.3-0.4-0.6-1-0.8-1.4c-0.2-0.4-0.2-0.4,0,0.4c0.1,0.6,0.5,1.6,0.4,2.7
							c-0.2-0.7-0.4-1.5-0.7-2.3c0,0.5,0.1,1.4,0.1,1.7c-0.1-0.2-0.2-0.4-0.4-0.5c0.2,0.6,0.3,1.7,0.3,2.4c-0.1-0.4-0.3-0.9-0.4-1.1
							c0,0.5,0.1,1.7,0.2,2.2c-0.1-0.4-0.3-0.8-0.4-1.2c0.1,0.6,0.1,1.5,0,2.1c0-0.3-0.1-0.6-0.2-0.9c-0.1,0.3-0.1,1.1-0.3,1.5
							c0.1-0.5,0.1-1,0.1-1.3c-0.1,0.6-0.4,1.1-0.6,1.5c0.1-0.3,0.2-0.8,0.2-1.3c-0.1,0.3-0.3,0.6-0.4,0.9c0.1-0.4,0.1-0.8,0.1-1
							c-0.2,0.8-0.6,1.3-1,1.9c0.2-0.6,0.3-1.3,0.3-1.7c-0.4,0.7-0.4,1-1.1,1.8c0.3-0.7,0.3-1.3,0.2-1.6c-0.1,0.2-0.3,0.7-0.6,1.2
							c-0.1-0.4,0-1.4,0.1-1.6c-0.3,0.2-0.6,0.7-0.6,1.1c-0.1-0.4-0.3-0.8-0.5-1c0.2,1.4,0.1,2.5-0.7,3.1c-1.8,1.2-3.4,3.8-5.6,4.8
							c0.1,0.1,0.5,0.4,0.7,0.6c2.1-0.9,3.6-3.1,5.2-4.2c0.8-0.4,2.6,0.5,4.6,0c0.8-0.2,2.2,0.2,2.9,0.5
							C85.9,86.8,85.3,86.5,84.3,86.3z"/>
						<path class="st9" d="M86.1,82c0.5-0.4,1.3-0.8,1.9-0.9"/>
						<path class="st9" d="M85.2,84.3c0.8-0.8,1.8-1.5,3-1.8"/>
						<path class="st9" d="M89.2,81.9c-0.7-0.1-1.3-0.2-1.8,0"/>
						<path class="st9" d="M86.8,83.4c0.5-0.1,1.1,0,1.6,0"/>
						<path class="st9" d="M87.2,82.9c0.2,0,0.5,0,0.9,0"/>
						<path class="st9" d="M85,83.2c0.3-0.5,0.6-1.5,0.8-2.2c0,0.6,0,1.7-0.6,2.8"/>
						<path class="st9" d="M83.3,85c0.6-0.2,1.7-0.3,2.4-0.1c-0.4-0.3-0.9-0.6-1.7-0.6"/>
						<path class="st9" d="M79.6,83.5c0.1,0.3,0.1,0.6,0.1,0.9"/>
						<path class="st9" d="M79,85.5c0.4-0.4,0.8-0.9,1.1-1.5"/>
						<path class="st9" d="M79.5,85.6c0.5-0.4,0.8-0.8,0.9-1.2"/>
						<path class="st9" d="M82.2,83.3c-0.1,0.6-0.3,1.6-1.1,2.2"/>
						<path class="st9" d="M81.2,84.2c-0.1,0.3-0.3,0.6-0.5,0.8"/>
						<path class="st9" d="M81.8,84.6c0.2-0.2,0.4-0.5,0.6-0.9"/>
						<path class="st9" d="M82,85.5c0.6-0.6,0.8-1.5,0.9-2"/>
						<path class="st9" d="M84.9,79.5c0.2,0.6,0.4,1.5,0.4,2.3"/>
						<path class="st9" d="M84.2,79c0.4,0.7,0.7,2.7,0.5,4.5"/>
						<path class="st9" d="M84.1,80.9c0.1,0.4,0.5,1.7,0.4,2.6"/>
						<path class="st9" d="M83.9,82c0.1,0.6,0.2,1.4,0.1,2"/>
						<path class="st9" d="M83.4,83c0.1,0.6-0.1,1.8-0.8,2.5"/>
						<path class="st9" d="M86.2,79.2c0-1.7-0.9-3.3-1.2-4.1"/>
						<path class="st9" d="M86.1,73.1c0.4,1.1,1.1,2.6,0.9,4.9"/>
						<path class="st9" d="M85.6,73.4c0.4,0.9,1,2.2,1,3.7"/>
						<path class="st9" d="M85.3,74.4c0.5,0.9,1.1,2.3,1.1,3.9"/>
						<path class="st9" d="M85.3,77.9c0.2,0.7,0.4,1.7,0.4,2.8"/>
						<path class="st9" d="M87.5,74c-0.3-1.4-0.7-2.1-1.3-3c-0.2-0.3-0.4-0.5-0.5-0.6"/>
						<path class="st9" d="M86.8,73.6c0.2,0.7,0.6,1.6,0.4,2.4"/>
						<path class="st9" d="M86.6,71c0.1,0.5,0.3,1.1,0.4,1.5"/>
						<path class="st9" d="M87.6,72.9c-0.3-1-0.5-2.1-0.6-3.1"/>
						<path class="st9" d="M88.2,71.7c0-0.6-0.3-1.5-0.6-2.3"/>
						<path class="st9" d="M88.3,69.4c0,0.3,0,0.6,0,0.8"/>
						<path class="st9" d="M87.8,73.2c0.3-0.9,0.6-1.9,0.9-2.8"/>
						<path class="st9" d="M88.7,72c0.1-0.4,0.3-0.9,0.5-1.3"/>
						<path class="st9" d="M87.5,74.7c0.3-0.8,0.6-1.5,1-2.2"/>
						<path class="st9" d="M87.4,76c0.4-1,0.5-1.9,1.1-2.6c0.4-0.4,0.7-0.9,0.9-1.4"/>
						<path class="st9" d="M88.1,74.8c0.3-0.6,0.4-1.1,0.8-1.6"/>
						<path class="st9" d="M87.5,76.6c0.4-0.7,1.1-1.9,1.8-2.7"/>
						<path class="st9" d="M88.8,75.8c0.1-0.3,0.3-0.7,0.5-1"/>
						<path class="st9" d="M87.3,77.5c0.5-0.7,1.3-1.5,2.3-2.3"/>
						<path class="st9" d="M86.8,78.9c0.5-0.7,1-1.4,1.6-1.9"/>
						<path class="st9" d="M86.8,79.4c0.6-0.7,1.3-1.2,1.9-1.5"/>
						<path class="st9" d="M86.4,80.6c0.7-0.7,1.1-1.1,1.5-1.4"/>
						<path class="st9" d="M85.8,82.8c0.6-0.6,1.7-1.1,2.8-1.4"/>
						<path class="st9" d="M86.4,81.3c0.9-0.8,1.9-1.7,3.4-1.7"/>
						<path class="st9" d="M85.8,84.2c0.6-0.2,1.4-0.2,2.1-0.1"/>
						<path class="st9" d="M86.1,84.5c0.4,0,0.8,0.1,1.2,0.2"/>
						<path class="st9" d="M86.7,85.1c-0.3-0.1-0.5-0.3-0.9-0.4"/>
						<path class="st9" d="M85.7,85.4c-0.7-0.3-1.5-0.5-2.2-0.4"/>
						<path class="st9" d="M83,85.6c0.6-0.1,1.4,0.1,2,0.3"/>
						<path class="st9" d="M83.7,86.3c0.1,0,0.4-0.1,0.6-0.1"/>
					</g>
					<g>
						<g>
							<path class="st18" d="M69,84.9c0.4-0.1,1.4-0.1,2.2,0.1c-0.5-0.2-0.2-1.4-0.8-1.9c0.6,0.3,0.9,0.2,1.3,0.3c0,0,0.1,0,0.1,0
								c0-0.2,0-0.5,0.1-0.7c0.1,0.3,0.4,0.4,0.8,0.6c0.1,0,0.1,0.1,0.1,0.1c0-0.4,0.6-0.9,0.6-1.2c0.1,0.4,0.4,0.6,0.6,1.1
								c0.3,1.3-0.7,1.6-0.3,2.5c1.8,1.2,3.4,3.6,5.6,4.6c-0.1,0.1-0.5,0.4-0.7,0.6c-2.9-1.3-4.8-5.1-7.5-5.3
								c-0.1,0-0.1,0.1-0.2,0.1c-0.7,0.3-1.3,0.6-1.9,0.4s-1.1,0.1-1.6,0.3C68.1,85.4,68.6,85,69,84.9c-0.4,0.1-1.1,0.3-1.7,0
								c-0.3,0.8-1.1,1-1.8,1.1c-0.7,0.1-1.2,0.4-1.4,0.8c-0.1-0.4-0.1-1,0.1-1.1c-0.3,0-0.7-0.1-1.1,0c0.4-0.1,0.8-1.3,1.8-1.5
								c-0.2-0.1-0.4-0.3-0.5-0.5c0.2,0.1,0.5,0,0.9-0.1c0.2-0.1,0.6-0.1,0.9-0.1c-0.4-0.2-0.6-0.7-0.7-1c-0.3,0.9-1.4,1.2-2,1.2
								c-0.7,0.1-1.1,0.3-1.2,0.5c0-0.4,0.1-0.8,0.3-1.1c-0.3,0-0.6,0-0.7,0.1c0.1-0.7,0.5-1.1,0.8-1.4c-0.4-0.1-1.1-0.9-1.1-1.4
								c0.4,0.4,1.8,0,2.5,0.8c-0.4-0.4-0.7-0.9-0.7-1.4c0.2,0.2,0.5,0.2,0.9,0.4c-0.5-1.7-1.6-1.3-2.4-1.9
								c-0.9-0.7-0.5-1.9-1.2-2.5c0.3,0,0.6,0,0.8,0.1c-0.1-0.4-0.1-1.1-0.1-1.5c0.2,0.6,0.8,0.5,1.1,1c0.1-0.1,0.1-0.3,0.1-0.4
								c0.3,0.3,0.5,0.6,0.7,0.9c-0.1-0.6,0.2-0.9,0.4-1.1c0,0.2,0.1,0.7,0.3,1.1c0.2,0.4,0.3,1,0.1,1.8c-0.1,0.8,0.1,1.4,0.6,2
								c0.1-0.4,0-1.4-0.1-1.7s-0.1-0.9-0.1-1.4c0.1,0.2,0.4,0.6,0.6,0.9c0.1,0.1,0.1,0.2,0.2,0.3c0.1-0.2,0.2-0.4,0.2-0.6
								c0.1-0.3-1.2-0.7-1.1-2.1c-0.9-0.5-1.6-1.1-1.8-2.2c0.1,0.1,0.3,0.2,0.5,0.2c-0.5-0.7-0.6-1.6-0.4-2c0.1,0.4,0.5,0.5,0.9,0.7
								c0.1-0.8-0.7-1.3-0.7-2c0-1.1,0.6-1.2,0.9-1.9c0.1,0.3,0.3,0.5,0.4,0.8c0.1-0.5,0.7-0.9,0.7-1.2c0.3,0.4,0.5,0.9,0.4,1.4
								c0.4-0.1,0.9,0,1.1,0.1c-0.7,0.1-0.7,1-1.2,1.3s-1.4,0.9-1.2,1.8c0.3,0.3,0.6,0.9,0.7,1.8c0.1,0.1,0.3,0.3,0.4,0.5
								c0.1-0.2,0.2-0.4,0.3-0.7c-0.1-0.4-0.6-0.8-0.7-1.2c-0.2-0.5,0.3-1.2,0.1-1.9c0.2,0.1,0.6,0.2,0.9,0.6
								c0.2-0.5,0.6-0.9,0.7-1.7c0.2,0.4,0.3,0.7,0.4,1.1c0.3-0.4,0.8-0.8,1.3-0.9c-0.4,0.6-0.2,1.2-0.2,1.7c0,0.5,0,1.3-0.8,1.9
								c-0.7,0.6-0.9,0.7-1.1,2.1c0.3-0.7,1.1-1.2,1.1-1.5c0.1,0.6,0.3,1.1,0.3,1.6c0.2-0.3,0.7-0.4,1.2-0.5
								c-0.4,0.4-0.6,2.1-1.6,2.3c-1,0.2-1.4,1.2-1.6,1.6c-0.3,0.5-0.4,0.9-0.1,1.6c0-0.5,0.1-1.1,0.3-1.4c0.3-0.6,1-0.9,1.1-1.4
								c0.1,0.5,0.1,0.9,0.1,1.2c0.5-1,1.5-0.7,1.8-1c-0.2,0.3-0.4,0.6-0.5,1.1c-0.1,0.5-0.5,1-1.1,1.3c-0.4,0.2-0.9,0.2-1.1,0.7
								c-0.1,0.3,0.2,0.5,0.2,0.9c0-0.1,0.1-0.3,0.1-0.4c0.3-0.4,0.4-0.7,0.4-0.9c0.6,0.6,0.7,1.2,0.6,1.8c-0.2,0.6-0.4,1.2,0.1,1.7
								c0.2,0.2,0.5,0.4,0.8,0.4c0.3-0.3-0.1-0.7-0.4-1.1c-0.4-0.4-0.3-1.3,0-1.6c0.3-0.4,0.6-0.8,0.6-1.1c0.2,0.2,0.5,0.6,0.6,0.8
								c0.1-0.3,0.3-0.6,0.5-0.7c0.1,0.5,0.4,0.8,0.4,1.4c0.1-0.4,0.4-0.6,0.8-0.8c-0.1,0.3,0.2,0.7,0.2,1c0,0.2,0,0.5-0.1,0.7
								c-0.1,0.3-0.3,0.6-0.7,0.8c-0.1,0.1-0.4,0.1-0.6,0.2c0.5-0.1,1.5,0.1,1.7,0.5C70.2,84.4,69.4,84.7,69,84.9z"/>
						</g>
						<g>
							<path class="st9" d="M63.6,71.5c0.1-1.1,0.7-2.2,1.2-2.4c0.1-0.1,0.2-0.1,0.3-0.1"/>
							<path class="st9" d="M63.6,68.3c0.1,0.6-0.3,1.6-0.2,2.4"/>
							<path class="st9" d="M65.6,69.2c-0.6,0.1-1.4,1.2-1.6,1.5"/>
							<path class="st9" d="M64.8,70.9c0.3,0.3,0.3,1.4,0.4,1.8"/>
							<path class="st9" d="M66.3,70.4c0.1,0.6-0.4,1.6-0.4,2.2"/>
							<path class="st9" d="M62.6,71.6c0.2,0.6,1.1,1.1,1.3,1.6"/>
							<path class="st9" d="M62.8,73.4c0.2,0.4,1.1,0.7,1.3,1"/>
							<path class="st9" d="M63.5,78.9c-0.3-0.8-0.9-0.4-1.1-1.6c-0.1-0.7-0.3-1.1-1-1.2"/>
							<path class="st9" d="M66.9,74.5c-0.4,0.7-0.2,1.5-0.7,2.1"/>
							<path class="st9" d="M64.6,74.9c0.1,0.7,0.6,0.9,0.7,1.4"/>
							<path class="st9" d="M61.4,75c0.1,0.3,0.5,0.8,0.6,1.2"/>
							<path class="st9" d="M62.6,75.5c0.2,0.6,0.1,1.3,0.2,1.7"/>
							<path class="st9" d="M61,76.2c1,0.6,0.9,1.8,1.5,2.1"/>
							<path class="st9" d="M68.1,75.2c-0.4,0.4-0.8,1.3-1.2,1.6"/>
							<path class="st9" d="M66.4,78c-0.1,0.8-0.5,0.8-0.7,1.5"/>
							<path class="st9" d="M68,78.1c-0.6,0.3-0.9,1.4-1.7,1.8"/>
							<path class="st9" d="M63.6,80.2c0.2,0.3,0.7,0.4,0.9,0.8"/>
							<path class="st9" d="M61.8,80.9c0.4,0.4,1.3,0.3,1.7,0.6"/>
							<path class="st9" d="M62.3,83c0.4-0.4,1.4-0.6,1.9-0.9"/>
							<path class="st9" d="M62.7,83.7c0.4-0.4,1.5-0.3,2-1"/>
							<path class="st9" d="M66.6,81.1c0.1,0.4-0.3,1.4-0.1,1.9"/>
							<path class="st9" d="M68.1,81.2c0,0.6-0.4,1.4-0.2,1.9"/>
							<path class="st9" d="M68.9,81.1c-0.2,0.8,0,1.3-0.2,1.8"/>
							<path class="st9" d="M63.7,85.4c0.6-0.3,1.7-0.1,2.3-0.4"/>
							<path class="st9" d="M67.9,86c0.6-0.6,2.3-0.3,2.9-0.6"/>
							<path class="st9" d="M70,81.9c-0.3,0.6-0.1,1.1-0.4,1.4"/>
							<path class="st9" d="M70.9,83.5c0.7,0.3,1.1,1,1.5,1.2"/>
							<path class="st9" d="M73.5,82.7c0.3,0.7-0.1,1.3,0,1.6"/>
							<path class="st9" d="M71.9,82.9c0.1,0.4,0.6,0.5,0.8,0.9"/>
							<path class="st9" d="M68.6,84.7c0.5-0.3,1.1-0.3,1.6-0.3"/>
							<path class="st9" d="M64.4,77.1c0.1,0.7,0.5,1.1,0.4,1.5"/>
							<path class="st9" d="M64.8,84c0.4,0.2,1.3-0.1,1.9,0.2"/>
							<path class="st9" d="M64.7,68c0,0.4-0.3,0.7-0.4,1.2"/>
							<path class="st9" d="M64,68.8c0.2,0.5,0.2,0.9,0.1,1.4"/>
							<path class="st9" d="M63.8,72.2c-0.1-0.1-0.2-0.2-0.4-0.3"/>
							<path class="st9" d="M64.5,74c-0.5-0.4-1.1-0.6-1.6-0.8"/>
							<path class="st9" d="M65.2,73.8c0.2-0.5,0.3-1.1,0.2-1.6c0-0.4,0-0.7,0.1-0.9"/>
							<path class="st9" d="M65.2,75.1c-0.1-0.8,0.3-1.4,1.2-2.3c0.4-0.4,0.4-1.2,0.2-2.1"/>
							<path class="st9" d="M64.9,74.5C65,74.6,65,74.8,65,75"/>
							<path class="st9" d="M62.1,76.4c0-0.3,0.2-0.6,0.3-0.9"/>
							<path class="st9" d="M64.5,79.8C64.6,79.9,64.6,79.9,64.5,79.8"/>
							<path class="st9" d="M65.8,75.9c-0.2-0.8-1.2-1.1-1.4-1.4c-0.1,0.2-0.1,0.5-0.1,0.7"/>
							<path class="st9" d="M67.2,75.5c0,0.4-0.1,0.7-0.4,1.1c-0.6,0.7-1.2,0.9-1.5,2.1"/>
							<path class="st9" d="M65.4,77.3c0.2-0.5,0.4-0.9,0.4-1.3c0-0.2,0.1-0.4,0.1-0.6"/>
							<path class="st9" d="M65.2,77.9c0.1,0.4,0,0.8-0.1,1.2"/>
							<path class="st9" d="M65.1,80.5c0,0,0-0.1,0-0.1"/>
							<path class="st9" d="M66.6,78.8c0,0.4-0.2,0.7-0.5,1c-0.6,0.4-0.6,0.8-0.6,1.1"/>
							<path class="st9" d="M64.8,81c-0.2-0.4-0.4-0.6-0.6-0.7"/>
							<path class="st9" d="M64.3,81.5c-0.1-0.1-0.2-0.1-0.3-0.2"/>
							<path class="st9" d="M64.9,81.2c-0.5,0.4-0.9,0.4-1.4,0.5c-0.2,0-0.5,0.1-0.8,0.3"/>
							<path class="st9" d="M65.2,81.4c-0.3,0.1-0.6,0.8-1.2,1.4c-0.4,0.4-0.9,0.4-1.4,0.5"/>
							<path class="st9" d="M65.6,81.4c0-0.2,0.1-0.4,0.1-0.5"/>
							<path class="st9" d="M65.4,82.5c0.1-0.2,0.1-0.4,0.1-0.6"/>
							<path class="st9" d="M66.1,83.5c0.3,0,0.6,0.1,0.8,0.3c0.1,0.1,0.1,0.1,0.2,0.2"/>
							<path class="st9" d="M67.8,84.5c0.1,0,0.2,0,0.2,0"/>
							<path class="st9" d="M66.3,83.4c-0.3-0.5-0.4-1.1-0.4-1.5"/>
							<path class="st9" d="M64.1,85.7c0.4,0,0.6,0.1,0.8,0.1c0.5,0,1.5-0.2,1.9-1"/>
							<path class="st9" d="M64.8,84.2c0.7,0.5,1.8,0.6,2.9,0.5"/>
							<path class="st9" d="M67.2,84.9c0,0,0.1,0,0.1,0.1"/>
							<path class="st9" d="M68.3,84c0.2-0.3,0.2-0.8,0.1-1.2c-0.1-0.3-0.1-0.9,0.1-1.4"/>
							<path class="st9" d="M68.7,84.1c0.3-0.4,0.4-0.7,0.5-1.2c0-0.2,0.1-0.5,0.2-0.8"/>
							<path class="st9" d="M68.3,84.6c0.1-0.2,0.4-0.4,0.6-0.5"/>
							<path class="st9" d="M69.2,84.8c-0.1,0-0.1,0-0.2,0.1"/>
							<path class="st9" d="M72.5,85.4c-0.5,0-0.8,0.1-1.4,0.3"/>
							<path class="st9" d="M73.1,85.3c0-1.2-0.9-1.8-1.3-1.9"/>
							<path class="st9" d="M71.8,85.1c0.7,0.1,1.3,0.3,1.9,0.7"/>
							<path class="st9" d="M72.8,83.4c0.3,0.3,0.6,0.9,0.4,1.7"/>
							<path class="st9" d="M63.1,75.9c0.2,0.4,0.2,1,0.1,1.5c-0.1,0.6-0.1,0.8-0.1,1"/>
							<path class="st9" d="M72.4,85.3c-0.4-0.1-0.8-0.2-1.3-0.3"/>
							<path class="st9" d="M69,84.1c-0.3,0.1-0.5,0.2-0.7,0.5"/>
							<path class="st13" d="M67.5,70.4c-0.4,0.8-0.1,1.8-0.8,2.6c-0.6,0.7-1.2,1.1-1.1,2.3"/>
						</g>
					</g>
					<g>
						<path class="st12" d="M74.1,88.2c-0.4,0-0.9,0.1-1.1,0.3c0.1,0.2,0.1,0.9,0.1,1.1c0.2-0.1,0.7-0.3,1-0.4L74.1,88.2L74.1,88.2z
							"/>
						<path class="st12" d="M75.7,88.3c-1-0.4-1.6-0.2-1.6,0.1c0,0.3,0,0.8,0,0.9s0.4,0.4,1.6,0.1V88.3z"/>
						<path class="st9" d="M75.7,89.3C74.6,89,74,89,74,89.3"/>
						<path class="st12" d="M78,88.2c0.4,0,0.9,0.1,1.1,0.3c-0.1,0.2-0.1,0.9-0.1,1.1c-0.2-0.1-0.7-0.3-1-0.4L78,88.2L78,88.2z"/>
						<path class="st12" d="M76.5,88.3c1-0.4,1.6-0.2,1.6,0.1c0,0.3,0,0.8,0,0.9s-0.4,0.4-1.6,0.1V88.3z"/>
						<path class="st9" d="M76.5,89.3c1.1-0.3,1.6-0.3,1.6-0.1"/>
						<path class="st12" d="M76,88.1c0.5,0,0.6,0.1,0.6,0.6s-0.1,0.6-0.6,0.6c-0.5,0-0.6-0.1-0.6-0.6S75.6,88.1,76,88.1z"/>
					</g>
					<g>
						<g>
							<path class="st13" d="M62.2,89.3c-0.2,0.1-0.4,0.5-0.5,0.8"/>
							<path class="st13" d="M62.3,89.5c-0.2,0.1-0.4,0.5-0.5,0.8"/>
							<path class="st13" d="M62.5,89.7c-0.2,0.1-0.4,0.5-0.5,0.8"/>
							<path class="st13" d="M62.7,89.8c-0.2,0.1-0.4,0.5-0.6,0.8"/>
							<path class="st13" d="M62.8,90c-0.2,0.1-0.4,0.5-0.6,0.8"/>
							<path class="st13" d="M63,90.2c-0.2,0.1-0.4,0.5-0.6,0.8"/>
							<path class="st13" d="M63.1,90.3c-0.2,0.1-0.4,0.5-0.6,0.8"/>
							<path class="st13" d="M63.3,90.5c-0.1,0.1-0.4,0.5-0.6,0.8"/>
							<path class="st13" d="M63.5,90.7c-0.1,0.1-0.4,0.5-0.6,0.9"/>
							<path class="st13" d="M63.6,90.8c-0.1,0.1-0.4,0.5-0.6,0.9"/>
						</g>
						<g>
							<path class="st13" d="M89.9,89.3c0.2,0.1,0.4,0.5,0.5,0.8"/>
							<path class="st13" d="M89.8,89.5c0.2,0.1,0.4,0.5,0.5,0.8"/>
							<path class="st13" d="M89.6,89.7c0.2,0.1,0.4,0.5,0.5,0.8"/>
							<path class="st13" d="M89.4,89.8c0.2,0.1,0.4,0.5,0.6,0.8"/>
							<path class="st13" d="M89.3,90c0.2,0.1,0.4,0.5,0.6,0.8"/>
							<path class="st13" d="M89.1,90.2c0.2,0.1,0.4,0.5,0.6,0.8"/>
							<path class="st13" d="M89,90.3c0.1,0.1,0.4,0.5,0.6,0.8"/>
							<path class="st13" d="M88.8,90.5c0.1,0.1,0.4,0.5,0.6,0.8"/>
							<path class="st13" d="M88.6,90.7c0.1,0.1,0.4,0.5,0.6,0.9"/>
							<path class="st13" d="M88.5,90.8c0.1,0.1,0.4,0.5,0.6,0.9"/>
						</g>
						<path class="st12" d="M76,87.3c2.8,0,5,0.2,6.8,0.5c-0.2,0.2-0.4,0.4-0.6,0.5c-0.2,0.1-0.1,0.5,0.3,0.8
							c0.4,0.3,1.3,0.6,2.1,0.2c0.2-0.1,0.4-0.1,0.5-0.2c-0.3,0.2-0.4,0.5-0.4,0.7c0.5,1.2,2.5-0.4,3.7,1.1c0.3-0.4,1.1-1.3,1.5-1.6
							c-0.7-0.8-1.6-0.7-2.4-0.6c0.3-0.5,0.3-0.9-0.3-1.3c-0.3-0.2-1.1-0.1-1.9,0.2c0.1-0.4,0.1-1-1.1-1.6c-1.9-0.9-5.1-1-8.2-1
							c-3,0-6.3,0.2-8.2,1c-1.3,0.6-1.3,1.2-1.1,1.6c-0.8-0.4-1.7-0.4-1.9-0.2c-0.6,0.4-0.6,0.8-0.3,1.3c-0.8-0.1-1.7-0.2-2.4,0.6
							c0.3,0.3,1.1,1.2,1.5,1.6c1.2-1.5,3.2,0.1,3.7-1.1c0.1-0.3-0.1-0.5-0.4-0.7c0.2,0.1,0.3,0.1,0.5,0.2c0.9,0.4,1.8,0.1,2.1-0.2
							c0.4-0.3,0.4-0.7,0.3-0.8s-0.3-0.3-0.6-0.5C71.1,87.4,73.3,87.3,76,87.3z"/>
						<path class="st9" d="M69.3,87.8c-0.1,0-0.3,0.1-0.4,0.1c-0.8,0.2-1.8,0.9-0.9,1"/>
						<path class="st9" d="M67.3,89.9c0.1-0.4-0.3-0.4-0.6-0.3c-0.3,0.1-0.7,0.1-1.1,0.1c-0.6,0-0.9-0.6-0.5-1
							c0.3-0.3,1.1,0,1.9,0.4"/>
						<path class="st9" d="M69.8,88.3c-0.2-0.1-0.5-0.1-0.8,0.1c-0.3,0.2-0.7,0.4-1.2,0.5c-0.4,0-0.6-0.4-1-1c0-0.1-0.1-0.1-0.1-0.2
							"/>
						<path class="st9" d="M64.5,88.8c0.1,0.2,0.3,0.4,0.4,0.6"/>
						<path class="st9" d="M82.8,87.8c0.1,0,0.3,0.1,0.4,0.1c0.8,0.2,1.8,0.9,0.9,1"/>
						<path class="st9" d="M84.8,89.9c-0.1-0.4,0.3-0.4,0.6-0.3c0.3,0.1,0.7,0.1,1.1,0.1c0.6,0,0.9-0.6,0.5-1
							c-0.3-0.3-1.1,0-1.9,0.4"/>
						<path class="st9" d="M82.3,88.3c0.2-0.1,0.5-0.1,0.8,0.1c0.3,0.2,0.7,0.4,1.2,0.5s0.6-0.4,1-1c0-0.1,0.1-0.1,0.1-0.2"/>
						<path class="st9" d="M87.6,88.8c-0.1,0.2-0.3,0.4-0.4,0.6"/>
					</g>
					<g>
						<g>
							<path class="st8" d="M76,85.7c0.1,0,0.2,0,0.4,0c0.1,0,0.4,0,0.4,0.5c0,0.3-0.1,0.6-0.4,0.6c-0.2,0-0.4,0-0.4,0v-0.6h0.2v0.4
								c0,0,0.1,0,0.1,0c0.1,0,0.2,0,0.2-0.4c0-0.3-0.2-0.4-0.2-0.4c0,0-0.2,0-0.2,0v0.4H76L76,85.7L76,85.7z"/>
						</g>
						<g>
							<path class="st8" d="M77.4,86.7c-0.1,0-0.3-0.2-0.3-0.4s0.1-0.4,0.3-0.4c0.1,0,0.3,0.2,0.3,0.4
								C77.6,86.5,77.5,86.7,77.4,86.7v0.2c0.3,0,0.4-0.2,0.4-0.6c0-0.4-0.2-0.6-0.4-0.6S77,85.9,77,86.3c0,0.4,0.2,0.6,0.4,0.6
								V86.7z"/>
						</g>
						<g>
							<polygon class="st8" points="78.5,86.9 78.7,86 78.7,86.9 78.9,86.9 78.9,85.7 78.6,85.7 78.4,86.6 78.3,85.7 78,85.7 
								78,86.9 78.1,86.9 78.2,86 78.3,86.9 							"/>
						</g>
						<g>
							
								<rect x="78.6" y="86.2" transform="matrix(3.868914e-02 -0.9993 0.9993 3.868914e-02 -10.1505 162.1094)" class="st8" width="1.1" height="0.2"/>
						</g>
						<g>
							<polygon class="st8" points="79.7,85.8 80,86.6 80,85.8 80.2,85.8 80.2,87 80,87 79.6,86.1 79.6,86.9 79.4,86.9 79.5,85.8 
															"/>
						</g>
						<g>
							
								<rect x="79.9" y="86.3" transform="matrix(8.278625e-02 -0.9966 0.9966 8.278625e-02 -12.2916 159.4766)" class="st8" width="1.1" height="0.2"/>
						</g>
						<g>
							<path class="st8" d="M81.6,86.3c0-0.2-0.1-0.4-0.4-0.5c-0.3,0-0.4,0.2-0.5,0.6c-0.1,0.4,0.1,0.6,0.3,0.6
								c0.2,0,0.4-0.1,0.5-0.4l-0.2,0c0,0.1-0.1,0.2-0.2,0.2c-0.1,0-0.2-0.2-0.2-0.4c0-0.2,0.1-0.4,0.3-0.4c0.2,0,0.2,0.1,0.2,0.2
								L81.6,86.3z"/>
						</g>
						<g>
							<polygon class="st8" points="82.1,87 82.2,87.2 82.3,87.3 82.2,86.1 82,86 81.5,87.1 81.7,87.1 81.8,86.9 82,86.9 82,86.8 
								81.9,86.7 82.1,86.3 82.1,86.8 82,86.8 82,86.9 							"/>
						</g>
						<g>
							<polygon class="st8" points="82.9,86.2 83.1,87.1 83.3,86.3 83.5,86.3 83.2,87.5 83,87.4 82.8,86.5 82.7,87.3 82.5,87.3 
								82.7,86.1 							"/>
						</g>
						<g>
							<polygon class="st8" points="83.9,87.5 83.9,87.7 84.1,87.8 84.2,86.6 84,86.5 83.3,87.5 83.5,87.6 83.6,87.3 83.8,87.4 
								83.8,87.2 83.7,87.2 84,86.8 84,87.3 83.8,87.2 83.8,87.4 							"/>
						</g>
						<g>
							<path class="st8" d="M67.6,86.7l0.1,0.3l0.2-0.1l-0.1-0.1c0,0,0.2-0.1,0.2-0.1c0.1,0,0.1,0,0.2,0.1c0,0.1,0,0.2-0.1,0.2
								c-0.1,0-0.2,0.1-0.2,0.1l-0.1-0.2L67.7,87l0.3,0.8l0.2-0.1L68,87.2c0,0,0.1,0,0.2-0.1c0.1,0,0.1,0,0.2,0.1
								c0.1,0.1,0.1,0.3,0.1,0.3l0.2-0.1c0,0-0.1-0.2-0.1-0.3c-0.1-0.1-0.1-0.2-0.2-0.1c0.1,0,0.1-0.1,0.1-0.3
								c-0.1-0.1-0.2-0.3-0.3-0.2C68,86.6,67.6,86.7,67.6,86.7z"/>
						</g>
						<g>
							<path class="st8" d="M69.6,86.1l0.1,0.4l0.2,0l0-0.2c0,0,0.1,0,0.2,0c0.1,0,0.1,0,0.2,0.1c0,0.1,0,0.2-0.1,0.2
								c-0.1,0-0.2,0-0.2,0l0-0.1l-0.2,0l0.1,0.7l0.2,0l-0.1-0.4c0,0,0.1,0,0.2-0.1c0.2,0,0.2-0.3,0.2-0.4c0-0.2-0.2-0.3-0.3-0.3
								C69.8,86.1,69.6,86.1,69.6,86.1z"/>
						</g>
						<g>
							<path class="st8" d="M70.9,86.9c0.1,0,0.2-0.1,0.1-0.2c0-0.1-0.1-0.8-0.1-0.8l0.2,0c0,0,0.1,0.6,0.1,0.8c0,0.2,0,0.4-0.3,0.4
								c-0.3,0-0.4-0.2-0.4-0.4c0-0.1-0.1-0.8-0.1-0.8l0.2,0c0,0,0.1,0.7,0.1,0.8C70.8,86.8,70.8,86.9,70.9,86.9z"/>
						</g>
						<g>
							<path class="st8" d="M71.6,87c0,0,0.3,0,0.4,0c0.2,0,0.3-0.2,0.3-0.4c0-0.1-0.1-0.2-0.1-0.3c0.1-0.1,0.1-0.2,0.1-0.3
								c0-0.2-0.2-0.3-0.4-0.3c-0.3,0-0.4,0-0.4,0l0,0.3l0.2,0V86c0,0,0.2,0,0.2,0C72,86,72,86,72,86.1c0,0,0,0.1-0.1,0.1
								c-0.1,0-0.2,0-0.2,0v-0.1l-0.2,0l0.1,0.5l0.2,0v-0.1c0,0,0.2,0,0.3,0c0.1,0,0.1,0.1,0.1,0.1s0,0.1-0.1,0.2
								c-0.1,0-0.3,0-0.3,0l0-0.2l-0.2,0L71.6,87z"/>
						</g>
						<g>
							<polygon class="st8" points="72.4,85.8 72.4,86.9 73.1,86.9 73.1,86.7 72.6,86.7 72.6,85.8 							"/>
						</g>
						<g>
							
								<rect x="73.2" y="85.7" transform="matrix(0.9987 -5.103958e-02 5.103958e-02 0.9987 -4.3094 3.8538)" class="st8" width="0.2" height="1.1"/>
						</g>
						<g>
							<path class="st8" d="M74.4,86.1c0-0.2-0.1-0.4-0.4-0.4c-0.3,0-0.4,0.2-0.4,0.6s0.2,0.6,0.4,0.6s0.4-0.2,0.4-0.4h-0.2
								c0,0.1-0.1,0.2-0.2,0.2s-0.2-0.1-0.2-0.4c0-0.2,0.1-0.4,0.2-0.4c0.2,0,0.2,0.1,0.2,0.2L74.4,86.1L74.4,86.1z"/>
						</g>
						<g>
							<polygon class="st8" points="75.1,86.6 75.1,86.8 75.3,86.8 75,85.7 74.8,85.7 74.5,86.8 74.7,86.8 74.7,86.6 74.9,86.6 
								74.9,86.4 74.8,86.4 74.9,86 75,86.4 74.9,86.4 74.9,86.6 							"/>
						</g>
						<g>
							<polygon class="st8" points="69.3,86.2 68.6,86.3 68.9,87.4 69.6,87.3 69.5,87.1 69.1,87.2 69,86.9 69.4,86.8 69.3,86.6 
								68.9,86.7 68.8,86.5 69.3,86.3 							"/>
						</g>
					</g>
					<g>
						<path class="st12" d="M63.4,71.9c0.4,0,0.4-0.6,0-0.6c-0.3,0-0.4,0.3-0.3,0.5C63.2,71.8,63.3,71.9,63.4,71.9z"/>
						<path class="st12" d="M64,72.4c0.4,0,0.4-0.6,0-0.6c-0.2,0-0.3,0.1-0.3,0.3C63.7,72.1,63.9,72.3,64,72.4z"/>
						<path class="st12" d="M66.2,75c-0.1-0.1-0.1-0.1-0.3-0.1c-0.4,0-0.4,0.6,0,0.6C65.9,75.4,66.1,75.1,66.2,75z"/>
						<path class="st12" d="M65.3,75.2c0.4-0.1,0.4-0.7-0.1-0.6c-0.1,0-0.2,0.1-0.2,0.1c0.1,0.1,0.1,0.3,0.1,0.4
							C65.1,75.1,65.2,75.1,65.3,75.2z"/>
						<g>
							<path class="st12" d="M63.5,79c-0.4,0-0.4,0.6,0,0.6C63.9,79.6,63.9,79,63.5,79z"/>
						</g>
						<path class="st12" d="M66.3,83.6c0.3-0.3-0.1-0.8-0.4-0.5c-0.2,0.1-0.1,0.4,0,0.5C65.9,83.5,66.1,83.5,66.3,83.6z"/>
						<path class="st12" d="M67.9,84.5c0.4-0.2,0-0.8-0.4-0.5c-0.1,0.1-0.1,0.2-0.1,0.3C67.4,84.3,67.7,84.4,67.9,84.5z"/>
						<path class="st12" d="M65.1,80.4c-0.4,0.1-0.6-0.5-0.2-0.6c0.1,0,0.2,0,0.2,0C65.1,80,65.1,80.3,65.1,80.4z"/>
						<path class="st12" d="M71.5,85c0.3-0.3-0.1-0.8-0.5-0.5c-0.1,0.1-0.1,0.3-0.1,0.4C71.1,85,71.4,85,71.5,85z"/>
						<path class="st12" d="M68.8,84.1c0-0.1-0.1-0.2-0.2-0.2c-0.4-0.2-0.7,0.4-0.3,0.6C68.4,84.4,68.7,84.2,68.8,84.1z"/>
					</g>
				</g>
			</g>
		</g>
	</g>
</g>
<circle class="st19" cx="76" cy="76" r="75"/>
</svg>
