<?xml version="1.0" encoding="utf-8"?>
<!-- Generator: Adobe Illustrator 24.2.3, SVG Export Plug-In . SVG Version: 6.00 Build 0)  -->
<svg version="1.1" id="Capa_1" xmlns:serif="http://www.serif.com/"
	 xmlns="http://www.w3.org/2000/svg" xmlns:xlink="http://www.w3.org/1999/xlink" x="0px" y="0px" viewBox="0 0 152 152"
	 style="enable-background:new 0 0 152 152;" xml:space="preserve">
<style type="text/css">
	.st0{fill-rule:evenodd;clip-rule:evenodd;fill:#ED1B2D;}
	.st1{fill-rule:evenodd;clip-rule:evenodd;fill:#FFFFFF;}
	.st2{fill:#FCE017;}
	.st3{fill:#ED1E2F;}
	.st4{fill:#ABD4F1;}
	.st5{fill:none;stroke:#515151;stroke-width:2;stroke-linecap:square;stroke-miterlimit:36;}
</style>
<path class="st0" d="M146.4,101c-9.9,29.1-37.7,50-70.4,50s-60.5-20.9-70.4-50H146.4z"/>
<path class="st0" d="M5.6,51C15.5,21.9,43.3,1,76,1s60.5,20.9,70.4,50H5.6L5.6,51z"/>
<path class="st1" d="M146.4,51c3.1,7.9,4.6,16.3,4.6,25s-1.5,17.1-4.6,25H5.6C2.5,93.1,1,84.7,1,76s1.5-17.1,4.6-25H146.4z"/>
<path d="M46.3,66.1l11.4,26.6l5.3-15l9.5-6l4-4.3L76,46.7l-5.2,19.4l-4-7.2l-2-3.7l2.8-5.3l-9.5-4L46.3,66.1L46.3,66.1z"/>
<path d="M84.4,50l2.8,5.3l-2,3.7l-4,7.2L76,46.7l-0.4,20.7l4,4.3l9.5,6l5.3,15l11.4-26.6L93.9,46L84.4,50L84.4,50z"/>
<path d="M80.3,51.2c0,2.6-2.1,4.7-4.7,4.7c-2.6,0-2.2-1.3-2.2-3.9L71,49.3c0-2.6,2.1-2.8,4.7-2.8C78.2,46.5,80.3,48.6,80.3,51.2"/>
<path class="st2" d="M73.3,47.9l-1.2-5.3l7.3,0.4l-0.8,5.2L73.3,47.9L73.3,47.9z"/>
<path class="st2" d="M74.1,50.6l-5.2-2l3.6,3.5l-2.8,2.7l4.8-1.4L74.1,50.6z"/>
<path d="M74.1,79.7l-0.9,8l-9.6,9.7l14.1,13.9l11.7-13.4L78.2,87.6v-7.2L74.1,79.7L74.1,79.7z"/>
<path d="M71,77.7l-5.8,7.8l4.3,3l3-8.8L71,77.7L71,77.7z"/>
<path d="M80.8,77.7l5.8,7.8l-4.3,3l-3-8.8L80.8,77.7L80.8,77.7z"/>
<path class="st3" d="M69.6,64.9h12.9L83,75.8c0,0-0.1,6.7-6.7,6.7c-6.5,0-6.7-6.7-6.7-6.7V64.9z"/>
<path class="st3" d="M68.2,53.3l4.6-0.7l0-1.5L68.2,53.3z"/>
<path class="st2" d="M58.6,79l-5.8,1.1l-1.2,2.9l5,4.2l0.5,4.2l10-5.2l0.8,2.3l-9.6,4.8l-1.4,6l-3.9-6l0.8-4.9l-4.9-3.9l0.6-5.6
	l4.3-1.6L58.6,79L58.6,79z"/>
<path class="st2" d="M101.4,80.4l-7.8-1.6l-1.1,3.5l3.6,0.9l-1.7,7.5l-9.4-4.7l-2,2.3L93.1,93l1.5,5.8l4.1-5.6L97.1,89l1.4-5.9h2.8
	V80.4L101.4,80.4z"/>
<path class="st4" d="M58.5,89.1l0.5,7.6l0.3,5.7l5.3,5.7l1.4-2.1l-5.6-6.2l-0.6-10.7L58.5,89.1L58.5,89.1z"/>
<path class="st4" d="M92.3,89.1l-0.5,7.6l-0.3,5.7l-5.3,5.7l-1.4-2.1l5.6-6.2L91,89.1L92.3,89.1L92.3,89.1z"/>
<rect x="69.6" y="69.9" class="st1" width="13.2" height="6.1"/>
<circle class="st5" cx="76" cy="76" r="75"/>
</svg>
