<?xml version="1.0" encoding="utf-8"?>
<!-- Generator: Adobe Illustrator 24.2.3, SVG Export Plug-In . SVG Version: 6.00 Build 0)  -->
<svg version="1.1" id="Capa_1" xmlns:serif="http://www.serif.com/"
	 xmlns="http://www.w3.org/2000/svg" xmlns:xlink="http://www.w3.org/1999/xlink" x="0px" y="0px" viewBox="0 0 152 152"
	 style="enable-background:new 0 0 152 152;" xml:space="preserve">
<style type="text/css">
	.st0{fill-rule:evenodd;clip-rule:evenodd;fill:#ED1B2D;}
	.st1{fill-rule:evenodd;clip-rule:evenodd;fill:#FFFFFF;}
	.st2{fill-rule:evenodd;clip-rule:evenodd;fill:#00529B;}
	.st3{fill:#FFFFFF;}
	.st4{fill:none;stroke:#515151;stroke-width:2;stroke-linecap:square;stroke-miterlimit:36;}
</style>
<path class="st0" d="M151,76L151,76c0,41.4-33.6,75-75,75S1,117.4,1,76v0H151z"/>
<path class="st1" d="M76,1c41.5,0.3,74.7,33.5,75,75H76L76,1C76,1,76,1,76,1z"/>
<path class="st2" d="M76,76H1C1.3,34.5,34.5,1.3,76,1V76z"/>
<path class="st3" d="M38.5,19.7l-4.2,13H20.6l11.2,8.1l-4.3,13l11-8.1l11,8.1l-4.2-13.1l11.1-7.9H42.8L38.5,19.7z"/>
<circle class="st4" cx="76" cy="76" r="75"/>
</svg>
