<?xml version="1.0" encoding="utf-8"?>
<!-- Generator: Adobe Illustrator 24.2.3, SVG Export Plug-In . SVG Version: 6.00 Build 0)  -->
<svg version="1.1" id="Capa_1" xmlns:serif="http://www.serif.com/"
	 xmlns="http://www.w3.org/2000/svg" xmlns:xlink="http://www.w3.org/1999/xlink" x="0px" y="0px" viewBox="0 0 152 152"
	 style="enable-background:new 0 0 152 152;" xml:space="preserve">
<style type="text/css">
	.st0{clip-path:url(#SVGID_2_);}
	.st1{fill:#FFFFFF;}
	.st2{fill:#6CA8DA;}
	.st3{fill:#FFBD46;}
	.st4{fill:#8B3315;}
	.st5{fill:none;stroke:#515151;stroke-width:2;stroke-linecap:square;stroke-miterlimit:1.5;}
</style>
<g>
	<g>
		<g>
			<g>
				<g>
					<defs>
						<circle id="SVGID_1_" cx="76" cy="76" r="75"/>
					</defs>
					<clipPath id="SVGID_2_">
						<use xlink:href="#SVGID_1_"  style="overflow:visible;"/>
					</clipPath>
					<g class="st0">
						<rect x="1" y="1.1" class="st1" width="150" height="150"/>
						<rect x="1" y="1.1" class="st2" width="150" height="50"/>
						<rect x="1" y="101.2" class="st2" width="150" height="50"/>
						<g>
							<path class="st3" d="M75,76.1l0.8,20.5c0,0,0,0.4,0.3,0.4c0.2,0,0.2-0.4,0.2-0.4L77,76.1H75z"/>
							<g>
								<path class="st4" d="M76,97.1c-0.3,0-0.3-0.3-0.3-0.4L75,76.1l0.1,0l0.7,20.5c0,0,0,0.3,0.2,0.3c0.2,0,0.2-0.3,0.2-0.3
									L77,76.1l-0.6,20.5C76.4,96.8,76.3,97.1,76,97.1L76,97.1z"/>
							</g>
							<polygon class="st4" points="75.6,76.1 76,90.2 76.5,76.1 							"/>
							<path class="st3" d="M74.1,82.8c-1.2,2.6-0.2,4.7-1.3,6.9c-1.2,2.2-0.5,4.1-0.5,5.1c-0.1,1-0.9,1.3-0.7,1.6
								c0.2,0.2,1.1-0.2,1.4-1.6c0.4-1.4-0.5-2.1,0.9-4.9c1.4-2.8,0.3-4,1.7-6.5L74.1,82.8z"/>
							<g>
								<path class="st4" d="M71.8,96.5l-0.3-0.1c-0.1-0.1,0-0.3,0.2-0.5c0.2-0.2,0.5-0.6,0.5-1.1c0-0.3,0-0.6-0.1-1
									c-0.1-1.1-0.3-2.5,0.6-4.1c0.6-1.1,0.6-2.2,0.6-3.3c0-1.1,0.1-2.3,0.7-3.6l0.1,0.1c-0.6,1.3-0.6,2.4-0.7,3.6
									c-0.1,1.1-0.1,2.2-0.6,3.4c-0.9,1.6-0.7,3.1-0.6,4.1c0,0.4,0.1,0.7,0.1,1c-0.1,0.6-0.4,1-0.6,1.2c-0.1,0.2-0.2,0.2-0.1,0.3
									c0.5-0.1,1.1-0.6,1.4-1.6c0.1-0.4,0.1-0.9,0.1-1.3c-0.1-0.9-0.1-1.8,0.9-3.6c0.7-1.4,0.8-2.4,0.9-3.3c0.1-1,0.1-1.9,0.9-3.2
									c-0.6,1.3-0.7,2.2-0.7,3.2c-0.1,1-0.1,2-0.9,3.4c-0.9,1.8-0.9,2.8-0.9,3.6c0,0.4,0,0.9-0.1,1.3
									C72.8,95.7,72.2,96.3,71.8,96.5L71.8,96.5L71.8,96.5z"/>
							</g>
							<path class="st4" d="M74.5,83.4c-0.9,2.6,0,4.3-1.2,6.4c1.4-1.6,0.5-3.6,1.6-6.2L74.5,83.4z"/>
							<path class="st3" d="M77.1,76.1l-0.8-20.4c0,0,0-0.4-0.2-0.4c-0.3,0-0.3,0.4-0.3,0.4l-0.8,20.4H77.1z"/>
							<g>
								<path class="st4" d="M77,76.2l-0.8-20.5c0,0,0-0.3-0.2-0.3c-0.2,0-0.2,0.3-0.2,0.3l-0.7,20.5l0.6-20.5
									c0-0.2,0.1-0.5,0.3-0.5c0.2,0,0.3,0.3,0.3,0.5l0.8,20.4L77,76.2L77,76.2z"/>
							</g>
							<polygon class="st4" points="76.5,76.1 76,62.1 75.6,76.1 							"/>
							<path class="st3" d="M78,69.5c1.2-2.6,0.2-4.7,1.3-6.9c1.2-2.3,0.4-4.1,0.5-5.1c0.1-1,0.9-1.3,0.7-1.6
								c-0.2-0.2-1.1,0.2-1.4,1.6c-0.4,1.4,0.5,2.2-0.9,4.9c-1.4,2.7-0.3,4-1.7,6.5L78,69.5z"/>
							<g>
								<path class="st4" d="M78,69.6l-0.1-0.1c0.6-1.3,0.6-2.4,0.6-3.6c0-1.1,0.1-2.2,0.7-3.4c0.8-1.6,0.7-3,0.6-4.1
									c0-0.4-0.1-0.7,0-1c0-0.6,0.4-1,0.6-1.2c0.2-0.2,0.2-0.2,0.2-0.3c-0.5,0-1.1,0.5-1.3,1.6c-0.1,0.5-0.1,0.9-0.1,1.3
									c0,0.9,0.1,1.8-0.9,3.6c-0.7,1.4-0.8,2.4-0.9,3.3s-0.1,1.9-0.9,3.1c0.6-1.3,0.6-2.2,0.7-3.2c0.1-1,0.1-1.9,0.9-3.4
									c0.9-1.8,0.9-2.7,0.9-3.6c0-0.4,0-0.8,0.1-1.3c0.3-1.1,0.9-1.6,1.2-1.7h0l0.3,0.1c0.1,0.1,0,0.3-0.1,0.4
									c-0.2,0.2-0.5,0.6-0.5,1.1c0,0.3,0,0.6,0.1,1c0.1,1.1,0.3,2.5-0.6,4.1c-0.6,1.1-0.6,2.2-0.6,3.3
									C78.7,67.1,78.6,68.3,78,69.6L78,69.6z"/>
							</g>
							<path class="st4" d="M77.6,68.9c0.9-2.6-0.1-4.3,1.2-6.4c-1.4,1.6-0.5,3.6-1.7,6.2L77.6,68.9z"/>
							<path class="st3" d="M76,75.1l-20.5,0.8c0,0-0.4,0-0.4,0.3s0.4,0.3,0.4,0.3L76,77.2V75.1z"/>
							<g>
								<path class="st4" d="M76,77.1l-20.5-0.6c-0.1,0-0.4-0.1-0.4-0.3c0-0.2,0.3-0.3,0.4-0.3L76,75.1v0.1L55.5,76
									c0,0-0.3,0-0.3,0.2c0,0.2,0.3,0.2,0.3,0.2L76,77.1L76,77.1z"/>
							</g>
							<polygon class="st4" points="76,75.6 62,76.1 76,76.7 							"/>
							<path class="st3" d="M69.4,74.2c-2.6-1.2-4.7-0.2-6.9-1.4c-2.3-1.2-4.1-0.4-5.2-0.5c-1-0.1-1.3-0.9-1.6-0.7
								c-0.2,0.2,0.3,1.1,1.6,1.4c1.4,0.4,2.1-0.5,4.9,0.9c2.8,1.4,4,0.3,6.5,1.7L69.4,74.2z"/>
							<g>
								<path class="st4" d="M68.8,75.7c-1.3-0.6-2.2-0.6-3.2-0.7c-1-0.1-2-0.1-3.4-0.9c-1.8-0.9-2.7-0.9-3.6-0.9
									c-0.4,0-0.9,0-1.3-0.1c-1-0.3-1.6-0.8-1.7-1.2v-0.1l0.1-0.3c0.2-0.1,0.3,0,0.5,0.1c0.2,0.2,0.6,0.5,1.1,0.6
									c0.2,0,0.6,0,1-0.1c1.1-0.1,2.5-0.3,4.2,0.6c1.1,0.6,2.2,0.6,3.3,0.7c1.1,0,2.3,0.1,3.6,0.7l0,0.1c-1.3-0.6-2.4-0.6-3.6-0.7
									c-1.2-0.1-2.2-0.1-3.4-0.7c-1.6-0.9-3.1-0.7-4.1-0.6c-0.4,0.1-0.7,0.1-1,0.1c-0.6-0.1-1-0.4-1.2-0.6
									c-0.2-0.1-0.2-0.2-0.3-0.1c0.1,0.5,0.5,1.1,1.6,1.3c0.4,0.1,0.8,0.1,1.3,0.1c0.9,0,1.8-0.1,3.6,0.9c1.4,0.7,2.4,0.8,3.3,0.9
									C66.6,74.9,67.6,75,68.8,75.7L68.8,75.7z"/>
							</g>
							<path class="st4" d="M68.8,74.5c-2.6-0.9-4.3,0.1-6.4-1.2c1.6,1.4,3.6,0.5,6.2,1.6L68.8,74.5z"/>
							<path class="st3" d="M76,77.2l20.5-0.8c0,0,0.4,0,0.4-0.3c0-0.3-0.4-0.3-0.4-0.3L76,75.1V77.2z"/>
							<g>
								<path class="st4" d="M76,77.3v-0.1l20.5-0.8c0,0,0.3,0,0.3-0.2c0-0.2-0.3-0.2-0.3-0.2L76,75.2l20.5,0.6
									c0.1,0,0.4,0.1,0.4,0.3c0,0.3-0.3,0.3-0.4,0.3L76,77.3L76,77.3z"/>
							</g>
							<polygon class="st4" points="76,76.7 90.1,76.1 76,75.6 							"/>
							<path class="st3" d="M82.6,78.1c2.6,1.2,4.7,0.2,6.9,1.4c2.2,1.2,4.1,0.4,5.1,0.5c1,0.1,1.3,0.9,1.6,0.7
								c0.2-0.2-0.3-1.1-1.6-1.4c-1.4-0.3-2.2,0.5-4.9-0.9c-2.8-1.4-4-0.3-6.5-1.7L82.6,78.1z"/>
							<g>
								<path class="st4" d="M96.2,80.8c-0.1,0-0.2-0.1-0.3-0.2c-0.2-0.2-0.6-0.5-1.1-0.5c-0.3,0-0.6,0-1,0.1
									c-1.1,0.1-2.5,0.3-4.1-0.6c-1.1-0.6-2.2-0.6-3.4-0.7c-1.1,0-2.3-0.1-3.6-0.7l0.1-0.1c1.3,0.6,2.4,0.6,3.6,0.7
									c1.1,0.1,2.2,0.1,3.4,0.7c1.6,0.9,3,0.7,4.1,0.6c0.4,0,0.7-0.1,1-0.1c0.6,0.1,1,0.4,1.2,0.6c0.2,0.2,0.3,0.2,0.3,0.1
									c0-0.5-0.5-1.1-1.6-1.3c-0.5-0.1-0.9-0.1-1.3-0.1c-0.9,0.1-1.8,0.1-3.6-0.9c-1.4-0.7-2.4-0.8-3.3-0.9
									c-1-0.1-1.9-0.1-3.2-0.9c1.3,0.6,2.2,0.6,3.2,0.7c0.9,0.1,1.9,0.1,3.4,0.9c1.8,0.9,2.7,0.9,3.6,0.8c0.4,0,0.8,0,1.3,0.1
									c1.1,0.3,1.6,0.9,1.7,1.2v0l-0.1,0.3C96.3,80.8,96.2,80.8,96.2,80.8L96.2,80.8z"/>
							</g>
							<path class="st4" d="M83.3,77.8c2.6,0.9,4.3,0,6.5,1.2c-1.6-1.4-3.6-0.5-6.2-1.6L83.3,77.8z"/>
							<path class="st3" d="M75.3,75.4l-13.9,15c0,0-0.3,0.3-0.1,0.5c0.2,0.2,0.4-0.1,0.4-0.1l15-13.9L75.3,75.4z"/>
							<g>
								<path class="st4" d="M61.4,91c-0.4-0.3-0.2-0.5-0.1-0.6l13.9-15l0.1,0.1l-13.9,15c0,0-0.2,0.2-0.1,0.4
									c0.1,0.1,0.4-0.1,0.4-0.1l15-13.9l-14.9,14C61.8,90.8,61.6,91,61.4,91L61.4,91z"/>
							</g>
							<polygon class="st4" points="75.7,75.8 66.1,86.1 76.4,76.5 							"/>
							<path class="st3" d="M70,79.5c-2.7,1-3.4,3.2-5.8,3.9c-2.4,0.8-3.2,2.6-4,3.3c-0.8,0.7-1.6,0.3-1.6,0.6
								c0,0.3,0.9,0.6,2.2-0.1c1.2-0.7,1.1-1.9,4.1-2.8c3-0.9,3-2.6,5.8-3.4L70,79.5z"/>
							<g>
								<path class="st4" d="M59.3,87.7c-0.2,0-0.4-0.1-0.6-0.1l-0.2-0.3c0-0.2,0.2-0.2,0.4-0.2c0.3,0,0.7-0.1,1.2-0.4
									c0.2-0.2,0.4-0.4,0.6-0.7c0.7-0.8,1.6-2,3.4-2.6c1.2-0.4,2-1.1,2.8-1.9c0.8-0.8,1.7-1.6,3-2.1l0.1,0.1c-1.3,0.5-2.1,1.3-3,2
									c-0.9,0.8-1.6,1.5-2.9,1.9c-1.8,0.6-2.7,1.7-3.3,2.5c-0.3,0.3-0.4,0.6-0.6,0.7c-0.5,0.4-1,0.4-1.3,0.5c-0.2,0-0.3,0-0.3,0.1
									c0.4,0.3,1.2,0.4,2.1-0.2c0.4-0.2,0.7-0.5,1-0.9c0.6-0.6,1.2-1.4,3.2-2c1.4-0.5,2.2-1.1,2.9-1.7c0.7-0.6,1.4-1.3,2.9-1.6
									c-1.4,0.5-2,1.1-2.8,1.7c-0.7,0.6-1.5,1.3-3,1.8c-1.9,0.6-2.6,1.3-3.1,1.9c-0.3,0.3-0.6,0.6-1,0.9
									C60.2,87.6,59.7,87.7,59.3,87.7L59.3,87.7z"/>
							</g>
							<path class="st4" d="M69.8,80.2c-2.4,1.1-3,3-5.4,3.7c2.1-0.1,2.8-2.2,5.6-3.2L69.8,80.2z"/>
							<path class="st3" d="M76.8,76.9l13.9-15c0,0,0.3-0.3,0.1-0.5c-0.2-0.2-0.5,0.1-0.5,0.1l-15,13.9L76.8,76.9z"/>
							<g>
								<path class="st4" d="M76.8,76.9L76.8,76.9l13.8-15.1c0,0,0.2-0.2,0.1-0.4c-0.1-0.1-0.4,0.1-0.4,0.1l-15,13.9l15-14
									c0.1-0.1,0.4-0.3,0.5-0.1c0.2,0.2,0,0.4-0.1,0.5L76.8,76.9L76.8,76.9z"/>
							</g>
							<polygon class="st4" points="76.4,76.5 86,66.2 75.7,75.8 							"/>
							<path class="st3" d="M82.1,72.9c2.6-1,3.4-3.2,5.9-3.9c2.4-0.8,3.2-2.6,4-3.3c0.8-0.7,1.6-0.3,1.6-0.6c0-0.3-0.9-0.6-2.1,0.1
								c-1.2,0.7-1.2,1.9-4.1,2.8c-2.9,0.9-3,2.6-5.8,3.4L82.1,72.9z"/>
							<g>
								<path class="st4" d="M82.1,72.9l0-0.1c1.3-0.5,2.1-1.3,3-2c0.8-0.8,1.6-1.5,2.9-1.9c1.7-0.5,2.6-1.6,3.3-2.5
									c0.3-0.3,0.5-0.6,0.7-0.8c0.4-0.4,0.9-0.4,1.3-0.4c0.2,0,0.3,0,0.3-0.1c-0.4-0.3-1.1-0.4-2.1,0.2c-0.4,0.2-0.7,0.5-0.9,0.9
									c-0.6,0.6-1.3,1.4-3.2,2c-1.5,0.5-2.2,1.1-2.9,1.7c-0.7,0.6-1.4,1.3-2.8,1.6c1.3-0.5,2-1.1,2.8-1.7c0.7-0.6,1.5-1.3,3-1.7
									c1.9-0.6,2.6-1.4,3.1-1.9c0.3-0.3,0.6-0.6,1-0.9c0.9-0.5,1.7-0.5,2.1-0.3l0.2,0.3c0,0.2-0.2,0.2-0.4,0.2
									c-0.3,0-0.7,0-1.2,0.4c-0.2,0.2-0.4,0.4-0.7,0.7c-0.6,0.9-1.6,2-3.4,2.5c-1.2,0.4-2,1.1-2.9,1.9
									C84.3,71.6,83.4,72.4,82.1,72.9L82.1,72.9z"/>
							</g>
							<path class="st4" d="M82.3,72.1c2.5-1.2,3-3.1,5.4-3.7c-2.1,0.1-2.9,2.2-5.6,3.2L82.3,72.1z"/>
							<path class="st3" d="M76.8,75.4l-15-13.9c0,0-0.3-0.3-0.4-0.1c-0.2,0.2,0.1,0.5,0.1,0.5l13.9,15L76.8,75.4z"/>
							<g>
								<path class="st4" d="M75.4,76.9l-14-14.9c-0.1-0.1-0.3-0.4-0.1-0.5c0.2-0.2,0.4,0,0.5,0.1l15,13.9l-0.1,0.1l-15-13.9
									c0,0-0.3-0.2-0.4-0.1c-0.1,0.1,0.1,0.4,0.1,0.4L75.4,76.9L75.4,76.9z"/>
							</g>
							<polygon class="st4" points="76.4,75.8 66.1,66.2 75.7,76.5 							"/>
							<path class="st3" d="M72.7,70.1c-1-2.6-3.1-3.4-3.9-5.9c-0.7-2.4-2.6-3.2-3.2-4c-0.7-0.8-0.3-1.6-0.6-1.6
								c-0.3,0-0.6,0.9,0.1,2.1c0.7,1.2,1.9,1.2,2.9,4.1c0.9,2.9,2.6,3,3.4,5.8L72.7,70.1z"/>
							<g>
								<path class="st4" d="M71.3,70.7c-0.5-1.4-1.1-2-1.7-2.8c-0.6-0.7-1.3-1.5-1.8-3c-0.6-1.9-1.3-2.6-1.9-3.1
									c-0.3-0.3-0.6-0.6-0.9-1c-0.6-1-0.5-1.8-0.3-2.1l0.3-0.2c0.2,0,0.2,0.2,0.2,0.4c0,0.3,0.1,0.7,0.4,1.2
									c0.2,0.2,0.5,0.4,0.8,0.7c0.8,0.6,1.9,1.6,2.5,3.4c0.4,1.2,1.1,2,1.9,2.8c0.7,0.8,1.6,1.7,2.1,3l-0.1,0
									c-0.5-1.3-1.3-2.2-2.1-3c-0.8-0.8-1.5-1.6-1.9-2.9c-0.6-1.7-1.7-2.6-2.5-3.3c-0.3-0.3-0.6-0.5-0.8-0.7
									c-0.4-0.5-0.4-1-0.4-1.3c0-0.2,0-0.3-0.1-0.3c-0.3,0.4-0.4,1.1,0.2,2.1c0.3,0.4,0.6,0.6,0.9,0.9c0.6,0.6,1.3,1.2,2,3.2
									c0.4,1.4,1.1,2.2,1.7,2.9C70.3,68.6,70.9,69.3,71.3,70.7L71.3,70.7z"/>
							</g>
							<path class="st4" d="M72.1,69.9c-1.2-2.5-3.1-3-3.8-5.4c0.1,2.1,2.2,2.9,3.2,5.6L72.1,69.9z"/>
							<path class="st3" d="M75.3,76.9l15,13.9c0,0,0.3,0.3,0.5,0.1c0.2-0.2-0.1-0.5-0.1-0.5l-13.9-15L75.3,76.9z"/>
							<g>
								<path class="st4" d="M90.6,90.9c-0.2,0-0.3-0.1-0.3-0.1l-15-13.9l0.1-0.1l15,13.9c0,0,0.2,0.2,0.4,0.1
									c0.1-0.1-0.1-0.4-0.1-0.4l-13.9-15l14,14.9c0.1,0.1,0.3,0.4,0.1,0.5C90.8,90.9,90.7,90.9,90.6,90.9L90.6,90.9z"/>
							</g>
							<polygon class="st4" points="75.7,76.5 86,86.1 76.4,75.8 							"/>
							<path class="st3" d="M79.3,82.2c1,2.6,3.2,3.4,3.9,5.9c0.7,2.4,2.6,3.2,3.2,4c0.7,0.8,0.3,1.6,0.6,1.6c0.3,0,0.6-0.9-0.1-2.1
								c-0.7-1.2-1.9-1.2-2.8-4.1c-1-3-2.6-3.1-3.4-5.8L79.3,82.2z"/>
							<g>
								<path class="st4" d="M87.2,93.7c-0.2,0-0.2-0.2-0.2-0.4c0-0.3-0.1-0.7-0.4-1.2c-0.2-0.2-0.4-0.4-0.7-0.6
									c-0.8-0.6-2-1.6-2.5-3.4c-0.4-1.2-1.1-2-1.9-2.8c-0.7-0.8-1.6-1.7-2.1-3l0.1-0.1c0.5,1.3,1.3,2.1,2.1,3
									c0.8,0.9,1.5,1.6,1.9,2.9c0.6,1.8,1.7,2.6,2.5,3.3c0.3,0.2,0.6,0.4,0.8,0.7c0.4,0.5,0.4,0.9,0.4,1.3c0,0.2,0.1,0.3,0.1,0.3
									c0.3-0.4,0.4-1.1-0.2-2c-0.3-0.4-0.5-0.7-0.9-1c-0.6-0.6-1.3-1.2-2-3.2c-0.5-1.5-1.1-2.2-1.8-2.9c-0.6-0.7-1.2-1.4-1.6-2.8
									c0.5,1.3,1.1,2,1.7,2.8c0.6,0.7,1.3,1.5,1.8,3c0.6,1.9,1.3,2.6,1.9,3.1c0.3,0.3,0.6,0.6,0.9,1c0.5,0.9,0.6,1.7,0.3,2.1
									L87.2,93.7L87.2,93.7z"/>
							</g>
							<path class="st4" d="M80,82.4c1.1,2.5,3.1,3,3.7,5.4c-0.1-2.1-2.2-2.9-3.2-5.6L80,82.4z"/>
							<path class="st3" d="M75.1,75.8L68,95c0,0-0.1,0.4,0.1,0.4c0.2,0.1,0.4-0.2,0.4-0.2L77,76.6L75.1,75.8z"/>
							<g>
								<path class="st4" d="M68.2,95.5c-0.4-0.1-0.4-0.4-0.3-0.5L75,75.7l0.1,0.1L68,95c0,0-0.1,0.3,0.1,0.4l0.3-0.2l8.5-18.6
									l-8.4,18.7C68.5,95.2,68.4,95.4,68.2,95.5L68.2,95.5z"/>
							</g>
							<polygon class="st4" points="75.6,76 70.7,89.1 76.5,76.4 							"/>
							<path class="st3" d="M71.7,81.5c-2.1,1.9-1.9,4.2-3.9,5.9c-1.9,1.6-2,3.6-2.4,4.6c-0.5,0.9-1.4,0.9-1.2,1.2
								c0.1,0.3,1.1,0.2,1.9-0.9c0.8-1.1,0.4-2.2,2.8-4.2c2.4-2,1.8-3.6,4-5.3L71.7,81.5z"/>
							<g>
								<path class="st4" d="M64.5,93.3c-0.1,0-0.1,0-0.1,0l-0.3-0.2c-0.1-0.2,0.1-0.3,0.3-0.4c0.3-0.1,0.7-0.4,0.9-0.9
									c0.1-0.3,0.2-0.6,0.3-1c0.3-1,0.7-2.4,2.1-3.6c0.9-0.8,1.4-1.8,1.9-2.8c0.4-1,0.9-2.1,2-3.1l0.1,0.1c-1,0.9-1.5,2-2,3
									c-0.5,1.1-0.9,2-1.9,2.9c-1.4,1.2-1.8,2.6-2.1,3.6c-0.1,0.4-0.2,0.7-0.3,1c-0.3,0.6-0.7,0.8-1,0.9c-0.2,0.1-0.3,0.1-0.2,0.2
									c0.5,0.1,1.2-0.1,1.8-0.9c0.3-0.4,0.4-0.7,0.6-1.1c0.3-0.8,0.6-1.7,2.2-3.1c1.2-1,1.6-1.9,2.1-2.7c0.4-0.9,0.9-1.7,2-2.6
									c-1.1,0.9-1.4,1.8-1.9,2.6c-0.4,0.9-0.9,1.8-2.1,2.8c-1.5,1.3-1.9,2.2-2.1,3c-0.1,0.4-0.3,0.8-0.6,1.2
									C65.6,93,64.9,93.3,64.5,93.3L64.5,93.3z"/>
							</g>
							<path class="st4" d="M71.8,82.3c-1.9,2-1.6,3.9-3.6,5.5c1.9-0.9,1.8-3.1,3.9-5.1L71.8,82.3z"/>
							<path class="st3" d="M77,76.6l7.1-19.2c0,0,0.1-0.4-0.1-0.4c-0.2-0.1-0.4,0.2-0.4,0.2l-8.6,18.6L77,76.6z"/>
							<g>
								<path class="st4" d="M77.1,76.6l-0.1,0L84,57.3c0,0,0.1-0.3,0-0.4l-0.3,0.2l-8.6,18.6l8.4-18.6c0,0,0.1-0.2,0.3-0.3l0.4,0.1
									c0.1,0.2,0,0.4,0,0.4L77.1,76.6L77.1,76.6z"/>
							</g>
							<polygon class="st4" points="76.5,76.4 81.4,63.2 75.6,76 							"/>
							<path class="st3" d="M80.4,70.8c2.1-1.9,1.9-4.3,3.9-5.9c1.9-1.6,2-3.6,2.4-4.6c0.5-0.9,1.4-0.9,1.3-1.1
								c-0.1-0.3-1.1-0.2-1.9,0.9c-0.9,1.1-0.4,2.2-2.8,4.2c-2.4,2-1.8,3.6-4.1,5.3L80.4,70.8z"/>
							<g>
								<path class="st4" d="M80.4,70.9L80.4,70.9c0.9-1.1,1.4-2.1,1.9-3.1c0.5-1.1,0.9-2,1.9-2.9c1.4-1.2,1.8-2.6,2.1-3.6
									c0.1-0.4,0.2-0.7,0.3-1c0.3-0.6,0.7-0.8,1-0.9c0.2-0.1,0.3-0.1,0.3-0.2c-0.5-0.1-1.2,0.1-1.8,0.9c-0.3,0.4-0.4,0.8-0.6,1.1
									c-0.3,0.8-0.6,1.7-2.2,3.1c-1.1,1-1.6,1.9-2,2.7c-0.4,0.9-0.9,1.7-2,2.6c1-1,1.4-1.8,1.9-2.6c0.4-0.9,0.9-1.8,2.1-2.8
									c1.6-1.3,1.9-2.2,2.2-3c0.2-0.4,0.3-0.8,0.6-1.2c0.6-0.8,1.3-1.2,1.8-1.1l0.3,0.2c0.1,0.2-0.1,0.3-0.3,0.4
									c-0.3,0.1-0.7,0.3-0.9,0.9c-0.1,0.2-0.2,0.6-0.3,0.9c-0.3,1-0.7,2.4-2.1,3.6c-1,0.8-1.4,1.8-1.9,2.8
									C81.9,68.8,81.5,69.9,80.4,70.9L80.4,70.9z"/>
							</g>
							<path class="st4" d="M80.3,70.1c1.9-2,1.6-3.9,3.6-5.5C82,65.5,82,67.7,80,69.7L80.3,70.1z"/>
							<path class="st3" d="M76.4,75.2l-19.2-7.1c0,0-0.4-0.1-0.4,0.1c-0.1,0.2,0.3,0.4,0.3,0.4l18.6,8.5L76.4,75.2z"/>
							<g>
								<path class="st4" d="M75.7,77.1L57,68.6c-0.1-0.1-0.4-0.2-0.3-0.5c0.1-0.2,0.4-0.2,0.5-0.1l19.2,7.1l0,0.1l-19.2-7.1
									c0,0-0.3-0.1-0.4,0.1c-0.1,0.2,0.2,0.3,0.2,0.3L75.7,77.1L75.7,77.1z"/>
							</g>
							<polygon class="st4" points="76.2,75.7 63.1,70.8 75.8,76.6 							"/>
							<path class="st3" d="M70.7,71.9c-1.9-2.1-4.3-1.9-5.9-3.9c-1.6-1.9-3.6-2-4.5-2.4c-0.9-0.5-0.9-1.4-1.2-1.3
								c-0.3,0.1-0.2,1.1,0.9,1.9c1.1,0.9,2.2,0.4,4.2,2.7c2,2.4,3.6,1.8,5.3,4L70.7,71.9z"/>
							<g>
								<path class="st4" d="M69.6,72.9c-1-1.1-1.8-1.5-2.6-1.9c-0.9-0.4-1.8-0.9-2.8-2.1c-1.3-1.5-2.2-1.9-3-2.1
									c-0.4-0.1-0.8-0.3-1.2-0.6c-0.8-0.6-1.2-1.4-1.1-1.8l0.2-0.3c0.2-0.1,0.3,0.1,0.4,0.3c0.1,0.3,0.3,0.7,0.9,0.9
									c0.2,0.1,0.6,0.2,0.9,0.3c1,0.3,2.4,0.7,3.6,2.1c0.8,1,1.8,1.4,2.8,1.9c1.1,0.5,2.1,1,3.1,2l-0.1,0.1c-1-1-2-1.5-3-2
									c-1.1-0.5-2.1-0.9-2.9-1.9c-1.2-1.4-2.6-1.8-3.6-2.1c-0.4-0.1-0.7-0.2-0.9-0.3c-0.6-0.3-0.8-0.7-0.9-1
									c-0.1-0.2-0.1-0.3-0.2-0.3c-0.1,0.5,0.1,1.2,1,1.8c0.4,0.3,0.7,0.4,1.1,0.6c0.8,0.3,1.7,0.6,3.1,2.2c1,1.2,1.9,1.6,2.7,2
									C67.9,71.4,68.7,71.8,69.6,72.9L69.6,72.9z"/>
							</g>
							<path class="st4" d="M70,71.9c-2-1.8-4-1.6-5.5-3.5c0.9,1.9,3.1,1.8,5.1,3.9L70,71.9z"/>
							<path class="st3" d="M75.7,77.1l19.2,7.1c0,0,0.3,0.1,0.4-0.1S95,83.7,95,83.7l-18.6-8.5L75.7,77.1z"/>
							<g>
								<path class="st4" d="M95.1,84.3c-0.1,0-0.2,0-0.3-0.1l-19.2-7.1l0.1-0.1l19.2,7.1c0,0,0.3,0.1,0.4-0.1
									c0.1-0.2-0.2-0.3-0.2-0.3l-18.6-8.5L95,83.7c0.1,0.1,0.4,0.2,0.3,0.5C95.3,84.3,95.2,84.3,95.1,84.3L95.1,84.3z"/>
							</g>
							<polygon class="st4" points="75.8,76.6 89,81.5 76.2,75.7 							"/>
							<path class="st3" d="M81.4,80.5c1.9,2.1,4.3,1.9,5.9,3.9c1.6,1.9,3.6,2,4.5,2.4c0.9,0.5,0.9,1.4,1.2,1.3
								c0.3-0.1,0.2-1.1-1-1.9c-1.1-0.9-2.1-0.4-4.2-2.7c-2-2.4-3.6-1.8-5.3-4.1L81.4,80.5z"/>
							<g>
								<path class="st4" d="M93,88.1c-0.1,0-0.2-0.2-0.3-0.3c-0.1-0.3-0.3-0.7-0.8-0.9c-0.3-0.1-0.6-0.2-1-0.3
									c-1-0.3-2.4-0.7-3.6-2.1c-0.8-1-1.8-1.4-2.8-1.9c-1-0.5-2.1-1-3.1-2l0.1-0.1c0.9,1,2,1.5,3,2c1.1,0.5,2,0.9,2.9,1.9
									c1.2,1.4,2.6,1.8,3.6,2.1c0.4,0.1,0.7,0.2,1,0.3c0.6,0.3,0.8,0.7,0.9,1C92.9,88,92.9,88.1,93,88.1c0.2-0.6,0-1.3-0.9-1.9
									c-0.4-0.3-0.7-0.4-1.2-0.6c-0.8-0.3-1.7-0.6-3.1-2.2c-1-1.2-1.9-1.6-2.7-2c-0.9-0.4-1.7-0.9-2.6-2c0.9,1.1,1.8,1.4,2.6,1.9
									c0.9,0.4,1.8,0.9,2.8,2.1c1.3,1.5,2.2,1.9,3,2.1c0.4,0.1,0.8,0.3,1.2,0.6c0.9,0.7,1.2,1.4,1.1,1.8L93,88.1
									C93,88.1,93,88.1,93,88.1L93,88.1z"/>
							</g>
							<path class="st4" d="M82.2,80.4c2,1.8,3.9,1.6,5.5,3.6c-0.9-1.9-3.1-1.8-5.1-3.9L82.2,80.4z"/>
							<path class="st3" d="M75.7,75.2l-18.6,8.5c0,0-0.4,0.1-0.3,0.4c0.1,0.2,0.4,0.1,0.4,0.1l19.2-7.1L75.7,75.2z"/>
							<g>
								<path class="st4" d="M57,84.3c-0.1,0-0.3-0.1-0.3-0.2c-0.1-0.2,0.2-0.4,0.3-0.5l18.6-8.5l0.1,0.1l-18.6,8.5
									c0,0-0.3,0.1-0.2,0.3c0.1,0.2,0.4,0.1,0.4,0.1L76.4,77l-19.2,7.2C57.2,84.3,57.1,84.3,57,84.3L57,84.3z"/>
							</g>
							<polygon class="st4" points="75.8,75.7 63.1,81.5 76.2,76.6 							"/>
							<path class="st3" d="M69.2,76.9c-2.8-0.1-4.4,1.6-6.9,1.4c-2.5-0.2-3.9,1.1-4.9,1.5c-1,0.3-1.6-0.4-1.7-0.1
								c-0.2,0.3,0.6,0.9,2,0.7c1.4-0.2,1.9-1.3,4.9-1c3.1,0.3,3.8-1.3,6.6-0.9V76.9z"/>
							<g>
								<path class="st4" d="M57.1,80.6c-0.8,0-1.3-0.3-1.5-0.5l-0.1-0.3c0.1-0.2,0.3-0.1,0.5,0c0.3,0.1,0.7,0.2,1.2,0.1
									c0.3-0.1,0.6-0.3,0.9-0.4c0.9-0.5,2.2-1.2,4-1.1c1.3,0.1,2.3-0.3,3.4-0.6c1.1-0.4,2.1-0.8,3.6-0.7V77
									c-1.4-0.1-2.5,0.4-3.6,0.7c-1.1,0.4-2.1,0.8-3.4,0.7c-1.8-0.2-3.1,0.5-4,1.1c-0.3,0.2-0.6,0.3-0.9,0.4
									c-0.6,0.2-1.1,0.1-1.3-0.1c-0.3-0.1-0.3-0.1-0.3-0.1c0.3,0.5,0.9,0.8,2,0.6c0.4-0.1,0.9-0.2,1.2-0.4
									c0.8-0.4,1.6-0.8,3.7-0.6c1.5,0.1,2.5-0.2,3.4-0.5c0.9-0.3,1.8-0.6,3.2-0.4c-1.5-0.1-2.3,0.2-3.2,0.5
									c-0.9,0.3-1.9,0.6-3.4,0.5c-2-0.2-2.9,0.3-3.6,0.6c-0.4,0.2-0.7,0.4-1.2,0.4C57.5,80.5,57.3,80.6,57.1,80.6L57.1,80.6z"/>
							</g>
							<path class="st4" d="M68.7,77.4c-2.7,0.1-3.9,1.7-6.4,1.4c2,0.7,3.5-0.9,6.4-0.9L68.7,77.4z"/>
							<path class="st3" d="M76.4,77.1L95,68.6c0,0,0.4-0.1,0.3-0.4c-0.1-0.2-0.4-0.1-0.4-0.1l-19.2,7.1L76.4,77.1z"/>
							<g>
								<path class="st4" d="M76.5,77.2l-0.1-0.1L95,68.5c0,0,0.3-0.1,0.2-0.3c-0.1-0.2-0.4-0.1-0.4-0.1l-19.2,7.1L94.8,68
									c0.1-0.1,0.4-0.1,0.5,0.1c0.1,0.2-0.1,0.4-0.3,0.5L76.5,77.2L76.5,77.2z"/>
							</g>
							<polygon class="st4" points="76.2,76.6 89,70.8 75.8,75.7 							"/>
							<path class="st3" d="M82.9,75.4c2.8,0.1,4.4-1.6,6.9-1.4c2.5,0.2,3.9-1.2,4.9-1.5c1-0.3,1.6,0.4,1.7,0.1
								c0.1-0.3-0.6-0.9-2.1-0.7c-1.4,0.2-1.8,1.3-4.9,1c-3.1-0.2-3.8,1.3-6.6,0.9V75.4z"/>
							<g>
								<path class="st4" d="M83.1,75.5c-0.1,0-0.1,0-0.2,0v-0.1c1.4,0.1,2.5-0.4,3.5-0.7c1.1-0.4,2.1-0.8,3.4-0.6
									c1.8,0.1,3.1-0.5,4-1.1c0.4-0.2,0.6-0.4,0.9-0.4c0.6-0.2,1,0,1.4,0.1c0.2,0.1,0.3,0.1,0.3,0c-0.2-0.4-0.9-0.8-1.9-0.6
									c-0.5,0.1-0.9,0.2-1.2,0.4c-0.8,0.4-1.7,0.8-3.7,0.6c-1.5-0.1-2.5,0.2-3.4,0.5c-0.9,0.3-1.9,0.6-3.2,0.4
									c1.4,0.1,2.3-0.2,3.2-0.5c0.9-0.3,1.9-0.6,3.4-0.5c2,0.2,2.9-0.2,3.6-0.6c0.4-0.2,0.8-0.4,1.2-0.4c1.1-0.2,1.8,0.1,2.1,0.5
									l0.1,0.3c-0.1,0.2-0.3,0.1-0.5,0c-0.3-0.1-0.7-0.2-1.3-0.1c-0.2,0.1-0.6,0.2-0.9,0.4c-0.9,0.5-2.2,1.2-4.1,1.1
									c-1.2-0.1-2.2,0.3-3.3,0.7C85.5,75.1,84.5,75.5,83.1,75.5L83.1,75.5z"/>
							</g>
							<path class="st4" d="M83.4,74.9c2.7-0.1,3.9-1.7,6.4-1.4c-1.9-0.7-3.5,0.9-6.4,0.9L83.4,74.9z"/>
							<path class="st3" d="M77,75.8l-8.5-18.6c0,0-0.1-0.4-0.4-0.2C67.8,57,68,57.4,68,57.4l7.1,19.2L77,75.8z"/>
							<g>
								<path class="st4" d="M75.1,76.5l-7.2-19.1c0,0-0.1-0.2,0-0.4l0.3-0.1c0.2,0.1,0.3,0.3,0.3,0.3L77,75.7l-0.1,0.1l-8.7-18.9
									L68.1,57L68,57.3L75.1,76.5L75.1,76.5z"/>
							</g>
							<polygon class="st4" points="76.5,76 70.7,63.2 75.6,76.4 							"/>
							<path class="st3" d="M75.3,69.3c0.1-2.8-1.6-4.4-1.4-6.9c0.2-2.5-1.2-4-1.5-4.9c-0.3-1,0.4-1.6,0.1-1.7
								c-0.3-0.1-0.9,0.6-0.7,2c0.2,1.4,1.3,1.8,1,4.9c-0.2,3.1,1.3,3.8,0.9,6.6H75.3z"/>
							<g>
								<path class="st4" d="M75.4,69.3h-0.1c0.1-1.4-0.4-2.5-0.7-3.5c-0.4-1.1-0.8-2.1-0.7-3.4c0.2-1.8-0.5-3.1-1-4
									c-0.2-0.4-0.4-0.6-0.4-0.9c-0.2-0.6,0-1.1,0.1-1.4c0.1-0.2,0.1-0.3,0-0.3c-0.5,0.2-0.8,0.9-0.6,1.9c0.1,0.5,0.3,0.8,0.4,1.2
									c0.4,0.8,0.8,1.6,0.6,3.7c-0.1,1.5,0.2,2.5,0.5,3.4c0.3,0.9,0.6,1.8,0.4,3.2c0.1-1.4-0.2-2.3-0.5-3.2
									c-0.3-0.9-0.6-1.9-0.5-3.4c0.2-2-0.2-2.9-0.6-3.6c-0.2-0.4-0.4-0.8-0.4-1.2c-0.2-1.1,0.1-1.8,0.5-2l0.4-0.1
									c0.2,0.1,0.1,0.3,0,0.5c-0.1,0.3-0.3,0.7-0.1,1.3c0.1,0.3,0.3,0.6,0.4,0.9c0.5,0.9,1.2,2.2,1.1,4.1
									c-0.1,1.3,0.3,2.3,0.7,3.3C75,66.8,75.4,67.9,75.4,69.3L75.4,69.3z"/>
							</g>
							<path class="st4" d="M74.8,68.8c-0.1-2.7-1.7-3.9-1.4-6.4c-0.6,1.9,0.9,3.5,0.9,6.4L74.8,68.8z"/>
							<path class="st3" d="M75.1,76.6l8.6,18.6c0,0,0.1,0.4,0.4,0.2c0.3-0.1,0.1-0.4,0.1-0.4L77,75.8L75.1,76.6z"/>
							<g>
								<path class="st4" d="M84,95.5c-0.4-0.1-0.5-0.3-0.5-0.3l-8.5-18.6l0.1-0.1l8.6,18.6c0,0,0.1,0.3,0.3,0.2
									c0.2-0.1,0-0.4,0-0.4l-7.1-19.2l7.2,19.1C84.2,95.1,84.3,95.4,84,95.5L84,95.5z"/>
							</g>
							<polygon class="st4" points="75.6,76.4 81.4,89.1 76.5,76 							"/>
							<path class="st3" d="M76.8,83c-0.1,2.8,1.6,4.4,1.4,6.9c-0.2,2.5,1.2,3.9,1.5,4.9c0.4,1-0.4,1.6-0.1,1.7
								c0.3,0.1,0.9-0.6,0.7-2c-0.2-1.4-1.3-1.8-1-4.9c0.3-3.1-1.2-3.8-0.9-6.6L76.8,83z"/>
							<g>
								<path class="st4" d="M79.6,96.6c-0.2-0.1-0.1-0.3,0-0.5c0.1-0.3,0.3-0.7,0.1-1.3c-0.1-0.3-0.3-0.6-0.4-0.9
									c-0.5-0.9-1.2-2.2-1.1-4.1c0.1-1.3-0.2-2.2-0.6-3.3c-0.4-1.1-0.9-2.2-0.8-3.6h0.1c-0.1,1.4,0.4,2.5,0.7,3.5
									c0.4,1.1,0.8,2.1,0.7,3.4c-0.2,1.8,0.5,3.1,1,4c0.2,0.4,0.4,0.6,0.4,0.9c0.2,0.6,0.1,1-0.1,1.4c-0.1,0.2-0.1,0.3,0,0.3
									c0.4-0.2,0.8-0.9,0.6-2c-0.1-0.5-0.2-0.8-0.4-1.2c-0.3-0.8-0.7-1.6-0.6-3.7c0.1-1.5-0.2-2.4-0.5-3.4
									c-0.3-0.9-0.6-1.8-0.4-3.2c-0.1,1.4,0.2,2.3,0.5,3.2c0.3,0.9,0.6,1.9,0.5,3.4c-0.2,2,0.3,2.9,0.6,3.6
									c0.2,0.4,0.4,0.8,0.4,1.2c0.1,1-0.2,1.8-0.5,2L79.6,96.6L79.6,96.6z"/>
							</g>
							<path class="st4" d="M77.3,83.5c0.1,2.7,1.7,3.9,1.4,6.4c0.6-2-0.9-3.5-0.9-6.4L77.3,83.5z"/>
							<path class="st3" d="M76,67.8c4.6,0,8.3,3.7,8.3,8.3c0,4.6-3.7,8.3-8.3,8.3c-4.6,0-8.3-3.7-8.3-8.3
								C67.7,71.6,71.4,67.8,76,67.8L76,67.8z"/>
							<g>
								<path class="st4" d="M76,84.6c-4.6,0-8.4-3.8-8.4-8.4c0-4.6,3.8-8.4,8.4-8.4c4.6,0,8.4,3.8,8.4,8.4
									C84.5,80.8,80.7,84.6,76,84.6L76,84.6z M76,67.9c-4.6,0-8.3,3.7-8.3,8.3c0,4.6,3.7,8.3,8.3,8.3c4.6,0,8.3-3.7,8.3-8.3
									C84.3,71.6,80.6,67.9,76,67.9L76,67.9z"/>
							</g>
							<path class="st4" d="M81.3,74.4c-1.5-1.3-3.4-1.5-4.4-0.5c-0.7,1-0.7,2.2,0.2,3.4c-0.1,0-0.2,0.1-0.3,0.1
								c-0.6-1.2-0.7-2.5-0.3-3.6C78,72.6,79.9,72.4,81.3,74.4L81.3,74.4z"/>
							<path class="st4" d="M79,74c-0.9,0-1,0.2-1.4,0.5c-0.4,0.3-0.6,0.3-0.6,0.3c-0.1,0.1,0,0.3,0.1,0.2c0.1-0.1,0.4-0.2,0.8-0.5
								c0.4-0.3,0.8-0.3,1.2-0.3c1.1,0,1.8,1,1.9,0.9C81,75,80.3,74,79,74L79,74z"/>
							<path class="st4" d="M80.5,75.1c-0.8-0.9-2.4-1-3,0.1h0.3c0.6-1,2.2-0.6,2.3-0.1v0.1L80.5,75.1z"/>
							<path class="st4" d="M78.9,74.4c0.3,0,0.6,0.3,0.6,0.6s-0.3,0.6-0.6,0.6c-0.3,0-0.6-0.3-0.6-0.6
								C78.3,74.7,78.5,74.4,78.9,74.4L78.9,74.4z"/>
							<path class="st4" d="M77.5,75.1c0.6,0.6,2.1,0.6,3-0.1L80,75c-0.6,0.7-1.7,0.6-2.3,0.1V75L77.5,75.1z"/>
							<path class="st4" d="M80.5,75.4c-1.1,0.9-2.2,0.8-2.8,0.4c-0.6-0.4-0.6-0.5-0.5-0.5c0.1,0,0.3,0.1,0.8,0.4
								C78.5,75.9,79.3,75.9,80.5,75.4L80.5,75.4z"/>
							<path class="st4" d="M77.4,77.3c0.2,0.1,0.3,0.3,0.2,0.5c-0.1,0.2-0.3,0.3-0.5,0.2c-0.2-0.1-0.3-0.2-0.3-0.3
								c-0.1,0.1-0.3,0.5-0.8,0.5h-0.1l0.1,0.2c0.1,0,0.5,0,0.8-0.2c0.2,0.3,0.5,0.3,0.8,0.1c0.3-0.2,0.4-0.6,0.1-0.8
								C77.7,77.4,77.5,77.4,77.4,77.3L77.4,77.3z"/>
							<path class="st4" d="M78.1,80c-0.6-0.4-0.8-1-1.5-1c-0.1,0-0.4,0.1-0.6,0.2h-0.1l0.1,0.2c0.2,0,0.6-0.3,1.1-0.1
								C77.6,79.6,77.8,79.9,78.1,80L78.1,80z"/>
							<path class="st4" d="M78,80c-1.3-0.4-1.6-0.1-1.9-0.1h-0.1l0.1,0.3C76.5,80.1,76.8,79.8,78,80L78,80z"/>
							<path class="st4" d="M78.1,80c-1.4-0.1-0.9,0.7-2.1,0.7h-0.1l0.1,0.2C77.5,80.9,76.8,80.1,78.1,80L78.1,80z"/>
							<path class="st4" d="M77.2,82.1c0-0.6-0.5-1.1-1.1-1.1c-0.6,0-1.2,0.5-1.2,1.1c0.1-0.6,0.8-1,1.4-0.9
								C76.8,81.3,77.1,81.6,77.2,82.1L77.2,82.1z"/>
							<path class="st4" d="M70.8,74.4c1.5-1.3,3.4-1.5,4.4-0.5c0.7,1,0.6,2.2-0.2,3.4c0.1,0,0.2,0.1,0.3,0.1
								c0.6-1.2,0.8-2.5,0.3-3.6C74.1,72.6,72.2,72.4,70.8,74.4L70.8,74.4z"/>
							<path class="st4" d="M73.1,74c0.8,0,1,0.2,1.4,0.5c0.4,0.3,0.6,0.3,0.6,0.3c0.1,0.1,0,0.3-0.1,0.2c-0.1-0.1-0.4-0.2-0.8-0.5
								c-0.4-0.3-0.8-0.3-1.1-0.3c-1.1,0-1.8,1-1.9,0.9C71,75,71.8,74,73.1,74L73.1,74z"/>
							<path class="st4" d="M71.6,75.1c0.9-0.9,2.4-1,3,0.1h-0.3c-0.6-1-2.2-0.6-2.3-0.1v0.1L71.6,75.1z"/>
							<path class="st4" d="M73.2,74.4c-0.3,0-0.6,0.3-0.6,0.6s0.3,0.6,0.6,0.6c0.3,0,0.6-0.3,0.6-0.6
								C73.8,74.7,73.5,74.4,73.2,74.4L73.2,74.4z"/>
							<path class="st4" d="M74.6,75.1c-0.6,0.6-2.1,0.6-3-0.1l0.5-0.1c0.6,0.7,1.6,0.6,2.3,0.1V75L74.6,75.1z"/>
							<path class="st4" d="M71.6,75.4c1.1,0.9,2.2,0.8,2.8,0.4c0.6-0.4,0.6-0.5,0.5-0.5c-0.1,0-0.2,0.1-0.8,0.4
								C73.6,75.9,72.8,75.9,71.6,75.4L71.6,75.4z"/>
							<path class="st4" d="M74.7,77.3c-0.2,0.1-0.3,0.3-0.2,0.5c0.1,0.2,0.3,0.3,0.5,0.2c0.1-0.1,0.3-0.2,0.3-0.3
								c0.1,0.1,0.3,0.5,0.9,0.5h0.1l-0.1,0.2c-0.1,0-0.5,0-0.8-0.2c-0.2,0.3-0.5,0.3-0.8,0.1c-0.3-0.2-0.4-0.6-0.2-0.8
								C74.4,77.4,74.6,77.4,74.7,77.3L74.7,77.3z"/>
							<path class="st4" d="M73.9,80c0.6-0.4,0.9-1,1.5-1c0.1,0,0.4,0.1,0.6,0.2h0.1L76,79.4c-0.3,0-0.6-0.3-1.1-0.1
								S74.2,79.9,73.9,80L73.9,80z"/>
							<path class="st4" d="M74.1,80c1.3-0.4,1.5-0.1,1.9-0.1h0.1L76,80.1C75.6,80.1,75.3,79.8,74.1,80L74.1,80z"/>
							<path class="st4" d="M73.9,80c1.4-0.1,1,0.7,2.1,0.7h0.1L76,80.9C74.6,80.9,75.3,80.1,73.9,80L73.9,80z"/>
							<path class="st4" d="M74.9,82.1c0-0.6,0.5-1.1,1.2-1.1c0.6,0,1.1,0.5,1.1,1.1c-0.1-0.6-0.8-1-1.4-0.9
								C75.3,81.3,75,81.6,74.9,82.1L74.9,82.1z"/>
						</g>
					</g>
				</g>
			</g>
		</g>
	</g>
</g>
<circle class="st5" cx="76" cy="76" r="75"/>
</svg>
