<?xml version="1.0" encoding="utf-8"?>
<!-- Generator: Adobe Illustrator 24.2.3, SVG Export Plug-In . SVG Version: 6.00 Build 0)  -->
<svg version="1.1" id="Capa_1" xmlns:serif="http://www.serif.com/"
	 xmlns="http://www.w3.org/2000/svg" xmlns:xlink="http://www.w3.org/1999/xlink" x="0px" y="0px" viewBox="0 0 152 152"
	 style="enable-background:new 0 0 152 152;" xml:space="preserve">
<style type="text/css">
	.st0{fill-rule:evenodd;clip-rule:evenodd;fill:#FFFFFF;}
	.st1{fill-rule:evenodd;clip-rule:evenodd;fill:#009C44;}
	.st2{fill-rule:evenodd;clip-rule:evenodd;fill:#D02832;}
	.st3{fill:none;stroke:#515151;stroke-width:2;stroke-linecap:square;stroke-miterlimit:37.5;}
</style>
<path class="st0" d="M47.3,6.7C56.1,3,65.8,1,76,1c13.7,0,26.5,3.7,37.5,10.5v129.1C102.7,147.2,90,150.9,76,151l-15.1-1.5
	l-13.6-4.2L47.3,6.7L47.3,6.7z"/>
<path class="st1" d="M47.3,6.7v138.5C20.1,134,1,107.2,1,76S20.1,18,47.3,6.7z"/>
<path class="st2" d="M113.6,11.4C135.9,24.1,151,48.3,151,76s-15.1,51.9-37.5,64.5L113.6,11.4L113.6,11.4z"/>
<circle class="st3" cx="76" cy="76" r="75"/>
</svg>
