<?xml version="1.0" encoding="utf-8"?>
<!-- Generator: Adobe Illustrator 24.2.3, SVG Export Plug-In . SVG Version: 6.00 Build 0)  -->
<svg version="1.1" id="Capa_1" xmlns:serif="http://www.serif.com/"
	 xmlns="http://www.w3.org/2000/svg" xmlns:xlink="http://www.w3.org/1999/xlink" x="0px" y="0px" viewBox="0 0 152 152"
	 style="enable-background:new 0 0 152 152;" xml:space="preserve">
<style type="text/css">
	.st0{clip-path:url(#SVGID_2_);}
	.st1{fill:#E73B28;stroke:#E73B28;stroke-width:0.1836;}
	.st2{fill:#FFFFFF;stroke:#E73B28;stroke-width:0.1836;}
	.st3{fill:none;stroke:#515151;stroke-width:2;stroke-linecap:square;stroke-miterlimit:1.5;}
</style>
<g>
	<g>
		<g>
			<defs>
				<circle id="SVGID_1_" cx="76" cy="76" r="75"/>
			</defs>
			<clipPath id="SVGID_2_">
				<use xlink:href="#SVGID_1_"  style="overflow:visible;"/>
			</clipPath>
			<g class="st0">
				<rect x="-36.5" y="1.1" class="st1" width="225" height="150"/>
				<path class="st2" d="M62.1,63c-1.4-3.4-2.3-7.2-2.4-8.9c-0.2-2.5-0.2-5-0.2-6.5c0-2.2,0.6-4.6,1.3-7.2c1.6-5.7,7.3-10.6,12-11.7
					c3.9-0.9,7.4,0,10.6,1.6c2.9,1.5,5.4,4.3,5.6,5c0.1,0.2-0.8-0.3-1.1-0.5c-0.4-0.2-0.5-0.2-1.2-0.5c-0.9-0.4-2.3-0.5-2.9-0.2
					c-0.9,0.5-1.1,1-1.4,1.5c-0.3,0.5-0.5,0.7-0.5,1.8c0,0.9,0,2.5,0.8,3.8c0.2,0.4,0.4,0.9,0.8,1.4c0.7,1,1.6,2.2,2.1,3.5
					c0.7,1.7,1,3.4,0.9,4l0.1,1.7c0.1,2.3-1.4,7.9-5.9,10.8c-1,0.6-2.1,1.5-3.2,2.1c-1.6,0.9-3.1,1.9-4.1,3.6
					c-0.6,1.1-0.5,2.2-0.5,3.4c0,2.1,0.6,4.1,1.1,5.2l0.4,0.8c-0.3,0.1-0.4-0.1-0.5-0.2l-0.6-0.6c-0.9-0.9-1.8-3.2-2.5-5.2
					c-0.6-1.6-1.1-4.1-1-5.8c0.1-2.9,0.8-5.3,1.2-6.8c0.6-2.3,0.8-2.6,1.1-3.3l0.1-0.1c0-0.1,0-0.2-0.1-0.3c-0.1-0.1-0.4-0.1-0.6,0
					l-0.1,0.1c-0.4,0.6-0.8,1.9-1.5,4.2c-0.5,1.9-1,3.9-0.8,6.7c0.1,1.6,0.4,4.2,1,5.8c0.9,2.2,1.9,4.1,2.6,5l0.4,0.7
					c0,0.1,0.1,0.2,0.2,0.3l0.1,0c-0.1,0.4-2.6-1.4-5.7-5.4C65.5,69.5,63,65.5,62.1,63"/>
				<polygon class="st1" points="73.9,48.1 74.2,51.5 77.4,52.4 74.3,53.7 74.5,57.1 72.3,54.5 69.1,55.7 70.8,52.8 68.7,50.2 
					72,51 				"/>
				<path class="st2" d="M56.1,86.8c-3.6,0.4-7.5,0.3-9.3-0.1c-2.4-0.5-4.9-1.2-6.3-1.6c-2.1-0.6-4.2-1.8-6.6-3.2
					c-5.1-3.1-8.2-9.9-8-14.7c0.2-4,2-7.2,4.4-9.8c2.2-2.4,5.6-4.1,6.3-4.1c0.2,0-0.5,0.7-0.7,1c-0.3,0.3-0.3,0.4-0.9,1
					c-0.6,0.7-1.1,2.1-1,2.7c0.2,1,0.7,1.4,1,1.7c0.4,0.4,0.5,0.6,1.6,0.9c0.9,0.3,2.4,0.7,3.9,0.3c0.4-0.1,1-0.1,1.6-0.4
					c1.1-0.4,2.6-0.9,3.9-1.1c1.9-0.2,3.6-0.1,4.1,0.2l1.7,0.4c2.2,0.5,7.3,3.5,8.8,8.6c0.4,1.1,0.9,2.4,1.1,3.6
					c0.4,1.8,0.9,3.5,2.4,4.9c0.9,0.9,2,1.1,3.1,1.4c2,0.5,4.1,0.5,5.3,0.3l0.9-0.1c0,0.3-0.2,0.4-0.3,0.4l-0.8,0.4
					c-1.1,0.6-3.6,0.9-5.6,1c-1.7,0.1-4.2-0.1-5.8-0.6c-2.8-0.9-4.9-2.1-6.3-3c-2.1-1.2-2.3-1.5-2.9-1.9l-0.1-0.1
					c-0.1,0-0.2-0.1-0.3,0c-0.2,0.1-0.3,0.4-0.1,0.5l0.1,0.1c0.5,0.6,1.6,1.3,3.6,2.5c1.7,1,3.4,2,6.3,2.6c1.6,0.4,4.1,0.8,5.8,0.6
					c2.4-0.3,4.5-0.7,5.5-1.1l0.8-0.2c0.1,0,0.2-0.1,0.3-0.1l0.1-0.1c0.4,0.2-2,2.1-6.8,4c-3.8,1.5-8.3,2.9-11,2.9"/>
				<polygon class="st1" points="45,71.4 48.3,72.1 50.1,69.2 50.5,72.5 53.8,73.3 50.7,74.7 51,78.1 48.7,75.6 45.6,76.9 47.2,74 
									"/>
				<path class="st2" d="M85.9,62c2.7-2.4,6-4.5,7.6-5.2c2.3-1,4.7-1.8,6.1-2.4c2.1-0.8,4.5-1,7.3-1.1c5.9-0.4,12.4,3.4,15,7.5
					c2.1,3.4,2.5,7,2,10.5c-0.5,3.2-2.3,6.6-2.9,6.9c-0.1,0.1,0-0.9,0.1-1.2c0.1-0.4,0-0.5,0.1-1.3c0.1-0.9-0.3-2.3-0.8-2.8
					c-0.7-0.7-1.4-0.7-1.9-0.8c-0.6-0.1-0.8-0.2-1.9,0.1c-0.9,0.3-2.3,0.8-3.3,2c-0.3,0.3-0.7,0.7-1.1,1.2c-0.7,1-1.6,2.2-2.6,3.2
					c-1.4,1.3-2.9,2.1-3.5,2.2l-1.6,0.7c-2.1,0.9-7.9,1.3-12.1-2c-0.9-0.7-2.1-1.5-3-2.3c-1.4-1.3-2.8-2.3-4.7-2.6
					c-1.2-0.2-2.2,0.3-3.3,0.7c-2,0.7-3.7,2-4.5,2.8l-0.6,0.6c-0.1-0.2-0.1-0.4,0-0.5l0.4-0.8c0.6-1.1,2.4-2.7,4.1-4.1
					c1.3-1.1,3.5-2.4,5.1-2.9c2.8-0.9,5.2-1,6.8-1.1c2.4-0.2,2.7-0.1,3.4-0.1h0.1c0.1,0,0.2,0,0.2-0.1c0.1-0.2,0-0.4-0.2-0.5h-0.1
					c-0.7-0.2-2.1-0.1-4.4,0c-2,0.1-4,0.4-6.6,1.5c-1.5,0.6-3.9,1.7-5.1,2.9c-1.8,1.6-3.3,3.1-3.9,4.1l-0.5,0.6
					c-0.1,0.1-0.2,0.2-0.2,0.3l0,0.1c-0.4,0.1,0.4-2.9,3.3-7.2C81,67.3,83.9,63.6,85.9,62"/>
				<polygon class="st1" points="103.8,68.2 100.7,69.6 101,72.9 98.7,70.4 95.6,71.7 97.3,68.7 95.1,66.2 98.4,66.8 100.2,64 
					100.6,67.4 				"/>
				<path class="st2" d="M76.7,99.1c-0.7,3.6-2,7.2-2.9,8.8c-1.2,2.2-2.6,4.3-3.4,5.6c-1.2,1.9-3,3.5-5.1,5.3
					c-4.4,3.9-11.9,4.8-16.5,3.1c-3.7-1.4-6.2-4.1-8-7.2c-1.6-2.9-2.2-6.6-1.9-7.3c0.1-0.2,0.5,0.7,0.7,1c0.2,0.4,0.3,0.4,0.7,1.1
					c0.5,0.8,1.6,1.7,2.3,1.8c1,0.1,1.5-0.2,2-0.5c0.6-0.3,0.8-0.3,1.4-1.2c0.5-0.8,1.4-2.1,1.4-3.6c0-0.4,0.2-1,0.1-1.6
					c-0.1-1.2-0.1-2.7,0.1-4.1c0.3-1.8,1-3.4,1.4-3.9L50,95c1.1-2,5.5-5.9,10.8-5.8c1.2,0,2.5-0.1,3.8,0c1.9,0.1,3.6,0.1,5.4-0.8
					c1.1-0.6,1.6-1.6,2.2-2.6c1.1-1.8,1.7-3.8,1.9-5l0.1-0.9c0.3,0.1,0.3,0.3,0.3,0.4l0.1,0.9c0.2,1.3-0.2,3.6-0.7,5.7
					c-0.4,1.6-1.4,4-2.3,5.4c-1.6,2.4-3.5,4-4.7,5.1c-1.8,1.6-2.1,1.7-2.7,2.1l-0.1,0.1c-0.1,0.1-0.1,0.1-0.1,0.3
					c0.1,0.2,0.3,0.4,0.5,0.3l0.1-0.1c0.7-0.3,1.7-1.1,3.5-2.7c1.5-1.3,2.9-2.7,4.4-5.2c0.8-1.4,2-3.7,2.3-5.4
					c0.4-2.4,0.7-4.5,0.6-5.6l0-0.8c0-0.1,0-0.2,0-0.3l0-0.1c0.3-0.3,1.4,2.5,1.8,7.7C77.5,91.8,77.4,96.5,76.7,99.1"/>
				<polygon class="st1" points="58.7,105 60.3,102.1 58.1,99.5 61.4,100.1 63.1,97.3 63.6,100.6 66.8,101.3 63.8,102.8 64.1,106.2 
					61.8,103.7 				"/>
				<path class="st2" d="M94.7,84.6c3.1,1.9,6,4.6,7.1,5.9c1.6,1.9,3,4,3.9,5.2c1.3,1.8,2.1,4.1,3.1,6.7c2,5.6,0.1,12.9-3.1,16.5
					c-2.6,3-6.1,4.3-9.6,4.8c-3.2,0.4-6.9-0.4-7.5-0.9c-0.1-0.1,0.8-0.2,1.2-0.3c0.4-0.1,0.5-0.1,1.3-0.3c0.9-0.1,2.2-0.9,2.5-1.5
					c0.4-0.9,0.3-1.5,0.3-2c-0.1-0.6,0-0.8-0.6-1.7c-0.5-0.8-1.4-2-2.8-2.6c-0.4-0.2-0.9-0.5-1.4-0.7c-1.1-0.4-2.6-0.9-3.8-1.6
					c-1.6-1-2.8-2.2-3.1-2.8l-1.1-1.3c-1.4-1.8-3.4-7.3-1.4-12.2c0.4-1.1,0.8-2.4,1.4-3.5c0.8-1.7,1.5-3.3,1.2-5.3
					c-0.1-1.2-0.9-2.1-1.6-3c-1.2-1.7-2.9-3-3.9-3.6L76,80c0.2-0.2,0.4-0.2,0.5-0.1l0.9,0.2c1.3,0.2,3.3,1.6,5,2.8
					c1.4,1,3.2,2.7,4.1,4.1c1.6,2.4,2.4,4.7,3,6.3c0.8,2.2,0.9,2.6,1,3.3l0,0.1c0.1,0.1,0.1,0.2,0.2,0.2c0.2,0,0.4-0.1,0.4-0.3
					l0-0.1c0-0.7-0.4-2-1.2-4.3c-0.6-1.9-1.4-3.7-3.2-6c-1.1-1.3-2.7-3.2-4.1-4.1c-2-1.3-3.9-2.3-5-2.6L76.8,79
					c-0.1-0.1-0.2-0.1-0.3-0.1h-0.1c-0.2-0.4,2.9-0.4,7.8,1.2c3.9,1.2,8.3,3,10.3,4.6"/>
				<polygon class="st1" points="93.6,103.5 91.5,101 88.3,102.1 90.1,99.3 88,96.6 91.3,97.4 93.2,94.6 93.4,98 96.7,98.9 
					93.5,100.2 				"/>
			</g>
		</g>
	</g>
</g>
<circle class="st3" cx="76" cy="76" r="75"/>
</svg>
