<?xml version="1.0" encoding="utf-8"?>
<!-- Generator: Adobe Illustrator 24.2.3, SVG Export Plug-In . SVG Version: 6.00 Build 0)  -->
<svg version="1.1" id="Capa_1" xmlns:serif="http://www.serif.com/"
	 xmlns="http://www.w3.org/2000/svg" xmlns:xlink="http://www.w3.org/1999/xlink" x="0px" y="0px" viewBox="0 0 152 152"
	 style="enable-background:new 0 0 152 152;" xml:space="preserve">
<style type="text/css">
	.st0{fill-rule:evenodd;clip-rule:evenodd;fill:#F15D2F;}
	.st1{fill-rule:evenodd;clip-rule:evenodd;fill:#FFFFFF;}
	.st2{fill-rule:evenodd;clip-rule:evenodd;fill:#009B67;}
	.st3{fill:none;stroke:#515151;stroke-width:2;stroke-linecap:square;stroke-miterlimit:37.5;}
</style>
<path class="st0" d="M88.1,2.2v49h58.4c3,7.7,4.5,16.1,4.5,24.8c0,8.6-1.4,16.9-4.5,24.5H88.1v49.3L76,151c-41.7-0.3-75-33.8-75-75
	C1,34.6,34.6,1,76,1L88.1,2.2L88.1,2.2z"/>
<path class="st1" d="M146.5,51.2H88.1v-49C115.3,6.5,137.5,25.4,146.5,51.2z"/>
<path class="st2" d="M146.6,100.5c-8.6,25.7-31,45.1-58.4,49.3v-49.3H146.6L146.6,100.5z"/>
<path id="bandera-oman" class="st1" d="M44.4,7.9C44.5,7.9,44.5,7.9,44.4,7.9c0.7,0,0.9,0.6,0.6,1c1.1,0.2,2,0.8,2.4,1.6
	c0.8,0.1,0.8,1.3,0,1.4c-0.3,0.7-0.9,1.3-1.8,1.5c-0.1,0.6-0.2,1.3-0.2,2.2c0,0.2,0,0.5,0,0.7c0.1,3.1,0.9,3.7,2.2,4.6v6.9
	c0.3-0.5,0.7-0.9,1-1.4c-0.1-0.1-0.2-0.3-0.1-0.3c0.1-0.1,0.1-0.2,0.2-0.3l0,0l3-3.8l0,0C63.7,6.7,65,5.6,65.6,6
	c0.3,0.2,0.3,0.8-1.4,3.7l0,0h0c-1.7,3-5.2,8.6-11.8,19c0,0.1-0.1,0.1-0.3,0C52,28.9,52,28.9,52,29c0.8,0.1,1.1,0.6,1.2,1.4
	c0,0,0.1,0,0.1,0c0.3,0,0.6,0,0.8-0.1v-1.1c0-0.3,0.2-0.5,0.5-0.5h8.1c0.3,0,0.5,0.2,0.5,0.5v4.6c0,0.3-0.2,0.5-0.5,0.5h-8.1
	c-0.3,0-0.5-0.2-0.5-0.5v-1.1c-0.2,0-0.5,0-0.8,0c0,0-0.1,0-0.1,0c-0.1,0.8-0.5,1.4-1.6,1.4c-1.3,0-1.6-0.7-1.7-1.7c0,0-0.1,0-0.1,0
	c-0.6,0.9-1.3,1.8-2,2.7v1.1c0,0.4,0,0.7-0.1,1.1c5.6,6.5,11.6,12.3,18,16.9c0.4,0,0.6,0.1,1.2,0.5c1.4,1,3.2,2.2,4.2,2.9
	c1.2,0.8,1.3,2.6-1.4,2.1c-2.8-0.5-4.7-2-7.2-3.7c-0.5-0.3-0.7-0.5-0.6-0.7c-5.8-3.9-11.3-8.7-16-13.8c-0.2,0.1-0.3,0.2-0.5,0.3v0h0
	c-0.5,0.3-1.2,0.6-2,0.8c0,0,0,0,0,0c0,0-0.1,0-0.1,0l-0.1,0c-0.2,0.1-0.6,0.1-1.1,0.2c-0.1,0-0.1,0-0.2,0v0c0,0,0,0,0,0
	c-0.3,0.1-0.7,0.1-1.1,0.1c-4.4,4.6-9.4,8.9-14.7,12.4c0.2,0.2-0.1,0.3-0.6,0.7c-2.5,1.7-4.4,3.2-7.2,3.7c-2.7,0.5-2.6-1.3-1.4-2.1
	c1-0.7,2.8-1.9,4.2-2.9c0.6-0.4,0.8-0.5,1.2-0.5c4.7-3.4,9.3-7.4,13.5-11.9c-0.2,0-0.3-0.1-0.5-0.1h0c-0.2-0.1-0.5-0.1-0.7-0.2
	c0,0,0,0-0.1,0l0,0c-0.2-0.1-0.4-0.1-0.6-0.2l0,0c0,0.1-0.4,0-0.9-0.2l0,0c0,0,0,0,0,0c-0.1-0.1-0.2-0.1-0.3-0.2v0c0,0,0,0-0.1,0
	c-0.8-0.3-1.8-0.8-2.4-1.1c-0.4-0.2-0.7-0.4-1-0.6c0,0,0,0-0.1,0l0,0c-0.5-0.4-0.8-0.7-0.8-1c-0.2-1,1.8-1.6,3.7-1.6
	c0.2,0,0.4,0,0.7,0c0.2,0,0.4-0.1,0.6-0.1c0,0,0.1,0,0.1,0c0.5-0.1,0.7-0.2,0.8,0c0,0,0,0,0,0h0h0c0.6-0.1,1.1-0.1,1.7-0.2l0,0
	c0.4,0,0.7-0.1,1.1-0.1h0l0,0c0.3,0,0.6-0.1,0.9-0.1l0,0l0,0c0.5-0.1,0.9-0.1,1.2-0.2h0c0.7-0.1,1.3-0.3,1.5-0.4
	c-0.6-0.8-1.3-1.6-1.9-2.4c-0.1,0-0.1,0-0.2,0c-0.3,0-0.6-0.1-0.9-0.3c-0.2,0.6-0.6,1-1.5,1c-1.1,0-1.5-0.6-1.6-1.4c0,0-0.1,0-0.1,0
	c-0.3,0-0.6,0-0.8,0v1.1c0,0.3-0.2,0.5-0.5,0.5h-8.1c-0.3,0-0.5-0.2-0.5-0.5v-4.6c0-0.3,0.2-0.5,0.5-0.5h8.1c0.3,0,0.5,0.2,0.5,0.5
	v1.1c0.2,0,0.5,0,0.8,0.1c0,0,0.1,0,0.1,0c0.1-0.7,0.4-1.3,1.3-1.4c-0.1-0.1-0.1-0.1-0.1-0.2c-0.1,0-0.2,0.1-0.3,0
	c-2.9-4.5-5.2-8.2-7-11c0.9-0.7,1.7-1.4,2.6-2c1.4,1.8,3,3.9,5,6.3l0,0l3,3.8c0,0,0,0,0,0c0.1,0.1,0.1,0.2,0.2,0.3
	c0.1,0.1,0,0.2-0.1,0.3c0.6,0.9,1.2,1.7,1.9,2.6h0V27l0,0l0,0v-0.2v-5.8c1.4-1,2.2-1.6,2.2-5.3c0-0.9-0.1-1.6-0.2-2.2
	c-0.2-0.1-0.3-0.1-0.5-0.2l-0.1-0.1c-0.2-0.1-0.3-0.2-0.5-0.3l0,0l0,0c-0.3-0.3-0.6-0.6-0.7-0.9c-0.9-0.1-0.9-1.4,0-1.4
	c0.3-0.8,1.2-1.4,2.3-1.6c-0.2-0.2-0.2-0.5,0-0.7C44.1,8.1,44.3,8,44.4,7.9L44.4,7.9z M43.4,42.4L43.4,42.4L43.4,42.4z M36.4,33.1
	c0.6,0,0.7-0.3,0.8-0.7c-0.9,0.1-0.6,0-0.6-1c0-0.9-0.2-1,0.4-1c-0.1-0.2-0.3-0.4-0.4-0.6c-0.1,0-0.2,0-0.2,0
	c-0.5,0-0.7,0.3-0.8,0.6c0.5,0.1,0.2,0.3,0.2,1c0,0.7,0.2,0.9-0.2,1C35.7,32.8,35.9,33.1,36.4,33.1L36.4,33.1z M51.5,29.8
	C51.5,29.8,51.5,29.8,51.5,29.8c-0.3,0.3-0.5,0.6-0.7,0.9c0.3,0.1,0.2,0.2,0.2,0.7c0,0.6,0.2,0.7-0.3,0.7c0,0.5,0.2,0.9,0.8,0.9
	c0.5,0,0.7-0.2,0.8-0.6c-0.4-0.1-0.2-0.3-0.2-1c0-0.7-0.2-0.9,0.2-1C52.2,30,52,29.8,51.5,29.8L51.5,29.8z"/>
<circle class="st3" cx="76" cy="76" r="75"/>
</svg>
