<?xml version="1.0" encoding="utf-8"?>
<!-- Generator: Adobe Illustrator 24.2.3, SVG Export Plug-In . SVG Version: 6.00 Build 0)  -->
<svg version="1.1" id="Capa_1" xmlns:serif="http://www.serif.com/"
	 xmlns="http://www.w3.org/2000/svg" xmlns:xlink="http://www.w3.org/1999/xlink" x="0px" y="0px" viewBox="0 0 152 152"
	 style="enable-background:new 0 0 152 152;" xml:space="preserve">
<style type="text/css">
	.st0{clip-path:url(#SVGID_2_);}
	.st1{fill:#FFE000;stroke:#000000;stroke-width:0.25;}
	.st2{fill:#00634E;stroke:#000000;stroke-width:0.25;}
	.st3{fill:#EF7D1A;stroke:#000000;stroke-width:0.25;}
	.st4{fill:#A9273B;stroke:#000000;stroke-width:0.25;}
	.st5{fill:#FFE000;stroke:#000000;stroke-width:0.125;}
	.st6{fill:none;stroke:#000000;stroke-width:0.125;}
	.st7{fill:none;stroke:#515151;stroke-width:2;stroke-linecap:square;stroke-miterlimit:1.5;}
</style>
<g>
	<g>
		<g>
			<defs>
				<circle id="SVGID_1_" cx="76" cy="76" r="75"/>
			</defs>
			<clipPath id="SVGID_2_">
				<use xlink:href="#SVGID_1_"  style="overflow:visible;"/>
			</clipPath>
			<g class="st0">
				<g>
					<rect x="-72.5" y="1" class="st1" width="300" height="150"/>
					<path class="st1" d="M77.5,76"/>
				</g>
				<rect x="-60.5" y="12.9" class="st2" width="40.6" height="126.1"/>
				<rect x="-19.9" y="12.9" class="st3" width="40.6" height="126.1"/>
				<rect x="32.7" y="12.9" class="st4" width="182.7" height="126.1"/>
				<g>
					<path class="st5" d="M131.2,68.7c4.9-0.9,13.1,1.1,19.4-0.6c5.7-1.6,12,0.9,16.9-0.9c2.4-0.9,7.5-1.1,7.7-6.5
						c0.2-4-3.7-6.6-12-4.8s-16.2,1.8-21-1c-4.8-2.8-5.4,1.8-4.8,3.5c-4.3-3.4-3-6.5-1.4-8.4c-9.5-10.5,1.7-18.9,11.6-18.9
						c9.7,0,14.2,3.2,21.8,8.8c2.2,1.6,7.1,6.9,8.6,5.9c-1.6-3.6,3.6-5.6,4.9-1.4c0.9,3.2-1.7,6-5.4,5.2c-5.8-1.1-5.2-4.1-11.6-8.2
						c1.4,1.1-0.4,4,3.3,5.3c-3.2,0.4-6.7-1.9-7.7-5c-0.4,3.5-2.8,5-5.6,4.6c4-4.7,1.6-8.4-2.6-9.7c3.6,4.8-0.3,9.6-5.3,9.6
						c4-4.2,2.2-8.2-1.6-10c-1.3-0.6-3-0.7-2.2,0.2c0.8,0.9,0.1,3.8-1.6,4.4c0.1-3.4-4.8-2.5-5.7,0c-0.8,2-0.6,3.9,2.1,5.6
						c1.9-4.3,7.6-3.4,7.5-1.3c-4.7,0.8-3.9,4.6-1.9,6.5c0.1-1.8,2.3-3.5,3.6-2.8c-0.9,4.7,5.8,4.6,10.7,4
						c4.9-0.6,10.9-2.6,16.4,0.2c5.5,2.7,7.3,11.8-0.4,16.2c7.6,8.9,4.4,18.4,1.1,27.6c-3.2,9.1,0.2,14.9,2.2,14.9
						c1.4,0,2.1,0.4,1.6,1.9c-1,3.2-4.9,3-5.1,6.9s4.3,5.7,2.4,7.6c-3.3,0-3.6-0.5-4.6-1.8c-0.7,1.1-0.8,1.8-2.4,1.8
						c-1.6,0-2.3-0.6-2.9-1.8c-0.8,1.4-1.5,1.8-2.8,1.8c-1.4,0-1.8-0.6-2.2-1.8c-0.8,1.2-1.9,1.8-3.5,1.8c0-4.8,5.5-5.7,7.4-6.1
						c1.9-0.4,2.4-1.4,2.4-2.6c0-1.2-0.1-3.6-0.3-6c-0.3-3.4-4.4-5.4-8.3-7.9c-1,1.9-3.1,2.9-1.5,5.4c1.2,1.8,3.7,1.3,4,0.3
						c1.6,4.4-6.1,5.7-3.6,11.6c0.9,2.1,0.7,3.1-0.4,5.4c-2.5,0-3.3-0.2-4.5-1.5c-0.7,1.2-0.8,1.8-2.7,1.8c-1.7,0-1.9-1.1-2.2-2
						c-0.6,1.1-0.7,1.8-2.5,1.8c-1.6,0-1.7-0.5-2.4-1.8c-1.1,1.4-2.4,1.8-3.8,1.8c0-3.5,2.6-5.4,5.5-5.1s4.3-0.5,4.8-2.2
						s-0.4-3.4,0-6.5c0.9-6.3-9.1-10.9-7.3-18.6c-10.5,0-18,7-24.5,8.3c-1.2,2.3-2.5,4.2-3.1,5.5c-2.2,3.9,2.6,4.9,5,4.3
						c-0.7,3.1-3.2,5-5.6,5.5c-2.3,0.4-2.4,1.6-1.6,3.3c0.8,1.6,0.6,2.7-1.4,5.5c-3.9,0-4-0.8-4.4-1.5c-0.6,0.5-0.9,1.5-2.7,1.5
						c-2.2,0-2.3-0.4-3.1-1.5c-0.9,1-0.9,1.5-2.7,1.5s-1.9-0.4-2.4-1.5c-0.7,0.9-1.2,1.5-3.3,1.5c1.9-11.7,8.8-1.6,12.7-8.9
						c1.7-3.1-0.5-7.4-2-12.5c-2.7-1.2-5.2-2.6-7.1-4.1c-6.8,9.4-10.3,1.4-12.4-0.4c-2.4-2.1-3.3,0.1-2.9,1.4
						c-1.4-1.6-2.1-2.6-1.6-6c0.5-3.4-1.3-4-4.9-4.5c-3.6-0.4-3.7-5.2-3.9-9.6c-0.2-4.4,6.6-3.1,7.3-2.4c3.4,3.4,8.1,7.9,11.2,11.3
						c-2.6-9.1,2.5-18.9,10.9-23.5c2.9-1.6,3.4-3.4,2-4.4c-1-0.7-3,1.4-2.5,2.6c-2.8-1.4-1.9-3.4-3.1-4.4c0.2,0.9-0.6,2.4-0.3,3.4
						c-0.4-1.1-1.9-0.8-2.4-3.3C93,64,91.4,64.3,89.9,64c1.9-0.8,1.1-2.2,1.8-2.6c-2.3,1.4-4.9,0.5-6.1,1.3c1.8-1.3,0.9-5,3.1-6.9
						c-0.9-0.6-1.5-1.2-1.7-1.9c-0.6-1.5-0.1-2.7,3.1-0.9c3.3,1.9,8,3.6,12.9,3.7c-1.6-2.6-3.8-3.6-4.2-6.4
						c-0.6,1.3-0.6,2.3-0.2,3.5c-0.6-1.3-2.4-0.9-3.6-3.4c0.4,1,0,2,0.6,2.9c-3.8-1.3-2.8-2.8-5.7-5.2c-3.6-2.9-2.1-4.1-3-5.5
						c-0.8-1.3-0.9-4.8,2.5-5.4c2.8-0.5,4.3,3.1,2.7,4.6c1.2-1,3.7-0.3,5.5-1.2c2.6-1.4,4.4,1.1,7.2-2.7c1-1.4-0.6-2.3-0.1-3.2
						c0.3,1.3,5.2-1.3,7.4,1.6c2,2.6,3.1-1.4,1.6-3.5c1.4,1.4,4.4-0.1,7,4.6c-0.1-1.2,1.9-2.4,1-4.2c2.7,0.8,4.8,1.9,5.5,3.1
						c1.1,1.7,4.4,1.1,5.7-2.2c0.4,3.1-0.7,5.4-3.3,8.1c2.6,2.6,2.3,6.6,1.9,8.9c0.1,0.1,0-0.1,0,0c0.5,1.9-0.5,5.7-0.2,7.1
						c-0.1-0.4-0.4-0.8-0.9-1.3c-0.4,3.4,1.9,4.7,1,7.2c0.2-0.7-0.8-1.5-2.1-2.4c-0.4,2.5,1.1,5.3,2.3,5.5c-0.3,0.1-0.6,0.2-0.9,0.2
						C130.7,68,130.9,68.4,131.2,68.7z"/>
					<path class="st5" d="M77.7,79.5C77.7,49,79,26.6,82.6,24c-14.2,7.4-12.6,25.1-12.6,55.4l1.8,1.6c0,0.9,0,13.8,0,14.4
						c-1.1,0.6-2.2-1.9-3.4,0.2c-0.9,1.4,1.6,2.9,3.4,1.7c-0.1,1.4-1.1,2.8-2.1,3.2c2.2,1.7,2.5,5.6-0.1,6.6
						c0.5-0.7-1.6-2.3-2.6-0.7c-0.9,1.6,1.4,3.7,3.8,3.6c-0.1,0.7-1.2,1.7-2.4,2.2c0.6,0.4,2.2,0.7,3.3,0.6c0.1,1.4,0.3,2.4,1.5,3.4
						c1.2-0.9,1.4-2,1.5-3.4c1.1,0.1,2.7-0.3,3.3-0.6c-1.2-0.5-2.3-1.4-2.4-2.2c2.4,0.1,4.7-2.1,3.8-3.6c-0.9-1.6-3.1,0-2.6,0.7
						c-2.6-0.9-2.3-4.9-0.1-6.6c-1-0.4-2-1.8-2.1-3.2c1.1-0.6,2.2,1.9,3.4-0.2c0.9-1.4-1.6-2.9-3.4-1.7c0-0.6,0-13.4,0-14.3
						L77.7,79.5z"/>
					<path class="st5" d="M73.8,82.5c10.1,0,9.2-6.7,5.7-7.7c-3.5-1-3.7,3.1-1.9,3.2c-0.4,1.4-2.5,1.4-3.8,1.4
						c-1.2,0-3.4-0.1-3.8-1.4c1.7-0.1,1.5-4.2-1.9-3.2C64.6,75.8,63.7,82.5,73.8,82.5z"/>
					<g>
						<path class="st5" d="M76.8,84.8c0.4-0.8,2.2-1.1,2.6-1.9c0.6,1.8-0.5,1.9-1,2.9c-0.2,0.4-1.5,1.4-2.5,0.4
							C75.7,85.9,76.4,85.4,76.8,84.8z"/>
						<path class="st5" d="M73.6,82.9c2.4,0.8,3.5,1.1,3.2,2.5c-0.4,1.5-2.4,0.8-3.6,0.4c-1.2-0.4-3.4-0.6-3.2-2.4
							C70.1,82.3,72,82.4,73.6,82.9z"/>
						<path class="st5" d="M76.8,87.4c0.4-0.8,2.2-1.1,2.6-1.9c0.6,1.8-0.5,1.9-1,2.9c-0.2,0.4-1.5,1.4-2.5,0.4
							C75.7,88.6,76.4,88.1,76.8,87.4z"/>
						<path class="st5" d="M73.6,85.6c2.4,0.8,3.5,1.1,3.2,2.4c-0.4,1.5-2.4,0.8-3.6,0.4c-1.2-0.4-4.1-0.4-4-2.9
							C69.4,83.9,72,85.1,73.6,85.6z"/>
						<path class="st5" d="M76.8,90.1c0.4-0.8,2.2-1.1,2.6-2c0.6,1.8-0.5,1.9-1,2.9c-0.2,0.4-1.5,1.4-2.5,0.4
							C75.7,91.3,76.4,90.8,76.8,90.1z"/>
						<path class="st5" d="M73.6,88.3c2.4,0.8,3.5,1.1,3.2,2.5c-0.4,1.5-2.4,0.8-3.6,0.4c-1.2-0.4-3.1-0.1-3.1-2.4
							C70.2,87.6,72,87.8,73.6,88.3z"/>
						<path class="st5" d="M76.8,92.6c0.4-0.8,2.2-1.1,2.6-2c0.6,1.8-0.5,1.9-1,2.9c-0.2,0.4-1.5,1.4-2.5,0.4
							C75.7,93.8,76.4,93.2,76.8,92.6z"/>
						<path class="st5" d="M73.6,91c2.4,0.8,3.5,1.1,3.2,2.5c-0.4,1.5-2.4,0.8-3.6,0.4c-1.2-0.4-2.6-0.6-2.6-2.2
							C70.6,90.5,72,90.5,73.6,91z"/>
					</g>
					<path class="st5" d="M37.1,22.4c0.4-1.5,0.8-3-0.6-3.5c-1.2-0.4-1.7-1.5-0.5-2.7c1.2-1.2,2.3-0.7,2.7,0.5
						c0.5,1.4,2.1,1.1,3.5,0.6c7.2-2.4,12.3,9.3,11.1,17.5C53.2,29.5,34.2,34.9,37.1,22.4z"/>
					<path class="st5" d="M207.8,22.4c-0.4-1.5-0.8-3,0.6-3.5c1.2-0.4,1.7-1.5,0.5-2.7c-1.2-1.2-2.3-0.7-2.7,0.5
						c-0.5,1.4-2.1,1.1-3.5,0.6c-7.2-2.4-12.3,9.3-11.1,17.5C191.7,29.5,210.7,34.9,207.8,22.4z"/>
					<path class="st5" d="M37.1,129.6c0.4,1.5,0.8,3-0.6,3.5c-1.2,0.4-1.7,1.5-0.5,2.7s2.3,0.7,2.7-0.5c0.5-1.4,2.1-1.1,3.5-0.6
						c7.2,2.4,12.3-9.3,11.1-17.5C53.2,122.5,34.2,117.1,37.1,129.6z"/>
					<path class="st5" d="M207.8,129.6c-0.4,1.5-0.8,3,0.6,3.5c1.2,0.4,1.7,1.5,0.5,2.7s-2.3,0.7-2.7-0.5c-0.5-1.4-2.1-1.1-3.5-0.6
						c-7.2,2.4-12.3-9.3-11.1-17.5C191.7,122.5,210.7,117.1,207.8,129.6z"/>
				</g>
				<g>
					<path class="st6" d="M88.7,55.9c2.2,1.4,6.1,2.2,10.8,2.5c-0.7,0.3-0.7,1.6-1.6,2.1c2.8-0.9,4.4,0.7,6.6,0.2
						c-0.4-1.6-0.9-2.8-1.6-3.8"/>
					<path class="st6" d="M89.9,92.5c1.1,3.6,3.4,7.1,7.2,10.1"/>
					<path class="st6" d="M104.1,93.7c-1.8,4.6-1,9.1,0.2,13.1"/>
					<path class="st6" d="M159.8,105.5c-2-1.3-4-2.8-5.4-4.6c-2.8-3.7-5.8-5.1-11.2-5.1"/>
					<path class="st6" d="M118.7,104.1c2.8-5.1,5.8-11.9,4.3-16.3"/>
					<path class="st6" d="M129.1,38.9c-2,2.3-6.5,3.4-10,2.8c1.7,0.5,1.7,2.4,3.5,2.9c-2.2,0.6-7.1,1.3-9.4-1.7
						c1.6,1.5,0.9,2.4,2.6,3.2c-3.3,0.2-5.4-0.7-6.8-1.9c-1.4-1.2-4.8-2.1-5.2,0.6c-0.2,1.4,0.9,2.2,1.8,2.2c0.9,0,1.5-0.7,1.6-1.3
						c0-0.7-0.2-1.4-1.2-1.4"/>
					<path class="st6" d="M105.2,63c-0.1,1.7,1.2,3.5,0.7,4.5c1.2-0.4,2.1-2.4,2.3-3.5c0.7,1.9,0.9,3.1,0.4,3.9
						c1.5-0.6,2.6-2.6,3.1-3.5c1.1,1.3,2.7,3.1,2.6,4.7c1-0.9,0.6-3.6,0.9-4.3c0.6,1.7,4.3,1.6,4.4,4.7c0.6-1.4,0.9-3.6,0.6-5.1"/>
					<path class="st6" d="M128.1,47.3c1.3,2.2,2.6,2.1,3.2,3.7"/>
					<path class="st6" d="M108.1,52.1c-0.2,3.3,3.1,3,2.8,4.3c0.1-1.4,1.7-2.1,1.7-3.4c0.1,1.8,2.4,1.4,2.9,3.5
						c-0.4-1.6,0.8-2.6-0.6-5c0.2,0.9,1.9,2,2,3.3c0-0.9,1.6-2.1,0.7-4c-0.1,1.5,2.4,1.4,1.9,3.7c0.3-0.9,1.5-1.9,1.1-4.9
						c0,2.4,4,2.6,3.8,4.9c0.9-1.6,0.9-4.3-0.1-6.6c1.4,1.1,1.9,2.6,2.2,5c0.2,1.7,2.3,3,3.6,4.1"/>
					<path class="st6" d="M131.2,68.7c0.7,0.9,1.7,1.6,3,2.2c-1.3,0.5-4.2,1.2-5.5,0.1c0.9,1.2-0.4,3.4,0.4,4.6
						c-0.6-0.7-5.1-0.8-5.8-2.6c-0.8,2.6-3.4,3.1-3.8,4.1c0.8-2.1-2.6-6.1-1.8-7.8c-1.8,0.1-0.9,4.5-3.1,5.8
						c0.7-1.1-1.9-2.7-1.6-4.2c-0.4,2.1-1.4,4.2-3.3,5.2c1.1-2.6-1.1-3.4-0.4-4.7c-0.7,5.9-3.4,4.1-4.1,5.9c0.7-3-1.3-4.2-0.4-5.5
						c-0.6,0.7-2.9,1.9-4.4,1.8c2.4-0.9,1.6-4.3,3.1-5"/>
					<path class="st6" d="M130.5,67.6c-3.3,0.6-6.4-2-7.5-4.1c0.1,0.9-0.2,2.5-0.4,3c-0.3-1.5-4-1.9-4.6-4.7c-0.1,1.1-0.8,2-1.1,2.3
						c-0.1-2.1-1.7-3.4-3-4.5c0.3,1.1-1.1,2.4-1.4,3.2c-0.2-1.2-2.6-2-2.8-4.1"/>
					<path class="st6" d="M129.1,61.9c-2.1-1.5-5-3.2-5-5.3c0.2,0.9-1.2,2.6-1.3,3.6c0.1-0.9-2.8-2-2.9-3.6c1.3,2.8-0.6,3.1-0.6,4.5
						c0.1-1.1-1.7-2.8-2.8-3.3"/>
				</g>
			</g>
		</g>
	</g>
</g>
<circle class="st7" cx="76" cy="76" r="75"/>
</svg>
