<?xml version="1.0" encoding="utf-8"?>
<!-- Generator: Adobe Illustrator 24.2.3, SVG Export Plug-In . SVG Version: 6.00 Build 0)  -->
<svg version="1.1" id="Capa_1" xmlns:serif="http://www.serif.com/"
	 xmlns="http://www.w3.org/2000/svg" xmlns:xlink="http://www.w3.org/1999/xlink" x="0px" y="0px" viewBox="0 0 152 152"
	 style="enable-background:new 0 0 152 152;" xml:space="preserve">
<style type="text/css">
	.st0{clip-path:url(#SVGID_2_);}
	.st1{fill:#E30520;stroke:#000000;stroke-width:0.25;}
	.st2{fill:#FFE000;stroke:#000000;stroke-width:6.250000e-02;}
	.st3{fill:#E30520;}
	.st4{fill:#FFE000;}
	.st5{fill:none;stroke:#515151;stroke-width:2;stroke-miterlimit:10;}
</style>
<g>
	<g>
		<g>
			<defs>
				<circle id="SVGID_1_" cx="76" cy="76" r="75"/>
			</defs>
			<clipPath id="SVGID_2_">
				<use xlink:href="#SVGID_1_"  style="overflow:visible;"/>
			</clipPath>
			<g class="st0">
				<rect x="-49.4" y="0.4" class="st1" width="250.7" height="150.4"/>
				<g>
					<path class="st2" d="M78.3,46.6c0.1-5.1,4.5-8.5,4.7-15.2c3.2,4-2.1,11.6-0.2,15.9c0.8-5,5.8-7.7,7.1-14.3
						c2.5,4.5-3.9,11.1-2.7,15.7c1.6-4.8,6.9-6.7,9.2-13c1.8,4.8-5.6,10.4-5.1,15.1c2.3-4.5,7.9-5.5,11.1-11.4
						c1,5.1-7.1,9.4-7.4,14.1c3-4,8.7-4.2,12.8-9.5c0.2,5.1-8.5,8.1-9.5,12.8c3.6-3.5,9.2-2.8,14.1-7.4c-0.6,5.1-9.7,6.7-11.4,11.1
						c4.1-2.9,9.6-1.3,15.1-5.1c-1.4,5-10.6,5.1-13,9.2c4.5-2.2,9.7,0.2,15.7-2.7c-2.1,4.7-11.3,3.4-14.3,7.1
						c4.8-1.5,9.5,1.7,15.9-0.2c-2.9,4.3-11.7,1.6-15.2,4.7c5-0.7,9.1,3.2,15.8,2.3c-3.5,3.8-11.8-0.3-15.8,2.3
						c5.1,0.1,8.5,4.5,15.2,4.7c-4,3.2-11.6-2.1-15.9-0.2c5,0.8,7.7,5.8,14.3,7.1c-4.5,2.5-11.1-3.9-15.7-2.7
						c4.8,1.6,6.7,6.9,13,9.2c-4.8,1.8-10.4-5.6-15.1-5.1c4.5,2.3,5.5,7.9,11.4,11.1c-5.1,1-9.4-7.1-14.1-7.4c4,3,4.2,8.7,9.5,12.8
						c-5.1,0.2-8.1-8.5-12.8-9.5c3.5,3.6,2.8,9.2,7.4,14.1c-5.1-0.6-6.7-9.7-11.1-11.4c2.9,4.1,1.3,9.6,5.1,15.1
						c-5-1.4-5.1-10.6-9.2-13c2.2,4.5-0.2,9.7,2.7,15.7c-4.7-2.1-3.4-11.3-7.1-14.3c1.5,4.8-1.7,9.5,0.2,15.9
						c-4.3-2.9-1.6-11.7-4.7-15.2c0.7,5-3.2,9.1-2.3,15.8c-3.8-3.5,0.3-11.8-2.3-15.8c-0.1,5.1-4.5,8.5-4.7,15.2
						c-3.2-4,2.1-11.6,0.2-15.9c-0.8,5-5.8,7.7-7.1,14.3c-2.5-4.5,3.9-11.1,2.7-15.7c-1.6,4.8-6.9,6.7-9.2,13
						c-1.8-4.8,5.6-10.4,5.1-15.1c-2.3,4.5-7.9,5.5-11.1,11.4c-1-5.1,7.1-9.4,7.4-14.1c-3,4-8.7,4.2-12.8,9.5
						c-0.2-5.1,8.5-8.1,9.5-12.8c-3.6,3.5-9.2,2.8-14.1,7.4c0.6-5.1,9.7-6.7,11.4-11.1C47,93.7,41.6,92.1,36,96
						c1.4-5,10.6-5.1,13-9.2c-4.5,2.2-9.7-0.2-15.7,2.7c2.1-4.7,11.3-3.4,14.3-7.1c-4.8,1.5-9.5-1.7-15.9,0.2
						c2.9-4.3,11.7-1.6,15.2-4.7c-5,0.7-9.1-3.2-15.8-2.3c3.5-3.8,11.8,0.3,15.8-2.3c-5.1-0.1-8.5-4.5-15.2-4.7
						c4-3.2,11.6,2.1,15.9,0.2c-5-0.8-7.7-5.8-14.3-7.1c4.5-2.5,11.1,3.9,15.7,2.7c-4.8-1.6-6.7-6.9-13-9.2
						c4.8-1.8,10.4,5.6,15.1,5.1c-4.5-2.3-5.5-7.9-11.4-11.1c5.1-1,9.4,7.1,14.1,7.4c-4-3-4.2-8.7-9.5-12.8
						c5.1-0.2,8.1,8.5,12.8,9.5c-3.5-3.6-2.8-9.2-7.4-14.1c5.1,0.6,6.7,9.7,11.1,11.4c-2.9-4.1-1.3-9.6-5.1-15.1
						c5,1.4,5.1,10.6,9.2,13c-2.2-4.5,0.2-9.7-2.7-15.7c4.7,2.1,3.4,11.3,7.1,14.3c-1.5-4.8,1.7-9.5-0.2-15.9
						c4.3,2.9,1.6,11.7,4.7,15.2c-0.7-5,3.1-9.1,2.3-15.8C79.8,34.3,75.7,42.6,78.3,46.6z"/>
				</g>
				<circle class="st3" cx="76" cy="75.6" r="23.7"/>
				<g>
					<g>
						<path class="st4" d="M76,55c6,0,11.5,2.6,15.2,6.7c-5.9,0.6-11,2-15.2,4.1c-4.3-2.1-9.3-3.5-15.2-4.1C64.5,57.6,69.9,55,76,55
							z"/>
						<path class="st4" d="M74.4,66.7c-0.5,0.3-0.9,0.5-1.4,0.8c-3.8-2.1-8.5-3.4-13.9-3.8c0.3-0.3,0.5-0.7,0.8-1
							C65.6,63.2,70.4,64.6,74.4,66.7z"/>
						<path class="st4" d="M77.6,66.7c0.5,0.3,0.9,0.5,1.4,0.8c3.8-2.1,8.5-3.4,13.9-3.8c-0.3-0.3-0.5-0.7-0.8-1
							C86.4,63.2,81.6,64.6,77.6,66.7z"/>
						<path class="st4" d="M58.4,64.8c-0.2,0.4-0.4,0.7-0.6,1.1c5.1,0.1,9.4,1.3,12.9,3.2c0.4-0.3,0.7-0.5,1.1-0.8
							C68.1,66.3,63.7,65.1,58.4,64.8z"/>
						<path class="st4" d="M58.1,86c-1.8-3-2.8-6.6-2.8-10.4c0-3.1,0.7-6,1.9-8.6c4.9,0,9.1,1,12.4,2.9C64.7,74,61,79.5,58.1,86z"/>
						<path class="st4" d="M68.5,94.9c-0.9-0.4-1.8-0.8-2.7-1.3c0.5-7.8,3-15.2,8.1-20.5c0.4,0.4,0.7,0.7,1.1,1.1
							C70.3,79.8,68.3,87.3,68.5,94.9z"/>
						<path class="st4" d="M93.6,64.8c0.2,0.4,0.4,0.7,0.6,1.1c-5.1,0.1-9.4,1.3-12.9,3.2c-0.4-0.3-0.7-0.5-1.1-0.8
							C83.9,66.3,88.3,65.1,93.6,64.8z"/>
						<path class="st4" d="M93.8,86c1.8-3,2.8-6.6,2.8-10.4c0-3.1-0.7-6-1.9-8.6c-4.9,0-9.1,1-12.4,2.9C87.3,74,91,79.5,93.8,86z"/>
						<path class="st4" d="M76,75.4c4.2,5.5,5.8,13,5,20.3c-1.6,0.4-3.3,0.6-5,0.6c-1.7,0-3.4-0.2-5-0.6
							C70.2,88.4,71.7,80.9,76,75.4z"/>
						<path class="st4" d="M83.4,94.9c0.9-0.4,1.8-0.8,2.7-1.3c-0.5-7.8-3-15.2-8.1-20.5c-0.4,0.4-0.7,0.7-1.1,1.1
							C81.6,79.8,83.7,87.3,83.4,94.9z"/>
						<path class="st4" d="M72.7,72c-0.5-0.4-0.9-0.7-1.4-1.1c-5.3,4.7-8.7,11-10.9,18.3c0.8,0.9,1.7,1.8,2.7,2.5
							C64.4,84.1,67.5,77.1,72.7,72z"/>
						<path class="st4" d="M79.2,72c0.5-0.4,0.9-0.7,1.4-1.1c5.3,4.7,8.7,11,10.9,18.3c-0.8,0.9-1.7,1.8-2.7,2.5
							C87.5,84.1,84.5,77.1,79.2,72z"/>
						<path class="st4" d="M76,67.6c0.3,0.1,1.2,0.7,1.4,0.9c-0.3,0.2-1.2,0.8-1.4,0.9c-0.2-0.1-1-0.7-1.4-0.9
							C74.8,68.3,75.7,67.7,76,67.6z"/>
						<path class="st4" d="M73.4,69.3c-0.3,0.3-0.9,0.7-1.1,0.8c0.5,0.3,1.2,0.8,1.4,1c0.3-0.2,0.8-0.7,1.1-0.9
							C74.4,70,73.7,69.4,73.4,69.3z"/>
						<path class="st4" d="M78.6,69.3c0.3,0.3,0.9,0.7,1.1,0.8c-0.5,0.3-1.2,0.8-1.4,1c-0.3-0.2-0.8-0.7-1.1-0.9
							C77.6,70,78.3,69.4,78.6,69.3z"/>
						<path class="st4" d="M76,71.2c0.2,0.2,0.9,0.8,1.1,1c-0.3,0.3-0.8,0.7-1.1,1c-0.3-0.3-0.8-0.8-1.1-1
							C75.1,72,75.7,71.4,76,71.2z"/>
					</g>
				</g>
			</g>
		</g>
	</g>
</g>
<circle class="st5" cx="76" cy="76" r="75"/>
</svg>
