<?xml version="1.0" encoding="utf-8"?>
<!-- Generator: Adobe Illustrator 24.2.3, SVG Export Plug-In . SVG Version: 6.00 Build 0)  -->
<svg version="1.1" id="Capa_1" xmlns:serif="http://www.serif.com/"
	 xmlns="http://www.w3.org/2000/svg" xmlns:xlink="http://www.w3.org/1999/xlink" x="0px" y="0px" viewBox="0 0 150 150"
	 style="enable-background:new 0 0 150 150;" xml:space="preserve">
<style type="text/css">
	.st0{fill-rule:evenodd;clip-rule:evenodd;fill:#0093C2;}
	.st1{fill:#FFF200;}
	.st2{fill-rule:evenodd;clip-rule:evenodd;fill:#FFF200;}
	.st3{fill:none;stroke:#515151;stroke-width:2;stroke-linecap:square;stroke-miterlimit:36;}
</style>
<circle class="st0" cx="75" cy="75" r="75"/>
<path class="st1" d="M75,84.6c14.1,0,25.5-11.4,25.5-25.5c0-14.1-11.4-25.5-25.5-25.5S49.5,45,49.5,59C49.5,73.1,60.9,84.6,75,84.6"
	/>
<path class="st2" d="M73.1,101.6L45.3,89.4l-11-17.9L25,60l1.3,24.5L37,102.1l21.2,4.6L37.6,92L33,79l16.5,16.8L73.1,101.6
	L73.1,101.6z"/>
<path class="st2" d="M100.5,104.1l13.5-1.7l10.1-17.8l4-13.9l-4.8-14.8L101,92.7l-22.9,9.1L60,112.6l11.3,1.8l-5,5.2l22-1.4l18.3-6
	l-15.4-3l-10.3,5.6l-9.6-4.8l11-7.1l11.7-0.9l14.4-11.7l8.2-10.9l0.9,8.8l-9.6,11.3L100.5,104.1L100.5,104.1z"/>
<circle class="st3" cx="75" cy="75" r="75"/>
</svg>
