<?xml version="1.0" encoding="utf-8"?>
<!-- Generator: Adobe Illustrator 24.2.3, SVG Export Plug-In . SVG Version: 6.00 Build 0)  -->
<svg version="1.1" id="Capa_1" xmlns:serif="http://www.serif.com/"
	 xmlns="http://www.w3.org/2000/svg" xmlns:xlink="http://www.w3.org/1999/xlink" x="0px" y="0px" viewBox="0 0 150 150"
	 style="enable-background:new 0 0 150 150;" xml:space="preserve">
<style type="text/css">
	.st0{fill-rule:evenodd;clip-rule:evenodd;fill:#007AC2;}
	.st1{fill-rule:evenodd;clip-rule:evenodd;fill:#FFF200;}
	.st2{fill-rule:evenodd;clip-rule:evenodd;fill:#ED1B2D;}
	.st3{fill:#FFFFFF;}
	.st4{fill:none;stroke:#515151;stroke-width:2;stroke-linecap:square;stroke-miterlimit:36;}
</style>
<path class="st0" d="M145.4,51.3c3.1,7.9,4.6,16.3,4.6,25s-1.5,17.1-4.6,25H4.6C1.5,93.4,0,85,0,76.3s1.5-17.1,4.6-25L145.4,51.3
	L145.4,51.3z"/>
<path class="st1" d="M4.6,51.3c9.9-29.1,37.7-50,70.4-50s60.5,20.9,70.4,50H4.6L4.6,51.3z"/>
<path class="st2" d="M145.4,101.3c-9.9,28.9-37.4,49.8-70.4,50c-32.7-0.2-60.3-20.9-70.4-50H145.4z"/>
<path class="st3" d="M114.9,86.4h-3.8l3.1,2.2l-1.2,3.6l3.1-2.2l3.1,2.2l-1.2-3.6l3.1-2.2h-3.8l-1.2-3.6L114.9,86.4z M104.9,74.5
	h-3.8l3.1,2.2l-1.2,3.6l3.1-2.2l3.1,2.2l-1.2-3.6l3.1-2.3h-3.8l-1.2-3.6L104.9,74.5L104.9,74.5z M91.6,66.8h-3.8l3.1,2.2l-1.2,3.6
	l3.1-2.2l3.1,2.2l-1.2-3.6l3.1-2.3h-3.8l-1.2-3.6L91.6,66.8L91.6,66.8z M38.9,82.8l-1.2,3.6h-3.8l3.1,2.2l-1.2,3.6l3.1-2.2l3.1,2.2
	l-1.2-3.6l3.1-2.2h-3.8L38.9,82.8L38.9,82.8z M48.9,70.9l-1.2,3.6h-3.8l3.1,2.3l-1.2,3.6l3.1-2.2l3.1,2.2l-1.2-3.6l3.1-2.2h-3.8
	L48.9,70.9L48.9,70.9z M62.3,63.2l-1.2,3.6h-3.8l3.1,2.3l-1.2,3.6l3.1-2.2l3.1,2.2L64.2,69l3.1-2.2h-3.8L62.3,63.2L62.3,63.2z
	 M78.7,64.2h3.8l-3.1,2.2l1.2,3.6l-3.1-2.2L74.5,70l1.2-3.6l-3.1-2.3h3.8l1.2-3.6L78.7,64.2L78.7,64.2z"/>
<circle class="st4" cx="75" cy="76.3" r="75"/>
</svg>
