<?xml version="1.0" encoding="utf-8"?>
<!-- Generator: Adobe Illustrator 24.2.3, SVG Export Plug-In . SVG Version: 6.00 Build 0)  -->
<svg version="1.1" id="Capa_1" xmlns:serif="http://www.serif.com/"
	 xmlns="http://www.w3.org/2000/svg" xmlns:xlink="http://www.w3.org/1999/xlink" x="0px" y="0px" viewBox="0 0 152 152"
	 style="enable-background:new 0 0 152 152;" xml:space="preserve">
<style type="text/css">
	.st0{fill-rule:evenodd;clip-rule:evenodd;fill:#009A67;}
	.st1{fill:#FFFFFF;}
	.st2{fill:none;stroke:#515151;stroke-width:2;stroke-linecap:square;stroke-miterlimit:37.5;}
</style>
<path class="st0" d="M76,151c-41.7-0.3-75-33.8-75-75C1,34.6,34.6,1,76,1s75,33.6,75,75C151,117.2,117.7,150.7,76,151z"/>
<path class="st1" d="M34.1,101.9c18.1,29.4,74.2,10.3,70.2,0.2C80.9,102,57.5,102,34.1,101.9L34.1,101.9z M114.5,106.7
	C114.9,101.7,95.2,107,114.5,106.7z M116.6,37.4c0-0.9,0-2-0.1-3.3c3.9,0.7,9.7,2.9,12.1,22.1c0.6-8.3,1.5-17.3,2.3-16.9
	c-0.8,10.2-1.4,17.4-1.8,22.2c0,0.1,0,0.2,0,0.3c0,0,0-0.1-0.1-0.1c-1.3,13.6-1.3,7.7-0.8-1.5c-9.4-19.3-10.8,18.4-23.9,11.8
	c-4.3-11.5-3.4-13.4,2.6-5.8C106.3,67.6,120.6,45.6,116.6,37.4c0,5.9-1.9,4.9-5.7-3C114,34.4,115.8,35.6,116.6,37.4L116.6,37.4z
	 M62.3,48.6L62.3,48.6L62.3,48.6c5.7,3,9,5.3,10.7,7.1c1.2-0.5,2.6-0.9,4.4-1.4c0.1,0,0.2-0.1,0.3-0.1c-0.1,0-0.2,0.1-0.3,0.1
	c-0.8,0.4,6.3,2-0.6,17.5c0,0,0,0,0,0v0c1.8-4-7-5.6-16.3-5.4C63.6,60.5,65.1,50.1,62.3,48.6L62.3,48.6z M41.7,71.6
	c0.7-2.9,4.1-6.9,7.5-10.9c0-0.1,0-0.1-0.1-0.1c0.1,0,0.1,0,0.1,0c3-3.5,6-6.8,7.1-9.3c1.5-3.4,2.5,8.8,1.1,15.1
	C49.6,67.1,42.4,68.9,41.7,71.6C41.7,71.6,41.7,71.6,41.7,71.6C41.7,71.6,41.7,71.6,41.7,71.6L41.7,71.6z M53.9,69.6
	c1.8,1.6,2.9-0.1,3.5-3c1-0.1,2-0.1,3-0.1C58.7,69.9,56.3,71.8,53.9,69.6c-0.1-0.1-0.2-0.2-0.2-0.2C53.8,69.4,53.8,69.5,53.9,69.6z
	 M78.3,39c1.3,9.2,13.3,26.6,17.2,26.5c0.3,8.4,1.7,8.3,3-25.4c-2-0.8-2.9,8.4-3,16.8c-4.2-14.6-13-24.7-15.8-23
	c-1.1,0.7-1.5,2-1.5,3.7c0.2,0.2,0.4,0.4,0.6,0.7C78.7,38.6,78.5,38.8,78.3,39L78.3,39z M120.4,67.9C119.1,69.4,122.6,71,120.4,67.9
	z M33.1,66.7c-4.8,0.9-3.4-1.6-0.6-4.5c-7.6,4.6-11.7,8.6,0.3,6.8C43.7,67.4,48.9,63.7,33.1,66.7z M40.7,54.4c7-3.1,6.1-5.3,5-6.2
	c1.1,0.5,3.4,1.3,7.9,2.5c0.4,0.1-12.5,6.2-21,11.4C36,58.6,41.5,54.2,40.7,54.4c-0.1,0-0.2,0.1-0.3,0.1
	C40.6,54.5,40.7,54.5,40.7,54.4z M103.7,40.5C92.9,83.1,108,44,103.7,40.5z M28.6,34.9c0.1-0.2,0.3-0.3,0.5-0.5
	C28.9,34.6,28.8,34.7,28.6,34.9c-8.3,9.3,5.9,7.3,8,4.5c3.4,6.5-5.8,20.4-6.6,10.8C16.4,50.4,23.8,40.2,28.6,34.9L28.6,34.9z
	 M108.9,46.6C114,51.8,110.7,39.1,108.9,46.6z M67.4,40.5c-0.8-2.6-1.5-6.1-0.6-6.1c0.8,0.1,1.1,4.7,0.9,6c3.6-0.2,6.9-0.2,8.1,1
	c-7.3,5.8-21.9,7-19.6-2.6C56.3,41.5,62,40.8,67.4,40.5z M124.9,36.6c1,0.1,1.7,8.9,1,6.9C125.2,40.6,124,36.8,124.9,36.6
	C124.8,36.6,124.9,36.6,124.9,36.6L124.9,36.6z M52.3,38.8C44.3,31.9,57.8,49.8,52.3,38.8z M78.3,39c-0.1-0.5-0.1-0.9-0.1-1.4
	c-3.6-4.1-4.4-2.8-2.2,3.8C76.9,40.7,77.7,39.9,78.3,39z M91.2,34.5c1.3,0.1,2,10.5,0.7,4.7C91.4,37.1,90.3,34.5,91.2,34.5z
	 M32.6,36.6c2.1,0.4,3.4,1.4,4.1,2.8C37.4,38.4,36.6,37.4,32.6,36.6z"/>
<circle class="st2" cx="76" cy="76" r="75"/>
</svg>
