<?xml version="1.0" encoding="utf-8"?>
<!-- Generator: Adobe Illustrator 24.2.3, SVG Export Plug-In . SVG Version: 6.00 Build 0)  -->
<svg version="1.1" id="Capa_1" xmlns:serif="http://www.serif.com/"
	 xmlns="http://www.w3.org/2000/svg" xmlns:xlink="http://www.w3.org/1999/xlink" x="0px" y="0px" viewBox="0 0 152 152"
	 style="enable-background:new 0 0 152 152;" xml:space="preserve">
<style type="text/css">
	.st0{fill-rule:evenodd;clip-rule:evenodd;fill:#ED174C;}
	.st1{fill-rule:evenodd;clip-rule:evenodd;fill:#007AC2;}
	.st2{fill-rule:evenodd;clip-rule:evenodd;fill:#FFE766;}
	.st3{fill:none;stroke:#515151;stroke-width:2;stroke-linecap:square;stroke-miterlimit:36;}
	.st4{fill:#452C25;}
	.st5{fill:#A6A8AB;}
	.st6{fill:#F01823;}
	.st7{fill:#004D9F;}
	.st8{fill-rule:evenodd;clip-rule:evenodd;fill:#754C28;}
	.st9{fill:#FFDD35;}
	.st10{fill:#008F15;}
	.st11{fill:#47D4FF;}
	.st12{fill:#754C28;}
	.st13{fill-rule:evenodd;clip-rule:evenodd;fill:#929497;}
</style>
<path class="st0" d="M140.6,113.5C127.9,135.9,103.7,151,76,151s-51.9-15.1-64.6-37.5H140.6z"/>
<path class="st1" d="M151,76c-0.1,13.8-3.8,26.7-10.4,37.5H11.4C4.7,102.5,1,89.7,1,76H151z"/>
<path class="st2" d="M76,1c41.5,0.3,74.7,33.5,75,75H1C1,34.8,34.3,1.3,76,1z"/>
<circle class="st3" cx="76" cy="76" r="75"/>
<g id="Layer-1" serif:id="Layer 1">
</g>
<g id="Layer-11" serif:id="Layer 1">
	<path class="st4" d="M64.1,46.6l-11.7,5.5l19.8,5.1l-2.9,6.6l6-2.1l1.6-2.8l0.5,3.2l1.2-0.2V59l0.9-1.7l9.5-3.7l10.7-1.7l-10-4.2
		l-8.3-0.5l-1.4,2.7l-2.5,0.4l-2.5-0.1l-2.5,0.4l-1.2-0.4L70,47.1L64.1,46.6L64.1,46.6z"/>
	<path class="st5" d="M51.2,65.3l1.3,1.1H51l0.4,1.7l2.1,0.5l-0.4-1.7H55v-2.5l-2,0.4v-1.5l-3.1-1.2L51.2,65.3z"/>
	<path class="st5" d="M55.9,57l2.3,0.9v1.1l1.5-0.3v1.8h-1.4l0.3,1.2l-1.5-0.4l-0.3-1.2h1.1l-1-0.8L55.9,57L55.9,57z"/>
	<path class="st5" d="M96.3,57L94,57.9v1.1l-1.5-0.3v1.8H94l-0.3,1.2l1.5-0.4l0.3-1.2h-1.1l1-0.8L96.3,57L96.3,57z"/>
	<path class="st5" d="M99,63.3v1.5l-2-0.4v2.5h1.9l-0.4,1.7l2.1-0.5l0.4-1.7h-1.5l1.3-1.1l1.2-3.2L99,63.3z"/>
	<path class="st6" d="M61.8,74.2l2.4,1.8c0,0-1.3,16.9,11.8,16.9C89,93,87.3,76.7,87.3,76.7l2.8-2.1c0,0,4.2,12.5-0.9,16.6
		c-5.1,4.1-9.3,4.9-14.2,4.5c-4.9-0.4-8.4,0.4-11.1-3.3c-2.8-3.7-3.4-10.3-3.3-14.2C60.7,74.2,61.8,74.2,61.8,74.2"/>
	<path class="st7" d="M59.4,71.8l2.3,2.8c0,0-0.7,13.6,3.3,17c4,3.4,4.5,3.2,4.5,3.2v2c0,0-8.8-0.1-10.1-4.1
		C58.2,88.7,59.4,71.8,59.4,71.8"/>
	<path class="st7" d="M92.4,71.8l-2.3,2.8c0,0,0.7,13.6-3.3,17c-4,3.4-4.5,3.2-4.5,3.2v2c0,0,8.8-0.1,10.1-4.1
		C93.6,88.7,92.4,71.8,92.4,71.8"/>
	<rect x="68" y="93" class="st8" width="16.1" height="6.3"/>
	<path class="st9" d="M55.5,67.6c0,0-0.8,18.5-0.3,23.6c0.5,5.1,3,8.5,7.4,8.9s6-2.5,6-2.5v-1.4c0,0-6.4,0.3-7.9-5.2
		c-1.5-5.7-1.2-19.2-1.2-19.2L55.5,67.6L55.5,67.6z"/>
	<path class="st9" d="M97.2,67.6c0,0,0.8,18.5,0.3,23.6c-0.5,5.1-3,8.5-7.4,8.9c-4.4,0.4-6-2.5-6-2.5v-1.4c0,0,6.5,0.3,7.9-5.2
		c1.5-5.7,1.2-19.2,1.2-19.2L97.2,67.6L97.2,67.6z"/>
	<path class="st10" d="M58.9,71.8l0.7-5.3l1.4,1.3l-1-5.1l2.6,2.1l3.5-4.5l-1.2,3.8l3.7-1.7l-3.3,3.6l-0.4,2.5l-2.4,1.8l0.1,6.1
		L58.9,71.8L58.9,71.8z"/>
	<path class="st10" d="M93.1,71.8l-0.7-5.3L91,67.8l1-5.1l-2.6,2.1L86,60.4l1.2,3.8l-3.7-1.7l3.3,3.6l0.4,2.5l2.4,1.8l-0.1,6.1
		L93.1,71.8z"/>
	<path class="st11" d="M87.3,77.7c0,8.4-5.1,15.3-11.4,15.3c-6.3,0-11.4-6.8-11.4-15.3s5.1-15.3,11.4-15.3
		C82.1,62.5,87.3,69.3,87.3,77.7"/>
	<path class="st12" d="M75.8,63.2c-5.9,0-10.7,6.5-10.7,14.5c0,8,4.8,14.5,10.7,14.5c5.9,0,10.7-6.5,10.7-14.5
		C86.5,69.7,81.7,63.2,75.8,63.2 M75.8,93.7c-6.7,0-12.2-7.2-12.2-16s5.5-16,12.2-16c6.7,0,12.2,7.2,12.2,16S82.5,93.7,75.8,93.7"/>
	<path class="st9" d="M79.8,68.2c0,1.6-1.3,2.8-2.8,2.8s-2.8-1.3-2.8-2.8c0-1.6,1.3-2.8,2.8-2.8S79.8,66.6,79.8,68.2"/>
	<path class="st9" d="M70.9,97.7l-3.7,6.7l5.2,0.4l1.7-6.7L70.9,97.7L70.9,97.7z"/>
	<path class="st9" d="M81,97.7l3.7,6.7l-5.2,0.4L77.7,98L81,97.7L81,97.7z"/>
	<path class="st6" d="M75.2,96.8l-1.8,12.4l2.5-1l2.5,1L77,97.9L75.2,96.8L75.2,96.8z"/>
	<path class="st13" d="M52,100.8l8.4-7.5l0.5,0.5l-8.4,7.5L52,100.8z"/>
	<path class="st13" d="M57.4,106l8.4-7.5l0.4,0.5l-8.4,7.5L57.4,106z"/>
	<path class="st13" d="M99.6,101.3l-8.4-7.5l0.5-0.5l8.4,7.5L99.6,101.3z"/>
	<path class="st13" d="M94.2,106.5L85.8,99l0.4-0.5l8.4,7.5L94.2,106.5z"/>
</g>
</svg>
