<?xml version="1.0" encoding="utf-8"?>
<!-- Generator: Adobe Illustrator 24.2.3, SVG Export Plug-In . SVG Version: 6.00 Build 0)  -->
<svg version="1.1" id="Capa_1" xmlns:serif="http://www.serif.com/"
	 xmlns="http://www.w3.org/2000/svg" xmlns:xlink="http://www.w3.org/1999/xlink" x="0px" y="0px" viewBox="0 0 152 152"
	 style="enable-background:new 0 0 152 152;" xml:space="preserve">
<style type="text/css">
	.st0{fill-rule:evenodd;clip-rule:evenodd;fill:#FFFFFF;}
	.st1{fill-rule:evenodd;clip-rule:evenodd;fill:#E1393E;}
	.st2{fill-rule:evenodd;clip-rule:evenodd;fill:#007F61;}
	.st3{fill:none;stroke:#515151;stroke-width:2;stroke-linecap:square;stroke-miterlimit:36;}
</style>
<path class="st0" d="M95.2,3.8c25,6.4,44.8,25.4,52.1,50H4.7c7.4-24.6,27.1-43.7,52.1-50L95.2,3.8L95.2,3.8z"/>
<path class="st1" d="M145.5,103.8C134.5,131.6,107.5,151,76,151s-58.5-19.4-69.5-47.2L145.5,103.8L145.5,103.8z"/>
<path class="st2" d="M147.3,53.8c2.5,6.9,3.7,14.4,3.7,22.2c0,9.9-1.9,19.4-5.5,27.8H6.5C2.9,95.4,1,85.9,1,76
	c0-7.8,1.2-15.3,3.7-22.2L147.3,53.8L147.3,53.8z"/>
<circle class="st3" cx="76" cy="76" r="75"/>
</svg>
