<?xml version="1.0" encoding="utf-8"?>
<!-- Generator: Adobe Illustrator 24.2.3, SVG Export Plug-In . SVG Version: 6.00 Build 0)  -->
<svg version="1.1" id="Capa_1" xmlns:serif="http://www.serif.com/"
	 xmlns="http://www.w3.org/2000/svg" xmlns:xlink="http://www.w3.org/1999/xlink" x="0px" y="0px" viewBox="0 0 152 152"
	 style="enable-background:new 0 0 152 152;" xml:space="preserve">
<style type="text/css">
	.st0{fill-rule:evenodd;clip-rule:evenodd;fill:#FFFFFF;}
	.st1{fill-rule:evenodd;clip-rule:evenodd;fill:#6EA295;}
	.st2{fill:#CE1041;}
	.st3{fill:none;stroke:#515151;stroke-width:2;stroke-linecap:square;stroke-miterlimit:36;}
</style>
<path class="st0" d="M77.8,1.2C118.3,1.9,151,35.2,151,76s-32.7,74.1-73.2,74.8C77.8,150.8,77.8,1.2,77.8,1.2z"/>
<path class="st1" d="M76,1l1.8,0.2v149.6L76,151c-41.4,0-75-33.6-75-75C1,34.8,34.3,1.3,76,1z"/>
<path class="st2" d="M109.5,95.8c-6.6,10.5-18.3,17.5-31.7,17.5c-20.6,0-37.3-16.7-37.3-37.3c0-20.6,16.7-37.3,37.3-37.3
	c13.3,0,25.1,7,31.7,17.5c-5.2-5.4-12.5-8.8-20.5-8.8c-15.7,0-28.5,12.8-28.5,28.5s12.8,28.5,28.5,28.5
	C97.1,104.5,104.4,101.1,109.5,95.8L109.5,95.8z M98.9,58.6l-7.7,10.8l-12.8-4.1l8,10.8l-7.8,10.8l12.7-4.2L99,93.5l0-13.4l12.7-4
	l-12.7-4.1L98.9,58.6L98.9,58.6z"/>
<circle class="st3" cx="76" cy="76" r="75"/>
</svg>
