<?xml version="1.0" encoding="utf-8"?>
<!-- Generator: Adobe Illustrator 24.2.3, SVG Export Plug-In . SVG Version: 6.00 Build 0)  -->
<svg version="1.1" id="Capa_1" xmlns:serif="http://www.serif.com/"
	 xmlns="http://www.w3.org/2000/svg" xmlns:xlink="http://www.w3.org/1999/xlink" x="0px" y="0px" viewBox="0 0 150 150"
	 style="enable-background:new 0 0 150 150;" xml:space="preserve">
<style type="text/css">
	.st0{fill-rule:evenodd;clip-rule:evenodd;fill:#FFFFFF;}
	.st1{fill-rule:evenodd;clip-rule:evenodd;fill:#F15D2A;}
	.st2{fill-rule:evenodd;clip-rule:evenodd;fill:#00275D;}
	.st3{fill:#FFE01B;}
	.st4{fill-rule:evenodd;clip-rule:evenodd;fill:#FFE01B;}
	.st5{fill:none;stroke:#515151;stroke-width:2;stroke-linecap:square;stroke-miterlimit:36;}
</style>
<circle id="bandera-malasia" class="st0" cx="75" cy="76.3" r="75"/>
<path class="st1" d="M116.9,138.5l-3.9,2.1H36.9l-3.9-2.1l-10.4-8.6h104.7L116.9,138.5z"/>
<path class="st1" d="M137.2,118.2l-0.8,0.9H13.6l-0.8-0.9l-5.3-9.8h135L137.2,118.2z"/>
<path class="st1" d="M148.5,91.4l-2,6.3H3.5l-2-6.3l-0.4-4.3h147.8L148.5,91.4z"/>
<path class="st1" d="M150,76.3H0l1.1-10.7h147.8L150,76.3L150,76.3z"/>
<path class="st1" d="M144.1,47.1l2.4,7.7H3.5l2.4-7.7l1.6-3h135L144.1,47.1L144.1,47.1z"/>
<path class="st1" d="M128,23.3l8.4,10.2H13.6L22,23.3l0.7-0.6h104.7L128,23.3L128,23.3z"/>
<path class="st2" d="M1.1,87.1L0,76.3c0-41.4,33.6-75,75-75c19,0,36.3,7.1,49.5,19v66.8H1.1L1.1,87.1z"/>
<path class="st3" d="M71.7,71.5l2.4-16.7l9.4,14l-5.1-16.1l14.5,8.6L81.4,48.9l16.8,1.4l-15.8-6l15.7-6l-16.8,1.3L93,27.3l-14.6,8.7
	l5.1-16.2l-9.4,14.1l-2.4-16.8l-2.4,16.8l-9.4-14.1L65,35.9l-14.6-8.7l11.7,12.3l-16.8-1.3l15.7,6l-15.8,6l16.8-1.4L50.5,61.2
	L65,52.7l-5.1,16.1l9.4-14L71.7,71.5L71.7,71.5z"/>
<path class="st4" d="M36.8,12.1c6.4,0,12.3,2,17.8,5.6c-3.2-1.3-6.7-2-10.4-2c-15.7,0-28.5,12.8-28.5,28.5
	c0,15.7,12.8,28.5,28.5,28.5c3.6,0,7.1-0.7,10.2-1.9c-5.2,3.6-11.4,5.7-18.3,5.7c-15.5,0-28.4-10.9-31.5-25.4
	C10.4,34.6,21.9,20.7,36.8,12.1L36.8,12.1z"/>
<circle class="st5" cx="75" cy="76.3" r="75"/>
</svg>
