<?xml version="1.0" encoding="utf-8"?>
<!-- Generator: Adobe Illustrator 24.2.3, SVG Export Plug-In . SVG Version: 6.00 Build 0)  -->
<svg version="1.1" id="Capa_1" xmlns:serif="http://www.serif.com/"
	 xmlns="http://www.w3.org/2000/svg" xmlns:xlink="http://www.w3.org/1999/xlink" x="0px" y="0px" viewBox="0 0 150 150"
	 style="enable-background:new 0 0 150 150;" xml:space="preserve">
<style type="text/css">
	.st0{fill-rule:evenodd;clip-rule:evenodd;fill:#FFFFFF;}
	.st1{fill-rule:evenodd;clip-rule:evenodd;fill:#00A650;}
	.st2{fill:none;stroke:#515151;stroke-width:2;stroke-linecap:square;stroke-miterlimit:36;}
</style>
<circle id="bandera-pakistan" class="st0" cx="75" cy="76.3" r="75"/>
<path class="st1" d="M75,1.3c28,0.2,52.2,15.4,64.9,38.1l-9.7,4l-10.5-12.4l1.3,16.2l-15.2,6.4l16.3,4.1l1.3,16.7l8.5-14.1l16,3.9
	L137,51.5l4.9-8.3c4.6,8.6,7.3,18.4,7.6,28.7c-3.6,16-17.7,27.8-34.7,27.8c-19.7,0-35.6-15.9-35.6-35.6c0-19.7,15.9-35.6,35.6-35.6
	c2,0,4,0.3,6,0.6c-6-2.5-12.5-3.9-19.4-3.9c-27.6,0-50,22.4-50,50c0,27.6,22.4,50,50,50c20.7,0,38.5-12.6,46.1-30.5
	c-7.9,32.4-37.1,56.4-72,56.6h-0.9c-23.4-0.1-44.3-11-57.8-28.3V29.7C30,12.5,51,1.5,75,1.3L75,1.3z"/>
<circle class="st2" cx="75" cy="76.3" r="75"/>
</svg>
