<?xml version="1.0" encoding="utf-8"?>
<!-- Generator: Adobe Illustrator 24.2.3, SVG Export Plug-In . SVG Version: 6.00 Build 0)  -->
<svg version="1.1" id="Capa_1" xmlns:serif="http://www.serif.com/"
	 xmlns="http://www.w3.org/2000/svg" xmlns:xlink="http://www.w3.org/1999/xlink" x="0px" y="0px" viewBox="0 0 150 150"
	 style="enable-background:new 0 0 150 150;" xml:space="preserve">
<style type="text/css">
	.st0{fill-rule:evenodd;clip-rule:evenodd;fill:#FFFFFF;}
	.st1{fill-rule:evenodd;clip-rule:evenodd;fill:#003876;}
	.st2{fill-rule:evenodd;clip-rule:evenodd;fill:#E1393E;}
	.st3{fill:none;stroke:#515151;stroke-width:2;stroke-linecap:square;stroke-miterlimit:36;}
</style>
<circle class="st0" cx="75" cy="74.4" r="75"/>
<path class="st1" d="M51.4,145.2c-13.4-4.3-25.1-12.3-33.8-23.1l33.8-16.9V145.2z"/>
<path class="st1" d="M133.2,121.1c-8.2,10.5-19.1,18.6-31.9,23.2v-39.1L133.2,121.1L133.2,121.1z"/>
<path class="st1" d="M101.3,4.3C114,9,125,17,133.2,27.6l-31.9,15.9L101.3,4.3L101.3,4.3z"/>
<path class="st1" d="M51.4,43.5L17.6,26.6c8.7-10.8,20.5-19,33.8-23.1V43.5z"/>
<path class="st2" d="M62,0.7l13-1.3c5.6,0,11,0.6,16.3,1.9v58.5h57.2l1.5,14.6L148.5,89H91.3v58.4c-5.3,1.3-10.7,1.9-16.3,1.9
	L62,148V89H1.5L0,74.4l1.5-14.6H62V0.7L62,0.7z"/>
<path class="st2" d="M8.5,108.4l18.1-9.1h23.9L14,117.7l-1.2-1.4L8.5,108.4L8.5,108.4z"/>
<path class="st2" d="M144.1,103.5l-2,3.6l-15.6-7.8h18.8L144.1,103.5z"/>
<path class="st2" d="M137.2,32.4l5,9.2l-15.5,7.8h-23.9L137,32.2L137.2,32.4z"/>
<path class="st2" d="M26.9,49.4H4.6l1.3-4.2l2.7-4.9L26.9,49.4z"/>
<circle class="st3" cx="75" cy="74.4" r="75"/>
</svg>
