<?xml version="1.0" encoding="utf-8"?>
<!-- Generator: Adobe Illustrator 24.2.3, SVG Export Plug-In . SVG Version: 6.00 Build 0)  -->
<svg version="1.1" id="Capa_1" xmlns:serif="http://www.serif.com/"
	 xmlns="http://www.w3.org/2000/svg" xmlns:xlink="http://www.w3.org/1999/xlink" x="0px" y="0px" viewBox="0 0 152 152"
	 style="enable-background:new 0 0 152 152;" xml:space="preserve">
<style type="text/css">
	.st0{fill-rule:evenodd;clip-rule:evenodd;fill:#72103D;}
	.st1{fill-rule:evenodd;clip-rule:evenodd;fill:#FFFFFF;}
	.st2{fill:none;stroke:#515151;stroke-width:2;stroke-linecap:square;stroke-miterlimit:37.5;}
</style>
<path class="st0" d="M55,4.3C61.7,2,68.7,1,76,1c41.4,0,75,33.6,75,75c0,41.2-33.3,74.7-75,75l-15.1-1.5l-5.9-1.8l15.3-5l-25.5-8.4
	l25.5-8.3l-25.5-8.3l25.5-8.3l-25.5-8.4l25.5-8.3l-25.5-8.3L70.3,76l-25.5-8.4l25.5-8.3L44.8,51l25.5-8.3l-25.5-8.3L70.3,26
	l-25.5-8.3l25.5-8.3L55,4.3z"/>
<path class="st1" d="M70.3,9.3l-25.5,8.3l25.5,8.3l-25.5,8.3l25.5,8.3l-25.5,8.3l25.5,8.3l-25.5,8.4l25.5,8.3l-25.5,8.3l25.5,8.3
	l-25.5,8.4l25.5,8.3l-25.5,8.3l25.5,8.3l-25.5,8.4l25.5,8.3l-15.3,5C23.8,138.9,1,110.1,1,76S23.8,13,55,4.3L70.3,9.3L70.3,9.3z"/>
<circle class="st2" cx="76" cy="76" r="75"/>
</svg>
