<?xml version="1.0" encoding="utf-8"?>
<!-- Generator: Adobe Illustrator 24.2.3, SVG Export Plug-In . SVG Version: 6.00 Build 0)  -->
<svg version="1.1" id="Capa_1" xmlns:serif="http://www.serif.com/"
	 xmlns="http://www.w3.org/2000/svg" xmlns:xlink="http://www.w3.org/1999/xlink" x="0px" y="0px" viewBox="0 0 150 150"
	 style="enable-background:new 0 0 150 150;" xml:space="preserve">
<style type="text/css">
	.st0{fill-rule:evenodd;clip-rule:evenodd;fill:#D83848;}
	.st1{fill-rule:evenodd;clip-rule:evenodd;fill:#193561;}
	.st2{fill-rule:evenodd;clip-rule:evenodd;fill:#FFFFFF;}
	.st3{fill-rule:evenodd;clip-rule:evenodd;fill:#FFD047;}
	.st4{fill:none;stroke:#515151;stroke-width:2;stroke-linecap:square;stroke-miterlimit:36;}
</style>
<path class="st0" d="M150,76.3c-0.3,41.7-33.8,75-75,75c-19.6,0-37.5-7.6-50.8-20.1l93.3-54.9H150z"/>
<path class="st1" d="M24.2,21.4C37.5,8.8,55.4,1.3,75,1.3c41.2,0,74.7,33.3,75,75h-32.5L24.2,21.4L24.2,21.4z"/>
<path class="st2" d="M24.2,131.2C9.1,117.3,0,97.8,0,76.3h117.5L24.2,131.2L24.2,131.2z"/>
<path class="st2" d="M117.5,76.3H0c0-21.5,9.1-41,24.2-54.9L117.5,76.3z"/>
<path id="bandera-filipinas" class="st3" d="M67.2,74.8l1.1,1.6l-1.1,1.6l-15.6-0.5c0,0.3-0.1,0.9-0.1,1.2l13.5,1l-1.3,1.9
	l-12.5-1.5c-0.4,1.4-0.9,2.8-1.7,4.1l9.9,7.7L58.9,94l-10.3-8.8c-0.1,0.2-0.5,0.7-0.7,0.9l11.4,10.7l-0.4,1.9L57.1,99L46.4,87.6
	c-0.2,0.2-0.7,0.6-0.9,0.7l8.8,10.3L52.1,99l-7.7-9.9c-1.2,0.7-2.6,1.3-4.1,1.7l1.5,12.5l-1.9,1.3l-1-13.4c-0.2,0-0.9,0.1-1.2,0.1
	l0.5,15.6l-1.6,1.1l-1.6-1.1l0.5-15.6c-0.3,0-0.9-0.1-1.2-0.1l-1,13.4l-1.9-1.3L33,90.8c-1.4-0.3-2.8-0.9-4.1-1.7L21.1,99l-2.2-0.5
	l8.8-10.2c-0.2-0.2-0.7-0.5-0.9-0.7L16.1,99l-1.9-0.4l-0.4-1.9l11.4-10.7c-0.2-0.2-0.6-0.7-0.7-0.9L14.3,94l-0.4-2.2l9.9-7.8
	c-0.8-1.3-1.3-2.6-1.7-4.1L9.6,81.4l-1.3-1.9l13.5-1c0-0.2-0.1-0.8-0.1-1.2L6,77.8L5,76.3L6,74.7l15.6,0.5c0-0.3,0.1-0.9,0.1-1.2
	L8.3,73l1.3-1.9L22,72.7c0.4-1.4,0.9-2.8,1.7-4.1l-9.9-7.8l0.4-2.2l10.3,8.8c0.1-0.2,0.5-0.7,0.7-0.9L13.9,55.8l0.4-1.8l1.8-0.3
	L26.8,65c0.2-0.2,0.7-0.6,0.9-0.7L18.9,54l2.2-0.4l7.7,9.9c1.3-0.8,2.6-1.3,4.1-1.7l-1.5-12.5l1.9-1.3l1,13.5c0.3,0,0.9-0.1,1.2-0.1
	L35,45.7l1.6-1.1l1.6,1.1l-0.5,15.6c0.3,0,0.9,0.1,1.2,0.1l1-13.5l1.9,1.3l-1.5,12.5c1.4,0.4,2.8,0.9,4.1,1.7l7.7-9.9l2.2,0.4
	l-8.8,10.3c0.2,0.2,0.7,0.5,0.9,0.7l10.7-11.4L59,54l0.4,1.9L47.9,66.5c0.2,0.3,0.6,0.7,0.7,0.9l10.2-8.8l0.4,2.2l-9.9,7.7
	c0.8,1.2,1.3,2.6,1.7,4.1l12.5-1.5l1.3,1.9l-13.5,1c0,0.3,0.1,0.9,0.1,1.2L67.2,74.8z M96.8,68.4l-3.6,4.9l-5.7-1.9l3.6,4.9
	l-3.6,4.9l5.8-1.9l3.5,4.9v-6l5.8-1.9l-5.7-1.8V68.4L96.8,68.4z"/>
<circle class="st4" cx="75" cy="76.3" r="75"/>
</svg>
