<?xml version="1.0" encoding="utf-8"?>
<!-- Generator: Adobe Illustrator 24.2.3, SVG Export Plug-In . SVG Version: 6.00 Build 0)  -->
<svg version="1.1" id="Capa_1" xmlns:serif="http://www.serif.com/"
	 xmlns="http://www.w3.org/2000/svg" xmlns:xlink="http://www.w3.org/1999/xlink" x="0px" y="0px" viewBox="0 0 150 150"
	 style="enable-background:new 0 0 150 150;" xml:space="preserve">
<style type="text/css">
	.st0{fill-rule:evenodd;clip-rule:evenodd;fill:#ED1B2D;}
	.st1{fill:#FFE153;}
	.st2{fill:none;stroke:#515151;stroke-width:2;stroke-linecap:square;stroke-miterlimit:36;}
</style>
<circle class="st0" cx="75" cy="75" r="75"/>
<path class="st1" d="M69.2,62.8l3,4.5l-3.4,4.3l5.3-1.4l2.9,4.6l0.3-5.4l5.2-1.4l-5.1-1.9l0.3-5.4l-3.4,4.2L69.2,62.8L69.2,62.8z
	 M83,50.5l4.5,3.1l-1.6,5.2l4.3-3.3l4.5,3.1l-1.8-5.1l4.3-3.3l-5.5,0.1l-1.8-5.1l-1.5,5.2L83,50.5L83,50.5z M86.8,23.2l0.8,5.4
	L82.7,31l5.4,0.9l0.7,5.4l2.5-4.8l5.3,1l-3.8-3.9l2.6-4.8l-4.9,2.4L86.8,23.2L86.8,23.2z M69.4,10.2l2.8,4.7l-3.6,4.1l5.3-1.2
	l2.7,4.7l0.5-5.4l5.3-1.2l-5-2.2L78,8.3l-3.6,4.1L69.4,10.2L69.4,10.2z M42.5,30.7h16.2l-13.1,9.3l5,15.4l-13-9.5l-13,9.5l5.1-15.3
	l-13.2-9.5h16.2l4.9-15.3L42.5,30.7L42.5,30.7z"/>
<circle class="st2" cx="75" cy="75" r="75"/>
</svg>
