<?xml version="1.0" encoding="utf-8"?>
<!-- Generator: Adobe Illustrator 24.2.3, SVG Export Plug-In . SVG Version: 6.00 Build 0)  -->
<svg version="1.1" id="Capa_1" xmlns:serif="http://www.serif.com/"
	 xmlns="http://www.w3.org/2000/svg" xmlns:xlink="http://www.w3.org/1999/xlink" x="0px" y="0px" viewBox="0 0 150 150"
	 style="enable-background:new 0 0 150 150;" xml:space="preserve">
<style type="text/css">
	.st0{fill-rule:evenodd;clip-rule:evenodd;fill:#EE324E;}
	.st1{fill-rule:evenodd;clip-rule:evenodd;fill:#61BB46;}
	.st2{fill-rule:evenodd;clip-rule:evenodd;fill:#FFFFFF;}
	.st3{fill:#F3CF1E;}
	.st4{fill:none;stroke:#515151;stroke-width:2;stroke-linecap:square;stroke-miterlimit:36;}
</style>
<path class="st0" d="M7.5,42.9C19.2,17.6,45.1,0,75,0s55.8,17.6,67.5,42.9H7.5L7.5,42.9z"/>
<path class="st1" d="M142.5,107.1c-11.6,25.1-37.3,42.7-67.4,42.9h-0.1c-29.9-0.2-55.5-17.6-67.4-42.9H142.5L142.5,107.1z"/>
<path class="st2" d="M142.5,42.9c4.9,9.8,7.5,20.7,7.5,32.1s-2.6,22.3-7.5,32.1H7.5C2.6,97.3,0,86.5,0,75s2.6-22.3,7.5-32.1
	L142.5,42.9L142.5,42.9z"/>
<path class="st3" d="M90.5,95.9c0.5-0.1,0.6-0.3,0.1-0.6c-0.3-0.1-1.4-0.4-1.9-0.3c0.1-0.7-0.3-2.4-0.7-3.2
	c-0.6,0.7-1.5,2.2-1.6,2.9c-0.5-0.2-1.6-0.3-1.9-0.3c-0.6,0.1-0.6,0.4-0.1,0.6c0.5,0.2,1.3,1.7,2.9,1.9C88.8,97.1,90,95.9,90.5,95.9
	 M102.1,79.8h-3.1l2.6,1.6l-1.1,3l2.4-2l2.4,2l-1.1-2.9l2.6-1.7h-3.1l-0.8-3L102.1,79.8z M98.9,65.2h-3.1l2.6,1.6l-1.1,3l2.4-2
	l2.4,2l-1.1-2.9l2.6-1.7h-3.2l-0.8-3L98.9,65.2z M88.6,54.4h-3.1l2.6,1.6L87,59l2.4-2l2.4,2L90.7,56l2.6-1.7h-3.1l-0.8-3L88.6,54.4
	L88.6,54.4z M55.3,100.3l0.5,2.4C60,101.4,69.2,100,75,100c5.8,0,15,1.4,19.1,2.6l0.5-2.4C90.9,99,81.1,97.5,75,97.5
	C68.9,97.5,59.2,99,55.3,100.3 M75,82.5c1.5,7.2,8,12.2,13.7,4.2c1.5,8.6,9.7,8.4,12.2,3.1c-4.4,2.4-9.5,1.2-12.1-4
	c-3.5,3.8-9.7,1.8-11.8-1.8C75,80.5,75.4,73.6,76.3,72c0.9-1.6,3.3-1.5,4.4-0.1c0.6-4.1-2.1-6.8-5.8-6.8s-6.3,2.7-5.8,6.8
	c1.2-1.4,3.5-1.5,4.4,0.1c0.9,1.6,1.4,8.5-0.7,12.1c-2.1,3.6-8.3,5.6-11.8,1.8c-2.6,5.2-7.7,6.4-12.1,4c2.5,5.3,10.6,5.4,12.2-3.1
	C67.1,94.7,73.5,89.7,75,82.5 M62.8,96.8c1.5-0.2,2.4-1.7,2.9-1.9c0.5-0.2,0.5-0.5-0.1-0.6c-0.3-0.1-1.4,0-1.9,0.3
	c-0.1-0.7-1-2.2-1.6-2.9c-0.4,0.8-0.8,2.6-0.7,3.2c-0.6-0.1-1.6,0.1-1.9,0.3c-0.6,0.3-0.5,0.5,0.1,0.6C60,95.9,61.3,97.1,62.8,96.8
	 M75,95.4c1.6,0,2.6-1.3,3.1-1.5c0.5-0.2,0.6-0.4,0-0.6c-0.3-0.1-1.4-0.2-1.9,0c0-0.7-0.7-2.4-1.2-3.1c-0.5,0.7-1.2,2.4-1.1,3.1
	c-0.6-0.2-1.6-0.1-2,0c-0.6,0.2-0.5,0.4,0,0.6C72.4,94.1,73.5,95.4,75,95.4 M47.1,76.8l-0.8,3h-3.1l2.6,1.7l-1.1,2.9l2.4-2l2.5,2
	l-1.1-3l2.6-1.6h-3.1L47.1,76.8L47.1,76.8z M50.3,62.3l-0.8,3h-3.1l2.6,1.7l-1.1,2.9l2.4-2l2.4,2l-1.1-3l2.6-1.6h-3.1L50.3,62.3
	L50.3,62.3z M60.6,51.4l-0.8,3h-3.1l2.6,1.7L58.2,59l2.4-2l2.4,2L62,56l2.6-1.6h-3.1L60.6,51.4L60.6,51.4z M75.8,50.4H79L76.4,52
	l1.1,2.9L75,53l-2.4,2l1.1-2.9L71,50.4h3.1l0.8-3L75.8,50.4L75.8,50.4z"/>
<circle class="st4" cx="75" cy="75" r="75"/>
</svg>
