<?xml version="1.0" encoding="utf-8"?>
<!-- Generator: Adobe Illustrator 24.2.3, SVG Export Plug-In . SVG Version: 6.00 Build 0)  -->
<svg version="1.1" id="Capa_1" xmlns:serif="http://www.serif.com/"
	 xmlns="http://www.w3.org/2000/svg" xmlns:xlink="http://www.w3.org/1999/xlink" x="0px" y="0px" viewBox="0 0 150 150"
	 style="enable-background:new 0 0 150 150;" xml:space="preserve">
<style type="text/css">
	.st0{fill-rule:evenodd;clip-rule:evenodd;fill:#ED1C24;}
	.st1{fill-rule:evenodd;clip-rule:evenodd;fill:#FFCB03;}
	.st2{fill-rule:evenodd;clip-rule:evenodd;fill:#0071BC;}
	.st3{fill:none;stroke:#515151;stroke-width:2;stroke-linecap:square;stroke-miterlimit:36;}
</style>
<path class="st0" d="M115.1,11.2C136,24.2,150,47.7,150,74.4s-14,50.1-34.9,63.2C115.1,137.5,115.1,11.2,115.1,11.2z"/>
<path class="st1" d="M47.6,4.7C56,1.2,65.3-0.6,75-0.6c14.7,0,28.5,4.2,40.1,11.8v126.3c-11.6,7.6-25.4,11.8-40.1,11.8
	c-9.7,0-19-1.8-27.4-5.4V4.7L47.6,4.7z"/>
<path class="st2" d="M47.6,4.7V144C19.7,133.2,0,106,0,74.4S19.7,15.5,47.6,4.7L47.6,4.7z"/>
<circle class="st3" cx="75" cy="74.4" r="75"/>
</svg>
