<?xml version="1.0" encoding="utf-8"?>
<!-- Generator: Adobe Illustrator 24.2.3, SVG Export Plug-In . SVG Version: 6.00 Build 0)  -->
<svg version="1.1" id="Capa_1" xmlns:serif="http://www.serif.com/"
	 xmlns="http://www.w3.org/2000/svg" xmlns:xlink="http://www.w3.org/1999/xlink" x="0px" y="0px" viewBox="0 0 152 152"
	 style="enable-background:new 0 0 152 152;" xml:space="preserve">
<style type="text/css">
	.st0{fill-rule:evenodd;clip-rule:evenodd;fill:#FFFFFF;}
	.st1{fill-rule:evenodd;clip-rule:evenodd;fill:#ED1B2D;}
	.st2{fill-rule:evenodd;clip-rule:evenodd;fill:#231F20;}
	.st3{fill:#009B67;}
	.st4{fill:none;stroke:#515151;stroke-width:2;stroke-linecap:square;stroke-miterlimit:36;}
</style>
<path class="st0" d="M146.4,51c3.1,7.9,4.6,16.3,4.6,25s-1.5,17.1-4.6,25H5.6C2.5,93.1,1,84.7,1,76s1.5-17.1,4.6-25H146.4z"/>
<path class="st1" d="M76,1c32.7,0.2,60.3,20.9,70.4,50H5.6C15.5,22.1,43,1.2,76,1L76,1z"/>
<path class="st2" d="M146.4,101c-9.9,29.1-37.7,50-70.4,50s-60.5-20.9-70.4-50H146.4z"/>
<path class="st3" d="M73.5,63.3l-3.3,10.4h-11l8.9,6.5l-3.4,10.4l8.8-6.4l8.8,6.4L79,80.1l8.9-6.3H76.9L73.5,63.3L73.5,63.3z"/>
<path class="st3" d="M17.3,63.3l-3.3,10.4h-11l8.9,6.5L8.4,90.5l8.8-6.4l8.8,6.4l-3.4-10.5l8.9-6.3h-11
	C20.6,73.8,17.3,63.3,17.3,63.3z"/>
<path class="st3" d="M129.8,63.3l-3.3,10.4h-11l8.9,6.5l-3.4,10.4l8.8-6.4l8.8,6.4l-3.4-10.5l8.9-6.3h-11L129.8,63.3L129.8,63.3z"/>
<circle class="st4" cx="76" cy="76" r="75"/>
</svg>
