<?xml version="1.0" encoding="utf-8"?>
<!-- Generator: Adobe Illustrator 24.2.3, SVG Export Plug-In . SVG Version: 6.00 Build 0)  -->
<svg version="1.1" id="Capa_1" xmlns:serif="http://www.serif.com/"
	 xmlns="http://www.w3.org/2000/svg" xmlns:xlink="http://www.w3.org/1999/xlink" x="0px" y="0px" viewBox="0 0 150 150"
	 style="enable-background:new 0 0 150 150;" xml:space="preserve">
<style type="text/css">
	.st0{fill-rule:evenodd;clip-rule:evenodd;fill:#009B67;}
	.st1{fill-rule:evenodd;clip-rule:evenodd;fill:#8B105E;}
	.st2{fill-rule:evenodd;clip-rule:evenodd;fill:#F8991C;}
	.st3{fill:#FFFFFF;}
	.st4{fill:none;stroke:#515151;stroke-width:2;stroke-linecap:square;stroke-miterlimit:36;}
</style>
<circle class="st0" cx="75" cy="75" r="75"/>
<path class="st1" d="M41.7,8.2v133.7C17,129.9,0,104.4,0,75S17,20.1,41.7,8.2L41.7,8.2z"/>
<path class="st2" d="M30.6,135.1c1.6-2.7,4.1-4,4.5-4.8l0.4,0.1c-0.2,2.3-1.8,4.6-3.9,5.6L30.6,135.1L30.6,135.1z"/>
<path class="st2" d="M29,133.8c0.2-1.8,0.7-3.5,1.7-5c0.2-0.2,0.4-0.4,0.4,0.3l-1.1,5.6L29,133.8z"/>
<path class="st2" d="M36.4,124.8c-0.1,0.2-0.7,1.1-1.3,1.6c-0.5,0.5-1.4,1.7-1.6,2.5c-0.2,0.8-0.7,1.2-1,1.2c1-1.2,0.4-3.4-0.2-6
	c-0.1-0.2-0.2-0.3-0.3,0c-0.7,1.4-0.9,3.4-0.4,5.2c0.2,0.7,0.4,1.4,0.2,2.8c0,0.1,0.1,0.1,0.3,0.1c2.4-1.1,4.8-4.6,4.5-7L36.4,124.8
	L36.4,124.8z"/>
<path class="st2" d="M35.2,123.7c-0.5,0.6-0.8,1.3-0.9,2.1c0,0.2-0.2,0.4-0.3,0.3c-0.2-0.1-0.1-0.3,0.1-0.6c0.4-0.7,0.3-3.6-0.3-5.2
	c-0.1-0.4-0.4-0.4-0.4-0.1c0,0.3,0,0.8-0.2,1.5c-0.2,0.8-0.3,1.9-0.1,2.8c0.2,1,0.4,2.2,0.3,2.9c-0.1,0.4,0.3,0.3,0.5,0.1
	c0.1-0.2,0.5-0.8,0.8-1c1.1-0.9,2.5-2.6,2.5-5.6c0-0.3-0.1-0.6-0.3-0.3c-0.1,0.2-0.6,0.7-0.7,1.2L35.2,123.7L35.2,123.7z"/>
<path class="st2" d="M27,108.3l4.9,4.9v8.9L27,127h-5.8l-8.4-10.1l-4.7-8.6L27,108.3L27,108.3z"/>
<path class="st2" d="M35.5,117.1c-1.1,1.8-0.9,4-0.8,6.3c0,0.2,0.2,0.3,0.4-0.1c1.1-1.8,1.2-4.2,0.8-6.2L35.5,117.1z"/>
<path class="st2" d="M36.2,115.1l-3.3-2.4h2.2v-0.6l-4-2.6L33,108l-1.2-0.7l-1.9,1.5l-5-3.2l5-3.2l1.9,1.5l1.2-0.7l-1.9-1.5l4-2.6
	v-0.6h-2.2l3.3-2.4V115.1L36.2,115.1z"/>
<path class="st2" d="M1.7,90.7h1.3c0,0,0-1.6,0-1.6l0.7-0.7l-0.8-0.8l0.9-0.4v-1.2h1.2l0.4-0.9L6.1,86l0.3-0.3h6.3v-2.2l1.4,0.7
	v-1.6l1.4,0.7l1.2-1.4l1.2,1.4l1.4-0.7v1.6l1.4-0.7v2.2h6.2l0.3,0.3l0.8-0.8l0.4,0.9h1.2v1.2l0.9,0.4l-0.8,0.8l0.7,0.7v1.6h1.5
	l-0.6,0.7H33l-0.8,0.8l1.5,1.2c0,0-1.5,1.2-1.5,1.2l0.8,0.8h-1.9l0.6,0.7h-1.5v1.6l-0.7,0.7l0.8,0.8l-0.9,0.4v1.2h-1.2l-0.4,0.9
	l-0.8-0.8l-0.3,0.3h-6.2v2.2l-1.4-0.7v1.6l-1.4-0.7l-1.2,1.4l-1.2-1.4l-1.4,0.7v-1.6l-1.4,0.7v-2.2H6.4l-0.3-0.3l-0.8,0.8l-0.4-0.9
	H4.9l-2.9-9.4h0.2L1.8,91L1.7,90.7L1.7,90.7z"/>
<path class="st2" d="M32.9,74.2l3.3-2.4v19l-3.3-2.4h2.2v-0.6l-4-2.6l1.9-1.4l-1.2-0.7l-1.9,1.5l-5-3.2l5-3.2l1.9,1.5l1.2-0.7
	l-1.9-1.4l4-2.6v-0.6L32.9,74.2L32.9,74.2z"/>
<path class="st2" d="M0.4,78.9l1.1,0.7l1.9-1.5l5,3.2l-5,3.2l-1.9-1.5l-0.6,0.4L0.4,78.9L0.4,78.9z"/>
<path class="st2" d="M20.6,60l4.7,2.2v0.6h3.7v2.8h3v7.4h-3v2.8h-3.7v0.6l-4.7,2.2h-7.9L8,76.3v-0.6H4.4v-2.8h-3v-7.4h3v-2.8H8v-0.6
	l4.7-2.2H20.6L20.6,60z"/>
<path class="st2" d="M32.9,50l3.3-2.4v19l-3.3-2.4h2.2v-0.6l-4-2.6l1.9-1.4l-1.2-0.7l-1.9,1.5l-5-3.2l5-3.2l1.9,1.5l1.2-0.7
	l-1.9-1.5l4-2.6V50L32.9,50L32.9,50z"/>
<path class="st2" d="M3.4,53.9L3.4,53.9l5.1,3.2l-5,3.2l-1.6-1.2C1.8,59.1,3.4,53.9,3.4,53.9z"/>
<path class="st2" d="M10.4,37.5h3v2.4h0.5v-5.5l1.6,0.8l1.2-1.2l1.2,1.2l1.6-0.8v5.5h0.5v-2.4h3.7v3.6l0.3,0.3v-2.2h3.9v3.3h0.3V41
	h4.2v2.1h1.4l-1,1.8l1,1.8h-1.4v2.2h-4.2v-1.5h-0.3v3.3h-3.9v-2.2l-0.3,0.3v3.6h-3.7v-2.4h-0.5v5.5l-1.6-0.8L16.7,56l-1.2-1.2
	l-1.6,0.8v-5.5h-0.5v2.4H9.8v-3.6l-0.3-0.3v2.2H5.6v-3.3H5.4l0.5-1.6l3.5-6.5v2.1l0.3-0.3v-2.4L10.4,37.5L10.4,37.5z"/>
<path class="st2" d="M36.2,42.4L32.9,40h2.2v-0.6l-4-2.6l1.9-1.5l-1.2-0.7l-1.9,1.5l-5-3.2l5-3.2l1.9,1.5l1.2-0.7l-1.9-1.5l4-2.6
	v-0.6h-2.2l3.3-2.4V42.4L36.2,42.4z"/>
<path class="st2" d="M29.6,15.7v0.3l2.3,1.5v6.3l-2.3,1.5v1.1l-3.9,2.5l-1-0.4l-2.3,1.5h-7.2L22,22L29.6,15.7L29.6,15.7z"/>
<path class="st2" d="M36.2,18.2l-3.3-2.4h2.2v-0.6l-2.8-1.8l0.8-0.6l3.1-1.7V18.2L36.2,18.2z"/>
<path class="st3" d="M79.4,42.8l3.2,2.3l-1.3-3.7l3.2-2.3l-3.9,0l-1.2-3.7l-1.2,3.8l-4,0l3.2,2.3l-1.2,3.7L79.4,42.8L79.4,42.8z
	 M75.2,24.1L74,27.9l-4,0l3.2,2.3L72,33.9l3.2-2.3l3.2,2.3l-1.2-3.7l3.2-2.3l-3.9,0L75.2,24.1z M65.3,38.2l3.2,2.3l-1.3-3.7l3.2-2.4
	l-3.9,0l-1.2-3.7l-1.2,3.8l-4,0l3.2,2.3l-1.2,3.7L65.3,38.2L65.3,38.2z M85.1,17.5l-1.2,3.7h-4l3.2,2.3L82,27.3l3.2-2.3l3.2,2.3
	l-1.2-3.8l3.2-2.3h-3.9L85.1,17.5L85.1,17.5z M71,12.9l-1.2,3.7h-4l3.2,2.3l-1.2,3.7l3.2-2.3l3.2,2.3L73,19l3.2-2.3h-3.9L71,12.9
	L71,12.9z M104.9,39.1c2.7-8.5-1.7-23.3-17.6-23.3c17.4-5.7,31.8,10.8,26.8,26.3c-5,15.5-26.3,20.5-37.1,5.7
	C90,57,102.2,47.6,104.9,39.1"/>
<circle class="st4" cx="75" cy="75" r="75"/>
</svg>
