<?xml version="1.0" encoding="utf-8"?>
<!-- Generator: Adobe Illustrator 24.2.3, SVG Export Plug-In . SVG Version: 6.00 Build 0)  -->
<svg version="1.1" id="Capa_1" xmlns:serif="http://www.serif.com/"
	 xmlns="http://www.w3.org/2000/svg" xmlns:xlink="http://www.w3.org/1999/xlink" x="0px" y="0px" viewBox="0 0 150 150"
	 style="enable-background:new 0 0 150 150;" xml:space="preserve">
<style type="text/css">
	.st0{fill-rule:evenodd;clip-rule:evenodd;fill:#0060A9;}
	.st1{fill-rule:evenodd;clip-rule:evenodd;fill:#ED1B2D;}
	.st2{fill-rule:evenodd;clip-rule:evenodd;fill:#FFFFFF;}
	.st3{fill:#ED1B2D;}
	.st4{fill:#FFFFFF;}
	.st5{fill:#0060A9;}
	.st6{fill:none;stroke:#515151;stroke-width:2;stroke-linecap:square;stroke-miterlimit:36;}
</style>
<path class="st0" d="M145.4,49.4c3.1,7.9,4.6,16.3,4.6,25s-1.5,17.1-4.6,25H95.2c4.1-4.5,7-9.8,9.2-15.8c3.7-10,2.1-27.6,1.7-34.2
	H145.4z"/>
<path class="st0" d="M4.6,49.4h37.2c-0.3,5.7-2,24,1.7,34.2c2.1,5.8,4.9,10.9,9.2,15.8H4.6C1.5,91.5,0,83.1,0,74.4
	S1.5,57.2,4.6,49.4z"/>
<path class="st1" d="M4.6,99.4h48.2c5,6.4,12.1,11.4,21.2,14.8c9.2-3.4,16.2-8.4,21.2-14.8h50.2c-9.9,29.1-37.7,50-70.4,50
	S14.5,128.4,4.6,99.4L4.6,99.4z"/>
<path class="st2" d="M75-0.6c32.5,0.2,60,20.7,70.4,50H4.6C14.7,20.4,41.9-0.2,75-0.6L75-0.6z"/>
<path class="st2" d="M4.6,49.4h140.8h-39.2c0.5,7.5,1.8,24.5-1.7,34.2l-4.3,8.9l-5,6.8H52.8l-5-6.8l-4.3-8.9
	c-3.7-10.3-2.1-28.5-1.7-34.2H4.6L4.6,49.4z"/>
<path class="st2" d="M87.6,106.5l-2.1,1.7L74,114.2l-11.5-5.9l-2.1-1.7l-7.6-7.2h42.5L87.6,106.5L87.6,106.5z"/>
<path class="st3" d="M103.3,36.8c0.5,11,1.5,27.9,1.1,36.3c-0.3,6.1-4.3,28.3-30.4,38.8c-26.1-10.5-30.1-32.7-30.4-38.8
	c-0.4-8.4,0.5-25.3,1.1-36.3L103.3,36.8L103.3,36.8z"/>
<path class="st4" d="M74,40c1,0,3.4,0,4.3-0.2c-0.8,2.6-1.5,7.6-1.5,11.4c3,0.8,10.4-0.7,12.6-1.7c-0.3,2.6-0.5,7.3,0.4,9.4
	c-2.9-1.1-7-1.8-13-1.8v7.7c5,0.6,13.7-0.9,16.2-1.7c-0.6,2.7-0.6,7.1-0.2,9.2c-3.7-1.6-10.9-2.1-16-2.1v12.3
	c-0.7-0.3-1.8-0.6-2.8-0.6c-1,0-2.1,0.3-2.8,0.6V70.2c-5.1,0-12.3,0.5-16,2.1c0.4-2.1,0.4-6.5-0.2-9.2c2.4,0.8,11.2,2.3,16.2,1.7
	v-7.7c-6,0-10.1,0.7-13,1.8c0.9-2.1,0.7-6.8,0.4-9.4c2.2,1,9.6,2.5,12.6,1.7c0-3.7-0.7-8.7-1.5-11.4C70.6,40,73,40,74,40"/>
<path class="st5" d="M74,111.9c12.1-4.9,19.5-12.3,23.9-19.5c-1.3-3.3-4-5.9-7.6-5.9c-3.6,0-5.7,2.7-7,4.3c-1.7-5.2-5.4-8.9-9.4-8.9
	c-4,0-7.7,3.7-9.4,8.9c-1.3-1.6-3.3-4.3-7-4.3c-3.6,0-6.3,2.6-7.6,5.9C54.5,99.6,61.8,107,74,111.9"/>
<circle class="st6" cx="75" cy="74.4" r="75"/>
</svg>
