<?xml version="1.0" encoding="utf-8"?>
<!-- Generator: Adobe Illustrator 24.2.3, SVG Export Plug-In . SVG Version: 6.00 Build 0)  -->
<svg version="1.1" id="Capa_1" xmlns:serif="http://www.serif.com/"
	 xmlns="http://www.w3.org/2000/svg" xmlns:xlink="http://www.w3.org/1999/xlink" x="0px" y="0px" viewBox="0 0 152 152"
	 style="enable-background:new 0 0 152 152;" xml:space="preserve">
<style type="text/css">
	.st0{clip-path:url(#SVGID_2_);}
	.st1{fill:#FFFFFF;stroke:#000000;stroke-width:0.25;}
	.st2{fill:#FABA39;stroke:#000000;stroke-width:0.125;}
	.st3{fill:#007A3E;stroke:#000000;stroke-width:0.125;}
	.st4{fill:none;stroke:#515151;stroke-width:2;stroke-linecap:square;stroke-miterlimit:1.5;}
</style>
<g>
	<g>
		<g>
			<defs>
				<circle id="SVGID_1_" cx="76" cy="76" r="75"/>
			</defs>
			<clipPath id="SVGID_2_">
				<use xlink:href="#SVGID_1_"  style="overflow:visible;"/>
			</clipPath>
			<g class="st0">
				<g>
					<rect x="-49.4" y="0.4" class="st1" width="250.7" height="150.4"/>
					<path class="st1" d="M76,75.7"/>
				</g>
				<g>
					<path class="st2" d="M64.1,47.2c-0.9,1.6,0.6,2.3-0.7,4.1c-1.9,2.7,0.3,5-3.2,6.9c-2.6,1.4-2.9,0.6-3.6,0s-2.5-1.6-6.6,0.2
						c-1.8,0.8-1.9,0.8-2.5,0.2c-0.5-0.5-1-0.2-2.3,0.5c-2.3,1.2-0.9,2.9-3.7,3.7c-2.8,0.7-3.5,0.4-5.7-0.7c-2.1-1.1-2.6-0.9-3-0.2
						c-0.4,0.7-0.5,1.4,0.7,2.3s1.8,1.5,1.3,2.8c-0.5,1.3-0.6,1.8,0.3,2.4c1.8,1.2,0.1,2.4,1.8,5.2c0.9,1.6,1.1,2.5,1.2,4
						c0.1,1.4,0.4,2.3,1.7,2.6c2.1,0.5,0.2,1.4,3.7,2.5c1.4,0.4,2.5,0.9,3.5,1.5c1,0.6,3.9,0.9,5.9,0.6c2-0.3,5.4-1.1,6.3,0.8
						c1.5,3.3,2.3,3.6,3.1,4.7c0.8,1.2,2.2,0.2,3-2.4c0.6-1.8,1.3-4.5,4.7-4.5c8.2,0,10.4,0.4,14-2.2c2-1.5,4.5-3.7,6.1-2.2
						c0.3,0.3,0.6-0.8,1.7-1.4c0.3-0.1,0-0.7,0.3-1.3c1-2.1-0.4-2.7,0.5-3.8c2.2-3,3.4-2.8,5.2-2.7s2.5,0.3,3.8,1.6
						c1.2,1.3,1.8,1.6,3.4,0.3c1.8-1.4,5.9-1.7,6.5-0.1c0.2,0.5,1.3,0.3,1.2-0.9c-0.1-1.1-0.5-1.9-1.8-2.7c-1.4-0.8-0.3-1.4-1.8-2.5
						c-1.5-1.1,0.3-1.4-2.6-3.8c-2.9-2.4-1-6.7,0.6-8.5c0.3-0.4,1.2-0.8,2.6-0.6c1.5,0.2,1.9,0.2,3-1.2c1.1-1.4,2.1-3.1,3.5-3.6
						c2.1-0.6,2.4-1.8,4.1-2c2.8-0.4,3.4-2.9,5.6-3.6c3.1-1,2.1-3.3,5.7-4.4c3.6-1.1,3.4-3,4.5-3.7c-3.4,0.8-4.6,1.4-5.9,2.5
						c-1.7,1.4-3.2,0.7-4.9,2.1c-1.8,1.4-3.4,2.2-5.2,1.7c-1.9-0.5-2.4-0.8-3,0.7c-1.6,4.3-4.3,2.5-5.6,3.8c-2.1,2-3.8,0.6-5.3,1.7
						c-2.2,1.5-6.4-0.5-8.3,1.3c-3.2,2.9-4-0.5-7.5,1.5c-2.8,1.6-5.4,1.1-7.3,0.3c-1.9-0.7-8.3-0.5-10.6-1.4
						C67.6,47.8,65.3,49,64.1,47.2z"/>
				</g>
				<g>
					<path class="st3" d="M74.6,116.9C60,110.1,46.2,108,39.1,98.8c6.7,9.9,21.7,12.3,35.8,19.4C75.2,118.4,75.1,117.2,74.6,116.9z"
						/>
					<path class="st3" d="M43.8,103.6c-5-3.7-6.4-1.2-8.7-1C39.2,105.4,40.1,105.2,43.8,103.6z"/>
					<path class="st3" d="M43.6,103.4c-4.3-4.4-2-6.2-2.1-8.4C44.8,98.6,44.7,99.5,43.6,103.4z"/>
					<path class="st3" d="M39.8,99.6c-1.1-6.1-3.9-5.3-5.7-6.6C35.2,97.8,36,98.3,39.8,99.6z"/>
					<path class="st3" d="M47.9,106.1c-4.3-4.4-2-6.2-2.1-8.4C49.2,101.3,49,102.2,47.9,106.1z"/>
					<path class="st3" d="M48,106.3c-4.7,4.1-6.3,1.7-8.6,1.7C43.3,104.8,44.2,105,48,106.3z"/>
					<path class="st3" d="M52.9,108.6c-4.9-3.8-2.8-5.9-3.2-8.1C53.5,103.7,53.5,104.6,52.9,108.6z"/>
					<path class="st3" d="M53.5,108.9c-4.2,4.6-6.1,2.3-8.3,2.5C48.7,108,49.6,108.1,53.5,108.9z"/>
					<path class="st3" d="M58.6,110.9c-5.2-3.4-3.3-5.6-3.9-7.8C58.8,106,58.9,106.9,58.6,110.9z"/>
					<path class="st3" d="M59,111.3c-4.2,4.6-6.1,2.3-8.3,2.5C54.2,110.4,55.1,110.5,59,111.3z"/>
					<path class="st3" d="M64,112.8c-5.2-3.4-3.3-5.6-3.9-7.8C64.2,107.9,64.2,108.8,64,112.8z"/>
					<path class="st3" d="M64.5,113.3c-3.8,4.9-5.8,2.9-8,3.3C59.6,112.9,60.5,112.8,64.5,113.3z"/>
				</g>
				<g>
					<path class="st3" d="M66.2,116.9c14.6-6.8,28.5-8.9,35.5-18.1c-6.7,9.9-21.7,12.3-35.8,19.4C65.6,118.4,65.8,117.2,66.2,116.9z
						"/>
					<path class="st3" d="M97.1,103.6c5-3.7,6.4-1.2,8.7-1C101.7,105.4,100.8,105.2,97.1,103.6z"/>
					<path class="st3" d="M97.3,103.4c4.3-4.4,2-6.2,2.1-8.4C96,98.6,96.2,99.5,97.3,103.4z"/>
					<path class="st3" d="M101.1,99.6c1.1-6.1,3.9-5.3,5.7-6.6C105.7,97.8,104.9,98.3,101.1,99.6z"/>
					<path class="st3" d="M92.9,106.1c4.3-4.4,2-6.2,2.1-8.4C91.7,101.3,91.8,102.2,92.9,106.1z"/>
					<path class="st3" d="M92.8,106.3c4.7,4.1,6.3,1.7,8.6,1.7C97.5,104.8,96.6,105,92.8,106.3z"/>
					<path class="st3" d="M87.9,108.6c4.9-3.8,2.8-5.9,3.2-8.1C87.3,103.7,87.3,104.6,87.9,108.6z"/>
					<path class="st3" d="M87.3,108.9c4.2,4.6,6.1,2.3,8.3,2.5C92.1,108,91.2,108.1,87.3,108.9z"/>
					<path class="st3" d="M82.2,110.9c5.2-3.4,3.3-5.6,3.9-7.8C82.1,106,82,106.9,82.2,110.9z"/>
					<path class="st3" d="M81.8,111.3c4.2,4.6,6.1,2.3,8.3,2.5C86.7,110.4,85.8,110.5,81.8,111.3z"/>
					<path class="st3" d="M76.8,112.8c5.2-3.4,3.3-5.6,3.9-7.8C76.7,107.9,76.6,108.8,76.8,112.8z"/>
					<path class="st3" d="M76.4,113.3c3.8,4.9,5.8,2.9,8,3.3C81.3,112.9,80.3,112.8,76.4,113.3z"/>
				</g>
			</g>
		</g>
	</g>
</g>
<circle class="st4" cx="76" cy="76" r="75"/>
</svg>
