<?xml version="1.0" encoding="utf-8"?>
<!-- Generator: Adobe Illustrator 24.2.3, SVG Export Plug-In . SVG Version: 6.00 Build 0)  -->
<svg version="1.1" id="Capa_1" xmlns="http://www.w3.org/2000/svg" xmlns:xlink="http://www.w3.org/1999/xlink" x="0px" y="0px"
	 viewBox="0 0 152 152" style="enable-background:new 0 0 152 152;" xml:space="preserve">
<style type="text/css">
	.st0{clip-path:url(#SVGID_2_);}
	.st1{fill:#FFFFFF;}
	.st2{fill:#FF0000;}
	.st3{fill:none;stroke:#515151;stroke-width:2;stroke-linecap:square;stroke-miterlimit:36;}
	.st4{clip-path:url(#SVGID_4_);fill:#FF0000;}
	.st5{clip-path:url(#SVGID_6_);fill:#FF0000;}
	.st6{clip-path:url(#SVGID_8_);fill:#FF0000;}
	.st7{clip-path:url(#SVGID_10_);fill:#FF0000;}
	.st8{clip-path:url(#SVGID_12_);fill:#FF0000;}
	.st9{clip-path:url(#SVGID_14_);fill:#FF0000;}
	.st10{clip-path:url(#SVGID_16_);fill:#FF0000;}
	.st11{clip-path:url(#SVGID_18_);fill:#FF0000;}
</style>
<g id="Capa_1_1_" xmlns:serif="http://www.serif.com/">
	<g>
		<defs>
			<circle id="SVGID_1_" cx="76" cy="76" r="75"/>
		</defs>
		<clipPath id="SVGID_2_">
			<use xlink:href="#SVGID_1_"  style="overflow:visible;"/>
		</clipPath>
		<g class="st0">
			<g>
				<rect x="-6" class="st1" width="164.1" height="152"/>
				<path class="st2" d="M65.1,0.8v64.3H-6V87h71.1v66H87V87h71V65.1H86.9V0.8H65.1z"/>
			</g>
		</g>
	</g>
	<circle class="st3" cx="76" cy="76" r="75"/>
</g>
<g>
	<defs>
		<path id="SVGID_3_" d="M-27.8,100.1C3,100.1,28,75.1,28,44.3S3-11.5-27.8-11.5H89.1c-30.8,0-55.8,25-55.8,55.8s25,55.8,55.8,55.8
			H-27.8z"/>
	</defs>
	<clipPath id="SVGID_4_">
		<use xlink:href="#SVGID_3_"  style="overflow:visible;"/>
	</clipPath>
	<path id="varm" class="st4" d="M1.2,84c0-16.3,13.2-29.5,29.5-29.5S60.1,67.7,60.1,84V4.6c0,16.3-13.2,29.5-29.5,29.5
		S1.2,20.9,1.2,4.6V84z"/>
</g>
<g>
	<defs>
		<path id="SVGID_5_" d="M-25.1-14.1c0,30.8,25,55.8,55.8,55.8s55.8-25,55.8-55.8v116.9c0-30.8-25-55.8-55.8-55.8
			s-55.8,25-55.8,55.8V-14.1z"/>
	</defs>
	<clipPath id="SVGID_6_">
		<use xlink:href="#SVGID_5_"  style="overflow:visible;"/>
	</clipPath>
	<path id="varm_1_" class="st5" d="M-9,14.8c16.3,0,29.5,13.2,29.5,29.5S7.3,73.8-9,73.8h79.4c-16.3,0-29.5-13.2-29.5-29.5
		S54,14.8,70.3,14.8H-9z"/>
</g>
<g>
	<defs>
		<path id="SVGID_7_" d="M63.9,165c30.8,0,55.8-25,55.8-55.8s-25-55.8-55.8-55.8h116.9c-30.8,0-55.8,25-55.8,55.8s25,55.8,55.8,55.8
			H63.9z"/>
	</defs>
	<clipPath id="SVGID_8_">
		<use xlink:href="#SVGID_7_"  style="overflow:visible;"/>
	</clipPath>
	<path id="varm_2_" class="st6" d="M92.9,148.9c0-16.3,13.2-29.5,29.5-29.5s29.5,13.2,29.5,29.5V69.5c0,16.3-13.2,29.5-29.5,29.5
		S92.9,85.8,92.9,69.5V148.9z"/>
</g>
<g>
	<defs>
		<path id="SVGID_9_" d="M66.6,50.8c0,30.8,25,55.8,55.8,55.8s55.8-25,55.8-55.8v116.9c0-30.8-25-55.8-55.8-55.8s-55.8,25-55.8,55.8
			V50.8z"/>
	</defs>
	<clipPath id="SVGID_10_">
		<use xlink:href="#SVGID_9_"  style="overflow:visible;"/>
	</clipPath>
	<path id="varm_3_" class="st7" d="M82.7,79.7c16.3,0,29.5,13.2,29.5,29.5S99,138.7,82.7,138.7h79.4c-16.3,0-29.5-13.2-29.5-29.5
		s13.2-29.5,29.5-29.5H82.7z"/>
</g>
<g>
	<defs>
		<path id="SVGID_11_" d="M63.9,100.1c30.8,0,55.8-25,55.8-55.8s-25-55.8-55.8-55.8h116.9c-30.8,0-55.8,25-55.8,55.8
			s25,55.8,55.8,55.8H63.9z"/>
	</defs>
	<clipPath id="SVGID_12_">
		<use xlink:href="#SVGID_11_"  style="overflow:visible;"/>
	</clipPath>
	<path id="varm_4_" class="st8" d="M92.9,84c0-16.3,13.2-29.5,29.5-29.5s29.5,13.2,29.5,29.5V4.6c0,16.3-13.2,29.5-29.5,29.5
		S92.9,20.9,92.9,4.6V84z"/>
</g>
<g>
	<defs>
		<path id="SVGID_13_" d="M66.6-14.1c0,30.8,25,55.8,55.8,55.8s55.8-25,55.8-55.8v116.9c0-30.8-25-55.8-55.8-55.8
			s-55.8,25-55.8,55.8V-14.1z"/>
	</defs>
	<clipPath id="SVGID_14_">
		<use xlink:href="#SVGID_13_"  style="overflow:visible;"/>
	</clipPath>
	<path id="varm_5_" class="st9" d="M82.7,14.8c16.3,0,29.5,13.2,29.5,29.5S99,73.8,82.7,73.8h79.4c-16.3,0-29.5-13.2-29.5-29.5
		s13.2-29.5,29.5-29.5H82.7z"/>
</g>
<g>
	<defs>
		<path id="SVGID_15_" d="M-27.8,165C3,165,28,140,28,109.2S3,53.5-27.8,53.5H89.1c-30.8,0-55.8,25-55.8,55.8s25,55.8,55.8,55.8
			H-27.8z"/>
	</defs>
	<clipPath id="SVGID_16_">
		<use xlink:href="#SVGID_15_"  style="overflow:visible;"/>
	</clipPath>
	<path id="varm_6_" class="st10" d="M1.2,148.9c0-16.3,13.2-29.5,29.5-29.5s29.5,13.2,29.5,29.5V69.5C60.1,85.8,46.9,99,30.6,99
		S1.2,85.8,1.2,69.5V148.9z"/>
</g>
<g>
	<defs>
		<path id="SVGID_17_" d="M-25.1,50.8c0,30.8,25,55.8,55.8,55.8s55.8-25,55.8-55.8v116.9c0-30.8-25-55.8-55.8-55.8
			s-55.8,25-55.8,55.8V50.8z"/>
	</defs>
	<clipPath id="SVGID_18_">
		<use xlink:href="#SVGID_17_"  style="overflow:visible;"/>
	</clipPath>
	<path id="varm_7_" class="st11" d="M-9,79.7c16.3,0,29.5,13.2,29.5,29.5S7.3,138.7-9,138.7h79.4c-16.3,0-29.5-13.2-29.5-29.5
		S54,79.7,70.3,79.7H-9z"/>
</g>
</svg>
