<?xml version="1.0" encoding="utf-8"?>
<!-- Generator: Adobe Illustrator 24.2.3, SVG Export Plug-In . SVG Version: 6.00 Build 0)  -->
<svg version="1.1" id="Capa_1" xmlns:serif="http://www.serif.com/"
	 xmlns="http://www.w3.org/2000/svg" xmlns:xlink="http://www.w3.org/1999/xlink" x="0px" y="0px" viewBox="0 0 152 152"
	 style="enable-background:new 0 0 152 152;" xml:space="preserve">
<style type="text/css">
	.st0{clip-path:url(#SVGID_2_);}
	.st1{fill:#FFEC00;stroke:#000000;stroke-width:0.25;stroke-linecap:round;}
	.st2{fill:#FFFFFF;stroke:#000000;stroke-width:0.25;stroke-linecap:round;}
	.st3{stroke:#000000;stroke-width:0.25;stroke-linecap:round;}
	.st4{fill:#E63137;stroke:#000000;stroke-width:0.125;}
	.st5{fill:#DB2F34;stroke:#000000;stroke-width:0.125;}
	.st6{fill:#DB2F34;stroke:#000000;stroke-width:0.125;stroke-linecap:round;}
	.st7{fill:none;stroke:#000000;stroke-width:0.125;}
	.st8{fill:none;stroke:#FFEC00;stroke-width:0.25;stroke-linecap:round;}
	.st9{fill:none;stroke:#515151;stroke-width:2;stroke-linecap:square;stroke-miterlimit:1.5;}
</style>
<g>
	<g>
		<g>
			<defs>
				<circle id="SVGID_1_" cx="76" cy="76" r="75"/>
			</defs>
			<clipPath id="SVGID_2_">
				<use xlink:href="#SVGID_1_"  style="overflow:visible;"/>
			</clipPath>
			<g class="st0">
				<g>
					<rect x="-74" y="1.1" class="st1" width="299.9" height="150"/>
					<path class="st1" d="M76,76.2"/>
				</g>
				<polygon class="st2" points="225.9,108.8 -74,48 -74,11.8 225.9,72.1 				"/>
				<polygon class="st3" points="225.9,108.8 -74,48 -74,79.9 225.9,140.7 				"/>
				<g>
					<g>
						<polygon class="st4" points="77.5,77 77,48.6 75,48.6 74.6,77 						"/>
						<path class="st4" d="M76,69.4c1.2,1.1,2.1,3.4,2,5.1c0.3-1.8,1.9-3.9,3.9-3.8c-4.5,6,2.5,11.3-5.8,16.6
							c-8.3-5.3-1.3-10.6-5.8-16.6c2-0.1,3.6,2,3.9,3.8C73.9,72.8,74.8,70.4,76,69.4z"/>
						<path class="st4" d="M76,99c9.4-5.7,1.5-11.5,6.6-18c-2.3-0.1-4.1,2.2-4.4,4.1c0.2-1.8-0.9-4.4-2.3-5.6
							c-1.4,1.1-2.4,3.7-2.3,5.6c-0.3-1.9-2.1-4.3-4.4-4.1C74.5,87.4,66.5,93.2,76,99z"/>
						<path class="st4" d="M76,107.1c9.8-1.5,3.4-5.9,7.8-13.1c-1.6,0.6-4-1-5.1,2.9c0.5-2.5-2.3-3.8-2.7-5.4
							c-0.5,1.6-3.2,2.9-2.7,5.4c-1-4-3.4-2.4-5.1-2.9C72.6,101.3,66.2,105.7,76,107.1z"/>
						<path class="st4" d="M76,53.3c1-0.6,1.9-1.7,1.9-3.4c0,1.7,0.9,2.7,1.8,3.4c0.8-0.8,1.4-1.5,1.4-3.6c0,2,0.8,3.3,2.3,3.9
							c1.1-2.4-0.1-7.4-2.2-8.4c-1-0.5-3.2-0.7-5.2-0.7c-2.1,0-4.2,0.2-5.2,0.7c-2.1,1.1-3.3,6-2.2,8.4c1.5-0.6,2.3-1.9,2.3-3.9
							c0,2,0.6,2.7,1.4,3.6c0.9-0.7,1.8-1.6,1.8-3.4C74.1,51.5,74.9,52.7,76,53.3z"/>
						<ellipse class="st4" cx="76" cy="45.5" rx="5.6" ry="1"/>
						<path class="st4" d="M49.9,108.6c-1.1-0.4-2.9-1-3.5-2.4c-0.8,1.1-0.5,3.2,0.1,4.4c-2.6-0.2-4.9,1.1-5.9,3.7
							c3.2-0.9,6.6-1.4,9.1,0.6c3,2.3,6.6,4.9,13.8,3.8C61.8,116.2,52.3,109.6,49.9,108.6z"/>
						<path class="st4" d="M102.1,108.6c1.1-0.4,2.9-1,3.5-2.4c0.8,1.1,0.5,3.2-0.1,4.4c2.6-0.2,4.9,1.1,5.9,3.7
							c-3.2-0.9-6.6-1.4-9.1,0.6c-3,2.3-6.6,4.9-13.8,3.8C90.1,116.2,99.6,109.6,102.1,108.6z"/>
						<path class="st4" d="M76,121.7c8.4,0,14.3-2.9,17.3-5.9c2.6-1,5.8-3,7.8-4.1c3.2-1.9,1.8-2.8,0.9-3.9
							c-0.9-1.1-0.9-2.2-1.1-3.6c-0.2-1.3-1.8-4-5.4,0.2c-4.4,5.1-14.3,8-19.4,8s-15.1-2.9-19.4-8c-3.6-4.2-5.2-1.5-5.4-0.2
							c-0.2,1.5-0.2,2.6-1.1,3.6s-2.3,2,0.9,3.9c2,1.2,5.2,3.1,7.8,4.1C61.6,118.9,67.6,121.7,76,121.7z"/>
						<path class="st4" d="M59.7,62c-3.7,4-6.1,9.4-6.1,15.3c0,12.3,10,22.4,22.4,22.4s22.4-10,22.4-22.4c0-6.6-2.9-12.6-7.5-16.7
							l0.9-1c8,5.2,13.3,14.2,13.3,24.5c0,16.1-13.1,29.1-29.1,29.1s-29.1-13.1-29.1-29.1c0-9.5,4.5-17.8,11.5-23.2L59.7,62z"/>
						<g>
							<path class="st4" d="M76,65.3c1.1,2.1,4.3,3,6,2.4c3,1.3,5.4,1.2,6.9-0.1c2.3,0.4,5.9,0.8,6-1.3c1.9,0.1,4.4-0.1,4.6-1.8
								c2.6-0.2,3.2-0.9,3.6-2.1c2.4-1.2,2.4-2.7,0.3-2.5c-6.7,0.8-9.8-0.7-14.5-2.3c-4.7-1.6-9.1-4.3-12.8-1.2
								c-3.7-3.1-8.1-0.4-12.8,1.2c-4.7,1.6-7.8,3.1-14.5,2.3c-2.1-0.3-2.1,1.3,0.3,2.5c0.4,1.2,0.9,1.9,3.6,2.1
								c0.2,1.7,2.7,1.9,4.6,1.8c0.1,2.1,3.7,1.6,6,1.3c1.5,1.4,3.9,1.4,6.9,0.1C71.7,68.3,74.9,67.5,76,65.3z"/>
							<g>
								<path class="st5" d="M49,62.4c1.1,0.6,4.1,0.9,8.5-0.3"/>
								<path class="st5" d="M52.5,64.5c3.4,0.2,7.5,0,10.5-1.1"/>
								<path class="st5" d="M57.1,66.3c3.5,0,6.5-0.5,9.1-1.6"/>
								<path class="st5" d="M63.1,67.6c2.2-0.3,5.7-1.3,7.6-3.1"/>
								<path class="st5" d="M70,67.7c1.3-0.5,2.9-1.7,3.8-2.9"/>
								<path class="st5" d="M103,62.4c-1.1,0.6-4.1,0.9-8.5-0.3"/>
								<path class="st5" d="M99.4,64.5c-3.4,0.2-7.5,0-10.5-1.1"/>
								<path class="st5" d="M94.8,66.3c-3.5,0-6.5-0.5-9.1-1.6"/>
								<path class="st5" d="M88.8,67.6c-2.2-0.3-5.7-1.3-7.6-3.1"/>
								<path class="st5" d="M82,67.7c-1.3-0.5-2.9-1.7-3.8-2.9"/>
							</g>
						</g>
						<path class="st4" d="M76.7,33.9l0.2,11.5c0,0.1-0.4,0.2-0.9,0.2c-0.5,0-0.9-0.1-0.9-0.2l0.2-11.5H76.7z"/>
						<circle class="st4" cx="76" cy="32.9" r="2.3"/>
						<path class="st4" d="M76,35.7c4.2-0.3,4.7,3.5,9.5,3.5c-0.9,0.9-1.8,2-2.9,2.1c1.3,1.1,0.5,3,2.2,3.6c-4.8,0-4.6-2.9-8.8-2.6
							L76,35.7L76,35.7z"/>
						<path class="st4" d="M120.6,67.7c-0.3-0.8-1.4-0.6-1.8,0.3c-0.4,0.9-0.5,2.2-0.5,3.1c-0.3,0.7-1.1,1.6-1.2,2.8
							c-0.2,1.5,3.2,0.8,3.5-2.4C120.7,69.9,121,68.4,120.6,67.7z"/>
						<path class="st4" d="M122.7,67.5c-0.4-0.8-1.9-0.6-2.4,0.4c-0.4,1-0.4,2.1-0.5,3.2c-0.6,0.7-1.3,2.2-1.7,3.2
							c-0.4,1.1-2.4,3.9,1.7,1.5C121.3,75,123.7,69.1,122.7,67.5z"/>
						<path class="st4" d="M124.7,66.7c-0.8-0.9-2.4-0.3-2.6,0.8c-0.3,1-0.4,2.6-0.2,3.8c-1,0.8-2.2,2.9-2.6,4.4
							c-2.1,1.4-4.9,3.9-3.5,5.2C117,82.2,126.7,74.9,124.7,66.7z"/>
						<path class="st4" d="M114.2,106.3c2.3,0,4.6-0.5,4.6-1.1c-0.1-3.5-0.6-17.3-0.6-21.2c1.3-1,3.5-3.1,4.5-4.2
							c1-1.1,1.6-1.9,1.9-3.2c0.3-1.4,0.7-2.3,0.9-3c0.4-1.4,0.6-2.4,0.8-5.3c0.1-1.7-0.2-2.2-0.8-2.1c-1.6,0.1-2,3.3-2,5.4
							c-1.3,1.1-1.8,3.1-2.1,4.7c-1.7,0.9-3.7,2.2-4.6,3.3c-0.7,0.9-1,1,0.1-0.7c0.9-1.3,0.7-2.5,1.6-3.7c0.6-0.7,1.8-2.4,0.5-3
							c-1.3-0.6-2.1,0.4-2.9,1.8c-0.8,1.4-2.2,2.4-4.1,3.6c-2.9,1.9-1.9,5.1-1.9,7.8c0,3.1-0.4,14.6-0.4,19.7
							C109.6,105.8,111.9,106.3,114.2,106.3z"/>
						<path class="st4" d="M114.2,104.7c-1.5,0-3.5-0.3-4.6-1c-2.1-1.3-0.4-2.6,0.1-2.6c0,1.1,3.8,1.3,4.5,1.3
							c0.8,0,4.5-0.2,4.5-1.3c0.5,0,2.1,1.2,0.1,2.6C117.7,104.4,115.7,104.7,114.2,104.7z"/>
						<path class="st4" d="M114.2,102.4c-1.4,0-3.5-0.3-4.6-1c-2.1-1.3-0.4-2.6,0.1-2.6c0,1.1,3.7,1.3,4.5,1.3
							c0.8,0,4.4-0.2,4.4-1.3c0.5,0,2.1,1.2,0.1,2.6C117.7,102.1,115.6,102.4,114.2,102.4z"/>
						<path class="st4" d="M114.2,100.2c-1.4,0-3.4-0.3-4.5-0.9c-2-1.3-0.4-2.5,0.1-2.5c0,1.1,3.6,1.3,4.4,1.3
							c0.7,0,4.4-0.2,4.4-1.3c0.5,0,2.1,1.2,0.1,2.5C117.6,99.9,115.6,100.2,114.2,100.2z"/>
						<path class="st6" d="M76,76.2"/>
						<path class="st4" d="M31.4,67.7c0.3-0.8,1.4-0.6,1.8,0.3c0.4,0.9,0.5,2.2,0.5,3.1c0.3,0.7,1.1,1.6,1.2,2.8
							c0.2,1.5-3.2,0.8-3.5-2.4C31.2,69.9,31,68.4,31.4,67.7z"/>
						<path class="st4" d="M29.3,67.5c0.4-0.8,1.9-0.6,2.4,0.4c0.4,1,0.4,2.1,0.5,3.2c0.6,0.7,1.3,2.2,1.7,3.2
							c0.4,1.1,2.4,3.9-1.7,1.5C30.7,75,28.3,69.1,29.3,67.5z"/>
						<path class="st4" d="M27.3,66.7c0.8-0.9,2.4-0.3,2.6,0.8c0.3,1,0.4,2.6,0.2,3.8c1,0.8,2.2,2.9,2.6,4.4
							c2.1,1.4,4.9,3.9,3.5,5.2C35,82.2,25.3,74.9,27.3,66.7z"/>
						<path class="st4" d="M37.8,106.3c-2.3,0-4.6-0.5-4.6-1.1c0.1-3.5,0.6-17.3,0.6-21.2c-1.3-1-3.5-3.1-4.5-4.2
							c-1-1.1-1.6-1.9-1.9-3.2c-0.3-1.4-0.7-2.3-0.9-3c-0.4-1.4-0.6-2.4-0.8-5.3c-0.1-1.7,0.2-2.2,0.8-2.1c1.6,0.1,2,3.3,2,5.4
							c1.3,1.1,1.8,3.1,2.1,4.7c1.7,0.9,3.7,2.2,4.6,3.3c0.7,0.9,1,1-0.1-0.7c-0.9-1.3-0.7-2.5-1.6-3.7c-0.6-0.7-1.8-2.4-0.5-3
							c1.3-0.6,2.1,0.4,2.9,1.8c0.8,1.4,2.2,2.4,4.1,3.6c2.9,1.9,1.9,5.1,1.9,7.8c0,3.1,0.4,14.6,0.4,19.7
							C42.3,105.8,40,106.3,37.8,106.3z"/>
						<path class="st4" d="M37.8,104.7c1.5,0,3.5-0.3,4.6-1c2.1-1.3,0.4-2.6-0.1-2.6c0,1.1-3.8,1.3-4.5,1.3c-0.8,0-4.5-0.2-4.5-1.3
							c-0.5,0-2.1,1.2-0.1,2.6C34.2,104.4,36.3,104.7,37.8,104.7z"/>
						<path class="st4" d="M37.8,102.4c1.4,0,3.5-0.3,4.6-1c2.1-1.3,0.4-2.6-0.1-2.6c0,1.1-3.7,1.3-4.5,1.3c-0.8,0-4.4-0.2-4.4-1.3
							c-0.5,0-2.1,1.2-0.1,2.6C34.3,102.1,36.3,102.4,37.8,102.4z"/>
						<path class="st4" d="M37.8,100.2c1.4,0,3.4-0.3,4.5-0.9c2-1.3,0.4-2.5-0.1-2.5c0,1.1-3.6,1.3-4.4,1.3s-4.4-0.2-4.4-1.3
							c-0.5,0-2.1,1.2-0.1,2.5C34.3,99.9,36.4,100.2,37.8,100.2z"/>
						<path class="st7" d="M49.7,110.8c-0.9-0.6-0.9-1.9,1.1-1.3c2,0.6,5.3,3.5,7.8,6.2"/>
						<path class="st7" d="M102.2,110.8c0.9-0.6,0.9-1.9-1.1-1.3c-2,0.6-5.3,3.5-7.8,6.2"/>
					</g>
					<g>
						<g>
							<path class="st8" d="M52.7,87.7c-0.4,3.5-1.4,7,1.6,9.1c-0.7-0.6-0.1-3.1,1.6-2.9c1.8,0.2,1.9,2.7,0.6,3.7"/>
							<path class="st8" d="M56.9,98.8c-0.2,1.4-0.9,2.7,0.2,3.5c1,0.8,1.9-1.4,1.1-1.8c-0.7-0.4-1.8,1.2-1.1,1.9
								c0.7,0.7,1.3,1.6,0.8,2.2c-0.5,0.6-1.3-0.1-1.2-1.2"/>
							<path class="st8" d="M58.3,103.3c2.1,1.4,2.9,0.4,3.5-5.4"/>
							<path class="st8" d="M63.5,98.4c-0.5,2.1-1,4.6-1.4,6c-0.6,2.8,1.6,4.1,2.5,1.4"/>
							<path class="st8" d="M66.4,105.5c-0.5,1.2-0.2,2.3,0.6,2.6c1,0.4,1.9-0.4,2.3-1.2"/>
							<line class="st8" x1="67.5" y1="103.6" x2="67.4" y2="103.7"/>
							<line class="st8" x1="62.4" y1="107.8" x2="62.4" y2="107.8"/>
							<path class="st8" d="M68.2,110c2,0.3,4.7-1.1,5.8-2.7c0.7-1.1,0.6-2.1,0.2-2.4c-0.4-0.2-1.2,0.3-1.6,1.5
								c-0.3,1-0.6,3.5,2.3,1.3c-0.5,1.1-0.3,2.2,0.5,2.4c0.9,0.2,1.5-1,1.6-3c0,1.7,0.1,2.4,0.8,2.4c0.6,0.1,0.9-0.6,1.1-2.5
								c-0.1,1,0.1,2.2,0.8,2.4c0.8,0.1,1.4-1,1.6-1.9"/>
							<path class="st8" d="M82.4,104.5c1.1-0.1,2.6-0.7,3.9-1.6c-2.3,1.2-2.1,6.2-3.7,6.7c1.4,0,2.1-2.6,3.5-2.4
								c-1-0.1-1.7,2-0.8,2.4c1.2,0.4,2.3-1.1,1.6-2c0.4,0.1,1.1-0.9,1.2-2.1s0.3-3,0-4.3"/>
							<path class="st8" d="M88.8,99.4c0.6,3.2,0.9,6.6,0,8.4"/>
							<path class="st8" d="M90.3,104.5c0.3,1.3,1,1.5,1.7,1.4c0.9-0.1,1.8-2,0.4-4.3"/>
							<line class="st8" x1="91.1" y1="101.6" x2="91" y2="101.7"/>
							<path class="st8" d="M97.8,97.8c-0.9,0.4-1.3,1.2-1.6,1.9c-0.4,1-0.1,1.4,0.2,1.6c0.4,0.2,0.9-0.1,1.2-0.5
								c0.3-0.4,0.4-1.1,0-1.4c-0.5-0.3-1.3-0.2-1.8,1.9c-0.2,0.6-0.8,0.9-1.2,0.6c-0.3-0.2-0.4-0.9-0.1-1.4
								c0.2-0.4,0.8-0.8,1.1-0.6c0.4,0.2,0.4,1,0.3,1.4c-0.3,0.9-1,1.9-1.6,2.4"/>
							<path class="st8" d="M97.8,98c0.1-0.1,0.6,0,0.4-1.7c-0.2-1.6-0.6-3.6-1.7-5.2"/>
							<path class="st8" d="M95.9,92.1c-0.6,0.3-0.8,1.1-0.6,1.6s0.8,0.8,1.4,0.6c-0.6,0.3-0.2,1.5,0.6,1.4"/>
							<path class="st8" d="M99.3,97.7c0.3-0.5,0.5-1.7,0.2-2.6c0.3,0.6,1.2,1.3,1.6,0.8c0.4-0.5,0.1-1.5-0.3-2.6
								c-0.4-1-1.4-3-2.3-4.5"/>
							<path class="st8" d="M102,93.3c0-2-1.4-4.6-2.3-6.1"/>
						</g>
						<g>
							<path class="st8" d="M52.4,108.2c0.6,0.4,2.2,0.8,3.4,0.5c1.2-0.3,1.3,0.5,1.1,1c-0.1,0.5-1.3,0.9-1.8,0.5
								c-0.6-0.5-0.3-1.1,0.4-1.4"/>
							<path class="st8" d="M58.8,108.9c-0.2,0.6-1,1.7-1.6,2.1"/>
							<path class="st8" d="M56.6,111c0.1,0.8,0.8,1.4,1.6,1.3c0.7,0,1.6-0.9,2.4-2.3c-0.9,1.5-1.9,3.5-1.5,4
								c0.5,0.6,1.3,0.1,1.6-0.3c-0.5,0.7-0.4,1.4,0,1.7c0.4,0.3,1,0.1,1.5-0.6c-0.4,0.6-0.3,1.4,0.2,1.6c0.4,0.2,1.2-0.1,1.5-0.8
								c-0.1,0.5,0,1.5,1,1.6c1,0.1,2-1.2,2.6-4.2"/>
							<path class="st8" d="M71.6,113.8c-0.1,1.1-0.5,2.9-0.9,3.6"/>
							<path class="st8" d="M68.1,118.7c1.1,0.4,3.4-0.1,4.2-1"/>
							<path class="st8" d="M74.9,114.1c-0.1,1-0.7,3.3-0.9,4.2c0.5-1.1,2-0.7,2.1,0c0.2,1-1,1.7-2.2,1"/>
							<path class="st8" d="M79.3,116.9c-0.3,1-0.2,2.6,1.3,2.7c1.2,0.1,2.4-0.5,3.1-1.4c0.4-0.4,0.7-1.1,0.2-1.6
								c-0.5-0.5-0.7-0.9-0.1-1.3c0.5-0.4,0.9-0.4,1.5-0.1c1.2,0.6,2.2,0.1,2.1-1.6"/>
							<g>
								<line class="st8" x1="85.1" y1="113.9" x2="85.1" y2="114.1"/>
							</g>
							<g>
								<line class="st8" x1="85.3" y1="118.4" x2="85.2" y2="118.6"/>
							</g>
							<g>
								<line class="st8" x1="83.8" y1="119.4" x2="83.8" y2="119.6"/>
							</g>
							<path class="st8" d="M87,117.5c1.6,0.6,3.6-1,4.3-2.9c0.4-1.1,0.2-2-0.3-2.2c-0.4-0.2-1.1,0.2-1.4,0.9
								c-0.2,0.6-0.2,1.6,0.3,1.8c0.4,0.2,1.3,0,1.4-0.5"/>
							<path class="st8" d="M92.1,115.5c2.2-2.3,2.4-3.3,2.4-4.4c0-1.4-0.3-2.3,0.5-2.7c0.9-0.4,1.9-1.4,2.6-2.4
								c0.7-1,2.3-0.9,1.9,0.9"/>
							<g>
								<line class="st8" x1="98.3" y1="108.5" x2="98.3" y2="108.7"/>
							</g>
						</g>
					</g>
				</g>
			</g>
		</g>
	</g>
</g>
<circle class="st9" cx="76" cy="76" r="75"/>
</svg>
