<?xml version="1.0" encoding="utf-8"?>
<!-- Generator: Adobe Illustrator 24.2.3, SVG Export Plug-In . SVG Version: 6.00 Build 0)  -->
<svg version="1.1" id="Layer_1" xmlns="http://www.w3.org/2000/svg" xmlns:xlink="http://www.w3.org/1999/xlink" x="0px" y="0px"
	 viewBox="0 0 150 150" style="enable-background:new 0 0 150 150;" xml:space="preserve">
<style type="text/css">
	.st0{fill:#FFFFFF;}
	.st1{display:none;opacity:0.6;fill:#253744;enable-background:new    ;}
	.st2{fill:none;stroke:#515151;stroke-width:2;stroke-linecap:square;stroke-miterlimit:36;}
</style>
<g>
	<circle class="st0" cx="75.2" cy="75" r="75"/>
	<path d="M150.2,75c0-15-4.4-29.1-12.1-40.8c0,0-4.3,6.2-3.5,10.3s5.5,4.3,5,7.3s-4-0.8-8.3,6.9c-4.3,7.8-2.1,18.5,4,19.3
		C141.6,78.8,150.2,75,150.2,75z"/>
	<path d="M94.9,2.6c8.7,2.4,16.8,6.3,24,11.4c0,0-8.7-1.4-12,1.5c-3.3,2.9-8.1,9.9-12,0C91,5.6,94.9,2.6,94.9,2.6z"/>
	<path d="M18.8,25.6C32.5,9.9,52.7,0,75.2,0c0,0-5.1,3.1,4.6,8.3c9.6,5.2,5.2,7.6,3.2,9.2c-2,1.6-5.5-3.2-7.8-6.4
		c-2.3-3.2-12.1-8.2-19.6-5.5c-7.5,2.7-13.9,4.7-12.9,7.2s13.9-2.3,18.7-2.1c4.8,0.3,3.2,3.2-1.3,6.7c-4.6,3.5-5.1,7.8-0.3,10.4
		c4.8,2.7,10.7,2.9,12.1,1.3c1.3-1.6-2.4-12.1,6.7-7.5c9.1,4.6,16.6,7.2,9.1,13.9c-7.5,6.7-16.1,14.2-16.3,18.5
		c-0.3,4.3,2.7,7.8,1.1,8c-1.6,0.3-3.1-1.7-4.2-3.2c-1.1-1.5-6-2-8.4-1.1c-2.4,0.9-7,4.6-4.4,8c2.5,3.5,6,1.9,9.5,3.5
		c3.5,1.6,6.7,7.7,6.1,9.1c-0.7,1.4-3.6-0.4-6.1-5.1c-2.4-4.7-7-1.6-10.2-2.4c-3.2-0.8-5.6-1.3-8.8-7c-3.2-5.6-9.9-7.2-12.6-10.4
		c-7.8-9.3-7.2-16.3-8.8-19.6C22.9,30.8,18.8,25.6,18.8,25.6z"/>
	<path d="M82.4,76.1c0,0,8,0.8,12.1,4.3c4,3.5,4.6,4.8,10.7,6.2c6.2,1.3,8.8,4.8,4.8,11.5c-4,6.7-11.3,17.4-14.7,20.6
		c-3.5,3.2-7.8,5.9-9.4,11.2c-1.6,5.4-2.1,8.6,1.3,10.7c0,0-1.9,4.6-6.2-1.3c-4.3-5.9-0.8-12.9,0-16.9c0.8-4,2.9-16.1,1.6-19
		c-1.3-2.9-7.5-4.8-9.1-11C71.9,86.2,74.8,74.3,82.4,76.1z"/>
	<path class="st1" d="M22.1,22C51.4-7.3,98.9-7.3,128.2,22c29.3,29.3,29.3,76.8,0,106.1c0,0,34-45-14.1-93.2
		C65.9-13.3,22.1,22,22.1,22z"/>
</g>
<circle class="st2" cx="75.2" cy="75" r="75"/>
</svg>
