<?xml version="1.0" encoding="utf-8"?>
<!-- Generator: Adobe Illustrator 24.2.3, SVG Export Plug-In . SVG Version: 6.00 Build 0)  -->
<svg version="1.1" id="Capa_1" xmlns="http://www.w3.org/2000/svg" xmlns:xlink="http://www.w3.org/1999/xlink" x="0px" y="0px"
	 viewBox="0 0 150 150" style="enable-background:new 0 0 150 150;" xml:space="preserve">
<style type="text/css">
	.st0{fill:#BEE86E;}
	.st1{fill:#87DCFF;}
	.st2{fill:none;stroke:#515151;stroke-width:2;stroke-linecap:square;stroke-miterlimit:36;}
</style>
<g>
	<path class="st0" d="M129.3,23.3l-7.8,5.2l-12.9-2.6l-7.8-2.6l-10.3,2.6l-7.8-2.6l5.2-10.3h10.3l10.1-5.1
		C116.2,11.7,123.3,17,129.3,23.3z"/>
	<path class="st0" d="M69.8,12.9l-2.6,7.8l-7.8,2.6l-7.8,12.9L38.8,44l-18.1,2.6v7.8l5.2,5.2v10.3l-7.8-5.2l-7.8-5.2L5.8,46
		C13.6,27.5,28.4,12.9,47,5.4l7.3,4.9L69.8,12.9z"/>
	<polygon class="st0" points="75,85.4 72.4,98.3 62.1,108.7 62.1,116.4 51.7,124.2 51.7,137.1 44,134.5 38.8,121.6 38.8,95.7 
		25.9,93.1 20.7,82.8 20.7,75 25.9,69.9 33.6,62.1 38.8,72.4 56.9,72.4 64.6,85.4 	"/>
	<path class="st0" d="M140.4,38.4c14.1,25.2,12.5,56.3-4.1,79.9l-7-7v-10.3l-5.2-10.3L119,80.2V69.9l-7.8-5.2l-10.3,2.6l-18.1-7.8
		l-2.6-18.1l7.8-7.8h15.5l5.2,7.8l15.5,2.6l15.5-5.2L140.4,38.4z"/>
</g>
<path class="st1" d="M90.5,25.9l10.3-2.6l7.8,2.6l12.9,2.6l7.8-5.2c4.3,4.5,8.1,9.6,11.1,15.1l-0.8,0.4L124.1,44l-15.5-2.6l-5.2-7.8
	H87.9l-7.8,7.8l2.6,18.1l18.1,7.8l10.3-2.6l7.8,5.2v10.3l5.2,10.3l5.2,10.3v10.3l7,7c-23.9,33.9-70.7,41.9-104.5,18
	C3,116-7.8,78.4,5.8,46l4.5,13.5l7.8,5.2l7.8,5.2L20.7,75v7.8l5.2,10.3l12.9,2.6v25.9l5.2,12.9l7.8,2.6v-12.9l10.3-7.8v-7.8
	l10.3-10.3L75,85.4H64.6l-7.8-12.9H38.8l-5.2-10.3l-7.8,7.8V59.5l-5.2-5.2v-7.8L38.8,44l12.9-7.8l7.8-12.9l7.8-2.6l2.6-7.8
	l-15.5-2.6L47,5.4c19.9-8,42.3-7.1,61.5,2.4l-10.1,5.1H87.9l-5.2,10.3L90.5,25.9z"/>
<circle class="st2" cx="75" cy="75" r="75"/>
</svg>
